<?xml version="1.0" standalone="no"?>
<!DOCTYPE svg PUBLIC "-//W3C//DTD SVG 1.1//EN" "http://www.w3.org/Graphics/SVG/1.1/DTD/svg11.dtd" >
<svg xmlns="http://www.w3.org/2000/svg" xmlns:xlink="http://www.w3.org/1999/xlink" version="1.1">
<metadata>
Created by FontForge 20201107 at Tue Sep 26 10:39:29 2023
 By 
(c)newglyph 2023
</metadata>
<defs>
<font id="BarlowCondensedExp-Medium" horiz-adv-x="1588" >
  <font-face 
    font-family="BarlowCondensed Exp Medium"
    font-weight="500"
    font-stretch="normal"
    units-per-em="2048"
    panose-1="0 0 0 0 0 0 0 0 0 0"
    ascent="1638"
    descent="-410"
    x-height="1067"
    cap-height="1444"
    bbox="-442 -465 3225 1993"
    underline-thickness="102"
    underline-position="-256"
    unicode-range="U+000D-FB04"
  />
<missing-glyph horiz-adv-x="1034" 
d="M100 0v1444h834v-1444h-834zM519 768l338 629h-677zM149 80l343 637l-343 637v-1274zM886 84v1266l-340 -633zM185 47h667l-333 619z" />
    <glyph glyph-name="f_f" unicode="ff" horiz-adv-x="2070" 
d="M306 0v853h-265v214h265v33q0 191 99.5 268t339.5 77h253v-210h-227q-107 0 -141.5 -24.5t-34.5 -110.5v-33h403v-214h-403v-853h-289zM1356 0v853h-265v214h265v33q0 191 99.5 268t339.5 77h253v-210h-227q-107 0 -141.5 -24.5t-34.5 -110.5v-33h403v-214h-403v-853
h-289z" />
    <glyph glyph-name="fi" unicode="fi" horiz-adv-x="1653" 
d="M306 0v853h-265v214h265v33q0 191 99.5 268t339.5 77h253v-210h-227q-107 0 -141.5 -24.5t-34.5 -110.5v-33h403v-214h-403v-853h-289zM1207 0v1067h289v-1067h-289zM1207 1192v252h289v-252h-289z" />
    <glyph glyph-name="fl" unicode="fl" horiz-adv-x="1653" 
d="M306 0v853h-265v214h265v33q0 191 99.5 268t339.5 77h253v-210h-227q-107 0 -141.5 -24.5t-34.5 -110.5v-33h403v-214h-403v-853h-289zM1207 0v1444h289v-1444h-289z" />
    <glyph glyph-name="f_f_i" unicode="ffi" horiz-adv-x="2702" 
d="M306 0v853h-265v214h265v33q0 191 99.5 268t339.5 77h253v-210h-227q-107 0 -141.5 -24.5t-34.5 -110.5v-33h403v-214h-403v-853h-289zM1356 0v853h-265v214h265v33q0 191 99.5 268t339.5 77h253v-210h-227q-107 0 -141.5 -24.5t-34.5 -110.5v-33h403v-214h-403v-853
h-289zM2256 0v1067h289v-1067h-289zM2256 1192v252h289v-252h-289z" />
    <glyph glyph-name="f_f_l" unicode="ffl" horiz-adv-x="2702" 
d="M306 0v853h-265v214h265v33q0 191 99.5 268t339.5 77h253v-210h-227q-107 0 -141.5 -24.5t-34.5 -110.5v-33h403v-214h-403v-853h-289zM1356 0v853h-265v214h265v33q0 191 99.5 268t339.5 77h253v-210h-227q-107 0 -141.5 -24.5t-34.5 -110.5v-33h403v-214h-403v-853
h-289zM2256 0v1444h289v-1444h-289z" />
    <glyph glyph-name=".notdef" horiz-adv-x="1034" 
d="M100 0v1444h834v-1444h-834zM519 768l338 629h-677zM149 80l343 637l-343 637v-1274zM886 84v1266l-340 -633zM185 47h667l-333 619z" />
    <glyph glyph-name="uni0000" horiz-adv-x="0" 
 />
    <glyph glyph-name="uni0000" horiz-adv-x="0" 
 />
    <glyph glyph-name="uni000D" unicode="&#xd;" horiz-adv-x="589" 
 />
    <glyph glyph-name="space" unicode=" " horiz-adv-x="589" 
 />
    <glyph glyph-name="exclam" unicode="!" horiz-adv-x="636" 
d="M168 0v295h302v-295h-302zM211 466l-39 486v493h292v-493l-39 -486h-214z" />
    <glyph glyph-name="quotedbl" unicode="&#x22;" horiz-adv-x="1092" 
d="M663 1444h300v-90l-24 -415h-251l-25 415v90zM129 1444h300v-90l-24 -415h-251l-25 415v90z" />
    <glyph glyph-name="numbersign" unicode="#" horiz-adv-x="1426" 
d="M263 0l52 401h-241l26 203h241l41 309h-242l27 203h241l51 389h208l-51 -389h287l50 389h208l-51 -389h243l-28 -203h-241l-41 -309h243l-27 -203h-242l-52 -401h-207l52 401h-288l-52 -401h-207zM549 604h287l40 309h-287z" />
    <glyph glyph-name="dollar" unicode="$" horiz-adv-x="1810" 
d="M779 -252v228q-295 26 -482.5 148t-229.5 323h329q36 -131 181 -192.5t366 -61.5q494 0 494 198v2q0 44 -19 76t-52.5 53.5t-93 37t-126 25t-165.5 18.5l-252 29q-314 29 -466.5 134t-152.5 293v2q0 119 89.5 209t238.5 139.5t341 61.5v225h253v-228q274 -24 448.5 -135
t213.5 -295h-329q-70 213 -496 213q-95 0 -173.5 -10t-142.5 -30.5t-100 -57t-36 -85.5v-2q0 -85 89 -130.5t308 -63.5l252 -28q137 -14 238 -34t188 -52.5t140.5 -77.5t83.5 -110t30 -150v-3q0 -139 -90 -237t-247 -148t-377 -60v-224h-253z" />
    <glyph glyph-name="percent" unicode="%" horiz-adv-x="2379" 
d="M512 623q-198 0 -324 115.5t-126 309.5v2q0 194 126 309.5t324 115.5q199 0 325.5 -115.5t126.5 -309.5v-2q0 -194 -126.5 -309.5t-325.5 -115.5zM512 786q103 0 161 67t58 195v2q0 128 -58 194.5t-161 66.5q-102 0 -159.5 -66.5t-57.5 -194.5v-2q0 -128 57.5 -195
t159.5 -67zM658 0l786 1444h277l-786 -1444h-277zM1866 -31q-198 0 -324.5 115.5t-126.5 309.5v2q0 195 126 310.5t325 115.5t325.5 -115.5t126.5 -310.5v-2q0 -194 -126.5 -309.5t-325.5 -115.5zM1866 133q103 0 161 66.5t58 194.5v2q0 129 -58 196t-161 67t-160.5 -66.5
t-57.5 -196.5v-2q0 -128 57.5 -194.5t160.5 -66.5z" />
    <glyph glyph-name="ampersand" unicode="&#x26;" horiz-adv-x="2035" 
d="M725 -31q-303 0 -477 113.5t-174 303.5v2q0 148 118.5 255t358.5 179q-102 80 -155 158t-53 164v3q0 143 140 235.5t384 92.5q250 0 387 -88.5t137 -237.5v-3q0 -231 -378 -365l394 -295q154 158 230 265h312q-124 -190 -353 -410l455 -341h-409l-238 178
q-154 -109 -319 -159t-360 -50zM831 915q138 41 203 94.5t65 125.5v2q0 69 -61.5 105t-168.5 36q-110 0 -169 -33t-59 -97v-3q0 -56 47.5 -109.5t142.5 -120.5zM750 177q261 0 468 141l-478 360q-197 -53 -278 -123t-81 -162v-1q0 -99 97.5 -157t271.5 -58z" />
    <glyph glyph-name="quotesingle" unicode="'" horiz-adv-x="558" 
d="M129 1444h300v-90l-24 -415h-251l-25 415v90z" />
    <glyph glyph-name="parenleft" unicode="(" horiz-adv-x="690" 
d="M387 -333q-124 163 -207.5 411.5t-83.5 477.5t83.5 477t207.5 411h253q-129 -184 -201.5 -419t-72.5 -469q0 -235 72 -470t202 -419h-253z" />
    <glyph glyph-name="parenright" unicode=")" horiz-adv-x="690" 
d="M51 -333q130 184 202 419t72 470q0 234 -72.5 469t-201.5 419h253q124 -163 207.5 -411t83.5 -477t-83.5 -477.5t-207.5 -411.5h-253z" />
    <glyph glyph-name="asterisk" unicode="*" horiz-adv-x="1048" 
d="M359 643l-180 125l200 225l-302 70l66 201l292 -113l-21 293h222l-22 -293l292 113l66 -201l-302 -70l200 -225l-180 -125l-165 252z" />
    <glyph glyph-name="plus" unicode="+" horiz-adv-x="1537" 
d="M638 130v478h-507v244h507v480h261v-480h507v-244h-507v-478h-261z" />
    <glyph glyph-name="comma" unicode="," horiz-adv-x="601" 
d="M37 -230l142 525h304l-193 -525h-253z" />
    <glyph glyph-name="hyphen" unicode="-" horiz-adv-x="1021" 
d="M139 429v244h744v-244h-744z" />
    <glyph glyph-name="period" unicode="." horiz-adv-x="578" 
d="M138 0v295h302v-295h-302z" />
    <glyph glyph-name="slash" unicode="/" horiz-adv-x="1220" 
d="M36 -217l854 1661h288l-854 -1661h-288z" />
    <glyph glyph-name="zero" unicode="0" horiz-adv-x="2005" 
d="M1003 -31q-270 0 -471.5 88t-312.5 258.5t-111 405.5v2q0 235 111 405.5t312.5 258.5t471.5 88q269 0 470 -88t312 -258.5t111 -405.5v-2q0 -235 -111 -405.5t-312 -258.5t-470 -88zM1003 199q124 0 227 31t183 92.5t124.5 163.5t44.5 235v2q0 133 -44.5 235
t-124.5 163.5t-183 92.5t-227 31t-227.5 -31t-183.5 -92.5t-124.5 -163.5t-44.5 -235v-2q0 -133 44.5 -235t124.5 -163.5t183.5 -92.5t227.5 -31z" />
    <glyph glyph-name="one" unicode="1" horiz-adv-x="974" 
d="M487 0v1023h-434v231h124q181 0 251 34.5t111 154.5h249v-1443h-301z" />
    <glyph glyph-name="two" unicode="2" horiz-adv-x="1807" 
d="M82 0v17q0 246 164.5 403t541.5 282l206 66q204 69 284 125t80 152v1q0 206 -438 206q-106 0 -187.5 -15.5t-146.5 -50t-101.5 -94.5t-42.5 -143h-310q22 252 231.5 389t560.5 137t547 -110t196 -314v-2q0 -61 -13.5 -110.5t-44 -92.5t-72.5 -78t-107 -69.5t-138.5 -64.5
t-175.5 -65l-203 -63q-228 -80 -320 -131.5t-137 -134.5h1246v-240h-1620z" />
    <glyph glyph-name="three" unicode="3" horiz-adv-x="1856" 
d="M935 -31q-239 0 -425.5 55.5t-302 167t-133.5 265.5h314q14 -74 63 -127.5t125 -82.5t163.5 -42.5t192.5 -13.5q503 0 503 217v2q0 223 -506 223h-131v228h134q447 0 447 199v2q0 66 -58.5 109.5t-157 62.5t-234.5 19q-132 0 -232.5 -24t-169 -81.5t-82.5 -145.5h-315
q35 222 249 347.5t556 125.5q221 0 388 -44t263.5 -134t96.5 -217v-2q0 -116 -75 -199t-205 -116v-2q158 -35 250.5 -121.5t92.5 -225.5v-2q0 -145 -106 -246t-286 -149t-419 -48z" />
    <glyph glyph-name="four" unicode="4" horiz-adv-x="1928" 
d="M1234 0v334h-1187v235l1187 875h300v-875h335v-235h-335v-334h-300zM396 569h838v606h-2z" />
    <glyph glyph-name="five" unicode="5" horiz-adv-x="1810" 
d="M905 -31q-229 0 -409 52.5t-291.5 153.5t-133.5 239h316q16 -62 63.5 -106.5t118 -69.5t151.5 -36.5t177 -11.5q241 0 379.5 68.5t138.5 203.5v3q0 136 -137.5 205.5t-378.5 69.5q-168 0 -294.5 -33t-194.5 -96h-284l193 834h1270v-241h-1057l-86 -371q202 124 551 124
q338 0 534 -128.5t196 -358.5v-3q0 -229 -223.5 -363.5t-598.5 -134.5z" />
    <glyph glyph-name="six" unicode="6" horiz-adv-x="1872" 
d="M957 -31q-411 0 -628 176.5t-217 506.5v2q0 181 57.5 331.5t167 259.5t277.5 169.5t380 60.5q302 0 497 -108.5t237 -277.5h-320q-88 165 -418 165q-257 0 -407.5 -128t-164.5 -373q88 100 244 154t363 54q212 0 380.5 -58t268.5 -172t100 -266v-2q0 -223 -224 -358.5
t-593 -135.5zM954 190q235 0 373.5 71t138.5 200v2q0 130 -139.5 204.5t-372.5 74.5t-373 -74.5t-140 -204.5v-2q0 -129 139 -200t374 -71z" />
    <glyph glyph-name="seven" unicode="7" horiz-adv-x="1656" 
d="M409 0q5 238 60 425t162.5 331t254 250.5t351.5 197.5h-1204v240h1590v-240q-184 -83 -319 -165t-249 -186.5t-185.5 -226t-113 -278t-45.5 -348.5h-302z" />
    <glyph glyph-name="eight" unicode="8" horiz-adv-x="1868" 
d="M935 -31q-396 0 -612 118t-216 321v3q0 129 94 218t242 127v2q-128 42 -200.5 125t-72.5 197v2q0 180 207 286.5t558 106.5t558 -106.5t207 -286.5v-2q0 -114 -73 -197t-201 -125v-2q148 -38 241.5 -127t93.5 -218v-3q0 -203 -215.5 -321t-610.5 -118zM935 856
q222 0 340.5 51.5t118.5 149.5v1q0 97 -118.5 146.5t-340.5 49.5q-223 0 -341.5 -49.5t-118.5 -146.5v-1q0 -98 119 -149.5t341 -51.5zM935 190q254 0 384 57.5t130 165.5v2q0 108 -131 167t-383 59q-253 0 -384 -59t-131 -167v-2q0 -108 130.5 -165.5t384.5 -57.5z" />
    <glyph glyph-name="nine" unicode="9" horiz-adv-x="1872" 
d="M944 1473q411 0 628.5 -176.5t217.5 -506.5v-2q0 -181 -57.5 -331.5t-167 -259.5t-278 -169.5t-380.5 -60.5q-302 0 -497 108.5t-237 277.5h320q88 -165 419 -165q257 0 407.5 128t164.5 373q-88 -100 -244 -154t-364 -54q-212 0 -380.5 58t-268.5 172t-100 266v2
q0 223 224 358.5t593 135.5zM948 1252q-235 0 -374 -71t-139 -200v-2q0 -130 140 -204.5t373 -74.5t373 74.5t140 204.5v2q0 129 -139 200t-374 71z" />
    <glyph glyph-name="colon" unicode=":" horiz-adv-x="578" 
d="M138 0v295h302v-295h-302zM138 773v295h302v-295h-302z" />
    <glyph glyph-name="semicolon" unicode=";" horiz-adv-x="623" 
d="M37 -230l142 525h304l-193 -525h-253zM177 773v295h302v-295h-302z" />
    <glyph glyph-name="less" unicode="&#x3c;" horiz-adv-x="1512" 
d="M118 610v241l1245 494v-276l-909 -338v-1l909 -337v-277z" />
    <glyph glyph-name="equal" unicode="=" horiz-adv-x="1601" 
d="M154 850v245h1294v-245h-1294zM154 370v244h1294v-244h-1294z" />
    <glyph glyph-name="greater" unicode="&#x3e;" horiz-adv-x="1512" 
d="M1396 851v-241l-1246 -494v277l909 337v1l-909 338v276z" />
    <glyph glyph-name="question" unicode="?" horiz-adv-x="1613" 
d="M615 0v295h302v-295h-302zM799 1262q-214 0 -321.5 -63.5t-111.5 -206.5h-309q10 232 209 357.5t535 125.5q356 0 550 -100.5t194 -277.5v-2q0 -116 -77.5 -194.5t-222.5 -137.5l-111 -48q-71 -31 -107.5 -50.5t-67 -48t-41.5 -63t-12 -87.5h-280q0 153 65.5 234
t234.5 151l111 48q109 45 152.5 84.5t43.5 99.5v1q0 85 -110 131.5t-324 46.5z" />
    <glyph glyph-name="at" unicode="@" horiz-adv-x="2132" 
d="M985 474q145 0 246 89.5t102 227.5v3q0 103 -71 162.5t-198 59.5q-150 0 -241 -91t-91 -221v-3q1 -109 67.5 -168t185.5 -59zM929 316q-83 0 -156 23.5t-131.5 68.5t-93 120t-34.5 171v3q0 93 37 178.5t103.5 152t166 106t215.5 39.5t204.5 -47t126.5 -121l19 131h189
l-62 -442q-17 -120 5 -180.5t105 -60.5q103 0 179.5 100.5t76.5 271.5v3q0 173 -97 294t-264 178.5t-390 57.5q-185 0 -342 -51.5t-264 -141t-166.5 -211.5t-59.5 -261v-4q0 -266 182.5 -420t503.5 -154q250 0 474 91l60 -161q-111 -48 -253 -74t-282 -26q-262 0 -464.5 90
t-316 260t-113.5 395v3q0 139 51.5 266t146.5 228t223.5 176.5t289.5 116t337 40.5q156 0 294 -26t256 -80.5t203 -134t133 -192.5t48 -250v-3q0 -127 -41 -230.5t-108 -168t-149 -99.5t-168 -35q-111 0 -179 53t-83 144q-62 -91 -171.5 -139t-240.5 -48z" />
    <glyph glyph-name="A" unicode="A" horiz-adv-x="1841" 
d="M4 0l734 1444h366l735 -1444h-332l-194 383h-807l-193 -383h-309zM622 622h574l-287 571h-2z" />
    <glyph glyph-name="B" unicode="B" horiz-adv-x="1834" 
d="M179 0v1444h934q279 0 410 -97.5t131 -268.5v-2q0 -106 -51.5 -184.5t-136.5 -121.5v-1q124 -38 198.5 -123.5t74.5 -221.5v-1q0 -210 -153.5 -316.5t-441.5 -106.5h-965zM479 856h615q252 0 252 182v1q0 93 -64 133.5t-188 40.5h-615v-357zM479 231h645q155 0 227 47.5
t72 147.5v2q0 101 -72 149t-227 48h-645v-394z" />
    <glyph glyph-name="C" unicode="C" horiz-adv-x="2016" 
d="M1053 -31q-286 0 -503 91.5t-336 262.5t-119 398v2q0 170 69 311t194 237.5t303 150t392 53.5q342 0 584 -135.5t313 -369.5h-327q-57 133 -212.5 201.5t-355.5 68.5q-136 0 -252.5 -33.5t-204 -97t-137.5 -163t-50 -223.5v-2q0 -124 50 -223.5t137.5 -163t204 -97
t252.5 -33.5q200 0 355.5 68.5t212.5 201.5h327q-71 -234 -313 -369.5t-584 -135.5z" />
    <glyph glyph-name="D" unicode="D" horiz-adv-x="1910" 
d="M179 0v1444h683q154 0 288.5 -22t258 -75t211 -133.5t139.5 -206.5t52 -285v-2q0 -158 -52 -283t-139.5 -206t-211 -134t-258 -75t-288.5 -22h-683zM479 239h381q635 0 635 481v2q0 483 -635 483h-381v-966z" />
    <glyph glyph-name="E" unicode="E" horiz-adv-x="1704" 
d="M179 0v1444h1402v-240h-1102v-354h1038v-240h-1038v-370h1105v-240h-1405z" />
    <glyph glyph-name="F" unicode="F" horiz-adv-x="1685" 
d="M179 0v1444h1438v-240h-1138v-354h1073v-240h-1073v-610h-300z" />
    <glyph glyph-name="G" unicode="G" horiz-adv-x="2110" 
d="M1044 -31q-281 0 -495 90.5t-333.5 261.5t-119.5 400v2q0 230 120 401t336.5 260.5t503.5 89.5q219 0 404.5 -56.5t313.5 -164.5t175 -254h-323q-59 118 -216 179t-347 61q-137 0 -254 -32.5t-206 -95t-140 -162.5t-51 -226v-2q0 -167 88 -286t233.5 -176t332.5 -57
q161 0 296 40t222.5 125t87.5 201v8h-562v227h853v-804h-235l-8 216q-89 -106 -269.5 -176t-406.5 -70z" />
    <glyph glyph-name="H" unicode="H" horiz-adv-x="1962" 
d="M179 0v1444h300v-589h1004v589h300v-1444h-300v605h-1004v-605h-300z" />
    <glyph glyph-name="I" unicode="I" horiz-adv-x="659" 
d="M179 0v1444h300v-1444h-300z" />
    <glyph glyph-name="J" unicode="J" horiz-adv-x="1498" 
d="M679 -31q-289 0 -466.5 139.5t-187.5 396.5h319q13 -304 341 -304q164 0 257 76.5t93 239.5v926h300v-924q0 -137 -48 -243t-136 -172.5t-207 -100.5t-265 -34z" />
    <glyph glyph-name="K" unicode="K" horiz-adv-x="1807" 
d="M179 0v1444h300v-620l903 620h416l-1024 -706l1057 -738h-474l-878 607v-607h-300z" />
    <glyph glyph-name="L" unicode="L" horiz-adv-x="1530" 
d="M179 0v1444h300v-1204h1029v-240h-1329z" />
    <glyph glyph-name="M" unicode="M" horiz-adv-x="2405" 
d="M179 0v1444h460l563 -1158h2l562 1158h460v-1444h-293v740l2 432h-2l-582 -1172h-295l-583 1172h-2l2 -432v-740h-294z" />
    <glyph glyph-name="N" unicode="N" horiz-adv-x="1976" 
d="M179 0v1444h347l980 -1090h2l-2 282v808h291v-1444h-349l-978 1083h-2l2 -288v-795h-291z" />
    <glyph glyph-name="O" unicode="O" horiz-adv-x="2135" 
d="M1064 -31q-283 0 -500.5 89.5t-340.5 261t-123 401.5v2q0 231 123 402.5t340 260.5t501 89t501 -89t340 -260.5t123 -402.5v-2q0 -230 -123 -401.5t-340.5 -261t-500.5 -89.5zM1064 204q185 0 330 58.5t231.5 177t86.5 281.5v2q0 163 -86.5 282t-231.5 177t-330 58
t-330 -58t-231.5 -177t-86.5 -282v-2q0 -163 86.5 -281.5t231.5 -177t330 -58.5z" />
    <glyph glyph-name="P" unicode="P" horiz-adv-x="1760" 
d="M179 0v1444h895q307 0 470.5 -108.5t163.5 -348.5v-2q0 -240 -163 -348.5t-470 -108.5h-596v-528h-300zM479 765h574q179 0 259 48.5t80 171.5v2q0 123 -80 171.5t-259 48.5h-574v-442z" />
    <glyph glyph-name="Q" unicode="Q" horiz-adv-x="2135" 
d="M1064 -31q-283 0 -500.5 89.5t-340.5 261t-123 401.5v2q0 231 123 402.5t340 260.5t501 89t501 -89t340 -260.5t123 -402.5v-2q0 -200 -92 -354.5t-261 -252.5l389 -349h-364l-278 247q-167 -43 -358 -43zM1064 204q185 0 330 58.5t231.5 177t86.5 281.5v2
q0 163 -86.5 282t-231.5 177t-330 58t-330 -58t-231.5 -177t-86.5 -282v-2q0 -163 86.5 -281.5t231.5 -177t330 -58.5z" />
    <glyph glyph-name="R" unicode="R" horiz-adv-x="1881" 
d="M179 0v1444h933q142 0 249 -20t188.5 -63.5t123.5 -118.5t42 -180v-2q0 -275 -267 -356q73 -18 116 -46t72.5 -91t39.5 -168l14 -131q10 -102 19 -159.5t14 -74t14 -34.5h-312q-17 42 -28 136l-22 207q-8 77 -24.5 122t-52 70t-82 33t-126.5 8h-611v-576h-300zM479 809
h616q161 0 233 44t72 155v2q0 110 -72 154.5t-233 44.5h-616v-400z" />
    <glyph glyph-name="S" unicode="S" horiz-adv-x="1839" 
d="M943 -31q-358 0 -586.5 125.5t-275.5 352.5h329q36 -132 181 -193.5t365 -61.5q494 0 494 198v3q0 36 -12 64t-38.5 49t-61.5 36.5t-89.5 27t-113 19t-140.5 14.5l-252 28q-315 30 -467 135t-152 292v2q0 130 105 225.5t279 142.5t393 47t389.5 -50t278.5 -149t138 -238
h-329q-69 213 -496 213q-94 0 -172.5 -10t-142.5 -30.5t-100 -57t-36 -85.5v-2q0 -85 89 -130.5t308 -63.5l252 -29q137 -14 238 -33.5t187.5 -52t140 -77.5t83.5 -110t30 -150v-3q0 -151 -104 -253t-283.5 -148.5t-428.5 -46.5z" />
    <glyph glyph-name="T" unicode="T" horiz-adv-x="1717" 
d="M709 0v1203h-686v241h1672v-241h-686v-1203h-300z" />
    <glyph glyph-name="U" unicode="U" horiz-adv-x="1917" 
d="M959 -31q-799 0 -799 663v811h300v-806q0 -217 127 -325t372 -108t372 108t127 325v806h300v-811q0 -663 -799 -663z" />
    <glyph glyph-name="V" unicode="V" horiz-adv-x="1870" 
d="M755 0l-754 1444h339l610 -1171h1l607 1171h311l-753 -1444h-361z" />
    <glyph glyph-name="W" unicode="W" horiz-adv-x="2724" 
d="M554 0l-524 1444h318l419 -1148h2l405 1148h379l410 -1153h2l421 1153h308l-523 -1444h-396l-413 1178l-2 1l-410 -1179h-396z" />
    <glyph glyph-name="X" unicode="X" horiz-adv-x="1859" 
d="M-5 0l748 730l-720 714h388l529 -515l537 515h359l-719 -699l749 -745h-388l-557 546l-566 -546h-360z" />
    <glyph glyph-name="Y" unicode="Y" horiz-adv-x="1856" 
d="M779 0v523l-771 921h359l457 -551l105 -131h2l104 131l454 551h358l-768 -921v-523h-300z" />
    <glyph glyph-name="Z" unicode="Z" horiz-adv-x="1663" 
d="M80 0v236l1072 968h-1032v240h1434v-235l-1073 -969h1095v-240h-1496z" />
    <glyph glyph-name="bracketleft" unicode="[" horiz-adv-x="828" 
d="M177 -333v1777h594v-217h-332v-1343h332v-217h-594z" />
    <glyph glyph-name="backslash" unicode="\" horiz-adv-x="1220" 
d="M324 1444l854 -1661h-288l-854 1661h288z" />
    <glyph glyph-name="bracketright" unicode="]" horiz-adv-x="828" 
d="M57 -333v217h333v1343h-333v217h594v-1777h-594z" />
    <glyph glyph-name="asciicircum" unicode="^" horiz-adv-x="1509" 
d="M58 585l548 859h297l549 -859h-309l-388 615h-1l-388 -615h-308z" />
    <glyph glyph-name="underscore" unicode="_" horiz-adv-x="1353" 
d="M108 -337v244h1138v-244h-1138z" />
    <glyph glyph-name="grave" unicode="`" horiz-adv-x="740" 
d="M391 1210l-330 234h385l258 -234h-313z" />
    <glyph glyph-name="a" unicode="a" horiz-adv-x="1525" 
d="M601 -31q-241 0 -382 85.5t-141 243.5v2q0 64 22 115t67.5 88t104 63.5t143 45.5t172 31t202.5 21q142 10 202 21t81.5 28.5t21.5 56.5v2q0 68 -83 103.5t-241 35.5q-325 0 -340 -175h-296q6 171 174 269.5t458 98.5q152 0 262.5 -18.5t193.5 -61.5t123.5 -118.5
t39.5 -185.5l-5 -359q-1 -127 5 -202.5t26 -158.5h-289q-15 67 -18 121q-136 -152 -503 -152zM667 162q432 0 432 265v116q-98 -29 -305 -54q-245 -33 -329.5 -66.5t-84.5 -109.5v-1q0 -74 74 -112t213 -38z" />
    <glyph glyph-name="b" unicode="b" horiz-adv-x="1662" 
d="M933 -30q-175 0 -299 49t-188 127v-146h-289v1444h289v-521q64 78 188 127t299 49q184 0 329.5 -65.5t231.5 -194.5t86 -303v-2q0 -175 -86 -304t-231.5 -194.5t-329.5 -65.5zM855 181q83 0 156 20t133.5 61t96 111t35.5 161v2q0 91 -35.5 160.5t-96 110.5t-133.5 61
t-156 20t-156 -20t-134 -60.5t-97 -110.5t-36 -161v-2q0 -91 36 -161t97 -111t134 -61t156 -20z" />
    <glyph glyph-name="c" unicode="c" horiz-adv-x="1541" 
d="M792 -31q-206 0 -366 67.5t-252 197t-92 302.5v2q0 172 92.5 301t253 196t366.5 67q269 0 453.5 -105t228.5 -288h-305q-39 91 -141 137t-236 46q-82 0 -155 -22.5t-130.5 -65.5t-91 -111.5t-33.5 -154.5v-2q0 -114 58.5 -197t150 -121.5t202.5 -38.5q133 0 235 46
t141 137h305q-44 -183 -229.5 -288t-454.5 -105z" />
    <glyph glyph-name="d" unicode="d" horiz-adv-x="1662" 
d="M730 -30q-184 0 -329.5 65.5t-231.5 194.5t-86 304v2q0 174 86 303t231.5 194.5t329.5 65.5q174 0 297.5 -49t188.5 -127v521h289v-1444h-289v146q-65 -78 -188.5 -127t-297.5 -49zM808 181q65 0 125 12t114.5 39.5t94.5 67.5t64 100t24 134v2q0 73 -24 133t-64 100
t-94.5 67.5t-114.5 39.5t-125 12q-83 0 -156 -20t-133.5 -61t-96 -110.5t-35.5 -160.5v-2q0 -91 35.5 -161t96 -111t133.5 -61t156 -20z" />
    <glyph glyph-name="e" unicode="e" horiz-adv-x="1599" 
d="M804 -31q-327 0 -524.5 153t-197.5 415v2q0 172 94.5 301t256.5 195.5t368 66.5q209 0 368.5 -73t253.5 -220.5t101 -353.5v-1h-1140v-1q26 -135 143.5 -207.5t284.5 -72.5q137 0 239.5 36.5t151.5 109.5h305q-63 -164 -247.5 -257t-456.5 -93zM798 904
q-163 0 -271.5 -64t-140.5 -193v-1h823v1q-28 123 -137 190t-274 67z" />
    <glyph glyph-name="f" unicode="f" horiz-adv-x="1020" 
d="M306 0v853h-265v214h265v33q0 191 99.5 268t339.5 77h253v-210h-227q-107 0 -141.5 -24.5t-34.5 -110.5v-33h403v-214h-403v-853h-289z" />
    <glyph glyph-name="g" unicode="g" horiz-adv-x="1663" 
d="M723 47q-178 0 -320.5 59t-229 179t-86.5 282v2q0 123 50 224t136 167.5t202 102.5t248 36q183 0 312 -48.5t186 -125.5v142h290v-890q0 -123 -37.5 -217t-101.5 -154t-157.5 -97.5t-196 -52.5t-227.5 -15q-276 0 -447.5 89t-209.5 263h300q49 -152 363 -152
q73 0 130.5 6.5t114.5 26t94.5 52t61 86.5t23.5 127v81q-57 -77 -186 -125t-312 -48zM810 256q82 0 155 18t134 54t96.5 97.5t35.5 141.5v2q0 80 -35.5 143t-96 100.5t-134 57t-155.5 19.5q-65 0 -124.5 -11t-113.5 -36.5t-94 -62t-63.5 -90.5t-23.5 -120v-2
q0 -81 35.5 -143t96 -97.5t133 -53t154.5 -17.5z" />
    <glyph glyph-name="h" unicode="h" 
d="M157 0v1444h289v-530q62 83 178 134t281 51q259 0 401.5 -126.5t142.5 -371.5v-601h-289v539q0 171 -91.5 257t-265.5 86t-265.5 -86t-91.5 -257v-539h-289z" />
    <glyph glyph-name="i" unicode="i" horiz-adv-x="603" 
d="M157 0v1067h289v-1067h-289zM157 1192v252h289v-252h-289z" />
    <glyph glyph-name="j" unicode="j" horiz-adv-x="603" 
d="M-110 -333v212h90q56 0 86.5 5.5t53.5 25.5t30.5 56t7.5 98v1003h289v-1015q0 -217 -95 -301t-329 -84h-133zM158 1192v252h289v-252h-289z" />
    <glyph glyph-name="k" unicode="k" horiz-adv-x="1491" 
d="M157 0v1444h289v-813l640 436h386l-740 -500l794 -567h-441l-639 450v-450h-289z" />
    <glyph glyph-name="l" unicode="l" horiz-adv-x="603" 
d="M157 0v1444h289v-1444h-289z" />
    <glyph glyph-name="m" unicode="m" horiz-adv-x="2592" 
d="M157 0v1067h289v-149q62 82 177.5 131.5t281.5 49.5q363 0 486 -232q166 232 517 232q260 0 402 -126.5t142 -371.5v-601h-289v539q0 171 -91.5 257t-265.5 86t-265.5 -86t-91.5 -257v-539h-289v539q0 171 -91.5 257t-265.5 86t-265.5 -86t-91.5 -257v-539h-289z" />
    <glyph glyph-name="n" unicode="n" 
d="M157 0v1067h289v-149q62 82 177.5 131.5t281.5 49.5q259 0 401.5 -126.5t142.5 -371.5v-601h-289v539q0 171 -91.5 257t-265.5 86t-265.5 -86t-91.5 -257v-539h-289z" />
    <glyph glyph-name="o" unicode="o" horiz-adv-x="1637" 
d="M819 -31q-340 0 -539 154.5t-199 412.5v2q0 257 199 410.5t539 153.5q339 0 538 -153.5t199 -410.5v-2q0 -258 -199 -412.5t-538 -154.5zM819 180q195 0 315 94.5t120 261.5v2q0 165 -120 259t-315 94t-315.5 -94t-120.5 -259v-2q0 -167 120.5 -261.5t315.5 -94.5z" />
    <glyph glyph-name="p" unicode="p" horiz-adv-x="1662" 
d="M933 -30q-175 0 -299 49t-188 127v-479h-289v1400h289v-144q64 78 188 127t299 49q184 0 329.5 -65.5t231.5 -194.5t86 -303v-2q0 -175 -86 -304t-231.5 -194.5t-329.5 -65.5zM855 181q83 0 156 20t133.5 61t96 111t35.5 161v2q0 91 -35.5 160.5t-96 110.5t-133.5 61
t-156 20t-156 -20t-134 -60.5t-97 -110.5t-36 -161v-2q0 -91 36 -161t97 -111t134 -61t156 -20z" />
    <glyph glyph-name="q" unicode="q" horiz-adv-x="1659" 
d="M730 -30q-184 0 -329.5 65.5t-231.5 194.5t-86 304v2q0 174 86 303t231.5 194.5t329.5 65.5q174 0 297.5 -49t188.5 -127v144h289v-1400h-289v479q-65 -78 -188.5 -127t-297.5 -49zM808 181q65 0 125 12t114.5 39.5t94.5 67.5t64 100t24 134v2q0 73 -24 133t-64 100
t-94.5 67.5t-114.5 39.5t-125 12q-83 0 -156 -20t-133.5 -61t-96 -110.5t-35.5 -160.5v-2q0 -91 35.5 -161t96 -111t133.5 -61t156 -20z" />
    <glyph glyph-name="r" unicode="r" horiz-adv-x="969" 
d="M157 0v1067h286v-214q51 103 170.5 167t272.5 64h52v-258h-97q-395 0 -395 -305v-521h-289z" />
    <glyph glyph-name="s" unicode="s" horiz-adv-x="1495" 
d="M766 -31q-301 0 -484 92t-215 270h301q13 -49 49 -83.5t92.5 -53t121.5 -26.5t148 -8q351 0 351 132v2q0 64 -67 90.5t-231 39.5l-248 21q-250 19 -370 99t-120 225v2q0 98 79.5 173.5t223 116.5t327.5 41q183 0 321 -34.5t228 -109.5t112 -186h-301q-48 140 -363 140
q-162 0 -247 -32.5t-85 -94.5v-2q0 -56 59.5 -83t197.5 -37l258 -21q130 -11 221.5 -31t162 -56.5t105 -94.5t34.5 -139v-2q0 -166 -172 -258t-489 -92z" />
    <glyph glyph-name="t" unicode="t" horiz-adv-x="1038" 
d="M708 0q-122 0 -197.5 15t-126 57t-70.5 111t-20 181v489h-260v214h260v358h289v-358h367v-214h-367v-458q0 -58 6.5 -90t29 -53.5t58.5 -28t101 -6.5h164v-217h-234z" />
    <glyph glyph-name="u" unicode="u" 
d="M685 -30q-259 0 -402 126.5t-143 371.5v599h289v-537q0 -172 91.5 -257.5t265.5 -85.5t265.5 85.5t91.5 257.5v537h289v-1067h-289v156q-62 -83 -177.5 -134.5t-280.5 -51.5z" />
    <glyph glyph-name="v" unicode="v" horiz-adv-x="1501" 
d="M580 0l-571 1067h325l427 -817h1l431 817h301l-574 -1067h-340z" />
    <glyph glyph-name="w" unicode="w" horiz-adv-x="2326" 
d="M471 0l-446 1067h310l330 -805h1l349 805h313l355 -801h1l333 801h286l-447 -1067h-330l-364 821h-1l-358 -821h-332z" />
    <glyph glyph-name="x" unicode="x" horiz-adv-x="1543" 
d="M-5 0l596 539l-575 528h374l389 -354l397 354h353l-577 -518l595 -549h-374l-409 374l-418 -374h-351z" />
    <glyph glyph-name="y" unicode="y" horiz-adv-x="1536" 
d="M209 -333v211h143q120 0 161.5 19t84.5 99l11 20l-605 1051h325l446 -793l463 793h302l-646 -1096q-61 -104 -105.5 -160t-104 -90.5t-124 -44t-176.5 -9.5h-175z" />
    <glyph glyph-name="z" unicode="z" horiz-adv-x="1433" 
d="M82 0v212l846 638h-819v217h1216v-212l-852 -638h878v-217h-1269z" />
    <glyph glyph-name="braceleft" unicode="{" horiz-adv-x="788" 
d="M561 -333q-183 0 -262.5 73t-79.5 255v267q0 57 -7.5 91.5t-30.5 56t-46 31.5t-74 25v179q35 11 51.5 17t39 17t31.5 23.5t19.5 33t13.5 48.5t3 67v265q0 182 79.5 255t262.5 73h144v-217h-95q-88 0 -110 -24.5t-22 -123.5v-220q0 -133 -41 -198.5t-147 -103.5v-2
q106 -38 147 -103.5t41 -198.5v-221q0 -100 21.5 -124t110.5 -24h95v-217h-144z" />
    <glyph glyph-name="bar" unicode="|" horiz-adv-x="619" 
d="M179 -333v1777h261v-1777h-261z" />
    <glyph glyph-name="braceright" unicode="}" horiz-adv-x="788" 
d="M83 -333v217h94q90 0 111.5 24t21.5 124v221q0 133 41 198.5t148 103.5v2q-107 38 -148 103.5t-41 198.5v220q0 99 -22 123.5t-111 24.5h-94v217h144q184 0 263 -72.5t79 -255.5v-265q0 -39 3 -67t13.5 -48.5t19.5 -32.5t32 -23.5t39 -17.5t51 -17v-179
q-41 -12 -60.5 -19.5t-42.5 -22t-32.5 -34t-16 -51t-6.5 -77.5v-267q0 -183 -79 -255.5t-263 -72.5h-144z" />
    <glyph glyph-name="asciitilde" unicode="~" horiz-adv-x="1578" 
d="M333 545l-217 82q56 152 158.5 236.5t243.5 84.5q70 0 135 -20t114.5 -48t95 -56t97 -48t101.5 -20q74 0 119 42.5t81 123.5l217 -83q-56 -152 -159 -236.5t-244 -84.5q-71 0 -136 20t-114.5 48t-95.5 56t-96.5 48t-100.5 20q-74 0 -119 -42.5t-80 -122.5z" />
    <glyph glyph-name="uni00A0" unicode="&#xa0;" horiz-adv-x="589" 
 />
    <glyph glyph-name="exclamdown" unicode="&#xa1;" horiz-adv-x="620" 
d="M502 1111v-295h-302v295h302zM459 645l39 -486v-493h-292v493l39 486h214z" />
    <glyph glyph-name="cent" unicode="&#xa2;" horiz-adv-x="1601" 
d="M690 218v194q-256 35 -412 182t-156 375v2q0 225 156 372t412 182v194h261v-190q223 -22 375 -123.5t191 -262.5h-305q-40 90 -142 136t-236 46q-82 0 -155 -22.5t-130.5 -65.5t-91 -111.5t-33.5 -154.5v-2q0 -86 33.5 -155.5t91 -112.5t131 -65.5t155.5 -22.5
q134 0 236 45.5t141 136.5h305q-39 -161 -190.5 -262t-375.5 -124v-191h-261z" />
    <glyph glyph-name="sterling" unicode="&#xa3;" horiz-adv-x="1763" 
d="M134 0v212q143 23 217 93.5t74 172.5v3q0 63 -34 140h-298v214h208q-45 106 -45 189v7q0 133 89 234.5t247.5 155t362.5 53.5q188 0 333.5 -44.5t248 -145t135.5 -252.5l-307 -1q-35 123 -140.5 175t-270.5 52q-178 0 -285 -60t-107 -174v-6q0 -82 46 -183h755v-214h-660
q32 -80 32 -142v-5q0 -74 -39.5 -139t-109.5 -105h1078v-230h-1530z" />
    <glyph glyph-name="currency" unicode="&#xa4;" horiz-adv-x="1437" 
d="M719 211q-159 0 -281 77l-186 -186l-143 143l184 185q-78 124 -78 281q0 160 79 282l-184 186l143 142l185 -186q123 77 281 77q159 0 281 -77l185 186l144 -142l-185 -186q78 -124 78 -282q0 -159 -78 -281l185 -185l-144 -143l-185 186q-122 -77 -281 -77zM719 415
q127 0 207.5 80.5t80.5 215.5t-81 216.5t-207 81.5q-127 0 -207.5 -81t-80.5 -217q0 -135 80.5 -215.5t207.5 -80.5z" />
    <glyph glyph-name="yen" unicode="&#xa5;" horiz-adv-x="1935" 
d="M820 0v185h-518v202h518v65l-7 63h-511v202h358l-611 727h359l457 -551l104 -132h3l104 132l454 551h357l-608 -727h354v-202h-506l-7 -63v-65h513v-202h-513v-185h-300z" />
    <glyph glyph-name="brokenbar" unicode="&#xa6;" horiz-adv-x="619" 
d="M179 700v744h261v-744h-261zM179 -333v744h261v-744h-261z" />
    <glyph glyph-name="section" unicode="&#xa7;" horiz-adv-x="1582" 
d="M804 -218q-287 0 -470 103.5t-221 289.5h299q33 -105 138.5 -155t258.5 -50q173 0 264.5 42t91.5 119v2q0 75 -73.5 112t-245.5 55l-256 32q-239 26 -357.5 106t-118.5 221v2q0 84 55 152.5t141 104.5q-174 88 -174 268v1q0 156 172 252.5t451 96.5q176 0 312 -39
t226 -120.5t117 -199.5h-299q-35 90 -130.5 131t-228.5 41q-149 0 -240 -40t-91 -111v-2q0 -65 66 -103.5t208 -53.5l257 -31q131 -15 223 -37.5t164.5 -60.5t108 -96.5t35.5 -139.5v-2q0 -86 -50 -156.5t-131 -110.5q150 -84 150 -247v-2q0 -176 -171.5 -275t-480.5 -99z
M617 838q-27 4 -43 5q-78 -13 -123.5 -55.5t-45.5 -96.5v-2q0 -68 61.5 -104.5t200.5 -51.5l265 -32q78 -9 120 -17q67 18 104.5 59t37.5 94v3q0 75 -74 111t-246 55z" />
    <glyph glyph-name="dieresis" unicode="&#xa8;" horiz-adv-x="999" 
d="M38 1210v234h264v-234h-264zM698 1210v234h263v-234h-263z" />
    <glyph glyph-name="copyright" unicode="&#xa9;" horiz-adv-x="2194" 
d="M1083 288q-238 0 -390.5 118.5t-152.5 315.5v2q0 196 152.5 314t390.5 118q202 0 344 -81t180 -219h-230q-30 71 -110 108.5t-183 37.5q-132 0 -225 -74t-93 -204v-2q0 -131 93 -205t226 -74q103 0 182.5 37.5t109.5 108.5h230q-38 -139 -180 -220t-344 -81zM1097 -61
q-207 0 -388.5 59.5t-310 163.5t-202 249t-73.5 311v2q0 166 73.5 311t202 249t310 163.5t388.5 59.5q208 0 389.5 -59.5t310 -163.5t202.5 -249t74 -311v-2q0 -166 -74 -311t-202.5 -249t-310 -163.5t-389.5 -59.5zM1097 72q236 0 423 85t290 233t103 332v2q0 184 -103 332
t-290 233t-423 85t-422.5 -85t-289 -233t-102.5 -332v-2q0 -184 102.5 -332t289 -233t422.5 -85z" />
    <glyph glyph-name="guillemotleft" unicode="&#xab;" horiz-adv-x="1338" 
d="M391 190l-301 382l301 381h305l-294 -381l294 -382h-305zM916 190l-300 382l300 381h305l-293 -381l293 -382h-305z" />
    <glyph glyph-name="logicalnot" unicode="&#xac;" horiz-adv-x="1526" 
d="M109 840v244h1264v-724h-262v480h-1002z" />
    <glyph glyph-name="uni00AD" unicode="&#xad;" horiz-adv-x="1021" 
d="M139 429v244h744v-244h-744z" />
    <glyph glyph-name="registered" unicode="&#xae;" horiz-adv-x="1744" 
d="M873 278q-212 0 -382.5 77t-266.5 213.5t-96 306.5v2q0 169 96 306t267 214.5t382 77.5t381 -77.5t266 -214.5t96 -306v-2q0 -170 -96 -306.5t-266 -213.5t-381 -77zM873 381q180 0 322 64t220 177t78 253v2q0 213 -174 353.5t-446 140.5q-273 0 -447.5 -140.5
t-174.5 -353.5v-2q0 -214 174.5 -354t447.5 -140zM551 559v638h415q128 0 191.5 -52.5t63.5 -140.5v-1q0 -78 -48 -127.5t-144 -61.5l226 -255h-188l-217 247h-152v-247h-147zM698 920h252q125 0 125 83v1q0 36 -31.5 57.5t-93.5 21.5h-252v-163z" />
    <glyph glyph-name="macron" unicode="&#xaf;" horiz-adv-x="870" 
d="M37 1238v169h797v-169h-797z" />
    <glyph glyph-name="degree" unicode="&#xb0;" horiz-adv-x="1040" 
d="M520 748q-192 0 -315.5 104.5t-123.5 259.5t123.5 259t315.5 104t316 -104t124 -259t-124 -259.5t-316 -104.5zM520 926q103 0 167.5 51.5t64.5 134.5q0 82 -64.5 133.5t-167.5 51.5t-167 -51t-64 -134t64 -134.5t167 -51.5z" />
    <glyph glyph-name="plusminus" unicode="&#xb1;" horiz-adv-x="1537" 
d="M639 357v407h-504v243h504v408h260v-408h504v-243h-504v-407h-260zM136 0v244h1263v-244h-1263z" />
    <glyph glyph-name="twosuperior" unicode="&#xb2;" horiz-adv-x="1106" 
d="M49 963v12q0 157 100 254t334 179l121 39q114 40 159.5 74.5t45.5 89.5v1q0 63 -65 94.5t-180 31.5q-260 0 -271 -188h-215q13 162 143 248t347 86q214 0 335 -69.5t121 -198.5v-1q0 -109 -77.5 -174.5t-256.5 -125.5l-117 -37q-132 -46 -188.5 -77t-82.5 -76h741v-162
h-994z" />
    <glyph glyph-name="threesuperior" unicode="&#xb3;" horiz-adv-x="1138" 
d="M577 943q-225 0 -369.5 81.5t-161.5 231.5h218q16 -87 101 -127t210 -40q132 0 206.5 33t74.5 98v2q0 129 -285 129h-76v154h77q252 0 252 116v1q0 57 -69.5 86.5t-184.5 29.5q-113 0 -187.5 -38.5t-86.5 -115.5h-218q22 141 154.5 220.5t342.5 79.5q208 0 334 -64.5
t126 -183.5v-2q0 -70 -42.5 -120.5t-117.5 -72.5v-1q91 -23 145 -76.5t54 -137.5v-2q0 -134 -137 -207.5t-360 -73.5z" />
    <glyph glyph-name="acute" unicode="&#xb4;" horiz-adv-x="739" 
d="M37 1210l257 234h385l-338 -234h-304z" />
    <glyph glyph-name="paragraph" unicode="&#xb6;" horiz-adv-x="1619" 
d="M507 -197v863q-215 11 -329.5 111t-114.5 277q0 188 129 289t368 101h989v-217h-277v-1424h-240v1424h-286v-1424h-239z" />
    <glyph glyph-name="periodcentered" unicode="&#xb7;" horiz-adv-x="580" 
d="M139 405v295h303v-295h-303z" />
    <glyph glyph-name="cedilla" unicode="&#xb8;" horiz-adv-x="658" 
d="M299 -423q-135 0 -263 49l48 103q96 -42 198 -42q129 0 129 56q0 27 -30 40.5t-75 13.5q-61 0 -107 -24l-82 58l184 211h149l-142 -160q42 11 94 11q90 0 155 -34.5t65 -105.5q0 -82 -92 -129t-231 -47z" />
    <glyph glyph-name="onesuperior" unicode="&#xb9;" horiz-adv-x="623" 
d="M296 963v631h-260v158h68q113 0 156.5 21t69.5 93h177v-903h-211z" />
    <glyph glyph-name="guillemotright" unicode="&#xbb;" horiz-adv-x="1338" 
d="M1249 572l-302 -382h-305l294 382l-294 381h305zM723 572l-301 -382h-304l293 382l-293 381h304z" />
    <glyph glyph-name="onequarter" unicode="&#xbc;" horiz-adv-x="2281" 
d="M1835 0v196h-701v158l701 549h211v-549h197v-158h-197v-196h-211zM199 0l1188 1505h267l-1188 -1505h-267zM291 602v632h-261v158h69q113 0 157 21t70 92h176v-903h-211zM1369 354h466v361h-1l-127 -93z" />
    <glyph glyph-name="onehalf" unicode="&#xbd;" horiz-adv-x="2294" 
d="M1237 0v12q0 156 100 254t334 180l121 39q114 39 159.5 74t45.5 90v1q0 63 -65 94.5t-180 31.5q-260 0 -271 -188h-215q13 162 143.5 248.5t346.5 86.5q214 0 335.5 -70t121.5 -199v-1q0 -110 -77.5 -175t-257.5 -125l-117 -37q-133 -47 -189 -77.5t-81 -75.5h741v-163
h-995zM199 0l1188 1505h267l-1188 -1505h-267zM291 602v632h-261v158h69q113 0 157 21t70 92h176v-903h-211z" />
    <glyph glyph-name="threequarters" unicode="&#xbe;" horiz-adv-x="2778" 
d="M2331 0v196h-701v158l701 549h211v-549h197v-158h-197v-196h-211zM578 583q-226 0 -370.5 81.5t-161.5 231.5h218q11 -59 58 -97.5t110 -53.5t143 -15q132 0 207 32.5t75 97.5v1q0 129 -285 129h-77v155h78q251 0 251 116v1q0 57 -69 86.5t-184 29.5q-114 0 -188.5 -39
t-86.5 -116h-218q21 142 154 222t343 80q208 0 334.5 -65t126.5 -185v-1q0 -70 -43 -121t-118 -73v-1q92 -23 146 -76.5t54 -137.5v-1q0 -134 -137 -207.5t-360 -73.5zM695 0l1188 1505h267l-1188 -1505h-267zM1865 354h466v361h-1l-127 -93z" />
    <glyph glyph-name="questiondown" unicode="&#xbf;" horiz-adv-x="1596" 
d="M1029 1111v-295h-302v295h302zM845 -151q214 0 321.5 63.5t111.5 206.5h309q-10 -232 -209 -357.5t-535 -125.5q-356 0 -550 100.5t-194 277.5v2q0 116 77.5 194.5t222.5 137.5l111 48q71 31 107.5 50.5t67 48t41.5 63t12 87.5h280q0 -153 -65.5 -234t-234.5 -151
l-111 -48q-109 -45 -152.5 -84.5t-43.5 -99.5v-1q0 -85 110 -131.5t324 -46.5z" />
    <glyph glyph-name="Agrave" unicode="&#xc0;" horiz-adv-x="1841" 
d="M4 0l734 1444h366l735 -1444h-332l-194 383h-807l-193 -383h-309zM622 622h574l-287 571h-2zM818 1618l-381 264h386l313 -264h-318z" />
    <glyph glyph-name="Aacute" unicode="&#xc1;" horiz-adv-x="1841" 
d="M4 0l734 1444h366l735 -1444h-332l-194 383h-807l-193 -383h-309zM622 622h574l-287 571h-2zM711 1618l313 264h386l-382 -264h-317z" />
    <glyph glyph-name="Acircumflex" unicode="&#xc2;" horiz-adv-x="1841" 
d="M4 0l734 1444h366l735 -1444h-332l-194 383h-807l-193 -383h-309zM622 622h574l-287 571h-2zM407 1618l331 264h366l332 -264h-324l-191 148l-190 -148h-324z" />
    <glyph glyph-name="Atilde" unicode="&#xc3;" horiz-adv-x="1841" 
d="M4 0l734 1444h366l735 -1444h-332l-194 383h-807l-193 -383h-309zM622 622h574l-287 571h-2zM449 1618q6 125 73.5 198.5t185.5 73.5q58 0 118 -15t99.5 -33t83.5 -33t75 -15q51 0 73 21.5t25 71.5h212q-7 -125 -74.5 -199t-184.5 -74q-59 0 -118.5 15t-99.5 33.5
t-83.5 33.5t-74.5 15q-51 0 -72.5 -21.5t-26.5 -71.5h-211z" />
    <glyph glyph-name="Adieresis" unicode="&#xc4;" horiz-adv-x="1841" 
d="M4 0l734 1444h366l735 -1444h-332l-194 383h-807l-193 -383h-309zM622 622h574l-287 571h-2zM433 1632v250h283v-250h-283zM1129 1632v250h283v-250h-283z" />
    <glyph glyph-name="Aring" unicode="&#xc5;" horiz-adv-x="1841" 
d="M4 0l734 1444h366l735 -1444h-332l-194 383h-807l-193 -383h-309zM622 622h574l-287 571h-2zM924 1528q-99 0 -169.5 66t-70.5 166t70.5 166.5t169.5 66.5t169.5 -66.5t70.5 -166.5t-70.5 -166t-169.5 -66zM924 1651q47 0 77 30t30 79t-30 79.5t-77 30.5t-77 -30.5
t-30 -79.5t30 -79t77 -30z" />
    <glyph glyph-name="AE" unicode="&#xc6;" horiz-adv-x="2738" 
d="M-72 0l1218 1444h1470v-241h-1102v-353h1038v-240h-1038v-370h1105v-240h-1405v402h-620l-333 -402h-333zM783 632h431v511z" />
    <glyph glyph-name="Ccedilla" unicode="&#xc7;" horiz-adv-x="2016" 
d="M1053 -31q-286 0 -503 91.5t-336 262.5t-119 398v2q0 170 69 311t194 237.5t303 150t392 53.5q342 0 584 -135.5t313 -369.5h-327q-57 133 -212.5 201.5t-355.5 68.5q-136 0 -252.5 -33.5t-204 -97t-137.5 -163t-50 -223.5v-2q0 -124 50 -223.5t137.5 -163t204 -97
t252.5 -33.5q200 0 355.5 68.5t212.5 201.5h327q-71 -234 -313 -369.5t-584 -135.5zM1010 -423q-135 0 -263 49l48 103q96 -42 198 -42q129 0 129 56q0 27 -30 40.5t-75 13.5q-61 0 -107 -24l-82 58l184 211h149l-142 -160q42 11 94 11q90 0 155 -34.5t65 -105.5
q0 -82 -92 -129t-231 -47z" />
    <glyph glyph-name="Egrave" unicode="&#xc8;" horiz-adv-x="1704" 
d="M179 0v1444h1402v-240h-1102v-354h1038v-240h-1038v-370h1105v-240h-1405zM779 1618l-381 264h386l313 -264h-318z" />
    <glyph glyph-name="Eacute" unicode="&#xc9;" horiz-adv-x="1704" 
d="M179 0v1444h1402v-240h-1102v-354h1038v-240h-1038v-370h1105v-240h-1405zM673 1618l313 264h386l-382 -264h-317z" />
    <glyph glyph-name="Ecircumflex" unicode="&#xca;" horiz-adv-x="1704" 
d="M179 0v1444h1402v-240h-1102v-354h1038v-240h-1038v-370h1105v-240h-1405zM368 1618l331 264h366l332 -264h-324l-191 148l-190 -148h-324z" />
    <glyph glyph-name="Edieresis" unicode="&#xcb;" horiz-adv-x="1704" 
d="M179 0v1444h1402v-240h-1102v-354h1038v-240h-1038v-370h1105v-240h-1405zM394 1632v250h283v-250h-283zM1090 1632v250h283v-250h-283z" />
    <glyph glyph-name="Igrave" unicode="&#xcc;" horiz-adv-x="659" 
d="M179 0v1444h300v-1444h-300zM227 1618l-381 264h386l313 -264h-318z" />
    <glyph glyph-name="Iacute" unicode="&#xcd;" horiz-adv-x="659" 
d="M179 0v1444h300v-1444h-300zM120 1618l313 264h386l-382 -264h-317z" />
    <glyph glyph-name="Icircumflex" unicode="&#xce;" horiz-adv-x="659" 
d="M179 0v1444h300v-1444h-300zM-184 1618l331 264h366l332 -264h-324l-191 148l-190 -148h-324z" />
    <glyph glyph-name="Idieresis" unicode="&#xcf;" horiz-adv-x="659" 
d="M179 0v1444h300v-1444h-300zM-158 1632v250h283v-250h-283zM538 1632v250h283v-250h-283z" />
    <glyph glyph-name="Eth" unicode="&#xd0;" horiz-adv-x="1950" 
d="M52 602v248h167v594h683q154 0 288.5 -22t258 -75t211 -133.5t139.5 -206.5t52 -285v-2q0 -158 -52 -283t-139.5 -206t-211 -134t-258 -75t-288.5 -22h-683v602h-167zM519 239h382q634 0 634 481v2q0 483 -634 483h-382v-355h489v-248h-489v-363z" />
    <glyph glyph-name="Ntilde" unicode="&#xd1;" horiz-adv-x="1976" 
d="M179 0v1444h347l980 -1090h2l-2 282v808h291v-1444h-349l-978 1083h-2l2 -288v-795h-291zM564 1618q6 125 73.5 198.5t185.5 73.5q58 0 118 -15t99.5 -33t83.5 -33t75 -15q51 0 73 21.5t25 71.5h212q-7 -125 -74.5 -199t-184.5 -74q-59 0 -118.5 15t-99.5 33.5t-84 33.5
t-74 15q-51 0 -72.5 -21.5t-26.5 -71.5h-211z" />
    <glyph glyph-name="Ograve" unicode="&#xd2;" horiz-adv-x="2135" 
d="M1064 -31q-283 0 -500.5 89.5t-340.5 261t-123 401.5v2q0 231 123 402.5t340 260.5t501 89t501 -89t340 -260.5t123 -402.5v-2q0 -230 -123 -401.5t-340.5 -261t-500.5 -89.5zM1064 204q185 0 330 58.5t231.5 177t86.5 281.5v2q0 163 -86.5 282t-231.5 177t-330 58
t-330 -58t-231.5 -177t-86.5 -282v-2q0 -163 86.5 -281.5t231.5 -177t330 -58.5zM964 1618l-381 264h386l313 -264h-318z" />
    <glyph glyph-name="Oacute" unicode="&#xd3;" horiz-adv-x="2135" 
d="M1064 -31q-283 0 -500.5 89.5t-340.5 261t-123 401.5v2q0 231 123 402.5t340 260.5t501 89t501 -89t340 -260.5t123 -402.5v-2q0 -230 -123 -401.5t-340.5 -261t-500.5 -89.5zM1064 204q185 0 330 58.5t231.5 177t86.5 281.5v2q0 163 -86.5 282t-231.5 177t-330 58
t-330 -58t-231.5 -177t-86.5 -282v-2q0 -163 86.5 -281.5t231.5 -177t330 -58.5zM858 1618l313 264h386l-382 -264h-317z" />
    <glyph glyph-name="Ocircumflex" unicode="&#xd4;" horiz-adv-x="2135" 
d="M1064 -31q-283 0 -500.5 89.5t-340.5 261t-123 401.5v2q0 231 123 402.5t340 260.5t501 89t501 -89t340 -260.5t123 -402.5v-2q0 -230 -123 -401.5t-340.5 -261t-500.5 -89.5zM1064 204q185 0 330 58.5t231.5 177t86.5 281.5v2q0 163 -86.5 282t-231.5 177t-330 58
t-330 -58t-231.5 -177t-86.5 -282v-2q0 -163 86.5 -281.5t231.5 -177t330 -58.5zM553 1618l331 264h366l332 -264h-324l-191 148l-190 -148h-324z" />
    <glyph glyph-name="Otilde" unicode="&#xd5;" horiz-adv-x="2135" 
d="M1064 -31q-283 0 -500.5 89.5t-340.5 261t-123 401.5v2q0 231 123 402.5t340 260.5t501 89t501 -89t340 -260.5t123 -402.5v-2q0 -230 -123 -401.5t-340.5 -261t-500.5 -89.5zM1064 204q185 0 330 58.5t231.5 177t86.5 281.5v2q0 163 -86.5 282t-231.5 177t-330 58
t-330 -58t-231.5 -177t-86.5 -282v-2q0 -163 86.5 -281.5t231.5 -177t330 -58.5zM595 1618q6 125 73.5 198.5t185.5 73.5q58 0 118 -15t99.5 -33t83.5 -33t75 -15q51 0 73 21.5t25 71.5h212q-7 -125 -74.5 -199t-184.5 -74q-59 0 -118.5 15t-99.5 33.5t-83.5 33.5t-74.5 15
q-51 0 -72.5 -21.5t-26.5 -71.5h-211z" />
    <glyph glyph-name="Odieresis" unicode="&#xd6;" horiz-adv-x="2135" 
d="M1064 -31q-283 0 -500.5 89.5t-340.5 261t-123 401.5v2q0 231 123 402.5t340 260.5t501 89t501 -89t340 -260.5t123 -402.5v-2q0 -230 -123 -401.5t-340.5 -261t-500.5 -89.5zM1064 204q185 0 330 58.5t231.5 177t86.5 281.5v2q0 163 -86.5 282t-231.5 177t-330 58
t-330 -58t-231.5 -177t-86.5 -282v-2q0 -163 86.5 -281.5t231.5 -177t330 -58.5zM579 1632v250h283v-250h-283zM1275 1632v250h283v-250h-283z" />
    <glyph glyph-name="multiply" unicode="&#xd7;" horiz-adv-x="1393" 
d="M277 136l-174 174l419 419l-419 420l174 175l420 -420l419 420l175 -175l-420 -420l420 -419l-175 -174l-419 420z" />
    <glyph glyph-name="Oslash" unicode="&#xd8;" horiz-adv-x="2135" 
d="M300 -100l156 212q-170 98 -263 253t-93 356v2q0 231 123 402.5t340 260.5t501 89q200 0 365 -45l225 304l183 -124l-193 -262q183 -96 283.5 -256t100.5 -369v-2q0 -230 -123 -401.5t-340.5 -261t-500.5 -89.5q-214 0 -398 54l-182 -247zM416 721q0 -252 199 -393
l658 890q-95 22 -209 22q-185 0 -330 -58t-231.5 -177t-86.5 -282v-2zM1064 204q185 0 330 58.5t231.5 177t86.5 281.5v2q0 136 -59 240.5t-167 170.5l-664 -900q111 -30 242 -30z" />
    <glyph glyph-name="Ugrave" unicode="&#xd9;" horiz-adv-x="1917" 
d="M959 -31q-799 0 -799 663v811h300v-806q0 -217 127 -325t372 -108t372 108t127 325v806h300v-811q0 -663 -799 -663zM856 1618l-381 264h386l313 -264h-318z" />
    <glyph glyph-name="Uacute" unicode="&#xda;" horiz-adv-x="1917" 
d="M959 -31q-799 0 -799 663v811h300v-806q0 -217 127 -325t372 -108t372 108t127 325v806h300v-811q0 -663 -799 -663zM749 1618l313 264h386l-382 -264h-317z" />
    <glyph glyph-name="Ucircumflex" unicode="&#xdb;" horiz-adv-x="1917" 
d="M959 -31q-799 0 -799 663v811h300v-806q0 -217 127 -325t372 -108t372 108t127 325v806h300v-811q0 -663 -799 -663zM445 1618l331 264h366l332 -264h-324l-191 148l-190 -148h-324z" />
    <glyph glyph-name="Udieresis" unicode="&#xdc;" horiz-adv-x="1917" 
d="M959 -31q-799 0 -799 663v811h300v-806q0 -217 127 -325t372 -108t372 108t127 325v806h300v-811q0 -663 -799 -663zM471 1632v250h283v-250h-283zM1167 1632v250h283v-250h-283z" />
    <glyph glyph-name="Yacute" unicode="&#xdd;" horiz-adv-x="1856" 
d="M779 0v523l-771 921h359l457 -551l105 -131h2l104 131l454 551h358l-768 -921v-523h-300zM718 1618l313 264h386l-382 -264h-317z" />
    <glyph glyph-name="Thorn" unicode="&#xde;" horiz-adv-x="1794" 
d="M179 0l1 1444h299v-223h580q649 0 649 -465v-2q0 -466 -648 -466h-581v-288h-300zM479 516h567q176 0 261 56t85 182v2q0 126 -85 182t-261 56h-567v-478z" />
    <glyph glyph-name="germandbls" unicode="&#xdf;" horiz-adv-x="1732" 
d="M157 0v936q0 271 187.5 404.5t532.5 133.5q306 0 480.5 -98t174.5 -277v-3q0 -112 -59.5 -190t-165.5 -121l-1 -3q181 -35 264 -129t83 -229v-3q0 -139 -87.5 -234.5t-244 -141t-373.5 -45.5h-221v213h183q442 0 442 213v3q0 110 -106 164.5t-346 54.5h-141v207h123
q163 0 256 55t93 160v2q0 190 -356 190q-222 0 -325 -78t-103 -253v-931h-290z" />
    <glyph glyph-name="agrave" unicode="&#xe0;" horiz-adv-x="1525" 
d="M601 -31q-241 0 -382 85.5t-141 243.5v2q0 64 22 115t67.5 88t104 63.5t143 45.5t172 31t202.5 21q142 10 202 21t81.5 28.5t21.5 56.5v2q0 68 -83 103.5t-241 35.5q-325 0 -340 -175h-296q6 171 174 269.5t458 98.5q152 0 262.5 -18.5t193.5 -61.5t123.5 -118.5
t39.5 -185.5l-5 -359q-1 -127 5 -202.5t26 -158.5h-289q-15 67 -18 121q-136 -152 -503 -152zM667 162q432 0 432 265v116q-98 -29 -305 -54q-245 -33 -329.5 -66.5t-84.5 -109.5v-1q0 -74 74 -112t213 -38zM661 1210l-330 234h385l258 -234h-313z" />
    <glyph glyph-name="aacute" unicode="&#xe1;" horiz-adv-x="1525" 
d="M601 -31q-241 0 -382 85.5t-141 243.5v2q0 64 22 115t67.5 88t104 63.5t143 45.5t172 31t202.5 21q142 10 202 21t81.5 28.5t21.5 56.5v2q0 68 -83 103.5t-241 35.5q-325 0 -340 -175h-296q6 171 174 269.5t458 98.5q152 0 262.5 -18.5t193.5 -61.5t123.5 -118.5
t39.5 -185.5l-5 -359q-1 -127 5 -202.5t26 -158.5h-289q-15 67 -18 121q-136 -152 -503 -152zM667 162q432 0 432 265v116q-98 -29 -305 -54q-245 -33 -329.5 -66.5t-84.5 -109.5v-1q0 -74 74 -112t213 -38zM590 1210l257 234h385l-338 -234h-304z" />
    <glyph glyph-name="acircumflex" unicode="&#xe2;" horiz-adv-x="1525" 
d="M601 -31q-241 0 -382 85.5t-141 243.5v2q0 64 22 115t67.5 88t104 63.5t143 45.5t172 31t202.5 21q142 10 202 21t81.5 28.5t21.5 56.5v2q0 68 -83 103.5t-241 35.5q-325 0 -340 -175h-296q6 171 174 269.5t458 98.5q152 0 262.5 -18.5t193.5 -61.5t123.5 -118.5
t39.5 -185.5l-5 -359q-1 -127 5 -202.5t26 -158.5h-289q-15 67 -18 121q-136 -152 -503 -152zM667 162q432 0 432 265v116q-98 -29 -305 -54q-245 -33 -329.5 -66.5t-84.5 -109.5v-1q0 -74 74 -112t213 -38zM274 1210l331 234h341l331 -234h-311l-190 121l-191 -121h-311z
" />
    <glyph glyph-name="atilde" unicode="&#xe3;" horiz-adv-x="1525" 
d="M601 -31q-241 0 -382 85.5t-141 243.5v2q0 64 22 115t67.5 88t104 63.5t143 45.5t172 31t202.5 21q142 10 202 21t81.5 28.5t21.5 56.5v2q0 68 -83 103.5t-241 35.5q-325 0 -340 -175h-296q6 171 174 269.5t458 98.5q152 0 262.5 -18.5t193.5 -61.5t123.5 -118.5
t39.5 -185.5l-5 -359q-1 -127 5 -202.5t26 -158.5h-289q-15 67 -18 121q-136 -152 -503 -152zM667 162q432 0 432 265v116q-98 -29 -305 -54q-245 -33 -329.5 -66.5t-84.5 -109.5v-1q0 -74 74 -112t213 -38zM311 1208q6 126 73.5 200t185.5 74q58 0 118 -15t99.5 -33.5
t83.5 -33.5t75 -15q51 0 73 22t25 72h212q-7 -125 -74.5 -199.5t-184.5 -74.5q-75 0 -148.5 24.5t-132 49t-95.5 24.5q-51 0 -72.5 -22t-26.5 -73h-211z" />
    <glyph glyph-name="adieresis" unicode="&#xe4;" horiz-adv-x="1525" 
d="M601 -31q-241 0 -382 85.5t-141 243.5v2q0 64 22 115t67.5 88t104 63.5t143 45.5t172 31t202.5 21q142 10 202 21t81.5 28.5t21.5 56.5v2q0 68 -83 103.5t-241 35.5q-325 0 -340 -175h-296q6 171 174 269.5t458 98.5q152 0 262.5 -18.5t193.5 -61.5t123.5 -118.5
t39.5 -185.5l-5 -359q-1 -127 5 -202.5t26 -158.5h-289q-15 67 -18 121q-136 -152 -503 -152zM667 162q432 0 432 265v116q-98 -29 -305 -54q-245 -33 -329.5 -66.5t-84.5 -109.5v-1q0 -74 74 -112t213 -38zM314 1210v234h264v-234h-264zM974 1210v234h263v-234h-263z" />
    <glyph glyph-name="aring" unicode="&#xe5;" horiz-adv-x="1525" 
d="M601 -31q-241 0 -382 85.5t-141 243.5v2q0 64 22 115t67.5 88t104 63.5t143 45.5t172 31t202.5 21q142 10 202 21t81.5 28.5t21.5 56.5v2q0 68 -83 103.5t-241 35.5q-325 0 -340 -175h-296q6 171 174 269.5t458 98.5q152 0 262.5 -18.5t193.5 -61.5t123.5 -118.5
t39.5 -185.5l-5 -359q-1 -127 5 -202.5t26 -158.5h-289q-15 67 -18 121q-136 -152 -503 -152zM667 162q432 0 432 265v116q-98 -29 -305 -54q-245 -33 -329.5 -66.5t-84.5 -109.5v-1q0 -74 74 -112t213 -38zM777 1181q-99 0 -170 66t-71 166q0 101 70.5 167t170.5 66
q99 0 169.5 -66t70.5 -167q0 -100 -70.5 -166t-169.5 -66zM777 1301q48 0 78.5 31.5t30.5 80.5t-30.5 80.5t-78.5 31.5q-49 0 -79.5 -31t-30.5 -81t30.5 -81t79.5 -31z" />
    <glyph glyph-name="ae" unicode="&#xe6;" horiz-adv-x="2624" 
d="M1829 -31q-206 0 -365 61.5t-249 176.5q-174 -238 -615 -238q-237 0 -379.5 90t-142.5 240v2q0 77 35.5 135.5t94.5 96t152 64t189.5 40.5t226.5 24q147 10 215 23t90.5 32.5t22.5 58.5v2q0 64 -86 100.5t-243 36.5q-160 0 -244 -43t-93 -135h-298q18 170 183.5 269.5
t448.5 99.5q411 0 538 -156h1q95 74 228 114t287 40q209 0 368.5 -73.5t253.5 -221t101 -353.5v-1h-1140v-1q26 -135 143.5 -207.5t284.5 -72.5q137 0 239.5 36.5t151.5 109.5h305q-63 -164 -247.5 -257t-456.5 -93zM667 154q93 0 169.5 15.5t138.5 48t96.5 88.5t34.5 132
v99q-104 -26 -310 -48q-244 -31 -330 -66t-86 -115v-2q0 -74 74.5 -113t212.5 -39zM1823 905q-163 0 -271.5 -64.5t-140.5 -193.5v-1h823v1q-28 123 -137 190.5t-274 67.5z" />
    <glyph glyph-name="ccedilla" unicode="&#xe7;" horiz-adv-x="1541" 
d="M792 -31q-206 0 -366 67.5t-252 197t-92 302.5v2q0 172 92.5 301t253 196t366.5 67q269 0 453.5 -105t228.5 -288h-305q-39 91 -141 137t-236 46q-82 0 -155 -22.5t-130.5 -65.5t-91 -111.5t-33.5 -154.5v-2q0 -114 58.5 -197t150 -121.5t202.5 -38.5q133 0 235 46
t141 137h305q-44 -183 -229.5 -288t-454.5 -105zM749 -423q-135 0 -263 49l48 103q96 -42 198 -42q129 0 129 56q0 27 -30 40.5t-75 13.5q-61 0 -107 -24l-82 58l184 211h149l-142 -160q42 11 94 11q90 0 155 -34.5t65 -105.5q0 -82 -92 -129t-231 -47z" />
    <glyph glyph-name="egrave" unicode="&#xe8;" horiz-adv-x="1599" 
d="M804 -31q-327 0 -524.5 153t-197.5 415v2q0 172 94.5 301t256.5 195.5t368 66.5q209 0 368.5 -73t253.5 -220.5t101 -353.5v-1h-1140v-1q26 -135 143.5 -207.5t284.5 -72.5q137 0 239.5 36.5t151.5 109.5h305q-63 -164 -247.5 -257t-456.5 -93zM798 904
q-163 0 -271.5 -64t-140.5 -193v-1h823v1q-28 123 -137 190t-274 67zM684 1210l-330 234h385l258 -234h-313z" />
    <glyph glyph-name="eacute" unicode="&#xe9;" horiz-adv-x="1599" 
d="M804 -31q-327 0 -524.5 153t-197.5 415v2q0 172 94.5 301t256.5 195.5t368 66.5q209 0 368.5 -73t253.5 -220.5t101 -353.5v-1h-1140v-1q26 -135 143.5 -207.5t284.5 -72.5q137 0 239.5 36.5t151.5 109.5h305q-63 -164 -247.5 -257t-456.5 -93zM798 904
q-163 0 -271.5 -64t-140.5 -193v-1h823v1q-28 123 -137 190t-274 67zM613 1210l257 234h385l-338 -234h-304z" />
    <glyph glyph-name="ecircumflex" unicode="&#xea;" horiz-adv-x="1599" 
d="M804 -31q-327 0 -524.5 153t-197.5 415v2q0 172 94.5 301t256.5 195.5t368 66.5q209 0 368.5 -73t253.5 -220.5t101 -353.5v-1h-1140v-1q26 -135 143.5 -207.5t284.5 -72.5q137 0 239.5 36.5t151.5 109.5h305q-63 -164 -247.5 -257t-456.5 -93zM798 904
q-163 0 -271.5 -64t-140.5 -193v-1h823v1q-28 123 -137 190t-274 67zM297 1210l331 234h341l331 -234h-311l-190 121l-191 -121h-311z" />
    <glyph glyph-name="edieresis" unicode="&#xeb;" horiz-adv-x="1599" 
d="M804 -31q-327 0 -524.5 153t-197.5 415v2q0 172 94.5 301t256.5 195.5t368 66.5q209 0 368.5 -73t253.5 -220.5t101 -353.5v-1h-1140v-1q26 -135 143.5 -207.5t284.5 -72.5q137 0 239.5 36.5t151.5 109.5h305q-63 -164 -247.5 -257t-456.5 -93zM798 904
q-163 0 -271.5 -64t-140.5 -193v-1h823v1q-28 123 -137 190t-274 67zM337 1210v234h264v-234h-264zM997 1210v234h263v-234h-263z" />
    <glyph glyph-name="igrave" unicode="&#xec;" horiz-adv-x="603" 
d="M157 0v1067h289v-1067h-289zM187 1210l-330 234h385l258 -234h-313z" />
    <glyph glyph-name="iacute" unicode="&#xed;" horiz-adv-x="603" 
d="M157 0v1067h289v-1067h-289zM117 1210l257 234h385l-338 -234h-304z" />
    <glyph glyph-name="icircumflex" unicode="&#xee;" horiz-adv-x="603" 
d="M157 0v1067h289v-1067h-289zM-200 1210l331 234h341l331 -234h-311l-190 121l-191 -121h-311z" />
    <glyph glyph-name="idieresis" unicode="&#xef;" horiz-adv-x="603" 
d="M157 0v1067h289v-1067h-289zM-159 1210v234h264v-234h-264zM501 1210v234h263v-234h-263z" />
    <glyph glyph-name="eth" unicode="&#xf0;" horiz-adv-x="1627" 
d="M438 1091l-80 126l218 117q-116 51 -246 93l102 222q218 -73 409 -172l283 152l79 -126l-211 -113q260 -164 407.5 -370.5t147.5 -443.5v-3q0 -284 -197.5 -444t-534.5 -160q-333 0 -533.5 156.5t-200.5 406.5v4q0 110 40.5 203t108 157.5t158 110t189 66.5t201.5 21
q139 0 239 -42l1 2q-98 103 -278 200zM814 176q192 0 311.5 96t119.5 262v3q0 165 -119.5 260.5t-311.5 95.5q-193 0 -312.5 -95.5t-119.5 -260.5v-3q0 -166 120 -262t312 -96z" />
    <glyph glyph-name="ntilde" unicode="&#xf1;" 
d="M157 0v1067h289v-149q62 82 177.5 131.5t281.5 49.5q259 0 401.5 -126.5t142.5 -371.5v-601h-289v539q0 171 -91.5 257t-265.5 86t-265.5 -86t-91.5 -257v-539h-289zM339 1208q6 126 73.5 200t185.5 74q58 0 118 -15t99.5 -33.5t83.5 -33.5t75 -15q51 0 73 22t25 72h212
q-7 -125 -74.5 -199.5t-184.5 -74.5q-75 0 -148.5 24.5t-132 49t-95.5 24.5q-51 0 -72.5 -22t-26.5 -73h-211z" />
    <glyph glyph-name="ograve" unicode="&#xf2;" horiz-adv-x="1637" 
d="M819 -31q-340 0 -539 154.5t-199 412.5v2q0 257 199 410.5t539 153.5q339 0 538 -153.5t199 -410.5v-2q0 -258 -199 -412.5t-538 -154.5zM819 180q195 0 315 94.5t120 261.5v2q0 165 -120 259t-315 94t-315.5 -94t-120.5 -259v-2q0 -167 120.5 -261.5t315.5 -94.5z
M704 1210l-330 234h385l258 -234h-313z" />
    <glyph glyph-name="oacute" unicode="&#xf3;" horiz-adv-x="1637" 
d="M819 -31q-340 0 -539 154.5t-199 412.5v2q0 257 199 410.5t539 153.5q339 0 538 -153.5t199 -410.5v-2q0 -258 -199 -412.5t-538 -154.5zM819 180q195 0 315 94.5t120 261.5v2q0 165 -120 259t-315 94t-315.5 -94t-120.5 -259v-2q0 -167 120.5 -261.5t315.5 -94.5z
M634 1210l257 234h385l-338 -234h-304z" />
    <glyph glyph-name="ocircumflex" unicode="&#xf4;" horiz-adv-x="1637" 
d="M819 -31q-340 0 -539 154.5t-199 412.5v2q0 257 199 410.5t539 153.5q339 0 538 -153.5t199 -410.5v-2q0 -258 -199 -412.5t-538 -154.5zM819 180q195 0 315 94.5t120 261.5v2q0 165 -120 259t-315 94t-315.5 -94t-120.5 -259v-2q0 -167 120.5 -261.5t315.5 -94.5z
M317 1210l331 234h341l331 -234h-311l-190 121l-191 -121h-311z" />
    <glyph glyph-name="otilde" unicode="&#xf5;" horiz-adv-x="1637" 
d="M819 -31q-340 0 -539 154.5t-199 412.5v2q0 257 199 410.5t539 153.5q339 0 538 -153.5t199 -410.5v-2q0 -258 -199 -412.5t-538 -154.5zM819 180q195 0 315 94.5t120 261.5v2q0 165 -120 259t-315 94t-315.5 -94t-120.5 -259v-2q0 -167 120.5 -261.5t315.5 -94.5z
M355 1208q6 126 73.5 200t185.5 74q58 0 118 -15t99.5 -33.5t83.5 -33.5t75 -15q51 0 73 22t25 72h212q-7 -125 -74.5 -199.5t-184.5 -74.5q-75 0 -148.5 24.5t-132 49t-95.5 24.5q-51 0 -72.5 -22t-26.5 -73h-211z" />
    <glyph glyph-name="odieresis" unicode="&#xf6;" horiz-adv-x="1637" 
d="M819 -31q-340 0 -539 154.5t-199 412.5v2q0 257 199 410.5t539 153.5q339 0 538 -153.5t199 -410.5v-2q0 -258 -199 -412.5t-538 -154.5zM819 180q195 0 315 94.5t120 261.5v2q0 165 -120 259t-315 94t-315.5 -94t-120.5 -259v-2q0 -167 120.5 -261.5t315.5 -94.5z
M358 1210v234h264v-234h-264zM1018 1210v234h263v-234h-263z" />
    <glyph glyph-name="divide" unicode="&#xf7;" horiz-adv-x="1537" 
d="M137 608v244h1264v-244h-1264zM768 979q-76 0 -126 46t-50 120t50 120t126 46q77 0 127 -46t50 -120t-50 -120t-127 -46zM768 147q-76 0 -126 46t-50 119q0 74 49.5 120.5t126.5 46.5t127 -46.5t50 -120.5q0 -73 -50 -119t-127 -46z" />
    <glyph glyph-name="oslash" unicode="&#xf8;" horiz-adv-x="1637" 
d="M243 -98l120 167q-136 74 -209 194t-73 273v2q0 257 199 410.5t539 153.5q147 0 268 -30l151 209l157 -107l-123 -171q137 -73 210.5 -192.5t73.5 -272.5v-2q0 -258 -199 -412.5t-538 -154.5q-145 0 -271 31l-148 -206zM383 536q0 -169 125 -265l439 608q-60 12 -128 12
q-195 0 -315.5 -94t-120.5 -259v-2zM819 180q195 0 315 94.5t120 261.5v2q0 168 -127 265l-440 -610q59 -13 132 -13z" />
    <glyph glyph-name="ugrave" unicode="&#xf9;" 
d="M685 -30q-259 0 -402 126.5t-143 371.5v599h289v-537q0 -172 91.5 -257.5t265.5 -85.5t265.5 85.5t91.5 257.5v537h289v-1067h-289v156q-62 -83 -177.5 -134.5t-280.5 -51.5zM672 1210l-330 234h385l258 -234h-313z" />
    <glyph glyph-name="uacute" unicode="&#xfa;" 
d="M685 -30q-259 0 -402 126.5t-143 371.5v599h289v-537q0 -172 91.5 -257.5t265.5 -85.5t265.5 85.5t91.5 257.5v537h289v-1067h-289v156q-62 -83 -177.5 -134.5t-280.5 -51.5zM601 1210l257 234h385l-338 -234h-304z" />
    <glyph glyph-name="ucircumflex" unicode="&#xfb;" 
d="M685 -30q-259 0 -402 126.5t-143 371.5v599h289v-537q0 -172 91.5 -257.5t265.5 -85.5t265.5 85.5t91.5 257.5v537h289v-1067h-289v156q-62 -83 -177.5 -134.5t-280.5 -51.5zM285 1210l331 234h341l331 -234h-311l-190 121l-191 -121h-311z" />
    <glyph glyph-name="udieresis" unicode="&#xfc;" 
d="M685 -30q-259 0 -402 126.5t-143 371.5v599h289v-537q0 -172 91.5 -257.5t265.5 -85.5t265.5 85.5t91.5 257.5v537h289v-1067h-289v156q-62 -83 -177.5 -134.5t-280.5 -51.5zM325 1210v234h264v-234h-264zM985 1210v234h263v-234h-263z" />
    <glyph glyph-name="yacute" unicode="&#xfd;" horiz-adv-x="1536" 
d="M209 -333v211h143q120 0 161.5 19t84.5 99l11 20l-605 1051h325l446 -793l463 793h302l-646 -1096q-61 -104 -105.5 -160t-104 -90.5t-124 -44t-176.5 -9.5h-175zM596 1210l257 234h385l-338 -234h-304z" />
    <glyph glyph-name="thorn" unicode="&#xfe;" horiz-adv-x="1662" 
d="M949 -31q-184 0 -315 55t-188 140v-497h-289v1777h289v-539q57 84 188 139t315 55q130 0 244.5 -38.5t200.5 -108.5t136 -177.5t50 -238.5v-3q0 -131 -50 -238.5t-136 -178t-200.5 -109t-244.5 -38.5zM855 173q80 0 153 21.5t134 63.5t97.5 113.5t36.5 161.5v3
q0 90 -36.5 161t-97.5 113t-134 63.5t-153 21.5t-153.5 -21.5t-135 -63.5t-98 -113t-36.5 -161v-3q0 -73 24 -133.5t65 -102t95.5 -70t114.5 -41.5t124 -13z" />
    <glyph glyph-name="ydieresis" unicode="&#xff;" horiz-adv-x="1536" 
d="M209 -333v211h143q120 0 161.5 19t84.5 99l11 20l-605 1051h325l446 -793l463 793h302l-646 -1096q-61 -104 -105.5 -160t-104 -90.5t-124 -44t-176.5 -9.5h-175zM320 1210v234h264v-234h-264zM980 1210v234h263v-234h-263z" />
    <glyph glyph-name="Amacron" unicode="&#x100;" horiz-adv-x="1841" 
d="M4 0l734 1444h366l735 -1444h-332l-194 383h-807l-193 -383h-309zM622 622h574l-287 571h-2zM498 1643v175h847v-175h-847z" />
    <glyph glyph-name="amacron" unicode="&#x101;" horiz-adv-x="1525" 
d="M601 -31q-241 0 -382 85.5t-141 243.5v2q0 64 22 115t67.5 88t104 63.5t143 45.5t172 31t202.5 21q142 10 202 21t81.5 28.5t21.5 56.5v2q0 68 -83 103.5t-241 35.5q-325 0 -340 -175h-296q6 171 174 269.5t458 98.5q152 0 262.5 -18.5t193.5 -61.5t123.5 -118.5
t39.5 -185.5l-5 -359q-1 -127 5 -202.5t26 -158.5h-289q-15 67 -18 121q-136 -152 -503 -152zM667 162q432 0 432 265v116q-98 -29 -305 -54q-245 -33 -329.5 -66.5t-84.5 -109.5v-1q0 -74 74 -112t213 -38zM377 1238v169h797v-169h-797z" />
    <glyph glyph-name="Abreve" unicode="&#x102;" horiz-adv-x="1841" 
d="M4 0l734 1444h366l735 -1444h-332l-194 383h-807l-193 -383h-309zM622 622h574l-287 571h-2zM921 1605q-173 0 -282.5 72t-131.5 205h220q9 -59 61.5 -90.5t132.5 -31.5t133 31.5t62 90.5h220q-22 -133 -132 -205t-283 -72z" />
    <glyph glyph-name="abreve" unicode="&#x103;" horiz-adv-x="1525" 
d="M601 -31q-241 0 -382 85.5t-141 243.5v2q0 64 22 115t67.5 88t104 63.5t143 45.5t172 31t202.5 21q142 10 202 21t81.5 28.5t21.5 56.5v2q0 68 -83 103.5t-241 35.5q-325 0 -340 -175h-296q6 171 174 269.5t458 98.5q152 0 262.5 -18.5t193.5 -61.5t123.5 -118.5
t39.5 -185.5l-5 -359q-1 -127 5 -202.5t26 -158.5h-289q-15 67 -18 121q-136 -152 -503 -152zM667 162q432 0 432 265v116q-98 -29 -305 -54q-245 -33 -329.5 -66.5t-84.5 -109.5v-1q0 -74 74 -112t213 -38zM776 1193q-177 0 -284.5 63.5t-129.5 193.5h220q16 -104 194 -104
q179 0 195 104h220q-22 -130 -130 -193.5t-285 -63.5z" />
    <glyph glyph-name="Aogonek" unicode="&#x104;" horiz-adv-x="1841" 
d="M4 0l734 1444h366l735 -1444h-332l-194 383h-807l-193 -383h-309zM622 622h574l-287 571h-2zM1563 1h226q-47 -27 -76 -65t-29 -79q0 -39 28.5 -58.5t71.5 -19.5q50 0 96 22l59 -145q-90 -52 -220 -52q-123 0 -198.5 54.5t-75.5 146.5q0 113 118 196z" />
    <glyph glyph-name="aogonek" unicode="&#x105;" horiz-adv-x="1525" 
d="M601 -31q-241 0 -382 85.5t-141 243.5v2q0 64 22 115t67.5 88t104 63.5t143 45.5t172 31t202.5 21q142 10 202 21t81.5 28.5t21.5 56.5v2q0 68 -83 103.5t-241 35.5q-325 0 -340 -175h-296q6 171 174 269.5t458 98.5q152 0 262.5 -18.5t193.5 -61.5t123.5 -118.5
t39.5 -185.5l-5 -359q-1 -127 5 -202.5t26 -158.5h-289q-15 67 -18 121q-136 -152 -503 -152zM667 162q432 0 432 265v116q-98 -29 -305 -54q-245 -33 -329.5 -66.5t-84.5 -109.5v-1q0 -74 74 -112t213 -38zM1155 1h226q-47 -27 -76 -65t-29 -79q0 -39 28.5 -58.5
t71.5 -19.5q50 0 96 22l59 -145q-90 -52 -220 -52q-123 0 -198.5 54.5t-75.5 146.5q0 113 118 196z" />
    <glyph glyph-name="Cacute" unicode="&#x106;" horiz-adv-x="2016" 
d="M1053 -31q-286 0 -503 91.5t-336 262.5t-119 398v2q0 170 69 311t194 237.5t303 150t392 53.5q342 0 584 -135.5t313 -369.5h-327q-57 133 -212.5 201.5t-355.5 68.5q-136 0 -252.5 -33.5t-204 -97t-137.5 -163t-50 -223.5v-2q0 -124 50 -223.5t137.5 -163t204 -97
t252.5 -33.5q200 0 355.5 68.5t212.5 201.5h327q-71 -234 -313 -369.5t-584 -135.5zM843 1618l313 264h386l-382 -264h-317z" />
    <glyph glyph-name="cacute" unicode="&#x107;" horiz-adv-x="1541" 
d="M792 -31q-206 0 -366 67.5t-252 197t-92 302.5v2q0 172 92.5 301t253 196t366.5 67q269 0 453.5 -105t228.5 -288h-305q-39 91 -141 137t-236 46q-82 0 -155 -22.5t-130.5 -65.5t-91 -111.5t-33.5 -154.5v-2q0 -114 58.5 -197t150 -121.5t202.5 -38.5q133 0 235 46
t141 137h305q-44 -183 -229.5 -288t-454.5 -105zM607 1210l257 234h385l-338 -234h-304z" />
    <glyph glyph-name="Ccircumflex" unicode="&#x108;" horiz-adv-x="2016" 
d="M1053 -31q-286 0 -503 91.5t-336 262.5t-119 398v2q0 170 69 311t194 237.5t303 150t392 53.5q342 0 584 -135.5t313 -369.5h-327q-57 133 -212.5 201.5t-355.5 68.5q-136 0 -252.5 -33.5t-204 -97t-137.5 -163t-50 -223.5v-2q0 -124 50 -223.5t137.5 -163t204 -97
t252.5 -33.5q200 0 355.5 68.5t212.5 201.5h327q-71 -234 -313 -369.5t-584 -135.5zM538 1618l331 264h366l332 -264h-324l-191 148l-190 -148h-324z" />
    <glyph glyph-name="ccircumflex" unicode="&#x109;" horiz-adv-x="1541" 
d="M792 -31q-206 0 -366 67.5t-252 197t-92 302.5v2q0 172 92.5 301t253 196t366.5 67q269 0 453.5 -105t228.5 -288h-305q-39 91 -141 137t-236 46q-82 0 -155 -22.5t-130.5 -65.5t-91 -111.5t-33.5 -154.5v-2q0 -114 58.5 -197t150 -121.5t202.5 -38.5q133 0 235 46
t141 137h305q-44 -183 -229.5 -288t-454.5 -105zM290 1210l331 234h341l331 -234h-311l-190 121l-191 -121h-311z" />
    <glyph glyph-name="Cdotaccent" unicode="&#x10a;" horiz-adv-x="2016" 
d="M1053 -31q-286 0 -503 91.5t-336 262.5t-119 398v2q0 170 69 311t194 237.5t303 150t392 53.5q342 0 584 -135.5t313 -369.5h-327q-57 133 -212.5 201.5t-355.5 68.5q-136 0 -252.5 -33.5t-204 -97t-137.5 -163t-50 -223.5v-2q0 -124 50 -223.5t137.5 -163t204 -97
t252.5 -33.5q200 0 355.5 68.5t212.5 201.5h327q-71 -234 -313 -369.5t-584 -135.5zM912 1632v250h283v-250h-283z" />
    <glyph glyph-name="cdotaccent" unicode="&#x10b;" horiz-adv-x="1541" 
d="M792 -31q-206 0 -366 67.5t-252 197t-92 302.5v2q0 172 92.5 301t253 196t366.5 67q269 0 453.5 -105t228.5 -288h-305q-39 91 -141 137t-236 46q-82 0 -155 -22.5t-130.5 -65.5t-91 -111.5t-33.5 -154.5v-2q0 -114 58.5 -197t150 -121.5t202.5 -38.5q133 0 235 46
t141 137h305q-44 -183 -229.5 -288t-454.5 -105zM660 1209v235h264v-235h-264z" />
    <glyph glyph-name="Ccaron" unicode="&#x10c;" horiz-adv-x="2016" 
d="M1053 -31q-286 0 -503 91.5t-336 262.5t-119 398v2q0 170 69 311t194 237.5t303 150t392 53.5q342 0 584 -135.5t313 -369.5h-327q-57 133 -212.5 201.5t-355.5 68.5q-136 0 -252.5 -33.5t-204 -97t-137.5 -163t-50 -223.5v-2q0 -124 50 -223.5t137.5 -163t204 -97
t252.5 -33.5q200 0 355.5 68.5t212.5 201.5h327q-71 -234 -313 -369.5t-584 -135.5zM538 1882h324l190 -148l191 148h324l-332 -264h-366z" />
    <glyph glyph-name="ccaron" unicode="&#x10d;" horiz-adv-x="1541" 
d="M792 -31q-206 0 -366 67.5t-252 197t-92 302.5v2q0 172 92.5 301t253 196t366.5 67q269 0 453.5 -105t228.5 -288h-305q-39 91 -141 137t-236 46q-82 0 -155 -22.5t-130.5 -65.5t-91 -111.5t-33.5 -154.5v-2q0 -114 58.5 -197t150 -121.5t202.5 -38.5q133 0 235 46
t141 137h305q-44 -183 -229.5 -288t-454.5 -105zM290 1444h311l191 -119l190 119h311l-331 -234h-341z" />
    <glyph glyph-name="Dcaron" unicode="&#x10e;" horiz-adv-x="1910" 
d="M179 0v1444h683q154 0 288.5 -22t258 -75t211 -133.5t139.5 -206.5t52 -285v-2q0 -158 -52 -283t-139.5 -206t-211 -134t-258 -75t-288.5 -22h-683zM479 239h381q635 0 635 481v2q0 483 -635 483h-381v-966zM299 1933h324l190 -148l191 148h324l-332 -264h-366z" />
    <glyph glyph-name="dcaron" unicode="&#x10f;" horiz-adv-x="1662" 
d="M1652 1444h275l-86 -336h-189v336zM730 -30q-184 0 -329.5 65.5t-231.5 194.5t-86 304v2q0 174 86 303t231.5 194.5t329.5 65.5q174 0 297.5 -49t188.5 -127v521h289v-1444h-289v146q-65 -78 -188.5 -127t-297.5 -49zM808 181q65 0 125 12t114.5 39.5t94.5 67.5t64 100
t24 134v2q0 73 -24 133t-64 100t-94.5 67.5t-114.5 39.5t-125 12q-83 0 -156 -20t-133.5 -61t-96 -110.5t-35.5 -160.5v-2q0 -91 35.5 -161t96 -111t133.5 -61t156 -20z" />
    <glyph glyph-name="Dcroat" unicode="&#x110;" horiz-adv-x="1950" 
d="M52 602v248h167v594h683q154 0 288.5 -22t258 -75t211 -133.5t139.5 -206.5t52 -285v-2q0 -158 -52 -283t-139.5 -206t-211 -134t-258 -75t-288.5 -22h-683v602h-167zM519 239h382q634 0 634 481v2q0 483 -634 483h-382v-355h489v-248h-489v-363z" />
    <glyph glyph-name="dcroat" unicode="&#x111;" horiz-adv-x="1662" 
d="M794 1144v169h422v131h289v-131h165v-169h-165v-1144h-289v146q-65 -78 -188.5 -127t-297.5 -49q-184 0 -329.5 65.5t-231.5 194.5t-86 304v2q0 174 86 303t231.5 194.5t329.5 65.5q174 0 297.5 -49t188.5 -127v221h-422zM808 181q65 0 125 12t114.5 39.5t94.5 67.5
t64 100t24 134v2q0 73 -24 133t-64 100t-94.5 67.5t-114.5 39.5t-125 12q-83 0 -156 -20t-133.5 -61t-96 -110.5t-35.5 -160.5v-2q0 -91 35.5 -161t96 -111t133.5 -61t156 -20z" />
    <glyph glyph-name="Emacron" unicode="&#x112;" horiz-adv-x="1704" 
d="M179 0v1444h1402v-240h-1102v-354h1038v-240h-1038v-370h1105v-240h-1405zM460 1643v175h847v-175h-847z" />
    <glyph glyph-name="emacron" unicode="&#x113;" horiz-adv-x="1599" 
d="M804 -31q-327 0 -524.5 153t-197.5 415v2q0 172 94.5 301t256.5 195.5t368 66.5q209 0 368.5 -73t253.5 -220.5t101 -353.5v-1h-1140v-1q26 -135 143.5 -207.5t284.5 -72.5q137 0 239.5 36.5t151.5 109.5h305q-63 -164 -247.5 -257t-456.5 -93zM798 904
q-163 0 -271.5 -64t-140.5 -193v-1h823v1q-28 123 -137 190t-274 67zM400 1238v169h797v-169h-797z" />
    <glyph glyph-name="Ebreve" unicode="&#x114;" horiz-adv-x="1704" 
d="M179 0v1444h1402v-240h-1102v-354h1038v-240h-1038v-370h1105v-240h-1405zM883 1605q-173 0 -282.5 72t-131.5 205h220q9 -59 61.5 -90.5t132.5 -31.5t133 31.5t62 90.5h220q-22 -133 -132 -205t-283 -72z" />
    <glyph glyph-name="ebreve" unicode="&#x115;" horiz-adv-x="1599" 
d="M804 -31q-327 0 -524.5 153t-197.5 415v2q0 172 94.5 301t256.5 195.5t368 66.5q209 0 368.5 -73t253.5 -220.5t101 -353.5v-1h-1140v-1q26 -135 143.5 -207.5t284.5 -72.5q137 0 239.5 36.5t151.5 109.5h305q-63 -164 -247.5 -257t-456.5 -93zM798 904
q-163 0 -271.5 -64t-140.5 -193v-1h823v1q-28 123 -137 190t-274 67zM799 1193q-177 0 -284.5 63.5t-129.5 193.5h220q16 -104 194 -104q179 0 195 104h220q-22 -130 -130 -193.5t-285 -63.5z" />
    <glyph glyph-name="Edotaccent" unicode="&#x116;" horiz-adv-x="1704" 
d="M179 0v1444h1402v-240h-1102v-354h1038v-240h-1038v-370h1105v-240h-1405zM742 1632v250h283v-250h-283z" />
    <glyph glyph-name="edotaccent" unicode="&#x117;" horiz-adv-x="1599" 
d="M804 -31q-327 0 -524.5 153t-197.5 415v2q0 172 94.5 301t256.5 195.5t368 66.5q209 0 368.5 -73t253.5 -220.5t101 -353.5v-1h-1140v-1q26 -135 143.5 -207.5t284.5 -72.5q137 0 239.5 36.5t151.5 109.5h305q-63 -164 -247.5 -257t-456.5 -93zM798 904
q-163 0 -271.5 -64t-140.5 -193v-1h823v1q-28 123 -137 190t-274 67zM667 1209v235h264v-235h-264z" />
    <glyph glyph-name="Eogonek" unicode="&#x118;" horiz-adv-x="1704" 
d="M179 0v1444h1402v-240h-1102v-354h1038v-240h-1038v-370h1105v-240h-1405zM1358 1h226q-47 -27 -76 -65t-29 -79q0 -39 28.5 -58.5t71.5 -19.5q50 0 96 22l59 -145q-90 -52 -220 -52q-123 0 -198.5 54.5t-75.5 146.5q0 113 118 196z" />
    <glyph glyph-name="eogonek" unicode="&#x119;" horiz-adv-x="1599" 
d="M804 -31q-327 0 -524.5 153t-197.5 415v2q0 172 94.5 301t256.5 195.5t368 66.5q209 0 368.5 -73t253.5 -220.5t101 -353.5v-1h-1140v-1q26 -135 143.5 -207.5t284.5 -72.5q137 0 239.5 36.5t151.5 109.5h305q-63 -164 -247.5 -257t-456.5 -93zM798 904
q-163 0 -271.5 -64t-140.5 -193v-1h823v1q-28 123 -137 190t-274 67zM858 1h226q-47 -27 -76 -65t-29 -79q0 -39 28.5 -58.5t71.5 -19.5q50 0 96 22l59 -145q-90 -52 -220 -52q-123 0 -198.5 54.5t-75.5 146.5q0 113 118 196z" />
    <glyph glyph-name="Ecaron" unicode="&#x11a;" horiz-adv-x="1704" 
d="M179 0v1444h1402v-240h-1102v-354h1038v-240h-1038v-370h1105v-240h-1405zM368 1882h324l190 -148l191 148h324l-332 -264h-366z" />
    <glyph glyph-name="ecaron" unicode="&#x11b;" horiz-adv-x="1599" 
d="M804 -31q-327 0 -524.5 153t-197.5 415v2q0 172 94.5 301t256.5 195.5t368 66.5q209 0 368.5 -73t253.5 -220.5t101 -353.5v-1h-1140v-1q26 -135 143.5 -207.5t284.5 -72.5q137 0 239.5 36.5t151.5 109.5h305q-63 -164 -247.5 -257t-456.5 -93zM798 904
q-163 0 -271.5 -64t-140.5 -193v-1h823v1q-28 123 -137 190t-274 67zM297 1444h311l191 -119l190 119h311l-331 -234h-341z" />
    <glyph glyph-name="Gcircumflex" unicode="&#x11c;" horiz-adv-x="2110" 
d="M1044 -31q-281 0 -495 90.5t-333.5 261.5t-119.5 400v2q0 230 120 401t336.5 260.5t503.5 89.5q219 0 404.5 -56.5t313.5 -164.5t175 -254h-323q-59 118 -216 179t-347 61q-137 0 -254 -32.5t-206 -95t-140 -162.5t-51 -226v-2q0 -167 88 -286t233.5 -176t332.5 -57
q161 0 296 40t222.5 125t87.5 201v8h-562v227h853v-804h-235l-8 216q-89 -106 -269.5 -176t-406.5 -70zM531 1618l331 264h366l332 -264h-324l-191 148l-190 -148h-324z" />
    <glyph glyph-name="gcircumflex" unicode="&#x11d;" horiz-adv-x="1663" 
d="M723 47q-178 0 -320.5 59t-229 179t-86.5 282v2q0 123 50 224t136 167.5t202 102.5t248 36q183 0 312 -48.5t186 -125.5v142h290v-890q0 -123 -37.5 -217t-101.5 -154t-157.5 -97.5t-196 -52.5t-227.5 -15q-276 0 -447.5 89t-209.5 263h300q49 -152 363 -152
q73 0 130.5 6.5t114.5 26t94.5 52t61 86.5t23.5 127v81q-57 -77 -186 -125t-312 -48zM810 256q82 0 155 18t134 54t96.5 97.5t35.5 141.5v2q0 80 -35.5 143t-96 100.5t-134 57t-155.5 19.5q-65 0 -124.5 -11t-113.5 -36.5t-94 -62t-63.5 -90.5t-23.5 -120v-2
q0 -81 35.5 -143t96 -97.5t133 -53t154.5 -17.5zM297 1210l331 234h341l331 -234h-311l-190 121l-191 -121h-311z" />
    <glyph glyph-name="Gbreve" unicode="&#x11e;" horiz-adv-x="2110" 
d="M1044 -31q-281 0 -495 90.5t-333.5 261.5t-119.5 400v2q0 230 120 401t336.5 260.5t503.5 89.5q219 0 404.5 -56.5t313.5 -164.5t175 -254h-323q-59 118 -216 179t-347 61q-137 0 -254 -32.5t-206 -95t-140 -162.5t-51 -226v-2q0 -167 88 -286t233.5 -176t332.5 -57
q161 0 296 40t222.5 125t87.5 201v8h-562v227h853v-804h-235l-8 216q-89 -106 -269.5 -176t-406.5 -70zM1045 1605q-173 0 -282.5 72t-131.5 205h220q9 -59 61.5 -90.5t132.5 -31.5t133 31.5t62 90.5h220q-22 -133 -132 -205t-283 -72z" />
    <glyph glyph-name="gbreve" unicode="&#x11f;" horiz-adv-x="1663" 
d="M723 47q-178 0 -320.5 59t-229 179t-86.5 282v2q0 123 50 224t136 167.5t202 102.5t248 36q183 0 312 -48.5t186 -125.5v142h290v-890q0 -123 -37.5 -217t-101.5 -154t-157.5 -97.5t-196 -52.5t-227.5 -15q-276 0 -447.5 89t-209.5 263h300q49 -152 363 -152
q73 0 130.5 6.5t114.5 26t94.5 52t61 86.5t23.5 127v81q-57 -77 -186 -125t-312 -48zM810 256q82 0 155 18t134 54t96.5 97.5t35.5 141.5v2q0 80 -35.5 143t-96 100.5t-134 57t-155.5 19.5q-65 0 -124.5 -11t-113.5 -36.5t-94 -62t-63.5 -90.5t-23.5 -120v-2
q0 -81 35.5 -143t96 -97.5t133 -53t154.5 -17.5zM799 1193q-177 0 -284.5 63.5t-129.5 193.5h220q16 -104 194 -104q179 0 195 104h220q-22 -130 -130 -193.5t-285 -63.5z" />
    <glyph glyph-name="Gdotaccent" unicode="&#x120;" horiz-adv-x="2110" 
d="M1044 -31q-281 0 -495 90.5t-333.5 261.5t-119.5 400v2q0 230 120 401t336.5 260.5t503.5 89.5q219 0 404.5 -56.5t313.5 -164.5t175 -254h-323q-59 118 -216 179t-347 61q-137 0 -254 -32.5t-206 -95t-140 -162.5t-51 -226v-2q0 -167 88 -286t233.5 -176t332.5 -57
q161 0 296 40t222.5 125t87.5 201v8h-562v227h853v-804h-235l-8 216q-89 -106 -269.5 -176t-406.5 -70zM905 1632v250h283v-250h-283z" />
    <glyph glyph-name="gdotaccent" unicode="&#x121;" horiz-adv-x="1663" 
d="M723 47q-178 0 -320.5 59t-229 179t-86.5 282v2q0 123 50 224t136 167.5t202 102.5t248 36q183 0 312 -48.5t186 -125.5v142h290v-890q0 -123 -37.5 -217t-101.5 -154t-157.5 -97.5t-196 -52.5t-227.5 -15q-276 0 -447.5 89t-209.5 263h300q49 -152 363 -152
q73 0 130.5 6.5t114.5 26t94.5 52t61 86.5t23.5 127v81q-57 -77 -186 -125t-312 -48zM810 256q82 0 155 18t134 54t96.5 97.5t35.5 141.5v2q0 80 -35.5 143t-96 100.5t-134 57t-155.5 19.5q-65 0 -124.5 -11t-113.5 -36.5t-94 -62t-63.5 -90.5t-23.5 -120v-2
q0 -81 35.5 -143t96 -97.5t133 -53t154.5 -17.5zM667 1209v235h264v-235h-264z" />
    <glyph glyph-name="uni0122" unicode="&#x122;" horiz-adv-x="2110" 
d="M1044 -31q-281 0 -495 90.5t-333.5 261.5t-119.5 400v2q0 230 120 401t336.5 260.5t503.5 89.5q219 0 404.5 -56.5t313.5 -164.5t175 -254h-323q-59 118 -216 179t-347 61q-137 0 -254 -32.5t-206 -95t-140 -162.5t-51 -226v-2q0 -167 88 -286t233.5 -176t332.5 -57
q161 0 296 40t222.5 125t87.5 201v8h-562v227h853v-804h-235l-8 216q-89 -106 -269.5 -176t-406.5 -70zM674 -362l215 264h312l-250 -264h-277z" />
    <glyph glyph-name="uni0123" unicode="&#x123;" horiz-adv-x="1663" 
d="M723 47q-178 0 -320.5 59t-229 179t-86.5 282v2q0 123 50 224t136 167.5t202 102.5t248 36q183 0 312 -48.5t186 -125.5v142h290v-890q0 -123 -37.5 -217t-101.5 -154t-157.5 -97.5t-196 -52.5t-227.5 -15q-276 0 -447.5 89t-209.5 263h300q49 -152 363 -152
q73 0 130.5 6.5t114.5 26t94.5 52t61 86.5t23.5 127v81q-57 -77 -186 -125t-312 -48zM810 256q82 0 155 18t134 54t96.5 97.5t35.5 141.5v2q0 80 -35.5 143t-96 100.5t-134 57t-155.5 19.5q-65 0 -124.5 -11t-113.5 -36.5t-94 -62t-63.5 -90.5t-23.5 -120v-2
q0 -81 35.5 -143t96 -97.5t133 -53t154.5 -17.5zM604 1241l350 264h316l-298 -264h-368z" />
    <glyph glyph-name="Hcircumflex" unicode="&#x124;" horiz-adv-x="1962" 
d="M179 0v1444h300v-589h1004v589h300v-1444h-300v605h-1004v-605h-300zM467 1618l331 264h366l332 -264h-324l-191 148l-190 -148h-324z" />
    <glyph glyph-name="hcircumflex" unicode="&#x125;" 
d="M157 0v1444h289v-530q62 83 178 134t281 51q259 0 401.5 -126.5t142.5 -371.5v-601h-289v539q0 171 -91.5 257t-265.5 86t-265.5 -86t-91.5 -257v-539h-289zM-200 1593l331 234h341l331 -234h-311l-190 121l-191 -121h-311z" />
    <glyph glyph-name="Hbar" unicode="&#x126;" horiz-adv-x="1962" 
d="M179 0v1444h300v-589h1004v589h300v-1444h-300v605h-1004v-605h-300zM558 1643v175h847v-175h-847z" />
    <glyph glyph-name="hbar" unicode="&#x127;" 
d="M157 0v1144h-166v169h166v131h289v-131h422v-169h-422v-230q62 83 178 134t281 51q259 0 401.5 -126.5t142.5 -371.5v-601h-289v539q0 171 -91.5 257t-265.5 86t-265.5 -86t-91.5 -257v-539h-289z" />
    <glyph glyph-name="Itilde" unicode="&#x128;" horiz-adv-x="659" 
d="M179 0v1444h300v-1444h-300zM-142 1618q6 125 73.5 198.5t185.5 73.5q58 0 118 -15t99.5 -33t83.5 -33t75 -15q51 0 73 21.5t25 71.5h212q-7 -125 -74.5 -199t-184.5 -74q-59 0 -118.5 15t-99.5 33.5t-84 33.5t-74 15q-51 0 -72.5 -21.5t-26.5 -71.5h-211z" />
    <glyph glyph-name="itilde" unicode="&#x129;" horiz-adv-x="603" 
d="M157 0v1067h289v-1067h-289zM-162 1208q6 126 73.5 200t185.5 74q58 0 118 -15t99.5 -33.5t83.5 -33.5t75 -15q51 0 73 22t25 72h212q-7 -125 -74.5 -199.5t-184.5 -74.5q-75 0 -148.5 24.5t-132 49t-95.5 24.5q-51 0 -72.5 -22t-26.5 -73h-211z" />
    <glyph glyph-name="Imacron" unicode="&#x12a;" horiz-adv-x="659" 
d="M179 0v1444h300v-1444h-300zM-93 1643v175h847v-175h-847z" />
    <glyph glyph-name="imacron" unicode="&#x12b;" horiz-adv-x="603" 
d="M157 0v1067h289v-1067h-289zM-96 1238v169h797v-169h-797z" />
    <glyph glyph-name="Iogonek" unicode="&#x12e;" horiz-adv-x="659" 
d="M179 0v1444h300v-1444h-300zM220 1h226q-47 -27 -76 -65t-29 -79q0 -39 28.5 -58.5t71.5 -19.5q50 0 96 22l59 -145q-90 -52 -220 -52q-123 0 -198.5 54.5t-75.5 146.5q0 113 118 196z" />
    <glyph glyph-name="iogonek" unicode="&#x12f;" horiz-adv-x="603" 
d="M157 0v1067h289v-1067h-289zM157 1192v252h289v-252h-289zM192 1h226q-47 -27 -76 -65t-29 -79q0 -39 28.5 -58.5t71.5 -19.5q50 0 96 22l59 -145q-90 -52 -220 -52q-123 0 -198.5 54.5t-75.5 146.5q0 113 118 196z" />
    <glyph glyph-name="Idotaccent" unicode="&#x130;" horiz-adv-x="659" 
d="M179 0v1444h300v-1444h-300zM190 1632v250h283v-250h-283z" />
    <glyph glyph-name="dotlessi" unicode="&#x131;" horiz-adv-x="603" 
d="M157 0v1067h289v-1067h-289z" />
    <glyph glyph-name="IJ" unicode="&#x132;" horiz-adv-x="2191" 
d="M179 0v1444h300v-1444h-300zM1372 -31q-289 0 -466.5 139.5t-187.5 396.5h319q13 -304 341 -304q164 0 257 76.5t93 239.5v926h300v-924q0 -137 -48 -243t-136 -172.5t-207 -100.5t-265 -34z" />
    <glyph glyph-name="ij" unicode="&#x133;" horiz-adv-x="1255" 
d="M157 0v1067h289v-1067h-289zM157 1192v252h289v-252h-289zM542 -333v212h90q56 0 86.5 5.5t53.5 25.5t30.5 56t7.5 98v1003h289v-1015q0 -217 -95 -301t-329 -84h-133zM810 1192v252h289v-252h-289z" />
    <glyph glyph-name="Jcircumflex" unicode="&#x134;" horiz-adv-x="1498" 
d="M679 -31q-289 0 -466.5 139.5t-187.5 396.5h319q13 -304 341 -304q164 0 257 76.5t93 239.5v926h300v-924q0 -137 -48 -243t-136 -172.5t-207 -100.5t-265 -34zM670 1618l331 264h366l332 -264h-324l-191 148l-190 -148h-324z" />
    <glyph glyph-name="jcircumflex" unicode="&#x135;" horiz-adv-x="603" 
d="M-110 -333v214h90q56 0 86.5 5.5t53 25.5t30.5 56t8 98v1001h289v-1016q0 -217 -95 -300.5t-329 -83.5h-133zM-199 1210l331 234h341l331 -234h-311l-190 121l-191 -121h-311z" />
    <glyph glyph-name="uni0136" unicode="&#x136;" horiz-adv-x="1807" 
d="M179 0v1444h300v-620l903 620h416l-1024 -706l1057 -738h-474l-878 607v-607h-300zM574 -362l215 264h312l-250 -264h-277z" />
    <glyph glyph-name="uni0137" unicode="&#x137;" horiz-adv-x="1491" 
d="M157 0v1444h289v-813l640 436h386l-740 -500l794 -567h-441l-639 450v-450h-289zM420 -362l215 264h312l-250 -264h-277z" />
    <glyph glyph-name="kgreenlandic" unicode="&#x138;" horiz-adv-x="1492" 
d="M157 0v1067h290v-442l646 442h380l-732 -516l785 -551h-438l-641 441v-441h-290z" />
    <glyph glyph-name="Lacute" unicode="&#x139;" horiz-adv-x="1530" 
d="M179 0v1444h300v-1204h1029v-240h-1329zM120 1618l313 264h386l-382 -264h-317z" />
    <glyph glyph-name="lacute" unicode="&#x13a;" horiz-adv-x="603" 
d="M157 0v1444h289v-1444h-289zM119 1587l257 234h385l-338 -234h-304z" />
    <glyph glyph-name="uni013B" unicode="&#x13b;" horiz-adv-x="1530" 
d="M179 0v1444h300v-1204h1029v-240h-1329zM475 -362l215 264h312l-250 -264h-277z" />
    <glyph glyph-name="uni013C" unicode="&#x13c;" horiz-adv-x="603" 
d="M157 0v1444h289v-1444h-289zM-64 -362l215 264h312l-250 -264h-277z" />
    <glyph glyph-name="Lcaron" unicode="&#x13d;" horiz-adv-x="1530" 
d="M179 0v1444h300v-1204h1029v-240h-1329zM866 1649h274l-85 -336h-189v336z" />
    <glyph glyph-name="lcaron" unicode="&#x13e;" horiz-adv-x="603" 
d="M594 1444h275l-85 -336h-190v336zM157 0v1444h289v-1444h-289z" />
    <glyph glyph-name="Ldot" unicode="&#x13f;" horiz-adv-x="1536" 
d="M179 0v1444h300v-1204h1029v-240h-1329zM1264 649h-301v294h301v-294z" />
    <glyph glyph-name="ldot" unicode="&#x140;" horiz-adv-x="828" 
d="M157 0v1444h289v-1444h-289zM880 598h-301v295h301v-295z" />
    <glyph glyph-name="Lslash" unicode="&#x141;" horiz-adv-x="1625" 
d="M273 0v543l-188 -92v249l188 92v652h300v-506l476 231v-249l-476 -231v-449h1030v-240h-1330z" />
    <glyph glyph-name="lslash" unicode="&#x142;" horiz-adv-x="876" 
d="M302 0v582l-242 -120v236l242 120v626h289v-484l242 120v-236l-242 -119v-725h-289z" />
    <glyph glyph-name="Nacute" unicode="&#x143;" horiz-adv-x="1976" 
d="M179 0v1444h347l980 -1090h2l-2 282v808h291v-1444h-349l-978 1083h-2l2 -288v-795h-291zM826 1618l313 264h386l-382 -264h-317z" />
    <glyph glyph-name="nacute" unicode="&#x144;" 
d="M157 0v1067h289v-149q62 82 177.5 131.5t281.5 49.5q259 0 401.5 -126.5t142.5 -371.5v-601h-289v539q0 171 -91.5 257t-265.5 86t-265.5 -86t-91.5 -257v-539h-289zM618 1210l257 234h385l-338 -234h-304z" />
    <glyph glyph-name="uni0145" unicode="&#x145;" horiz-adv-x="1976" 
d="M179 0v1444h347l980 -1090h2l-2 282v808h291v-1444h-349l-978 1083h-2l2 -288v-795h-291zM635 -362l215 264h312l-250 -264h-277z" />
    <glyph glyph-name="uni0146" unicode="&#x146;" 
d="M157 0v1067h289v-149q62 82 177.5 131.5t281.5 49.5q259 0 401.5 -126.5t142.5 -371.5v-601h-289v539q0 171 -91.5 257t-265.5 86t-265.5 -86t-91.5 -257v-539h-289zM436 -362l215 264h312l-250 -264h-277z" />
    <glyph glyph-name="Ncaron" unicode="&#x147;" horiz-adv-x="1976" 
d="M179 0v1444h347l980 -1090h2l-2 282v808h291v-1444h-349l-978 1083h-2l2 -288v-795h-291zM522 1882h324l190 -148l191 148h324l-332 -264h-366z" />
    <glyph glyph-name="ncaron" unicode="&#x148;" 
d="M157 0v1067h289v-149q62 82 177.5 131.5t281.5 49.5q259 0 401.5 -126.5t142.5 -371.5v-601h-289v539q0 171 -91.5 257t-265.5 86t-265.5 -86t-91.5 -257v-539h-289zM301 1444h311l191 -119l190 119h311l-331 -234h-341z" />
    <glyph glyph-name="napostrophe" unicode="&#x149;" 
d="M157 0v1067h289v-149q62 82 177.5 131.5t281.5 49.5q259 0 401.5 -126.5t142.5 -371.5v-601h-289v539q0 171 -91.5 257t-265.5 86t-265.5 -86t-91.5 -257v-539h-289zM433 1444l-106 -324h-282l140 324h248z" />
    <glyph glyph-name="Omacron" unicode="&#x14c;" horiz-adv-x="2135" 
d="M1064 -31q-283 0 -500.5 89.5t-340.5 261t-123 401.5v2q0 231 123 402.5t340 260.5t501 89t501 -89t340 -260.5t123 -402.5v-2q0 -230 -123 -401.5t-340.5 -261t-500.5 -89.5zM1064 204q185 0 330 58.5t231.5 177t86.5 281.5v2q0 163 -86.5 282t-231.5 177t-330 58
t-330 -58t-231.5 -177t-86.5 -282v-2q0 -163 86.5 -281.5t231.5 -177t330 -58.5zM644 1643v175h847v-175h-847z" />
    <glyph glyph-name="omacron" unicode="&#x14d;" horiz-adv-x="1637" 
d="M819 -31q-340 0 -539 154.5t-199 412.5v2q0 257 199 410.5t539 153.5q339 0 538 -153.5t199 -410.5v-2q0 -258 -199 -412.5t-538 -154.5zM819 180q195 0 315 94.5t120 261.5v2q0 165 -120 259t-315 94t-315.5 -94t-120.5 -259v-2q0 -167 120.5 -261.5t315.5 -94.5z
M421 1238v169h797v-169h-797z" />
    <glyph glyph-name="Obreve" unicode="&#x14e;" horiz-adv-x="2135" 
d="M1064 -31q-283 0 -500.5 89.5t-340.5 261t-123 401.5v2q0 231 123 402.5t340 260.5t501 89t501 -89t340 -260.5t123 -402.5v-2q0 -230 -123 -401.5t-340.5 -261t-500.5 -89.5zM1064 204q185 0 330 58.5t231.5 177t86.5 281.5v2q0 163 -86.5 282t-231.5 177t-330 58
t-330 -58t-231.5 -177t-86.5 -282v-2q0 -163 86.5 -281.5t231.5 -177t330 -58.5zM1068 1605q-173 0 -282.5 72t-131.5 205h220q9 -59 61.5 -90.5t132.5 -31.5t133 31.5t62 90.5h220q-22 -133 -132 -205t-283 -72z" />
    <glyph glyph-name="obreve" unicode="&#x14f;" horiz-adv-x="1637" 
d="M819 -31q-340 0 -539 154.5t-199 412.5v2q0 257 199 410.5t539 153.5q339 0 538 -153.5t199 -410.5v-2q0 -258 -199 -412.5t-538 -154.5zM819 180q195 0 315 94.5t120 261.5v2q0 165 -120 259t-315 94t-315.5 -94t-120.5 -259v-2q0 -167 120.5 -261.5t315.5 -94.5z
M819 1193q-177 0 -284.5 63.5t-129.5 193.5h220q16 -104 194 -104q179 0 195 104h220q-22 -130 -130 -193.5t-285 -63.5z" />
    <glyph glyph-name="Ohungarumlaut" unicode="&#x150;" horiz-adv-x="2135" 
d="M1064 -31q-283 0 -500.5 89.5t-340.5 261t-123 401.5v2q0 231 123 402.5t340 260.5t501 89t501 -89t340 -260.5t123 -402.5v-2q0 -230 -123 -401.5t-340.5 -261t-500.5 -89.5zM1064 204q185 0 330 58.5t231.5 177t86.5 281.5v2q0 163 -86.5 282t-231.5 177t-330 58
t-330 -58t-231.5 -177t-86.5 -282v-2q0 -163 86.5 -281.5t231.5 -177t330 -58.5zM607 1618l313 264h386l-382 -264h-317zM1195 1618l313 264h385l-381 -264h-317z" />
    <glyph glyph-name="ohungarumlaut" unicode="&#x151;" horiz-adv-x="1637" 
d="M819 -31q-340 0 -539 154.5t-199 412.5v2q0 257 199 410.5t539 153.5q339 0 538 -153.5t199 -410.5v-2q0 -258 -199 -412.5t-538 -154.5zM819 180q195 0 315 94.5t120 261.5v2q0 165 -120 259t-315 94t-315.5 -94t-120.5 -259v-2q0 -167 120.5 -261.5t315.5 -94.5z
M362 1210l270 234h379l-345 -234h-304zM936 1210l270 234h379l-344 -234h-305z" />
    <glyph glyph-name="OE" unicode="&#x152;" horiz-adv-x="3255" 
d="M1064 -31q-283 0 -500.5 89.5t-340.5 261t-123 401.5v2q0 230 123 401.5t340.5 261t500.5 89.5q417 0 667 -193v162h1402v-241h-1102v-353h1038v-240h-1038v-370h1105v-240h-1405v162q-250 -193 -667 -193zM1064 204q185 0 330 58.5t231.5 177t86.5 281.5v2
q0 163 -86.5 281.5t-231.5 177t-330 58.5t-330 -58.5t-231 -177t-86 -281.5v-2q0 -163 86 -281.5t231 -177t330 -58.5z" />
    <glyph glyph-name="oe" unicode="&#x153;" horiz-adv-x="2780" 
d="M819 -31q-340 0 -539 154.5t-199 412.5v2q0 257 199 410.5t539 153.5q194 0 345 -52.5t245 -149.5q93 98 241 150t328 52q209 0 368.5 -73.5t253.5 -221t101 -352.5v-1h-1140v-1q26 -135 143.5 -207.5t284.5 -72.5q137 0 239.5 36.5t151.5 109.5h305
q-63 -165 -247 -257.5t-457 -92.5q-186 0 -334.5 51.5t-241.5 148.5q-93 -96 -243 -148t-343 -52zM819 180q195 0 315 94.5t120 261.5v2q0 166 -120 259.5t-315 93.5t-315.5 -93.5t-120.5 -259.5v-2q0 -167 120.5 -261.5t315.5 -94.5zM1975 904q-164 0 -272.5 -64
t-139.5 -193v-1h823v1q-28 123 -137 190t-274 67z" />
    <glyph glyph-name="Racute" unicode="&#x154;" horiz-adv-x="1881" 
d="M179 0v1444h933q142 0 249 -20t188.5 -63.5t123.5 -118.5t42 -180v-2q0 -275 -267 -356q73 -18 116 -46t72.5 -91t39.5 -168l14 -131q10 -102 19 -159.5t14 -74t14 -34.5h-312q-17 42 -28 136l-22 207q-8 77 -24.5 122t-52 70t-82 33t-126.5 8h-611v-576h-300zM479 809
h616q161 0 233 44t72 155v2q0 110 -72 154.5t-233 44.5h-616v-400zM638 1618l313 264h386l-382 -264h-317z" />
    <glyph glyph-name="racute" unicode="&#x155;" horiz-adv-x="969" 
d="M157 0v1067h286v-214q51 103 170.5 167t272.5 64h52v-258h-97q-395 0 -395 -305v-521h-289zM363 1210l257 234h385l-338 -234h-304z" />
    <glyph glyph-name="uni0156" unicode="&#x156;" horiz-adv-x="1881" 
d="M179 0v1444h933q142 0 249 -20t188.5 -63.5t123.5 -118.5t42 -180v-2q0 -275 -267 -356q73 -18 116 -46t72.5 -91t39.5 -168l14 -131q10 -102 19 -159.5t14 -74t14 -34.5h-312q-17 42 -28 136l-22 207q-8 77 -24.5 122t-52 70t-82 33t-126.5 8h-611v-576h-300zM479 809
h616q161 0 233 44t72 155v2q0 110 -72 154.5t-233 44.5h-616v-400zM562 -362l215 264h312l-250 -264h-277z" />
    <glyph glyph-name="uni0157" unicode="&#x157;" horiz-adv-x="969" 
d="M157 0v1067h286v-214q51 103 170.5 167t272.5 64h52v-258h-97q-395 0 -395 -305v-521h-289zM-66 -362l215 264h312l-250 -264h-277z" />
    <glyph glyph-name="Rcaron" unicode="&#x158;" horiz-adv-x="1881" 
d="M179 0v1444h933q142 0 249 -20t188.5 -63.5t123.5 -118.5t42 -180v-2q0 -275 -267 -356q73 -18 116 -46t72.5 -91t39.5 -168l14 -131q10 -102 19 -159.5t14 -74t14 -34.5h-312q-17 42 -28 136l-22 207q-8 77 -24.5 122t-52 70t-82 33t-126.5 8h-611v-576h-300zM479 809
h616q161 0 233 44t72 155v2q0 110 -72 154.5t-233 44.5h-616v-400zM334 1882h324l190 -148l191 148h324l-332 -264h-366z" />
    <glyph glyph-name="rcaron" unicode="&#x159;" horiz-adv-x="969" 
d="M157 0v1067h286v-214q51 103 170.5 167t272.5 64h52v-258h-97q-395 0 -395 -305v-521h-289zM47 1444h311l191 -119l190 119h311l-331 -234h-341z" />
    <glyph glyph-name="Sacute" unicode="&#x15a;" horiz-adv-x="1839" 
d="M943 -31q-358 0 -586.5 125.5t-275.5 352.5h329q36 -132 181 -193.5t365 -61.5q494 0 494 198v3q0 36 -12 64t-38.5 49t-61.5 36.5t-89.5 27t-113 19t-140.5 14.5l-252 28q-315 30 -467 135t-152 292v2q0 130 105 225.5t279 142.5t393 47t389.5 -50t278.5 -149t138 -238
h-329q-69 213 -496 213q-94 0 -172.5 -10t-142.5 -30.5t-100 -57t-36 -85.5v-2q0 -85 89 -130.5t308 -63.5l252 -29q137 -14 238 -33.5t187.5 -52t140 -77.5t83.5 -110t30 -150v-3q0 -151 -104 -253t-283.5 -148.5t-428.5 -46.5zM683 1618l313 264h386l-382 -264h-317z" />
    <glyph glyph-name="sacute" unicode="&#x15b;" horiz-adv-x="1495" 
d="M766 -31q-301 0 -484 92t-215 270h301q13 -49 49 -83.5t92.5 -53t121.5 -26.5t148 -8q351 0 351 132v2q0 64 -67 90.5t-231 39.5l-248 21q-250 19 -370 99t-120 225v2q0 98 79.5 173.5t223 116.5t327.5 41q183 0 321 -34.5t228 -109.5t112 -186h-301q-48 140 -363 140
q-162 0 -247 -32.5t-85 -94.5v-2q0 -56 59.5 -83t197.5 -37l258 -21q130 -11 221.5 -31t162 -56.5t105 -94.5t34.5 -139v-2q0 -166 -172 -258t-489 -92zM543 1210l257 234h385l-338 -234h-304z" />
    <glyph glyph-name="Scircumflex" unicode="&#x15c;" horiz-adv-x="1839" 
d="M943 -31q-358 0 -586.5 125.5t-275.5 352.5h329q36 -132 181 -193.5t365 -61.5q494 0 494 198v3q0 36 -12 64t-38.5 49t-61.5 36.5t-89.5 27t-113 19t-140.5 14.5l-252 28q-315 30 -467 135t-152 292v2q0 130 105 225.5t279 142.5t393 47t389.5 -50t278.5 -149t138 -238
h-329q-69 213 -496 213q-94 0 -172.5 -10t-142.5 -30.5t-100 -57t-36 -85.5v-2q0 -85 89 -130.5t308 -63.5l252 -29q137 -14 238 -33.5t187.5 -52t140 -77.5t83.5 -110t30 -150v-3q0 -151 -104 -253t-283.5 -148.5t-428.5 -46.5zM378 1618l331 264h366l332 -264h-324
l-191 148l-190 -148h-324z" />
    <glyph glyph-name="scircumflex" unicode="&#x15d;" horiz-adv-x="1495" 
d="M766 -31q-301 0 -484 92t-215 270h301q13 -49 49 -83.5t92.5 -53t121.5 -26.5t148 -8q351 0 351 132v2q0 64 -67 90.5t-231 39.5l-248 21q-250 19 -370 99t-120 225v2q0 98 79.5 173.5t223 116.5t327.5 41q183 0 321 -34.5t228 -109.5t112 -186h-301q-48 140 -363 140
q-162 0 -247 -32.5t-85 -94.5v-2q0 -56 59.5 -83t197.5 -37l258 -21q130 -11 221.5 -31t162 -56.5t105 -94.5t34.5 -139v-2q0 -166 -172 -258t-489 -92zM226 1210l331 234h341l331 -234h-311l-190 121l-191 -121h-311z" />
    <glyph glyph-name="Scedilla" unicode="&#x15e;" horiz-adv-x="1839" 
d="M943 -31q-358 0 -586.5 125.5t-275.5 352.5h329q36 -132 181 -193.5t365 -61.5q494 0 494 198v3q0 36 -12 64t-38.5 49t-61.5 36.5t-89.5 27t-113 19t-140.5 14.5l-252 28q-315 30 -467 135t-152 292v2q0 130 105 225.5t279 142.5t393 47t389.5 -50t278.5 -149t138 -238
h-329q-69 213 -496 213q-94 0 -172.5 -10t-142.5 -30.5t-100 -57t-36 -85.5v-2q0 -85 89 -130.5t308 -63.5l252 -29q137 -14 238 -33.5t187.5 -52t140 -77.5t83.5 -110t30 -150v-3q0 -151 -104 -253t-283.5 -148.5t-428.5 -46.5zM897 -423q-135 0 -263 49l48 103
q96 -42 198 -42q129 0 129 56q0 27 -30 40.5t-75 13.5q-61 0 -107 -24l-82 58l184 211h149l-142 -160q42 11 94 11q90 0 155 -34.5t65 -105.5q0 -82 -92 -129t-231 -47z" />
    <glyph glyph-name="scedilla" unicode="&#x15f;" horiz-adv-x="1495" 
d="M766 -31q-301 0 -484 92t-215 270h301q13 -49 49 -83.5t92.5 -53t121.5 -26.5t148 -8q351 0 351 132v2q0 64 -67 90.5t-231 39.5l-248 21q-250 19 -370 99t-120 225v2q0 98 79.5 173.5t223 116.5t327.5 41q183 0 321 -34.5t228 -109.5t112 -186h-301q-48 140 -363 140
q-162 0 -247 -32.5t-85 -94.5v-2q0 -56 59.5 -83t197.5 -37l258 -21q130 -11 221.5 -31t162 -56.5t105 -94.5t34.5 -139v-2q0 -166 -172 -258t-489 -92zM714 -423q-135 0 -263 49l48 103q96 -42 198 -42q129 0 129 56q0 27 -30 40.5t-75 13.5q-61 0 -107 -24l-82 58l184 211
h149l-142 -160q42 11 94 11q90 0 155 -34.5t65 -105.5q0 -82 -92 -129t-231 -47z" />
    <glyph glyph-name="Scaron" unicode="&#x160;" horiz-adv-x="1839" 
d="M943 -31q-358 0 -586.5 125.5t-275.5 352.5h329q36 -132 181 -193.5t365 -61.5q494 0 494 198v3q0 36 -12 64t-38.5 49t-61.5 36.5t-89.5 27t-113 19t-140.5 14.5l-252 28q-315 30 -467 135t-152 292v2q0 130 105 225.5t279 142.5t393 47t389.5 -50t278.5 -149t138 -238
h-329q-69 213 -496 213q-94 0 -172.5 -10t-142.5 -30.5t-100 -57t-36 -85.5v-2q0 -85 89 -130.5t308 -63.5l252 -29q137 -14 238 -33.5t187.5 -52t140 -77.5t83.5 -110t30 -150v-3q0 -151 -104 -253t-283.5 -148.5t-428.5 -46.5zM378 1882h324l190 -148l191 148h324
l-332 -264h-366z" />
    <glyph glyph-name="scaron" unicode="&#x161;" horiz-adv-x="1495" 
d="M766 -31q-301 0 -484 92t-215 270h301q13 -49 49 -83.5t92.5 -53t121.5 -26.5t148 -8q351 0 351 132v2q0 64 -67 90.5t-231 39.5l-248 21q-250 19 -370 99t-120 225v2q0 98 79.5 173.5t223 116.5t327.5 41q183 0 321 -34.5t228 -109.5t112 -186h-301q-48 140 -363 140
q-162 0 -247 -32.5t-85 -94.5v-2q0 -56 59.5 -83t197.5 -37l258 -21q130 -11 221.5 -31t162 -56.5t105 -94.5t34.5 -139v-2q0 -166 -172 -258t-489 -92zM226 1444h311l191 -119l190 119h311l-331 -234h-341z" />
    <glyph glyph-name="uni0162" unicode="&#x162;" horiz-adv-x="1717" 
d="M709 0v1203h-686v241h1672v-241h-686v-1203h-300zM817 -423q-135 0 -263 49l48 103q96 -42 198 -42q129 0 129 56q0 27 -30 40.5t-75 13.5q-61 0 -107 -24l-82 58l184 211h149l-142 -160q42 11 94 11q90 0 155 -34.5t65 -105.5q0 -82 -92 -129t-231 -47z" />
    <glyph glyph-name="uni0163" unicode="&#x163;" horiz-adv-x="1038" 
d="M708 0q-122 0 -197.5 15t-126 57t-70.5 111t-20 181v489h-260v214h260v358h289v-358h367v-214h-367v-458q0 -58 6.5 -90t29 -53.5t58.5 -28t101 -6.5h164v-217h-234zM574 -423q-135 0 -263 49l48 103q96 -42 198 -42q129 0 129 56q0 27 -30 40.5t-75 13.5q-61 0 -107 -24
l-82 58l184 211h149l-142 -160q42 11 94 11q90 0 155 -34.5t65 -105.5q0 -82 -92 -129t-231 -47z" />
    <glyph glyph-name="Tcaron" unicode="&#x164;" horiz-adv-x="1717" 
d="M709 0v1203h-686v241h1672v-241h-686v-1203h-300zM345 1882h324l190 -148l191 148h324l-332 -264h-366z" />
    <glyph glyph-name="tcaron" unicode="&#x165;" horiz-adv-x="1038" 
d="M708 0q-122 0 -197.5 15t-126 57t-70.5 111t-20 181v489h-260v214h260v358h289v-358h367v-214h-367v-458q0 -58 6.5 -90t29 -53.5t58.5 -28t101 -6.5h164v-217h-234zM712 1642h274l-85 -336h-189v336z" />
    <glyph glyph-name="Tbar" unicode="&#x166;" horiz-adv-x="1717" 
d="M709 0v655h-501v223h501v325h-686v241h1672v-241h-686v-325h501v-223h-501v-655h-300z" />
    <glyph glyph-name="tbar" unicode="&#x167;" horiz-adv-x="1047" 
d="M708 0q-122 0 -197.5 15t-126 57t-70.5 111t-20 181v135h-260v180h260v174h-260v214h260v358h289v-358h367v-214h-367v-174h376v-180h-376v-104q0 -58 6.5 -90t29 -53.5t58.5 -28t101 -6.5h164v-217h-234z" />
    <glyph glyph-name="Utilde" unicode="&#x168;" horiz-adv-x="1917" 
d="M959 -31q-799 0 -799 663v811h300v-806q0 -217 127 -325t372 -108t372 108t127 325v806h300v-811q0 -663 -799 -663zM487 1618q6 125 73.5 198.5t185.5 73.5q58 0 118 -15t99.5 -33t83.5 -33t75 -15q51 0 73 21.5t25 71.5h212q-7 -125 -74.5 -199t-184.5 -74
q-59 0 -118.5 15t-99.5 33.5t-83.5 33.5t-74.5 15q-51 0 -72.5 -21.5t-26.5 -71.5h-211z" />
    <glyph glyph-name="utilde" unicode="&#x169;" 
d="M685 -30q-259 0 -402 126.5t-143 371.5v599h289v-537q0 -172 91.5 -257.5t265.5 -85.5t265.5 85.5t91.5 257.5v537h289v-1067h-289v156q-62 -83 -177.5 -134.5t-280.5 -51.5zM322 1208q6 126 73.5 200t185.5 74q58 0 118 -15t99.5 -33.5t83.5 -33.5t75 -15q51 0 73 22
t25 72h212q-7 -125 -74.5 -199.5t-184.5 -74.5q-75 0 -148.5 24.5t-132 49t-95.5 24.5q-51 0 -72.5 -22t-26.5 -73h-211z" />
    <glyph glyph-name="Umacron" unicode="&#x16a;" horiz-adv-x="1917" 
d="M959 -31q-799 0 -799 663v811h300v-806q0 -217 127 -325t372 -108t372 108t127 325v806h300v-811q0 -663 -799 -663zM536 1643v175h847v-175h-847z" />
    <glyph glyph-name="umacron" unicode="&#x16b;" 
d="M685 -30q-259 0 -402 126.5t-143 371.5v599h289v-537q0 -172 91.5 -257.5t265.5 -85.5t265.5 85.5t91.5 257.5v537h289v-1067h-289v156q-62 -83 -177.5 -134.5t-280.5 -51.5zM388 1238v169h797v-169h-797z" />
    <glyph glyph-name="Ubreve" unicode="&#x16c;" horiz-adv-x="1917" 
d="M959 -31q-799 0 -799 663v811h300v-806q0 -217 127 -325t372 -108t372 108t127 325v806h300v-811q0 -663 -799 -663zM959 1605q-173 0 -282.5 72t-131.5 205h220q9 -59 61.5 -90.5t132.5 -31.5t133 31.5t62 90.5h220q-22 -133 -132 -205t-283 -72z" />
    <glyph glyph-name="ubreve" unicode="&#x16d;" 
d="M685 -30q-259 0 -402 126.5t-143 371.5v599h289v-537q0 -172 91.5 -257.5t265.5 -85.5t265.5 85.5t91.5 257.5v537h289v-1067h-289v156q-62 -83 -177.5 -134.5t-280.5 -51.5zM787 1193q-177 0 -284.5 63.5t-129.5 193.5h220q16 -104 194 -104q179 0 195 104h220
q-22 -130 -130 -193.5t-285 -63.5z" />
    <glyph glyph-name="Uring" unicode="&#x16e;" horiz-adv-x="1917" 
d="M959 -31q-799 0 -799 663v811h300v-806q0 -217 127 -325t372 -108t372 108t127 325v806h300v-811q0 -663 -799 -663zM962 1528q-99 0 -169.5 66t-70.5 166t70.5 166.5t169.5 66.5t169.5 -66.5t70.5 -166.5t-70.5 -166t-169.5 -66zM962 1651q47 0 77 30t30 79t-30 79.5
t-77 30.5t-77 -30.5t-30 -79.5t30 -79t77 -30z" />
    <glyph glyph-name="uring" unicode="&#x16f;" 
d="M685 -30q-259 0 -402 126.5t-143 371.5v599h289v-537q0 -172 91.5 -257.5t265.5 -85.5t265.5 85.5t91.5 257.5v537h289v-1067h-289v156q-62 -83 -177.5 -134.5t-280.5 -51.5zM788 1181q-99 0 -170 66t-71 166q0 101 70.5 167t170.5 66q99 0 169.5 -66t70.5 -167
q0 -100 -70.5 -166t-169.5 -66zM788 1301q48 0 78.5 31.5t30.5 80.5t-30.5 80.5t-78.5 31.5q-49 0 -79.5 -31t-30.5 -81t30.5 -81t79.5 -31z" />
    <glyph glyph-name="Uhungarumlaut" unicode="&#x170;" horiz-adv-x="1917" 
d="M959 -31q-799 0 -799 663v811h300v-806q0 -217 127 -325t372 -108t372 108t127 325v806h300v-811q0 -663 -799 -663zM499 1618l313 264h386l-382 -264h-317zM1087 1618l313 264h385l-381 -264h-317z" />
    <glyph glyph-name="uhungarumlaut" unicode="&#x171;" 
d="M685 -30q-259 0 -402 126.5t-143 371.5v599h289v-537q0 -172 91.5 -257.5t265.5 -85.5t265.5 85.5t91.5 257.5v537h289v-1067h-289v156q-62 -83 -177.5 -134.5t-280.5 -51.5zM329 1210l270 234h379l-345 -234h-304zM903 1210l270 234h379l-344 -234h-305z" />
    <glyph glyph-name="Uogonek" unicode="&#x172;" horiz-adv-x="1917" 
d="M959 -31q-799 0 -799 663v811h300v-806q0 -217 127 -325t372 -108t372 108t127 325v806h300v-811q0 -663 -799 -663zM850 1h226q-47 -27 -76 -65t-29 -79q0 -39 28.5 -58.5t71.5 -19.5q50 0 96 22l59 -145q-90 -52 -220 -52q-123 0 -198.5 54.5t-75.5 146.5
q0 113 118 196z" />
    <glyph glyph-name="uogonek" unicode="&#x173;" 
d="M685 -30q-259 0 -402 126.5t-143 371.5v599h289v-537q0 -172 91.5 -257.5t265.5 -85.5t265.5 85.5t91.5 257.5v537h289v-1067h-289v156q-62 -83 -177.5 -134.5t-280.5 -51.5zM1178 1h226q-47 -27 -76 -65t-29 -79q0 -39 28.5 -58.5t71.5 -19.5q50 0 96 22l59 -145
q-90 -52 -220 -52q-123 0 -198.5 54.5t-75.5 146.5q0 113 118 196z" />
    <glyph glyph-name="Wcircumflex" unicode="&#x174;" horiz-adv-x="2724" 
d="M554 0l-524 1444h318l419 -1148h2l405 1148h379l410 -1153h2l421 1153h308l-523 -1444h-396l-413 1178l-2 1l-410 -1179h-396zM848 1618l331 264h366l332 -264h-324l-191 148l-190 -148h-324z" />
    <glyph glyph-name="wcircumflex" unicode="&#x175;" horiz-adv-x="2326" 
d="M471 0l-446 1067h310l330 -805h1l349 805h313l355 -801h1l333 801h286l-447 -1067h-330l-364 821h-1l-358 -821h-332zM662 1210l331 234h341l331 -234h-311l-190 121l-191 -121h-311z" />
    <glyph glyph-name="Ycircumflex" unicode="&#x176;" horiz-adv-x="1856" 
d="M779 0v523l-771 921h359l457 -551l105 -131h2l104 131l454 551h358l-768 -921v-523h-300zM414 1618l331 264h366l332 -264h-324l-191 148l-190 -148h-324z" />
    <glyph glyph-name="ycircumflex" unicode="&#x177;" horiz-adv-x="1536" 
d="M209 -333v211h143q120 0 161.5 19t84.5 99l11 20l-605 1051h325l446 -793l463 793h302l-646 -1096q-61 -104 -105.5 -160t-104 -90.5t-124 -44t-176.5 -9.5h-175zM280 1210l331 234h341l331 -234h-311l-190 121l-191 -121h-311z" />
    <glyph glyph-name="Ydieresis" unicode="&#x178;" horiz-adv-x="1856" 
d="M779 0v523l-771 921h359l457 -551l105 -131h2l104 131l454 551h358l-768 -921v-523h-300zM440 1632v250h283v-250h-283zM1136 1632v250h283v-250h-283z" />
    <glyph glyph-name="Zacute" unicode="&#x179;" horiz-adv-x="1663" 
d="M80 0v236l1072 968h-1032v240h1434v-235l-1073 -969h1095v-240h-1496zM646 1618l313 264h386l-382 -264h-317z" />
    <glyph glyph-name="zacute" unicode="&#x17a;" horiz-adv-x="1433" 
d="M82 0v212l846 638h-819v217h1216v-212l-852 -638h878v-217h-1269zM557 1210l257 234h385l-338 -234h-304z" />
    <glyph glyph-name="Zdotaccent" unicode="&#x17b;" horiz-adv-x="1663" 
d="M80 0v236l1072 968h-1032v240h1434v-235l-1073 -969h1095v-240h-1496zM715 1632v250h283v-250h-283z" />
    <glyph glyph-name="zdotaccent" unicode="&#x17c;" horiz-adv-x="1433" 
d="M82 0v212l846 638h-819v217h1216v-212l-852 -638h878v-217h-1269zM611 1209v235h264v-235h-264z" />
    <glyph glyph-name="Zcaron" unicode="&#x17d;" horiz-adv-x="1663" 
d="M80 0v236l1072 968h-1032v240h1434v-235l-1073 -969h1095v-240h-1496zM341 1882h324l190 -148l191 148h324l-332 -264h-366z" />
    <glyph glyph-name="zcaron" unicode="&#x17e;" horiz-adv-x="1433" 
d="M82 0v212l846 638h-819v217h1216v-212l-852 -638h878v-217h-1269zM241 1444h311l191 -119l190 119h311l-331 -234h-341z" />
    <glyph glyph-name="uni01C5" unicode="&#x1c5;" horiz-adv-x="3306" 
d="M179 0v1444h683q154 0 288.5 -22t258 -75t211 -133.5t139.5 -206.5t52 -285v-2q0 -158 -52 -283t-139.5 -206t-211 -134t-258 -75t-288.5 -22h-683zM479 239h381q635 0 635 481v2q0 483 -635 483h-381v-966zM1956 0v212l846 638h-819v217h1216v-212l-852 -638h878v-217
h-1269zM2114 1444h311l191 -119l190 119h311l-331 -234h-341z" />
    <glyph glyph-name="uni01C6" unicode="&#x1c6;" horiz-adv-x="3095" 
d="M730 -30q-184 0 -329.5 65.5t-231.5 194.5t-86 304v2q0 174 86 303t231.5 194.5t329.5 65.5q174 0 297.5 -49t188.5 -127v521h289v-1444h-289v146q-65 -78 -188.5 -127t-297.5 -49zM808 181q65 0 125 12t114.5 39.5t94.5 67.5t64 100t24 134v2q0 73 -24 133t-64 100
t-94.5 67.5t-114.5 39.5t-125 12q-83 0 -156 -20t-133.5 -61t-96 -110.5t-35.5 -160.5v-2q0 -91 35.5 -161t96 -111t133.5 -61t156 -20zM1744 0v212l846 638h-819v217h1216v-212l-852 -638h878v-217h-1269zM1903 1444h311l191 -119l190 119h311l-331 -234h-341z" />
    <glyph glyph-name="uni01F2" unicode="&#x1f2;" horiz-adv-x="3306" 
d="M179 0v1444h683q154 0 288.5 -22t258 -75t211 -133.5t139.5 -206.5t52 -285v-2q0 -158 -52 -283t-139.5 -206t-211 -134t-258 -75t-288.5 -22h-683zM479 239h381q635 0 635 481v2q0 483 -635 483h-381v-966zM1956 0v212l846 638h-819v217h1216v-212l-852 -638h878v-217
h-1269z" />
    <glyph glyph-name="uni01F3" unicode="&#x1f3;" horiz-adv-x="3095" 
d="M730 -30q-184 0 -329.5 65.5t-231.5 194.5t-86 304v2q0 174 86 303t231.5 194.5t329.5 65.5q174 0 297.5 -49t188.5 -127v521h289v-1444h-289v146q-65 -78 -188.5 -127t-297.5 -49zM808 181q65 0 125 12t114.5 39.5t94.5 67.5t64 100t24 134v2q0 73 -24 133t-64 100
t-94.5 67.5t-114.5 39.5t-125 12q-83 0 -156 -20t-133.5 -61t-96 -110.5t-35.5 -160.5v-2q0 -91 35.5 -161t96 -111t133.5 -61t156 -20zM1744 0v212l846 638h-819v217h1216v-212l-852 -638h878v-217h-1269z" />
    <glyph glyph-name="uni0218" unicode="&#x218;" horiz-adv-x="1839" 
d="M943 -31q-358 0 -586.5 125.5t-275.5 352.5h329q36 -132 181 -193.5t365 -61.5q494 0 494 198v3q0 36 -12 64t-38.5 49t-61.5 36.5t-89.5 27t-113 19t-140.5 14.5l-252 28q-315 30 -467 135t-152 292v2q0 130 105 225.5t279 142.5t393 47t389.5 -50t278.5 -149t138 -238
h-329q-69 213 -496 213q-94 0 -172.5 -10t-142.5 -30.5t-100 -57t-36 -85.5v-2q0 -85 89 -130.5t308 -63.5l252 -29q137 -14 238 -33.5t187.5 -52t140 -77.5t83.5 -110t30 -150v-3q0 -151 -104 -253t-283.5 -148.5t-428.5 -46.5zM572 -362l215 264h312l-250 -264h-277z" />
    <glyph glyph-name="uni0219" unicode="&#x219;" horiz-adv-x="1495" 
d="M766 -31q-301 0 -484 92t-215 270h301q13 -49 49 -83.5t92.5 -53t121.5 -26.5t148 -8q351 0 351 132v2q0 64 -67 90.5t-231 39.5l-248 21q-250 19 -370 99t-120 225v2q0 98 79.5 173.5t223 116.5t327.5 41q183 0 321 -34.5t228 -109.5t112 -186h-301q-48 140 -363 140
q-162 0 -247 -32.5t-85 -94.5v-2q0 -56 59.5 -83t197.5 -37l258 -21q130 -11 221.5 -31t162 -56.5t105 -94.5t34.5 -139v-2q0 -166 -172 -258t-489 -92zM388 -362l215 264h312l-250 -264h-277z" />
    <glyph glyph-name="uni021A" unicode="&#x21a;" horiz-adv-x="1734" 
d="M717 0v1203h-686v241h1672v-241h-686v-1203h-300zM500 -362l215 264h312l-250 -264h-277z" />
    <glyph glyph-name="uni021B" unicode="&#x21b;" horiz-adv-x="1038" 
d="M708 0q-122 0 -197.5 15t-126 57t-70.5 111t-20 181v489h-260v214h260v358h289v-358h367v-214h-367v-458q0 -58 6.5 -90t29 -53.5t58.5 -28t101 -6.5h164v-217h-234zM249 -362l215 264h312l-250 -264h-277z" />
    <glyph glyph-name="uni0237" unicode="&#x237;" horiz-adv-x="603" 
d="M-110 -333v214h90q56 0 86.5 5.5t53 25.5t30.5 56t8 98v1001h289v-1016q0 -217 -95 -300.5t-329 -83.5h-133z" />
    <glyph glyph-name="uni02BC" unicode="&#x2bc;" horiz-adv-x="503" 
d="M446 1505l-106 -324h-282l140 324h248z" />
    <glyph glyph-name="circumflex" unicode="&#x2c6;" horiz-adv-x="1050" 
d="M24 1210l331 234h341l331 -234h-311l-190 121l-191 -121h-311z" />
    <glyph glyph-name="caron" unicode="&#x2c7;" horiz-adv-x="1050" 
d="M24 1444h311l191 -119l190 119h311l-331 -234h-341z" />
    <glyph glyph-name="uni02C9" unicode="&#x2c9;" horiz-adv-x="870" 
d="M37 1238v169h797v-169h-797z" />
    <glyph glyph-name="breve" unicode="&#x2d8;" horiz-adv-x="902" 
d="M451 1193q-177 0 -284.5 63.5t-129.5 193.5h220q16 -104 194 -104q179 0 195 104h220q-22 -130 -130 -193.5t-285 -63.5z" />
    <glyph glyph-name="dotaccent" unicode="&#x2d9;" horiz-adv-x="337" 
d="M37 1209v235h264v-235h-264z" />
    <glyph glyph-name="ring" unicode="&#x2da;" horiz-adv-x="553" 
d="M278 1181q-99 0 -170 66t-71 166q0 101 70.5 167t170.5 66q99 0 169.5 -66t70.5 -167q0 -100 -70.5 -166t-169.5 -66zM278 1301q48 0 78.5 31.5t30.5 80.5t-30.5 80.5t-78.5 31.5q-49 0 -79.5 -31t-30.5 -81t30.5 -81t79.5 -31z" />
    <glyph glyph-name="ogonek" unicode="&#x2db;" horiz-adv-x="567" 
d="M155 1h226q-47 -27 -76 -65t-29 -79q0 -39 28.5 -58.5t71.5 -19.5q50 0 96 22l59 -145q-90 -52 -220 -52q-123 0 -198.5 54.5t-75.5 146.5q0 113 118 196z" />
    <glyph glyph-name="tilde" unicode="&#x2dc;" horiz-adv-x="1017" 
d="M37 1208q6 126 73.5 200t185.5 74q58 0 118 -15t99.5 -33.5t83.5 -33.5t75 -15q51 0 73 22t25 72h212q-7 -125 -74.5 -199.5t-184.5 -74.5q-75 0 -148.5 24.5t-132 49t-95.5 24.5q-51 0 -72.5 -22t-26.5 -73h-211z" />
    <glyph glyph-name="hungarumlaut" unicode="&#x2dd;" horiz-adv-x="1296" 
d="M37 1210l270 234h379l-345 -234h-304zM611 1210l270 234h379l-344 -234h-305z" />
    <glyph glyph-name="uni030C" unicode="&#x30c;" horiz-adv-x="359" 
d="M58 1505h274l-85 -336h-189v336z" />
    <glyph glyph-name="uni0326" unicode="&#x326;" horiz-adv-x="600" 
d="M37 -362l215 264h312l-250 -264h-277z" />
    <glyph glyph-name="uni0327" unicode="&#x327;" horiz-adv-x="739" 
d="M37 1241l350 264h316l-298 -264h-368z" />
    <glyph glyph-name="uni0394" unicode="&#x394;" horiz-adv-x="1807" 
d="M6 0l713 1506h370l713 -1506h-1796zM402 218h1004l-502 1089z" />
    <glyph glyph-name="uni03A9" unicode="&#x3a9;" horiz-adv-x="2123" 
d="M109 0v226h437q-188 96 -300.5 252t-112.5 357v3q0 202 118.5 361t330.5 248t480 89t480 -89t330.5 -248t118.5 -361v-3q0 -201 -112.5 -357t-300.5 -252h437v-226h-809v217q102 42 186.5 98.5t150.5 129.5t103 166t37 198v4q0 150 -78.5 262.5t-219 172t-323.5 59.5
t-323.5 -59.5t-219 -172t-78.5 -262.5v-4q0 -105 37 -198t103 -166t150 -129.5t186 -98.5v-217h-808z" />
    <glyph glyph-name="uni03BC" unicode="&#x3bc;" 
d="M140 -333v1401h289v-537q0 -172 91.5 -257.5t265.5 -85.5t265.5 85.5t91.5 257.5v537h289v-1068h-289v157q-60 -81 -173.5 -132.5t-273.5 -52.5q-160 0 -267 55v-360h-289z" />
    <glyph glyph-name="pi" unicode="&#x3c0;" horiz-adv-x="1767" 
d="M290 0v844h-248v223h1631v-223h-248v-418q0 -121 48 -165.5t161 -44.5h39v-216h-109q-221 0 -324.5 86.5t-103.5 290.5v467h-557v-844h-289z" />
    <glyph glyph-name="Wgrave" unicode="&#x1e80;" horiz-adv-x="2724" 
d="M554 0l-524 1444h318l419 -1148h2l405 1148h379l410 -1153h2l421 1153h308l-523 -1444h-396l-413 1178l-2 1l-410 -1179h-396zM1259 1618l-381 264h386l313 -264h-318z" />
    <glyph glyph-name="wgrave" unicode="&#x1e81;" horiz-adv-x="2326" 
d="M471 0l-446 1067h310l330 -805h1l349 805h313l355 -801h1l333 801h286l-447 -1067h-330l-364 821h-1l-358 -821h-332zM1049 1210l-330 234h385l258 -234h-313z" />
    <glyph glyph-name="Wacute" unicode="&#x1e82;" horiz-adv-x="2724" 
d="M554 0l-524 1444h318l419 -1148h2l405 1148h379l410 -1153h2l421 1153h308l-523 -1444h-396l-413 1178l-2 1l-410 -1179h-396zM1153 1618l313 264h386l-382 -264h-317z" />
    <glyph glyph-name="wacute" unicode="&#x1e83;" horiz-adv-x="2326" 
d="M471 0l-446 1067h310l330 -805h1l349 805h313l355 -801h1l333 801h286l-447 -1067h-330l-364 821h-1l-358 -821h-332zM979 1210l257 234h385l-338 -234h-304z" />
    <glyph glyph-name="Wdieresis" unicode="&#x1e84;" horiz-adv-x="2724" 
d="M554 0l-524 1444h318l419 -1148h2l405 1148h379l410 -1153h2l421 1153h308l-523 -1444h-396l-413 1178l-2 1l-410 -1179h-396zM874 1632v250h283v-250h-283zM1570 1632v250h283v-250h-283z" />
    <glyph glyph-name="wdieresis" unicode="&#x1e85;" horiz-adv-x="2326" 
d="M471 0l-446 1067h310l330 -805h1l349 805h313l355 -801h1l333 801h286l-447 -1067h-330l-364 821h-1l-358 -821h-332zM703 1210v234h264v-234h-264zM1363 1210v234h263v-234h-263z" />
    <glyph glyph-name="endash" unicode="&#x2013;" horiz-adv-x="1416" 
d="M139 429v244h1138v-244h-1138z" />
    <glyph glyph-name="emdash" unicode="&#x2014;" horiz-adv-x="2389" 
d="M139 429v244h2111v-244h-2111z" />
    <glyph glyph-name="quoteleft" unicode="&#x2018;" horiz-adv-x="605" 
d="M535 1444l-143 -525h-304l193 525h254z" />
    <glyph glyph-name="quoteright" unicode="&#x2019;" horiz-adv-x="596" 
d="M98 919l143 525h303l-192 -525h-254z" />
    <glyph glyph-name="quotesinglbase" unicode="&#x201a;" horiz-adv-x="601" 
d="M37 -230l142 525h304l-193 -525h-253z" />
    <glyph glyph-name="quotedblleft" unicode="&#x201c;" horiz-adv-x="1073" 
d="M535 1444l-143 -525h-304l193 525h254zM1002 1444l-142 -525h-304l193 525h253z" />
    <glyph glyph-name="quotedblright" unicode="&#x201d;" horiz-adv-x="1064" 
d="M566 919l143 525h303l-192 -525h-254zM98 919l143 525h303l-192 -525h-254z" />
    <glyph glyph-name="quotedblbase" unicode="&#x201e;" horiz-adv-x="1069" 
d="M37 -230l142 524h304l-193 -524h-253zM505 -230l142 524h304l-193 -524h-253z" />
    <glyph glyph-name="dagger" unicode="&#x2020;" horiz-adv-x="1291" 
d="M515 -224v1066h-459v235h459v428h262v-428h458v-235h-458v-1066h-262z" />
    <glyph glyph-name="daggerdbl" unicode="&#x2021;" horiz-adv-x="1383" 
d="M561 -224v434h-458v235h458v396h-458v236h458v428h262v-428h458v-236h-458v-396h458v-235h-458v-434h-262z" />
    <glyph glyph-name="bullet" unicode="&#x2022;" horiz-adv-x="1070" 
d="M167 540q0 150 106.5 256t253.5 106q160 0 268.5 -105.5t108.5 -256.5q0 -160 -108 -267.5t-269 -107.5q-148 0 -254 108.5t-106 266.5z" />
    <glyph glyph-name="ellipsis" unicode="&#x2026;" horiz-adv-x="1822" 
d="M1381 0v295h302v-295h-302zM759 0v295h302v-295h-302zM138 0v295h302v-295h-302z" />
    <glyph glyph-name="guilsinglleft" unicode="&#x2039;" horiz-adv-x="813" 
d="M391 190l-301 382l301 381h305l-294 -381l294 -382h-305z" />
    <glyph glyph-name="guilsinglright" unicode="&#x203a;" horiz-adv-x="813" 
d="M723 572l-301 -382h-304l293 382l-293 381h304z" />
    <glyph glyph-name="fraction" unicode="&#x2044;" horiz-adv-x="579" 
d="M-442 0l1188 1505h267l-1188 -1505h-267z" />
    <glyph glyph-name="Euro" unicode="&#x20ac;" horiz-adv-x="2252" 
d="M1315 -31q-325 0 -546.5 132.5t-296.5 375.5v1h-375l97 181h246q-6 77 3 152h-346l97 180h290v1q83 232 300 357.5t531 125.5q211 0 382 -55.5t289 -169t156 -273.5h-311q-45 144 -181 210.5t-333 66.5q-180 0 -307 -66.5t-191 -195.5v-1h688l-97 -180h-652
q-10 -73 -4 -152h753l-97 -181h-612v-1q60 -140 192.5 -212.5t326.5 -72.5q198 0 333.5 65.5t180.5 209.5h311q-38 -160 -156 -273.5t-289 -169t-382 -55.5z" />
    <glyph glyph-name="uni20BF" unicode="&#x20bf;" horiz-adv-x="1834" 
d="M179 0v1444h301v309h253v-309h247v309h253v-319q217 -22 318.5 -114.5t101.5 -241.5v-2q0 -106 -51 -184.5t-136 -121.5v-1q123 -38 197.5 -123.5t74.5 -221.5v-1q0 -379 -505 -416v-259h-253v252h-247v-252h-253v252h-301zM479 856h616q252 0 252 182v1q0 93 -64 133.5
t-188 40.5h-616v-357zM479 231h632q165 0 239 47t74 148v2q0 100 -72 148.5t-226 48.5h-647v-394z" />
    <glyph glyph-name="uni2113" unicode="&#x2113;" horiz-adv-x="1208" 
d="M874 -15q-83 0 -153.5 9.5t-142.5 36t-124.5 69.5t-91.5 113.5t-53 164.5q-91 -41 -211 -90l-78 189q139 56 282 122v433q0 255 123.5 378.5t340.5 123.5q197 0 313 -91.5t116 -255.5q0 -194 -150 -356.5t-469 -326.5q3 -69 23 -120.5t50 -82t74.5 -49t89 -25t99.5 -6.5
q89 0 189 14v-235q-127 -15 -227 -15zM576 742q183 109 261.5 210.5t78.5 211.5q0 79 -42.5 125t-116.5 46q-181 0 -181 -271v-322z" />
    <glyph glyph-name="trademark" unicode="&#x2122;" horiz-adv-x="2569" 
d="M461 575v705h-401v164h1001v-164h-401v-705h-199zM1189 575v869h284l316 -695l319 695h283v-869h-199l2 647h-1l-301 -647h-205l-300 647h-1l1 -183v-464h-198z" />
    <glyph glyph-name="uni2126" unicode="&#x2126;" horiz-adv-x="2124" 
d="M110 0v218h437q-187 95 -300 255.5t-113 361.5v4q0 201 118.5 360t330.5 248t480 89t480 -89t330.5 -248t118.5 -360v-4q0 -201 -113 -361.5t-299 -255.5h436v-218h-808v209q212 87 344 241.5t132 359.5v3q0 150 -78.5 262.5t-219 172t-323.5 59.5t-323.5 -59.5
t-219 -172t-78.5 -262.5v-3q0 -105 37 -199.5t103 -169t150.5 -132.5t185.5 -100v-209h-808z" />
    <glyph glyph-name="estimated" unicode="&#x212e;" horiz-adv-x="1939" 
d="M1864 731h-1405v-370q0 -86 76.5 -165t208 -128t280.5 -49q194 0 374 82.5t287 204.5h74q-130 -154 -316 -244.5t-422 -90.5q-188 0 -355.5 62t-286 167t-187.5 249t-69 304q0 213 116 392.5t315.5 284t435.5 104.5q177 0 338.5 -62t279 -166t187 -249t69.5 -304v-22z
M459 1164v-390h1068v390q0 124 -149.5 223t-387.5 99q-121 0 -223.5 -28.5t-168 -74.5t-102.5 -103t-37 -116z" />
    <glyph glyph-name="arrowleft" unicode="&#x2190;" horiz-adv-x="2218" 
d="M737 -115l-649 650l649 649h333l-532 -527h1592v-245h-1592l532 -527h-333z" />
    <glyph glyph-name="arrowup" unicode="&#x2191;" horiz-adv-x="1474" 
d="M613 -278v1371l-525 -526v330l650 649l649 -649v-330l-524 526v-1371h-250z" />
    <glyph glyph-name="arrowright" unicode="&#x2192;" horiz-adv-x="2218" 
d="M2159 535l-649 -650h-333l532 527h-1592v245h1592l-532 527h333z" />
    <glyph glyph-name="arrowdown" unicode="&#x2193;" horiz-adv-x="1474" 
d="M891 1506v-1371l525 526v-330l-650 -649l-649 649v330l524 -526v1371h250z" />
    <glyph glyph-name="uni2196" unicode="&#x2196;" horiz-adv-x="1705" 
d="M88 -31v1098h1096l1 -232l-692 1l1125 -1127l-172 -174l-1127 1128l1 -694h-232z" />
    <glyph glyph-name="uni2197" unicode="&#x2197;" horiz-adv-x="1705" 
d="M1647 1067v-1098h-232l1 694l-1127 -1128l-172 174l1125 1127l-692 -1l1 232h1096z" />
    <glyph glyph-name="uni2198" unicode="&#x2198;" horiz-adv-x="1705" 
d="M1647 634v-1098h-1096l-1 232l692 -1l-1125 1127l172 174l1127 -1128l-1 694h232z" />
    <glyph glyph-name="uni2199" unicode="&#x2199;" horiz-adv-x="1705" 
d="M88 -464v1098h232l-1 -694l1127 1128l172 -174l-1125 -1127l692 1l-1 -232h-1096z" />
    <glyph glyph-name="uni21B0" unicode="&#x21b0;" horiz-adv-x="2218" 
d="M87 535l650 649h333l-533 -527h1593v-1051h-262v806h-1331l533 -527h-333z" />
    <glyph glyph-name="uni21B1" unicode="&#x21b1;" horiz-adv-x="2218" 
d="M1510 1184l650 -649l-650 -650h-333l533 527h-1331v-806h-262v1051h1593l-533 527h333z" />
    <glyph glyph-name="uni21B2" unicode="&#x21b2;" horiz-adv-x="2218" 
d="M737 -115l-650 650l650 649h333l-533 -527h1331v847h262v-1092h-1593l533 -527h-333z" />
    <glyph glyph-name="uni21B3" unicode="&#x21b3;" horiz-adv-x="2218" 
d="M2160 535l-650 -650h-333l533 527h-1593v1092h262v-847h1331l-533 527h333z" />
    <glyph glyph-name="partialdiff" unicode="&#x2202;" horiz-adv-x="1627" 
d="M815 -31q-333 0 -533.5 156.5t-200.5 406.5v4q0 110 40.5 203t108 157.5t158 110t189 66.5t201.5 21q139 0 239 -42l1 2q-105 110 -287.5 205.5t-400.5 167.5l102 222q186 -62 349.5 -141.5t305 -181.5t243 -216.5t159.5 -251.5t58 -282v-3q0 -284 -197.5 -444
t-534.5 -160zM814 176q192 0 311.5 96t119.5 262v3q0 165 -119.5 260.5t-311.5 95.5q-193 0 -312.5 -95.5t-119.5 -260.5v-3q0 -166 120 -262t312 -96z" />
    <glyph glyph-name="uni2206" unicode="&#x2206;" horiz-adv-x="1879" 
d="M42 0l713 1506h370l712 -1506h-1795zM437 218h1005l-502 1089z" />
    <glyph glyph-name="product" unicode="&#x220f;" horiz-adv-x="1955" 
d="M179 -197v1702h1597v-1702h-289v1463h-1019v-1463h-289z" />
    <glyph glyph-name="summation" unicode="&#x2211;" horiz-adv-x="1555" 
d="M79 -193v221l664 628l-664 629v220h1396v-234h-994l642 -615l-642 -615l994 1v-235h-1396z" />
    <glyph glyph-name="minus" unicode="&#x2212;" horiz-adv-x="1537" 
d="M147 608v244h1243v-244h-1243z" />
    <glyph glyph-name="uni2215" unicode="&#x2215;" horiz-adv-x="579" 
d="M-442 0l1188 1505h267l-1188 -1505h-267z" />
    <glyph glyph-name="uni2219" unicode="&#x2219;" horiz-adv-x="793" 
d="M245 405v295h302v-295h-302z" />
    <glyph glyph-name="radical" unicode="&#x221a;" horiz-adv-x="1836" 
d="M853 0l-447 843h-376v224h575l394 -771h3l555 1209h311l-701 -1505h-314z" />
    <glyph glyph-name="infinity" unicode="&#x221e;" horiz-adv-x="2167" 
d="M561 355q-190 0 -315 105.5t-125 270.5t125 270.5t315 105.5q132 0 254.5 -61.5t268.5 -172.5q143 110 266.5 172t255.5 62q190 0 315 -105.5t125 -270.5t-125 -270.5t-315 -105.5q-132 0 -256 62t-266 173q-145 -111 -268 -173t-255 -62zM575 579q75 0 153 39.5
t176 112.5q-98 73 -176 112.5t-153 39.5q-78 0 -129 -42t-51 -110t51 -110t129 -42zM1263 731q98 -73 176 -112.5t153 -39.5q78 0 129 42t51 110t-51 110t-129 42q-75 0 -153 -39.5t-176 -112.5z" />
    <glyph glyph-name="integral" unicode="&#x222b;" horiz-adv-x="975" 
d="M-34 -417l38 216h37q107 0 159.5 70.5t76.5 237.5l132 905q18 125 52.5 214.5t93 153t144.5 94.5t204 31h101l-37 -216h-38q-107 0 -159.5 -70.5t-76.5 -237.5l-132 -904q-18 -126 -52.5 -215t-92.5 -153t-144.5 -95t-204.5 -31h-101z" />
    <glyph glyph-name="approxequal" unicode="&#x2248;" horiz-adv-x="1621" 
d="M350 258l-217 82q56 152 158.5 236.5t243.5 84.5q70 0 135 -20t114.5 -48t95 -56t97 -48t101.5 -20q74 0 119 42.5t81 123.5l217 -83q-56 -152 -159 -236.5t-244 -84.5q-71 0 -136 20t-114.5 48t-95.5 56t-96.5 48t-100.5 20q-74 0 -119 -42.5t-80 -122.5zM350 771
l-217 82q56 152 158.5 236.5t243.5 84.5q70 0 135 -20t114.5 -48t95 -56t97 -48t101.5 -20q74 0 119 42.5t81 123.5l217 -83q-56 -152 -159 -236.5t-244 -84.5q-71 0 -136 20t-114.5 48t-95.5 56t-96.5 48t-100.5 20q-74 0 -119 -42.5t-80 -122.5z" />
    <glyph glyph-name="notequal" unicode="&#x2260;" horiz-adv-x="1601" 
d="M154 850v245h710l155 296h252l-155 -296h332v-245h-457l-126 -236h583v-244h-708l-155 -296h-252l155 296h-334v244h459l126 236h-585z" />
    <glyph glyph-name="lessequal" unicode="&#x2264;" horiz-adv-x="1451" 
d="M110 775v241l1204 470v-263l-882 -327v-1l882 -326v-263zM110 0v237h1204v-237h-1204z" />
    <glyph glyph-name="greaterequal" unicode="&#x2265;" horiz-adv-x="1451" 
d="M1343 1016v-241l-1204 -469v263l881 326v1l-881 327v263zM1343 237v-237h-1204v237h1204z" />
    <glyph glyph-name="lozenge" unicode="&#x25ca;" horiz-adv-x="1589" 
d="M794 239h2l373 514l-373 513h-2l-373 -513zM651 0l-553 753l553 752h288l553 -752l-553 -753h-288z" />
    <glyph glyph-name="uniF8FF" unicode="&#xf8ff;" horiz-adv-x="654" 
 />
    <glyph glyph-name="acute.case" horiz-adv-x="772" 
d="M37 1618l313 264h386l-382 -264h-317z" />
    <glyph glyph-name="dieresis.case" horiz-adv-x="1051" 
d="M37 1632v250h283v-250h-283zM733 1632v250h283v-250h-283z" />
    <glyph glyph-name="caron.case" horiz-adv-x="1102" 
d="M37 1882h324l190 -148l191 148h324l-332 -264h-366z" />
    <glyph glyph-name="ring.case" horiz-adv-x="553" 
d="M277 1528q-99 0 -169.5 66t-70.5 166t70.5 166.5t169.5 66.5t169.5 -66.5t70.5 -166.5t-70.5 -166t-169.5 -66zM277 1651q47 0 77 30t30 79t-30 79.5t-77 30.5t-77 -30.5t-30 -79.5t30 -79t77 -30z" />
    <glyph glyph-name="circumflex.case" horiz-adv-x="1102" 
d="M37 1618l331 264h366l332 -264h-324l-191 148l-190 -148h-324z" />
    <glyph glyph-name="tilde.case" horiz-adv-x="1017" 
d="M37 1618q6 125 73.5 198.5t185.5 73.5q58 0 118 -15t99.5 -33t83.5 -33t75 -15q51 0 73 21.5t25 71.5h212q-7 -125 -74.5 -199t-184.5 -74q-59 0 -118.5 15t-99.5 33.5t-84 33.5t-74 15q-51 0 -72.5 -21.5t-26.5 -71.5h-211z" />
    <glyph glyph-name="grave.case" horiz-adv-x="772" 
d="M418 1618l-381 264h386l313 -264h-318z" />
    <glyph glyph-name="macron.case" horiz-adv-x="920" 
d="M37 1643v175h847v-175h-847z" />
    <glyph glyph-name="a_uni0331.3" horiz-adv-x="1102" 
d="M37 1882h324l190 -148l191 148h324l-332 -264h-366z" />
    <glyph glyph-name="dotaccent.case" horiz-adv-x="355" 
d="M37 1632v250h283v-250h-283z" />
    <glyph glyph-name="breve.case" horiz-adv-x="902" 
d="M451 1605q-173 0 -282.5 72t-131.5 205h220q9 -59 61.5 -90.5t132.5 -31.5t133 31.5t62 90.5h220q-22 -133 -132 -205t-283 -72z" />
    <glyph glyph-name="commaaccent.salt" horiz-adv-x="600" 
d="M37 -362l215 264h312l-250 -264h-277z" />
    <glyph glyph-name="hungarumlaut.case" horiz-adv-x="1351" 
d="M37 1618l313 264h386l-382 -264h-317zM625 1618l313 264h385l-381 -264h-317z" />
    <glyph glyph-name="emdash.case" horiz-adv-x="2200" 
d="M147 608v244h1907v-244h-1907z" />
    <glyph glyph-name="endash.case" horiz-adv-x="1432" 
d="M147 608v244h1139v-244h-1139z" />
    <glyph glyph-name="periodcentered.case" horiz-adv-x="595" 
d="M147 583v295h303v-295h-303z" />
    <glyph glyph-name="hyphen.case" horiz-adv-x="1038" 
d="M147 608v244h744v-244h-744z" />
    <glyph glyph-name="braceleft.case" horiz-adv-x="805" 
d="M561 -167q-183 0 -262.5 73t-79.5 256v267q0 46 -6.5 77.5t-15.5 51t-32.5 34t-42.5 22t-61 20.5v178q51 16 73.5 25.5t46 31.5t31 56.5t7.5 91.5v266q0 182 79.5 255t262.5 73h144v-217h-95q-88 0 -110 -24.5t-22 -123.5v-220q0 -133 -41 -198.5t-147 -103.5v-2
q106 -38 147 -103.5t41 -197.5v-222q0 -100 21.5 -124t110.5 -24h95v-218h-144z" />
    <glyph glyph-name="braceright.case" horiz-adv-x="805" 
d="M83 -167v218h94q90 0 111.5 24t21.5 124v222q0 132 41 197.5t148 103.5v2q-107 38 -148 103.5t-41 198.5v220q0 99 -22 123.5t-111 24.5h-94v217h144q184 0 263 -72.5t79 -255.5v-266q0 -38 3.5 -66t13.5 -48t19.5 -32.5t31.5 -24t38.5 -17.5t51.5 -17v-178
q-52 -16 -74 -25.5t-45.5 -31.5t-31 -56.5t-7.5 -91.5v-267q0 -183 -79 -256t-263 -73h-144z" />
    <glyph glyph-name="bracketleft.case" horiz-adv-x="828" 
d="M177 -167v1778h594v-217h-332v-1343h332v-218h-594z" />
    <glyph glyph-name="bracketright.case" horiz-adv-x="828" 
d="M57 -167v218h333v1343h-333v217h594v-1778h-594z" />
    <glyph glyph-name="parenleft.case" horiz-adv-x="690" 
d="M387 -167q-124 163 -207.5 412t-83.5 478t83.5 477t207.5 411h253q-129 -184 -201.5 -419t-72.5 -469q0 -235 72 -470t202 -420h-253z" />
    <glyph glyph-name="parenright.case" horiz-adv-x="690" 
d="M51 -167q130 185 202 420t72 470q0 234 -72.5 469t-201.5 419h253q124 -163 207.5 -411t83.5 -477t-83.5 -478t-207.5 -412h-253z" />
    <glyph glyph-name="colon.case" horiz-adv-x="578" 
d="M138 197v295h302v-295h-302zM138 970v295h302v-295h-302z" />
    <glyph glyph-name="exclamdown.case" horiz-adv-x="641" 
d="M513 1505v-295h-302v295h302zM470 1039l39 -486v-493h-292v493l39 486h214z" />
    <glyph glyph-name="questiondown.case" horiz-adv-x="1613" 
d="M1038 1505v-295h-302v295h302zM854 243q214 0 321.5 63.5t111.5 206.5h309q-10 -232 -209 -357.5t-535 -125.5q-356 0 -550 100.5t-194 277.5v2q0 116 77.5 194.5t222.5 137.5l111 48q71 31 107.5 50.5t67 48t41.5 63t12 87.5h280q0 -153 -65.5 -234t-234.5 -151
l-111 -48q-109 -45 -152.5 -84.5t-43.5 -99.5v-1q0 -85 110 -131.5t324 -46.5z" />
    <glyph glyph-name="guillemotleft.case" horiz-adv-x="1357" 
d="M402 341l-300 382l300 381h305l-293 -381l293 -382h-305zM927 341l-300 382l300 381h305l-294 -381l294 -382h-305z" />
    <glyph glyph-name="guillemotright.case" horiz-adv-x="1358" 
d="M1256 723l-301 -382h-304l293 382l-293 381h304zM731 723l-301 -382h-304l293 382l-293 381h304z" />
    <glyph glyph-name="guilsinglleft.case" horiz-adv-x="831" 
d="M400 348l-301 382l301 381h305l-294 -381l294 -382h-305z" />
    <glyph glyph-name="guilsinglright.case" horiz-adv-x="831" 
d="M733 730l-301 -382h-305l294 382l-294 381h305z" />
    <glyph glyph-name="bullet.case" horiz-adv-x="1078" 
d="M170 731q0 150 106.5 256.5t254.5 106.5q160 0 268.5 -105.5t108.5 -257.5q0 -160 -108 -267.5t-269 -107.5q-149 0 -255 108.5t-106 266.5z" />
    <glyph glyph-name="at.case" horiz-adv-x="2132" 
d="M985 474q145 0 246 89.5t102 227.5v3q0 103 -71 162.5t-198 59.5q-150 0 -241 -91t-91 -221v-3q1 -109 67.5 -168t185.5 -59zM929 316q-83 0 -156 23.5t-131.5 68.5t-93 120t-34.5 171v3q0 93 37 178.5t103.5 152t166 106t215.5 39.5t204.5 -47t126.5 -121l19 131h189
l-62 -442q-17 -120 5 -180.5t105 -60.5q103 0 179.5 100.5t76.5 271.5v3q0 173 -97 294t-264 178.5t-390 57.5q-185 0 -342 -51.5t-264 -141t-166.5 -211.5t-59.5 -261v-4q0 -266 182.5 -420t503.5 -154q250 0 474 91l60 -161q-111 -48 -253 -74t-282 -26q-262 0 -464.5 90
t-316 260t-113.5 395v3q0 139 51.5 266t146.5 228t223.5 176.5t289.5 116t337 40.5q156 0 294 -26t256 -80.5t203 -134t133 -192.5t48 -250v-3q0 -127 -41 -230.5t-108 -168t-149 -99.5t-168 -35q-111 0 -179 53t-83 144q-62 -91 -171.5 -139t-240.5 -48z" />
    <glyph glyph-name="uni03BC.1" 
d="M140 -333v1401h289v-537q0 -172 91.5 -257.5t265.5 -85.5t265.5 85.5t91.5 257.5v537h289v-1068h-289v157q-60 -81 -173.5 -132.5t-273.5 -52.5q-160 0 -267 55v-360h-289z" />
    <glyph glyph-name="uni000D.1" horiz-adv-x="62" 
 />
    </font>
</defs>
</svg>
