<?xml version="1.0" standalone="no"?>
<!DOCTYPE svg PUBLIC "-//W3C//DTD SVG 1.1//EN" "http://www.w3.org/Graphics/SVG/1.1/DTD/svg11.dtd" >
<svg xmlns="http://www.w3.org/2000/svg" xmlns:xlink="http://www.w3.org/1999/xlink" version="1.1">
<metadata>
Created by FontForge 20201107 at Tue Sep 26 10:11:04 2023
 By 
(c)newglyph 2023
</metadata>
<defs>
<font id="BarlowCondensedUltraExp-Light" horiz-adv-x="2508" >
  <font-face 
    font-family="BarlowCondensed UltraExp Light"
    font-weight="300"
    font-stretch="normal"
    units-per-em="2048"
    panose-1="0 0 0 0 0 0 0 0 0 0"
    ascent="1638"
    descent="-410"
    x-height="1067"
    cap-height="1444"
    bbox="-532 -655 3880 1992"
    underline-thickness="102"
    underline-position="-256"
    unicode-range="U+000D-FB04"
  />
<missing-glyph horiz-adv-x="1034" 
d="M100 0v1444h834v-1444h-834zM519 768l338 629h-677zM149 80l343 637l-343 637v-1274zM886 84v1266l-340 -633zM185 47h667l-333 619z" />
    <glyph glyph-name="f_f" unicode="ff" horiz-adv-x="2455" 
d="M401 0v920h-385v147h385v24q0 197 109 275t369 78h313v-148h-309q-50 0 -82 -1.5t-66.5 -5.5t-54.5 -13t-39.5 -23.5t-29 -37t-15.5 -53t-6 -71.5v-24h602v-147h-602v-920h-189zM1657 0v920h-385v147h385v24q0 197 109 275t369 78h313v-148h-309q-50 0 -82 -1.5
t-66.5 -5.5t-54.5 -13t-39.5 -23.5t-29 -37t-15.5 -53t-6 -71.5v-24h602v-147h-602v-920h-189z" />
    <glyph glyph-name="fi" unicode="fi" horiz-adv-x="1829" 
d="M401 0v920h-385v147h385v24q0 197 109 275t369 78h313v-148h-309q-50 0 -82 -1.5t-66.5 -5.5t-54.5 -13t-39.5 -23.5t-29 -37t-15.5 -53t-6 -71.5v-24h602v-147h-602v-920h-189zM1444 0v1067h189v-1067h-189zM1444 1215v229h189v-229h-189z" />
    <glyph glyph-name="fl" unicode="fl" horiz-adv-x="1829" 
d="M401 0v920h-385v147h385v24q0 197 109 275t369 78h313v-148h-309q-50 0 -82 -1.5t-66.5 -5.5t-54.5 -13t-39.5 -23.5t-29 -37t-15.5 -53t-6 -71.5v-24h602v-147h-602v-920h-189zM1444 0v1444h189v-1444h-189z" />
    <glyph glyph-name="f_f_i" unicode="ffi" horiz-adv-x="3085" 
d="M401 0v920h-385v147h385v24q0 197 109 275t369 78h313v-148h-309q-50 0 -82 -1.5t-66.5 -5.5t-54.5 -13t-39.5 -23.5t-29 -37t-15.5 -53t-6 -71.5v-24h602v-147h-602v-920h-189zM1657 0v920h-385v147h385v24q0 197 109 275t369 78h313v-148h-309q-50 0 -82 -1.5
t-66.5 -5.5t-54.5 -13t-39.5 -23.5t-29 -37t-15.5 -53t-6 -71.5v-24h602v-147h-602v-920h-189zM2699 0v1067h189v-1067h-189zM2699 1215v229h189v-229h-189z" />
    <glyph glyph-name="f_f_l" unicode="ffl" horiz-adv-x="3085" 
d="M401 0v920h-385v147h385v24q0 197 109 275t369 78h313v-148h-309q-50 0 -82 -1.5t-66.5 -5.5t-54.5 -13t-39.5 -23.5t-29 -37t-15.5 -53t-6 -71.5v-24h602v-147h-602v-920h-189zM1657 0v920h-385v147h385v24q0 197 109 275t369 78h313v-148h-309q-50 0 -82 -1.5
t-66.5 -5.5t-54.5 -13t-39.5 -23.5t-29 -37t-15.5 -53t-6 -71.5v-24h602v-147h-602v-920h-189zM2699 0v1444h189v-1444h-189z" />
    <glyph glyph-name=".notdef" horiz-adv-x="1034" 
d="M100 0v1444h834v-1444h-834zM519 768l338 629h-677zM149 80l343 637l-343 637v-1274zM886 84v1266l-340 -633zM185 47h667l-333 619z" />
    <glyph glyph-name="uni0000" horiz-adv-x="0" 
 />
    <glyph glyph-name="uni0000" horiz-adv-x="0" 
 />
    <glyph glyph-name="uni000D" unicode="&#xd;" horiz-adv-x="761" 
 />
    <glyph glyph-name="space" unicode=" " horiz-adv-x="761" 
 />
    <glyph glyph-name="exclam" unicode="!" horiz-adv-x="626" 
d="M213 0v242h201v-242h-201zM244 427l-25 448v569h189v-569l-26 -448h-138z" />
    <glyph glyph-name="quotedbl" unicode="&#x22;" horiz-adv-x="1121" 
d="M758 1444h194v-81l-19 -401h-156l-19 401v81zM170 1444h194v-81l-19 -401h-156l-19 401v81z" />
    <glyph glyph-name="numbersign" unicode="#" horiz-adv-x="1438" 
d="M302 0l56 431h-264l17 134h264l51 386h-264l17 135h264l55 419h138l-54 -419h355l54 419h139l-55 -419h271l-19 -135h-269l-50 -386h269l-18 -134h-269l-56 -431h-138l56 431h-356l-56 -431h-138zM514 565h356l49 386h-355z" />
    <glyph glyph-name="dollar" unicode="$" horiz-adv-x="2239" 
d="M1034 -252v227q-184 8 -338 39.5t-280 88t-209.5 144.5t-113.5 202h224q97 -318 849 -318q777 0 777 267v3q0 72 -43 120t-138 77.5t-221 43.5t-318 21l-325 11q-386 14 -567.5 114t-181.5 282v1q0 78 46.5 142.5t128 110t194 78t242 49t274.5 19.5v226h172v-228
q175 -7 323.5 -37.5t265.5 -83.5t194.5 -131.5t105.5 -176.5h-225q-26 73 -100 127.5t-182 85.5t-232.5 46t-268.5 15q-152 0 -278 -12t-231.5 -38.5t-165 -74.5t-59.5 -113v-2q0 -74 58.5 -122t195.5 -76.5t364 -35.5l323 -11q168 -6 295 -21.5t236 -45.5t178 -75.5
t107.5 -113.5t38.5 -158v-3q0 -113 -69 -197.5t-198 -135.5t-296.5 -76.5t-379.5 -28.5v-225h-172z" />
    <glyph glyph-name="percent" unicode="%" horiz-adv-x="2737" 
d="M588 619q-145 0 -263 54t-186 151.5t-68 220.5v2q0 123 68 220.5t186 151t263 53.5t263 -53.5t186.5 -151t68.5 -220.5v-2q0 -123 -68.5 -220.5t-186.5 -151.5t-263 -54zM588 735q150 0 250.5 81.5t100.5 228.5v2q0 147 -100.5 228t-250.5 81t-249.5 -81t-99.5 -228v-2
q0 -147 99.5 -228.5t249.5 -81.5zM791 0l963 1444h190l-962 -1444h-191zM2148 -27q-145 0 -263 53.5t-186.5 151t-68.5 220.5v2q0 123 68.5 220.5t186.5 151t263 53.5t263 -53.5t186 -151t68 -220.5v-2q0 -123 -68 -220.5t-186 -151t-263 -53.5zM2148 90q97 0 175 33.5
t126.5 105t48.5 169.5v2q0 147 -100 228.5t-250 81.5t-250 -81.5t-100 -228.5v-2q0 -147 100 -227.5t250 -80.5z" />
    <glyph glyph-name="ampersand" unicode="&#x26;" horiz-adv-x="2402" 
d="M836 -27q-342 0 -546.5 109t-204.5 293v1q0 156 157.5 266t481.5 178q-147 95 -215.5 174.5t-68.5 168.5v2q0 137 155.5 221.5t419.5 84.5q272 0 425 -85t153 -225v-1q0 -126 -125 -219.5t-379 -159.5l640 -386q223 171 358 327h222q-169 -202 -441 -411l518 -311h-304
l-354 213q-202 -128 -419.5 -184t-472.5 -56zM944 868q232 51 338.5 119.5t106.5 163.5q0 86 -101 132.5t-271 46.5q-173 0 -270.5 -41.5t-97.5 -120.5v-3q0 -73 67.5 -136t227.5 -161zM847 117q435 0 741 181l-708 427q-213 -40 -344.5 -93t-186.5 -114.5t-55 -139.5v-1
q0 -121 146.5 -190.5t406.5 -69.5z" />
    <glyph glyph-name="quotesingle" unicode="'" horiz-adv-x="533" 
d="M170 1444h194v-81l-19 -401h-156l-19 401v81z" />
    <glyph glyph-name="parenleft" unicode="(" horiz-adv-x="670" 
d="M431 -333q-128 168 -218.5 416t-90.5 473q0 224 90.5 472.5t218.5 415.5h166q-134 -186 -211.5 -421.5t-77.5 -466.5q0 -232 77.5 -467t211.5 -422h-166z" />
    <glyph glyph-name="parenright" unicode=")" horiz-adv-x="669" 
d="M72 -333q134 187 211.5 422t77.5 467q0 231 -77.5 466.5t-211.5 421.5h166q128 -167 218.5 -415.5t90.5 -472.5q0 -225 -90.5 -473t-218.5 -416h-166z" />
    <glyph glyph-name="asterisk" unicode="*" horiz-adv-x="1173" 
d="M377 604l-141 95l244 276l-374 89l53 153l362 -128l-20 355h172l-22 -355l363 128l54 -153l-375 -89l245 -276l-141 -95l-210 300z" />
    <glyph glyph-name="plus" unicode="+" horiz-adv-x="1767" 
d="M797 89v562h-617v166h617v561h172v-561h617v-166h-617v-562h-172z" />
    <glyph glyph-name="comma" unicode="," horiz-adv-x="591" 
d="M76 -232l137 474h212l-183 -474h-166z" />
    <glyph glyph-name="hyphen" unicode="-" horiz-adv-x="1111" 
d="M170 467v167h772v-167h-772z" />
    <glyph glyph-name="period" unicode="." horiz-adv-x="542" 
d="M170 0v242h202v-242h-202z" />
    <glyph glyph-name="slash" unicode="/" horiz-adv-x="1334" 
d="M42 -211l1049 1655h192l-1048 -1655h-193z" />
    <glyph glyph-name="zero" unicode="0" horiz-adv-x="2496" 
d="M1249 -27q-326 0 -578.5 87t-398 258t-145.5 403v2q0 232 145.5 403t398 258t578.5 87q194 0 365 -32t309 -95t238 -152t154 -209t54 -260v-2q0 -140 -54 -260t-154 -209t-238 -152t-309 -95t-365 -32zM1249 130q189 0 353 38.5t289 110.5t197 186t72 256v2
q0 142 -72 255.5t-197 186t-289 111t-353 38.5t-353.5 -38.5t-289.5 -111t-197 -186t-72 -255.5v-2q0 -142 72 -256t197 -186t289 -110.5t354 -38.5z" />
    <glyph glyph-name="one" unicode="1" horiz-adv-x="1032" 
d="M604 0v1102h-535v151h271q69 0 108 3.5t73.5 13.5t53.5 32.5t34 55.5t28 88h164v-1446h-197z" />
    <glyph glyph-name="two" unicode="2" horiz-adv-x="2261" 
d="M96 0v14q0 129 54 231t168 182t279.5 140.5t398.5 110.5l297 65q72 16 111 24.5t98 22.5t90.5 23.5t76 23.5t67.5 25.5t53 27.5t44.5 32t29.5 36t20.5 42.5t5.5 48.5v2q0 265 -739 265q-709 0 -768 -358h-214q44 244 299 378.5t682 134.5q449 0 695 -110t246 -310v-2
q0 -55 -16 -101t-43.5 -83t-77 -69.5t-104.5 -58t-138 -50.5t-166 -46t-199 -46l-299 -64q-342 -75 -503 -152.5t-202 -212.5h1801v-166h-2047z" />
    <glyph glyph-name="three" unicode="3" horiz-adv-x="2325" 
d="M1164 -27q-290 0 -518 54.5t-373.5 165t-174.5 265.5h214q23 -89 101 -155t196.5 -103.5t256.5 -55t299 -17.5q816 0 816 270v2q0 74 -58.5 128t-162.5 84t-230.5 44t-280.5 14h-230v162h234q665 0 665 238v2q0 83 -98 139.5t-262.5 82t-385.5 25.5q-153 0 -284.5 -18.5
t-240 -56t-179.5 -100.5t-91 -147h-215q34 149 169 257t349.5 163t489.5 55q280 0 492.5 -44t336 -134.5t123.5 -217.5v-2q0 -68 -33.5 -123.5t-92 -93.5t-130.5 -63t-157 -37v-2q74 -9 139 -25.5t128.5 -45t109 -65.5t73.5 -92t28 -120v-1q0 -145 -129.5 -243
t-355.5 -143.5t-538 -45.5z" />
    <glyph glyph-name="four" unicode="4" horiz-adv-x="2394" 
d="M1703 0v363h-1650v159l1650 922h197v-922h430v-159h-430v-363h-197zM340 522h1363v761h-2z" />
    <glyph glyph-name="five" unicode="5" horiz-adv-x="2244" 
d="M1126 -27q-279 0 -504 51t-368 149t-171 231h218q22 -74 99.5 -129.5t192.5 -87t247 -46.5t281 -15q390 0 605 85t215 249v2q0 164 -215 253t-607 89q-268 0 -473 -48.5t-304 -134.5h-185l233 823h1583v-166h-1447l-139 -488q119 71 323 118.5t479 47.5
q455 0 706.5 -129.5t251.5 -362.5v-2q0 -227 -271 -358t-750 -131z" />
    <glyph glyph-name="six" unicode="6" horiz-adv-x="2310" 
d="M1182 -27q-326 0 -557 69.5t-359.5 216.5t-128.5 365v4q0 188 70.5 342.5t205.5 266t343 173t472 61.5q359 0 604.5 -100.5t304.5 -258.5h-225q-153 206 -690 206q-409 0 -638.5 -163t-242.5 -468q105 138 331 211t550 73q291 0 511 -60.5t340.5 -173.5t120.5 -265v-2
q0 -147 -122 -259.5t-352 -175t-538 -62.5zM1181 127q243 0 424 39t282.5 117t101.5 186v2q0 108 -101 187t-283 119.5t-424 40.5q-241 0 -422.5 -40.5t-283.5 -119.5t-102 -187v-2q0 -108 101 -185.5t282 -117t425 -39.5z" />
    <glyph glyph-name="seven" unicode="7" horiz-adv-x="2080" 
d="M583 0q7 261 79 462t215.5 354t346 263.5t489.5 200.5h-1690v164h2025v-164q-217 -70 -380 -137t-309.5 -151t-247 -180t-175.5 -216.5t-113 -268t-43 -327.5h-197z" />
    <glyph glyph-name="eight" unicode="8" horiz-adv-x="2340" 
d="M1170 -27q-500 0 -768.5 110t-268.5 312v3q0 97 70.5 171.5t181.5 117t254 60.5v3q-197 33 -315.5 116.5t-118.5 216.5v2q0 182 260 284t705 102q444 0 704.5 -102t260.5 -284v-2q0 -133 -118.5 -216.5t-315.5 -116.5v-3q106 -13 196 -41t160 -70.5t110 -103.5t40 -134
v-3q0 -202 -268.5 -312t-768.5 -110zM1170 824q373 0 567.5 63t194.5 187v2q0 242 -762 242t-762 -242v-2q0 -124 194.5 -187t567.5 -63zM1170 127q406 0 619 67.5t213 200.5v3q0 133 -214 203.5t-618 70.5q-403 0 -617 -70.5t-214 -203.5v-3q0 -133 212.5 -200.5
t618.5 -67.5z" />
    <glyph glyph-name="nine" unicode="9" horiz-adv-x="2310" 
d="M1176 1468q326 0 557 -69.5t359 -216.5t128 -365v-4q0 -188 -70.5 -342.5t-205 -266.5t-342.5 -173t-472 -61q-359 0 -604.5 100.5t-304.5 258.5h225q153 -206 690 -206q409 0 638 163t242 468q-104 -138 -330 -211t-550 -73q-291 0 -511 60.5t-340.5 173.5t-120.5 265v2
q0 147 122 259.5t352 175t538 62.5zM1178 1314q-370 0 -589.5 -90t-219.5 -252v-2q0 -108 101.5 -187t283 -119.5t424.5 -40.5q240 0 421.5 40.5t283.5 119.5t102 187v2q0 108 -101 185.5t-282 117t-424 39.5z" />
    <glyph glyph-name="colon" unicode=":" horiz-adv-x="542" 
d="M170 0v242h202v-242h-202zM170 825v242h202v-242h-202z" />
    <glyph glyph-name="semicolon" unicode=";" horiz-adv-x="594" 
d="M76 -232l137 474h212l-183 -474h-166zM214 825v242h202v-242h-202z" />
    <glyph glyph-name="less" unicode="&#x3c;" horiz-adv-x="1820" 
d="M138 644v177l1509 536v-183l-1275 -441v-1l1275 -440v-183z" />
    <glyph glyph-name="equal" unicode="=" horiz-adv-x="1870" 
d="M181 912v167h1508v-167h-1508zM181 388v166h1508v-166h-1508z" />
    <glyph glyph-name="greater" unicode="&#x3e;" horiz-adv-x="1820" 
d="M1683 821v-177l-1510 -535v183l1275 440v1l-1275 441v183z" />
    <glyph glyph-name="question" unicode="?" horiz-adv-x="2031" 
d="M861 0v242h201v-242h-201zM1012 1327q-358 0 -540 -83t-192 -267h-213q8 162 129.5 274t328.5 166t486 54q452 0 698 -99t246 -274v-2q0 -125 -98.5 -200.5t-298.5 -136.5l-166 -50q-70 -21 -112 -35.5t-84.5 -33.5t-64.5 -37t-40.5 -44.5t-25.5 -57.5t-8 -74h-190
q0 67 17 119t49 92.5t86 74.5t119 60.5t157 54.5l159 48q172 52 236.5 99t64.5 117v1q0 107 -192.5 170.5t-550.5 63.5z" />
    <glyph glyph-name="at" unicode="@" horiz-adv-x="2553" 
d="M1140 424q129 0 237 40.5t175 120t68 184.5v5q0 118 -104.5 192.5t-282.5 74.5q-208 0 -332.5 -98t-124.5 -245v-4q1 -128 99.5 -199t264.5 -71zM1105 306q-100 0 -188.5 24t-158 70.5t-111 121.5t-42.5 169v5q0 94 43.5 179t120.5 148.5t192 101t250 37.5
q150 0 265.5 -53.5t162.5 -137.5l20 156h155l-60 -447q-20 -140 15 -209t153 -69q65 0 128 25t117 73.5t87.5 130t33.5 183.5v4q0 112 -47 205t-132 159t-204.5 111.5t-262.5 67t-307 21.5q-229 0 -426 -53.5t-334.5 -146.5t-215.5 -223t-78 -279v-4q1 -287 226.5 -447
t612.5 -160q301 0 565 95l42 -129q-125 -47 -286.5 -73t-319.5 -26q-301 0 -530 89t-356.5 257t-127.5 392v5q0 174 94.5 328.5t258 265t392 175t487.5 64.5q184 0 347.5 -27t302.5 -82.5t239.5 -136t157 -193.5t56.5 -248v-4q0 -105 -33 -194.5t-86.5 -150t-124 -103.5
t-143.5 -62.5t-146 -19.5q-140 0 -214 60t-82 159q-73 -93 -207.5 -148.5t-300.5 -55.5z" />
    <glyph glyph-name="A" unicode="A" horiz-adv-x="2119" 
d="M6 0l942 1448h223l943 -1448h-228l-292 450h-1085l-292 -450h-211zM614 615h874l-437 669h-2z" />
    <glyph glyph-name="B" unicode="B" horiz-adv-x="2244" 
d="M224 0v1444h1242q287 0 423.5 -90t136.5 -273v-2q0 -115 -58.5 -195t-163.5 -121v-2q133 -31 218.5 -116.5t85.5 -227.5v-1q0 -210 -151 -313t-432 -103h-1301zM420 823h1062q160 0 248 53t88 181v1q0 67 -24 111.5t-71.5 67.5t-104 32t-136.5 9h-1062v-455zM420 166
h1099q194 0 287 59.5t93 186.5v2q0 125 -94 184t-286 59h-1099v-491z" />
    <glyph glyph-name="C" unicode="C" horiz-adv-x="2366" 
d="M1240 -27q-325 0 -578.5 90t-397.5 261t-144 397v2q0 226 144 397t397.5 261t578.5 90q254 0 469 -58.5t361.5 -164.5t206.5 -246h-228q-83 149 -303.5 230.5t-504.5 81.5q-182 0 -344 -37t-290 -108.5t-203 -186.5t-75 -259v-2q0 -144 75 -259t203 -186.5t290 -108.5
t344 -37q284 0 504.5 81.5t303.5 230.5h228q-60 -140 -206.5 -246t-361.5 -164.5t-469 -58.5z" />
    <glyph glyph-name="D" unicode="D" horiz-adv-x="2214" 
d="M224 0v1444h779q112 0 216 -9t214 -32.5t204 -59t178 -93t143 -130.5t93.5 -174.5t34.5 -222.5v-2q0 -121 -34.5 -222.5t-93.5 -174.5t-143 -130.5t-178 -93t-204 -59t-214 -32.5t-216 -9h-779zM420 166h580q877 0 877 555v2q0 555 -877 555h-580v-1112z" />
    <glyph glyph-name="E" unicode="E" horiz-adv-x="2078" 
d="M224 0v1444h1703v-166h-1507v-461h1456v-166h-1456v-485h1509v-166h-1705z" />
    <glyph glyph-name="F" unicode="F" horiz-adv-x="2074" 
d="M224 0v1444h1761v-166h-1565v-461h1512v-166h-1512v-651h-196z" />
    <glyph glyph-name="G" unicode="G" horiz-adv-x="2473" 
d="M1235 -27q-324 0 -576 90t-395.5 261t-143.5 397v2q0 226 144 397t397 261t579 90q245 0 458.5 -54.5t364.5 -157.5t210 -239h-225q-55 96 -183.5 164t-287 98.5t-334.5 30.5q-145 0 -278.5 -23t-249.5 -71t-201.5 -116.5t-135 -166t-49.5 -213.5v-2q0 -144 75 -259
t203.5 -186t291 -108t345.5 -37q129 0 250.5 16t231 50.5t191 83.5t129.5 120.5t48 156.5v41h-688v167h885v-767h-166l-6 278q-96 -131 -332.5 -217.5t-551.5 -86.5z" />
    <glyph glyph-name="H" unicode="H" horiz-adv-x="2345" 
d="M224 0v1444h196v-627h1505v627h196v-1444h-196v651h-1505v-651h-196z" />
    <glyph glyph-name="I" unicode="I" horiz-adv-x="645" 
d="M224 0v1444h196v-1444h-196z" />
    <glyph glyph-name="J" unicode="J" horiz-adv-x="1799" 
d="M818 -27q-161 0 -296.5 34.5t-239.5 102t-167 175.5t-74 248h220q9 -107 53.5 -185.5t119.5 -125t171 -69t216 -22.5q128 0 230 24t181 74t122 135t43 199v881h196v-878q0 -152 -58.5 -267t-164.5 -185.5t-244.5 -105.5t-307.5 -35z" />
    <glyph glyph-name="K" unicode="K" horiz-adv-x="2136" 
d="M224 0v1444h196v-650l1372 650h328l-1491 -711l1510 -733h-383l-1336 645v-645h-196z" />
    <glyph glyph-name="L" unicode="L" horiz-adv-x="1887" 
d="M224 0v1444h196v-1278h1443v-166h-1639z" />
    <glyph glyph-name="M" unicode="M" horiz-adv-x="2807" 
d="M224 0v1444h301l878 -1258h2l879 1258h299v-1444h-197v1267h-2l-890 -1272h-180l-892 1272h-2v-1267h-196z" />
    <glyph glyph-name="N" unicode="N" horiz-adv-x="2345" 
d="M224 0v1444h224l1475 -1224h2v1224h196v-1444h-225l-1474 1224h-2v-1224h-196z" />
    <glyph glyph-name="O" unicode="O" 
d="M1249 -27q-326 0 -578.5 87t-398 258t-145.5 403v2q0 232 145.5 403t398 258t578.5 87q194 0 365 -32t309 -95t238 -152t154 -209t54 -260v-2q0 -140 -54 -260t-154 -209t-238 -152t-309 -95t-365 -32zM1249 130q189 0 353 38.5t289 110.5t197 186t72 256v2
q0 142 -72 255.5t-197 186t-289 111t-353 38.5t-353.5 -38.5t-290 -111t-197.5 -186t-72 -255.5v-2q0 -142 72 -256t197.5 -186t289.5 -110.5t354 -38.5z" />
    <glyph glyph-name="P" unicode="P" horiz-adv-x="2138" 
d="M224 0v1444h1194q118 0 211 -11t177 -40t139.5 -76.5t88 -123.5t32.5 -178v-2q0 -102 -32.5 -178t-88 -123.5t-139.5 -77t-177 -40.5t-211 -11h-998v-583h-196zM420 749h989q93 0 157.5 5.5t123 22t93 45.5t54.5 76.5t20 114.5v2q0 67 -20 114t-54.5 76t-93 45.5t-123 22
t-157.5 5.5h-989v-529z" />
    <glyph glyph-name="Q" unicode="Q" 
d="M1249 -27q-326 0 -578.5 87t-398 258t-145.5 403v2q0 232 145.5 403t398 258t578.5 87q194 0 365 -32t309 -95t238 -152t154 -209t54 -260v-2q0 -214 -122 -375t-342 -255l418 -342h-264l-347 279q-212 -55 -463 -55zM1249 130q189 0 353 38.5t289 110.5t197 186t72 256
v2q0 142 -72 255.5t-197 186t-289 111t-353 38.5t-353.5 -38.5t-290 -111t-197.5 -186t-72 -255.5v-2q0 -142 72 -256t197.5 -186t289.5 -110.5t354 -38.5z" />
    <glyph glyph-name="R" unicode="R" horiz-adv-x="2266" 
d="M224 0v1444h1273q136 0 239 -21t178.5 -65t114.5 -117t39 -173v-2q0 -280 -293 -351q76 -14 124 -42t81 -91t44 -166l20 -177q8 -84 17 -136.5t13.5 -67.5t12.5 -35h-206q-20 53 -31 149l-25 227q-7 65 -25.5 110t-45.5 72.5t-72 43t-94.5 20.5t-123.5 5h-1044v-627h-196
zM420 793h1045q204 0 299.5 53t95.5 190v2q0 137 -95.5 188.5t-300.5 51.5h-1044v-485z" />
    <glyph glyph-name="S" unicode="S" horiz-adv-x="2263" 
d="M1167 -27q-205 0 -379.5 27.5t-317.5 83.5t-238 149t-127 216h224q97 -318 850 -318q776 0 776 268v2q0 58 -29.5 100.5t-84 71t-145.5 47t-199.5 28.5t-260.5 15l-325 11q-386 14 -568 114t-182 282v1q0 101 77 179.5t210.5 125.5t301.5 71t361 24q260 0 468 -47
t348.5 -145.5t179.5 -239.5h-225q-26 73 -100 127.5t-182 85.5t-232.5 46t-268.5 15q-152 0 -278 -12t-231.5 -38.5t-165 -74.5t-59.5 -113v-2q0 -74 58.5 -122t196 -76.5t364.5 -35.5l323 -11q168 -6 295 -21t235.5 -45.5t177.5 -75.5t107.5 -113t38.5 -158v-3
q0 -94 -48 -168.5t-134.5 -125t-212 -83.5t-273.5 -47.5t-326 -14.5z" />
    <glyph glyph-name="T" unicode="T" horiz-adv-x="2081" 
d="M943 0v1278h-919v166h2034v-166h-919v-1278h-196z" />
    <glyph glyph-name="U" unicode="U" horiz-adv-x="2301" 
d="M1150 -27q-460 0 -706 179.5t-246 533.5v758h196v-753q0 -273 194.5 -416.5t561.5 -143.5t561.5 143.5t194.5 416.5v753h196v-758q0 -354 -246 -533.5t-706 -179.5z" />
    <glyph glyph-name="V" unicode="V" horiz-adv-x="2146" 
d="M964 -5l-960 1449h230l847 -1284h1l849 1284h211l-959 -1449h-219z" />
    <glyph glyph-name="W" unicode="W" horiz-adv-x="3360" 
d="M765 -5l-740 1449h211l660 -1279h1l666 1284h239l672 -1283h1l659 1278h202l-742 -1449h-251l-665 1276h-1l-662 -1276h-250z" />
    <glyph glyph-name="X" unicode="X" horiz-adv-x="2210" 
d="M7 0l965 731l-932 713h275l795 -608l802 608h259l-932 -707l964 -737h-275l-827 632l-835 -632h-259z" />
    <glyph glyph-name="Y" unicode="Y" horiz-adv-x="2238" 
d="M1022 0v565l-999 879h259l723 -629l115 -104l115 104l719 629h257l-993 -878v-566h-196z" />
    <glyph glyph-name="Z" unicode="Z" horiz-adv-x="1957" 
d="M80 0v166l1481 1112h-1425v166h1700v-166l-1480 -1112h1510v-166h-1786z" />
    <glyph glyph-name="bracketleft" unicode="[" horiz-adv-x="823" 
d="M221 -333v1777h542v-150h-369v-1477h369v-150h-542z" />
    <glyph glyph-name="backslash" unicode="\" horiz-adv-x="1334" 
d="M235 1444l1048 -1655h-192l-1049 1655h193z" />
    <glyph glyph-name="bracketright" unicode="]" horiz-adv-x="823" 
d="M59 -333v150h370v1477h-370v150h542v-1777h-542z" />
    <glyph glyph-name="asciicircum" unicode="^" horiz-adv-x="1667" 
d="M76 585l664 859h186l665 -859h-215l-542 699h-2l-541 -699h-215z" />
    <glyph glyph-name="underscore" unicode="_" horiz-adv-x="1433" 
d="M113 -285v166h1207v-166h-1207z" />
    <glyph glyph-name="grave" unicode="`" horiz-adv-x="652" 
d="M406 1210l-379 234h287l311 -234h-219z" />
    <glyph glyph-name="a" unicode="a" horiz-adv-x="1838" 
d="M748 -27q-305 0 -476.5 80.5t-171.5 240.5v2q0 50 16.5 92t43 74t72.5 58.5t92 45t115.5 33t128.5 23.5t145.5 16t152 11t161.5 8q103 4 167.5 8t118 10t80.5 12.5t46 18t24 24.5t5 34v2q0 88 -140 136.5t-401 48.5q-252 0 -393.5 -56t-157.5 -160h-209
q15 160 212.5 259.5t545.5 99.5q139 0 249 -11t204.5 -37t156.5 -67t96 -104.5t33 -147.5l-7 -354q-2 -139 2 -208.5t22 -164.5h-190q-18 94 -21 185q-83 -106 -257.5 -159t-464.5 -53zM773 113q155 0 276 18t220 59t152.5 115.5t53.5 180.5v101q-87 -39 -463 -64
q-410 -29 -559.5 -66t-149.5 -153v-1q0 -190 470 -190z" />
    <glyph glyph-name="b" unicode="b" horiz-adv-x="1992" 
d="M1078 -27q-255 0 -429.5 64t-262.5 168v-205h-189v1443h189v-583q88 104 262.5 168t429.5 64q169 0 316.5 -37.5t258 -107t174 -176t63.5 -237.5v-2q0 -174 -110 -302.5t-292.5 -192.5t-409.5 -64zM1030 117q96 0 186.5 13t177 44.5t151 78t104 118.5t39.5 161v2
q0 89 -39.5 160.5t-104 118t-151 78t-177 44.5t-186.5 13q-95 0 -185.5 -13.5t-177.5 -45t-152 -78t-104.5 -118t-39.5 -159.5v-2q0 -88 39.5 -160t104.5 -118.5t152 -78t177.5 -45t185.5 -13.5z" />
    <glyph glyph-name="c" unicode="c" horiz-adv-x="1850" 
d="M954 -27q-173 0 -325.5 36t-270.5 104.5t-187 176.5t-69 243v2q0 135 69 243t187.5 176t270.5 104t325 36q148 0 279.5 -23t239.5 -67.5t184.5 -115t107.5 -160.5h-213q-41 76 -138 127.5t-212 72.5t-248 21q-125 0 -239 -25.5t-207 -74t-148.5 -130t-55.5 -184.5v-2
q0 -103 55.5 -184.5t148.5 -130.5t207 -74.5t240 -25.5q133 0 248 21t211.5 72t137.5 128h213q-31 -90 -107.5 -160.5t-184.5 -115t-239.5 -67.5t-279.5 -23z" />
    <glyph glyph-name="d" unicode="d" horiz-adv-x="1992" 
d="M914 -27q-227 0 -409.5 64t-292.5 192.5t-110 302.5v2q0 131 63.5 237.5t174 176t258 107t316.5 37.5q256 0 430.5 -64t262.5 -168v583h189v-1443h-189v205q-88 -104 -262.5 -168t-430.5 -64zM962 117q95 0 185.5 13.5t177.5 45t152 78t105 118.5t40 160v2
q0 88 -40 159.5t-105 118t-152 78t-177.5 45t-185.5 13.5q-96 0 -186 -13t-177 -44.5t-151.5 -78t-104 -118t-39.5 -160.5v-2q0 -110 59 -193.5t157 -130t209.5 -69t232.5 -22.5z" />
    <glyph glyph-name="e" unicode="e" horiz-adv-x="1914" 
d="M964 -27q-181 0 -336 36t-273 104t-185 175.5t-67 243.5v2q0 135 68 242.5t186.5 176.5t273.5 105t333 36q132 0 249.5 -21t224 -68t186.5 -118t132.5 -176.5t65.5 -236.5v-1h-1516v-1q14 -90 73 -159.5t150.5 -111t202 -62.5t236.5 -21q215 0 382.5 49t239.5 150h215
q-77 -167 -300.5 -255.5t-540.5 -88.5zM959 950q-165 0 -297 -33t-228 -109.5t-124 -190.5v-1h1287v1q-24 88 -84.5 153.5t-147 104t-188 57t-218.5 18.5z" />
    <glyph glyph-name="f" unicode="f" horiz-adv-x="1200" 
d="M401 0v920h-385v147h385v24q0 197 109 275t369 78h313v-148h-309q-50 0 -82 -1.5t-66.5 -5.5t-54.5 -13t-39.5 -23.5t-29 -37t-15.5 -53t-6 -71.5v-24h602v-147h-602v-920h-189z" />
    <glyph glyph-name="g" unicode="g" horiz-adv-x="1992" 
d="M909 39q-223 0 -403 59.5t-290 180.5t-110 285v2q0 124 63.5 224.5t173.5 166t255 100.5t311 35q262 0 443.5 -63t258.5 -164v201h190v-879q0 -123 -46 -219t-123 -156.5t-187 -99.5t-229.5 -54.5t-259.5 -15.5q-329 0 -543 88.5t-266 269.5h213q73 -213 594 -213
q89 0 164 6t152.5 20.5t136.5 42t106.5 67t72.5 98.5t25 134v110q-78 -100 -259 -163t-443 -63zM963 182q79 0 155 9t150.5 27.5t137 49.5t111 72t75.5 98.5t27 125.5v2q0 81 -39 147t-103.5 109t-151 72t-177 41.5t-185.5 12.5q-97 0 -186.5 -11.5t-176.5 -39.5
t-150.5 -70.5t-102.5 -109.5t-39 -151v-2q0 -70 27 -128.5t75 -99.5t110 -71.5t137 -48t150.5 -26t155.5 -8.5z" />
    <glyph glyph-name="h" unicode="h" horiz-adv-x="1893" 
d="M197 0v1444h189v-595q69 107 229 175.5t398 68.5q331 0 519 -135.5t188 -405.5v-552h-189v513q0 213 -149.5 322.5t-423.5 109.5q-268 0 -420 -110t-152 -326v-509h-189z" />
    <glyph glyph-name="i" unicode="i" horiz-adv-x="582" 
d="M197 0v1067h189v-1067h-189zM197 1215v229h189v-229h-189z" />
    <glyph glyph-name="j" unicode="j" horiz-adv-x="581" 
d="M-204 -333v148h122q51 0 82 2t64.5 7.5t52 18t36 32t25.5 49.5t13 71t5 97v975h189v-984q0 -126 -24 -206t-82 -127t-142.5 -65t-218.5 -18h-122zM196 1215v229h189v-229h-189z" />
    <glyph glyph-name="k" unicode="k" horiz-adv-x="1733" 
d="M197 0v1444h188v-851l998 474h320l-1092 -517l1153 -550h-364l-1014 481v-481h-189z" />
    <glyph glyph-name="l" unicode="l" horiz-adv-x="582" 
d="M197 0v1444h189v-1444h-189z" />
    <glyph glyph-name="m" unicode="m" horiz-adv-x="3229" 
d="M197 0v1067h189v-211q68 106 227.5 171.5t399.5 65.5q245 0 413 -74.5t241 -224.5q86 145 259.5 222t421.5 77q218 0 374.5 -57t245 -179.5t88.5 -304.5v-552h-189v513q0 214 -149.5 323t-423.5 109q-269 0 -421.5 -110t-152.5 -326v-509h-189v513q0 213 -149.5 322.5
t-423.5 109.5q-268 0 -420 -110t-152 -326v-509h-189z" />
    <glyph glyph-name="n" unicode="n" horiz-adv-x="1893" 
d="M197 0v1067h189v-211q68 106 227.5 171.5t399.5 65.5q331 0 519 -135.5t188 -405.5v-552h-189v513q0 213 -149.5 322.5t-423.5 109.5q-268 0 -420 -110t-152 -326v-509h-189z" />
    <glyph glyph-name="o" unicode="o" horiz-adv-x="1977" 
d="M989 -27q-264 0 -464 66t-311.5 193.5t-111.5 300.5v2q0 173 111.5 300t311.5 193t464 66q263 0 463 -66t311.5 -193t111.5 -300v-2q0 -173 -111.5 -300.5t-311.5 -193.5t-463 -66zM989 118q140 0 262.5 26.5t217 76.5t149.5 130.5t55 181.5v2q0 134 -95.5 229.5
t-247.5 140t-341 44.5q-140 0 -262.5 -26t-217.5 -76t-150 -130.5t-55 -181.5v-2q0 -134 96 -230t248 -140.5t341 -44.5z" />
    <glyph glyph-name="p" unicode="p" horiz-adv-x="1992" 
d="M1078 -27q-255 0 -429.5 64t-262.5 168v-538h-189v1399h189v-206q88 104 262.5 168t429.5 64q169 0 316.5 -37.5t258 -107t174 -176t63.5 -237.5v-2q0 -174 -110 -302.5t-292.5 -192.5t-409.5 -64zM1030 117q96 0 186.5 13t177 44.5t151 78t104 118.5t39.5 161v2
q0 89 -39.5 160.5t-104 118t-151 78t-177 44.5t-186.5 13q-95 0 -185.5 -13.5t-177.5 -45t-152 -78t-104.5 -118t-39.5 -159.5v-2q0 -88 39.5 -160t104.5 -118.5t152 -78t177.5 -45t185.5 -13.5z" />
    <glyph glyph-name="q" unicode="q" horiz-adv-x="1989" 
d="M914 -27q-227 0 -409.5 64t-292.5 192.5t-110 302.5v2q0 131 63.5 237.5t174 176t258 107t316.5 37.5q256 0 430.5 -64t262.5 -168v206h189v-1399h-189v538q-88 -104 -262.5 -168t-430.5 -64zM962 117q95 0 185.5 13.5t177.5 45t152 78t105 118.5t40 160v2
q0 88 -40 159.5t-105 118t-152 78t-177.5 45t-185.5 13.5q-96 0 -186 -13t-177 -44.5t-151.5 -78t-104 -118t-39.5 -160.5v-2q0 -110 59 -193.5t157 -130t209.5 -69t232.5 -22.5z" />
    <glyph glyph-name="r" unicode="r" horiz-adv-x="1072" 
d="M197 0v1067h186v-257q62 120 221.5 196.5t357.5 76.5h83v-166h-104q-250 0 -402.5 -102.5t-152.5 -281.5v-533h-189z" />
    <glyph glyph-name="s" unicode="s" horiz-adv-x="1855" 
d="M958 -27q-236 0 -416 35.5t-303 117.5t-152 206h213q17 -52 61.5 -91t105.5 -63t145.5 -38.5t170 -20t190.5 -5.5q288 0 440 42t152 142v2q0 37 -19 63.5t-54 44t-94.5 28.5t-129.5 16t-170 8l-364 11q-315 8 -464 82.5t-149 218.5v2q0 102 100.5 175t273.5 109t399 36
q332 0 555.5 -81.5t273.5 -243.5h-213q-90 185 -616 185q-570 0 -570 -171v-2q0 -78 96 -113t319 -41l377 -11q106 -3 189.5 -10.5t159.5 -21.5t130 -37t94 -55t60 -77t20 -102v-2q0 -168 -212 -253t-599 -85z" />
    <glyph glyph-name="t" unicode="t" horiz-adv-x="1211" 
d="M840 0q-105 0 -174 9.5t-124.5 33.5t-85.5 68.5t-45.5 112t-15.5 166.5v530h-381v147h381v377h189v-377h535v-147h-535v-514q0 -70 8 -114t25.5 -74.5t54 -45t82 -20t122.5 -5.5h229v-147h-265z" />
    <glyph glyph-name="u" unicode="u" horiz-adv-x="1894" 
d="M881 -27q-331 0 -519.5 135.5t-188.5 405.5v553h189v-514q0 -216 149.5 -324.5t424.5 -108.5q270 0 421 109.5t151 327.5v510h189v-1067h-189v217q-69 -107 -229 -175.5t-398 -68.5z" />
    <glyph glyph-name="v" unicode="v" horiz-adv-x="1784" 
d="M787 -5l-773 1072h231l659 -916h1l663 916h205l-779 -1072h-207z" />
    <glyph glyph-name="w" unicode="w" horiz-adv-x="2880" 
d="M662 -5l-638 1072h219l540 -908h1l566 911h206l570 -905h1l537 902h193l-639 -1072h-206l-571 913h-1l-569 -913h-209z" />
    <glyph glyph-name="x" unicode="x" horiz-adv-x="1868" 
d="M3 0l795 539l-772 528h280l633 -432l641 432h264l-774 -523l794 -544h-279l-655 447l-663 -447h-264z" />
    <glyph glyph-name="y" unicode="y" horiz-adv-x="1818" 
d="M206 -333v148h192q106 0 161 12.5t96.5 45t103.5 110.5l30 36l-778 1048h232l661 -897l701 897h211l-873 -1119q-73 -93 -126 -145.5t-117 -84.5t-130 -41.5t-172 -9.5h-192z" />
    <glyph glyph-name="z" unicode="z" horiz-adv-x="1710" 
d="M85 0v145l1204 775h-1174v147h1481v-145l-1213 -775h1242v-147h-1540z" />
    <glyph glyph-name="braceleft" unicode="{" horiz-adv-x="787" 
d="M544 -333q-158 0 -232.5 67t-74.5 230v316q0 105 -32.5 144.5t-126.5 70.5v122q64 21 94.5 40.5t47.5 60.5t17 114v315q0 163 74.5 230t232.5 67h169v-150h-139q-103 0 -134 -31.5t-31 -141.5v-268q0 -124 -38.5 -191.5t-137.5 -104.5v-2q99 -38 137.5 -105.5
t38.5 -191.5v-268q0 -59 6 -91t26 -51.5t49 -25t84 -5.5h139v-150h-169z" />
    <glyph glyph-name="bar" unicode="|" horiz-adv-x="618" 
d="M223 -333v1777h173v-1777h-173z" />
    <glyph glyph-name="braceright" unicode="}" horiz-adv-x="787" 
d="M75 -333v150h138q55 0 84 5.5t49 25t26 51.5t6 91v268q0 124 39 192t138 105v2q-99 37 -138 104.5t-39 191.5v268q0 110 -31 141.5t-134 31.5h-138v150h168q159 0 233 -67t74 -230v-315q0 -73 17 -114t47.5 -60.5t94.5 -40.5v-122q-94 -31 -126.5 -70.5t-32.5 -144.5
v-316q0 -163 -74 -230t-233 -67h-168z" />
    <glyph glyph-name="asciitilde" unicode="~" horiz-adv-x="1843" 
d="M320 577l-148 56q59 137 164 217t248 80q86 0 168 -23.5t145.5 -57.5t124 -68t128.5 -57.5t134 -23.5q99 0 157 51.5t102 146.5l148 -57q-59 -137 -164 -217t-249 -80q-84 0 -164.5 23.5t-143.5 57.5t-124 68t-130 57.5t-137 23.5q-99 0 -157 -51.5t-102 -145.5z" />
    <glyph glyph-name="uni00A0" unicode="&#xa0;" horiz-adv-x="761" 
 />
    <glyph glyph-name="exclamdown" unicode="&#xa1;" horiz-adv-x="600" 
d="M466 1111v-242h-201v242h201zM435 684l25 -448v-569h-189v569l26 448h138z" />
    <glyph glyph-name="cent" unicode="&#xa2;" horiz-adv-x="1921" 
d="M891 223v188q-155 11 -288.5 51.5t-236 109t-161.5 170.5t-59 226v2q0 124 59 225.5t161.5 169.5t236 108.5t288.5 51.5v191h172v-189q184 -7 335.5 -48.5t261 -122.5t148.5 -194h-213q-41 77 -138 128.5t-212 72.5t-247 21q-100 0 -193 -15.5t-176.5 -48.5t-145.5 -81
t-98.5 -117t-36.5 -152v-2q0 -83 36.5 -152.5t98.5 -117.5t145.5 -81.5t176.5 -49t193 -15.5q133 0 248 21t211.5 72.5t137.5 128.5h213q-39 -113 -148.5 -194t-261 -122.5t-335.5 -48.5v-186h-172z" />
    <glyph glyph-name="sterling" unicode="&#xa3;" horiz-adv-x="2148" 
d="M145 0v139q200 18 305.5 94t105.5 190v3q0 90 -73 215h-379v151h291q-80 140 -80 234v3q0 132 110 233t301.5 155t433.5 54q343 0 573.5 -112t298.5 -325l-203 -1q-104 296 -668 296q-192 0 -337 -34.5t-226.5 -102t-81.5 -160.5v-2q0 -57 22 -111.5t64 -126.5h1108v-151
h-1022q68 -122 68 -212v-4q0 -179 -217 -265h1500v-160h-1894z" />
    <glyph glyph-name="currency" unicode="&#xa4;" horiz-adv-x="1471" 
d="M736 233q-171 0 -297 92l-181 -181l-103 102l180 180q-93 125 -93 298q0 174 93 299l-179 181l102 102l180 -182q129 91 298 91q172 0 298 -92l180 181l103 -101l-180 -182q91 -126 91 -297t-91 -297l180 -180l-103 -102l-179 181q-127 -93 -299 -93zM736 369
q151 0 248.5 97t97.5 258q0 162 -97.5 259t-248.5 97t-249 -97.5t-98 -258.5t98 -258t249 -97z" />
    <glyph glyph-name="yen" unicode="&#xa5;" horiz-adv-x="2301" 
d="M1055 0v205h-708v147h708v181h-708v146h583l-874 765h259l723 -628l114 -104h2l114 104l720 628h256l-870 -765h580v-146h-702v-181h702v-147h-702v-205h-197z" />
    <glyph glyph-name="brokenbar" unicode="&#xa6;" horiz-adv-x="618" 
d="M223 700v744h173v-744h-173zM223 -333v744h173v-744h-173z" />
    <glyph glyph-name="section" unicode="&#xa7;" horiz-adv-x="1971" 
d="M1009 -218q-167 0 -310.5 23.5t-260 70.5t-194.5 122.5t-106 174.5h211q27 -69 92.5 -119.5t157 -79t194.5 -41.5t220 -13q287 0 449 55t162 162v2q0 101 -123.5 143t-418.5 57l-322 14q-321 15 -472 93.5t-151 224.5v1q0 87 76 158t193 100q-237 78 -237 268v1
q0 102 101 178.5t274.5 116t393.5 39.5q207 0 375 -37.5t288 -119t160 -199.5h-211q-41 79 -142 129.5t-217 69t-253 18.5q-163 0 -290 -21.5t-205 -67.5t-78 -110v-2q0 -87 110.5 -132t363.5 -57l325 -16q139 -6 242 -19t190.5 -37t142 -60t84.5 -89t30 -124v-2
q0 -87 -58 -155t-159 -109q185 -76 185 -247v-2q0 -119 -100.5 -201t-281 -121.5t-430.5 -39.5zM802 869q-93 5 -159 13q-142 -20 -226 -71t-84 -122v-2q0 -92 108.5 -139.5t355.5 -58.5l328 -16q181 -8 310 -28q106 26 163.5 78.5t57.5 119.5v2q0 103 -124.5 148.5
t-411.5 59.5z" />
    <glyph glyph-name="dieresis" unicode="&#xa8;" horiz-adv-x="1058" 
d="M27 1223v221h189v-221h-189zM842 1223v221h189v-221h-189z" />
    <glyph glyph-name="copyright" unicode="&#xa9;" horiz-adv-x="2632" 
d="M1302 289q-133 0 -251.5 28.5t-210.5 81.5t-146 136.5t-54 186.5v2q0 103 54 186.5t146 136.5t210.5 81.5t251.5 28.5q152 0 280.5 -31.5t221 -96.5t126.5 -156h-166q-48 87 -176 131t-286 44q-97 0 -185 -20t-160 -58.5t-115 -102t-43 -143.5v-2q0 -80 43 -143.5
t115 -102t160 -58.5t185 -20q158 0 286 44t176 131h166q-50 -136 -222 -210t-406 -74zM1316 -57q-336 0 -602.5 99t-416 277t-149.5 403v2q0 225 149.5 403t416 277t602.5 99t602.5 -99t416 -277t149.5 -403v-2q0 -225 -149.5 -403t-416 -277t-602.5 -99zM1316 48
q305 0 542 86t366 239.5t129 348.5v2q0 195 -129 348.5t-366 239.5t-542 86t-542 -86t-366 -239.5t-129 -348.5v-2q0 -195 129 -348.5t366 -239.5t542 -86z" />
    <glyph glyph-name="guillemotleft" unicode="&#xab;" horiz-adv-x="1363" 
d="M477 194l-360 381l360 381h207l-355 -381l355 -381h-207zM1003 194l-360 381l360 381h207l-354 -381l354 -381h-207z" />
    <glyph glyph-name="logicalnot" unicode="&#xac;" horiz-adv-x="1730" 
d="M139 919v166h1405v-726h-172v560h-1233z" />
    <glyph glyph-name="uni00AD" unicode="&#xad;" horiz-adv-x="1111" 
d="M170 467v167h772v-167h-772z" />
    <glyph glyph-name="registered" unicode="&#xae;" horiz-adv-x="2119" 
d="M1060 261q-259 0 -466 77t-323 214.5t-116 311.5v2q0 174 116 312.5t323 215.5t466 77t466 -77t323 -215.5t116 -312.5v-2q0 -174 -116 -311.5t-323 -214.5t-466 -77zM1060 344q234 0 417 66.5t283.5 185t100.5 268.5v2q0 151 -100.5 269.5t-283.5 185.5t-417 67
q-235 0 -418 -67t-283 -185.5t-100 -269.5v-2q0 -150 100 -268.5t283 -185t418 -66.5zM672 539v657h557q134 0 201.5 -48.5t67.5 -139.5v-2q0 -90 -66 -138t-197 -49l311 -280h-156l-311 280h-294v-280h-113zM785 907h432q168 0 168 99v2q0 100 -168 100h-432v-201z" />
    <glyph glyph-name="macron" unicode="&#xaf;" horiz-adv-x="960" 
d="M27 1262v129h905v-129h-905z" />
    <glyph glyph-name="degree" unicode="&#xb0;" horiz-adv-x="1229" 
d="M616 742q-220 0 -363.5 104t-143.5 261t143.5 260.5t363.5 103.5t363 -103.5t143 -260.5t-143 -261t-363 -104zM616 874q152 0 247.5 65.5t95.5 167.5t-95.5 167t-247.5 65q-153 0 -248.5 -64.5t-95.5 -167.5t95.5 -168t248.5 -65z" />
    <glyph glyph-name="plusminus" unicode="&#xb1;" horiz-adv-x="1767" 
d="M797 289v493h-617v166h617v494h172v-494h617v-166h-617v-493h-172zM181 0v166h1405v-166h-1405z" />
    <glyph glyph-name="twosuperior" unicode="&#xb2;" horiz-adv-x="1379" 
d="M60 963v9q0 161 130 258.5t418 162.5l178 40q72 16 118 28t91.5 28t70 33t39.5 40.5t15 53.5v1q0 81 -112.5 121t-303.5 40t-306.5 -54t-132.5 -166h-162q26 154 183 239.5t418 85.5q272 0 422 -70t150 -197v-1q0 -49 -19 -87t-52.5 -66.5t-92 -52.5t-124 -42.5
t-161.5 -39.5l-177 -39q-194 -43 -286 -87.5t-118 -119.5h1060v-118h-1246z" />
    <glyph glyph-name="threesuperior" unicode="&#xb3;" horiz-adv-x="1418" 
d="M716 945q-272 0 -449.5 81t-203.5 229h164q18 -71 91.5 -118.5t173 -67t223.5 -19.5q217 0 340 41.5t123 120.5v2q0 82 -115 119.5t-304 37.5h-128v117h130q380 0 380 138v1q0 72 -117.5 111.5t-307.5 39.5q-86 0 -161.5 -12t-136.5 -36t-101.5 -62.5t-51.5 -87.5h-165
q32 143 197 223t418 80q262 0 421.5 -65.5t159.5 -186.5v-2q0 -78 -67 -127.5t-173 -65.5v-1q120 -18 200.5 -70.5t80.5 -144.5v-1q0 -133 -169 -203.5t-452 -70.5z" />
    <glyph glyph-name="acute" unicode="&#xb4;" horiz-adv-x="651" 
d="M27 1210l310 234h287l-378 -234h-219z" />
    <glyph glyph-name="paragraph" unicode="&#xb6;" horiz-adv-x="1631" 
d="M504 -197v921q-199 10 -305 102.5t-106 256.5q0 174 119 267.5t340 93.5h1008v-150h-338v-1491h-156v1491h-406v-1491h-156z" />
    <glyph glyph-name="periodcentered" unicode="&#xb7;" horiz-adv-x="541" 
d="M170 431v242h202v-242h-202z" />
    <glyph glyph-name="cedilla" unicode="&#xb8;" horiz-adv-x="731" 
d="M343 -413q-159 0 -315 50l37 85q119 -48 263 -48q188 0 188 69q0 33 -45.5 48t-113.5 15q-95 0 -155 -27l-75 57l220 192h142l-174 -151q47 14 118 14q50 0 95 -6.5t86 -21.5t65.5 -43t24.5 -67q0 -79 -102 -122.5t-259 -43.5z" />
    <glyph glyph-name="onesuperior" unicode="&#xb9;" horiz-adv-x="665" 
d="M363 963v678h-322v110h148q106 0 141 19.5t56 95.5h130v-903h-153z" />
    <glyph glyph-name="guillemotright" unicode="&#xbb;" horiz-adv-x="1363" 
d="M1246 575l-360 -381h-207l355 381l-355 381h207zM719 575l-359 -381h-207l355 381l-355 381h207z" />
    <glyph glyph-name="onequarter" unicode="&#xbc;" horiz-adv-x="2619" 
d="M2171 0v212h-973v114l973 577h152v-577h253v-114h-253v-212h-152zM174 0l1439 1505h199l-1439 -1505h-199zM1403 326h768v453h-1zM359 602v678h-322v111h149q105 0 140 19.5t56 95.5h130v-904h-153z" />
    <glyph glyph-name="onehalf" unicode="&#xbd;" horiz-adv-x="2657" 
d="M1338 0v9q0 161 131 259t418 162l177 40q72 16 118 28t91.5 28t70 33t39.5 40.5t15 53.5v1q0 82 -112 122t-304 40q-190 0 -306 -54.5t-132 -165.5h-163q26 154 183.5 239.5t417.5 85.5q272 0 422 -70.5t150 -197.5v-1q0 -49 -19 -87t-52 -66t-92 -52.5t-123.5 -42.5
t-161.5 -40l-178 -39q-193 -42 -285 -86.5t-118 -119.5h1059v-119h-1246zM174 0l1439 1505h199l-1439 -1505h-199zM359 602v678h-322v111h149q105 0 140 19.5t56 95.5h130v-904h-153z" />
    <glyph glyph-name="threequarters" unicode="&#xbe;" horiz-adv-x="3354" 
d="M2905 0v212h-973v114l973 577h152v-577h253v-114h-253v-212h-152zM714 585q-178 0 -318 34.5t-229 105.5t-107 170h165q18 -71 91 -118.5t173 -67t224 -19.5q217 0 339.5 41.5t122.5 121.5v1q0 42 -32 73t-90.5 48.5t-131.5 26t-164 8.5h-129v118h131q379 0 379 139v1
q0 72 -117 111t-307 39q-178 0 -303.5 -51t-147.5 -147h-165q32 143 197 223t418 80q171 0 300.5 -28t205 -85.5t75.5 -138.5v-1q0 -79 -67 -128.5t-173 -66.5v-1q56 -8 103 -23.5t88.5 -40.5t65 -63.5t23.5 -86.5v-1q0 -133 -169 -203.5t-451 -70.5zM909 0l1439 1505h199
l-1439 -1505h-199zM2137 326h768v453h-1z" />
    <glyph glyph-name="questiondown" unicode="&#xbf;" horiz-adv-x="2013" 
d="M1222 1111v-242h-201v242h201zM1071 -216q358 0 540 83t192 267h213q-8 -162 -129.5 -274t-328.5 -166t-486 -54q-452 0 -698 99t-246 274v2q0 125 98.5 200.5t298.5 136.5l166 50q70 21 112 35.5t84.5 33.5t64.5 37t40.5 44.5t25.5 57.5t8 74h190q0 -67 -17 -119
t-49 -92.5t-86 -74.5t-119 -60.5t-157 -54.5l-159 -48q-172 -52 -236.5 -99t-64.5 -117v-1q0 -107 192.5 -170.5t550.5 -63.5z" />
    <glyph glyph-name="Agrave" unicode="&#xc0;" horiz-adv-x="2119" 
d="M6 0l942 1448h223l943 -1448h-228l-292 450h-1085l-292 -450h-211zM614 615h874l-437 669h-2zM1048 1618l-475 264h293l406 -264h-224z" />
    <glyph glyph-name="Aacute" unicode="&#xc1;" horiz-adv-x="2119" 
d="M6 0l942 1448h223l943 -1448h-228l-292 450h-1085l-292 -450h-211zM614 615h874l-437 669h-2zM868 1618l406 264h293l-475 -264h-224z" />
    <glyph glyph-name="Acircumflex" unicode="&#xc2;" horiz-adv-x="2119" 
d="M6 0l942 1448h223l943 -1448h-228l-292 450h-1085l-292 -450h-211zM614 615h874l-437 669h-2zM518 1618l412 264h258l412 -264h-256l-284 178l-285 -178h-257z" />
    <glyph glyph-name="Atilde" unicode="&#xc3;" horiz-adv-x="2119" 
d="M6 0l942 1448h223l943 -1448h-228l-292 450h-1085l-292 -450h-211zM614 615h874l-437 669h-2zM527 1624q6 121 78.5 187.5t199.5 66.5q73 0 144.5 -19.5t119 -43.5t105 -43.5t105.5 -19.5q73 0 108 30t38 96h163q-6 -121 -78 -187.5t-200 -66.5q-73 0 -144.5 20
t-118.5 43.5t-104.5 43.5t-105.5 20q-74 0 -108.5 -30t-38.5 -97h-163z" />
    <glyph glyph-name="Adieresis" unicode="&#xc4;" horiz-adv-x="2119" 
d="M6 0l942 1448h223l943 -1448h-228l-292 450h-1085l-292 -450h-211zM614 615h874l-437 669h-2zM537 1652v230h196v-230h-196zM1389 1652v230h196v-230h-196z" />
    <glyph glyph-name="Aring" unicode="&#xc5;" horiz-adv-x="2119" 
d="M6 0l942 1448h223l943 -1448h-228l-292 450h-1085l-292 -450h-211zM614 615h874l-437 669h-2zM1060 1526q-99 0 -169 66.5t-70 166.5q0 99 70 166t169 67t169 -67t70 -166q0 -100 -70 -166.5t-169 -66.5zM1060 1621q58 0 95 39t37 99q0 59 -37 98t-95 39t-95 -39t-37 -98
q0 -60 37 -99t95 -39z" />
    <glyph glyph-name="AE" unicode="&#xc6;" horiz-adv-x="3283" 
d="M-77 0l1475 1444h1734v-166h-1507v-461h1456v-166h-1456v-485h1509v-166h-1705v450h-819l-458 -450h-229zM761 600h668v657z" />
    <glyph glyph-name="Ccedilla" unicode="&#xc7;" horiz-adv-x="2366" 
d="M1240 -27q-325 0 -578.5 90t-397.5 261t-144 397v2q0 226 144 397t397.5 261t578.5 90q254 0 469 -58.5t361.5 -164.5t206.5 -246h-228q-83 149 -303.5 230.5t-504.5 81.5q-182 0 -344 -37t-290 -108.5t-203 -186.5t-75 -259v-2q0 -144 75 -259t203 -186.5t290 -108.5
t344 -37q284 0 504.5 81.5t303.5 230.5h228q-60 -140 -206.5 -246t-361.5 -164.5t-469 -58.5zM1197 -413q-159 0 -315 50l37 85q119 -48 263 -48q188 0 188 69q0 33 -45.5 48t-113.5 15q-95 0 -155 -27l-75 57l220 192h142l-174 -151q47 14 118 14q50 0 95 -6.5t86 -21.5
t65.5 -43t24.5 -67q0 -79 -102 -122.5t-259 -43.5z" />
    <glyph glyph-name="Egrave" unicode="&#xc8;" horiz-adv-x="2078" 
d="M224 0v1444h1703v-166h-1507v-461h1456v-166h-1456v-485h1509v-166h-1705zM1066 1618l-475 264h293l406 -264h-224z" />
    <glyph glyph-name="Eacute" unicode="&#xc9;" horiz-adv-x="2078" 
d="M224 0v1444h1703v-166h-1507v-461h1456v-166h-1456v-485h1509v-166h-1705zM886 1618l406 264h293l-475 -264h-224z" />
    <glyph glyph-name="Ecircumflex" unicode="&#xca;" horiz-adv-x="2078" 
d="M224 0v1444h1703v-166h-1507v-461h1456v-166h-1456v-485h1509v-166h-1705zM536 1618l412 264h258l412 -264h-256l-284 178l-285 -178h-257z" />
    <glyph glyph-name="Edieresis" unicode="&#xcb;" horiz-adv-x="2078" 
d="M224 0v1444h1703v-166h-1507v-461h1456v-166h-1456v-485h1509v-166h-1705zM555 1652v230h196v-230h-196zM1407 1652v230h196v-230h-196z" />
    <glyph glyph-name="Igrave" unicode="&#xcc;" horiz-adv-x="645" 
d="M224 0v1444h196v-1444h-196zM311 1618l-475 264h293l406 -264h-224z" />
    <glyph glyph-name="Iacute" unicode="&#xcd;" horiz-adv-x="645" 
d="M224 0v1444h196v-1444h-196zM131 1618l406 264h293l-475 -264h-224z" />
    <glyph glyph-name="Icircumflex" unicode="&#xce;" horiz-adv-x="645" 
d="M224 0v1444h196v-1444h-196zM-220 1618l412 264h258l412 -264h-256l-284 178l-285 -178h-257z" />
    <glyph glyph-name="Idieresis" unicode="&#xcf;" horiz-adv-x="645" 
d="M224 0v1444h196v-1444h-196zM-201 1652v230h196v-230h-196zM651 1652v230h196v-230h-196z" />
    <glyph glyph-name="Eth" unicode="&#xd0;" horiz-adv-x="2262" 
d="M56 651v158h217v635h779q112 0 216 -9t214.5 -32.5t204 -59t178 -93t143.5 -130.5t93.5 -174.5t34.5 -222.5v-2q0 -121 -34.5 -222.5t-93.5 -174.5t-143.5 -130.5t-178 -93t-204 -59t-214.5 -32.5t-216 -9h-779v651h-217zM469 166h580q878 0 878 555v2q0 555 -878 555
h-580v-469h667v-158h-667v-485z" />
    <glyph glyph-name="Ntilde" unicode="&#xd1;" horiz-adv-x="2345" 
d="M224 0v1444h224l1475 -1224h2v1224h196v-1444h-225l-1474 1224h-2v-1224h-196zM699 1624q6 121 78.5 187.5t199.5 66.5q73 0 144.5 -19.5t119 -43.5t105 -43.5t105.5 -19.5q73 0 108 30t38 96h163q-6 -121 -78 -187.5t-200 -66.5q-73 0 -144.5 20t-118.5 43.5
t-104.5 43.5t-105.5 20q-74 0 -108.5 -30t-38.5 -97h-163z" />
    <glyph glyph-name="Ograve" unicode="&#xd2;" 
d="M1249 -27q-326 0 -578.5 87t-398 258t-145.5 403v2q0 232 145.5 403t398 258t578.5 87q194 0 365 -32t309 -95t238 -152t154 -209t54 -260v-2q0 -140 -54 -260t-154 -209t-238 -152t-309 -95t-365 -32zM1249 130q189 0 353 38.5t289 110.5t197 186t72 256v2
q0 142 -72 255.5t-197 186t-289 111t-353 38.5t-353.5 -38.5t-290 -111t-197.5 -186t-72 -255.5v-2q0 -142 72 -256t197.5 -186t289.5 -110.5t354 -38.5zM1243 1618l-475 264h293l406 -264h-224z" />
    <glyph glyph-name="Oacute" unicode="&#xd3;" 
d="M1249 -27q-326 0 -578.5 87t-398 258t-145.5 403v2q0 232 145.5 403t398 258t578.5 87q194 0 365 -32t309 -95t238 -152t154 -209t54 -260v-2q0 -140 -54 -260t-154 -209t-238 -152t-309 -95t-365 -32zM1249 130q189 0 353 38.5t289 110.5t197 186t72 256v2
q0 142 -72 255.5t-197 186t-289 111t-353 38.5t-353.5 -38.5t-290 -111t-197.5 -186t-72 -255.5v-2q0 -142 72 -256t197.5 -186t289.5 -110.5t354 -38.5zM1063 1618l406 264h293l-475 -264h-224z" />
    <glyph glyph-name="Ocircumflex" unicode="&#xd4;" 
d="M1249 -27q-326 0 -578.5 87t-398 258t-145.5 403v2q0 232 145.5 403t398 258t578.5 87q194 0 365 -32t309 -95t238 -152t154 -209t54 -260v-2q0 -140 -54 -260t-154 -209t-238 -152t-309 -95t-365 -32zM1249 130q189 0 353 38.5t289 110.5t197 186t72 256v2
q0 142 -72 255.5t-197 186t-289 111t-353 38.5t-353.5 -38.5t-290 -111t-197.5 -186t-72 -255.5v-2q0 -142 72 -256t197.5 -186t289.5 -110.5t354 -38.5zM713 1618l412 264h258l412 -264h-256l-284 178l-285 -178h-257z" />
    <glyph glyph-name="Otilde" unicode="&#xd5;" 
d="M1249 -27q-326 0 -578.5 87t-398 258t-145.5 403v2q0 232 145.5 403t398 258t578.5 87q194 0 365 -32t309 -95t238 -152t154 -209t54 -260v-2q0 -140 -54 -260t-154 -209t-238 -152t-309 -95t-365 -32zM1249 130q189 0 353 38.5t289 110.5t197 186t72 256v2
q0 142 -72 255.5t-197 186t-289 111t-353 38.5t-353.5 -38.5t-290 -111t-197.5 -186t-72 -255.5v-2q0 -142 72 -256t197.5 -186t289.5 -110.5t354 -38.5zM722 1624q6 121 78.5 187.5t199.5 66.5q73 0 144.5 -19.5t119 -43.5t105 -43.5t105.5 -19.5q73 0 108 30t38 96h163
q-6 -121 -78 -187.5t-200 -66.5q-73 0 -144.5 20t-118.5 43.5t-104.5 43.5t-105.5 20q-74 0 -108.5 -30t-38.5 -97h-163z" />
    <glyph glyph-name="Odieresis" unicode="&#xd6;" 
d="M1249 -27q-326 0 -578.5 87t-398 258t-145.5 403v2q0 232 145.5 403t398 258t578.5 87q194 0 365 -32t309 -95t238 -152t154 -209t54 -260v-2q0 -140 -54 -260t-154 -209t-238 -152t-309 -95t-365 -32zM1249 130q189 0 353 38.5t289 110.5t197 186t72 256v2
q0 142 -72 255.5t-197 186t-289 111t-353 38.5t-353.5 -38.5t-290 -111t-197.5 -186t-72 -255.5v-2q0 -142 72 -256t197.5 -186t289.5 -110.5t354 -38.5zM732 1652v230h196v-230h-196zM1584 1652v230h196v-230h-196z" />
    <glyph glyph-name="multiply" unicode="&#xd7;" horiz-adv-x="1546" 
d="M240 84l-116 116l533 533l-533 533l116 116l533 -533l533 533l116 -116l-533 -533l533 -533l-116 -116l-533 533z" />
    <glyph glyph-name="Oslash" unicode="&#xd8;" 
d="M402 -128l187 221q-219 94 -340.5 254.5t-121.5 373.5v2q0 232 145.5 403t398 258t578.5 87q249 0 465 -54l267 313l127 -98l-229 -269q232 -93 361 -256.5t129 -383.5v-2q0 -140 -54 -260t-154 -209t-238 -152t-309 -95t-365 -32q-276 0 -498 63l-222 -262zM336 721
q0 -168 97.5 -292.5t271.5 -199.5l891 1048q-158 37 -347 37t-353.5 -38.5t-290 -111t-197.5 -186t-72 -255.5v-2zM1249 130q189 0 353 38.5t289 110.5t197 186t72 256v2q0 174 -105.5 302t-291.5 202l-894 -1053q176 -44 380 -44z" />
    <glyph glyph-name="Ugrave" unicode="&#xd9;" horiz-adv-x="2301" 
d="M1150 -27q-460 0 -706 179.5t-246 533.5v758h196v-753q0 -273 194.5 -416.5t561.5 -143.5t561.5 143.5t194.5 416.5v753h196v-758q0 -354 -246 -533.5t-706 -179.5zM1139 1618l-475 264h293l406 -264h-224z" />
    <glyph glyph-name="Uacute" unicode="&#xda;" horiz-adv-x="2301" 
d="M1150 -27q-460 0 -706 179.5t-246 533.5v758h196v-753q0 -273 194.5 -416.5t561.5 -143.5t561.5 143.5t194.5 416.5v753h196v-758q0 -354 -246 -533.5t-706 -179.5zM959 1618l406 264h293l-475 -264h-224z" />
    <glyph glyph-name="Ucircumflex" unicode="&#xdb;" horiz-adv-x="2301" 
d="M1150 -27q-460 0 -706 179.5t-246 533.5v758h196v-753q0 -273 194.5 -416.5t561.5 -143.5t561.5 143.5t194.5 416.5v753h196v-758q0 -354 -246 -533.5t-706 -179.5zM609 1618l412 264h258l412 -264h-256l-284 178l-285 -178h-257z" />
    <glyph glyph-name="Udieresis" unicode="&#xdc;" horiz-adv-x="2301" 
d="M1150 -27q-460 0 -706 179.5t-246 533.5v758h196v-753q0 -273 194.5 -416.5t561.5 -143.5t561.5 143.5t194.5 416.5v753h196v-758q0 -354 -246 -533.5t-706 -179.5zM628 1652v230h196v-230h-196zM1480 1652v230h196v-230h-196z" />
    <glyph glyph-name="Yacute" unicode="&#xdd;" horiz-adv-x="2238" 
d="M1022 0v565l-999 879h259l723 -629l115 -104l115 104l719 629h257l-993 -878v-566h-196zM926 1618l406 264h293l-475 -264h-224z" />
    <glyph glyph-name="Thorn" unicode="&#xde;" horiz-adv-x="2174" 
d="M224 0v1445h197v-250h973q118 0 213 -11.5t183 -41.5t147 -78.5t94 -127t35 -182.5v-2q0 -105 -35 -184t-94 -127.5t-147 -78.5t-183 -41.5t-213 -11.5h-973v-309h-197zM421 459h977q90 0 158 8t126.5 28t95.5 53t58 84t21 120v2q0 68 -21 119t-58 83.5t-95.5 52.5
t-127 28t-157.5 8h-977v-586z" />
    <glyph glyph-name="germandbls" unicode="&#xdf;" horiz-adv-x="2151" 
d="M196 0v876q0 155 62 270t180 186t280.5 105t372.5 34q238 0 416 -39.5t283 -123t105 -204.5v-3q0 -121 -93 -201.5t-242 -115.5v-3q255 -26 374.5 -122t119.5 -244v-2q0 -111 -64.5 -192t-185 -128.5t-276.5 -70t-354 -22.5h-334v145h323q164 0 287.5 14t216.5 45t141 83
t48 126v2q0 137 -165 205t-532 68h-241v145h224q257 0 406 63.5t149 185.5v3q0 242 -609 242q-359 0 -532.5 -107t-173.5 -348v-872h-186z" />
    <glyph glyph-name="agrave" unicode="&#xe0;" horiz-adv-x="1838" 
d="M748 -27q-305 0 -476.5 80.5t-171.5 240.5v2q0 50 16.5 92t43 74t72.5 58.5t92 45t115.5 33t128.5 23.5t145.5 16t152 11t161.5 8q103 4 167.5 8t118 10t80.5 12.5t46 18t24 24.5t5 34v2q0 88 -140 136.5t-401 48.5q-252 0 -393.5 -56t-157.5 -160h-209
q15 160 212.5 259.5t545.5 99.5q139 0 249 -11t204.5 -37t156.5 -67t96 -104.5t33 -147.5l-7 -354q-2 -139 2 -208.5t22 -164.5h-190q-18 94 -21 185q-83 -106 -257.5 -159t-464.5 -53zM773 113q155 0 276 18t220 59t152.5 115.5t53.5 180.5v101q-87 -39 -463 -64
q-410 -29 -559.5 -66t-149.5 -153v-1q0 -190 470 -190zM874 1210l-379 234h287l311 -234h-219z" />
    <glyph glyph-name="aacute" unicode="&#xe1;" horiz-adv-x="1838" 
d="M748 -27q-305 0 -476.5 80.5t-171.5 240.5v2q0 50 16.5 92t43 74t72.5 58.5t92 45t115.5 33t128.5 23.5t145.5 16t152 11t161.5 8q103 4 167.5 8t118 10t80.5 12.5t46 18t24 24.5t5 34v2q0 88 -140 136.5t-401 48.5q-252 0 -393.5 -56t-157.5 -160h-209
q15 160 212.5 259.5t545.5 99.5q139 0 249 -11t204.5 -37t156.5 -67t96 -104.5t33 -147.5l-7 -354q-2 -139 2 -208.5t22 -164.5h-190q-18 94 -21 185q-83 -106 -257.5 -159t-464.5 -53zM773 113q155 0 276 18t220 59t152.5 115.5t53.5 180.5v101q-87 -39 -463 -64
q-410 -29 -559.5 -66t-149.5 -153v-1q0 -190 470 -190zM776 1210l310 234h287l-378 -234h-219z" />
    <glyph glyph-name="acircumflex" unicode="&#xe2;" horiz-adv-x="1838" 
d="M748 -27q-305 0 -476.5 80.5t-171.5 240.5v2q0 50 16.5 92t43 74t72.5 58.5t92 45t115.5 33t128.5 23.5t145.5 16t152 11t161.5 8q103 4 167.5 8t118 10t80.5 12.5t46 18t24 24.5t5 34v2q0 88 -140 136.5t-401 48.5q-252 0 -393.5 -56t-157.5 -160h-209
q15 160 212.5 259.5t545.5 99.5q139 0 249 -11t204.5 -37t156.5 -67t96 -104.5t33 -147.5l-7 -354q-2 -139 2 -208.5t22 -164.5h-190q-18 94 -21 185q-83 -106 -257.5 -159t-464.5 -53zM773 113q155 0 276 18t220 59t152.5 115.5t53.5 180.5v101q-87 -39 -463 -64
q-410 -29 -559.5 -66t-149.5 -153v-1q0 -190 470 -190zM396 1210l412 234h254l412 -234h-251l-287 150l-289 -150h-251z" />
    <glyph glyph-name="atilde" unicode="&#xe3;" horiz-adv-x="1838" 
d="M748 -27q-305 0 -476.5 80.5t-171.5 240.5v2q0 50 16.5 92t43 74t72.5 58.5t92 45t115.5 33t128.5 23.5t145.5 16t152 11t161.5 8q103 4 167.5 8t118 10t80.5 12.5t46 18t24 24.5t5 34v2q0 88 -140 136.5t-401 48.5q-252 0 -393.5 -56t-157.5 -160h-209
q15 160 212.5 259.5t545.5 99.5q139 0 249 -11t204.5 -37t156.5 -67t96 -104.5t33 -147.5l-7 -354q-2 -139 2 -208.5t22 -164.5h-190q-18 94 -21 185q-83 -106 -257.5 -159t-464.5 -53zM773 113q155 0 276 18t220 59t152.5 115.5t53.5 180.5v101q-87 -39 -463 -64
q-410 -29 -559.5 -66t-149.5 -153v-1q0 -190 470 -190zM403 1210q6 121 78.5 188t199.5 67q73 0 144.5 -20t119 -43.5t105 -43.5t105.5 -20q73 0 108 30t38 97h163q-6 -121 -78 -188t-200 -67q-73 0 -144.5 20t-118.5 44t-104.5 44t-105.5 20q-74 0 -108.5 -30.5
t-38.5 -97.5h-163z" />
    <glyph glyph-name="adieresis" unicode="&#xe4;" horiz-adv-x="1838" 
d="M748 -27q-305 0 -476.5 80.5t-171.5 240.5v2q0 50 16.5 92t43 74t72.5 58.5t92 45t115.5 33t128.5 23.5t145.5 16t152 11t161.5 8q103 4 167.5 8t118 10t80.5 12.5t46 18t24 24.5t5 34v2q0 88 -140 136.5t-401 48.5q-252 0 -393.5 -56t-157.5 -160h-209
q15 160 212.5 259.5t545.5 99.5q139 0 249 -11t204.5 -37t156.5 -67t96 -104.5t33 -147.5l-7 -354q-2 -139 2 -208.5t22 -164.5h-190q-18 94 -21 185q-83 -106 -257.5 -159t-464.5 -53zM773 113q155 0 276 18t220 59t152.5 115.5t53.5 180.5v101q-87 -39 -463 -64
q-410 -29 -559.5 -66t-149.5 -153v-1q0 -190 470 -190zM433 1223v221h189v-221h-189zM1248 1223v221h189v-221h-189z" />
    <glyph glyph-name="aring" unicode="&#xe5;" horiz-adv-x="1838" 
d="M748 -27q-305 0 -476.5 80.5t-171.5 240.5v2q0 50 16.5 92t43 74t72.5 58.5t92 45t115.5 33t128.5 23.5t145.5 16t152 11t161.5 8q103 4 167.5 8t118 10t80.5 12.5t46 18t24 24.5t5 34v2q0 88 -140 136.5t-401 48.5q-252 0 -393.5 -56t-157.5 -160h-209
q15 160 212.5 259.5t545.5 99.5q139 0 249 -11t204.5 -37t156.5 -67t96 -104.5t33 -147.5l-7 -354q-2 -139 2 -208.5t22 -164.5h-190q-18 94 -21 185q-83 -106 -257.5 -159t-464.5 -53zM773 113q155 0 276 18t220 59t152.5 115.5t53.5 180.5v101q-87 -39 -463 -64
q-410 -29 -559.5 -66t-149.5 -153v-1q0 -190 470 -190zM935 1187q-99 0 -169 66.5t-70 166.5t70 166.5t169 66.5t169 -66.5t70 -166.5t-70 -166.5t-169 -66.5zM935 1283q58 0 95 39t37 98t-37 98t-95 39t-95 -39t-37 -98t37 -98t95 -39z" />
    <glyph glyph-name="ae" unicode="&#xe6;" horiz-adv-x="3285" 
d="M2337 -27q-267 0 -474.5 77t-305.5 222q-103 -157 -315 -228t-494 -71q-301 0 -474.5 84t-173.5 237v2q0 49 16.5 90.5t44 73t72.5 57.5t92 44t114.5 32.5t127 23.5t142 16.5t148 11t154.5 7.5q105 4 174.5 8t123.5 10.5t84 14t49 19.5t25 25.5t6 34.5v2q0 88 -143.5 140
t-402.5 52q-249 0 -390.5 -59t-160.5 -164h-209q30 160 225 259.5t533 99.5q593 0 701 -228h1q111 111 298 169.5t412 58.5q132 0 249.5 -21t224 -68t186.5 -117.5t132.5 -176t65.5 -237.5v-1h-1516v-1q14 -90 73 -159.5t150.5 -111.5t202 -63t236.5 -21q214 0 382 49
t240 151h215q-77 -167 -300.5 -255.5t-540.5 -88.5zM773 107q111 0 208.5 11t190 39t158 71t105.5 111t40 156v89q-85 -36 -463 -60q-101 -6 -166.5 -11t-141.5 -12.5t-123.5 -16t-98 -20t-79.5 -26.5t-54 -35t-35.5 -45t-10.5 -56v-1q0 -96 120.5 -145t349.5 -49zM2332 951
q-165 0 -297 -33t-228 -110t-124 -191v-1h1287v1q-24 88 -84.5 153.5t-147 104.5t-188 57.5t-218.5 18.5z" />
    <glyph glyph-name="ccedilla" unicode="&#xe7;" horiz-adv-x="1850" 
d="M954 -27q-173 0 -325.5 36t-270.5 104.5t-187 176.5t-69 243v2q0 135 69 243t187.5 176t270.5 104t325 36q148 0 279.5 -23t239.5 -67.5t184.5 -115t107.5 -160.5h-213q-41 76 -138 127.5t-212 72.5t-248 21q-125 0 -239 -25.5t-207 -74t-148.5 -130t-55.5 -184.5v-2
q0 -103 55.5 -184.5t148.5 -130.5t207 -74.5t240 -25.5q133 0 248 21t211.5 72t137.5 128h213q-31 -90 -107.5 -160.5t-184.5 -115t-239.5 -67.5t-279.5 -23zM912 -413q-159 0 -315 50l37 85q119 -48 263 -48q188 0 188 69q0 33 -45.5 48t-113.5 15q-95 0 -155 -27l-75 57
l220 192h142l-174 -151q47 14 118 14q50 0 95 -6.5t86 -21.5t65.5 -43t24.5 -67q0 -79 -102 -122.5t-259 -43.5z" />
    <glyph glyph-name="egrave" unicode="&#xe8;" horiz-adv-x="1914" 
d="M964 -27q-181 0 -336 36t-273 104t-185 175.5t-67 243.5v2q0 135 68 242.5t186.5 176.5t273.5 105t333 36q132 0 249.5 -21t224 -68t186.5 -118t132.5 -176.5t65.5 -236.5v-1h-1516v-1q14 -90 73 -159.5t150.5 -111t202 -62.5t236.5 -21q215 0 382.5 49t239.5 150h215
q-77 -167 -300.5 -255.5t-540.5 -88.5zM959 950q-165 0 -297 -33t-228 -109.5t-124 -190.5v-1h1287v1q-24 88 -84.5 153.5t-147 104t-188 57t-218.5 18.5zM896 1210l-379 234h287l311 -234h-219z" />
    <glyph glyph-name="eacute" unicode="&#xe9;" horiz-adv-x="1914" 
d="M964 -27q-181 0 -336 36t-273 104t-185 175.5t-67 243.5v2q0 135 68 242.5t186.5 176.5t273.5 105t333 36q132 0 249.5 -21t224 -68t186.5 -118t132.5 -176.5t65.5 -236.5v-1h-1516v-1q14 -90 73 -159.5t150.5 -111t202 -62.5t236.5 -21q215 0 382.5 49t239.5 150h215
q-77 -167 -300.5 -255.5t-540.5 -88.5zM959 950q-165 0 -297 -33t-228 -109.5t-124 -190.5v-1h1287v1q-24 88 -84.5 153.5t-147 104t-188 57t-218.5 18.5zM798 1210l310 234h287l-378 -234h-219z" />
    <glyph glyph-name="ecircumflex" unicode="&#xea;" horiz-adv-x="1914" 
d="M964 -27q-181 0 -336 36t-273 104t-185 175.5t-67 243.5v2q0 135 68 242.5t186.5 176.5t273.5 105t333 36q132 0 249.5 -21t224 -68t186.5 -118t132.5 -176.5t65.5 -236.5v-1h-1516v-1q14 -90 73 -159.5t150.5 -111t202 -62.5t236.5 -21q215 0 382.5 49t239.5 150h215
q-77 -167 -300.5 -255.5t-540.5 -88.5zM959 950q-165 0 -297 -33t-228 -109.5t-124 -190.5v-1h1287v1q-24 88 -84.5 153.5t-147 104t-188 57t-218.5 18.5zM417 1210l412 234h254l412 -234h-251l-287 150l-289 -150h-251z" />
    <glyph glyph-name="edieresis" unicode="&#xeb;" horiz-adv-x="1914" 
d="M964 -27q-181 0 -336 36t-273 104t-185 175.5t-67 243.5v2q0 135 68 242.5t186.5 176.5t273.5 105t333 36q132 0 249.5 -21t224 -68t186.5 -118t132.5 -176.5t65.5 -236.5v-1h-1516v-1q14 -90 73 -159.5t150.5 -111t202 -62.5t236.5 -21q215 0 382.5 49t239.5 150h215
q-77 -167 -300.5 -255.5t-540.5 -88.5zM959 950q-165 0 -297 -33t-228 -109.5t-124 -190.5v-1h1287v1q-24 88 -84.5 153.5t-147 104t-188 57t-218.5 18.5zM454 1223v221h189v-221h-189zM1269 1223v221h189v-221h-189z" />
    <glyph glyph-name="igrave" unicode="&#xec;" horiz-adv-x="582" 
d="M197 0v1067h189v-1067h-189zM231 1210l-379 234h287l311 -234h-219z" />
    <glyph glyph-name="iacute" unicode="&#xed;" horiz-adv-x="582" 
d="M197 0v1067h189v-1067h-189zM133 1210l310 234h287l-378 -234h-219z" />
    <glyph glyph-name="icircumflex" unicode="&#xee;" horiz-adv-x="582" 
d="M197 0v1067h189v-1067h-189zM-247 1210l412 234h254l412 -234h-251l-287 150l-289 -150h-251z" />
    <glyph glyph-name="idieresis" unicode="&#xef;" horiz-adv-x="582" 
d="M197 0v1067h189v-1067h-189zM-210 1223v221h189v-221h-189zM605 1223v221h189v-221h-189z" />
    <glyph glyph-name="eth" unicode="&#xf0;" horiz-adv-x="1955" 
d="M517 1124l-64 112l291 137q-158 65 -308 106l57 149q230 -68 442 -164l346 163l64 -113l-260 -123q163 -84 298.5 -178.5t243 -202t167.5 -227.5t60 -239v-2q0 -174 -110.5 -303.5t-308.5 -197.5t-456 -68t-457 68.5t-309.5 195.5t-110.5 294v3q0 167 111.5 294.5
t306.5 195.5t443 68q227 0 393 -69l1 2q-166 144 -456 280zM979 115q138 0 259 27.5t214 78.5t147 131.5t54 180.5v1q0 132 -94 228.5t-244 142.5t-336 46t-337 -46t-245 -142.5t-94 -228.5v-3q0 -132 94.5 -228t245 -142t336.5 -46z" />
    <glyph glyph-name="ntilde" unicode="&#xf1;" horiz-adv-x="1893" 
d="M197 0v1067h189v-211q68 106 227.5 171.5t399.5 65.5q331 0 519 -135.5t188 -405.5v-552h-189v513q0 213 -149.5 322.5t-423.5 109.5q-268 0 -420 -110t-152 -326v-509h-189zM427 1210q6 121 78.5 188t199.5 67q73 0 144.5 -20t119 -43.5t105 -43.5t105.5 -20
q73 0 108 30t38 97h163q-6 -121 -78 -188t-200 -67q-73 0 -144.5 20t-118.5 44t-104.5 44t-105.5 20q-74 0 -108.5 -30.5t-38.5 -97.5h-163z" />
    <glyph glyph-name="ograve" unicode="&#xf2;" horiz-adv-x="1977" 
d="M989 -27q-264 0 -464 66t-311.5 193.5t-111.5 300.5v2q0 173 111.5 300t311.5 193t464 66q263 0 463 -66t311.5 -193t111.5 -300v-2q0 -173 -111.5 -300.5t-311.5 -193.5t-463 -66zM989 118q140 0 262.5 26.5t217 76.5t149.5 130.5t55 181.5v2q0 134 -95.5 229.5
t-247.5 140t-341 44.5q-140 0 -262.5 -26t-217.5 -76t-150 -130.5t-55 -181.5v-2q0 -134 96 -230t248 -140.5t341 -44.5zM928 1210l-379 234h287l311 -234h-219z" />
    <glyph glyph-name="oacute" unicode="&#xf3;" horiz-adv-x="1977" 
d="M989 -27q-264 0 -464 66t-311.5 193.5t-111.5 300.5v2q0 173 111.5 300t311.5 193t464 66q263 0 463 -66t311.5 -193t111.5 -300v-2q0 -173 -111.5 -300.5t-311.5 -193.5t-463 -66zM989 118q140 0 262.5 26.5t217 76.5t149.5 130.5t55 181.5v2q0 134 -95.5 229.5
t-247.5 140t-341 44.5q-140 0 -262.5 -26t-217.5 -76t-150 -130.5t-55 -181.5v-2q0 -134 96 -230t248 -140.5t341 -44.5zM830 1210l310 234h287l-378 -234h-219z" />
    <glyph glyph-name="ocircumflex" unicode="&#xf4;" horiz-adv-x="1977" 
d="M989 -27q-264 0 -464 66t-311.5 193.5t-111.5 300.5v2q0 173 111.5 300t311.5 193t464 66q263 0 463 -66t311.5 -193t111.5 -300v-2q0 -173 -111.5 -300.5t-311.5 -193.5t-463 -66zM989 118q140 0 262.5 26.5t217 76.5t149.5 130.5t55 181.5v2q0 134 -95.5 229.5
t-247.5 140t-341 44.5q-140 0 -262.5 -26t-217.5 -76t-150 -130.5t-55 -181.5v-2q0 -134 96 -230t248 -140.5t341 -44.5zM450 1210l412 234h254l412 -234h-251l-287 150l-289 -150h-251z" />
    <glyph glyph-name="otilde" unicode="&#xf5;" horiz-adv-x="1977" 
d="M989 -27q-264 0 -464 66t-311.5 193.5t-111.5 300.5v2q0 173 111.5 300t311.5 193t464 66q263 0 463 -66t311.5 -193t111.5 -300v-2q0 -173 -111.5 -300.5t-311.5 -193.5t-463 -66zM989 118q140 0 262.5 26.5t217 76.5t149.5 130.5t55 181.5v2q0 134 -95.5 229.5
t-247.5 140t-341 44.5q-140 0 -262.5 -26t-217.5 -76t-150 -130.5t-55 -181.5v-2q0 -134 96 -230t248 -140.5t341 -44.5zM457 1210q6 121 78.5 188t199.5 67q73 0 144.5 -20t119 -43.5t105 -43.5t105.5 -20q73 0 108 30t38 97h163q-6 -121 -78 -188t-200 -67
q-73 0 -144.5 20t-118.5 44t-104.5 44t-105.5 20q-74 0 -108.5 -30.5t-38.5 -97.5h-163z" />
    <glyph glyph-name="odieresis" unicode="&#xf6;" horiz-adv-x="1977" 
d="M989 -27q-264 0 -464 66t-311.5 193.5t-111.5 300.5v2q0 173 111.5 300t311.5 193t464 66q263 0 463 -66t311.5 -193t111.5 -300v-2q0 -173 -111.5 -300.5t-311.5 -193.5t-463 -66zM989 118q140 0 262.5 26.5t217 76.5t149.5 130.5t55 181.5v2q0 134 -95.5 229.5
t-247.5 140t-341 44.5q-140 0 -262.5 -26t-217.5 -76t-150 -130.5t-55 -181.5v-2q0 -134 96 -230t248 -140.5t341 -44.5zM487 1223v221h189v-221h-189zM1302 1223v221h189v-221h-189z" />
    <glyph glyph-name="divide" unicode="&#xf7;" horiz-adv-x="1767" 
d="M178 651v166h1411v-166h-1411zM880 1034q-58 0 -96.5 34.5t-38.5 90.5q0 55 38.5 89.5t96.5 34.5q60 0 98 -34.5t38 -89.5q0 -56 -38 -90.5t-98 -34.5zM880 185q-58 0 -96.5 34.5t-38.5 89.5q0 56 38.5 90.5t96.5 34.5q60 0 98 -34.5t38 -90.5q0 -55 -38 -89.5t-98 -34.5
z" />
    <glyph glyph-name="oslash" unicode="&#xf8;" horiz-adv-x="1977" 
d="M343 -118l143 172q-183 69 -283.5 191.5t-100.5 287.5v2q0 173 111.5 300t311.5 193t464 66q185 0 340 -33l187 224l119 -92l-149 -178q185 -69 287 -192t102 -288v-2q0 -173 -111.5 -300.5t-311.5 -193.5t-463 -66q-184 0 -345 34l-183 -218zM304 533q0 -122 77 -210.5
t213 -140.5l625 748q-107 19 -230 19q-140 0 -262.5 -26t-217.5 -76t-150 -130.5t-55 -181.5v-2zM989 118q140 0 262.5 26.5t217 76.5t149.5 130.5t55 181.5v2q0 123 -78 212t-216 140l-626 -748q111 -21 236 -21z" />
    <glyph glyph-name="ugrave" unicode="&#xf9;" horiz-adv-x="1894" 
d="M881 -27q-331 0 -519.5 135.5t-188.5 405.5v553h189v-514q0 -216 149.5 -324.5t424.5 -108.5q270 0 421 109.5t151 327.5v510h189v-1067h-189v217q-69 -107 -229 -175.5t-398 -68.5zM876 1210l-379 234h287l311 -234h-219z" />
    <glyph glyph-name="uacute" unicode="&#xfa;" horiz-adv-x="1894" 
d="M881 -27q-331 0 -519.5 135.5t-188.5 405.5v553h189v-514q0 -216 149.5 -324.5t424.5 -108.5q270 0 421 109.5t151 327.5v510h189v-1067h-189v217q-69 -107 -229 -175.5t-398 -68.5zM778 1210l310 234h287l-378 -234h-219z" />
    <glyph glyph-name="ucircumflex" unicode="&#xfb;" horiz-adv-x="1894" 
d="M881 -27q-331 0 -519.5 135.5t-188.5 405.5v553h189v-514q0 -216 149.5 -324.5t424.5 -108.5q270 0 421 109.5t151 327.5v510h189v-1067h-189v217q-69 -107 -229 -175.5t-398 -68.5zM397 1210l412 234h254l412 -234h-251l-287 150l-289 -150h-251z" />
    <glyph glyph-name="udieresis" unicode="&#xfc;" horiz-adv-x="1894" 
d="M881 -27q-331 0 -519.5 135.5t-188.5 405.5v553h189v-514q0 -216 149.5 -324.5t424.5 -108.5q270 0 421 109.5t151 327.5v510h189v-1067h-189v217q-69 -107 -229 -175.5t-398 -68.5zM434 1223v221h189v-221h-189zM1249 1223v221h189v-221h-189z" />
    <glyph glyph-name="yacute" unicode="&#xfd;" horiz-adv-x="1818" 
d="M206 -333v148h192q106 0 161 12.5t96.5 45t103.5 110.5l30 36l-778 1048h232l661 -897l701 897h211l-873 -1119q-73 -93 -126 -145.5t-117 -84.5t-130 -41.5t-172 -9.5h-192zM754 1210l310 234h287l-378 -234h-219z" />
    <glyph glyph-name="thorn" unicode="&#xfe;" horiz-adv-x="1992" 
d="M1089 -27q-262 0 -443 72.5t-260 182.5v-561h-189v1777h189v-605q79 110 260 182t443 72q164 0 308.5 -37.5t254.5 -107t174 -176.5t64 -238v-1q0 -174 -110.5 -303t-290.5 -193t-400 -64zM1030 110q93 0 182.5 13.5t177 45.5t153 79.5t105.5 121t40 163.5v1
q0 76 -28 139.5t-77 108.5t-112.5 79.5t-138.5 54.5t-150 30t-152 10q-93 0 -183 -13.5t-177 -46t-152.5 -79.5t-106 -120t-40.5 -163v-1q0 -90 40.5 -163t106 -120.5t152.5 -80t177 -46t183 -13.5z" />
    <glyph glyph-name="ydieresis" unicode="&#xff;" horiz-adv-x="1818" 
d="M206 -333v148h192q106 0 161 12.5t96.5 45t103.5 110.5l30 36l-778 1048h232l661 -897l701 897h211l-873 -1119q-73 -93 -126 -145.5t-117 -84.5t-130 -41.5t-172 -9.5h-192zM411 1223v221h189v-221h-189zM1226 1223v221h189v-221h-189z" />
    <glyph glyph-name="Amacron" unicode="&#x100;" horiz-adv-x="2119" 
d="M6 0l942 1448h223l943 -1448h-228l-292 450h-1085l-292 -450h-211zM614 615h874l-437 669h-2zM555 1690v133h1007v-133h-1007z" />
    <glyph glyph-name="amacron" unicode="&#x101;" horiz-adv-x="1838" 
d="M748 -27q-305 0 -476.5 80.5t-171.5 240.5v2q0 50 16.5 92t43 74t72.5 58.5t92 45t115.5 33t128.5 23.5t145.5 16t152 11t161.5 8q103 4 167.5 8t118 10t80.5 12.5t46 18t24 24.5t5 34v2q0 88 -140 136.5t-401 48.5q-252 0 -393.5 -56t-157.5 -160h-209
q15 160 212.5 259.5t545.5 99.5q139 0 249 -11t204.5 -37t156.5 -67t96 -104.5t33 -147.5l-7 -354q-2 -139 2 -208.5t22 -164.5h-190q-18 94 -21 185q-83 -106 -257.5 -159t-464.5 -53zM773 113q155 0 276 18t220 59t152.5 115.5t53.5 180.5v101q-87 -39 -463 -64
q-410 -29 -559.5 -66t-149.5 -153v-1q0 -190 470 -190zM481 1262v129h905v-129h-905z" />
    <glyph glyph-name="Abreve" unicode="&#x102;" horiz-adv-x="2119" 
d="M6 0l942 1448h223l943 -1448h-228l-292 450h-1085l-292 -450h-211zM614 615h874l-437 669h-2zM1060 1604q-197 0 -319 71.5t-150 206.5h183q14 -80 90.5 -119t195.5 -39t195.5 39t89.5 119h183q-28 -135 -149.5 -206.5t-318.5 -71.5z" />
    <glyph glyph-name="abreve" unicode="&#x103;" horiz-adv-x="1838" 
d="M748 -27q-305 0 -476.5 80.5t-171.5 240.5v2q0 50 16.5 92t43 74t72.5 58.5t92 45t115.5 33t128.5 23.5t145.5 16t152 11t161.5 8q103 4 167.5 8t118 10t80.5 12.5t46 18t24 24.5t5 34v2q0 88 -140 136.5t-401 48.5q-252 0 -393.5 -56t-157.5 -160h-209
q15 160 212.5 259.5t545.5 99.5q139 0 249 -11t204.5 -37t156.5 -67t96 -104.5t33 -147.5l-7 -354q-2 -139 2 -208.5t22 -164.5h-190q-18 94 -21 185q-83 -106 -257.5 -159t-464.5 -53zM773 113q155 0 276 18t220 59t152.5 115.5t53.5 180.5v101q-87 -39 -463 -64
q-410 -29 -559.5 -66t-149.5 -153v-1q0 -190 470 -190zM935 1190q-416 0 -469 254h183q7 -39 31 -66t63.5 -41.5t85.5 -20.5t106 -6q125 0 198.5 29.5t86.5 104.5h183q-53 -254 -468 -254z" />
    <glyph glyph-name="Aogonek" unicode="&#x104;" horiz-adv-x="2119" 
d="M6 0l942 1448h223l943 -1448h-228l-292 450h-1085l-292 -450h-211zM614 615h874l-437 669h-2zM1927 1h185q-121 -65 -121 -154q0 -48 35.5 -72t97.5 -24q55 0 111 21l45 -119q-85 -40 -198 -40q-120 0 -193 54t-73 144q0 108 111 190z" />
    <glyph glyph-name="aogonek" unicode="&#x105;" horiz-adv-x="1838" 
d="M748 -27q-305 0 -476.5 80.5t-171.5 240.5v2q0 50 16.5 92t43 74t72.5 58.5t92 45t115.5 33t128.5 23.5t145.5 16t152 11t161.5 8q103 4 167.5 8t118 10t80.5 12.5t46 18t24 24.5t5 34v2q0 88 -140 136.5t-401 48.5q-252 0 -393.5 -56t-157.5 -160h-209
q15 160 212.5 259.5t545.5 99.5q139 0 249 -11t204.5 -37t156.5 -67t96 -104.5t33 -147.5l-7 -354q-2 -139 2 -208.5t22 -164.5h-190q-18 94 -21 185q-83 -106 -257.5 -159t-464.5 -53zM773 113q155 0 276 18t220 59t152.5 115.5t53.5 180.5v101q-87 -39 -463 -64
q-410 -29 -559.5 -66t-149.5 -153v-1q0 -190 470 -190zM1492 1h185q-121 -65 -121 -154q0 -48 35.5 -72t97.5 -24q55 0 111 21l45 -119q-85 -40 -198 -40q-120 0 -193 54t-73 144q0 108 111 190z" />
    <glyph glyph-name="Cacute" unicode="&#x106;" horiz-adv-x="2366" 
d="M1240 -27q-325 0 -578.5 90t-397.5 261t-144 397v2q0 226 144 397t397.5 261t578.5 90q254 0 469 -58.5t361.5 -164.5t206.5 -246h-228q-83 149 -303.5 230.5t-504.5 81.5q-182 0 -344 -37t-290 -108.5t-203 -186.5t-75 -259v-2q0 -144 75 -259t203 -186.5t290 -108.5
t344 -37q284 0 504.5 81.5t303.5 230.5h228q-60 -140 -206.5 -246t-361.5 -164.5t-469 -58.5zM1048 1618l406 264h293l-475 -264h-224z" />
    <glyph glyph-name="cacute" unicode="&#x107;" horiz-adv-x="1850" 
d="M954 -27q-173 0 -325.5 36t-270.5 104.5t-187 176.5t-69 243v2q0 135 69 243t187.5 176t270.5 104t325 36q148 0 279.5 -23t239.5 -67.5t184.5 -115t107.5 -160.5h-213q-41 76 -138 127.5t-212 72.5t-248 21q-125 0 -239 -25.5t-207 -74t-148.5 -130t-55.5 -184.5v-2
q0 -103 55.5 -184.5t148.5 -130.5t207 -74.5t240 -25.5q133 0 248 21t211.5 72t137.5 128h213q-31 -90 -107.5 -160.5t-184.5 -115t-239.5 -67.5t-279.5 -23zM796 1210l310 234h287l-378 -234h-219z" />
    <glyph glyph-name="Ccircumflex" unicode="&#x108;" horiz-adv-x="2366" 
d="M1240 -27q-325 0 -578.5 90t-397.5 261t-144 397v2q0 226 144 397t397.5 261t578.5 90q254 0 469 -58.5t361.5 -164.5t206.5 -246h-228q-83 149 -303.5 230.5t-504.5 81.5q-182 0 -344 -37t-290 -108.5t-203 -186.5t-75 -259v-2q0 -144 75 -259t203 -186.5t290 -108.5
t344 -37q284 0 504.5 81.5t303.5 230.5h228q-60 -140 -206.5 -246t-361.5 -164.5t-469 -58.5zM698 1618l412 264h258l412 -264h-256l-284 178l-285 -178h-257z" />
    <glyph glyph-name="ccircumflex" unicode="&#x109;" horiz-adv-x="1850" 
d="M954 -27q-173 0 -325.5 36t-270.5 104.5t-187 176.5t-69 243v2q0 135 69 243t187.5 176t270.5 104t325 36q148 0 279.5 -23t239.5 -67.5t184.5 -115t107.5 -160.5h-213q-41 76 -138 127.5t-212 72.5t-248 21q-125 0 -239 -25.5t-207 -74t-148.5 -130t-55.5 -184.5v-2
q0 -103 55.5 -184.5t148.5 -130.5t207 -74.5t240 -25.5q133 0 248 21t211.5 72t137.5 128h213q-31 -90 -107.5 -160.5t-184.5 -115t-239.5 -67.5t-279.5 -23zM416 1210l412 234h254l412 -234h-251l-287 150l-289 -150h-251z" />
    <glyph glyph-name="Cdotaccent" unicode="&#x10a;" horiz-adv-x="2366" 
d="M1240 -27q-325 0 -578.5 90t-397.5 261t-144 397v2q0 226 144 397t397.5 261t578.5 90q254 0 469 -58.5t361.5 -164.5t206.5 -246h-228q-83 149 -303.5 230.5t-504.5 81.5q-182 0 -344 -37t-290 -108.5t-203 -186.5t-75 -259v-2q0 -144 75 -259t203 -186.5t290 -108.5
t344 -37q284 0 504.5 81.5t303.5 230.5h228q-60 -140 -206.5 -246t-361.5 -164.5t-469 -58.5zM1142 1652v230h196v-230h-196z" />
    <glyph glyph-name="cdotaccent" unicode="&#x10b;" horiz-adv-x="1850" 
d="M954 -27q-173 0 -325.5 36t-270.5 104.5t-187 176.5t-69 243v2q0 135 69 243t187.5 176t270.5 104t325 36q148 0 279.5 -23t239.5 -67.5t184.5 -115t107.5 -160.5h-213q-41 76 -138 127.5t-212 72.5t-248 21q-125 0 -239 -25.5t-207 -74t-148.5 -130t-55.5 -184.5v-2
q0 -103 55.5 -184.5t148.5 -130.5t207 -74.5t240 -25.5q133 0 248 21t211.5 72t137.5 128h213q-31 -90 -107.5 -160.5t-184.5 -115t-239.5 -67.5t-279.5 -23zM860 1223v221h189v-221h-189z" />
    <glyph glyph-name="Ccaron" unicode="&#x10c;" horiz-adv-x="2366" 
d="M1240 -27q-325 0 -578.5 90t-397.5 261t-144 397v2q0 226 144 397t397.5 261t578.5 90q254 0 469 -58.5t361.5 -164.5t206.5 -246h-228q-83 149 -303.5 230.5t-504.5 81.5q-182 0 -344 -37t-290 -108.5t-203 -186.5t-75 -259v-2q0 -144 75 -259t203 -186.5t290 -108.5
t344 -37q284 0 504.5 81.5t303.5 230.5h228q-60 -140 -206.5 -246t-361.5 -164.5t-469 -58.5zM698 1882h257l285 -178l284 178h256l-412 -264h-258z" />
    <glyph glyph-name="ccaron" unicode="&#x10d;" horiz-adv-x="1850" 
d="M954 -27q-173 0 -325.5 36t-270.5 104.5t-187 176.5t-69 243v2q0 135 69 243t187.5 176t270.5 104t325 36q148 0 279.5 -23t239.5 -67.5t184.5 -115t107.5 -160.5h-213q-41 76 -138 127.5t-212 72.5t-248 21q-125 0 -239 -25.5t-207 -74t-148.5 -130t-55.5 -184.5v-2
q0 -103 55.5 -184.5t148.5 -130.5t207 -74.5t240 -25.5q133 0 248 21t211.5 72t137.5 128h213q-31 -90 -107.5 -160.5t-184.5 -115t-239.5 -67.5t-279.5 -23zM416 1444h251l289 -150l287 150h251l-412 -234h-254z" />
    <glyph glyph-name="Dcaron" unicode="&#x10e;" horiz-adv-x="2214" 
d="M224 0v1444h779q112 0 216 -9t214 -32.5t204 -59t178 -93t143 -130.5t93.5 -174.5t34.5 -222.5v-2q0 -121 -34.5 -222.5t-93.5 -174.5t-143 -130.5t-178 -93t-204 -59t-214 -32.5t-216 -9h-779zM420 166h580q877 0 877 555v2q0 555 -877 555h-580v-1112zM414 1923h257
l285 -178l284 178h256l-412 -264h-258z" />
    <glyph glyph-name="dcaron" unicode="&#x10f;" horiz-adv-x="1992" 
d="M1963 1443h181l-51 -336h-130v336zM914 -27q-227 0 -409.5 64t-292.5 192.5t-110 302.5v2q0 131 63.5 237.5t174 176t258 107t316.5 37.5q256 0 430.5 -64t262.5 -168v583h189v-1443h-189v205q-88 -104 -262.5 -168t-430.5 -64zM962 117q95 0 185.5 13.5t177.5 45t152 78
t105 118.5t40 160v2q0 88 -40 159.5t-105 118t-152 78t-177.5 45t-185.5 13.5q-96 0 -186 -13t-177 -44.5t-151.5 -78t-104 -118t-39.5 -160.5v-2q0 -110 59 -193.5t157 -130t209.5 -69t232.5 -22.5z" />
    <glyph glyph-name="Dcroat" unicode="&#x110;" horiz-adv-x="2262" 
d="M56 651v158h217v635h779q112 0 216 -9t214.5 -32.5t204 -59t178 -93t143.5 -130.5t93.5 -174.5t34.5 -222.5v-2q0 -121 -34.5 -222.5t-93.5 -174.5t-143.5 -130.5t-178 -93t-204 -59t-214.5 -32.5t-216 -9h-779v651h-217zM469 166h580q878 0 878 555v2q0 555 -878 555
h-580v-469h667v-158h-667v-485z" />
    <glyph glyph-name="dcroat" unicode="&#x111;" horiz-adv-x="1992" 
d="M1066 1154v126h541v163h189v-163h206v-126h-206v-1154h-189v205q-88 -104 -262.5 -168t-430.5 -64q-227 0 -409.5 64t-292.5 192.5t-110 302.5v2q0 131 63.5 237.5t174 176t258 107t316.5 37.5q256 0 430.5 -64t262.5 -168v294h-541zM962 117q95 0 185.5 13.5t177.5 45
t152 78t105 118.5t40 160v2q0 88 -40 159.5t-105 118t-152 78t-177.5 45t-185.5 13.5q-96 0 -186 -13t-177 -44.5t-151.5 -78t-104 -118t-39.5 -160.5v-2q0 -110 59 -193.5t157 -130t209.5 -69t232.5 -22.5z" />
    <glyph glyph-name="Emacron" unicode="&#x112;" horiz-adv-x="2078" 
d="M224 0v1444h1703v-166h-1507v-461h1456v-166h-1456v-485h1509v-166h-1705zM573 1690v133h1007v-133h-1007z" />
    <glyph glyph-name="emacron" unicode="&#x113;" horiz-adv-x="1914" 
d="M964 -27q-181 0 -336 36t-273 104t-185 175.5t-67 243.5v2q0 135 68 242.5t186.5 176.5t273.5 105t333 36q132 0 249.5 -21t224 -68t186.5 -118t132.5 -176.5t65.5 -236.5v-1h-1516v-1q14 -90 73 -159.5t150.5 -111t202 -62.5t236.5 -21q215 0 382.5 49t239.5 150h215
q-77 -167 -300.5 -255.5t-540.5 -88.5zM959 950q-165 0 -297 -33t-228 -109.5t-124 -190.5v-1h1287v1q-24 88 -84.5 153.5t-147 104t-188 57t-218.5 18.5zM503 1262v129h905v-129h-905z" />
    <glyph glyph-name="Ebreve" unicode="&#x114;" horiz-adv-x="2078" 
d="M224 0v1444h1703v-166h-1507v-461h1456v-166h-1456v-485h1509v-166h-1705zM1078 1604q-197 0 -319 71.5t-150 206.5h183q14 -80 90.5 -119t195.5 -39t195.5 39t89.5 119h183q-28 -135 -149.5 -206.5t-318.5 -71.5z" />
    <glyph glyph-name="ebreve" unicode="&#x115;" horiz-adv-x="1914" 
d="M964 -27q-181 0 -336 36t-273 104t-185 175.5t-67 243.5v2q0 135 68 242.5t186.5 176.5t273.5 105t333 36q132 0 249.5 -21t224 -68t186.5 -118t132.5 -176.5t65.5 -236.5v-1h-1516v-1q14 -90 73 -159.5t150.5 -111t202 -62.5t236.5 -21q215 0 382.5 49t239.5 150h215
q-77 -167 -300.5 -255.5t-540.5 -88.5zM959 950q-165 0 -297 -33t-228 -109.5t-124 -190.5v-1h1287v1q-24 88 -84.5 153.5t-147 104t-188 57t-218.5 18.5zM956 1190q-416 0 -469 254h183q7 -39 31 -66t63.5 -41.5t85.5 -20.5t106 -6q125 0 198.5 29.5t86.5 104.5h183
q-53 -254 -468 -254z" />
    <glyph glyph-name="Edotaccent" unicode="&#x116;" horiz-adv-x="2078" 
d="M224 0v1444h1703v-166h-1507v-461h1456v-166h-1456v-485h1509v-166h-1705zM980 1652v230h196v-230h-196z" />
    <glyph glyph-name="edotaccent" unicode="&#x117;" horiz-adv-x="1914" 
d="M964 -27q-181 0 -336 36t-273 104t-185 175.5t-67 243.5v2q0 135 68 242.5t186.5 176.5t273.5 105t333 36q132 0 249.5 -21t224 -68t186.5 -118t132.5 -176.5t65.5 -236.5v-1h-1516v-1q14 -90 73 -159.5t150.5 -111t202 -62.5t236.5 -21q215 0 382.5 49t239.5 150h215
q-77 -167 -300.5 -255.5t-540.5 -88.5zM959 950q-165 0 -297 -33t-228 -109.5t-124 -190.5v-1h1287v1q-24 88 -84.5 153.5t-147 104t-188 57t-218.5 18.5zM861 1223v221h189v-221h-189z" />
    <glyph glyph-name="Eogonek" unicode="&#x118;" horiz-adv-x="2078" 
d="M224 0v1444h1703v-166h-1507v-461h1456v-166h-1456v-485h1509v-166h-1705zM1744 1h185q-121 -65 -121 -154q0 -48 35.5 -72t97.5 -24q55 0 111 21l45 -119q-85 -40 -198 -40q-120 0 -193 54t-73 144q0 108 111 190z" />
    <glyph glyph-name="eogonek" unicode="&#x119;" horiz-adv-x="1914" 
d="M964 -27q-181 0 -336 36t-273 104t-185 175.5t-67 243.5v2q0 135 68 242.5t186.5 176.5t273.5 105t333 36q132 0 249.5 -21t224 -68t186.5 -118t132.5 -176.5t65.5 -236.5v-1h-1516v-1q14 -90 73 -159.5t150.5 -111t202 -62.5t236.5 -21q215 0 382.5 49t239.5 150h215
q-77 -167 -300.5 -255.5t-540.5 -88.5zM959 950q-165 0 -297 -33t-228 -109.5t-124 -190.5v-1h1287v1q-24 88 -84.5 153.5t-147 104t-188 57t-218.5 18.5zM1075 1h185q-121 -65 -121 -154q0 -48 35.5 -72t97.5 -24q55 0 111 21l45 -119q-85 -40 -198 -40q-120 0 -193 54
t-73 144q0 108 111 190z" />
    <glyph glyph-name="Ecaron" unicode="&#x11a;" horiz-adv-x="2078" 
d="M224 0v1444h1703v-166h-1507v-461h1456v-166h-1456v-485h1509v-166h-1705zM536 1882h257l285 -178l284 178h256l-412 -264h-258z" />
    <glyph glyph-name="ecaron" unicode="&#x11b;" horiz-adv-x="1914" 
d="M964 -27q-181 0 -336 36t-273 104t-185 175.5t-67 243.5v2q0 135 68 242.5t186.5 176.5t273.5 105t333 36q132 0 249.5 -21t224 -68t186.5 -118t132.5 -176.5t65.5 -236.5v-1h-1516v-1q14 -90 73 -159.5t150.5 -111t202 -62.5t236.5 -21q215 0 382.5 49t239.5 150h215
q-77 -167 -300.5 -255.5t-540.5 -88.5zM959 950q-165 0 -297 -33t-228 -109.5t-124 -190.5v-1h1287v1q-24 88 -84.5 153.5t-147 104t-188 57t-218.5 18.5zM417 1444h251l289 -150l287 150h251l-412 -234h-254z" />
    <glyph glyph-name="Gcircumflex" unicode="&#x11c;" horiz-adv-x="2473" 
d="M1235 -27q-324 0 -576 90t-395.5 261t-143.5 397v2q0 226 144 397t397 261t579 90q245 0 458.5 -54.5t364.5 -157.5t210 -239h-225q-55 96 -183.5 164t-287 98.5t-334.5 30.5q-145 0 -278.5 -23t-249.5 -71t-201.5 -116.5t-135 -166t-49.5 -213.5v-2q0 -144 75 -259
t203.5 -186t291 -108t345.5 -37q129 0 250.5 16t231 50.5t191 83.5t129.5 120.5t48 156.5v41h-688v167h885v-767h-166l-6 278q-96 -131 -332.5 -217.5t-551.5 -86.5zM685 1618l412 264h258l412 -264h-256l-284 178l-285 -178h-257z" />
    <glyph glyph-name="gcircumflex" unicode="&#x11d;" horiz-adv-x="1992" 
d="M909 39q-223 0 -403 59.5t-290 180.5t-110 285v2q0 124 63.5 224.5t173.5 166t255 100.5t311 35q262 0 443.5 -63t258.5 -164v201h190v-879q0 -123 -46 -219t-123 -156.5t-187 -99.5t-229.5 -54.5t-259.5 -15.5q-329 0 -543 88.5t-266 269.5h213q73 -213 594 -213
q89 0 164 6t152.5 20.5t136.5 42t106.5 67t72.5 98.5t25 134v110q-78 -100 -259 -163t-443 -63zM963 182q79 0 155 9t150.5 27.5t137 49.5t111 72t75.5 98.5t27 125.5v2q0 81 -39 147t-103.5 109t-151 72t-177 41.5t-185.5 12.5q-97 0 -186.5 -11.5t-176.5 -39.5
t-150.5 -70.5t-102.5 -109.5t-39 -151v-2q0 -70 27 -128.5t75 -99.5t110 -71.5t137 -48t150.5 -26t155.5 -8.5zM419 1210l412 234h254l412 -234h-251l-287 150l-289 -150h-251z" />
    <glyph glyph-name="Gbreve" unicode="&#x11e;" horiz-adv-x="2473" 
d="M1235 -27q-324 0 -576 90t-395.5 261t-143.5 397v2q0 226 144 397t397 261t579 90q245 0 458.5 -54.5t364.5 -157.5t210 -239h-225q-55 96 -183.5 164t-287 98.5t-334.5 30.5q-145 0 -278.5 -23t-249.5 -71t-201.5 -116.5t-135 -166t-49.5 -213.5v-2q0 -144 75 -259
t203.5 -186t291 -108t345.5 -37q129 0 250.5 16t231 50.5t191 83.5t129.5 120.5t48 156.5v41h-688v167h885v-767h-166l-6 278q-96 -131 -332.5 -217.5t-551.5 -86.5zM1227 1604q-197 0 -319 71.5t-150 206.5h183q14 -80 90.5 -119t195.5 -39t195.5 39t89.5 119h183
q-28 -135 -149.5 -206.5t-318.5 -71.5z" />
    <glyph glyph-name="gbreve" unicode="&#x11f;" horiz-adv-x="1992" 
d="M909 39q-223 0 -403 59.5t-290 180.5t-110 285v2q0 124 63.5 224.5t173.5 166t255 100.5t311 35q262 0 443.5 -63t258.5 -164v201h190v-879q0 -123 -46 -219t-123 -156.5t-187 -99.5t-229.5 -54.5t-259.5 -15.5q-329 0 -543 88.5t-266 269.5h213q73 -213 594 -213
q89 0 164 6t152.5 20.5t136.5 42t106.5 67t72.5 98.5t25 134v110q-78 -100 -259 -163t-443 -63zM963 182q79 0 155 9t150.5 27.5t137 49.5t111 72t75.5 98.5t27 125.5v2q0 81 -39 147t-103.5 109t-151 72t-177 41.5t-185.5 12.5q-97 0 -186.5 -11.5t-176.5 -39.5
t-150.5 -70.5t-102.5 -109.5t-39 -151v-2q0 -70 27 -128.5t75 -99.5t110 -71.5t137 -48t150.5 -26t155.5 -8.5zM958 1190q-416 0 -469 254h183q7 -39 31 -66t63.5 -41.5t85.5 -20.5t106 -6q125 0 198.5 29.5t86.5 104.5h183q-53 -254 -468 -254z" />
    <glyph glyph-name="Gdotaccent" unicode="&#x120;" horiz-adv-x="2473" 
d="M1235 -27q-324 0 -576 90t-395.5 261t-143.5 397v2q0 226 144 397t397 261t579 90q245 0 458.5 -54.5t364.5 -157.5t210 -239h-225q-55 96 -183.5 164t-287 98.5t-334.5 30.5q-145 0 -278.5 -23t-249.5 -71t-201.5 -116.5t-135 -166t-49.5 -213.5v-2q0 -144 75 -259
t203.5 -186t291 -108t345.5 -37q129 0 250.5 16t231 50.5t191 83.5t129.5 120.5t48 156.5v41h-688v167h885v-767h-166l-6 278q-96 -131 -332.5 -217.5t-551.5 -86.5zM1129 1652v230h196v-230h-196z" />
    <glyph glyph-name="gdotaccent" unicode="&#x121;" horiz-adv-x="1992" 
d="M909 39q-223 0 -403 59.5t-290 180.5t-110 285v2q0 124 63.5 224.5t173.5 166t255 100.5t311 35q262 0 443.5 -63t258.5 -164v201h190v-879q0 -123 -46 -219t-123 -156.5t-187 -99.5t-229.5 -54.5t-259.5 -15.5q-329 0 -543 88.5t-266 269.5h213q73 -213 594 -213
q89 0 164 6t152.5 20.5t136.5 42t106.5 67t72.5 98.5t25 134v110q-78 -100 -259 -163t-443 -63zM963 182q79 0 155 9t150.5 27.5t137 49.5t111 72t75.5 98.5t27 125.5v2q0 81 -39 147t-103.5 109t-151 72t-177 41.5t-185.5 12.5q-97 0 -186.5 -11.5t-176.5 -39.5
t-150.5 -70.5t-102.5 -109.5t-39 -151v-2q0 -70 27 -128.5t75 -99.5t110 -71.5t137 -48t150.5 -26t155.5 -8.5zM863 1223v221h189v-221h-189z" />
    <glyph glyph-name="uni0122" unicode="&#x122;" horiz-adv-x="2473" 
d="M1235 -27q-324 0 -576 90t-395.5 261t-143.5 397v2q0 226 144 397t397 261t579 90q245 0 458.5 -54.5t364.5 -157.5t210 -239h-225q-55 96 -183.5 164t-287 98.5t-334.5 30.5q-145 0 -278.5 -23t-249.5 -71t-201.5 -116.5t-135 -166t-49.5 -213.5v-2q0 -144 75 -259
t203.5 -186t291 -108t345.5 -37q129 0 250.5 16t231 50.5t191 83.5t129.5 120.5t48 156.5v41h-688v167h885v-767h-166l-6 278q-96 -131 -332.5 -217.5t-551.5 -86.5zM897 -362l237 264h213l-259 -264h-191z" />
    <glyph glyph-name="uni0123" unicode="&#x123;" horiz-adv-x="1992" 
d="M909 39q-223 0 -403 59.5t-290 180.5t-110 285v2q0 124 63.5 224.5t173.5 166t255 100.5t311 35q262 0 443.5 -63t258.5 -164v201h190v-879q0 -123 -46 -219t-123 -156.5t-187 -99.5t-229.5 -54.5t-259.5 -15.5q-329 0 -543 88.5t-266 269.5h213q73 -213 594 -213
q89 0 164 6t152.5 20.5t136.5 42t106.5 67t72.5 98.5t25 134v110q-78 -100 -259 -163t-443 -63zM963 182q79 0 155 9t150.5 27.5t137 49.5t111 72t75.5 98.5t27 125.5v2q0 81 -39 147t-103.5 109t-151 72t-177 41.5t-185.5 12.5q-97 0 -186.5 -11.5t-176.5 -39.5
t-150.5 -70.5t-102.5 -109.5t-39 -151v-2q0 -70 27 -128.5t75 -99.5t110 -71.5t137 -48t150.5 -26t155.5 -8.5zM806 1241l378 264h218l-339 -264h-257z" />
    <glyph glyph-name="Hcircumflex" unicode="&#x124;" horiz-adv-x="2345" 
d="M224 0v1444h196v-627h1505v627h196v-1444h-196v651h-1505v-651h-196zM631 1618l412 264h258l412 -264h-256l-284 178l-285 -178h-257z" />
    <glyph glyph-name="hcircumflex" unicode="&#x125;" horiz-adv-x="1893" 
d="M197 0v1444h189v-595q69 107 229 175.5t398 68.5q331 0 519 -135.5t188 -405.5v-552h-189v513q0 213 -149.5 322.5t-423.5 109.5q-268 0 -420 -110t-152 -326v-509h-189zM-247 1587l412 234h254l412 -234h-251l-287 150l-289 -150h-251z" />
    <glyph glyph-name="Hbar" unicode="&#x126;" horiz-adv-x="2345" 
d="M224 0v1444h196v-627h1505v627h196v-1444h-196v651h-1505v-651h-196zM669 1690v133h1007v-133h-1007z" />
    <glyph glyph-name="hbar" unicode="&#x127;" horiz-adv-x="1893" 
d="M197 0v1155h-206v126h206v163h189v-163h540v-126h-540v-306q69 107 229 175.5t398 68.5q331 0 519 -135.5t188 -405.5v-552h-189v513q0 213 -149.5 322.5t-423.5 109.5q-268 0 -420 -110t-152 -326v-509h-189z" />
    <glyph glyph-name="Itilde" unicode="&#x128;" horiz-adv-x="645" 
d="M224 0v1444h196v-1444h-196zM-210 1624q6 121 78.5 187.5t199.5 66.5q73 0 144.5 -19.5t119 -43.5t105 -43.5t105.5 -19.5q73 0 108 30t38 96h163q-6 -121 -78 -187.5t-200 -66.5q-73 0 -144.5 20t-118.5 43.5t-104.5 43.5t-105.5 20q-74 0 -108.5 -30t-38.5 -97h-163z
" />
    <glyph glyph-name="itilde" unicode="&#x129;" horiz-adv-x="582" 
d="M197 0v1067h189v-1067h-189zM-240 1210q6 121 78.5 188t199.5 67q73 0 144.5 -20t119 -43.5t105 -43.5t105.5 -20q73 0 108 30t38 97h163q-6 -121 -78 -188t-200 -67q-73 0 -144.5 20t-118.5 44t-104.5 44t-105.5 20q-74 0 -108.5 -30.5t-38.5 -97.5h-163z" />
    <glyph glyph-name="Imacron" unicode="&#x12a;" horiz-adv-x="645" 
d="M224 0v1444h196v-1444h-196zM-182 1690v133h1007v-133h-1007z" />
    <glyph glyph-name="imacron" unicode="&#x12b;" horiz-adv-x="582" 
d="M197 0v1067h189v-1067h-189zM-161 1262v129h905v-129h-905z" />
    <glyph glyph-name="Iogonek" unicode="&#x12e;" horiz-adv-x="645" 
d="M224 0v1444h196v-1444h-196zM229 1h185q-121 -65 -121 -154q0 -48 35.5 -72t97.5 -24q55 0 111 21l45 -119q-85 -40 -198 -40q-120 0 -193 54t-73 144q0 108 111 190z" />
    <glyph glyph-name="iogonek" unicode="&#x12f;" horiz-adv-x="582" 
d="M197 0v1067h189v-1067h-189zM197 1215v229h189v-229h-189zM199 1h185q-121 -65 -121 -154q0 -48 35.5 -72t97.5 -24q55 0 111 21l45 -119q-85 -40 -198 -40q-120 0 -193 54t-73 144q0 108 111 190z" />
    <glyph glyph-name="Idotaccent" unicode="&#x130;" horiz-adv-x="645" 
d="M224 0v1444h196v-1444h-196zM224 1652v230h196v-230h-196z" />
    <glyph glyph-name="dotlessi" unicode="&#x131;" horiz-adv-x="582" 
d="M197 0v1067h189v-1067h-189z" />
    <glyph glyph-name="IJ" unicode="&#x132;" horiz-adv-x="2512" 
d="M224 0v1444h196v-1444h-196zM1530 -27q-161 0 -296.5 34.5t-239.5 102t-167 175.5t-74 248h220q9 -107 53.5 -185.5t119.5 -125t171 -69t216 -22.5q128 0 230 24t181 74t122 135t43 199v881h196v-878q0 -152 -58.5 -267t-164.5 -185.5t-244.5 -105.5t-307.5 -35z" />
    <glyph glyph-name="ij" unicode="&#x133;" horiz-adv-x="1248" 
d="M197 0v1067h189v-1067h-189zM197 1215v229h189v-229h-189zM463 -333v148h122q51 0 82 2t64.5 7.5t52 18t36 32t25.5 49.5t13 71t5 97v975h189v-984q0 -126 -24 -206t-82 -127t-142.5 -65t-218.5 -18h-122zM863 1215v229h189v-229h-189z" />
    <glyph glyph-name="Jcircumflex" unicode="&#x134;" horiz-adv-x="1799" 
d="M818 -27q-161 0 -296.5 34.5t-239.5 102t-167 175.5t-74 248h220q9 -107 53.5 -185.5t119.5 -125t171 -69t216 -22.5q128 0 230 24t181 74t122 135t43 199v881h196v-878q0 -152 -58.5 -267t-164.5 -185.5t-244.5 -105.5t-307.5 -35zM953 1618l412 264h258l412 -264h-256
l-284 178l-285 -178h-257z" />
    <glyph glyph-name="jcircumflex" unicode="&#x135;" horiz-adv-x="581" 
d="M-204 -333v147h122q59 0 94 2.5t71 12t54 27t33.5 49t21 76.5t5.5 110v976h189v-985q0 -101 -16.5 -171.5t-49 -118.5t-90 -75t-131.5 -38.5t-181 -11.5h-122zM-247 1210l412 234h254l412 -234h-251l-287 150l-289 -150h-251z" />
    <glyph glyph-name="uni0136" unicode="&#x136;" horiz-adv-x="2136" 
d="M224 0v1444h196v-650l1372 650h328l-1491 -711l1510 -733h-383l-1336 645v-645h-196zM768 -362l237 264h213l-259 -264h-191z" />
    <glyph glyph-name="uni0137" unicode="&#x137;" horiz-adv-x="1733" 
d="M197 0v1444h188v-851l998 474h320l-1092 -517l1153 -550h-364l-1014 481v-481h-189zM567 -362l237 264h213l-259 -264h-191z" />
    <glyph glyph-name="kgreenlandic" unicode="&#x138;" horiz-adv-x="1733" 
d="M197 0v1067h189v-481l1014 481h303l-1091 -524l1152 -543h-364l-1013 479v-479h-190z" />
    <glyph glyph-name="Lacute" unicode="&#x139;" horiz-adv-x="1887" 
d="M224 0v1444h196v-1278h1443v-166h-1639zM131 1618l406 264h293l-475 -264h-224z" />
    <glyph glyph-name="lacute" unicode="&#x13a;" horiz-adv-x="582" 
d="M197 0v1444h189v-1444h-189zM136 1587l310 234h287l-378 -234h-219z" />
    <glyph glyph-name="uni013B" unicode="&#x13b;" horiz-adv-x="1887" 
d="M224 0v1444h196v-1278h1443v-166h-1639zM705 -362l237 264h213l-259 -264h-191z" />
    <glyph glyph-name="uni013C" unicode="&#x13c;" horiz-adv-x="582" 
d="M197 0v1444h189v-1444h-189zM-44 -362l237 264h213l-259 -264h-191z" />
    <glyph glyph-name="Lcaron" unicode="&#x13d;" horiz-adv-x="1887" 
d="M224 0v1444h196v-1278h1443v-166h-1639zM1049 1649h181l-51 -336h-130v336z" />
    <glyph glyph-name="lcaron" unicode="&#x13e;" horiz-adv-x="582" 
d="M532 1444h181l-51 -336h-130v336zM197 0v1444h189v-1444h-189z" />
    <glyph glyph-name="Ldot" unicode="&#x13f;" horiz-adv-x="1888" 
d="M224 0v1444h196v-1278h1443v-166h-1639zM1442 671h-201v241h201v-241z" />
    <glyph glyph-name="ldot" unicode="&#x140;" horiz-adv-x="685" 
d="M197 0v1444h189v-1444h-189zM756 647h-202v242h202v-242z" />
    <glyph glyph-name="Lslash" unicode="&#x141;" horiz-adv-x="1969" 
d="M307 0v632l-209 -99v167l209 98v646h196v-554l621 291v-167l-621 -291v-557h1443v-166h-1639z" />
    <glyph glyph-name="lslash" unicode="&#x142;" horiz-adv-x="912" 
d="M373 0v680l-314 -145v155l314 144v610h189v-522l313 144v-154l-313 -144v-768h-189z" />
    <glyph glyph-name="Nacute" unicode="&#x143;" horiz-adv-x="2345" 
d="M224 0v1444h224l1475 -1224h2v1224h196v-1444h-225l-1474 1224h-2v-1224h-196zM1040 1618l406 264h293l-475 -264h-224z" />
    <glyph glyph-name="nacute" unicode="&#x144;" horiz-adv-x="1893" 
d="M197 0v1067h189v-211q68 106 227.5 171.5t399.5 65.5q331 0 519 -135.5t188 -405.5v-552h-189v513q0 213 -149.5 322.5t-423.5 109.5q-268 0 -420 -110t-152 -326v-509h-189zM801 1210l310 234h287l-378 -234h-219z" />
    <glyph glyph-name="uni0145" unicode="&#x145;" horiz-adv-x="2345" 
d="M224 0v1444h224l1475 -1224h2v1224h196v-1444h-225l-1474 1224h-2v-1224h-196zM848 -362l237 264h213l-259 -264h-191z" />
    <glyph glyph-name="uni0146" unicode="&#x146;" horiz-adv-x="1893" 
d="M197 0v1067h189v-211q68 106 227.5 171.5t399.5 65.5q331 0 519 -135.5t188 -405.5v-552h-189v513q0 213 -149.5 322.5t-423.5 109.5q-268 0 -420 -110t-152 -326v-509h-189zM620 -362l237 264h213l-259 -264h-191z" />
    <glyph glyph-name="Ncaron" unicode="&#x147;" horiz-adv-x="2345" 
d="M224 0v1444h224l1475 -1224h2v1224h196v-1444h-225l-1474 1224h-2v-1224h-196zM689 1882h257l285 -178l284 178h256l-412 -264h-258z" />
    <glyph glyph-name="ncaron" unicode="&#x148;" horiz-adv-x="1893" 
d="M197 0v1067h189v-211q68 106 227.5 171.5t399.5 65.5q331 0 519 -135.5t188 -405.5v-552h-189v513q0 213 -149.5 322.5t-423.5 109.5q-268 0 -420 -110t-152 -326v-509h-189zM420 1444h251l289 -150l287 150h251l-412 -234h-254z" />
    <glyph glyph-name="napostrophe" unicode="&#x149;" horiz-adv-x="1893" 
d="M197 0v1067h189v-211q68 106 227.5 171.5t399.5 65.5q331 0 519 -135.5t188 -405.5v-552h-189v513q0 213 -149.5 322.5t-423.5 109.5q-268 0 -420 -110t-152 -326v-509h-189zM386 1444l-105 -316h-182l122 316h165z" />
    <glyph glyph-name="Omacron" unicode="&#x14c;" 
d="M1249 -27q-326 0 -578.5 87t-398 258t-145.5 403v2q0 232 145.5 403t398 258t578.5 87q194 0 365 -32t309 -95t238 -152t154 -209t54 -260v-2q0 -140 -54 -260t-154 -209t-238 -152t-309 -95t-365 -32zM1249 130q189 0 353 38.5t289 110.5t197 186t72 256v2
q0 142 -72 255.5t-197 186t-289 111t-353 38.5t-353.5 -38.5t-290 -111t-197.5 -186t-72 -255.5v-2q0 -142 72 -256t197.5 -186t289.5 -110.5t354 -38.5zM750 1690v133h1007v-133h-1007z" />
    <glyph glyph-name="omacron" unicode="&#x14d;" horiz-adv-x="1977" 
d="M989 -27q-264 0 -464 66t-311.5 193.5t-111.5 300.5v2q0 173 111.5 300t311.5 193t464 66q263 0 463 -66t311.5 -193t111.5 -300v-2q0 -173 -111.5 -300.5t-311.5 -193.5t-463 -66zM989 118q140 0 262.5 26.5t217 76.5t149.5 130.5t55 181.5v2q0 134 -95.5 229.5
t-247.5 140t-341 44.5q-140 0 -262.5 -26t-217.5 -76t-150 -130.5t-55 -181.5v-2q0 -134 96 -230t248 -140.5t341 -44.5zM536 1262v129h905v-129h-905z" />
    <glyph glyph-name="Obreve" unicode="&#x14e;" 
d="M1249 -27q-326 0 -578.5 87t-398 258t-145.5 403v2q0 232 145.5 403t398 258t578.5 87q194 0 365 -32t309 -95t238 -152t154 -209t54 -260v-2q0 -140 -54 -260t-154 -209t-238 -152t-309 -95t-365 -32zM1249 130q189 0 353 38.5t289 110.5t197 186t72 256v2
q0 142 -72 255.5t-197 186t-289 111t-353 38.5t-353.5 -38.5t-290 -111t-197.5 -186t-72 -255.5v-2q0 -142 72 -256t197.5 -186t289.5 -110.5t354 -38.5zM1255 1604q-197 0 -319 71.5t-150 206.5h183q14 -80 90.5 -119t195.5 -39t195.5 39t89.5 119h183
q-28 -135 -149.5 -206.5t-318.5 -71.5z" />
    <glyph glyph-name="obreve" unicode="&#x14f;" horiz-adv-x="1977" 
d="M989 -27q-264 0 -464 66t-311.5 193.5t-111.5 300.5v2q0 173 111.5 300t311.5 193t464 66q263 0 463 -66t311.5 -193t111.5 -300v-2q0 -173 -111.5 -300.5t-311.5 -193.5t-463 -66zM989 118q140 0 262.5 26.5t217 76.5t149.5 130.5t55 181.5v2q0 134 -95.5 229.5
t-247.5 140t-341 44.5q-140 0 -262.5 -26t-217.5 -76t-150 -130.5t-55 -181.5v-2q0 -134 96 -230t248 -140.5t341 -44.5zM989 1190q-416 0 -469 254h183q7 -39 31 -66t63.5 -41.5t85.5 -20.5t106 -6q125 0 198.5 29.5t86.5 104.5h183q-53 -254 -468 -254z" />
    <glyph glyph-name="Ohungarumlaut" unicode="&#x150;" 
d="M1249 -27q-326 0 -578.5 87t-398 258t-145.5 403v2q0 232 145.5 403t398 258t578.5 87q194 0 365 -32t309 -95t238 -152t154 -209t54 -260v-2q0 -140 -54 -260t-154 -209t-238 -152t-309 -95t-365 -32zM1249 130q189 0 353 38.5t289 110.5t197 186t72 256v2
q0 142 -72 255.5t-197 186t-289 111t-353 38.5t-353.5 -38.5t-290 -111t-197.5 -186t-72 -255.5v-2q0 -142 72 -256t197.5 -186t289.5 -110.5t354 -38.5zM824 1618l406 264h293l-475 -264h-224zM1415 1618l406 264h292l-475 -264h-223z" />
    <glyph glyph-name="ohungarumlaut" unicode="&#x151;" horiz-adv-x="1977" 
d="M989 -27q-264 0 -464 66t-311.5 193.5t-111.5 300.5v2q0 173 111.5 300t311.5 193t464 66q263 0 463 -66t311.5 -193t111.5 -300v-2q0 -173 -111.5 -300.5t-311.5 -193.5t-463 -66zM989 118q140 0 262.5 26.5t217 76.5t149.5 130.5t55 181.5v2q0 134 -95.5 229.5
t-247.5 140t-341 44.5q-140 0 -262.5 -26t-217.5 -76t-150 -130.5t-55 -181.5v-2q0 -134 96 -230t248 -140.5t341 -44.5zM568 1210l312 234h285l-379 -234h-218zM1159 1210l311 234h286l-379 -234h-218z" />
    <glyph glyph-name="OE" unicode="&#x152;" horiz-adv-x="4029" 
d="M1249 -27q-326 0 -578.5 87t-398 258t-145.5 403v2q0 232 145.5 403t398 258t578.5 87q303 0 544 -81t382 -229v283h1703v-166h-1507v-461h1456v-166h-1456v-485h1509v-166h-1705v283q-141 -148 -382 -229t-544 -81zM1249 130q189 0 353 38.5t289 110.5t197 186t72 256v2
q0 142 -72 256t-197 186t-289 110.5t-353 38.5q-190 0 -354 -38.5t-289 -110.5t-197 -186t-72 -256v-2q0 -142 72 -256t197 -186t289 -110.5t354 -38.5z" />
    <glyph glyph-name="oe" unicode="&#x153;" horiz-adv-x="3490" 
d="M989 -27q-264 0 -464 66t-311.5 193.5t-111.5 300.5v2q0 173 112 300.5t311.5 193t463.5 65.5q274 0 480 -73.5t307 -208.5q102 136 305 209t457 73q132 0 249.5 -21t224 -68t186.5 -117.5t132.5 -176t65.5 -237.5v-1h-1516v-1q14 -90 73 -160t150.5 -111.5t202 -62.5
t236.5 -21q215 0 382.5 49t239.5 151h215q-77 -167 -300.5 -255.5t-540.5 -88.5q-257 0 -459.5 72t-303.5 209q-102 -135 -308 -208t-478 -73zM989 117q189 0 341 45t247.5 141t95.5 230v2q0 101 -55 181.5t-149.5 130.5t-217 76.5t-262.5 26.5q-189 0 -341 -44.5
t-248 -140.5t-96 -230v-2q0 -101 55 -181.5t150 -131t217.5 -77t262.5 -26.5zM2533 951q-165 0 -297 -33t-228 -110t-124 -191v-1h1287v1q-24 88 -84.5 153.5t-147 104.5t-188 57.5t-218.5 18.5z" />
    <glyph glyph-name="Racute" unicode="&#x154;" horiz-adv-x="2266" 
d="M224 0v1444h1273q136 0 239 -21t178.5 -65t114.5 -117t39 -173v-2q0 -280 -293 -351q76 -14 124 -42t81 -91t44 -166l20 -177q8 -84 17 -136.5t13.5 -67.5t12.5 -35h-206q-20 53 -31 149l-25 227q-7 65 -25.5 110t-45.5 72.5t-72 43t-94.5 20.5t-123.5 5h-1044v-627h-196
zM420 793h1045q204 0 299.5 53t95.5 190v2q0 137 -95.5 188.5t-300.5 51.5h-1044v-485zM837 1618l406 264h293l-475 -264h-224z" />
    <glyph glyph-name="racute" unicode="&#x155;" horiz-adv-x="1072" 
d="M197 0v1067h186v-257q62 120 221.5 196.5t357.5 76.5h83v-166h-104q-250 0 -402.5 -102.5t-152.5 -281.5v-533h-189zM462 1210l310 234h287l-378 -234h-219z" />
    <glyph glyph-name="uni0156" unicode="&#x156;" horiz-adv-x="2266" 
d="M224 0v1444h1273q136 0 239 -21t178.5 -65t114.5 -117t39 -173v-2q0 -280 -293 -351q76 -14 124 -42t81 -91t44 -166l20 -177q8 -84 17 -136.5t13.5 -67.5t12.5 -35h-206q-20 53 -31 149l-25 227q-7 65 -25.5 110t-45.5 72.5t-72 43t-94.5 20.5t-123.5 5h-1044v-627h-196
zM420 793h1045q204 0 299.5 53t95.5 190v2q0 137 -95.5 188.5t-300.5 51.5h-1044v-485zM774 -362l237 264h213l-259 -264h-191z" />
    <glyph glyph-name="uni0157" unicode="&#x157;" horiz-adv-x="1072" 
d="M197 0v1067h186v-257q62 120 221.5 196.5t357.5 76.5h83v-166h-104q-250 0 -402.5 -102.5t-152.5 -281.5v-533h-189zM-48 -362l237 264h213l-259 -264h-191z" />
    <glyph glyph-name="Rcaron" unicode="&#x158;" horiz-adv-x="2266" 
d="M224 0v1444h1273q136 0 239 -21t178.5 -65t114.5 -117t39 -173v-2q0 -280 -293 -351q76 -14 124 -42t81 -91t44 -166l20 -177q8 -84 17 -136.5t13.5 -67.5t12.5 -35h-206q-20 53 -31 149l-25 227q-7 65 -25.5 110t-45.5 72.5t-72 43t-94.5 20.5t-123.5 5h-1044v-627h-196
zM420 793h1045q204 0 299.5 53t95.5 190v2q0 137 -95.5 188.5t-300.5 51.5h-1044v-485zM486 1882h257l285 -178l284 178h256l-412 -264h-258z" />
    <glyph glyph-name="rcaron" unicode="&#x159;" horiz-adv-x="1072" 
d="M197 0v1067h186v-257q62 120 221.5 196.5t357.5 76.5h83v-166h-104q-250 0 -402.5 -102.5t-152.5 -281.5v-533h-189zM82 1444h251l289 -150l287 150h251l-412 -234h-254z" />
    <glyph glyph-name="Sacute" unicode="&#x15a;" horiz-adv-x="2263" 
d="M1167 -27q-205 0 -379.5 27.5t-317.5 83.5t-238 149t-127 216h224q97 -318 850 -318q776 0 776 268v2q0 58 -29.5 100.5t-84 71t-145.5 47t-199.5 28.5t-260.5 15l-325 11q-386 14 -568 114t-182 282v1q0 101 77 179.5t210.5 125.5t301.5 71t361 24q260 0 468 -47
t348.5 -145.5t179.5 -239.5h-225q-26 73 -100 127.5t-182 85.5t-232.5 46t-268.5 15q-152 0 -278 -12t-231.5 -38.5t-165 -74.5t-59.5 -113v-2q0 -74 58.5 -122t196 -76.5t364.5 -35.5l323 -11q168 -6 295 -21t235.5 -45.5t177.5 -75.5t107.5 -113t38.5 -158v-3
q0 -94 -48 -168.5t-134.5 -125t-212 -83.5t-273.5 -47.5t-326 -14.5zM905 1618l406 264h293l-475 -264h-224z" />
    <glyph glyph-name="sacute" unicode="&#x15b;" horiz-adv-x="1855" 
d="M958 -27q-236 0 -416 35.5t-303 117.5t-152 206h213q17 -52 61.5 -91t105.5 -63t145.5 -38.5t170 -20t190.5 -5.5q288 0 440 42t152 142v2q0 37 -19 63.5t-54 44t-94.5 28.5t-129.5 16t-170 8l-364 11q-315 8 -464 82.5t-149 218.5v2q0 102 100.5 175t273.5 109t399 36
q332 0 555.5 -81.5t273.5 -243.5h-213q-90 185 -616 185q-570 0 -570 -171v-2q0 -78 96 -113t319 -41l377 -11q106 -3 189.5 -10.5t159.5 -21.5t130 -37t94 -55t60 -77t20 -102v-2q0 -168 -212 -253t-599 -85zM742 1210l310 234h287l-378 -234h-219z" />
    <glyph glyph-name="Scircumflex" unicode="&#x15c;" horiz-adv-x="2263" 
d="M1167 -27q-205 0 -379.5 27.5t-317.5 83.5t-238 149t-127 216h224q97 -318 850 -318q776 0 776 268v2q0 58 -29.5 100.5t-84 71t-145.5 47t-199.5 28.5t-260.5 15l-325 11q-386 14 -568 114t-182 282v1q0 101 77 179.5t210.5 125.5t301.5 71t361 24q260 0 468 -47
t348.5 -145.5t179.5 -239.5h-225q-26 73 -100 127.5t-182 85.5t-232.5 46t-268.5 15q-152 0 -278 -12t-231.5 -38.5t-165 -74.5t-59.5 -113v-2q0 -74 58.5 -122t196 -76.5t364.5 -35.5l323 -11q168 -6 295 -21t235.5 -45.5t177.5 -75.5t107.5 -113t38.5 -158v-3
q0 -94 -48 -168.5t-134.5 -125t-212 -83.5t-273.5 -47.5t-326 -14.5zM554 1618l412 264h258l412 -264h-256l-284 178l-285 -178h-257z" />
    <glyph glyph-name="scircumflex" unicode="&#x15d;" horiz-adv-x="1855" 
d="M958 -27q-236 0 -416 35.5t-303 117.5t-152 206h213q17 -52 61.5 -91t105.5 -63t145.5 -38.5t170 -20t190.5 -5.5q288 0 440 42t152 142v2q0 37 -19 63.5t-54 44t-94.5 28.5t-129.5 16t-170 8l-364 11q-315 8 -464 82.5t-149 218.5v2q0 102 100.5 175t273.5 109t399 36
q332 0 555.5 -81.5t273.5 -243.5h-213q-90 185 -616 185q-570 0 -570 -171v-2q0 -78 96 -113t319 -41l377 -11q106 -3 189.5 -10.5t159.5 -21.5t130 -37t94 -55t60 -77t20 -102v-2q0 -168 -212 -253t-599 -85zM362 1210l412 234h254l412 -234h-251l-287 150l-289 -150h-251z
" />
    <glyph glyph-name="Scedilla" unicode="&#x15e;" horiz-adv-x="2263" 
d="M1167 -27q-205 0 -379.5 27.5t-317.5 83.5t-238 149t-127 216h224q97 -318 850 -318q776 0 776 268v2q0 58 -29.5 100.5t-84 71t-145.5 47t-199.5 28.5t-260.5 15l-325 11q-386 14 -568 114t-182 282v1q0 101 77 179.5t210.5 125.5t301.5 71t361 24q260 0 468 -47
t348.5 -145.5t179.5 -239.5h-225q-26 73 -100 127.5t-182 85.5t-232.5 46t-268.5 15q-152 0 -278 -12t-231.5 -38.5t-165 -74.5t-59.5 -113v-2q0 -74 58.5 -122t196 -76.5t364.5 -35.5l323 -11q168 -6 295 -21t235.5 -45.5t177.5 -75.5t107.5 -113t38.5 -158v-3
q0 -94 -48 -168.5t-134.5 -125t-212 -83.5t-273.5 -47.5t-326 -14.5zM1126 -413q-159 0 -315 50l37 85q119 -48 263 -48q188 0 188 69q0 33 -45.5 48t-113.5 15q-95 0 -155 -27l-75 57l220 192h142l-174 -151q47 14 118 14q50 0 95 -6.5t86 -21.5t65.5 -43t24.5 -67
q0 -79 -102 -122.5t-259 -43.5z" />
    <glyph glyph-name="scedilla" unicode="&#x15f;" horiz-adv-x="1855" 
d="M958 -27q-236 0 -416 35.5t-303 117.5t-152 206h213q17 -52 61.5 -91t105.5 -63t145.5 -38.5t170 -20t190.5 -5.5q288 0 440 42t152 142v2q0 37 -19 63.5t-54 44t-94.5 28.5t-129.5 16t-170 8l-364 11q-315 8 -464 82.5t-149 218.5v2q0 102 100.5 175t273.5 109t399 36
q332 0 555.5 -81.5t273.5 -243.5h-213q-90 185 -616 185q-570 0 -570 -171v-2q0 -78 96 -113t319 -41l377 -11q106 -3 189.5 -10.5t159.5 -21.5t130 -37t94 -55t60 -77t20 -102v-2q0 -168 -212 -253t-599 -85zM900 -413q-159 0 -315 50l37 85q119 -48 263 -48q188 0 188 69
q0 33 -45.5 48t-113.5 15q-95 0 -155 -27l-75 57l220 192h142l-174 -151q47 14 118 14q50 0 95 -6.5t86 -21.5t65.5 -43t24.5 -67q0 -79 -102 -122.5t-259 -43.5z" />
    <glyph glyph-name="Scaron" unicode="&#x160;" horiz-adv-x="2263" 
d="M1167 -27q-205 0 -379.5 27.5t-317.5 83.5t-238 149t-127 216h224q97 -318 850 -318q776 0 776 268v2q0 58 -29.5 100.5t-84 71t-145.5 47t-199.5 28.5t-260.5 15l-325 11q-386 14 -568 114t-182 282v1q0 101 77 179.5t210.5 125.5t301.5 71t361 24q260 0 468 -47
t348.5 -145.5t179.5 -239.5h-225q-26 73 -100 127.5t-182 85.5t-232.5 46t-268.5 15q-152 0 -278 -12t-231.5 -38.5t-165 -74.5t-59.5 -113v-2q0 -74 58.5 -122t196 -76.5t364.5 -35.5l323 -11q168 -6 295 -21t235.5 -45.5t177.5 -75.5t107.5 -113t38.5 -158v-3
q0 -94 -48 -168.5t-134.5 -125t-212 -83.5t-273.5 -47.5t-326 -14.5zM554 1882h257l285 -178l284 178h256l-412 -264h-258z" />
    <glyph glyph-name="scaron" unicode="&#x161;" horiz-adv-x="1855" 
d="M958 -27q-236 0 -416 35.5t-303 117.5t-152 206h213q17 -52 61.5 -91t105.5 -63t145.5 -38.5t170 -20t190.5 -5.5q288 0 440 42t152 142v2q0 37 -19 63.5t-54 44t-94.5 28.5t-129.5 16t-170 8l-364 11q-315 8 -464 82.5t-149 218.5v2q0 102 100.5 175t273.5 109t399 36
q332 0 555.5 -81.5t273.5 -243.5h-213q-90 185 -616 185q-570 0 -570 -171v-2q0 -78 96 -113t319 -41l377 -11q106 -3 189.5 -10.5t159.5 -21.5t130 -37t94 -55t60 -77t20 -102v-2q0 -168 -212 -253t-599 -85zM362 1444h251l289 -150l287 150h251l-412 -234h-254z" />
    <glyph glyph-name="uni0162" unicode="&#x162;" horiz-adv-x="2081" 
d="M943 0v1278h-919v166h2034v-166h-919v-1278h-196zM999 -413q-159 0 -315 50l37 85q119 -48 263 -48q188 0 188 69q0 33 -45.5 48t-113.5 15q-95 0 -155 -27l-75 57l220 192h142l-174 -151q47 14 118 14q50 0 95 -6.5t86 -21.5t65.5 -43t24.5 -67q0 -79 -102 -122.5
t-259 -43.5z" />
    <glyph glyph-name="uni0163" unicode="&#x163;" horiz-adv-x="1211" 
d="M840 0q-105 0 -174 9.5t-124.5 33.5t-85.5 68.5t-45.5 112t-15.5 166.5v530h-381v147h381v377h189v-377h535v-147h-535v-514q0 -70 8 -114t25.5 -74.5t54 -45t82 -20t122.5 -5.5h229v-147h-265zM684 -402q-159 0 -315 50l37 85q119 -48 263 -48q188 0 188 69
q0 33 -45.5 48t-113.5 15q-95 0 -155 -27l-75 57l220 192h142l-174 -151q47 14 118 14q50 0 95 -6.5t86 -21.5t65.5 -43t24.5 -67q0 -79 -102 -122.5t-259 -43.5z" />
    <glyph glyph-name="Tcaron" unicode="&#x164;" horiz-adv-x="2081" 
d="M943 0v1278h-919v166h2034v-166h-919v-1278h-196zM499 1882h257l285 -178l284 178h256l-412 -264h-258z" />
    <glyph glyph-name="tcaron" unicode="&#x165;" horiz-adv-x="1211" 
d="M840 0q-105 0 -174 9.5t-124.5 33.5t-85.5 68.5t-45.5 112t-15.5 166.5v530h-381v147h381v377h189v-377h535v-147h-535v-514q0 -70 8 -114t25.5 -74.5t54 -45t82 -20t122.5 -5.5h229v-147h-265zM740 1634h181l-51 -336h-130v336z" />
    <glyph glyph-name="Tbar" unicode="&#x166;" horiz-adv-x="2081" 
d="M943 0v695h-731v153h731v430h-919v166h2034v-166h-919v-430h731v-153h-731v-695h-196z" />
    <glyph glyph-name="tbar" unicode="&#x167;" horiz-adv-x="1211" 
d="M840 0q-105 0 -174 9.5t-124.5 33.5t-85.5 68.5t-45.5 112t-15.5 166.5v143h-381v146h381v241h-381v147h381v377h189v-377h535v-147h-535v-241h535v-146h-535v-127q0 -70 8 -114t25.5 -74.5t54 -45t82 -20t122.5 -5.5h229v-147h-265z" />
    <glyph glyph-name="Utilde" unicode="&#x168;" horiz-adv-x="2301" 
d="M1150 -27q-460 0 -706 179.5t-246 533.5v758h196v-753q0 -273 194.5 -416.5t561.5 -143.5t561.5 143.5t194.5 416.5v753h196v-758q0 -354 -246 -533.5t-706 -179.5zM618 1624q6 121 78.5 187.5t199.5 66.5q73 0 144.5 -19.5t119 -43.5t105 -43.5t105.5 -19.5q73 0 108 30
t38 96h163q-6 -121 -78 -187.5t-200 -66.5q-73 0 -144.5 20t-118.5 43.5t-104.5 43.5t-105.5 20q-74 0 -108.5 -30t-38.5 -97h-163z" />
    <glyph glyph-name="utilde" unicode="&#x169;" horiz-adv-x="1894" 
d="M881 -27q-331 0 -519.5 135.5t-188.5 405.5v553h189v-514q0 -216 149.5 -324.5t424.5 -108.5q270 0 421 109.5t151 327.5v510h189v-1067h-189v217q-69 -107 -229 -175.5t-398 -68.5zM404 1210q6 121 78.5 188t199.5 67q73 0 144.5 -20t119 -43.5t105 -43.5t105.5 -20
q73 0 108 30t38 97h163q-6 -121 -78 -188t-200 -67q-73 0 -144.5 20t-118.5 44t-104.5 44t-105.5 20q-74 0 -108.5 -30.5t-38.5 -97.5h-163z" />
    <glyph glyph-name="Umacron" unicode="&#x16a;" horiz-adv-x="2301" 
d="M1150 -27q-460 0 -706 179.5t-246 533.5v758h196v-753q0 -273 194.5 -416.5t561.5 -143.5t561.5 143.5t194.5 416.5v753h196v-758q0 -354 -246 -533.5t-706 -179.5zM646 1690v133h1007v-133h-1007z" />
    <glyph glyph-name="umacron" unicode="&#x16b;" horiz-adv-x="1894" 
d="M881 -27q-331 0 -519.5 135.5t-188.5 405.5v553h189v-514q0 -216 149.5 -324.5t424.5 -108.5q270 0 421 109.5t151 327.5v510h189v-1067h-189v217q-69 -107 -229 -175.5t-398 -68.5zM483 1262v129h905v-129h-905z" />
    <glyph glyph-name="Ubreve" unicode="&#x16c;" horiz-adv-x="2301" 
d="M1150 -27q-460 0 -706 179.5t-246 533.5v758h196v-753q0 -273 194.5 -416.5t561.5 -143.5t561.5 143.5t194.5 416.5v753h196v-758q0 -354 -246 -533.5t-706 -179.5zM1151 1604q-197 0 -319 71.5t-150 206.5h183q14 -80 90.5 -119t195.5 -39t195.5 39t89.5 119h183
q-28 -135 -149.5 -206.5t-318.5 -71.5z" />
    <glyph glyph-name="ubreve" unicode="&#x16d;" horiz-adv-x="1894" 
d="M881 -27q-331 0 -519.5 135.5t-188.5 405.5v553h189v-514q0 -216 149.5 -324.5t424.5 -108.5q270 0 421 109.5t151 327.5v510h189v-1067h-189v217q-69 -107 -229 -175.5t-398 -68.5zM936 1190q-416 0 -469 254h183q7 -39 31 -66t63.5 -41.5t85.5 -20.5t106 -6
q125 0 198.5 29.5t86.5 104.5h183q-53 -254 -468 -254z" />
    <glyph glyph-name="Uring" unicode="&#x16e;" horiz-adv-x="2301" 
d="M1150 -27q-460 0 -706 179.5t-246 533.5v758h196v-753q0 -273 194.5 -416.5t561.5 -143.5t561.5 143.5t194.5 416.5v753h196v-758q0 -354 -246 -533.5t-706 -179.5zM1151 1526q-99 0 -169 66.5t-70 166.5q0 99 70 166t169 67t169 -67t70 -166q0 -100 -70 -166.5
t-169 -66.5zM1151 1621q58 0 95 39t37 99q0 59 -37 98t-95 39t-95 -39t-37 -98q0 -60 37 -99t95 -39z" />
    <glyph glyph-name="uring" unicode="&#x16f;" horiz-adv-x="1894" 
d="M881 -27q-331 0 -519.5 135.5t-188.5 405.5v553h189v-514q0 -216 149.5 -324.5t424.5 -108.5q270 0 421 109.5t151 327.5v510h189v-1067h-189v217q-69 -107 -229 -175.5t-398 -68.5zM936 1187q-99 0 -169 66.5t-70 166.5t70 166.5t169 66.5t169 -66.5t70 -166.5
t-70 -166.5t-169 -66.5zM936 1283q58 0 95 39t37 98t-37 98t-95 39t-95 -39t-37 -98t37 -98t95 -39z" />
    <glyph glyph-name="Uhungarumlaut" unicode="&#x170;" horiz-adv-x="2301" 
d="M1150 -27q-460 0 -706 179.5t-246 533.5v758h196v-753q0 -273 194.5 -416.5t561.5 -143.5t561.5 143.5t194.5 416.5v753h196v-758q0 -354 -246 -533.5t-706 -179.5zM720 1618l406 264h293l-475 -264h-224zM1311 1618l406 264h292l-475 -264h-223z" />
    <glyph glyph-name="uhungarumlaut" unicode="&#x171;" horiz-adv-x="1894" 
d="M881 -27q-331 0 -519.5 135.5t-188.5 405.5v553h189v-514q0 -216 149.5 -324.5t424.5 -108.5q270 0 421 109.5t151 327.5v510h189v-1067h-189v217q-69 -107 -229 -175.5t-398 -68.5zM516 1210l312 234h285l-379 -234h-218zM1107 1210l311 234h286l-379 -234h-218z" />
    <glyph glyph-name="Uogonek" unicode="&#x172;" horiz-adv-x="2301" 
d="M1150 -27q-460 0 -706 179.5t-246 533.5v758h196v-753q0 -273 194.5 -416.5t561.5 -143.5t561.5 143.5t194.5 416.5v753h196v-758q0 -354 -246 -533.5t-706 -179.5zM1058 1h185q-121 -65 -121 -154q0 -48 35.5 -72t97.5 -24q55 0 111 21l45 -119q-85 -40 -198 -40
q-120 0 -193 54t-73 144q0 108 111 190z" />
    <glyph glyph-name="uogonek" unicode="&#x173;" horiz-adv-x="1894" 
d="M881 -27q-331 0 -519.5 135.5t-188.5 405.5v553h189v-514q0 -216 149.5 -324.5t424.5 -108.5q270 0 421 109.5t151 327.5v510h189v-1067h-189v217q-69 -107 -229 -175.5t-398 -68.5zM1510 1h185q-121 -65 -121 -154q0 -48 35.5 -72t97.5 -24q55 0 111 21l45 -119
q-85 -40 -198 -40q-120 0 -193 54t-73 144q0 108 111 190z" />
    <glyph glyph-name="Wcircumflex" unicode="&#x174;" horiz-adv-x="3360" 
d="M765 -5l-740 1449h211l660 -1279h1l666 1284h239l672 -1283h1l659 1278h202l-742 -1449h-251l-665 1276h-1l-662 -1276h-250zM1139 1618l412 264h258l412 -264h-256l-284 178l-285 -178h-257z" />
    <glyph glyph-name="wcircumflex" unicode="&#x175;" horiz-adv-x="2880" 
d="M662 -5l-638 1072h219l540 -908h1l566 911h206l570 -905h1l537 902h193l-639 -1072h-206l-571 913h-1l-569 -913h-209zM902 1210l412 234h254l412 -234h-251l-287 150l-289 -150h-251z" />
    <glyph glyph-name="Ycircumflex" unicode="&#x176;" horiz-adv-x="2238" 
d="M1022 0v565l-999 879h259l723 -629l115 -104l115 104l719 629h257l-993 -878v-566h-196zM576 1618l412 264h258l412 -264h-256l-284 178l-285 -178h-257z" />
    <glyph glyph-name="ycircumflex" unicode="&#x177;" horiz-adv-x="1818" 
d="M206 -333v148h192q106 0 161 12.5t96.5 45t103.5 110.5l30 36l-778 1048h232l661 -897l701 897h211l-873 -1119q-73 -93 -126 -145.5t-117 -84.5t-130 -41.5t-172 -9.5h-192zM374 1210l412 234h254l412 -234h-251l-287 150l-289 -150h-251z" />
    <glyph glyph-name="Ydieresis" unicode="&#x178;" horiz-adv-x="2238" 
d="M1022 0v565l-999 879h259l723 -629l115 -104l115 104l719 629h257l-993 -878v-566h-196zM595 1652v230h196v-230h-196zM1447 1652v230h196v-230h-196z" />
    <glyph glyph-name="Zacute" unicode="&#x179;" horiz-adv-x="1957" 
d="M80 0v166l1481 1112h-1425v166h1700v-166l-1480 -1112h1510v-166h-1786zM820 1618l406 264h293l-475 -264h-224z" />
    <glyph glyph-name="zacute" unicode="&#x17a;" horiz-adv-x="1710" 
d="M85 0v145l1204 775h-1174v147h1481v-145l-1213 -775h1242v-147h-1540zM730 1210l310 234h287l-378 -234h-219z" />
    <glyph glyph-name="Zdotaccent" unicode="&#x17b;" horiz-adv-x="1957" 
d="M80 0v166l1481 1112h-1425v166h1700v-166l-1480 -1112h1510v-166h-1786zM913 1652v230h196v-230h-196z" />
    <glyph glyph-name="zdotaccent" unicode="&#x17c;" horiz-adv-x="1710" 
d="M85 0v145l1204 775h-1174v147h1481v-145l-1213 -775h1242v-147h-1540zM794 1223v221h189v-221h-189z" />
    <glyph glyph-name="Zcaron" unicode="&#x17d;" horiz-adv-x="1957" 
d="M80 0v166l1481 1112h-1425v166h1700v-166l-1480 -1112h1510v-166h-1786zM469 1882h257l285 -178l284 178h256l-412 -264h-258z" />
    <glyph glyph-name="zcaron" unicode="&#x17e;" horiz-adv-x="1710" 
d="M85 0v145l1204 775h-1174v147h1481v-145l-1213 -775h1242v-147h-1540zM350 1444h251l289 -150l287 150h251l-412 -234h-254z" />
    <glyph glyph-name="uni01C5" unicode="&#x1c5;" horiz-adv-x="3880" 
d="M224 0v1444h779q112 0 216 -9t214 -32.5t204 -59t178 -93t143 -130.5t93.5 -174.5t34.5 -222.5v-2q0 -121 -34.5 -222.5t-93.5 -174.5t-143 -130.5t-178 -93t-204 -59t-214 -32.5t-216 -9h-779zM420 166h580q877 0 877 555v2q0 555 -877 555h-580v-1112zM2256 0v145
l1204 775h-1174v147h1481v-145l-1213 -775h1242v-147h-1540zM2521 1444h251l289 -150l287 150h251l-412 -234h-254z" />
    <glyph glyph-name="uni01C6" unicode="&#x1c6;" horiz-adv-x="3702" 
d="M914 -27q-227 0 -409.5 64t-292.5 192.5t-110 302.5v2q0 131 63.5 237.5t174 176t258 107t316.5 37.5q256 0 430.5 -64t262.5 -168v583h189v-1443h-189v205q-88 -104 -262.5 -168t-430.5 -64zM962 117q95 0 185.5 13.5t177.5 45t152 78t105 118.5t40 160v2
q0 88 -40 159.5t-105 118t-152 78t-177.5 45t-185.5 13.5q-96 0 -186 -13t-177 -44.5t-151.5 -78t-104 -118t-39.5 -160.5v-2q0 -110 59 -193.5t157 -130t209.5 -69t232.5 -22.5zM2077 0v145l1204 775h-1174v147h1481v-145l-1213 -775h1242v-147h-1540zM2342 1444h251
l289 -150l287 150h251l-412 -234h-254z" />
    <glyph glyph-name="uni01F2" unicode="&#x1f2;" horiz-adv-x="3880" 
d="M224 0v1444h779q112 0 216 -9t214 -32.5t204 -59t178 -93t143 -130.5t93.5 -174.5t34.5 -222.5v-2q0 -121 -34.5 -222.5t-93.5 -174.5t-143 -130.5t-178 -93t-204 -59t-214 -32.5t-216 -9h-779zM420 166h580q877 0 877 555v2q0 555 -877 555h-580v-1112zM2256 0v145
l1204 775h-1174v147h1481v-145l-1213 -775h1242v-147h-1540z" />
    <glyph glyph-name="uni01F3" unicode="&#x1f3;" horiz-adv-x="3702" 
d="M914 -27q-227 0 -409.5 64t-292.5 192.5t-110 302.5v2q0 131 63.5 237.5t174 176t258 107t316.5 37.5q256 0 430.5 -64t262.5 -168v583h189v-1443h-189v205q-88 -104 -262.5 -168t-430.5 -64zM962 117q95 0 185.5 13.5t177.5 45t152 78t105 118.5t40 160v2
q0 88 -40 159.5t-105 118t-152 78t-177.5 45t-185.5 13.5q-96 0 -186 -13t-177 -44.5t-151.5 -78t-104 -118t-39.5 -160.5v-2q0 -110 59 -193.5t157 -130t209.5 -69t232.5 -22.5zM2077 0v145l1204 775h-1174v147h1481v-145l-1213 -775h1242v-147h-1540z" />
    <glyph glyph-name="uni0218" unicode="&#x218;" horiz-adv-x="2263" 
d="M1167 -27q-205 0 -379.5 27.5t-317.5 83.5t-238 149t-127 216h224q97 -318 850 -318q776 0 776 268v2q0 58 -29.5 100.5t-84 71t-145.5 47t-199.5 28.5t-260.5 15l-325 11q-386 14 -568 114t-182 282v1q0 101 77 179.5t210.5 125.5t301.5 71t361 24q260 0 468 -47
t348.5 -145.5t179.5 -239.5h-225q-26 73 -100 127.5t-182 85.5t-232.5 46t-268.5 15q-152 0 -278 -12t-231.5 -38.5t-165 -74.5t-59.5 -113v-2q0 -74 58.5 -122t196 -76.5t364.5 -35.5l323 -11q168 -6 295 -21t235.5 -45.5t177.5 -75.5t107.5 -113t38.5 -158v-3
q0 -94 -48 -168.5t-134.5 -125t-212 -83.5t-273.5 -47.5t-326 -14.5zM829 -362l237 264h213l-259 -264h-191z" />
    <glyph glyph-name="uni0219" unicode="&#x219;" horiz-adv-x="1855" 
d="M958 -27q-236 0 -416 35.5t-303 117.5t-152 206h213q17 -52 61.5 -91t105.5 -63t145.5 -38.5t170 -20t190.5 -5.5q288 0 440 42t152 142v2q0 37 -19 63.5t-54 44t-94.5 28.5t-129.5 16t-170 8l-364 11q-315 8 -464 82.5t-149 218.5v2q0 102 100.5 175t273.5 109t399 36
q332 0 555.5 -81.5t273.5 -243.5h-213q-90 185 -616 185q-570 0 -570 -171v-2q0 -78 96 -113t319 -41l377 -11q106 -3 189.5 -10.5t159.5 -21.5t130 -37t94 -55t60 -77t20 -102v-2q0 -168 -212 -253t-599 -85zM603 -362l237 264h213l-259 -264h-191z" />
    <glyph glyph-name="uni021A" unicode="&#x21a;" horiz-adv-x="2129" 
d="M967 0v1278h-919v166h2034v-166h-919v-1278h-196zM726 -362l237 264h213l-259 -264h-191z" />
    <glyph glyph-name="uni021B" unicode="&#x21b;" horiz-adv-x="1211" 
d="M840 0q-105 0 -174 9.5t-124.5 33.5t-85.5 68.5t-45.5 112t-15.5 166.5v530h-381v147h381v377h189v-377h535v-147h-535v-514q0 -70 8 -114t25.5 -74.5t54 -45t82 -20t122.5 -5.5h229v-147h-265zM387 -351l237 264h213l-259 -264h-191z" />
    <glyph glyph-name="uni0237" unicode="&#x237;" horiz-adv-x="581" 
d="M-204 -333v147h122q59 0 94 2.5t71 12t54 27t33.5 49t21 76.5t5.5 110v976h189v-985q0 -101 -16.5 -171.5t-49 -118.5t-90 -75t-131.5 -38.5t-181 -11.5h-122z" />
    <glyph glyph-name="uni02BC" unicode="&#x2bc;" horiz-adv-x="383" 
d="M336 1505l-105 -316h-182l122 316h165z" />
    <glyph glyph-name="circumflex" unicode="&#x2c6;" horiz-adv-x="1132" 
d="M27 1210l412 234h254l412 -234h-251l-287 150l-289 -150h-251z" />
    <glyph glyph-name="caron" unicode="&#x2c7;" horiz-adv-x="1132" 
d="M27 1444h251l289 -150l287 150h251l-412 -234h-254z" />
    <glyph glyph-name="uni02C9" unicode="&#x2c9;" horiz-adv-x="960" 
d="M27 1262v129h905v-129h-905z" />
    <glyph glyph-name="breve" unicode="&#x2d8;" horiz-adv-x="991" 
d="M496 1190q-416 0 -469 254h183q7 -39 31 -66t63.5 -41.5t85.5 -20.5t106 -6q125 0 198.5 29.5t86.5 104.5h183q-53 -254 -468 -254z" />
    <glyph glyph-name="dotaccent" unicode="&#x2d9;" horiz-adv-x="244" 
d="M27 1223v221h189v-221h-189z" />
    <glyph glyph-name="ring" unicode="&#x2da;" horiz-adv-x="532" 
d="M266 1187q-99 0 -169 66.5t-70 166.5t70 166.5t169 66.5t169 -66.5t70 -166.5t-70 -166.5t-169 -66.5zM266 1283q58 0 95 39t37 98t-37 98t-95 39t-95 -39t-37 -98t37 -98t95 -39z" />
    <glyph glyph-name="ogonek" unicode="&#x2db;" horiz-adv-x="518" 
d="M138 1h185q-121 -65 -121 -154q0 -48 35.5 -72t97.5 -24q55 0 111 21l45 -119q-85 -40 -198 -40q-120 0 -193 54t-73 144q0 108 111 190z" />
    <glyph glyph-name="tilde" unicode="&#x2dc;" horiz-adv-x="1117" 
d="M27 1210q6 121 78.5 188t199.5 67q73 0 144.5 -20t119 -43.5t105 -43.5t105.5 -20q73 0 108 30t38 97h163q-6 -121 -78 -188t-200 -67q-73 0 -144.5 20t-118.5 44t-104.5 44t-105.5 20q-74 0 -108.5 -30.5t-38.5 -97.5h-163z" />
    <glyph glyph-name="hungarumlaut" unicode="&#x2dd;" horiz-adv-x="1242" 
d="M27 1210l312 234h285l-379 -234h-218zM618 1210l311 234h286l-379 -234h-218z" />
    <glyph glyph-name="uni030C" unicode="&#x30c;" horiz-adv-x="263" 
d="M48 1505h181l-51 -336h-130v336z" />
    <glyph glyph-name="uni0326" unicode="&#x326;" horiz-adv-x="504" 
d="M27 -362l237 264h213l-259 -264h-191z" />
    <glyph glyph-name="uni0327" unicode="&#x327;" horiz-adv-x="650" 
d="M27 1241l378 264h218l-339 -264h-257z" />
    <glyph glyph-name="uni0394" unicode="&#x394;" horiz-adv-x="2055" 
d="M9 0l902 1505h233l902 -1505h-2037zM284 144h1487l-743 1225z" />
    <glyph glyph-name="uni03A9" unicode="&#x3a9;" horiz-adv-x="2400" 
d="M135 0v158h559q-254 105 -399 272t-145 385v2q0 208 135 371.5t374.5 253.5t541.5 90t541 -90t374 -253.5t135 -371.5v-2q0 -218 -145 -385t-399 -272h559v-158h-882v153q154 56 270.5 119t207 143t138 179.5t47.5 215.5v2q0 173 -110.5 304t-302 199.5t-433.5 68.5
q-243 0 -434.5 -68.5t-302 -199.5t-110.5 -304v-2q0 -116 47.5 -215.5t138 -179.5t207 -143t269.5 -119v-153h-881z" />
    <glyph glyph-name="uni03BC" unicode="&#x3bc;" horiz-adv-x="1894" 
d="M173 -333v1400h189v-514q0 -216 149.5 -324.5t424.5 -108.5q270 0 421 109.5t151 327.5v510h189v-1067h-189v217q-69 -107 -229 -175.5t-398 -68.5q-345 0 -519 150v-456h-189z" />
    <glyph glyph-name="pi" unicode="&#x3c0;" horiz-adv-x="1980" 
d="M329 0v923h-291v144h1842v-144h-291v-492q0 -160 64 -223.5t215 -63.5h12v-144h-51q-217 0 -323 91t-106 310v522h-882v-923h-189z" />
    <glyph glyph-name="Wgrave" unicode="&#x1e80;" horiz-adv-x="3360" 
d="M765 -5l-740 1449h211l660 -1279h1l666 1284h239l672 -1283h1l659 1278h202l-742 -1449h-251l-665 1276h-1l-662 -1276h-250zM1670 1618l-475 264h293l406 -264h-224z" />
    <glyph glyph-name="wgrave" unicode="&#x1e81;" horiz-adv-x="2880" 
d="M662 -5l-638 1072h219l540 -908h1l566 911h206l570 -905h1l537 902h193l-639 -1072h-206l-571 913h-1l-569 -913h-209zM1381 1210l-379 234h287l311 -234h-219z" />
    <glyph glyph-name="Wacute" unicode="&#x1e82;" horiz-adv-x="3360" 
d="M765 -5l-740 1449h211l660 -1279h1l666 1284h239l672 -1283h1l659 1278h202l-742 -1449h-251l-665 1276h-1l-662 -1276h-250zM1490 1618l406 264h293l-475 -264h-224z" />
    <glyph glyph-name="wacute" unicode="&#x1e83;" horiz-adv-x="2880" 
d="M662 -5l-638 1072h219l540 -908h1l566 911h206l570 -905h1l537 902h193l-639 -1072h-206l-571 913h-1l-569 -913h-209zM1283 1210l310 234h287l-378 -234h-219z" />
    <glyph glyph-name="Wdieresis" unicode="&#x1e84;" horiz-adv-x="3360" 
d="M765 -5l-740 1449h211l660 -1279h1l666 1284h239l672 -1283h1l659 1278h202l-742 -1449h-251l-665 1276h-1l-662 -1276h-250zM1158 1652v230h196v-230h-196zM2010 1652v230h196v-230h-196z" />
    <glyph glyph-name="wdieresis" unicode="&#x1e85;" horiz-adv-x="2880" 
d="M662 -5l-638 1072h219l540 -908h1l566 911h206l570 -905h1l537 902h193l-639 -1072h-206l-571 913h-1l-569 -913h-209zM939 1223v221h189v-221h-189zM1754 1223v221h189v-221h-189z" />
    <glyph glyph-name="endash" unicode="&#x2013;" horiz-adv-x="1547" 
d="M170 467v167h1207v-167h-1207z" />
    <glyph glyph-name="emdash" unicode="&#x2014;" horiz-adv-x="2647" 
d="M170 467v167h2308v-167h-2308z" />
    <glyph glyph-name="quoteleft" unicode="&#x2018;" horiz-adv-x="582" 
d="M477 1444l-137 -475h-212l183 475h166z" />
    <glyph glyph-name="quoteright" unicode="&#x2019;" horiz-adv-x="572" 
d="M138 969l137 475h211l-182 -475h-166z" />
    <glyph glyph-name="quotesinglbase" unicode="&#x201a;" horiz-adv-x="591" 
d="M76 -232l137 474h212l-183 -474h-166z" />
    <glyph glyph-name="quotedblleft" unicode="&#x201c;" horiz-adv-x="1039" 
d="M477 1444l-137 -475h-212l183 475h166zM934 1444l-137 -475h-211l183 475h165z" />
    <glyph glyph-name="quotedblright" unicode="&#x201d;" horiz-adv-x="1029" 
d="M594 969l139 475h210l-182 -475h-167zM138 969l137 475h211l-182 -475h-166z" />
    <glyph glyph-name="quotedblbase" unicode="&#x201e;" horiz-adv-x="1049" 
d="M76 -232l137 474h212l-183 -474h-166zM533 -232l138 474h211l-183 -474h-166z" />
    <glyph glyph-name="dagger" unicode="&#x2020;" horiz-adv-x="1417" 
d="M623 -197v1112h-560v152h560v438h170v-438h560v-152h-560v-1112h-170z" />
    <glyph glyph-name="daggerdbl" unicode="&#x2021;" horiz-adv-x="1537" 
d="M684 -197v450h-560v152h560v510h-560v152h560v438h170v-438h560v-152h-560v-510h560v-152h-560v-450h-170z" />
    <glyph glyph-name="bullet" unicode="&#x2022;" horiz-adv-x="1148" 
d="M205 540q0 150 106.5 256t254.5 106q160 0 268 -105.5t108 -256.5q0 -160 -107.5 -267.5t-268.5 -107.5q-149 0 -255 108.5t-106 266.5z" />
    <glyph glyph-name="ellipsis" unicode="&#x2026;" horiz-adv-x="1679" 
d="M1307 0v242h202v-242h-202zM739 0v242h202v-242h-202zM170 0v242h202v-242h-202z" />
    <glyph glyph-name="guilsinglleft" unicode="&#x2039;" horiz-adv-x="836" 
d="M477 194l-360 382l360 380h207l-355 -380l355 -382h-207z" />
    <glyph glyph-name="guilsinglright" unicode="&#x203a;" horiz-adv-x="836" 
d="M719 576l-359 -382h-207l355 382l-355 380h207z" />
    <glyph glyph-name="fraction" unicode="&#x2044;" horiz-adv-x="584" 
d="M-532 0l1439 1505h199l-1439 -1505h-199z" />
    <glyph glyph-name="Euro" unicode="&#x20ac;" horiz-adv-x="2791" 
d="M1645 -27q-400 0 -682.5 142.5t-375.5 383.5v1h-461l86 138h340q-17 111 9 220h-435l86 138h398v1q110 219 384.5 346.5t650.5 127.5q369 0 644 -125.5t371 -342.5h-200q-86 157 -300.5 241.5t-513.5 84.5q-294 0 -507 -88.5t-312 -243.5v-1h1076l-85 -138h-1053
q-30 -105 -11 -220h1149l-85 -138h-1020v-1q84 -177 306 -278.5t542 -101.5q300 0 514 82.5t300 239.5h200q-96 -217 -371 -342.5t-644 -125.5z" />
    <glyph glyph-name="uni20BF" unicode="&#x20bf;" horiz-adv-x="2244" 
d="M224 0v1444h455v290h172v-290h472v290h172v-290q272 -4 401.5 -94.5t129.5 -268.5v-2q0 -115 -58.5 -195t-163.5 -121v-2q133 -31 218.5 -116.5t85.5 -227.5v-1q0 -210 -154.5 -312t-458.5 -104v-252h-172v252h-472v-252h-172v252h-455zM420 823h1063q160 0 248 53
t88 181v1q0 67 -24 111.5t-71.5 67.5t-104 32t-136.5 9h-1063v-455zM420 166h1059q222 0 321.5 58.5t99.5 187.5v2q0 125 -94 184t-286 59h-1100v-491z" />
    <glyph glyph-name="uni2113" unicode="&#x2113;" horiz-adv-x="1293" 
d="M940 -15q-518 0 -576 415q-141 -56 -273 -102l-46 141q176 61 311 117v417q0 281 126 420.5t351 139.5q194 0 304.5 -96.5t110.5 -258.5q0 -200 -176 -370.5t-528 -330.5q6 -78 31.5 -137t63 -95t90.5 -58t108 -30t123 -8q113 0 242 23v-164q-145 -23 -262 -23zM542 638
q143 69 244 136.5t158.5 133t83 127t25.5 128.5q0 101 -60.5 163.5t-167.5 62.5q-131 0 -207 -95.5t-76 -301.5v-354z" />
    <glyph glyph-name="trademark" unicode="&#x2122;" horiz-adv-x="3034" 
d="M612 575v751h-546v118h1237v-118h-546v-751h-145zM1430 575v869h206l485 -757h2l486 757h203v-869h-145l2 725h-1l-474 -728h-146l-472 728h-1v-725h-145z" />
    <glyph glyph-name="uni2126" unicode="&#x2126;" horiz-adv-x="2402" 
d="M136 0v144h559q-251 104 -397.5 278t-146.5 393v2q0 208 135 371.5t374 253.5t541 90t541 -90t374 -253.5t135 -371.5v-2q0 -219 -146.5 -393t-397.5 -278h559v-144h-881v139q662 240 662 671v2q0 173 -110.5 304t-302 199.5t-433.5 68.5t-433.5 -68.5t-302 -199.5
t-110.5 -304v-2q0 -431 662 -671v-139h-881z" />
    <glyph glyph-name="estimated" unicode="&#x212e;" horiz-adv-x="1993" 
d="M1892 731h-1424v-366q0 -86 81 -166.5t217.5 -131t285.5 -50.5q194 0 374.5 83.5t288.5 205.5h72q-130 -154 -316 -244.5t-422 -90.5q-188 0 -355.5 62t-286 167t-187.5 249t-69 304q0 213 116 392.5t315.5 284t435.5 104.5q237 0 438 -104.5t318.5 -284.5t117.5 -392
v-22zM468 1160v-386h1106v386q0 59 -40.5 117t-111.5 105t-177 76.5t-227 29.5t-226 -29.5t-175 -76.5t-109.5 -105t-39.5 -117z" />
    <glyph glyph-name="arrowleft" unicode="&#x2190;" 
d="M764 -152l-686 686l687 687h231l-606 -604h2039v-166h-2039l606 -603h-232z" />
    <glyph glyph-name="arrowup" unicode="&#x2191;" horiz-adv-x="1529" 
d="M682 -555v1787l-604 -606v231l686 686l688 -686v-231l-605 606v-1787h-165z" />
    <glyph glyph-name="arrowright" unicode="&#x2192;" 
d="M2478 534l-686 -686h-232l606 603h-2039v166h2039l-606 604h231z" />
    <glyph glyph-name="arrowdown" unicode="&#x2193;" horiz-adv-x="1529" 
d="M895 1505v-1787l604 606v-231l-686 -686l-688 686v231l605 -606v1787h165z" />
    <glyph glyph-name="uni2196" unicode="&#x2196;" horiz-adv-x="1878" 
d="M78 -67v1134h1132l2 -163l-854 1l1441 -1442l-117 -118l-1442 1443l1 -855h-163z" />
    <glyph glyph-name="uni2197" unicode="&#x2197;" horiz-adv-x="1878" 
d="M1848 1067v-1134h-163l1 855l-1442 -1443l-117 118l1441 1442l-854 -1l2 163h1132z" />
    <glyph glyph-name="uni2198" unicode="&#x2198;" horiz-adv-x="1878" 
d="M1848 480v-1134h-1132l-2 163l854 -1l-1441 1442l117 118l1442 -1443l-1 855h163z" />
    <glyph glyph-name="uni2199" unicode="&#x2199;" horiz-adv-x="1878" 
d="M78 -654v1134h163l-1 -855l1442 1443l117 -118l-1441 -1442l854 1l-2 -163h-1132z" />
    <glyph glyph-name="uni21B0" unicode="&#x21b0;" 
d="M78 535l686 685h232l-607 -602h2040v-1012h-172v845h-1868l607 -603h-231z" />
    <glyph glyph-name="uni21B1" unicode="&#x21b1;" 
d="M1792 1220l686 -685l-687 -687h-231l607 603h-1868v-845h-172v1012h2040l-607 602h232z" />
    <glyph glyph-name="uni21B2" unicode="&#x21b2;" 
d="M764 -152l-686 686l687 687h231l-607 -604h1868v887h172v-1053h-2040l607 -603h-232z" />
    <glyph glyph-name="uni21B3" unicode="&#x21b3;" 
d="M2478 534l-686 -686h-232l607 603h-2040v1053h172v-887h1868l-607 604h231z" />
    <glyph glyph-name="partialdiff" unicode="&#x2202;" horiz-adv-x="1955" 
d="M979 -27q-258 0 -457 68.5t-309.5 195.5t-110.5 294v3q0 167 111.5 294.5t306.5 195.5t443 68q227 0 393 -69l1 2q-155 134 -415 260t-506 194l57 149q193 -57 382 -137t367 -187t313.5 -225t217 -257.5t81.5 -277.5v-2q0 -174 -110.5 -303.5t-308.5 -197.5t-456 -68z
M979 115q138 0 259 27.5t214 78.5t147 131.5t54 180.5v1q0 132 -94 228.5t-244 142.5t-336 46t-337 -46t-245 -142.5t-94 -228.5v-3q0 -132 94.5 -228t245 -142t336.5 -46z" />
    <glyph glyph-name="uni2206" unicode="&#x2206;" horiz-adv-x="2130" 
d="M47 0l902 1505h233l902 -1505h-2037zM322 144h1486l-742 1225z" />
    <glyph glyph-name="product" unicode="&#x220f;" horiz-adv-x="2378" 
d="M224 -197v1702h1930v-1702h-189v1544h-1552v-1544h-189z" />
    <glyph glyph-name="summation" unicode="&#x2211;" horiz-adv-x="1751" 
d="M80 -197v144l877 707l-877 708v143h1584v-151l-1311 1l861 -701l-861 -700l1311 1v-152h-1584z" />
    <glyph glyph-name="minus" unicode="&#x2212;" horiz-adv-x="1767" 
d="M181 651v165h1405v-165h-1405z" />
    <glyph glyph-name="uni2215" unicode="&#x2215;" horiz-adv-x="584" 
d="M-532 0l1439 1505h199l-1439 -1505h-199z" />
    <glyph glyph-name="uni2219" unicode="&#x2219;" horiz-adv-x="814" 
d="M306 431v242h202v-242h-202z" />
    <glyph glyph-name="radical" unicode="&#x221a;" horiz-adv-x="2204" 
d="M1163 0l-593 917h-531v150h651l561 -876h2l782 1314h210l-900 -1505h-182z" />
    <glyph glyph-name="infinity" unicode="&#x221e;" horiz-adv-x="2479" 
d="M627 389q-211 0 -346.5 95.5t-135.5 247.5t135.5 247t346.5 95q84 0 165.5 -19.5t162.5 -59t141 -76t144 -94.5q83 57 143 94t140.5 76.5t162.5 59t166 19.5q211 0 346.5 -95t135.5 -247t-135.5 -247.5t-346.5 -95.5q-84 0 -166 19.5t-162.5 59t-140.5 76.5t-143 94
q-84 -58 -144 -94.5t-141 -76t-162.5 -59t-165.5 -19.5zM627 539q117 0 226.5 50t245.5 143q-136 93 -246 142.5t-226 49.5q-123 0 -202.5 -52.5t-79.5 -139.5q0 -88 79.5 -140.5t202.5 -52.5zM1380 732q137 -94 246 -143.5t226 -49.5q123 0 202.5 52.5t79.5 140.5
q0 87 -79.5 139.5t-202.5 52.5q-116 0 -225 -49.5t-247 -142.5z" />
    <glyph glyph-name="integral" unicode="&#x222b;" horiz-adv-x="930" 
d="M-38 -417l25 145h34q130 0 192.5 81t91.5 288l132 911q19 131 49 219.5t82 153.5t131 94.5t191 29.5h73l-24 -144h-36q-129 0 -191 -81t-93 -289l-131 -910q-19 -131 -49 -220t-82 -153.5t-131 -94.5t-191 -30h-73z" />
    <glyph glyph-name="approxequal" unicode="&#x2248;" horiz-adv-x="1886" 
d="M335 280l-148 56q59 137 164 217t248 80q86 0 168 -23.5t145.5 -57.5t124 -68t128.5 -57.5t134 -23.5q99 0 157 51.5t102 146.5l148 -57q-59 -137 -164 -217t-249 -80q-84 0 -164.5 23.5t-143.5 57.5t-124 68t-130 57.5t-137 23.5q-99 0 -157 -51.5t-102 -145.5zM335 820
l-148 56q59 137 164 217t248 80q86 0 168 -23.5t145.5 -57.5t124 -68t128.5 -57.5t134 -23.5q99 0 157 51.5t102 146.5l148 -57q-59 -137 -164 -217t-249 -80q-84 0 -164.5 23.5t-143.5 57.5t-124 68t-130 57.5t-137 23.5q-99 0 -157 -51.5t-102 -145.5z" />
    <glyph glyph-name="notequal" unicode="&#x2260;" horiz-adv-x="1870" 
d="M181 912v167h849l173 330h175l-174 -330h485v-167h-568l-197 -357h765v-167h-848l-174 -329h-174l173 329h-485v167h568l198 357h-766z" />
    <glyph glyph-name="lessequal" unicode="&#x2264;" horiz-adv-x="1694" 
d="M128 787v177l1407 536v-186l-1186 -438l1186 -438v-186zM128 0v166h1407v-166h-1407z" />
    <glyph glyph-name="greaterequal" unicode="&#x2265;" horiz-adv-x="1694" 
d="M1566 964v-177l-1407 -535v186l1186 438l-1186 438v186zM1566 166v-166h-1407v166h1407z" />
    <glyph glyph-name="lozenge" unicode="&#x25ca;" horiz-adv-x="1757" 
d="M878 149h2l530 604l-530 604h-2l-531 -604zM781 0l-660 753l660 752h195l660 -752l-660 -753h-195z" />
    <glyph glyph-name="uniF8FF" unicode="&#xf8ff;" horiz-adv-x="635" 
 />
    <glyph glyph-name="acute.case" horiz-adv-x="753" 
d="M27 1618l406 264h293l-475 -264h-224z" />
    <glyph glyph-name="dieresis.case" horiz-adv-x="1102" 
d="M27 1652v230h196v-230h-196zM879 1652v230h196v-230h-196z" />
    <glyph glyph-name="caron.case" horiz-adv-x="1137" 
d="M27 1882h257l285 -178l284 178h256l-412 -264h-258z" />
    <glyph glyph-name="ring.case" horiz-adv-x="532" 
d="M266 1526q-99 0 -169 66.5t-70 166.5q0 99 70 166t169 67t169 -67t70 -166q0 -100 -70 -166.5t-169 -66.5zM266 1621q58 0 95 39t37 99q0 59 -37 98t-95 39t-95 -39t-37 -98q0 -60 37 -99t95 -39z" />
    <glyph glyph-name="circumflex.case" horiz-adv-x="1137" 
d="M27 1618l412 264h258l412 -264h-256l-284 178l-285 -178h-257z" />
    <glyph glyph-name="tilde.case" horiz-adv-x="1116" 
d="M27 1624q6 121 78.5 187.5t199.5 66.5q73 0 144.5 -19.5t119 -43.5t105 -43.5t105.5 -19.5q73 0 108 30t38 96h163q-6 -121 -78 -187.5t-200 -66.5q-73 0 -144.5 20t-118.5 43.5t-104.5 43.5t-105.5 20q-74 0 -108.5 -30t-38.5 -97h-163z" />
    <glyph glyph-name="grave.case" horiz-adv-x="753" 
d="M502 1618l-475 264h293l406 -264h-224z" />
    <glyph glyph-name="macron.case" horiz-adv-x="1061" 
d="M27 1690v133h1007v-133h-1007z" />
    <glyph glyph-name="a_uni0331.3" horiz-adv-x="1137" 
d="M27 1882h257l285 -178l284 178h256l-412 -264h-258z" />
    <glyph glyph-name="dotaccent.case" horiz-adv-x="250" 
d="M27 1652v230h196v-230h-196z" />
    <glyph glyph-name="breve.case" horiz-adv-x="991" 
d="M496 1604q-197 0 -319 71.5t-150 206.5h183q14 -80 90.5 -119t195.5 -39t195.5 39t89.5 119h183q-28 -135 -149.5 -206.5t-318.5 -71.5z" />
    <glyph glyph-name="commaaccent.salt" horiz-adv-x="504" 
d="M27 -362l237 264h213l-259 -264h-191z" />
    <glyph glyph-name="hungarumlaut.case" horiz-adv-x="1330" 
d="M27 1618l406 264h293l-475 -264h-224zM618 1618l406 264h292l-475 -264h-223z" />
    <glyph glyph-name="emdash.case" horiz-adv-x="2259" 
d="M181 651v166h1897v-166h-1897z" />
    <glyph glyph-name="endash.case" horiz-adv-x="1568" 
d="M181 651v166h1207v-166h-1207z" />
    <glyph glyph-name="periodcentered.case" horiz-adv-x="561" 
d="M180 612v242h202v-242h-202z" />
    <glyph glyph-name="hyphen.case" horiz-adv-x="1133" 
d="M181 651v166h771v-166h-771z" />
    <glyph glyph-name="braceleft.case" horiz-adv-x="811" 
d="M544 -167q-158 0 -232.5 67t-74.5 230v317q0 105 -32.5 144.5t-126.5 70.5v121q64 21 94.5 41t47.5 60.5t17 113.5v316q0 163 74.5 230t232.5 67h169v-150h-139q-103 0 -134 -31.5t-31 -141.5v-269q0 -123 -39 -190.5t-137 -104.5v-2q99 -38 137.5 -105.5t38.5 -191.5
v-268q0 -112 30.5 -143t134.5 -31h139v-150h-169z" />
    <glyph glyph-name="braceright.case" horiz-adv-x="811" 
d="M75 -167v150h138q104 0 134.5 31t30.5 143v268q0 124 39 192t138 105v2q-99 37 -138 104t-39 191v269q0 110 -31 141.5t-134 31.5h-138v150h168q159 0 233 -67t74 -230v-316q0 -73 17 -113.5t47.5 -60.5t94.5 -41v-121q-94 -31 -126.5 -70.5t-32.5 -144.5v-317
q0 -163 -74 -230t-233 -67h-168z" />
    <glyph glyph-name="bracketleft.case" horiz-adv-x="823" 
d="M221 -167v1778h542v-150h-369v-1478h369v-150h-542z" />
    <glyph glyph-name="bracketright.case" horiz-adv-x="823" 
d="M59 -167v150h370v1478h-370v150h542v-1778h-542z" />
    <glyph glyph-name="parenleft.case" horiz-adv-x="670" 
d="M431 -167q-129 169 -219 417t-90 473q0 224 90.5 472.5t218.5 415.5h166q-134 -186 -211.5 -421.5t-77.5 -466.5t77.5 -467t211.5 -423h-166z" />
    <glyph glyph-name="parenright.case" horiz-adv-x="669" 
d="M72 -167q134 187 211.5 423t77.5 467t-77.5 466.5t-211.5 421.5h166q128 -167 218.5 -415.5t90.5 -472.5q0 -225 -90 -473t-219 -417h-166z" />
    <glyph glyph-name="colon.case" horiz-adv-x="542" 
d="M170 200v242h202v-242h-202zM170 1025v242h202v-242h-202z" />
    <glyph glyph-name="exclamdown.case" horiz-adv-x="636" 
d="M483 1505v-242h-201v242h201zM452 1078l25 -448v-569h-189v569l26 448h138z" />
    <glyph glyph-name="questiondown.case" horiz-adv-x="2031" 
d="M1229 1505v-242h-201v242h201zM1078 178q358 0 540 83t192 267h213q-8 -162 -129.5 -274t-328.5 -166t-486 -54q-452 0 -698 99t-246 274v2q0 125 98.5 200.5t298.5 136.5l166 50q70 21 112 35.5t84.5 33.5t64.5 37t40.5 44.5t25.5 57.5t8 74h190q0 -67 -17 -119
t-49 -92.5t-86 -74.5t-119 -60.5t-157 -54.5l-159 -48q-172 -52 -236.5 -99t-64.5 -117v-1q0 -107 192.5 -170.5t550.5 -63.5z" />
    <glyph glyph-name="guillemotleft.case" horiz-adv-x="1399" 
d="M498 349l-360 382l360 381h207l-355 -381l355 -382h-207zM1024 349l-359 382l359 381h207l-355 -381l355 -382h-207z" />
    <glyph glyph-name="guillemotright.case" horiz-adv-x="1399" 
d="M1262 731l-360 -382h-207l355 382l-355 381h207zM735 731l-360 -382h-206l355 382l-355 381h206z" />
    <glyph glyph-name="guilsinglleft.case" horiz-adv-x="871" 
d="M495 351l-360 382l360 381h207l-354 -381l354 -382h-207z" />
    <glyph glyph-name="guilsinglright.case" horiz-adv-x="871" 
d="M736 733l-360 -382h-207l355 382l-355 381h207z" />
    <glyph glyph-name="bullet.case" horiz-adv-x="1172" 
d="M216 731q0 150 106.5 256.5t254.5 106.5q160 0 268.5 -105.5t108.5 -257.5q0 -160 -108 -267.5t-269 -107.5q-149 0 -255 108.5t-106 266.5z" />
    <glyph glyph-name="at.case" horiz-adv-x="2553" 
d="M1140 424q129 0 237 40.5t175 120t68 184.5v5q0 118 -104.5 192.5t-282.5 74.5q-208 0 -332.5 -98t-124.5 -245v-4q1 -128 99.5 -199t264.5 -71zM1105 306q-100 0 -188.5 24t-158 70.5t-111 121.5t-42.5 169v5q0 94 43.5 179t120.5 148.5t192 101t250 37.5
q150 0 265.5 -53.5t162.5 -137.5l20 156h155l-60 -447q-20 -140 15 -209t153 -69q65 0 128 25t117 73.5t87.5 130t33.5 183.5v4q0 112 -47 205t-132 159t-204.5 111.5t-262.5 67t-307 21.5q-229 0 -426 -53.5t-334.5 -146.5t-215.5 -223t-78 -279v-4q1 -287 226.5 -447
t612.5 -160q301 0 565 95l42 -129q-125 -47 -286.5 -73t-319.5 -26q-301 0 -530 89t-356.5 257t-127.5 392v5q0 174 94.5 328.5t258 265t392 175t487.5 64.5q184 0 347.5 -27t302.5 -82.5t239.5 -136t157 -193.5t56.5 -248v-4q0 -105 -33 -194.5t-86.5 -150t-124 -103.5
t-143.5 -62.5t-146 -19.5q-140 0 -214 60t-82 159q-73 -93 -207.5 -148.5t-300.5 -55.5z" />
    <glyph glyph-name="uni03BC.1" horiz-adv-x="1894" 
d="M173 -333v1400h189v-514q0 -216 149.5 -324.5t424.5 -108.5q270 0 421 109.5t151 327.5v510h189v-1067h-189v217q-69 -107 -229 -175.5t-398 -68.5q-345 0 -519 150v-456h-189z" />
    <glyph glyph-name="uni000D.1" horiz-adv-x="0" 
 />
    </font>
</defs>
</svg>
