<?xml version="1.0" standalone="no"?>
<!DOCTYPE svg PUBLIC "-//W3C//DTD SVG 1.1//EN" "http://www.w3.org/Graphics/SVG/1.1/DTD/svg11.dtd" >
<svg xmlns="http://www.w3.org/2000/svg" xmlns:xlink="http://www.w3.org/1999/xlink" version="1.1">
<metadata>
Created by FontForge 20201107 at Wed Sep 20 13:12:20 2023
 By 
(c)newglyph 2023
</metadata>
<defs>
<font id="BarlowCondensedNormal-ExtraBold" horiz-adv-x="1329" >
  <font-face 
    font-family="BarlowCondensed Normal Extra Bold"
    font-weight="800"
    font-stretch="normal"
    units-per-em="2048"
    panose-1="0 0 0 0 0 0 0 0 0 0"
    ascent="1638"
    descent="-410"
    x-height="1067"
    cap-height="1444"
    bbox="-342 -437 2711 1992"
    underline-thickness="102"
    underline-position="-256"
    unicode-range="U+000D-FB04"
  />
<missing-glyph horiz-adv-x="1034" 
d="M100 0v1444h834v-1444h-834zM519 768l338 629h-677zM149 80l343 637l-343 637v-1274zM886 84v1266l-340 -633zM185 47h667l-333 619z" />
    <glyph glyph-name="f_f" unicode="ff" horiz-adv-x="1712" 
d="M195 0v778h-142v289h142v43q0 102 25 166.5t83.5 102t140.5 51.5t210 14h157v-279h-113q-55 0 -72.5 -16t-17.5 -58v-24h203v-289h-203v-778h-413zM1055 0v778h-142v289h142v43q0 102 25 166.5t83.5 102t140.5 51.5t210 14h157v-279h-113q-55 0 -72.5 -16t-17.5 -58v-24
h203v-289h-203v-778h-413z" />
    <glyph glyph-name="fi" unicode="fi" horiz-adv-x="1497" 
d="M195 0v778h-142v289h142v43q0 102 25 166.5t83.5 102t140.5 51.5t210 14h157v-279h-113q-55 0 -72.5 -16t-17.5 -58v-24h203v-289h-203v-778h-413zM972 0v1067h413v-1067h-413zM972 1149v295h413v-295h-413z" />
    <glyph glyph-name="fl" unicode="fl" horiz-adv-x="1497" 
d="M195 0v778h-142v289h142v43q0 102 25 166.5t83.5 102t140.5 51.5t210 14h157v-279h-113q-55 0 -72.5 -16t-17.5 -58v-24h203v-289h-203v-778h-413zM972 0v1444h413v-1444h-413z" />
    <glyph glyph-name="f_f_i" unicode="ffi" horiz-adv-x="2358" 
d="M195 0v778h-142v289h142v43q0 102 25 166.5t83.5 102t140.5 51.5t210 14h157v-279h-113q-55 0 -72.5 -16t-17.5 -58v-24h203v-289h-203v-778h-413zM1055 0v778h-142v289h142v43q0 102 25 166.5t83.5 102t140.5 51.5t210 14h157v-279h-113q-55 0 -72.5 -16t-17.5 -58v-24
h203v-289h-203v-778h-413zM1833 0v1067h413v-1067h-413zM1833 1149v295h413v-295h-413z" />
    <glyph glyph-name="f_f_l" unicode="ffl" horiz-adv-x="2358" 
d="M195 0v778h-142v289h142v43q0 102 25 166.5t83.5 102t140.5 51.5t210 14h157v-279h-113q-55 0 -72.5 -16t-17.5 -58v-24h203v-289h-203v-778h-413zM1055 0v778h-142v289h142v43q0 102 25 166.5t83.5 102t140.5 51.5t210 14h157v-279h-113q-55 0 -72.5 -16t-17.5 -58v-24
h203v-289h-203v-778h-413zM1833 0v1444h413v-1444h-413z" />
    <glyph glyph-name=".notdef" horiz-adv-x="1034" 
d="M100 0v1444h834v-1444h-834zM519 768l338 629h-677zM149 80l343 637l-343 637v-1274zM886 84v1266l-340 -633zM185 47h667l-333 619z" />
    <glyph glyph-name="uni0000" horiz-adv-x="0" 
 />
    <glyph glyph-name="uni0000" horiz-adv-x="0" 
 />
    <glyph glyph-name="uni000D" unicode="&#xd;" horiz-adv-x="421" 
 />
    <glyph glyph-name="space" unicode=" " horiz-adv-x="421" 
 />
    <glyph glyph-name="exclam" unicode="!" horiz-adv-x="665" 
d="M124 0v392h420v-392h-420zM168 525l-51 544v375h432v-375l-51 -544h-330z" />
    <glyph glyph-name="quotedbl" unicode="&#x22;" horiz-adv-x="1153" 
d="M636 1444h428v-112l-26 -416h-376l-26 416v112zM90 1444h428v-112l-26 -416h-376l-26 416v112z" />
    <glyph glyph-name="numbersign" unicode="#" horiz-adv-x="1454" 
d="M218 0l46 353h-208l38 290h208l30 231h-207l38 290h206l44 341h295l-44 -341h233l44 341h295l-44 -341h205l-39 -290h-204l-30 -231h204l-38 -290h-205l-46 -353h-293l46 353h-234l-46 -353h-294zM595 643h235l30 231h-235z" />
    <glyph glyph-name="dollar" unicode="$" horiz-adv-x="1458" 
d="M565 -252v230q-228 36 -355.5 160t-154.5 305h434q41 -173 269 -173q105 0 164.5 31t59.5 91v2q0 61 -51 94.5t-164 54.5l-228 43q-222 41 -343.5 154.5t-121.5 296.5v2q0 168 134 284t357 146v227h306v-228q213 -31 335 -145.5t151 -296.5h-434q-38 144 -228 144
q-92 0 -145 -29.5t-53 -88.5v-2q0 -49 40 -80.5t126 -48.5l227 -43q261 -49 388 -154.5t127 -289.5v-3q0 -194 -144 -315.5t-390 -145.5v-222h-306z" />
    <glyph glyph-name="percent" unicode="%" horiz-adv-x="2159" 
d="M464 628q-186 0 -300 113t-114 312v2q0 199 113.5 311.5t300.5 112.5t301 -112.5t114 -311.5v-2q0 -199 -114 -312t-301 -113zM464 835q71 0 102.5 55.5t31.5 162.5v2q0 106 -31.5 161.5t-102.5 55.5t-102 -55t-31 -162v-2q0 -107 31 -162.5t102 -55.5zM564 0l649 1444
h383l-649 -1444h-383zM1695 -36q-186 0 -300 113t-114 312v2q0 200 113.5 313t300.5 113t300.5 -113t113.5 -313v-2q0 -199 -114 -312t-300 -113zM1695 171q71 0 102.5 55.5t31.5 162.5v2q0 108 -31.5 163.5t-102.5 55.5q-70 0 -101.5 -55.5t-31.5 -163.5v-2
q0 -107 31.5 -162.5t101.5 -55.5z" />
    <glyph glyph-name="ampersand" unicode="&#x26;" horiz-adv-x="1708" 
d="M614 -36q-262 0 -410.5 116t-148.5 311v5q0 269 340 418q-147 155 -147 312v3q0 151 127.5 251t349.5 100q228 0 351.5 -92.5t123.5 -243.5v-4q0 -113 -76.5 -202.5t-208.5 -147.5l191 -185q44 66 115 194h410q-99 -212 -278 -427l393 -372h-499l-138 130
q-111 -87 -230.5 -126.5t-264.5 -39.5zM715 977q125 67 125 151v2q0 46 -31.5 70t-83.5 24q-51 0 -81 -23.5t-30 -70.5v-2q0 -38 27 -73.5t74 -77.5zM666 253q115 0 219 90l-278 268q-138 -83 -138 -198v-2q0 -74 55.5 -116t141.5 -42z" />
    <glyph glyph-name="quotesingle" unicode="'" horiz-adv-x="607" 
d="M90 1444h428v-112l-26 -416h-376l-26 416v112z" />
    <glyph glyph-name="parenleft" unicode="(" horiz-adv-x="718" 
d="M347 -333q-124 161 -201.5 408t-77.5 481t77.5 480.5t201.5 407.5h345q-130 -187 -200.5 -420.5t-70.5 -467.5q0 -235 70.5 -468.5t200.5 -420.5h-345z" />
    <glyph glyph-name="parenright" unicode=")" horiz-adv-x="718" 
d="M26 -333q130 187 200.5 420.5t70.5 468.5q0 234 -70.5 467.5t-200.5 420.5h345q124 -161 201.5 -407.5t77.5 -480.5t-77.5 -481t-201.5 -408h-345z" />
    <glyph glyph-name="asterisk" unicode="*" horiz-adv-x="943" 
d="M338 650l-203 148l154 189l-235 62l78 239l227 -88l-13 244h252l-14 -244l227 88l78 -239l-235 -62l154 -189l-204 -148l-133 205z" />
    <glyph glyph-name="plus" unicode="+" horiz-adv-x="1307" 
d="M470 174v378h-377v345h377v376h365v-376h378v-345h-378v-378h-365z" />
    <glyph glyph-name="comma" unicode="," horiz-adv-x="643" 
d="M5 -222l148 614h420l-198 -614h-370z" />
    <glyph glyph-name="hyphen" unicode="-" horiz-adv-x="907" 
d="M105 375v345h696v-345h-696z" />
    <glyph glyph-name="period" unicode="." horiz-adv-x="627" 
d="M103 0v392h420v-392h-420z" />
    <glyph glyph-name="slash" unicode="/" horiz-adv-x="1104" 
d="M32 -255l628 1699h408l-628 -1699h-408z" />
    <glyph glyph-name="zero" unicode="0" horiz-adv-x="1605" 
d="M803 -36q-339 0 -529.5 200t-190.5 555v5q0 356 190.5 556t529.5 200q338 0 528.5 -200t190.5 -556v-5q0 -355 -190.5 -555t-528.5 -200zM803 271q136 0 210 104t74 344v5q0 240 -74 344t-210 104q-137 0 -211 -104t-74 -344v-5q0 -240 74 -344t211 -104z" />
    <glyph glyph-name="one" unicode="1" horiz-adv-x="934" 
d="M370 0v912h-328v344h47q166 0 245.5 37t123.5 151h340v-1444h-428z" />
    <glyph glyph-name="two" unicode="2" horiz-adv-x="1450" 
d="M66 0v33q0 240 132 407.5t427 322.5l91 50q115 61 161 111t46 114v1q0 66 -51 100t-142 34q-234 0 -231 -260h-404q1 118 34.5 213t92 160.5t141.5 109t179.5 63.5t208.5 20q179 0 312.5 -47t210 -142.5t76.5 -231.5v-1q0 -80 -22 -144t-72.5 -120t-114.5 -102.5
t-165 -104.5l-82 -48q-137 -79 -189 -114t-95 -80h744v-344h-1288z" />
    <glyph glyph-name="three" unicode="3" horiz-adv-x="1481" 
d="M752 -36q-117 0 -218 18.5t-187.5 58.5t-149 100t-100.5 147t-43 194h412q5 -53 22.5 -92t41.5 -61.5t59.5 -36t69.5 -18t78 -4.5q105 0 167.5 39.5t62.5 117.5v2q0 77 -64.5 115.5t-205.5 38.5h-94v307h94q113 0 169.5 39t56.5 107v2q0 69 -52 102t-143 33
q-102 0 -159.5 -41.5t-61.5 -138.5h-413q10 235 188.5 360.5t471.5 125.5q172 0 304 -43t210 -132.5t78 -215.5v-1q0 -106 -53 -188t-145 -122v-2q253 -88 253 -349v-2q0 -141 -84 -246t-230.5 -159.5t-334.5 -54.5z" />
    <glyph glyph-name="four" unicode="4" horiz-adv-x="1533" 
d="M804 0v306h-764v331l764 807h427v-808h243v-330h-243v-306h-427zM432 636h372v397h-2z" />
    <glyph glyph-name="five" unicode="5" horiz-adv-x="1441" 
d="M718 -36q-180 0 -323.5 51t-234 154.5t-102.5 244.5h414q44 -144 233 -144q103 0 167 52.5t64 144.5v2q0 95 -62.5 147t-164.5 52q-149 0 -222 -94h-389l153 870h1010v-343h-703l-44 -243q130 104 342 104q237 0 375.5 -132.5t138.5 -357.5v-1q0 -231 -179 -369
t-473 -138z" />
    <glyph glyph-name="six" unicode="6" horiz-adv-x="1468" 
d="M758 -36q-328 0 -501.5 190.5t-173.5 514.5v2q0 176 43 322t127 255.5t219 170.5t309 61q244 0 392.5 -119t180.5 -307h-403q-35 120 -183 120q-248 0 -262 -354q129 134 364 134q74 0 147 -18t140.5 -57.5t118.5 -95.5t82 -137.5t31 -178.5v-2q0 -156 -84.5 -271
t-226 -172.5t-320.5 -57.5zM743 270q100 0 164 50.5t64 140.5v2q0 90 -64 141.5t-164 51.5q-99 0 -163 -51.5t-64 -141.5v-2q0 -90 64 -140.5t163 -50.5z" />
    <glyph glyph-name="seven" unicode="7" horiz-adv-x="1301" 
d="M247 0q0 131 17.5 248t48 209.5t77 176.5t96.5 147t115.5 123.5t125.5 104.5t134 90h-822v345h1229v-345q-154 -103 -260.5 -207.5t-183.5 -235.5t-113 -292.5t-35 -363.5h-429z" />
    <glyph glyph-name="eight" unicode="8" horiz-adv-x="1484" 
d="M742 -36q-160 0 -288 36t-209 98t-124 143.5t-43 175.5v3q0 119 74.5 209t191.5 134v1q-104 47 -159.5 128.5t-55.5 190.5v2q0 177 161 285.5t452 108.5t452.5 -108.5t161.5 -285.5v-2q0 -109 -56 -190.5t-160 -128.5v-1q117 -44 192 -134t75 -209v-3q0 -94 -43 -175.5
t-124 -143.5t-209.5 -98t-288.5 -36zM742 891q88 0 141 37.5t53 103.5v1q0 65 -53 102.5t-141 37.5q-87 0 -140.5 -37.5t-53.5 -102.5v-1q0 -66 53.5 -103.5t140.5 -37.5zM742 270q101 0 162 44.5t61 117.5v2q0 74 -61 119.5t-162 45.5t-162 -45.5t-61 -119.5v-2
q0 -72 61 -117t162 -45z" />
    <glyph glyph-name="nine" unicode="9" horiz-adv-x="1468" 
d="M718 1480q328 0 501.5 -190.5t173.5 -514.5v-2q0 -176 -43 -322t-127 -255.5t-219 -170.5t-309 -61q-244 0 -392.5 118.5t-180.5 306.5h403q19 -63 64.5 -91t118.5 -28q248 0 262 354q-129 -134 -364 -134q-74 0 -147 18t-140.5 57.5t-118.5 95.5t-82 137.5t-31 178.5v2
q0 156 84.5 271t226 172.5t320.5 57.5zM733 1174q-100 0 -164 -50.5t-64 -140.5v-2q0 -90 64 -141.5t164 -51.5q99 0 163 51.5t64 141.5v2q0 90 -64 140.5t-163 50.5z" />
    <glyph glyph-name="colon" unicode=":" horiz-adv-x="627" 
d="M103 0v392h420v-392h-420zM103 675v392h420v-392h-420z" />
    <glyph glyph-name="semicolon" unicode=";" horiz-adv-x="679" 
d="M5 -222l148 614h420l-198 -614h-370zM154 675v392h420v-392h-420z" />
    <glyph glyph-name="less" unicode="&#x3c;" horiz-adv-x="1149" 
d="M93 573v304l934 484v-396l-497 -240v-1l497 -239v-395z" />
    <glyph glyph-name="equal" unicode="=" horiz-adv-x="1345" 
d="M130 801v345h1085v-345h-1085zM130 317v345h1085v-345h-1085z" />
    <glyph glyph-name="greater" unicode="&#x3e;" horiz-adv-x="1149" 
d="M1055 877v-304l-933 -483v395l496 239v1l-496 240v396z" />
    <glyph glyph-name="question" unicode="?" horiz-adv-x="1280" 
d="M397 0v392h420v-392h-420zM618 1182q-80 0 -124.5 -43.5t-44.5 -133.5h-403q9 225 166 350t429 125q276 0 429.5 -99.5t153.5 -270.5v-1q0 -107 -54.5 -188t-168.5 -145l-54 -33q-82 -49 -114 -93.5t-32 -124.5h-380q0 140 35.5 221t132.5 138l42 28q79 46 110 77t31 78
v1q0 55 -40 84.5t-114 29.5z" />
    <glyph glyph-name="at" unicode="@" horiz-adv-x="1691" 
d="M784 477q121 0 191 95.5t70 233.5v2q0 90 -49 142t-136 52q-112 0 -182.5 -93t-70.5 -221v-2q0 -103 46 -156t131 -53zM727 304q-64 0 -120.5 23t-102 67.5t-72.5 119.5t-27 171v2q0 125 51.5 236.5t153 184.5t231.5 73q83 0 145.5 -39.5t92.5 -102.5l14 104h170
l-61 -463q-27 -213 79 -213q80 0 133.5 96.5t53.5 260.5v2q0 250 -155 387.5t-414 137.5q-187 0 -335 -85.5t-229.5 -236.5t-81.5 -339v-2q0 -262 155.5 -416.5t426.5 -154.5q188 0 380 90l68 -158q-197 -102 -448 -102q-232 0 -407.5 92t-270.5 262.5t-95 396.5v2
q0 172 65 322.5t177 257t267.5 168t329.5 61.5q154 0 287.5 -41t237.5 -121t164 -210.5t60 -298.5v-2q0 -126 -33.5 -230.5t-88.5 -170.5t-124 -102t-142 -36q-82 0 -139.5 47t-69.5 137q-47 -85 -133.5 -131t-192.5 -46z" />
    <glyph glyph-name="A" unicode="A" horiz-adv-x="1609" 
d="M-5 0l534 1444h550l535 -1444h-456l-100 294h-525l-98 -294h-440zM639 631h313l-156 462h-2z" />
    <glyph glyph-name="B" unicode="B" horiz-adv-x="1499" 
d="M129 0v1444h710q255 0 385.5 -98.5t130.5 -267.5v-2q0 -106 -54 -188t-134 -122v-1q273 -78 273 -344v-2q0 -201 -151.5 -310t-432.5 -109h-727zM557 887h219q82 0 123 32t41 92v1q0 124 -164 124h-219v-249zM557 308h253q187 0 187 135v2q0 135 -187 135h-253v-272z" />
    <glyph glyph-name="C" unicode="C" horiz-adv-x="1648" 
d="M862 -36q-361 0 -577 206t-216 551v2q0 345 216 551t577 206q298 0 494 -144t250 -409h-434q-69 208 -312 208q-159 0 -251.5 -106.5t-92.5 -305.5v-2q0 -199 92.5 -305.5t251.5 -106.5q243 0 312 208h434q-54 -265 -250 -409t-494 -144z" />
    <glyph glyph-name="D" unicode="D" horiz-adv-x="1627" 
d="M129 0v1444h589q146 0 267.5 -22t229 -74t182 -133.5t117.5 -206.5t43 -286v-2q0 -156 -43 -279.5t-117.5 -205t-182 -135.5t-229.5 -77t-267 -23h-589zM557 337h154q99 0 169 17.5t124 59.5t80 118t26 188v2q0 113 -26 189t-80 118.5t-124 60t-169 17.5h-154v-770z" />
    <glyph glyph-name="E" unicode="E" horiz-adv-x="1368" 
d="M129 0v1444h1142v-345h-714v-202h649v-345h-649v-207h721v-345h-1149z" />
    <glyph glyph-name="F" unicode="F" horiz-adv-x="1327" 
d="M129 0v1444h1147v-345h-719v-202h655v-345h-655v-552h-428z" />
    <glyph glyph-name="G" unicode="G" horiz-adv-x="1715" 
d="M836 -36q-168 0 -309 51.5t-242.5 146.5t-158.5 238.5t-57 320.5v2q0 348 216 552.5t577 204.5q295 0 491 -131.5t253 -373.5h-434q-67 160 -294 160q-168 0 -265 -107t-97 -305v-2q0 -206 97 -315t266 -109q139 0 226 64.5t88 176.5h-374v305h787v-844h-298l-6 159
q-65 -86 -185.5 -140t-280.5 -54z" />
    <glyph glyph-name="H" unicode="H" horiz-adv-x="1599" 
d="M129 0v1445h428v-534h486v534h428v-1445h-428v539h-486v-539h-428z" />
    <glyph glyph-name="I" unicode="I" horiz-adv-x="685" 
d="M129 0v1444h428v-1444h-428z" />
    <glyph glyph-name="J" unicode="J" horiz-adv-x="1299" 
d="M597 -36q-290 0 -438.5 146.5t-148.5 406.5h427q0 -215 165 -215q79 0 116.5 51t37.5 164v926h428v-926q0 -260 -148.5 -406.5t-438.5 -146.5z" />
    <glyph glyph-name="K" unicode="K" horiz-adv-x="1523" 
d="M129 0v1444h428v-565l461 565h502l-575 -701l615 -743h-536l-467 555v-555h-428z" />
    <glyph glyph-name="L" unicode="L" horiz-adv-x="1210" 
d="M129 0v1444h428v-1099h633v-345h-1061z" />
    <glyph glyph-name="M" unicode="M" horiz-adv-x="2037" 
d="M129 0v1444h623l266 -1019h2l266 1019h623v-1444h-397v629l8 376h-2l-290 -1005h-418l-290 1005h-2l8 -376v-629h-397z" />
    <glyph glyph-name="N" unicode="N" horiz-adv-x="1620" 
d="M129 0v1444h468l504 -909h2l-11 365v544h398v-1444h-473l-500 863h-2l12 -365v-498h-398z" />
    <glyph glyph-name="O" unicode="O" horiz-adv-x="1760" 
d="M880 -36q-240 0 -424 92.5t-286 264.5t-102 400v2q0 228 102 400t286 264.5t424 92.5t424 -92.5t286 -264.5t102 -400v-2q0 -228 -102 -400t-286 -264.5t-424 -92.5zM880 309q163 0 264 108t101 304v2q0 196 -101 304t-264 108t-264 -108t-101 -304v-2q0 -196 101 -304
t264 -108z" />
    <glyph glyph-name="P" unicode="P" horiz-adv-x="1493" 
d="M129 0v1444h664q158 0 276 -25t208 -81t136 -153.5t46 -235.5v-2q0 -111 -30 -195.5t-84.5 -141t-137 -92.5t-181.5 -51t-225 -15h-244v-452h-428zM557 789h232q117 0 170.5 36.5t53.5 121.5v2q0 84 -54 121t-170 37h-232v-318z" />
    <glyph glyph-name="Q" unicode="Q" horiz-adv-x="1761" 
d="M880 -36q-240 0 -424 92.5t-286 264.5t-102 400v2q0 228 102 400t286 264.5t424 92.5t424 -92.5t286 -264.5t102 -400v-2q0 -179 -63.5 -324t-181.5 -245l338 -358h-436l-197 205q-126 -35 -272 -35zM880 309q163 0 264 108t101 304v2q0 196 -101 304t-264 108t-264 -108
t-101 -304v-2q0 -196 101 -304t264 -108z" />
    <glyph glyph-name="R" unicode="R" horiz-adv-x="1585" 
d="M129 0v1444h663q126 0 222 -10t182 -36.5t141 -70.5t87 -115t32 -168v-1q-1 -146 -71.5 -237t-178.5 -125q100 -33 153.5 -104t64.5 -192l15 -159q13 -125 19.5 -163t22.5 -63h-440q-17 46 -25 125l-17 176q-6 67 -19 106.5t-41.5 62t-67 29.5t-105.5 7h-209v-506h-428z
M557 810h232q116 0 169.5 36t53.5 119v2q0 83 -53.5 119t-169.5 36h-232v-312z" />
    <glyph glyph-name="S" unicode="S" horiz-adv-x="1471" 
d="M755 -36q-130 0 -238 24t-186 66.5t-135.5 103t-90 131.5t-44.5 154h434q41 -173 269 -173q105 0 164 31t59 92v1q0 61 -51 94.5t-164 54.5l-227 43q-222 41 -343.5 154t-121.5 296v2q0 129 80.5 229.5t226 156t330.5 55.5q287 0 449 -120t196 -333h-434
q-38 144 -228 144q-91 0 -144 -29.5t-53 -88.5v-2q0 -50 39.5 -81t126.5 -48l226 -43q261 -49 388 -154.5t127 -289.5v-3q0 -218 -178.5 -342.5t-476.5 -124.5z" />
    <glyph glyph-name="T" unicode="T" horiz-adv-x="1423" 
d="M497 0v1099h-474v345h1377v-345h-475v-1099h-428z" />
    <glyph glyph-name="U" unicode="U" horiz-adv-x="1557" 
d="M779 -36q-341 0 -502.5 149.5t-161.5 480.5v850h428v-847q0 -146 54 -217t182 -71q127 0 181.5 71t54.5 217v847h428v-850q0 -331 -161.5 -480.5t-502.5 -149.5z" />
    <glyph glyph-name="V" unicode="V" horiz-adv-x="1586" 
d="M518 0l-524 1444h453l373 -1031h1l344 1031h426l-522 -1444h-551z" />
    <glyph glyph-name="W" unicode="W" horiz-adv-x="2132" 
d="M347 0l-306 1444h437l181 -943h4l173 943h461l167 -947h6l186 947h435l-306 -1444h-542l-175 1029h-5l-174 -1029h-542z" />
    <glyph glyph-name="X" unicode="X" horiz-adv-x="1515" 
d="M-14 0l527 721l-511 723h511l261 -364l268 364h466l-507 -691l533 -753h-512l-281 394l-290 -394h-465z" />
    <glyph glyph-name="Y" unicode="Y" horiz-adv-x="1597" 
d="M585 0v504l-606 940h468l358 -579h1l351 579h458l-602 -940v-504h-428z" />
    <glyph glyph-name="Z" unicode="Z" horiz-adv-x="1405" 
d="M78 0v330l713 769h-700v345h1221v-329l-716 -770h735v-345h-1253z" />
    <glyph glyph-name="bracketleft" unicode="[" horiz-adv-x="852" 
d="M127 -333v1777h680v-306h-315v-1165h315v-306h-680z" />
    <glyph glyph-name="backslash" unicode="\" horiz-adv-x="1104" 
d="M440 1444l628 -1699h-408l-628 1699h408z" />
    <glyph glyph-name="bracketright" unicode="]" horiz-adv-x="852" 
d="M46 -333v306h316v1165h-316v306h680v-1777h-680z" />
    <glyph glyph-name="asciicircum" unicode="^" horiz-adv-x="1338" 
d="M46 585l404 859h438l404 -859h-386l-236 524h-1l-236 -524h-387z" />
    <glyph glyph-name="underscore" unicode="_" horiz-adv-x="1253" 
d="M72 -406v344h1109v-344h-1109z" />
    <glyph glyph-name="grave" unicode="`" horiz-adv-x="834" 
d="M393 1210l-302 234h476l221 -234h-395z" />
    <glyph glyph-name="a" unicode="a" horiz-adv-x="1286" 
d="M472 -36q-187 0 -302 91.5t-115 244.5v1q0 72 24.5 128.5t68.5 95.5t114 68t149.5 47.5t187.5 32.5q119 16 155 33.5t36 61.5v2q0 103 -145 103q-79 0 -122.5 -35.5t-45.5 -104.5h-376q5 185 145.5 285t399.5 100q131 0 224.5 -18t168 -62.5t111.5 -126t36 -201.5
l-3 -403q-2 -194 35 -308h-405q-6 63 -7 88q-102 -123 -334 -123zM610 220q76 0 122.5 37.5t46.5 117.5v138q-46 -18 -144 -47q-89 -26 -124.5 -54.5t-35.5 -80.5v-3q0 -50 37 -79t98 -29z" />
    <glyph glyph-name="b" unicode="b" horiz-adv-x="1373" 
d="M842 -36q-110 0 -191 40.5t-126 106.5v-111h-413v1443h413v-488q45 66 126 106.5t191 40.5q96 0 180.5 -37t149 -107t102 -179t37.5 -244v-4q0 -135 -37.5 -244t-102 -179t-149 -107t-180.5 -37zM697 252q89 0 136 73t47 206v4q0 133 -47 206t-136 73t-136.5 -73
t-47.5 -206v-4q0 -133 47.5 -206t136.5 -73z" />
    <glyph glyph-name="c" unicode="c" horiz-adv-x="1263" 
d="M644 -36q-270 0 -427.5 157.5t-157.5 416.5v2q0 259 158 416t429 157q255 0 400 -119t173 -315h-405q-12 76 -52.5 109.5t-108.5 33.5q-82 0 -126 -73.5t-44 -208.5v-2q0 -135 44 -209t126 -74q138 0 161 144h405q-28 -196 -174 -315.5t-401 -119.5z" />
    <glyph glyph-name="d" unicode="d" horiz-adv-x="1373" 
d="M531 -36q-96 0 -180.5 37t-149 107t-102 179t-37.5 244v4q0 135 37.5 244t102 179t149 107t180.5 37q110 0 191 -40.5t126 -106.5v488h413v-1443h-413v111q-45 -66 -126 -106.5t-191 -40.5zM676 252q89 0 136.5 73t47.5 206v4q0 133 -47.5 206t-136.5 73t-136 -73
t-47 -206v-4q0 -133 47 -206t136 -73z" />
    <glyph glyph-name="e" unicode="e" horiz-adv-x="1321" 
d="M663 -36q-279 0 -442 154t-163 420v2q0 173 79 304.5t214 200t304 68.5q158 0 278 -50.5t193 -142t108 -213t31 -268.5v-1h-800v-1q12 -95 69 -145.5t140 -50.5q65 0 112 23t66 69h399q-43 -162 -197.5 -265.5t-390.5 -103.5zM658 851q-84 0 -134.5 -50.5t-58.5 -134.5
v-1h386v1q-5 80 -55.5 132.5t-137.5 52.5z" />
    <glyph glyph-name="f" unicode="f" horiz-adv-x="851" 
d="M195 0v778h-142v289h142v43q0 102 25 166.5t83.5 102t140.5 51.5t210 14h157v-279h-113q-55 0 -72.5 -16t-17.5 -58v-24h203v-289h-203v-778h-413z" />
    <glyph glyph-name="g" unicode="g" horiz-adv-x="1378" 
d="M542 58q-96 0 -181 33t-152 96t-106 163.5t-39 226.5v2q0 125 39 226t105.5 165t152 98t181.5 34q108 0 189 -38t125 -102v104h412v-920q0 -116 -30.5 -204t-84 -144t-134 -91.5t-172 -49.5t-205.5 -14q-231 0 -371 92.5t-160 256.5h394q15 -48 51.5 -70.5t107.5 -22.5
q101 0 146.5 46.5t45.5 154.5v97q-44 -63 -125 -101t-189 -38zM681 346q88 0 137 61.5t49 169.5v2q0 108 -49 171.5t-137 63.5t-137.5 -63.5t-49.5 -171.5v-2q0 -108 49.5 -169.5t137.5 -61.5z" />
    <glyph glyph-name="h" unicode="h" 
d="M112 0v1444h413v-493q113 152 325 152q379 0 379 -429v-674h-413v596q0 103 -36 152.5t-110 49.5t-109.5 -49.5t-35.5 -152.5v-596h-413z" />
    <glyph glyph-name="i" unicode="i" horiz-adv-x="637" 
d="M112 0v1067h413v-1067h-413zM112 1149v295h413v-295h-413z" />
    <glyph glyph-name="j" unicode="j" horiz-adv-x="637" 
d="M-38 -333v291h44q71 0 88.5 19t17.5 95v995h413v-1018q0 -114 -19.5 -184.5t-70.5 -116.5t-133.5 -63.5t-214.5 -17.5h-125zM112 1149v295h413v-295h-413z" />
    <glyph glyph-name="k" unicode="k" horiz-adv-x="1326" 
d="M112 0v1444h413v-749l332 372h463l-439 -480l475 -587h-512l-319 393v-393h-413z" />
    <glyph glyph-name="l" unicode="l" horiz-adv-x="637" 
d="M112 0v1444h413v-1444h-413z" />
    <glyph glyph-name="m" unicode="m" horiz-adv-x="2033" 
d="M112 0v1067h413v-116q113 152 325 152q251 0 334 -187q62 96 159 141.5t210 45.5q379 0 379 -429v-674h-413v596q0 103 -35.5 152.5t-109.5 49.5t-109.5 -49.5t-35.5 -152.5v-596h-413v596q0 103 -36 152.5t-110 49.5t-109.5 -49.5t-35.5 -152.5v-596h-413z" />
    <glyph glyph-name="n" unicode="n" 
d="M112 0v1067h413v-116q113 152 325 152q379 0 379 -429v-674h-413v596q0 103 -36 152.5t-110 49.5t-109.5 -49.5t-35.5 -152.5v-596h-413z" />
    <glyph glyph-name="o" unicode="o" horiz-adv-x="1337" 
d="M669 -36q-277 0 -444 155.5t-167 418.5v2q0 262 167 417.5t444 155.5t444 -155.5t167 -417.5v-2q0 -263 -167 -418.5t-444 -155.5zM669 262q187 0 187 276v2q0 275 -187 275t-187 -275v-2q0 -276 187 -276z" />
    <glyph glyph-name="p" unicode="p" horiz-adv-x="1373" 
d="M842 -36q-110 0 -191 40.5t-126 106.5v-444h-413v1399h413v-111q45 66 126 106.5t191 40.5q96 0 180.5 -37t149 -107t102 -179t37.5 -244v-4q0 -135 -37.5 -244t-102 -179t-149 -107t-180.5 -37zM697 252q89 0 136 73t47 206v4q0 133 -47 206t-136 73t-136.5 -73
t-47.5 -206v-4q0 -133 47.5 -206t136.5 -73z" />
    <glyph glyph-name="q" unicode="q" horiz-adv-x="1371" 
d="M531 -36q-96 0 -180.5 37t-149 107t-102 179t-37.5 244v4q0 135 37.5 244t102 179t149 107t180.5 37q110 0 191 -40.5t126 -106.5v111h413v-1399h-413v444q-45 -66 -126 -106.5t-191 -40.5zM676 252q89 0 136.5 73t47.5 206v4q0 133 -47.5 206t-136.5 73t-136 -73
t-47 -206v-4q0 -133 47 -206t136 -73z" />
    <glyph glyph-name="r" unicode="r" horiz-adv-x="890" 
d="M112 0v1067h413v-217q37 105 118.5 170.5t192.5 65.5h20v-391h-87q-119 0 -181.5 -48.5t-62.5 -176.5v-470h-413z" />
    <glyph glyph-name="s" unicode="s" horiz-adv-x="1217" 
d="M619 -36q-259 0 -404.5 95.5t-159.5 272.5h400q8 -69 50 -98t120 -29q62 0 98.5 21.5t36.5 60.5v1q0 41 -35 61.5t-121 35.5l-185 32q-351 58 -351 340v2q0 158 145.5 255.5t375.5 97.5q492 0 536 -344h-398q-7 55 -39.5 79.5t-94.5 24.5q-53 0 -85.5 -20.5t-32.5 -54.5
v-2q0 -38 31.5 -58.5t101.5 -32.5l177 -29q196 -33 288.5 -115t92.5 -231v-2q0 -166 -145.5 -264.5t-401.5 -98.5z" />
    <glyph glyph-name="t" unicode="t" horiz-adv-x="892" 
d="M586 0q-159 0 -242.5 33t-114.5 101.5t-31 197.5v446h-147v289h147v338h413v-338h201v-289h-201v-356q0 -70 23.5 -91t88.5 -21h87v-310h-224z" />
    <glyph glyph-name="u" unicode="u" 
d="M481 -34q-379 0 -379 429v672h413v-594q0 -103 35.5 -152.5t109.5 -49.5t109.5 49.5t35.5 152.5v594h413v-1067h-413v130q-51 -77 -133.5 -120.5t-190.5 -43.5z" />
    <glyph glyph-name="v" unicode="v" horiz-adv-x="1257" 
d="M397 0l-398 1067h432l210 -661h1l210 661h406l-398 -1067h-463z" />
    <glyph glyph-name="w" unicode="w" horiz-adv-x="1871" 
d="M322 0l-301 1067h402l165 -672h1l166 672h361l169 -672h1l167 672h397l-300 -1067h-437l-178 693h-1l-175 -693h-437z" />
    <glyph glyph-name="x" unicode="x" horiz-adv-x="1263" 
d="M-16 0l431 540l-415 527h452l184 -254l186 254h444l-418 -520l429 -547h-452l-198 272l-202 -272h-441z" />
    <glyph glyph-name="y" unicode="y" horiz-adv-x="1277" 
d="M133 -333v290h146q61 0 83.5 10.5t39.5 52.5l7 16l-411 1031h418l222 -654h2l268 654h387l-475 -1082q-33 -76 -61.5 -126t-64 -87t-68 -56.5t-86 -31t-105.5 -14.5t-138 -3h-164z" />
    <glyph glyph-name="z" unicode="z" horiz-adv-x="1185" 
d="M78 0v301l548 456h-538v310h1001v-300l-553 -457h578v-310h-1036z" />
    <glyph glyph-name="braceleft" unicode="{" horiz-adv-x="794" 
d="M602 -333q-116 0 -191.5 18t-127.5 65t-74.5 127t-22.5 204v144q0 78 -13 119t-40.5 62.5t-87.5 41.5v216q60 20 87.5 41.5t40.5 62.5t13 120v142q0 124 22.5 204t74.5 127t127.5 65t191.5 18h123v-306h-54q-34 0 -54 -1.5t-37 -8.5t-24 -15.5t-12.5 -29.5t-6.5 -43.5
t-1 -63.5v-114q0 -143 -42.5 -204.5t-163.5 -100.5v-2q121 -39 163.5 -100.5t42.5 -204.5v-114q0 -62 2.5 -89.5t18 -47t39.5 -23t75 -3.5h54v-306h-123z" />
    <glyph glyph-name="bar" unicode="|" horiz-adv-x="622" 
d="M129 -333v1777h365v-1777h-365z" />
    <glyph glyph-name="braceright" unicode="}" horiz-adv-x="794" 
d="M70 -333v306h54q51 0 74.5 3.5t39 23t18 47t2.5 89.5v114q0 143 42.5 204t164.5 101v2q-122 40 -164.5 101t-42.5 204v114q0 41 -1 63.5t-6.5 43.5t-12.5 29.5t-24 15.5t-36.5 8.5t-53.5 1.5h-54v306l122 1q116 0 191.5 -18t127.5 -65.5t74.5 -127.5t22.5 -204v-142
q0 -79 13 -120t40.5 -62.5t87.5 -41.5v-216q-60 -20 -87.5 -41.5t-40.5 -62.5t-13 -119v-144q0 -124 -22.5 -204t-74.5 -127.5t-127.5 -65.5t-191.5 -18z" />
    <glyph glyph-name="asciitilde" unicode="~" horiz-adv-x="1344" 
d="M339 516l-274 120q53 159 150 249t237 90q61 0 123.5 -25t106 -54.5t95.5 -54.5t93 -25q86 0 141 131l274 -120q-53 -159 -150 -249t-236 -90q-67 0 -132 25t-107.5 54.5t-92 54.5t-87.5 25q-86 0 -141 -131z" />
    <glyph glyph-name="uni00A0" unicode="&#xa0;" horiz-adv-x="421" 
 />
    <glyph glyph-name="exclamdown" unicode="&#xa1;" horiz-adv-x="665" 
d="M552 1111v-392h-420v392h420zM508 586l51 -544v-375h-432v375l51 544h330z" />
    <glyph glyph-name="cent" unicode="&#xa2;" horiz-adv-x="1331" 
d="M505 211v205q-192 48 -299 194.5t-107 358.5v2q0 211 107.5 357.5t298.5 194.5v202h369v-204q168 -39 265.5 -147.5t119.5 -264.5h-405q-23 144 -161 144q-83 0 -127 -74t-44 -208v-2q0 -135 44 -209t127 -74q138 0 161 144h405q-22 -155 -119.5 -264.5t-265.5 -148.5
v-206h-369z" />
    <glyph glyph-name="sterling" unicode="&#xa3;" horiz-adv-x="1432" 
d="M117 0v321q208 83 208 217v3q0 20 -9 49h-240v302h149q-26 78 -26 144v6q0 204 157.5 321t421.5 117q90 0 168 -14.5t150.5 -48.5t127 -86t93 -130.5t52.5 -177.5h-426q-27 127 -169 127q-72 0 -112.5 -38t-40.5 -109v-4q0 -47 21 -107h493v-302h-381q8 -27 8 -54v-10
q0 -119 -117 -196h703v-330h-1231z" />
    <glyph glyph-name="currency" unicode="&#xa4;" horiz-adv-x="1457" 
d="M727 185q-158 0 -284 73l-195 -194l-181 181l195 196q-69 122 -69 275q0 155 70 276l-194 195l181 181l193 -194q126 73 284 73q160 0 286 -73l195 194l181 -181l-195 -195q69 -122 69 -276q0 -153 -69 -275l195 -196l-181 -181l-195 194q-126 -73 -286 -73zM727 478
q102 0 166.5 66t64.5 172t-64.5 172.5t-166.5 66.5q-101 0 -165 -66.5t-64 -172.5t64 -172t165 -66z" />
    <glyph glyph-name="yen" unicode="&#xa5;" horiz-adv-x="1722" 
d="M649 0v147h-406v257h406v64l-2 39h-404v257h238l-438 680h468l358 -579h1l351 579h458l-435 -680h235v-257h-400l-2 -39v-64h402v-257h-402v-147h-428z" />
    <glyph glyph-name="brokenbar" unicode="&#xa6;" horiz-adv-x="622" 
d="M129 700v744h365v-744h-365zM129 -333v744h365v-744h-365z" />
    <glyph glyph-name="section" unicode="&#xa7;" horiz-adv-x="1284" 
d="M656 -218q-255 0 -400.5 105.5t-162.5 292.5h400q22 -158 165 -158q57 0 91.5 26.5t34.5 74.5v1q0 53 -34.5 82t-116.5 47l-208 46q-174 38 -262 125t-88 213v1q0 161 150 267q-112 99 -112 261v2q0 169 140 271.5t373 102.5q231 0 366 -93t161 -280h-398
q-11 68 -44 100.5t-92 32.5q-53 0 -84 -26t-31 -69v-2q0 -92 133 -122l198 -42q195 -40 288 -123t93 -221v-1q0 -169 -144 -271q104 -91 104 -253v-3q0 -176 -138 -281.5t-382 -105.5zM533 783q-52 -34 -52 -89v-2q0 -42 32.5 -68.5t100.5 -42.5l140 -30q56 30 56 89v1
q0 45 -36 71t-120 44z" />
    <glyph glyph-name="dieresis" unicode="&#xa8;" horiz-adv-x="928" 
d="M47 1209v235h301v-235h-301zM579 1209v235h301v-235h-301z" />
    <glyph glyph-name="copyright" unicode="&#xa9;" horiz-adv-x="1792" 
d="M885 293q-202 0 -320.5 117.5t-118.5 310.5v2q0 194 118.5 312t320.5 118q185 0 298.5 -90t138.5 -236h-294q-19 115 -137 115q-68 0 -106 -58.5t-38 -160.5v-2q0 -102 38 -159.5t106 -57.5q118 0 137 113h294q-25 -145 -138.5 -234.5t-298.5 -89.5zM896 -66
q-166 0 -314.5 62t-255 167.5t-169 251.5t-62.5 307v2q0 162 62.5 307.5t169 250.5t255 167t314.5 62q165 0 314 -62t256 -167t169.5 -250.5t62.5 -307.5v-2q0 -161 -62.5 -307t-169.5 -251.5t-256 -167.5t-314 -62zM896 93q130 0 245.5 50t197 134.5t129 200.5t47.5 244v2
q0 129 -47.5 245t-129 200.5t-197 134.5t-245.5 50q-131 0 -246 -50t-196.5 -134.5t-128.5 -200.5t-47 -245v-2q0 -128 47 -244t128.5 -200.5t197 -134.5t245.5 -50z" />
    <glyph glyph-name="guillemotleft" unicode="&#xab;" horiz-adv-x="1391" 
d="M309 184l-242 382l242 381h426l-235 -381l235 -382h-426zM882 184l-242 382l242 381h426l-235 -381l235 -382h-426z" />
    <glyph glyph-name="logicalnot" unicode="&#xac;" horiz-adv-x="1274" 
d="M59 738v345h1098v-723h-365v378h-733z" />
    <glyph glyph-name="uni00AD" unicode="&#xad;" horiz-adv-x="907" 
d="M105 375v345h696v-345h-696z" />
    <glyph glyph-name="registered" unicode="&#xae;" horiz-adv-x="1416" 
d="M708 278q-168 0 -308 79.5t-221 217t-81 302.5v2q0 165 81 303t221 218t308 80t308 -80t220.5 -218t80.5 -303v-2q0 -165 -80.5 -302.5t-220.5 -217t-308 -79.5zM708 392q134 0 243.5 64.5t171.5 176t62 244.5v2q0 203 -137.5 344.5t-339.5 141.5q-134 0 -243.5 -65.5
t-171 -176.5t-61.5 -244v-2q0 -204 136.5 -344.5t339.5 -140.5zM460 573v625h262q122 0 184 -52t62 -145v-1q0 -137 -125 -181l169 -246h-197l-148 228h-39v-228h-168zM628 932h77q86 0 86 65v2q0 28 -21.5 45.5t-64.5 17.5h-77v-130z" />
    <glyph glyph-name="macron" unicode="&#xaf;" horiz-adv-x="820" 
d="M47 1221v209h726v-209h-726z" />
    <glyph glyph-name="degree" unicode="&#xb0;" horiz-adv-x="832" 
d="M415 767q-157 0 -260 103t-103 252q0 150 103 253.5t260 103.5t261 -103.5t104 -253.5q0 -149 -104 -252t-261 -103zM415 975q60 0 102 41t42 106q0 66 -42 107t-102 41t-100.5 -41t-40.5 -107q0 -65 40.5 -106t100.5 -41z" />
    <glyph glyph-name="plusminus" unicode="&#xb1;" horiz-adv-x="1307" 
d="M470 426v304h-367v343h367v303h365v-303h367v-343h-367v-304h-365zM103 0v343h1099v-343h-1099z" />
    <glyph glyph-name="twosuperior" unicode="&#xb2;" horiz-adv-x="886" 
d="M42 963v21q0 101 38.5 178.5t109 137.5t192.5 129l54 31q70 40 95.5 71.5t25.5 71.5v1q0 46 -29.5 70t-82.5 24q-64 0 -100 -35t-35 -132h-251q1 75 21.5 135t56 101t86 68t109 39.5t126.5 12.5q166 0 265 -68.5t99 -195.5v-1q0 -97 -53.5 -164.5t-170.5 -136.5l-48 -29
q-14 -8 -39.5 -23t-34.5 -20t-26 -15.5t-24 -15.5t-17.5 -13t-18 -14.5t-14.5 -14.5h448v-213h-782z" />
    <glyph glyph-name="threesuperior" unicode="&#xb3;" horiz-adv-x="902" 
d="M458 941q-119 0 -210 33t-149.5 107.5t-63.5 184.5h256q11 -136 162 -136q58 0 94 25t36 73v1q0 99 -158 99h-57v190h58q65 0 97.5 25t32.5 66v1q0 44 -30 66t-82 22q-126 0 -130 -117h-256q5 145 115 225.5t287 80.5q160 0 260 -63.5t100 -181.5v-1q0 -66 -32 -116.5
t-87 -75.5v-1q70 -28 111 -84t41 -134v-1q0 -132 -110 -210t-285 -78z" />
    <glyph glyph-name="acute" unicode="&#xb4;" horiz-adv-x="834" 
d="M47 1210l220 234h477l-307 -234h-390z" />
    <glyph glyph-name="paragraph" unicode="&#xb6;" horiz-adv-x="1634" 
d="M515 -197v817q-227 12 -348 118t-121 293q0 199 136 306t389 107h991v-306h-225v-1335h-330v1335h-162v-1335h-330z" />
    <glyph glyph-name="periodcentered" unicode="&#xb7;" horiz-adv-x="631" 
d="M105 351v392h421v-392h-421z" />
    <glyph glyph-name="cedilla" unicode="&#xb8;" horiz-adv-x="633" 
d="M288 -437q-137 0 -241 52l57 124q84 -44 160 -44q107 0 107 50q0 25 -24.5 38.5t-58.5 13.5q-52 0 -82 -24l-88 54l161 232h147l-117 -170q35 9 73 9q82 0 143 -35.5t61 -109.5q0 -92 -88.5 -141t-209.5 -49z" />
    <glyph glyph-name="onesuperior" unicode="&#xb9;" horiz-adv-x="577" 
d="M226 963v577h-196v214h27q101 0 149 22.5t75 90.5h211v-904h-266z" />
    <glyph glyph-name="guillemotright" unicode="&#xbb;" horiz-adv-x="1391" 
d="M1324 566l-242 -382h-425l235 382l-235 381h425zM751 566l-241 -382h-426l234 382l-234 381h426z" />
    <glyph glyph-name="onequarter" unicode="&#xbc;" horiz-adv-x="1968" 
d="M233 0l914 1505h336l-914 -1505h-336zM1517 0v182h-456v205l456 516h266v-517h145v-204h-145v-182h-266zM223 602v577h-195v214h27q101 0 149 22t75 90h210v-903h-266zM1303 386h214v250h-1z" />
    <glyph glyph-name="onehalf" unicode="&#xbd;" horiz-adv-x="1977" 
d="M1134 0v22q0 147 78.5 244t261.5 200l53 31q70 39 96 71t26 72v1q0 46 -29.5 70.5t-82.5 24.5q-64 0 -100 -35.5t-35 -132.5h-251q0 93 31 163t86 111.5t125.5 62t156.5 20.5q165 0 264.5 -68.5t99.5 -196.5v-1q0 -97 -53.5 -164.5t-170.5 -136.5l-48 -28
q-67 -39 -87 -51t-45 -29.5t-43 -35.5h449v-214h-782zM233 0l914 1505h336l-914 -1505h-336zM223 602v577h-195v214h27q101 0 149 22t75 90h210v-903h-266z" />
    <glyph glyph-name="threequarters" unicode="&#xbe;" horiz-adv-x="2265" 
d="M531 0l914 1505h336l-914 -1505h-336zM1814 0v182h-456v205l456 516h266v-517h145v-204h-145v-182h-266zM459 581q-183 0 -299.5 81.5t-123.5 244.5h256q11 -137 162 -137q58 0 94 24.5t36 72.5v1q0 99 -157 99h-58v190h58q65 0 97.5 25t32.5 66v1q0 44 -30 66.5
t-82 22.5q-59 0 -93.5 -29t-36.5 -89h-256q5 146 115 226.5t287 80.5q160 0 260 -63.5t100 -181.5v-1q0 -66 -32 -117t-87 -75v-1q70 -28 111 -84t41 -134v-1q0 -133 -110 -210.5t-285 -77.5zM1600 386h214v250h-1z" />
    <glyph glyph-name="questiondown" unicode="&#xbf;" horiz-adv-x="1267" 
d="M909 1111v-392h-420v392h420zM688 -71q80 0 124.5 43.5t44.5 133.5h403q-9 -225 -166 -350t-429 -125q-276 0 -429.5 99.5t-153.5 270.5v1q0 107 54.5 188t168.5 145l54 33q82 49 114 93.5t32 124.5h380q0 -140 -35.5 -221t-132.5 -138l-42 -28q-79 -46 -110 -77t-31 -78
v-1q0 -55 40 -84.5t114 -29.5z" />
    <glyph glyph-name="Agrave" unicode="&#xc0;" horiz-adv-x="1609" 
d="M-5 0l534 1444h550l535 -1444h-456l-100 294h-525l-98 -294h-440zM639 631h313l-156 462h-2zM616 1618l-291 264h477l234 -264h-420z" />
    <glyph glyph-name="Aacute" unicode="&#xc1;" horiz-adv-x="1609" 
d="M-5 0l534 1444h550l535 -1444h-456l-100 294h-525l-98 -294h-440zM639 631h313l-156 462h-2zM571 1618l235 264h476l-290 -264h-421z" />
    <glyph glyph-name="Acircumflex" unicode="&#xc2;" horiz-adv-x="1609" 
d="M-5 0l534 1444h550l535 -1444h-456l-100 294h-525l-98 -294h-440zM639 631h313l-156 462h-2zM326 1618l256 264h445l256 -264h-370l-108 116l-108 -116h-371z" />
    <glyph glyph-name="Atilde" unicode="&#xc3;" horiz-adv-x="1609" 
d="M-5 0l534 1444h550l535 -1444h-456l-100 294h-525l-98 -294h-440zM639 631h313l-156 462h-2zM396 1618q2 129 68.5 210.5t171.5 81.5q55 0 109 -21t97.5 -41.5t70.5 -20.5q59 0 62 73h238q-2 -129 -68 -210.5t-172 -81.5q-53 0 -109 20.5t-99.5 41t-67.5 20.5
q-31 0 -45.5 -17t-16.5 -55h-239z" />
    <glyph glyph-name="Adieresis" unicode="&#xc4;" horiz-adv-x="1609" 
d="M-5 0l534 1444h550l535 -1444h-456l-100 294h-525l-98 -294h-440zM639 631h313l-156 462h-2zM360 1623v259h341v-259h-341zM909 1623v259h341v-259h-341z" />
    <glyph glyph-name="Aring" unicode="&#xc5;" horiz-adv-x="1609" 
d="M-5 0l534 1444h550l535 -1444h-456l-100 294h-525l-98 -294h-440zM639 631h313l-156 462h-2zM804 1523q-100 0 -169.5 66t-69.5 168t69.5 168.5t169.5 66.5t169.5 -66.5t69.5 -168.5t-69.5 -168t-169.5 -66zM804 1678q35 0 56.5 22t21.5 57t-22 57.5t-56 22.5
q-35 0 -57 -22.5t-22 -57.5t22 -57t57 -22z" />
    <glyph glyph-name="AE" unicode="&#xc6;" horiz-adv-x="2262" 
d="M-66 0l972 1444h1259v-345h-714v-202h649v-345h-649v-208h721v-344h-1149v335h-423l-216 -335h-450zM811 671h212v329z" />
    <glyph glyph-name="Ccedilla" unicode="&#xc7;" horiz-adv-x="1648" 
d="M862 -36q-361 0 -577 206t-216 551v2q0 345 216 551t577 206q298 0 494 -144t250 -409h-434q-69 208 -312 208q-159 0 -251.5 -106.5t-92.5 -305.5v-2q0 -199 92.5 -305.5t251.5 -106.5q243 0 312 208h434q-54 -265 -250 -409t-494 -144zM831 -437q-137 0 -241 52l57 124
q84 -44 160 -44q107 0 107 50q0 25 -24.5 38.5t-58.5 13.5q-52 0 -82 -24l-88 54l161 232h147l-117 -170q34 9 73 9q82 0 143 -35.5t61 -109.5q0 -92 -88.5 -141t-209.5 -49z" />
    <glyph glyph-name="Egrave" unicode="&#xc8;" horiz-adv-x="1368" 
d="M129 0v1444h1142v-345h-714v-202h649v-345h-649v-207h721v-345h-1149zM516 1618l-291 264h477l234 -264h-420z" />
    <glyph glyph-name="Eacute" unicode="&#xc9;" horiz-adv-x="1368" 
d="M129 0v1444h1142v-345h-714v-202h649v-345h-649v-207h721v-345h-1149zM470 1618l235 264h476l-290 -264h-421z" />
    <glyph glyph-name="Ecircumflex" unicode="&#xca;" horiz-adv-x="1368" 
d="M129 0v1444h1142v-345h-714v-202h649v-345h-649v-207h721v-345h-1149zM225 1618l256 264h445l256 -264h-370l-108 116l-108 -116h-371z" />
    <glyph glyph-name="Edieresis" unicode="&#xcb;" horiz-adv-x="1368" 
d="M129 0v1444h1142v-345h-714v-202h649v-345h-649v-207h721v-345h-1149zM260 1623v259h341v-259h-341zM809 1623v259h341v-259h-341z" />
    <glyph glyph-name="Igrave" unicode="&#xcc;" horiz-adv-x="685" 
d="M129 0v1444h428v-1444h-428zM155 1618l-291 264h477l234 -264h-420z" />
    <glyph glyph-name="Iacute" unicode="&#xcd;" horiz-adv-x="685" 
d="M129 0v1444h428v-1444h-428zM110 1618l235 264h476l-290 -264h-421z" />
    <glyph glyph-name="Icircumflex" unicode="&#xce;" horiz-adv-x="685" 
d="M129 0v1444h428v-1444h-428zM-135 1618l256 264h445l256 -264h-370l-108 116l-108 -116h-371z" />
    <glyph glyph-name="Idieresis" unicode="&#xcf;" horiz-adv-x="685" 
d="M129 0v1444h428v-1444h-428zM-101 1623v259h341v-259h-341zM448 1623v259h341v-259h-341z" />
    <glyph glyph-name="Eth" unicode="&#xd0;" horiz-adv-x="1648" 
d="M48 537v373h103v534h589q146 0 267.5 -22t229 -74t182 -133.5t117.5 -206.5t43 -286v-2q0 -156 -43 -279.5t-117.5 -205t-182 -135.5t-229.5 -77t-267 -23h-589v537h-103zM579 337h154q99 0 169 17.5t124 59.5t80 118t26 188v2q0 113 -26 189t-80 118.5t-124 60
t-169 17.5h-154v-197h296v-373h-296v-200z" />
    <glyph glyph-name="Ntilde" unicode="&#xd1;" horiz-adv-x="1620" 
d="M129 0v1444h468l504 -909h2l-11 365v544h398v-1444h-473l-500 863h-2l12 -365v-498h-398zM427 1618q2 129 68.5 210.5t171.5 81.5q55 0 109 -21t97.5 -41.5t70.5 -20.5q59 0 62 73h238q-2 -129 -68 -210.5t-172 -81.5q-53 0 -109 20.5t-99.5 41t-67.5 20.5
q-31 0 -45.5 -17t-16.5 -55h-239z" />
    <glyph glyph-name="Ograve" unicode="&#xd2;" horiz-adv-x="1760" 
d="M880 -36q-240 0 -424 92.5t-286 264.5t-102 400v2q0 228 102 400t286 264.5t424 92.5t424 -92.5t286 -264.5t102 -400v-2q0 -228 -102 -400t-286 -264.5t-424 -92.5zM880 309q163 0 264 108t101 304v2q0 196 -101 304t-264 108t-264 -108t-101 -304v-2q0 -196 101 -304
t264 -108zM692 1618l-291 264h477l234 -264h-420z" />
    <glyph glyph-name="Oacute" unicode="&#xd3;" horiz-adv-x="1760" 
d="M880 -36q-240 0 -424 92.5t-286 264.5t-102 400v2q0 228 102 400t286 264.5t424 92.5t424 -92.5t286 -264.5t102 -400v-2q0 -228 -102 -400t-286 -264.5t-424 -92.5zM880 309q163 0 264 108t101 304v2q0 196 -101 304t-264 108t-264 -108t-101 -304v-2q0 -196 101 -304
t264 -108zM646 1618l235 264h476l-290 -264h-421z" />
    <glyph glyph-name="Ocircumflex" unicode="&#xd4;" horiz-adv-x="1760" 
d="M880 -36q-240 0 -424 92.5t-286 264.5t-102 400v2q0 228 102 400t286 264.5t424 92.5t424 -92.5t286 -264.5t102 -400v-2q0 -228 -102 -400t-286 -264.5t-424 -92.5zM880 309q163 0 264 108t101 304v2q0 196 -101 304t-264 108t-264 -108t-101 -304v-2q0 -196 101 -304
t264 -108zM401 1618l256 264h445l256 -264h-370l-108 116l-108 -116h-371z" />
    <glyph glyph-name="Otilde" unicode="&#xd5;" horiz-adv-x="1760" 
d="M880 -36q-240 0 -424 92.5t-286 264.5t-102 400v2q0 228 102 400t286 264.5t424 92.5t424 -92.5t286 -264.5t102 -400v-2q0 -228 -102 -400t-286 -264.5t-424 -92.5zM880 309q163 0 264 108t101 304v2q0 196 -101 304t-264 108t-264 -108t-101 -304v-2q0 -196 101 -304
t264 -108zM471 1618q2 129 68.5 210.5t171.5 81.5q55 0 109 -21t97.5 -41.5t70.5 -20.5q59 0 62 73h238q-2 -129 -68 -210.5t-172 -81.5q-53 0 -109 20.5t-99.5 41t-67.5 20.5q-31 0 -45.5 -17t-16.5 -55h-239z" />
    <glyph glyph-name="Odieresis" unicode="&#xd6;" horiz-adv-x="1760" 
d="M880 -36q-240 0 -424 92.5t-286 264.5t-102 400v2q0 228 102 400t286 264.5t424 92.5t424 -92.5t286 -264.5t102 -400v-2q0 -228 -102 -400t-286 -264.5t-424 -92.5zM880 309q163 0 264 108t101 304v2q0 196 -101 304t-264 108t-264 -108t-101 -304v-2q0 -196 101 -304
t264 -108zM436 1623v259h341v-259h-341zM985 1623v259h341v-259h-341z" />
    <glyph glyph-name="multiply" unicode="&#xd7;" horiz-adv-x="1249" 
d="M319 173l-247 246l306 306l-306 306l247 246l306 -305l306 305l246 -246l-306 -306l306 -306l-246 -246l-306 306z" />
    <glyph glyph-name="Oslash" unicode="&#xd8;" horiz-adv-x="1760" 
d="M213 -103l139 224q-136 100 -210 253.5t-74 346.5v2q0 228 102 400t286 264.5t424 92.5q158 0 293 -41l176 284l200 -111l-168 -270q148 -99 229.5 -257.5t81.5 -361.5v-2q0 -228 -102 -400t-286 -264.5t-424 -92.5q-175 0 -325 51l-143 -228zM515 721q0 -143 58 -245
l404 648q-49 11 -97 11q-163 0 -264 -108t-101 -304v-2zM880 309q163 0 264 108t101 304v2q0 167 -78 275l-416 -668q60 -21 129 -21z" />
    <glyph glyph-name="Ugrave" unicode="&#xd9;" horiz-adv-x="1557" 
d="M779 -36q-341 0 -502.5 149.5t-161.5 480.5v850h428v-847q0 -146 54 -217t182 -71q127 0 181.5 71t54.5 217v847h428v-850q0 -331 -161.5 -480.5t-502.5 -149.5zM591 1618l-291 264h477l234 -264h-420z" />
    <glyph glyph-name="Uacute" unicode="&#xda;" horiz-adv-x="1557" 
d="M779 -36q-341 0 -502.5 149.5t-161.5 480.5v850h428v-847q0 -146 54 -217t182 -71q127 0 181.5 71t54.5 217v847h428v-850q0 -331 -161.5 -480.5t-502.5 -149.5zM545 1618l235 264h476l-290 -264h-421z" />
    <glyph glyph-name="Ucircumflex" unicode="&#xdb;" horiz-adv-x="1557" 
d="M779 -36q-341 0 -502.5 149.5t-161.5 480.5v850h428v-847q0 -146 54 -217t182 -71q127 0 181.5 71t54.5 217v847h428v-850q0 -331 -161.5 -480.5t-502.5 -149.5zM300 1618l256 264h445l256 -264h-370l-108 116l-108 -116h-371z" />
    <glyph glyph-name="Udieresis" unicode="&#xdc;" horiz-adv-x="1557" 
d="M779 -36q-341 0 -502.5 149.5t-161.5 480.5v850h428v-847q0 -146 54 -217t182 -71q127 0 181.5 71t54.5 217v847h428v-850q0 -331 -161.5 -480.5t-502.5 -149.5zM335 1623v259h341v-259h-341zM884 1623v259h341v-259h-341z" />
    <glyph glyph-name="Yacute" unicode="&#xdd;" horiz-adv-x="1597" 
d="M585 0v504l-606 940h468l358 -579h1l351 579h458l-602 -940v-504h-428zM565 1618l235 264h476l-290 -264h-421z" />
    <glyph glyph-name="Thorn" unicode="&#xde;" horiz-adv-x="1520" 
d="M129 0v1444h427v-186h237q125 0 225.5 -16t184 -53t139.5 -94.5t86.5 -142.5t30.5 -196v-2q0 -138 -45 -236.5t-132.5 -156.5t-205.5 -84t-275 -26h-245v-251h-427zM556 589h233q115 0 169.5 39.5t54.5 125.5v2q0 85 -54.5 125t-169.5 40h-233v-332z" />
    <glyph glyph-name="germandbls" unicode="&#xdf;" horiz-adv-x="1391" 
d="M112 0v999q0 234 157 357t435 123q247 0 393 -103.5t146 -294.5v-2q0 -191 -138 -300v-2q110 -47 169.5 -136.5t59.5 -215.5v-1q0 -200 -138 -312t-378 -112h-181v292h73q222 0 222 160v1q0 85 -62.5 121t-189.5 36h-38v267h26q86 0 129.5 44.5t43.5 122.5v1
q0 68 -42.5 102.5t-108.5 34.5q-165 0 -165 -181v-1001h-413z" />
    <glyph glyph-name="agrave" unicode="&#xe0;" horiz-adv-x="1286" 
d="M472 -36q-187 0 -302 91.5t-115 244.5v1q0 72 24.5 128.5t68.5 95.5t114 68t149.5 47.5t187.5 32.5q119 16 155 33.5t36 61.5v2q0 103 -145 103q-79 0 -122.5 -35.5t-45.5 -104.5h-376q5 185 145.5 285t399.5 100q131 0 224.5 -18t168 -62.5t111.5 -126t36 -201.5
l-3 -403q-2 -194 35 -308h-405q-6 63 -7 88q-102 -123 -334 -123zM610 220q76 0 122.5 37.5t46.5 117.5v138q-46 -18 -144 -47q-89 -26 -124.5 -54.5t-35.5 -80.5v-3q0 -50 37 -79t98 -29zM500 1210l-302 234h476l221 -234h-395z" />
    <glyph glyph-name="aacute" unicode="&#xe1;" horiz-adv-x="1286" 
d="M472 -36q-187 0 -302 91.5t-115 244.5v1q0 72 24.5 128.5t68.5 95.5t114 68t149.5 47.5t187.5 32.5q119 16 155 33.5t36 61.5v2q0 103 -145 103q-79 0 -122.5 -35.5t-45.5 -104.5h-376q5 185 145.5 285t399.5 100q131 0 224.5 -18t168 -62.5t111.5 -126t36 -201.5
l-3 -403q-2 -194 35 -308h-405q-6 63 -7 88q-102 -123 -334 -123zM610 220q76 0 122.5 37.5t46.5 117.5v138q-46 -18 -144 -47q-89 -26 -124.5 -54.5t-35.5 -80.5v-3q0 -50 37 -79t98 -29zM415 1210l220 234h477l-307 -234h-390z" />
    <glyph glyph-name="acircumflex" unicode="&#xe2;" horiz-adv-x="1286" 
d="M472 -36q-187 0 -302 91.5t-115 244.5v1q0 72 24.5 128.5t68.5 95.5t114 68t149.5 47.5t187.5 32.5q119 16 155 33.5t36 61.5v2q0 103 -145 103q-79 0 -122.5 -35.5t-45.5 -104.5h-376q5 185 145.5 285t399.5 100q131 0 224.5 -18t168 -62.5t111.5 -126t36 -201.5
l-3 -403q-2 -194 35 -308h-405q-6 63 -7 88q-102 -123 -334 -123zM610 220q76 0 122.5 37.5t46.5 117.5v138q-46 -18 -144 -47q-89 -26 -124.5 -54.5t-35.5 -80.5v-3q0 -50 37 -79t98 -29zM189 1210l257 234h391l256 -234h-344l-108 93l-108 -93h-344z" />
    <glyph glyph-name="atilde" unicode="&#xe3;" horiz-adv-x="1286" 
d="M472 -36q-187 0 -302 91.5t-115 244.5v1q0 72 24.5 128.5t68.5 95.5t114 68t149.5 47.5t187.5 32.5q119 16 155 33.5t36 61.5v2q0 103 -145 103q-79 0 -122.5 -35.5t-45.5 -104.5h-376q5 185 145.5 285t399.5 100q131 0 224.5 -18t168 -62.5t111.5 -126t36 -201.5
l-3 -403q-2 -194 35 -308h-405q-6 63 -7 88q-102 -123 -334 -123zM610 220q76 0 122.5 37.5t46.5 117.5v138q-46 -18 -144 -47q-89 -26 -124.5 -54.5t-35.5 -80.5v-3q0 -50 37 -79t98 -29zM237 1203q2 129 68.5 210.5t171.5 81.5q55 0 109 -20.5t97.5 -41.5t70.5 -21
q59 0 62 74h238q-2 -130 -68 -211.5t-172 -81.5q-42 0 -86.5 13t-75 28.5t-62.5 28.5t-52 13q-31 0 -45.5 -17.5t-16.5 -55.5h-239z" />
    <glyph glyph-name="adieresis" unicode="&#xe4;" horiz-adv-x="1286" 
d="M472 -36q-187 0 -302 91.5t-115 244.5v1q0 72 24.5 128.5t68.5 95.5t114 68t149.5 47.5t187.5 32.5q119 16 155 33.5t36 61.5v2q0 103 -145 103q-79 0 -122.5 -35.5t-45.5 -104.5h-376q5 185 145.5 285t399.5 100q131 0 224.5 -18t168 -62.5t111.5 -126t36 -201.5
l-3 -403q-2 -194 35 -308h-405q-6 63 -7 88q-102 -123 -334 -123zM610 220q76 0 122.5 37.5t46.5 117.5v138q-46 -18 -144 -47q-89 -26 -124.5 -54.5t-35.5 -80.5v-3q0 -50 37 -79t98 -29zM225 1209v235h301v-235h-301zM757 1209v235h301v-235h-301z" />
    <glyph glyph-name="aring" unicode="&#xe5;" horiz-adv-x="1286" 
d="M472 -36q-187 0 -302 91.5t-115 244.5v1q0 72 24.5 128.5t68.5 95.5t114 68t149.5 47.5t187.5 32.5q119 16 155 33.5t36 61.5v2q0 103 -145 103q-79 0 -122.5 -35.5t-45.5 -104.5h-376q5 185 145.5 285t399.5 100q131 0 224.5 -18t168 -62.5t111.5 -126t36 -201.5
l-3 -403q-2 -194 35 -308h-405q-6 63 -7 88q-102 -123 -334 -123zM610 220q76 0 122.5 37.5t46.5 117.5v138q-46 -18 -144 -47q-89 -26 -124.5 -54.5t-35.5 -80.5v-3q0 -50 37 -79t98 -29zM642 1160q-100 0 -169.5 66.5t-69.5 168.5t69.5 168.5t169.5 66.5q99 0 168.5 -66.5
t69.5 -168.5t-69.5 -168.5t-168.5 -66.5zM642 1304q39 0 64 25.5t25 65.5t-25 65.5t-64 25.5q-40 0 -65 -25.5t-25 -65.5t25 -65.5t65 -25.5z" />
    <glyph glyph-name="ae" unicode="&#xe6;" horiz-adv-x="2054" 
d="M1389 -36q-158 0 -281 51.5t-202 148.5q-134 -200 -425 -200q-187 0 -306.5 96.5t-119.5 242.5v1q0 73 26 129t70 94.5t114.5 67.5t148.5 46t183 31q119 15 158.5 37.5t39.5 68.5v1q0 94 -141 94q-151 0 -158 -140h-390q13 177 153.5 281t395.5 104q267 0 390 -98h1
q147 93 335 93q158 0 278 -51t193 -142.5t108 -212.5t31 -268v-1h-799v-1q12 -94 68.5 -144.5t139.5 -50.5q140 0 178 91h399q-43 -161 -197.5 -265t-390.5 -104zM611 202q173 0 173 178v118q-94 -24 -146 -36q-88 -20 -125.5 -51.5t-37.5 -83.5v-2q0 -56 36.5 -89.5
t99.5 -33.5zM1385 851q-84 0 -135 -50.5t-59 -134.5v-1h386v1q-5 80 -55.5 132.5t-136.5 52.5z" />
    <glyph glyph-name="ccedilla" unicode="&#xe7;" horiz-adv-x="1263" 
d="M644 -36q-270 0 -427.5 157.5t-157.5 416.5v2q0 259 158 416t429 157q255 0 400 -119t173 -315h-405q-12 76 -52.5 109.5t-108.5 33.5q-82 0 -126 -73.5t-44 -208.5v-2q0 -135 44 -209t126 -74q138 0 161 144h405q-28 -196 -174 -315.5t-401 -119.5zM613 -437
q-137 0 -241 52l57 124q84 -44 160 -44q107 0 107 50q0 25 -24.5 38.5t-58.5 13.5q-52 0 -82 -24l-88 54l161 232h147l-117 -170q35 9 73 9q82 0 143 -35.5t61 -109.5q0 -92 -88.5 -141t-209.5 -49z" />
    <glyph glyph-name="egrave" unicode="&#xe8;" horiz-adv-x="1321" 
d="M663 -36q-279 0 -442 154t-163 420v2q0 173 79 304.5t214 200t304 68.5q158 0 278 -50.5t193 -142t108 -213t31 -268.5v-1h-800v-1q12 -95 69 -145.5t140 -50.5q65 0 112 23t66 69h399q-43 -162 -197.5 -265.5t-390.5 -103.5zM658 851q-84 0 -134.5 -50.5t-58.5 -134.5
v-1h386v1q-5 80 -55.5 132.5t-137.5 52.5zM520 1210l-302 234h476l221 -234h-395z" />
    <glyph glyph-name="eacute" unicode="&#xe9;" horiz-adv-x="1321" 
d="M663 -36q-279 0 -442 154t-163 420v2q0 173 79 304.5t214 200t304 68.5q158 0 278 -50.5t193 -142t108 -213t31 -268.5v-1h-800v-1q12 -95 69 -145.5t140 -50.5q65 0 112 23t66 69h399q-43 -162 -197.5 -265.5t-390.5 -103.5zM658 851q-84 0 -134.5 -50.5t-58.5 -134.5
v-1h386v1q-5 80 -55.5 132.5t-137.5 52.5zM435 1210l220 234h477l-307 -234h-390z" />
    <glyph glyph-name="ecircumflex" unicode="&#xea;" horiz-adv-x="1321" 
d="M663 -36q-279 0 -442 154t-163 420v2q0 173 79 304.5t214 200t304 68.5q158 0 278 -50.5t193 -142t108 -213t31 -268.5v-1h-800v-1q12 -95 69 -145.5t140 -50.5q65 0 112 23t66 69h399q-43 -162 -197.5 -265.5t-390.5 -103.5zM658 851q-84 0 -134.5 -50.5t-58.5 -134.5
v-1h386v1q-5 80 -55.5 132.5t-137.5 52.5zM209 1210l257 234h391l256 -234h-344l-108 93l-108 -93h-344z" />
    <glyph glyph-name="edieresis" unicode="&#xeb;" horiz-adv-x="1321" 
d="M663 -36q-279 0 -442 154t-163 420v2q0 173 79 304.5t214 200t304 68.5q158 0 278 -50.5t193 -142t108 -213t31 -268.5v-1h-800v-1q12 -95 69 -145.5t140 -50.5q65 0 112 23t66 69h399q-43 -162 -197.5 -265.5t-390.5 -103.5zM658 851q-84 0 -134.5 -50.5t-58.5 -134.5
v-1h386v1q-5 80 -55.5 132.5t-137.5 52.5zM245 1209v235h301v-235h-301zM777 1209v235h301v-235h-301z" />
    <glyph glyph-name="igrave" unicode="&#xec;" horiz-adv-x="637" 
d="M112 0v1067h413v-1067h-413zM178 1210l-302 234h476l221 -234h-395z" />
    <glyph glyph-name="iacute" unicode="&#xed;" horiz-adv-x="637" 
d="M112 0v1067h413v-1067h-413zM93 1210l220 234h477l-307 -234h-390z" />
    <glyph glyph-name="icircumflex" unicode="&#xee;" horiz-adv-x="637" 
d="M112 0v1067h413v-1067h-413zM-133 1210l257 234h391l256 -234h-344l-108 93l-108 -93h-344z" />
    <glyph glyph-name="idieresis" unicode="&#xef;" horiz-adv-x="637" 
d="M112 0v1067h413v-1067h-413zM-97 1209v235h301v-235h-301zM435 1209v235h301v-235h-301z" />
    <glyph glyph-name="eth" unicode="&#xf0;" horiz-adv-x="1327" 
d="M322 1075l-82 130l136 81q-80 38 -181 73l153 313q216 -75 383 -176l226 134l81 -131l-167 -99q398 -310 398 -781v-2q0 -160 -45 -285.5t-126 -205.5t-191 -121t-243 -41q-268 0 -437 157t-169 416v4q0 218 120 366.5t331 184.5q35 5 66 5q35 0 77 -7l3 4
q-55 56 -125 104zM663 247q90 0 135 74.5t45 215.5v3q0 289 -180 289q-90 0 -135.5 -74.5t-45.5 -214.5v-2q0 -141 45.5 -216t135.5 -75z" />
    <glyph glyph-name="ntilde" unicode="&#xf1;" 
d="M112 0v1067h413v-116q113 152 325 152q379 0 379 -429v-674h-413v596q0 103 -36 152.5t-110 49.5t-109.5 -49.5t-35.5 -152.5v-596h-413zM266 1203q2 129 68.5 210.5t171.5 81.5q55 0 109 -20.5t97.5 -41.5t70.5 -21q59 0 62 74h238q-2 -130 -68 -211.5t-172 -81.5
q-42 0 -86.5 13t-75 28.5t-62.5 28.5t-52 13q-31 0 -45.5 -17.5t-16.5 -55.5h-239z" />
    <glyph glyph-name="ograve" unicode="&#xf2;" horiz-adv-x="1337" 
d="M669 -36q-277 0 -444 155.5t-167 418.5v2q0 262 167 417.5t444 155.5t444 -155.5t167 -417.5v-2q0 -263 -167 -418.5t-444 -155.5zM669 262q187 0 187 276v2q0 275 -187 275t-187 -275v-2q0 -276 187 -276zM528 1210l-302 234h476l221 -234h-395z" />
    <glyph glyph-name="oacute" unicode="&#xf3;" horiz-adv-x="1337" 
d="M669 -36q-277 0 -444 155.5t-167 418.5v2q0 262 167 417.5t444 155.5t444 -155.5t167 -417.5v-2q0 -263 -167 -418.5t-444 -155.5zM669 262q187 0 187 276v2q0 275 -187 275t-187 -275v-2q0 -276 187 -276zM443 1210l220 234h477l-307 -234h-390z" />
    <glyph glyph-name="ocircumflex" unicode="&#xf4;" horiz-adv-x="1337" 
d="M669 -36q-277 0 -444 155.5t-167 418.5v2q0 262 167 417.5t444 155.5t444 -155.5t167 -417.5v-2q0 -263 -167 -418.5t-444 -155.5zM669 262q187 0 187 276v2q0 275 -187 275t-187 -275v-2q0 -276 187 -276zM217 1210l257 234h391l256 -234h-344l-108 93l-108 -93h-344z
" />
    <glyph glyph-name="otilde" unicode="&#xf5;" horiz-adv-x="1337" 
d="M669 -36q-277 0 -444 155.5t-167 418.5v2q0 262 167 417.5t444 155.5t444 -155.5t167 -417.5v-2q0 -263 -167 -418.5t-444 -155.5zM669 262q187 0 187 276v2q0 275 -187 275t-187 -275v-2q0 -276 187 -276zM265 1203q2 129 68.5 210.5t171.5 81.5q55 0 109 -20.5
t97.5 -41.5t70.5 -21q59 0 62 74h238q-2 -130 -68 -211.5t-172 -81.5q-42 0 -86.5 13t-75 28.5t-62.5 28.5t-52 13q-31 0 -45.5 -17.5t-16.5 -55.5h-239z" />
    <glyph glyph-name="odieresis" unicode="&#xf6;" horiz-adv-x="1337" 
d="M669 -36q-277 0 -444 155.5t-167 418.5v2q0 262 167 417.5t444 155.5t444 -155.5t167 -417.5v-2q0 -263 -167 -418.5t-444 -155.5zM669 262q187 0 187 276v2q0 275 -187 275t-187 -275v-2q0 -276 187 -276zM253 1209v235h301v-235h-301zM785 1209v235h301v-235h-301z" />
    <glyph glyph-name="divide" unicode="&#xf7;" horiz-adv-x="1307" 
d="M104 551v345h1098v-345h-1098zM653 974q-98 0 -163 60.5t-65 156.5q0 95 65 155t163 60t162.5 -60t64.5 -155q0 -96 -64.5 -156.5t-162.5 -60.5zM653 42q-98 0 -163 60.5t-65 156.5t65 156t163 60t162.5 -60t64.5 -156t-64.5 -156.5t-162.5 -60.5z" />
    <glyph glyph-name="oslash" unicode="&#xf8;" horiz-adv-x="1337" 
d="M217 -70l79 134q-114 74 -176 196t-62 278v2q0 262 167 417.5t444 155.5q125 0 227 -33l83 140l143 -80l-77 -129q113 -75 174 -195.5t61 -275.5v-2q0 -263 -167 -418.5t-444 -155.5q-119 0 -223 31l-86 -146zM482 538q0 -78 15 -133l237 400q-29 10 -65 10
q-187 0 -187 -275v-2zM669 262q187 0 187 276v2q0 73 -14 127l-234 -396q28 -9 61 -9z" />
    <glyph glyph-name="ugrave" unicode="&#xf9;" 
d="M481 -34q-379 0 -379 429v672h413v-594q0 -103 35.5 -152.5t109.5 -49.5t109.5 49.5t35.5 152.5v594h413v-1067h-413v130q-51 -77 -133.5 -120.5t-190.5 -43.5zM518 1210l-302 234h476l221 -234h-395z" />
    <glyph glyph-name="uacute" unicode="&#xfa;" 
d="M481 -34q-379 0 -379 429v672h413v-594q0 -103 35.5 -152.5t109.5 -49.5t109.5 49.5t35.5 152.5v594h413v-1067h-413v130q-51 -77 -133.5 -120.5t-190.5 -43.5zM433 1210l220 234h477l-307 -234h-390z" />
    <glyph glyph-name="ucircumflex" unicode="&#xfb;" 
d="M481 -34q-379 0 -379 429v672h413v-594q0 -103 35.5 -152.5t109.5 -49.5t109.5 49.5t35.5 152.5v594h413v-1067h-413v130q-51 -77 -133.5 -120.5t-190.5 -43.5zM207 1210l257 234h391l256 -234h-344l-108 93l-108 -93h-344z" />
    <glyph glyph-name="udieresis" unicode="&#xfc;" 
d="M481 -34q-379 0 -379 429v672h413v-594q0 -103 35.5 -152.5t109.5 -49.5t109.5 49.5t35.5 152.5v594h413v-1067h-413v130q-51 -77 -133.5 -120.5t-190.5 -43.5zM243 1209v235h301v-235h-301zM775 1209v235h301v-235h-301z" />
    <glyph glyph-name="yacute" unicode="&#xfd;" horiz-adv-x="1277" 
d="M133 -333v290h146q61 0 83.5 10.5t39.5 52.5l7 16l-411 1031h418l222 -654h2l268 654h387l-475 -1082q-33 -76 -61.5 -126t-64 -87t-68 -56.5t-86 -31t-105.5 -14.5t-138 -3h-164zM440 1210l220 234h477l-307 -234h-390z" />
    <glyph glyph-name="thorn" unicode="&#xfe;" horiz-adv-x="1373" 
d="M849 -36q-114 0 -196.5 41t-127.5 109v-447h-413v1776h413v-491q45 68 127.5 109t196.5 41q90 0 172.5 -37.5t147.5 -106.5t103.5 -179t38.5 -244v-4q0 -134 -38.5 -244t-103.5 -179t-147.5 -106.5t-172.5 -37.5zM697 251q88 0 135.5 74t47.5 206v4q0 132 -47.5 206
t-135.5 74t-136 -74t-48 -206v-4q0 -132 48 -206t136 -74z" />
    <glyph glyph-name="ydieresis" unicode="&#xff;" horiz-adv-x="1277" 
d="M133 -333v290h146q61 0 83.5 10.5t39.5 52.5l7 16l-411 1031h418l222 -654h2l268 654h387l-475 -1082q-33 -76 -61.5 -126t-64 -87t-68 -56.5t-86 -31t-105.5 -14.5t-138 -3h-164zM250 1209v235h301v-235h-301zM782 1209v235h301v-235h-301z" />
    <glyph glyph-name="Amacron" unicode="&#x100;" horiz-adv-x="1609" 
d="M-5 0l534 1444h550l535 -1444h-456l-100 294h-525l-98 -294h-440zM639 631h313l-156 462h-2zM442 1619v223h726v-223h-726z" />
    <glyph glyph-name="amacron" unicode="&#x101;" horiz-adv-x="1286" 
d="M472 -36q-187 0 -302 91.5t-115 244.5v1q0 72 24.5 128.5t68.5 95.5t114 68t149.5 47.5t187.5 32.5q119 16 155 33.5t36 61.5v2q0 103 -145 103q-79 0 -122.5 -35.5t-45.5 -104.5h-376q5 185 145.5 285t399.5 100q131 0 224.5 -18t168 -62.5t111.5 -126t36 -201.5
l-3 -403q-2 -194 35 -308h-405q-6 63 -7 88q-102 -123 -334 -123zM610 220q76 0 122.5 37.5t46.5 117.5v138q-46 -18 -144 -47q-89 -26 -124.5 -54.5t-35.5 -80.5v-3q0 -50 37 -79t98 -29zM278 1221v209h726v-209h-726z" />
    <glyph glyph-name="Abreve" unicode="&#x102;" horiz-adv-x="1609" 
d="M-5 0l534 1444h550l535 -1444h-456l-100 294h-525l-98 -294h-440zM639 631h313l-156 462h-2zM804 1597q-167 0 -276 76.5t-123 208.5h256q8 -44 46.5 -69.5t96.5 -25.5t97 25.5t48 69.5h256q-15 -132 -124 -208.5t-277 -76.5z" />
    <glyph glyph-name="abreve" unicode="&#x103;" horiz-adv-x="1286" 
d="M472 -36q-187 0 -302 91.5t-115 244.5v1q0 72 24.5 128.5t68.5 95.5t114 68t149.5 47.5t187.5 32.5q119 16 155 33.5t36 61.5v2q0 103 -145 103q-79 0 -122.5 -35.5t-45.5 -104.5h-376q5 185 145.5 285t399.5 100q131 0 224.5 -18t168 -62.5t111.5 -126t36 -201.5
l-3 -403q-2 -194 35 -308h-405q-6 63 -7 88q-102 -123 -334 -123zM610 220q76 0 122.5 37.5t46.5 117.5v138q-46 -18 -144 -47q-89 -26 -124.5 -54.5t-35.5 -80.5v-3q0 -50 37 -79t98 -29zM641 1194q-174 0 -279.5 61t-119.5 189h256q16 -82 143 -82q128 0 145 82h256
q-14 -128 -120 -189t-281 -61z" />
    <glyph glyph-name="Aogonek" unicode="&#x104;" horiz-adv-x="1609" 
d="M-5 0l534 1444h550l535 -1444h-456l-100 294h-525l-98 -294h-440zM639 631h313l-156 462h-2zM1240 1h278q-37 -23 -60 -57.5t-23 -70.5q0 -35 21 -51.5t54 -16.5q38 0 79 19l66 -160q-93 -61 -231 -61q-132 0 -215.5 56.5t-83.5 146.5q0 109 115 195z" />
    <glyph glyph-name="aogonek" unicode="&#x105;" horiz-adv-x="1286" 
d="M472 -36q-187 0 -302 91.5t-115 244.5v1q0 72 24.5 128.5t68.5 95.5t114 68t149.5 47.5t187.5 32.5q119 16 155 33.5t36 61.5v2q0 103 -145 103q-79 0 -122.5 -35.5t-45.5 -104.5h-376q5 185 145.5 285t399.5 100q131 0 224.5 -18t168 -62.5t111.5 -126t36 -201.5
l-3 -403q-2 -194 35 -308h-405q-6 63 -7 88q-102 -123 -334 -123zM610 220q76 0 122.5 37.5t46.5 117.5v138q-46 -18 -144 -47q-89 -26 -124.5 -54.5t-35.5 -80.5v-3q0 -50 37 -79t98 -29zM880 1h278q-37 -23 -60 -57.5t-23 -70.5q0 -35 21 -51.5t54 -16.5q38 0 79 19
l66 -160q-93 -61 -231 -61q-132 0 -215.5 56.5t-83.5 146.5q0 109 115 195z" />
    <glyph glyph-name="Cacute" unicode="&#x106;" horiz-adv-x="1648" 
d="M862 -36q-361 0 -577 206t-216 551v2q0 345 216 551t577 206q298 0 494 -144t250 -409h-434q-69 208 -312 208q-159 0 -251.5 -106.5t-92.5 -305.5v-2q0 -199 92.5 -305.5t251.5 -106.5q243 0 312 208h434q-54 -265 -250 -409t-494 -144zM629 1618l235 264h476l-290 -264
h-421z" />
    <glyph glyph-name="cacute" unicode="&#x107;" horiz-adv-x="1263" 
d="M644 -36q-270 0 -427.5 157.5t-157.5 416.5v2q0 259 158 416t429 157q255 0 400 -119t173 -315h-405q-12 76 -52.5 109.5t-108.5 33.5q-82 0 -126 -73.5t-44 -208.5v-2q0 -135 44 -209t126 -74q138 0 161 144h405q-28 -196 -174 -315.5t-401 -119.5zM418 1210l220 234
h477l-307 -234h-390z" />
    <glyph glyph-name="Ccircumflex" unicode="&#x108;" horiz-adv-x="1648" 
d="M862 -36q-361 0 -577 206t-216 551v2q0 345 216 551t577 206q298 0 494 -144t250 -409h-434q-69 208 -312 208q-159 0 -251.5 -106.5t-92.5 -305.5v-2q0 -199 92.5 -305.5t251.5 -106.5q243 0 312 208h434q-54 -265 -250 -409t-494 -144zM384 1618l256 264h445l256 -264
h-370l-108 116l-108 -116h-371z" />
    <glyph glyph-name="ccircumflex" unicode="&#x109;" horiz-adv-x="1263" 
d="M644 -36q-270 0 -427.5 157.5t-157.5 416.5v2q0 259 158 416t429 157q255 0 400 -119t173 -315h-405q-12 76 -52.5 109.5t-108.5 33.5q-82 0 -126 -73.5t-44 -208.5v-2q0 -135 44 -209t126 -74q138 0 161 144h405q-28 -196 -174 -315.5t-401 -119.5zM192 1210l257 234
h391l256 -234h-344l-108 93l-108 -93h-344z" />
    <glyph glyph-name="Cdotaccent" unicode="&#x10a;" horiz-adv-x="1648" 
d="M862 -36q-361 0 -577 206t-216 551v2q0 345 216 551t577 206q298 0 494 -144t250 -409h-434q-69 208 -312 208q-159 0 -251.5 -106.5t-92.5 -305.5v-2q0 -199 92.5 -305.5t251.5 -106.5q243 0 312 208h434q-54 -265 -250 -409t-494 -144zM693 1623v259h341v-259h-341z
" />
    <glyph glyph-name="cdotaccent" unicode="&#x10b;" horiz-adv-x="1263" 
d="M644 -36q-270 0 -427.5 157.5t-157.5 416.5v2q0 259 158 416t429 157q255 0 400 -119t173 -315h-405q-12 76 -52.5 109.5t-108.5 33.5q-82 0 -126 -73.5t-44 -208.5v-2q0 -135 44 -209t126 -74q138 0 161 144h405q-28 -196 -174 -315.5t-401 -119.5zM493 1209v235h301
v-235h-301z" />
    <glyph glyph-name="Ccaron" unicode="&#x10c;" horiz-adv-x="1648" 
d="M862 -36q-361 0 -577 206t-216 551v2q0 345 216 551t577 206q298 0 494 -144t250 -409h-434q-69 208 -312 208q-159 0 -251.5 -106.5t-92.5 -305.5v-2q0 -199 92.5 -305.5t251.5 -106.5q243 0 312 208h434q-54 -265 -250 -409t-494 -144zM384 1882h371l108 -116l108 116
h370l-256 -264h-445z" />
    <glyph glyph-name="ccaron" unicode="&#x10d;" horiz-adv-x="1263" 
d="M644 -36q-270 0 -427.5 157.5t-157.5 416.5v2q0 259 158 416t429 157q255 0 400 -119t173 -315h-405q-12 76 -52.5 109.5t-108.5 33.5q-82 0 -126 -73.5t-44 -208.5v-2q0 -135 44 -209t126 -74q138 0 161 144h405q-28 -196 -174 -315.5t-401 -119.5zM192 1444h344
l108 -93l108 93h344l-256 -234h-391z" />
    <glyph glyph-name="Dcaron" unicode="&#x10e;" horiz-adv-x="1627" 
d="M129 0v1444h589q146 0 267.5 -22t229 -74t182 -133.5t117.5 -206.5t43 -286v-2q0 -156 -43 -279.5t-117.5 -205t-182 -135.5t-229.5 -77t-267 -23h-589zM557 337h154q99 0 169 17.5t124 59.5t80 118t26 188v2q0 113 -26 189t-80 118.5t-124 60t-169 17.5h-154v-770z
M161 1899h371l108 -116l108 116h370l-256 -264h-445z" />
    <glyph glyph-name="dcaron" unicode="&#x10f;" horiz-adv-x="1373" 
d="M1388 1443h356l-96 -336h-260v336zM531 -36q-96 0 -180.5 37t-149 107t-102 179t-37.5 244v4q0 135 37.5 244t102 179t149 107t180.5 37q110 0 191 -40.5t126 -106.5v488h413v-1443h-413v111q-45 -66 -126 -106.5t-191 -40.5zM676 252q89 0 136.5 73t47.5 206v4
q0 133 -47.5 206t-136.5 73t-136 -73t-47 -206v-4q0 -133 47 -206t136 -73z" />
    <glyph glyph-name="Dcroat" unicode="&#x110;" horiz-adv-x="1648" 
d="M48 537v373h103v534h589q146 0 267.5 -22t229 -74t182 -133.5t117.5 -206.5t43 -286v-2q0 -156 -43 -279.5t-117.5 -205t-182 -135.5t-229.5 -77t-267 -23h-589v537h-103zM579 337h154q99 0 169 17.5t124 59.5t80 118t26 188v2q0 113 -26 189t-80 118.5t-124 60
t-169 17.5h-154v-197h296v-373h-296v-200z" />
    <glyph glyph-name="dcroat" unicode="&#x111;" horiz-adv-x="1373" 
d="M535 1131v202h313v110h413v-110h131v-202h-131v-1131h-413v111q-45 -66 -126 -106.5t-191 -40.5q-96 0 -180.5 37t-149 107t-102 179t-37.5 244v4q0 135 37.5 244t102 179t149 107t180.5 37q110 0 191 -40.5t126 -106.5v176h-313zM676 252q89 0 136.5 73t47.5 206v4
q0 133 -47.5 206t-136.5 73t-136 -73t-47 -206v-4q0 -133 47 -206t136 -73z" />
    <glyph glyph-name="Emacron" unicode="&#x112;" horiz-adv-x="1368" 
d="M129 0v1444h1142v-345h-714v-202h649v-345h-649v-207h721v-345h-1149zM341 1619v223h726v-223h-726z" />
    <glyph glyph-name="emacron" unicode="&#x113;" horiz-adv-x="1321" 
d="M663 -36q-279 0 -442 154t-163 420v2q0 173 79 304.5t214 200t304 68.5q158 0 278 -50.5t193 -142t108 -213t31 -268.5v-1h-800v-1q12 -95 69 -145.5t140 -50.5q65 0 112 23t66 69h399q-43 -162 -197.5 -265.5t-390.5 -103.5zM658 851q-84 0 -134.5 -50.5t-58.5 -134.5
v-1h386v1q-5 80 -55.5 132.5t-137.5 52.5zM299 1221v209h726v-209h-726z" />
    <glyph glyph-name="Ebreve" unicode="&#x114;" horiz-adv-x="1368" 
d="M129 0v1444h1142v-345h-714v-202h649v-345h-649v-207h721v-345h-1149zM704 1597q-167 0 -276 76.5t-123 208.5h256q8 -44 46.5 -69.5t96.5 -25.5t97 25.5t48 69.5h256q-15 -132 -124 -208.5t-277 -76.5z" />
    <glyph glyph-name="ebreve" unicode="&#x115;" horiz-adv-x="1321" 
d="M663 -36q-279 0 -442 154t-163 420v2q0 173 79 304.5t214 200t304 68.5q158 0 278 -50.5t193 -142t108 -213t31 -268.5v-1h-800v-1q12 -95 69 -145.5t140 -50.5q65 0 112 23t66 69h399q-43 -162 -197.5 -265.5t-390.5 -103.5zM658 851q-84 0 -134.5 -50.5t-58.5 -134.5
v-1h386v1q-5 80 -55.5 132.5t-137.5 52.5zM661 1194q-174 0 -279.5 61t-119.5 189h256q16 -82 143 -82q128 0 145 82h256q-14 -128 -120 -189t-281 -61z" />
    <glyph glyph-name="Edotaccent" unicode="&#x116;" horiz-adv-x="1368" 
d="M129 0v1444h1142v-345h-714v-202h649v-345h-649v-207h721v-345h-1149zM535 1623v259h341v-259h-341z" />
    <glyph glyph-name="edotaccent" unicode="&#x117;" horiz-adv-x="1321" 
d="M663 -36q-279 0 -442 154t-163 420v2q0 173 79 304.5t214 200t304 68.5q158 0 278 -50.5t193 -142t108 -213t31 -268.5v-1h-800v-1q12 -95 69 -145.5t140 -50.5q65 0 112 23t66 69h399q-43 -162 -197.5 -265.5t-390.5 -103.5zM658 851q-84 0 -134.5 -50.5t-58.5 -134.5
v-1h386v1q-5 80 -55.5 132.5t-137.5 52.5zM511 1209v235h301v-235h-301z" />
    <glyph glyph-name="Eogonek" unicode="&#x118;" horiz-adv-x="1368" 
d="M129 0v1444h1142v-345h-714v-202h649v-345h-649v-207h721v-345h-1149zM1000 1h278q-37 -23 -60 -57.5t-23 -70.5q0 -35 21 -51.5t54 -16.5q38 0 79 19l66 -160q-93 -61 -231 -61q-132 0 -215.5 56.5t-83.5 146.5q0 109 115 195z" />
    <glyph glyph-name="eogonek" unicode="&#x119;" horiz-adv-x="1321" 
d="M663 -36q-279 0 -442 154t-163 420v2q0 173 79 304.5t214 200t304 68.5q158 0 278 -50.5t193 -142t108 -213t31 -268.5v-1h-800v-1q12 -95 69 -145.5t140 -50.5q65 0 112 23t66 69h399q-43 -162 -197.5 -265.5t-390.5 -103.5zM658 851q-84 0 -134.5 -50.5t-58.5 -134.5
v-1h386v1q-5 80 -55.5 132.5t-137.5 52.5zM630 1h278q-37 -23 -60 -57.5t-23 -70.5q0 -35 21 -51.5t54 -16.5q38 0 79 19l66 -160q-93 -61 -231 -61q-132 0 -215.5 56.5t-83.5 146.5q0 109 115 195z" />
    <glyph glyph-name="Ecaron" unicode="&#x11a;" horiz-adv-x="1368" 
d="M129 0v1444h1142v-345h-714v-202h649v-345h-649v-207h721v-345h-1149zM225 1882h371l108 -116l108 116h370l-256 -264h-445z" />
    <glyph glyph-name="ecaron" unicode="&#x11b;" horiz-adv-x="1321" 
d="M663 -36q-279 0 -442 154t-163 420v2q0 173 79 304.5t214 200t304 68.5q158 0 278 -50.5t193 -142t108 -213t31 -268.5v-1h-800v-1q12 -95 69 -145.5t140 -50.5q65 0 112 23t66 69h399q-43 -162 -197.5 -265.5t-390.5 -103.5zM658 851q-84 0 -134.5 -50.5t-58.5 -134.5
v-1h386v1q-5 80 -55.5 132.5t-137.5 52.5zM209 1444h344l108 -93l108 93h344l-256 -234h-391z" />
    <glyph glyph-name="Gcircumflex" unicode="&#x11c;" horiz-adv-x="1715" 
d="M836 -36q-168 0 -309 51.5t-242.5 146.5t-158.5 238.5t-57 320.5v2q0 348 216 552.5t577 204.5q295 0 491 -131.5t253 -373.5h-434q-67 160 -294 160q-168 0 -265 -107t-97 -305v-2q0 -206 97 -315t266 -109q139 0 226 64.5t88 176.5h-374v305h787v-844h-298l-6 159
q-65 -86 -185.5 -140t-280.5 -54zM379 1618l256 264h445l256 -264h-370l-108 116l-108 -116h-371z" />
    <glyph glyph-name="gcircumflex" unicode="&#x11d;" horiz-adv-x="1378" 
d="M542 58q-96 0 -181 33t-152 96t-106 163.5t-39 226.5v2q0 125 39 226t105.5 165t152 98t181.5 34q108 0 189 -38t125 -102v104h412v-920q0 -116 -30.5 -204t-84 -144t-134 -91.5t-172 -49.5t-205.5 -14q-231 0 -371 92.5t-160 256.5h394q15 -48 51.5 -70.5t107.5 -22.5
q101 0 146.5 46.5t45.5 154.5v97q-44 -63 -125 -101t-189 -38zM681 346q88 0 137 61.5t49 169.5v2q0 108 -49 171.5t-137 63.5t-137.5 -63.5t-49.5 -171.5v-2q0 -108 49.5 -169.5t137.5 -61.5zM214 1210l257 234h391l256 -234h-344l-108 93l-108 -93h-344z" />
    <glyph glyph-name="Gbreve" unicode="&#x11e;" horiz-adv-x="1715" 
d="M836 -36q-168 0 -309 51.5t-242.5 146.5t-158.5 238.5t-57 320.5v2q0 348 216 552.5t577 204.5q295 0 491 -131.5t253 -373.5h-434q-67 160 -294 160q-168 0 -265 -107t-97 -305v-2q0 -206 97 -315t266 -109q139 0 226 64.5t88 176.5h-374v305h787v-844h-298l-6 159
q-65 -86 -185.5 -140t-280.5 -54zM858 1597q-167 0 -276 76.5t-123 208.5h256q8 -44 46.5 -69.5t96.5 -25.5t97 25.5t48 69.5h256q-15 -132 -124 -208.5t-277 -76.5z" />
    <glyph glyph-name="gbreve" unicode="&#x11f;" horiz-adv-x="1378" 
d="M542 58q-96 0 -181 33t-152 96t-106 163.5t-39 226.5v2q0 125 39 226t105.5 165t152 98t181.5 34q108 0 189 -38t125 -102v104h412v-920q0 -116 -30.5 -204t-84 -144t-134 -91.5t-172 -49.5t-205.5 -14q-231 0 -371 92.5t-160 256.5h394q15 -48 51.5 -70.5t107.5 -22.5
q101 0 146.5 46.5t45.5 154.5v97q-44 -63 -125 -101t-189 -38zM681 346q88 0 137 61.5t49 169.5v2q0 108 -49 171.5t-137 63.5t-137.5 -63.5t-49.5 -171.5v-2q0 -108 49.5 -169.5t137.5 -61.5zM666 1194q-174 0 -279.5 61t-119.5 189h256q16 -82 143 -82q128 0 145 82h256
q-14 -128 -120 -189t-281 -61z" />
    <glyph glyph-name="Gdotaccent" unicode="&#x120;" horiz-adv-x="1715" 
d="M836 -36q-168 0 -309 51.5t-242.5 146.5t-158.5 238.5t-57 320.5v2q0 348 216 552.5t577 204.5q295 0 491 -131.5t253 -373.5h-434q-67 160 -294 160q-168 0 -265 -107t-97 -305v-2q0 -206 97 -315t266 -109q139 0 226 64.5t88 176.5h-374v305h787v-844h-298l-6 159
q-65 -86 -185.5 -140t-280.5 -54zM688 1623v259h341v-259h-341z" />
    <glyph glyph-name="gdotaccent" unicode="&#x121;" horiz-adv-x="1378" 
d="M542 58q-96 0 -181 33t-152 96t-106 163.5t-39 226.5v2q0 125 39 226t105.5 165t152 98t181.5 34q108 0 189 -38t125 -102v104h412v-920q0 -116 -30.5 -204t-84 -144t-134 -91.5t-172 -49.5t-205.5 -14q-231 0 -371 92.5t-160 256.5h394q15 -48 51.5 -70.5t107.5 -22.5
q101 0 146.5 46.5t45.5 154.5v97q-44 -63 -125 -101t-189 -38zM681 346q88 0 137 61.5t49 169.5v2q0 108 -49 171.5t-137 63.5t-137.5 -63.5t-49.5 -171.5v-2q0 -108 49.5 -169.5t137.5 -61.5zM516 1209v235h301v-235h-301z" />
    <glyph glyph-name="uni0122" unicode="&#x122;" horiz-adv-x="1715" 
d="M836 -36q-168 0 -309 51.5t-242.5 146.5t-158.5 238.5t-57 320.5v2q0 348 216 552.5t577 204.5q295 0 491 -131.5t253 -373.5h-434q-67 160 -294 160q-168 0 -265 -107t-97 -305v-2q0 -206 97 -315t266 -109q139 0 226 64.5t88 176.5h-374v305h787v-844h-298l-6 159
q-65 -86 -185.5 -140t-280.5 -54zM423 -362l201 264h416l-241 -264h-376z" />
    <glyph glyph-name="uni0123" unicode="&#x123;" horiz-adv-x="1378" 
d="M542 58q-96 0 -181 33t-152 96t-106 163.5t-39 226.5v2q0 125 39 226t105.5 165t152 98t181.5 34q108 0 189 -38t125 -102v104h412v-920q0 -116 -30.5 -204t-84 -144t-134 -91.5t-172 -49.5t-205.5 -14q-231 0 -371 92.5t-160 256.5h394q15 -48 51.5 -70.5t107.5 -22.5
q101 0 146.5 46.5t45.5 154.5v97q-44 -63 -125 -101t-189 -38zM681 346q88 0 137 61.5t49 169.5v2q0 108 -49 171.5t-137 63.5t-137.5 -63.5t-49.5 -171.5v-2q0 -108 49.5 -169.5t137.5 -61.5zM424 1241l316 264h425l-264 -264h-477z" />
    <glyph glyph-name="Hcircumflex" unicode="&#x124;" horiz-adv-x="1599" 
d="M129 0v1445h428v-534h486v534h428v-1445h-428v539h-486v-539h-428zM321 1618l256 264h445l256 -264h-370l-108 116l-108 -116h-371z" />
    <glyph glyph-name="hcircumflex" unicode="&#x125;" 
d="M112 0v1444h413v-493q113 152 325 152q379 0 379 -429v-674h-413v596q0 103 -36 152.5t-110 49.5t-109.5 -49.5t-35.5 -152.5v-596h-413zM-134 1587l257 234h391l256 -234h-344l-108 93l-108 -93h-344z" />
    <glyph glyph-name="Hbar" unicode="&#x126;" horiz-adv-x="1599" 
d="M129 0v1445h428v-534h486v534h428v-1445h-428v539h-486v-539h-428zM437 1619v223h726v-223h-726z" />
    <glyph glyph-name="hbar" unicode="&#x127;" 
d="M112 0v1132h-131v202h131v110h413v-110h313v-202h-313v-181q113 152 325 152q379 0 379 -429v-674h-413v596q0 103 -36 152.5t-110 49.5t-109.5 -49.5t-35.5 -152.5v-596h-413z" />
    <glyph glyph-name="Itilde" unicode="&#x128;" horiz-adv-x="685" 
d="M129 0v1444h428v-1444h-428zM-65 1618q2 129 68.5 210.5t171.5 81.5q55 0 109 -21t97.5 -41.5t70.5 -20.5q59 0 62 73h238q-2 -129 -68 -210.5t-172 -81.5q-53 0 -109 20.5t-99.5 41t-67.5 20.5q-31 0 -45.5 -17t-16.5 -55h-239z" />
    <glyph glyph-name="itilde" unicode="&#x129;" horiz-adv-x="637" 
d="M112 0v1067h413v-1067h-413zM-85 1203q2 129 68.5 210.5t171.5 81.5q55 0 109 -20.5t97.5 -41.5t70.5 -21q59 0 62 74h238q-2 -130 -68 -211.5t-172 -81.5q-42 0 -86.5 13t-75 28.5t-62.5 28.5t-52 13q-31 0 -45.5 -17.5t-16.5 -55.5h-239z" />
    <glyph glyph-name="Imacron" unicode="&#x12a;" horiz-adv-x="685" 
d="M129 0v1444h428v-1444h-428zM-19 1619v223h726v-223h-726z" />
    <glyph glyph-name="imacron" unicode="&#x12b;" horiz-adv-x="637" 
d="M112 0v1067h413v-1067h-413zM-44 1221v209h726v-209h-726z" />
    <glyph glyph-name="Iogonek" unicode="&#x12e;" horiz-adv-x="685" 
d="M129 0v1444h428v-1444h-428zM214 1h278q-37 -23 -60 -57.5t-23 -70.5q0 -35 21 -51.5t54 -16.5q38 0 79 19l66 -160q-93 -61 -231 -61q-132 0 -215.5 56.5t-83.5 146.5q0 109 115 195z" />
    <glyph glyph-name="iogonek" unicode="&#x12f;" horiz-adv-x="637" 
d="M112 0v1067h413v-1067h-413zM112 1149v295h413v-295h-413zM190 1h278q-37 -23 -60 -57.5t-23 -70.5q0 -35 21 -51.5t54 -16.5q38 0 79 19l66 -160q-93 -61 -231 -61q-132 0 -215.5 56.5t-83.5 146.5q0 109 115 195z" />
    <glyph glyph-name="Idotaccent" unicode="&#x130;" horiz-adv-x="685" 
d="M129 0v1444h428v-1444h-428zM174 1623v259h341v-259h-341z" />
    <glyph glyph-name="dotlessi" unicode="&#x131;" horiz-adv-x="637" 
d="M112 0v1067h413v-1067h-413z" />
    <glyph glyph-name="IJ" unicode="&#x132;" horiz-adv-x="2009" 
d="M129 0v1444h428v-1444h-428zM1306 -36q-290 0 -438.5 146.5t-148.5 406.5h427q0 -215 165 -215q79 0 116.5 51t37.5 164v926h428v-926q0 -260 -148.5 -406.5t-438.5 -146.5z" />
    <glyph glyph-name="ij" unicode="&#x133;" horiz-adv-x="1257" 
d="M112 0v1067h413v-1067h-413zM112 1149v295h413v-295h-413zM582 -333v291h44q71 0 88.5 19t17.5 95v995h413v-1018q0 -114 -19.5 -184.5t-70.5 -116.5t-133.5 -63.5t-214.5 -17.5h-125zM732 1149v295h413v-295h-413z" />
    <glyph glyph-name="Jcircumflex" unicode="&#x134;" horiz-adv-x="1299" 
d="M597 -36q-290 0 -438.5 146.5t-148.5 406.5h427q0 -215 165 -215q79 0 116.5 51t37.5 164v926h428v-926q0 -260 -148.5 -406.5t-438.5 -146.5zM493 1618l256 264h445l256 -264h-370l-108 116l-108 -116h-371z" />
    <glyph glyph-name="jcircumflex" unicode="&#x135;" horiz-adv-x="637" 
d="M-38 -333v311h44q71 0 88.5 19t17.5 95v975h413v-1018q0 -114 -19.5 -184.5t-70.5 -116.5t-133.5 -63.5t-214.5 -17.5h-125zM-134 1210l257 234h391l256 -234h-344l-108 93l-108 -93h-344z" />
    <glyph glyph-name="uni0136" unicode="&#x136;" horiz-adv-x="1523" 
d="M129 0v1444h428v-565l461 565h502l-575 -701l615 -743h-536l-467 555v-555h-428zM415 -362l201 264h416l-241 -264h-376z" />
    <glyph glyph-name="uni0137" unicode="&#x137;" horiz-adv-x="1326" 
d="M112 0v1444h413v-749l332 372h463l-439 -480l475 -587h-512l-319 393v-393h-413zM307 -362l201 264h416l-241 -264h-376z" />
    <glyph glyph-name="kgreenlandic" unicode="&#x138;" horiz-adv-x="1326" 
d="M112 0v1067h413v-392l331 392h464l-430 -514l466 -553h-510l-321 371v-371h-413z" />
    <glyph glyph-name="Lacute" unicode="&#x139;" horiz-adv-x="1210" 
d="M129 0v1444h428v-1099h633v-345h-1061zM110 1618l235 264h476l-290 -264h-421z" />
    <glyph glyph-name="lacute" unicode="&#x13a;" horiz-adv-x="637" 
d="M112 0v1444h413v-1444h-413zM93 1587l220 234h477l-307 -234h-390z" />
    <glyph glyph-name="uni013B" unicode="&#x13b;" horiz-adv-x="1210" 
d="M129 0v1444h428v-1099h633v-345h-1061zM234 -362l201 264h416l-241 -264h-376z" />
    <glyph glyph-name="uni013C" unicode="&#x13c;" horiz-adv-x="637" 
d="M112 0v1444h413v-1444h-413zM-95 -362l201 264h416l-241 -264h-376z" />
    <glyph glyph-name="Lcaron" unicode="&#x13d;" horiz-adv-x="1210" 
d="M129 0v1444h428v-1099h633v-345h-1061zM711 1649h356l-96 -336h-260v336z" />
    <glyph glyph-name="lcaron" unicode="&#x13e;" horiz-adv-x="637" 
d="M678 1444h357l-96 -336h-261v336zM112 0v1444h413v-1444h-413z" />
    <glyph glyph-name="Ldot" unicode="&#x13f;" horiz-adv-x="1227" 
d="M129 0v1444h428v-1099h633v-345h-1061zM1123 633h-421v392h421v-392z" />
    <glyph glyph-name="ldot" unicode="&#x140;" horiz-adv-x="980" 
d="M112 0v1444h413v-1444h-413zM1026 542h-420v392h420v-392z" />
    <glyph glyph-name="Lslash" unicode="&#x141;" horiz-adv-x="1334" 
d="M250 0v480l-183 -91v366l183 92v597h428v-384l306 153v-367l-306 -152v-349h633v-345h-1061z" />
    <glyph glyph-name="lslash" unicode="&#x142;" horiz-adv-x="816" 
d="M206 0v498l-148 -75v337l148 75v609h412v-400l149 75v-336l-149 -76v-707h-412z" />
    <glyph glyph-name="Nacute" unicode="&#x143;" horiz-adv-x="1620" 
d="M129 0v1444h468l504 -909h2l-11 365v544h398v-1444h-473l-500 863h-2l12 -365v-498h-398zM602 1618l235 264h476l-290 -264h-421z" />
    <glyph glyph-name="nacute" unicode="&#x144;" 
d="M112 0v1067h413v-116q113 152 325 152q379 0 379 -429v-674h-413v596q0 103 -36 152.5t-110 49.5t-109.5 -49.5t-35.5 -152.5v-596h-413zM444 1210l220 234h477l-307 -234h-390z" />
    <glyph glyph-name="uni0145" unicode="&#x145;" horiz-adv-x="1620" 
d="M129 0v1444h468l504 -909h2l-11 365v544h398v-1444h-473l-500 863h-2l12 -365v-498h-398zM431 -362l201 264h416l-241 -264h-376z" />
    <glyph glyph-name="uni0146" unicode="&#x146;" 
d="M112 0v1067h413v-116q113 152 325 152q379 0 379 -429v-674h-413v596q0 103 -36 152.5t-110 49.5t-109.5 -49.5t-35.5 -152.5v-596h-413zM256 -362l201 264h416l-241 -264h-376z" />
    <glyph glyph-name="Ncaron" unicode="&#x147;" horiz-adv-x="1620" 
d="M129 0v1444h468l504 -909h2l-11 365v544h398v-1444h-473l-500 863h-2l12 -365v-498h-398zM357 1882h371l108 -116l108 116h370l-256 -264h-445z" />
    <glyph glyph-name="ncaron" unicode="&#x148;" 
d="M112 0v1067h413v-116q113 152 325 152q379 0 379 -429v-674h-413v596q0 103 -36 152.5t-110 49.5t-109.5 -49.5t-35.5 -152.5v-596h-413zM218 1444h344l108 -93l108 93h344l-256 -234h-391z" />
    <glyph glyph-name="napostrophe" unicode="&#x149;" 
d="M112 0v1067h413v-116q113 152 325 152q379 0 379 -429v-674h-413v596q0 103 -36 152.5t-110 49.5t-109.5 -49.5t-35.5 -152.5v-596h-413zM475 1444l-109 -336h-401l143 336h367z" />
    <glyph glyph-name="Omacron" unicode="&#x14c;" horiz-adv-x="1760" 
d="M880 -36q-240 0 -424 92.5t-286 264.5t-102 400v2q0 228 102 400t286 264.5t424 92.5t424 -92.5t286 -264.5t102 -400v-2q0 -228 -102 -400t-286 -264.5t-424 -92.5zM880 309q163 0 264 108t101 304v2q0 196 -101 304t-264 108t-264 -108t-101 -304v-2q0 -196 101 -304
t264 -108zM517 1619v223h726v-223h-726z" />
    <glyph glyph-name="omacron" unicode="&#x14d;" horiz-adv-x="1337" 
d="M669 -36q-277 0 -444 155.5t-167 418.5v2q0 262 167 417.5t444 155.5t444 -155.5t167 -417.5v-2q0 -263 -167 -418.5t-444 -155.5zM669 262q187 0 187 276v2q0 275 -187 275t-187 -275v-2q0 -276 187 -276zM306 1221v209h726v-209h-726z" />
    <glyph glyph-name="Obreve" unicode="&#x14e;" horiz-adv-x="1760" 
d="M880 -36q-240 0 -424 92.5t-286 264.5t-102 400v2q0 228 102 400t286 264.5t424 92.5t424 -92.5t286 -264.5t102 -400v-2q0 -228 -102 -400t-286 -264.5t-424 -92.5zM880 309q163 0 264 108t101 304v2q0 196 -101 304t-264 108t-264 -108t-101 -304v-2q0 -196 101 -304
t264 -108zM880 1597q-167 0 -276 76.5t-123 208.5h256q8 -44 46.5 -69.5t96.5 -25.5t97 25.5t48 69.5h256q-15 -132 -124 -208.5t-277 -76.5z" />
    <glyph glyph-name="obreve" unicode="&#x14f;" horiz-adv-x="1337" 
d="M669 -36q-277 0 -444 155.5t-167 418.5v2q0 262 167 417.5t444 155.5t444 -155.5t167 -417.5v-2q0 -263 -167 -418.5t-444 -155.5zM669 262q187 0 187 276v2q0 275 -187 275t-187 -275v-2q0 -276 187 -276zM669 1194q-174 0 -279.5 61t-119.5 189h256q16 -82 143 -82
q128 0 145 82h256q-14 -128 -120 -189t-281 -61z" />
    <glyph glyph-name="Ohungarumlaut" unicode="&#x150;" horiz-adv-x="1760" 
d="M880 -36q-240 0 -424 92.5t-286 264.5t-102 400v2q0 228 102 400t286 264.5t424 92.5t424 -92.5t286 -264.5t102 -400v-2q0 -228 -102 -400t-286 -264.5t-424 -92.5zM880 309q163 0 264 108t101 304v2q0 196 -101 304t-264 108t-264 -108t-101 -304v-2q0 -196 101 -304
t264 -108zM362 1618l235 264h476l-290 -264h-421zM973 1618l234 264h477l-291 -264h-420z" />
    <glyph glyph-name="ohungarumlaut" unicode="&#x151;" horiz-adv-x="1337" 
d="M669 -36q-277 0 -444 155.5t-167 418.5v2q0 262 167 417.5t444 155.5t444 -155.5t167 -417.5v-2q0 -263 -167 -418.5t-444 -155.5zM669 262q187 0 187 276v2q0 275 -187 275t-187 -275v-2q0 -276 187 -276zM177 1210l242 234h447l-284 -234h-405zM721 1210l242 234h447
l-284 -234h-405z" />
    <glyph glyph-name="OE" unicode="&#x152;" horiz-adv-x="2505" 
d="M880 -36q-240 0 -424 92.5t-286 265t-102 400.5v2q0 228 102 400t286 264t424 92q219 0 386 -92v56h1142v-345h-714v-202h649v-345h-649v-208h721v-344h-1149v57q-166 -93 -386 -93zM880 309q163 0 264.5 108.5t101.5 304.5v2q0 195 -101.5 303t-264.5 108t-264 -108
t-101 -303v-2q0 -196 101.5 -304.5t263.5 -108.5z" />
    <glyph glyph-name="oe" unicode="&#x153;" horiz-adv-x="2144" 
d="M669 -36q-277 0 -444 155.5t-167 418.5v2q0 262 167 417.5t444 155.5q247 0 408 -133q160 133 393 133q158 0 278 -50.5t193 -142t108 -213t31 -268.5v-1h-799v-1q12 -95 68.5 -145.5t139.5 -50.5q65 0 112 23t66 69h399q-43 -161 -197.5 -265t-390.5 -104
q-248 0 -405 130q-160 -130 -404 -130zM669 262q187 0 187 276v2q0 275 -187 275t-187 -275v-2q0 -276 187 -276zM1474 851q-85 0 -135.5 -50.5t-58.5 -134.5v-1h386v1q-5 80 -55.5 132.5t-136.5 52.5z" />
    <glyph glyph-name="Racute" unicode="&#x154;" horiz-adv-x="1585" 
d="M129 0v1444h663q126 0 222 -10t182 -36.5t141 -70.5t87 -115t32 -168v-1q-1 -146 -71.5 -237t-178.5 -125q100 -33 153.5 -104t64.5 -192l15 -159q13 -125 19.5 -163t22.5 -63h-440q-17 46 -25 125l-17 176q-6 67 -19 106.5t-41.5 62t-67 29.5t-105.5 7h-209v-506h-428z
M557 810h232q116 0 169.5 36t53.5 119v2q0 83 -53.5 119t-169.5 36h-232v-312zM472 1618l235 264h476l-290 -264h-421z" />
    <glyph glyph-name="racute" unicode="&#x155;" horiz-adv-x="890" 
d="M112 0v1067h413v-217q37 105 118.5 170.5t192.5 65.5h20v-391h-87q-119 0 -181.5 -48.5t-62.5 -176.5v-470h-413zM259 1210l220 234h477l-307 -234h-390z" />
    <glyph glyph-name="uni0156" unicode="&#x156;" horiz-adv-x="1585" 
d="M129 0v1444h663q126 0 222 -10t182 -36.5t141 -70.5t87 -115t32 -168v-1q-1 -146 -71.5 -237t-178.5 -125q100 -33 153.5 -104t64.5 -192l15 -159q13 -125 19.5 -163t22.5 -63h-440q-17 46 -25 125l-17 176q-6 67 -19 106.5t-41.5 62t-67 29.5t-105.5 7h-209v-506h-428z
M557 810h232q116 0 169.5 36t53.5 119v2q0 83 -53.5 119t-169.5 36h-232v-312zM379 -362l201 264h416l-241 -264h-376z" />
    <glyph glyph-name="uni0157" unicode="&#x157;" horiz-adv-x="890" 
d="M112 0v1067h413v-217q37 105 118.5 170.5t192.5 65.5h20v-391h-87q-119 0 -181.5 -48.5t-62.5 -176.5v-470h-413zM-96 -362l201 264h416l-241 -264h-376z" />
    <glyph glyph-name="Rcaron" unicode="&#x158;" horiz-adv-x="1585" 
d="M129 0v1444h663q126 0 222 -10t182 -36.5t141 -70.5t87 -115t32 -168v-1q-1 -146 -71.5 -237t-178.5 -125q100 -33 153.5 -104t64.5 -192l15 -159q13 -125 19.5 -163t22.5 -63h-440q-17 46 -25 125l-17 176q-6 67 -19 106.5t-41.5 62t-67 29.5t-105.5 7h-209v-506h-428z
M557 810h232q116 0 169.5 36t53.5 119v2q0 83 -53.5 119t-169.5 36h-232v-312zM227 1882h371l108 -116l108 116h370l-256 -264h-445z" />
    <glyph glyph-name="rcaron" unicode="&#x159;" horiz-adv-x="890" 
d="M112 0v1067h413v-217q37 105 118.5 170.5t192.5 65.5h20v-391h-87q-119 0 -181.5 -48.5t-62.5 -176.5v-470h-413zM33 1444h344l108 -93l108 93h344l-256 -234h-391z" />
    <glyph glyph-name="Sacute" unicode="&#x15a;" horiz-adv-x="1471" 
d="M755 -36q-130 0 -238 24t-186 66.5t-135.5 103t-90 131.5t-44.5 154h434q41 -173 269 -173q105 0 164 31t59 92v1q0 61 -51 94.5t-164 54.5l-227 43q-222 41 -343.5 154t-121.5 296v2q0 129 80.5 229.5t226 156t330.5 55.5q287 0 449 -120t196 -333h-434
q-38 144 -228 144q-91 0 -144 -29.5t-53 -88.5v-2q0 -50 39.5 -81t126.5 -48l226 -43q261 -49 388 -154.5t127 -289.5v-3q0 -218 -178.5 -342.5t-476.5 -124.5zM493 1618l235 264h476l-290 -264h-421z" />
    <glyph glyph-name="sacute" unicode="&#x15b;" horiz-adv-x="1217" 
d="M619 -36q-259 0 -404.5 95.5t-159.5 272.5h400q8 -69 50 -98t120 -29q62 0 98.5 21.5t36.5 60.5v1q0 41 -35 61.5t-121 35.5l-185 32q-351 58 -351 340v2q0 158 145.5 255.5t375.5 97.5q492 0 536 -344h-398q-7 55 -39.5 79.5t-94.5 24.5q-53 0 -85.5 -20.5t-32.5 -54.5
v-2q0 -38 31.5 -58.5t101.5 -32.5l177 -29q196 -33 288.5 -115t92.5 -231v-2q0 -166 -145.5 -264.5t-401.5 -98.5zM358 1210l220 234h477l-307 -234h-390z" />
    <glyph glyph-name="Scircumflex" unicode="&#x15c;" horiz-adv-x="1471" 
d="M755 -36q-130 0 -238 24t-186 66.5t-135.5 103t-90 131.5t-44.5 154h434q41 -173 269 -173q105 0 164 31t59 92v1q0 61 -51 94.5t-164 54.5l-227 43q-222 41 -343.5 154t-121.5 296v2q0 129 80.5 229.5t226 156t330.5 55.5q287 0 449 -120t196 -333h-434
q-38 144 -228 144q-91 0 -144 -29.5t-53 -88.5v-2q0 -50 39.5 -81t126.5 -48l226 -43q261 -49 388 -154.5t127 -289.5v-3q0 -218 -178.5 -342.5t-476.5 -124.5zM248 1618l256 264h445l256 -264h-370l-108 116l-108 -116h-371z" />
    <glyph glyph-name="scircumflex" unicode="&#x15d;" horiz-adv-x="1217" 
d="M619 -36q-259 0 -404.5 95.5t-159.5 272.5h400q8 -69 50 -98t120 -29q62 0 98.5 21.5t36.5 60.5v1q0 41 -35 61.5t-121 35.5l-185 32q-351 58 -351 340v2q0 158 145.5 255.5t375.5 97.5q492 0 536 -344h-398q-7 55 -39.5 79.5t-94.5 24.5q-53 0 -85.5 -20.5t-32.5 -54.5
v-2q0 -38 31.5 -58.5t101.5 -32.5l177 -29q196 -33 288.5 -115t92.5 -231v-2q0 -166 -145.5 -264.5t-401.5 -98.5zM132 1210l257 234h391l256 -234h-344l-108 93l-108 -93h-344z" />
    <glyph glyph-name="Scedilla" unicode="&#x15e;" horiz-adv-x="1471" 
d="M755 -36q-130 0 -238 24t-186 66.5t-135.5 103t-90 131.5t-44.5 154h434q41 -173 269 -173q105 0 164 31t59 92v1q0 61 -51 94.5t-164 54.5l-227 43q-222 41 -343.5 154t-121.5 296v2q0 129 80.5 229.5t226 156t330.5 55.5q287 0 449 -120t196 -333h-434
q-38 144 -228 144q-91 0 -144 -29.5t-53 -88.5v-2q0 -50 39.5 -81t126.5 -48l226 -43q261 -49 388 -154.5t127 -289.5v-3q0 -218 -178.5 -342.5t-476.5 -124.5zM721 -437q-137 0 -241 52l57 124q84 -44 160 -44q107 0 107 50q0 25 -24.5 38.5t-58.5 13.5q-52 0 -82 -24
l-88 54l161 232h147l-117 -170q35 9 73 9q82 0 143 -35.5t61 -109.5q0 -92 -88.5 -141t-209.5 -49z" />
    <glyph glyph-name="scedilla" unicode="&#x15f;" horiz-adv-x="1217" 
d="M619 -36q-259 0 -404.5 95.5t-159.5 272.5h400q8 -69 50 -98t120 -29q62 0 98.5 21.5t36.5 60.5v1q0 41 -35 61.5t-121 35.5l-185 32q-351 58 -351 340v2q0 158 145.5 255.5t375.5 97.5q492 0 536 -344h-398q-7 55 -39.5 79.5t-94.5 24.5q-53 0 -85.5 -20.5t-32.5 -54.5
v-2q0 -38 31.5 -58.5t101.5 -32.5l177 -29q196 -33 288.5 -115t92.5 -231v-2q0 -166 -145.5 -264.5t-401.5 -98.5zM584 -437q-137 0 -241 52l57 124q84 -44 160 -44q107 0 107 50q0 25 -24.5 38.5t-58.5 13.5q-52 0 -82 -24l-88 54l161 232h147l-117 -170q35 9 73 9
q82 0 143 -35.5t61 -109.5q0 -92 -88.5 -141t-209.5 -49z" />
    <glyph glyph-name="Scaron" unicode="&#x160;" horiz-adv-x="1471" 
d="M755 -36q-130 0 -238 24t-186 66.5t-135.5 103t-90 131.5t-44.5 154h434q41 -173 269 -173q105 0 164 31t59 92v1q0 61 -51 94.5t-164 54.5l-227 43q-222 41 -343.5 154t-121.5 296v2q0 129 80.5 229.5t226 156t330.5 55.5q287 0 449 -120t196 -333h-434
q-38 144 -228 144q-91 0 -144 -29.5t-53 -88.5v-2q0 -50 39.5 -81t126.5 -48l226 -43q261 -49 388 -154.5t127 -289.5v-3q0 -218 -178.5 -342.5t-476.5 -124.5zM248 1882h371l108 -116l108 116h370l-256 -264h-445z" />
    <glyph glyph-name="scaron" unicode="&#x161;" horiz-adv-x="1217" 
d="M619 -36q-259 0 -404.5 95.5t-159.5 272.5h400q8 -69 50 -98t120 -29q62 0 98.5 21.5t36.5 60.5v1q0 41 -35 61.5t-121 35.5l-185 32q-351 58 -351 340v2q0 158 145.5 255.5t375.5 97.5q492 0 536 -344h-398q-7 55 -39.5 79.5t-94.5 24.5q-53 0 -85.5 -20.5t-32.5 -54.5
v-2q0 -38 31.5 -58.5t101.5 -32.5l177 -29q196 -33 288.5 -115t92.5 -231v-2q0 -166 -145.5 -264.5t-401.5 -98.5zM132 1444h344l108 -93l108 93h344l-256 -234h-391z" />
    <glyph glyph-name="uni0162" unicode="&#x162;" horiz-adv-x="1423" 
d="M497 0v1099h-474v345h1377v-345h-475v-1099h-428zM681 -437q-137 0 -241 52l57 124q84 -44 160 -44q107 0 107 50q0 25 -24.5 38.5t-58.5 13.5q-52 0 -82 -24l-88 54l161 232h147l-117 -170q34 9 73 9q82 0 143 -35.5t61 -109.5q0 -92 -88.5 -141t-209.5 -49z" />
    <glyph glyph-name="uni0163" unicode="&#x163;" horiz-adv-x="892" 
d="M586 0q-159 0 -242.5 33t-114.5 101.5t-31 197.5v446h-147v289h147v338h413v-338h201v-289h-201v-356q0 -70 23.5 -91t88.5 -21h87v-310h-224zM499 -437q-137 0 -241 52l57 124q84 -44 160 -44q107 0 107 50q0 25 -24.5 38.5t-58.5 13.5q-52 0 -82 -24l-88 54l161 232
h147l-117 -170q34 9 73 9q82 0 143 -35.5t61 -109.5q0 -92 -88.5 -141t-209.5 -49z" />
    <glyph glyph-name="Tcaron" unicode="&#x164;" horiz-adv-x="1423" 
d="M497 0v1099h-474v345h1377v-345h-475v-1099h-428zM233 1882h371l108 -116l108 116h370l-256 -264h-445z" />
    <glyph glyph-name="tcaron" unicode="&#x165;" horiz-adv-x="892" 
d="M586 0q-159 0 -242.5 33t-114.5 101.5t-31 197.5v446h-147v289h147v338h413v-338h201v-289h-201v-356q0 -70 23.5 -91t88.5 -21h87v-310h-224zM747 1649h356l-96 -336h-260v336z" />
    <glyph glyph-name="Tbar" unicode="&#x166;" horiz-adv-x="1423" 
d="M497 0v595h-303v332h303v172h-474v345h1377v-345h-475v-172h304v-332h-304v-595h-428z" />
    <glyph glyph-name="tbar" unicode="&#x167;" horiz-adv-x="898" 
d="M586 0q-159 0 -242.5 33t-114.5 101.5t-31 197.5v127h-147v192h147v127h-147v289h147v338h413v-338h201v-289h-201v-127h207v-192h-207v-37q0 -70 23.5 -91t88.5 -21h87v-310h-224z" />
    <glyph glyph-name="Utilde" unicode="&#x168;" horiz-adv-x="1557" 
d="M779 -36q-341 0 -502.5 149.5t-161.5 480.5v850h428v-847q0 -146 54 -217t182 -71q127 0 181.5 71t54.5 217v847h428v-850q0 -331 -161.5 -480.5t-502.5 -149.5zM370 1618q2 129 68.5 210.5t171.5 81.5q55 0 109 -21t97.5 -41.5t70.5 -20.5q59 0 62 73h238
q-2 -129 -68 -210.5t-172 -81.5q-53 0 -109 20.5t-99.5 41t-67.5 20.5q-31 0 -45.5 -17t-16.5 -55h-239z" />
    <glyph glyph-name="utilde" unicode="&#x169;" 
d="M481 -34q-379 0 -379 429v672h413v-594q0 -103 35.5 -152.5t109.5 -49.5t109.5 49.5t35.5 152.5v594h413v-1067h-413v130q-51 -77 -133.5 -120.5t-190.5 -43.5zM256 1203q2 129 68.5 210.5t171.5 81.5q55 0 109 -20.5t97.5 -41.5t70.5 -21q59 0 62 74h238
q-2 -130 -68 -211.5t-172 -81.5q-42 0 -86.5 13t-75 28.5t-62.5 28.5t-52 13q-31 0 -45.5 -17.5t-16.5 -55.5h-239z" />
    <glyph glyph-name="Umacron" unicode="&#x16a;" horiz-adv-x="1557" 
d="M779 -36q-341 0 -502.5 149.5t-161.5 480.5v850h428v-847q0 -146 54 -217t182 -71q127 0 181.5 71t54.5 217v847h428v-850q0 -331 -161.5 -480.5t-502.5 -149.5zM416 1619v223h726v-223h-726z" />
    <glyph glyph-name="umacron" unicode="&#x16b;" 
d="M481 -34q-379 0 -379 429v672h413v-594q0 -103 35.5 -152.5t109.5 -49.5t109.5 49.5t35.5 152.5v594h413v-1067h-413v130q-51 -77 -133.5 -120.5t-190.5 -43.5zM297 1221v209h726v-209h-726z" />
    <glyph glyph-name="Ubreve" unicode="&#x16c;" horiz-adv-x="1557" 
d="M779 -36q-341 0 -502.5 149.5t-161.5 480.5v850h428v-847q0 -146 54 -217t182 -71q127 0 181.5 71t54.5 217v847h428v-850q0 -331 -161.5 -480.5t-502.5 -149.5zM779 1597q-167 0 -276 76.5t-123 208.5h256q8 -44 46.5 -69.5t96.5 -25.5t97 25.5t48 69.5h256
q-15 -132 -124 -208.5t-277 -76.5z" />
    <glyph glyph-name="ubreve" unicode="&#x16d;" 
d="M481 -34q-379 0 -379 429v672h413v-594q0 -103 35.5 -152.5t109.5 -49.5t109.5 49.5t35.5 152.5v594h413v-1067h-413v130q-51 -77 -133.5 -120.5t-190.5 -43.5zM659 1194q-174 0 -279.5 61t-119.5 189h256q16 -82 143 -82q128 0 145 82h256q-14 -128 -120 -189t-281 -61z
" />
    <glyph glyph-name="Uring" unicode="&#x16e;" horiz-adv-x="1557" 
d="M779 -36q-341 0 -502.5 149.5t-161.5 480.5v850h428v-847q0 -146 54 -217t182 -71q127 0 181.5 71t54.5 217v847h428v-850q0 -331 -161.5 -480.5t-502.5 -149.5zM779 1523q-100 0 -169.5 66t-69.5 168t69.5 168.5t169.5 66.5t169.5 -66.5t69.5 -168.5t-69.5 -168
t-169.5 -66zM779 1678q35 0 56.5 22t21.5 57t-22 57.5t-56 22.5q-35 0 -57 -22.5t-22 -57.5t22 -57t57 -22z" />
    <glyph glyph-name="uring" unicode="&#x16f;" 
d="M481 -34q-379 0 -379 429v672h413v-594q0 -103 35.5 -152.5t109.5 -49.5t109.5 49.5t35.5 152.5v594h413v-1067h-413v130q-51 -77 -133.5 -120.5t-190.5 -43.5zM660 1160q-100 0 -169.5 66.5t-69.5 168.5t69.5 168.5t169.5 66.5q99 0 168.5 -66.5t69.5 -168.5
t-69.5 -168.5t-168.5 -66.5zM660 1304q39 0 64 25.5t25 65.5t-25 65.5t-64 25.5q-40 0 -65 -25.5t-25 -65.5t25 -65.5t65 -25.5z" />
    <glyph glyph-name="Uhungarumlaut" unicode="&#x170;" horiz-adv-x="1557" 
d="M779 -36q-341 0 -502.5 149.5t-161.5 480.5v850h428v-847q0 -146 54 -217t182 -71q127 0 181.5 71t54.5 217v847h428v-850q0 -331 -161.5 -480.5t-502.5 -149.5zM261 1618l235 264h476l-290 -264h-421zM872 1618l234 264h477l-291 -264h-420z" />
    <glyph glyph-name="uhungarumlaut" unicode="&#x171;" 
d="M481 -34q-379 0 -379 429v672h413v-594q0 -103 35.5 -152.5t109.5 -49.5t109.5 49.5t35.5 152.5v594h413v-1067h-413v130q-51 -77 -133.5 -120.5t-190.5 -43.5zM168 1210l242 234h447l-284 -234h-405zM712 1210l242 234h447l-284 -234h-405z" />
    <glyph glyph-name="Uogonek" unicode="&#x172;" horiz-adv-x="1557" 
d="M779 -36q-341 0 -502.5 149.5t-161.5 480.5v850h428v-847q0 -146 54 -217t182 -71q127 0 181.5 71t54.5 217v847h428v-850q0 -331 -161.5 -480.5t-502.5 -149.5zM650 1h278q-37 -23 -60 -57.5t-23 -70.5q0 -35 21 -51.5t54 -16.5q38 0 79 19l66 -160q-93 -61 -231 -61
q-132 0 -215.5 56.5t-83.5 146.5q0 109 115 195z" />
    <glyph glyph-name="uogonek" unicode="&#x173;" 
d="M481 -34q-379 0 -379 429v672h413v-594q0 -103 35.5 -152.5t109.5 -49.5t109.5 49.5t35.5 152.5v594h413v-1067h-413v130q-51 -77 -133.5 -120.5t-190.5 -43.5zM881 1h278q-37 -23 -60 -57.5t-23 -70.5q0 -35 21 -51.5t54 -16.5q38 0 79 19l66 -160q-93 -61 -231 -61
q-132 0 -215.5 56.5t-83.5 146.5q0 109 115 195z" />
    <glyph glyph-name="Wcircumflex" unicode="&#x174;" horiz-adv-x="2132" 
d="M347 0l-306 1444h437l181 -943h4l173 943h461l167 -947h6l186 947h435l-306 -1444h-542l-175 1029h-5l-174 -1029h-542zM587 1618l256 264h445l256 -264h-370l-108 116l-108 -116h-371z" />
    <glyph glyph-name="wcircumflex" unicode="&#x175;" horiz-adv-x="1871" 
d="M322 0l-301 1067h402l165 -672h1l166 672h361l169 -672h1l167 672h397l-300 -1067h-437l-178 693h-1l-175 -693h-437zM484 1210l257 234h391l256 -234h-344l-108 93l-108 -93h-344z" />
    <glyph glyph-name="Ycircumflex" unicode="&#x176;" horiz-adv-x="1597" 
d="M585 0v504l-606 940h468l358 -579h1l351 579h458l-602 -940v-504h-428zM320 1618l256 264h445l256 -264h-370l-108 116l-108 -116h-371z" />
    <glyph glyph-name="ycircumflex" unicode="&#x177;" horiz-adv-x="1277" 
d="M133 -333v290h146q61 0 83.5 10.5t39.5 52.5l7 16l-411 1031h418l222 -654h2l268 654h387l-475 -1082q-33 -76 -61.5 -126t-64 -87t-68 -56.5t-86 -31t-105.5 -14.5t-138 -3h-164zM214 1210l257 234h391l256 -234h-344l-108 93l-108 -93h-344z" />
    <glyph glyph-name="Ydieresis" unicode="&#x178;" horiz-adv-x="1597" 
d="M585 0v504l-606 940h468l358 -579h1l351 579h458l-602 -940v-504h-428zM354 1623v259h341v-259h-341zM903 1623v259h341v-259h-341z" />
    <glyph glyph-name="Zacute" unicode="&#x179;" horiz-adv-x="1405" 
d="M78 0v330l713 769h-700v345h1221v-329l-716 -770h735v-345h-1253zM493 1618l235 264h476l-290 -264h-421z" />
    <glyph glyph-name="zacute" unicode="&#x17a;" horiz-adv-x="1185" 
d="M78 0v301l548 456h-538v310h1001v-300l-553 -457h578v-310h-1036zM383 1210l220 234h477l-307 -234h-390z" />
    <glyph glyph-name="Zdotaccent" unicode="&#x17b;" horiz-adv-x="1405" 
d="M78 0v330l713 769h-700v345h1221v-329l-716 -770h735v-345h-1253zM558 1623v259h341v-259h-341z" />
    <glyph glyph-name="zdotaccent" unicode="&#x17c;" horiz-adv-x="1185" 
d="M78 0v301l548 456h-538v310h1001v-300l-553 -457h578v-310h-1036zM458 1209v235h301v-235h-301z" />
    <glyph glyph-name="Zcaron" unicode="&#x17d;" horiz-adv-x="1405" 
d="M78 0v330l713 769h-700v345h1221v-329l-716 -770h735v-345h-1253zM248 1882h371l108 -116l108 116h370l-256 -264h-445z" />
    <glyph glyph-name="zcaron" unicode="&#x17e;" horiz-adv-x="1185" 
d="M78 0v301l548 456h-538v310h1001v-300l-553 -457h578v-310h-1036zM157 1444h344l108 -93l108 93h344l-256 -234h-391z" />
    <glyph glyph-name="uni01C5" unicode="&#x1c5;" horiz-adv-x="2781" 
d="M129 0v1444h589q146 0 267.5 -22t229 -74t182 -133.5t117.5 -206.5t43 -286v-2q0 -156 -43 -279.5t-117.5 -205t-182 -135.5t-229.5 -77t-267 -23h-589zM557 337h154q99 0 169 17.5t124 59.5t80 118t26 188v2q0 113 -26 189t-80 118.5t-124 60t-169 17.5h-154v-770z
M1675 0v301l548 456h-538v310h1001v-300l-553 -457h578v-310h-1036zM1753 1444h344l108 -93l108 93h344l-256 -234h-391z" />
    <glyph glyph-name="uni01C6" unicode="&#x1c6;" horiz-adv-x="2558" 
d="M531 -36q-96 0 -180.5 37t-149 107t-102 179t-37.5 244v4q0 135 37.5 244t102 179t149 107t180.5 37q110 0 191 -40.5t126 -106.5v488h413v-1443h-413v111q-45 -66 -126 -106.5t-191 -40.5zM676 252q89 0 136.5 73t47.5 206v4q0 133 -47.5 206t-136.5 73t-136 -73
t-47 -206v-4q0 -133 47 -206t136 -73zM1451 0v301l548 456h-538v310h1001v-300l-553 -457h578v-310h-1036zM1530 1444h344l108 -93l108 93h344l-256 -234h-391z" />
    <glyph glyph-name="uni01F2" unicode="&#x1f2;" horiz-adv-x="2781" 
d="M129 0v1444h589q146 0 267.5 -22t229 -74t182 -133.5t117.5 -206.5t43 -286v-2q0 -156 -43 -279.5t-117.5 -205t-182 -135.5t-229.5 -77t-267 -23h-589zM557 337h154q99 0 169 17.5t124 59.5t80 118t26 188v2q0 113 -26 189t-80 118.5t-124 60t-169 17.5h-154v-770z
M1675 0v301l548 456h-538v310h1001v-300l-553 -457h578v-310h-1036z" />
    <glyph glyph-name="uni01F3" unicode="&#x1f3;" horiz-adv-x="2558" 
d="M531 -36q-96 0 -180.5 37t-149 107t-102 179t-37.5 244v4q0 135 37.5 244t102 179t149 107t180.5 37q110 0 191 -40.5t126 -106.5v488h413v-1443h-413v111q-45 -66 -126 -106.5t-191 -40.5zM676 252q89 0 136.5 73t47.5 206v4q0 133 -47.5 206t-136.5 73t-136 -73
t-47 -206v-4q0 -133 47 -206t136 -73zM1451 0v301l548 456h-538v310h1001v-300l-553 -457h578v-310h-1036z" />
    <glyph glyph-name="uni0218" unicode="&#x218;" horiz-adv-x="1471" 
d="M755 -36q-130 0 -238 24t-186 66.5t-135.5 103t-90 131.5t-44.5 154h434q41 -173 269 -173q105 0 164 31t59 92v1q0 61 -51 94.5t-164 54.5l-227 43q-222 41 -343.5 154t-121.5 296v2q0 129 80.5 229.5t226 156t330.5 55.5q287 0 449 -120t196 -333h-434
q-38 144 -228 144q-91 0 -144 -29.5t-53 -88.5v-2q0 -50 39.5 -81t126.5 -48l226 -43q261 -49 388 -154.5t127 -289.5v-3q0 -218 -178.5 -342.5t-476.5 -124.5zM338 -362l201 264h416l-241 -264h-376z" />
    <glyph glyph-name="uni0219" unicode="&#x219;" horiz-adv-x="1217" 
d="M619 -36q-259 0 -404.5 95.5t-159.5 272.5h400q8 -69 50 -98t120 -29q62 0 98.5 21.5t36.5 60.5v1q0 41 -35 61.5t-121 35.5l-185 32q-351 58 -351 340v2q0 158 145.5 255.5t375.5 97.5q492 0 536 -344h-398q-7 55 -39.5 79.5t-94.5 24.5q-53 0 -85.5 -20.5t-32.5 -54.5
v-2q0 -38 31.5 -58.5t101.5 -32.5l177 -29q196 -33 288.5 -115t92.5 -231v-2q0 -166 -145.5 -264.5t-401.5 -98.5zM201 -362l201 264h416l-241 -264h-376z" />
    <glyph glyph-name="uni021A" unicode="&#x21a;" horiz-adv-x="1423" 
d="M497 0v1099h-474v345h1377v-345h-475v-1099h-428zM299 -362l201 264h416l-241 -264h-376z" />
    <glyph glyph-name="uni021B" unicode="&#x21b;" horiz-adv-x="892" 
d="M586 0q-159 0 -242.5 33t-114.5 101.5t-31 197.5v446h-147v289h147v338h413v-338h201v-289h-201v-356q0 -70 23.5 -91t88.5 -21h87v-310h-224zM117 -362l201 264h416l-241 -264h-376z" />
    <glyph glyph-name="uni0237" unicode="&#x237;" horiz-adv-x="637" 
d="M-38 -333v311h44q71 0 88.5 19t17.5 95v975h413v-1018q0 -114 -19.5 -184.5t-70.5 -116.5t-133.5 -63.5t-214.5 -17.5h-125z" />
    <glyph glyph-name="uni02BC" unicode="&#x2bc;" horiz-adv-x="646" 
d="M578 1505l-109 -336h-401l143 336h367z" />
    <glyph glyph-name="circumflex" unicode="&#x2c6;" horiz-adv-x="981" 
d="M38 1210l257 234h391l256 -234h-344l-108 93l-108 -93h-344z" />
    <glyph glyph-name="caron" unicode="&#x2c7;" horiz-adv-x="981" 
d="M38 1444h344l108 -93l108 93h344l-256 -234h-391z" />
    <glyph glyph-name="uni02C9" unicode="&#x2c9;" horiz-adv-x="820" 
d="M47 1221v209h726v-209h-726z" />
    <glyph glyph-name="breve" unicode="&#x2d8;" horiz-adv-x="893" 
d="M446 1194q-174 0 -279.5 61t-119.5 189h256q16 -82 143 -82q128 0 145 82h256q-14 -128 -120 -189t-281 -61z" />
    <glyph glyph-name="dotaccent" unicode="&#x2d9;" horiz-adv-x="395" 
d="M47 1209v235h301v-235h-301z" />
    <glyph glyph-name="ring" unicode="&#x2da;" horiz-adv-x="570" 
d="M286 1160q-100 0 -169.5 66.5t-69.5 168.5t69.5 168.5t169.5 66.5q99 0 168.5 -66.5t69.5 -168.5t-69.5 -168.5t-168.5 -66.5zM286 1304q39 0 64 25.5t25 65.5t-25 65.5t-64 25.5q-40 0 -65 -25.5t-25 -65.5t25 -65.5t65 -25.5z" />
    <glyph glyph-name="ogonek" unicode="&#x2db;" horiz-adv-x="624" 
d="M162 1h278q-37 -23 -60 -57.5t-23 -70.5q0 -35 21 -51.5t54 -16.5q38 0 79 19l66 -160q-93 -61 -231 -61q-132 0 -215.5 56.5t-83.5 146.5q0 109 115 195z" />
    <glyph glyph-name="tilde" unicode="&#x2dc;" horiz-adv-x="910" 
d="M47 1203q2 129 68.5 210.5t171.5 81.5q55 0 109 -20.5t97.5 -41.5t70.5 -21q59 0 62 74h238q-2 -130 -68 -211.5t-172 -81.5q-42 0 -86.5 13t-75 28.5t-62.5 28.5t-52 13q-31 0 -45.5 -17.5t-16.5 -55.5h-239z" />
    <glyph glyph-name="hungarumlaut" unicode="&#x2dd;" horiz-adv-x="1327" 
d="M47 1210l242 234h447l-284 -234h-405zM591 1210l242 234h447l-284 -234h-405z" />
    <glyph glyph-name="uni030C" unicode="&#x30c;" horiz-adv-x="480" 
d="M68 1505h356l-96 -336h-260v336z" />
    <glyph glyph-name="uni0326" unicode="&#x326;" horiz-adv-x="711" 
d="M47 -362l201 264h416l-241 -264h-376z" />
    <glyph glyph-name="uni0327" unicode="&#x327;" horiz-adv-x="834" 
d="M47 1241l316 264h425l-264 -264h-477z" />
    <glyph glyph-name="uni0394" unicode="&#x394;" horiz-adv-x="1551" 
d="M-6 0l545 1505h475l545 -1505h-1565zM464 308h625l-313 915z" />
    <glyph glyph-name="uni03A9" unicode="&#x3a9;" horiz-adv-x="1880" 
d="M74 0v309h390q-344 215 -344 583v4q0 187 108 334.5t295 228.5t418 81q230 0 417 -81t295 -229t108 -334v-4q0 -368 -344 -583h390v-309h-782v294q57 28 109.5 74t96.5 109t70.5 147t26.5 176v4q0 181 -105.5 287t-281.5 106t-282 -106t-106 -287v-4q0 -92 26.5 -176
t70.5 -147t96.5 -109t109.5 -74v-294h-782z" />
    <glyph glyph-name="uni03BC" unicode="&#x3bc;" 
d="M102 -333v1400h412v-594q0 -103 36 -152.5t110 -49.5t109.5 49.5t35.5 152.5v594h413v-1067h-413v129q-85 -127 -242 -153q-26 0 -49 10v-319h-412z" />
    <glyph glyph-name="pi" unicode="&#x3c0;" horiz-adv-x="1614" 
d="M255 0v757h-219v310h1495v-310h-219v-306q0 -84 29.5 -112.5t98.5 -28.5h91v-310h-185q-132 0 -219.5 22.5t-137.5 71t-70 115t-20 164.5v384h-231v-757h-413z" />
    <glyph glyph-name="Wgrave" unicode="&#x1e80;" horiz-adv-x="2132" 
d="M347 0l-306 1444h437l181 -943h4l173 943h461l167 -947h6l186 947h435l-306 -1444h-542l-175 1029h-5l-174 -1029h-542zM878 1618l-291 264h477l234 -264h-420z" />
    <glyph glyph-name="wgrave" unicode="&#x1e81;" horiz-adv-x="1871" 
d="M322 0l-301 1067h402l165 -672h1l166 672h361l169 -672h1l167 672h397l-300 -1067h-437l-178 693h-1l-175 -693h-437zM795 1210l-302 234h476l221 -234h-395z" />
    <glyph glyph-name="Wacute" unicode="&#x1e82;" horiz-adv-x="2132" 
d="M347 0l-306 1444h437l181 -943h4l173 943h461l167 -947h6l186 947h435l-306 -1444h-542l-175 1029h-5l-174 -1029h-542zM832 1618l235 264h476l-290 -264h-421z" />
    <glyph glyph-name="wacute" unicode="&#x1e83;" horiz-adv-x="1871" 
d="M322 0l-301 1067h402l165 -672h1l166 672h361l169 -672h1l167 672h397l-300 -1067h-437l-178 693h-1l-175 -693h-437zM710 1210l220 234h477l-307 -234h-390z" />
    <glyph glyph-name="Wdieresis" unicode="&#x1e84;" horiz-adv-x="2132" 
d="M347 0l-306 1444h437l181 -943h4l173 943h461l167 -947h6l186 947h435l-306 -1444h-542l-175 1029h-5l-174 -1029h-542zM621 1623v259h341v-259h-341zM1170 1623v259h341v-259h-341z" />
    <glyph glyph-name="wdieresis" unicode="&#x1e85;" horiz-adv-x="1871" 
d="M322 0l-301 1067h402l165 -672h1l166 672h361l169 -672h1l167 672h397l-300 -1067h-437l-178 693h-1l-175 -693h-437zM520 1209v235h301v-235h-301zM1052 1209v235h301v-235h-301z" />
    <glyph glyph-name="endash" unicode="&#x2013;" horiz-adv-x="1320" 
d="M105 375v345h1109v-345h-1109z" />
    <glyph glyph-name="emdash" unicode="&#x2014;" horiz-adv-x="2139" 
d="M105 375v345h1929v-345h-1929z" />
    <glyph glyph-name="quoteleft" unicode="&#x2018;" horiz-adv-x="651" 
d="M615 1444l-149 -615h-420l198 615h371z" />
    <glyph glyph-name="quoteright" unicode="&#x2019;" horiz-adv-x="645" 
d="M56 829l149 615h420l-198 -615h-371z" />
    <glyph glyph-name="quotesinglbase" unicode="&#x201a;" horiz-adv-x="643" 
d="M5 -222l148 614h420l-198 -614h-370z" />
    <glyph glyph-name="quotedblleft" unicode="&#x201c;" horiz-adv-x="1178" 
d="M615 1444l-149 -615h-420l198 615h371zM1141 1444l-147 -615h-421l198 615h370z" />
    <glyph glyph-name="quotedblright" unicode="&#x201d;" horiz-adv-x="1172" 
d="M584 829l148 615h421l-199 -615h-370zM56 829l149 615h420l-198 -615h-371z" />
    <glyph glyph-name="quotedblbase" unicode="&#x201e;" horiz-adv-x="1171" 
d="M5 -222l148 614h420l-198 -614h-370zM532 -222l148 614h421l-199 -614h-370z" />
    <glyph glyph-name="dagger" unicode="&#x2020;" horiz-adv-x="1190" 
d="M412 -271v1034h-364v345h364v397h366v-397h364v-345h-364v-1034h-366z" />
    <glyph glyph-name="daggerdbl" unicode="&#x2021;" horiz-adv-x="1270" 
d="M452 -271v403h-364v345h364v286h-364v345h364v397h365v-397h364v-345h-364v-286h364v-345h-364v-403h-365z" />
    <glyph glyph-name="bullet" unicode="&#x2022;" horiz-adv-x="999" 
d="M131 540q0 150 106.5 256t253.5 106q160 0 268.5 -105.5t108.5 -256.5q0 -160 -108 -267.5t-269 -107.5q-148 0 -254 108.5t-106 266.5z" />
    <glyph glyph-name="ellipsis" unicode="&#x2026;" horiz-adv-x="1955" 
d="M1431 0v392h420v-392h-420zM767 0v392h420v-392h-420zM103 0v392h420v-392h-420z" />
    <glyph glyph-name="guilsinglleft" unicode="&#x2039;" horiz-adv-x="819" 
d="M309 184l-242 382l242 381h426l-235 -381l235 -382h-426z" />
    <glyph glyph-name="guilsinglright" unicode="&#x203a;" horiz-adv-x="819" 
d="M751 566l-241 -382h-426l234 382l-234 381h426z" />
    <glyph glyph-name="fraction" unicode="&#x2044;" horiz-adv-x="572" 
d="M-342 0l914 1505h336l-914 -1505h-336z" />
    <glyph glyph-name="Euro" unicode="&#x20ac;" horiz-adv-x="1869" 
d="M1081 -36q-277 0 -469 137t-254 386v1h-290l94 199h171q-2 57 1 103h-266l94 199h207v1q69 234 257 361.5t455 127.5q287 0 474 -140.5t232 -406.5h-432q-52 216 -277 216q-166 0 -240 -158v-1h347l-95 -199h-309q-5 -55 -2 -103h406l-95 -199h-274v-1q36 -97 104 -144.5
t158 -47.5q225 0 277 216h432q-45 -266 -232 -406.5t-474 -140.5z" />
    <glyph glyph-name="uni20BF" unicode="&#x20bf;" horiz-adv-x="1499" 
d="M129 0v1444h182v310h305v-310h139v310h305v-334q146 -37 220 -126t74 -216v-2q0 -106 -54 -188t-134 -122v-1q274 -78 274 -344v-2q0 -161 -97.5 -263.5t-282.5 -137.5v-270h-305v252h-139v-252h-305v252h-182zM557 887h220q81 0 122 32t41 92v1q0 124 -163 124h-220
v-249zM557 308h253q187 0 187 135v2q0 135 -187 135h-253v-272z" />
    <glyph glyph-name="uni2113" unicode="&#x2113;" horiz-adv-x="1207" 
d="M858 -14q-81 0 -150 9.5t-137 35t-118.5 65.5t-89 104.5t-54.5 148.5q-74 -33 -214 -91l-100 245q172 72 301 134v404q0 251 125.5 372t346.5 121q202 0 321.5 -91t119.5 -269q0 -191 -129.5 -345t-428.5 -315q21 -207 269 -207q81 0 178 18v-325q-129 -14 -240 -14z
M649 838q112 81 160.5 156t48.5 155q0 125 -101 125q-57 0 -82.5 -47t-25.5 -149v-240z" />
    <glyph glyph-name="trademark" unicode="&#x2122;" horiz-adv-x="2101" 
d="M316 575v652h-264v217h772v-217h-264v-652h-244zM919 574v870h367l156 -594l157 594h366v-870h-243v413l5 174h-1l-159 -587h-249l-159 587h-1l5 -174v-413h-244z" />
    <glyph glyph-name="uni2126" unicode="&#x2126;" horiz-adv-x="1881" 
d="M75 0v309h390q-344 215 -344 583v4q0 187 108 334.5t295 228.5t418 81q230 0 417 -81t295 -229t108 -334v-4q0 -103 -27.5 -194.5t-77 -163t-108 -126t-130.5 -99.5h389v-309h-782v294q57 28 109.5 74t96.5 109t70.5 147t26.5 176v4q0 181 -105.5 287t-281.5 106
t-282 -106t-106 -287v-4q0 -92 26.5 -176t70.5 -147t96.5 -109t109.5 -74v-294h-782z" />
    <glyph glyph-name="estimated" unicode="&#x212e;" horiz-adv-x="1888" 
d="M1834 731h-1349v-381q0 -134 142.5 -229.5t366.5 -95.5q195 0 372 80t284 201h79q-129 -154 -315.5 -244.5t-422.5 -90.5q-188 0 -355.5 62t-286 167t-187.5 249t-69 304q0 213 116 392.5t315.5 284t435.5 104.5q237 0 438 -104.5t318.5 -284.5t117.5 -392v-22zM485 1175
v-401h957v401q0 60 -29 114t-86 97.5t-151.5 69t-215.5 25.5q-120 0 -214 -25.5t-149.5 -69t-83.5 -97.5t-28 -114z" />
    <glyph glyph-name="arrowleft" unicode="&#x2190;" horiz-adv-x="1937" 
d="M712 -79l-614 614l614 613h462l-452 -441h1117v-344h-1118l453 -442h-462z" />
    <glyph glyph-name="arrowup" unicode="&#x2191;" horiz-adv-x="1423" 
d="M529 0v915l-431 -432v455l614 613l613 -613v-455l-429 430v-913h-367z" />
    <glyph glyph-name="arrowright" unicode="&#x2192;" horiz-adv-x="1937" 
d="M1847 535l-614 -614h-462l453 442h-1118v344h1117l-452 441h462z" />
    <glyph glyph-name="arrowdown" unicode="&#x2193;" horiz-adv-x="1423" 
d="M903 1505v-915l431 432v-455l-614 -613l-613 613v455l429 -430v913h367z" />
    <glyph glyph-name="uni2196" unicode="&#x2196;" horiz-adv-x="1549" 
d="M98 43v1024h1024v-316h-463l792 -794l-243 -243l-794 794v-465h-316z" />
    <glyph glyph-name="uni2197" unicode="&#x2197;" horiz-adv-x="1549" 
d="M1459 1067v-1024h-316v465l-794 -794l-243 243l792 794h-463v316h1024z" />
    <glyph glyph-name="uni2198" unicode="&#x2198;" horiz-adv-x="1549" 
d="M1459 738v-1024h-1024v316h463l-792 794l243 243l794 -794v465h316z" />
    <glyph glyph-name="uni2199" unicode="&#x2199;" horiz-adv-x="1549" 
d="M98 -286v1024h316v-465l794 794l243 -243l-792 -794h463v-316h-1024z" />
    <glyph glyph-name="uni21B0" unicode="&#x21b0;" horiz-adv-x="1937" 
d="M98 535l614 613h462l-453 -442h1118v-1100h-366v756h-751l452 -441h-462z" />
    <glyph glyph-name="uni21B1" unicode="&#x21b1;" horiz-adv-x="1937" 
d="M1233 1148l614 -613l-614 -614h-462l452 441h-751v-756h-366v1100h1118l-453 442h462z" />
    <glyph glyph-name="uni21B2" unicode="&#x21b2;" horiz-adv-x="1937" 
d="M712 -79l-614 614l614 613h462l-452 -441h751v797h366v-1141h-1118l453 -442h-462z" />
    <glyph glyph-name="uni21B3" unicode="&#x21b3;" horiz-adv-x="1937" 
d="M1847 535l-614 -614h-462l453 442h-1118v1141h366v-797h751l-452 441h462z" />
    <glyph glyph-name="partialdiff" unicode="&#x2202;" horiz-adv-x="1327" 
d="M664 -36q-268 0 -437 157t-169 416v4q0 218 120 366.5t331 184.5q35 5 66 5q35 0 77 -7l3 4q-88 88 -196.5 149t-263.5 116l153 313q156 -53 289 -121.5t251.5 -164t201.5 -207t131 -255t48 -305.5v-2q0 -160 -45 -285.5t-126 -205.5t-191 -121t-243 -41zM663 247
q90 0 135 74.5t45 215.5v3q0 289 -180 289q-90 0 -135.5 -74.5t-45.5 -214.5v-2q0 -141 45.5 -216t135.5 -75z" />
    <glyph glyph-name="uni2206" unicode="&#x2206;" horiz-adv-x="1638" 
d="M36 0l546 1505h475l544 -1505h-1565zM506 308h626l-313 915z" />
    <glyph glyph-name="product" unicode="&#x220f;" horiz-adv-x="1550" 
d="M129 -197v1702h1293v-1702h-412v1358h-469v-1358h-412z" />
    <glyph glyph-name="summation" unicode="&#x2211;" horiz-adv-x="1340" 
d="M79 -194v303l462 546l-462 548v302h1191v-343h-679l425 -507l-425 -505h679v-344h-1191z" />
    <glyph glyph-name="minus" unicode="&#x2212;" horiz-adv-x="1307" 
d="M111 552v344h1084v-344h-1084z" />
    <glyph glyph-name="uni2215" unicode="&#x2215;" horiz-adv-x="572" 
d="M-342 0l914 1505h336l-914 -1505h-336z" />
    <glyph glyph-name="uni2219" unicode="&#x2219;" horiz-adv-x="806" 
d="M192 351v392h420v-392h-420z" />
    <glyph glyph-name="radical" unicode="&#x221a;" horiz-adv-x="1496" 
d="M574 0l-327 758h-225v309h511l239 -610h2l327 1048h411l-483 -1505h-455z" />
    <glyph glyph-name="infinity" unicode="&#x221e;" horiz-adv-x="1906" 
d="M514 311q-177 0 -296 120t-119 301t119 301t296 120q113 0 218.5 -60.5t220.5 -166.5q115 106 220.5 166.5t218.5 60.5q177 0 296 -120t119 -301q0 -182 -118.5 -301.5t-296.5 -119.5q-113 0 -218.5 60.5t-220.5 166.5q-115 -106 -220.5 -166.5t-218.5 -60.5zM543 618
q78 0 206 114q-63 55 -112 84t-94 29q-47 0 -79.5 -32.5t-32.5 -80.5q0 -49 32 -81.5t80 -32.5zM1156 732q128 -114 206 -114q49 0 81 32.5t32 81.5t-32 81t-81 32q-77 0 -206 -113z" />
    <glyph glyph-name="integral" unicode="&#x222b;" horiz-adv-x="1077" 
d="M-44 -417l53 311h45q107 0 151 60t66 213l123 843q13 90 37 161.5t67.5 135.5t104.5 106.5t150 67t202 24.5h160l-54 -310h-44q-107 0 -151 -60t-67 -213l-122 -843q-13 -90 -37.5 -161.5t-68 -135.5t-104.5 -107t-150.5 -67.5t-202.5 -24.5h-158z" />
    <glyph glyph-name="approxequal" unicode="&#x2248;" horiz-adv-x="1375" 
d="M353 221l-274 120q53 159 150 249t237 90q61 0 123.5 -25t106 -54.5t95.5 -54.5t93 -25q86 0 141 131l274 -120q-53 -159 -150 -249t-236 -90q-67 0 -132 25t-107.5 54.5t-92 54.5t-87.5 25q-86 0 -141 -131zM353 750l-274 120q53 159 150 249t237 90q61 0 123.5 -25
t106 -54.5t95.5 -54.5t93 -25q86 0 141 131l274 -120q-53 -159 -150 -249t-236 -90q-67 0 -132 25t-107.5 54.5t-92 54.5t-87.5 25q-86 0 -141 -131z" />
    <glyph glyph-name="notequal" unicode="&#x2260;" horiz-adv-x="1345" 
d="M130 801v345h608l116 225h299l-117 -225h179v-345h-348l-75 -139h423v-345h-592l-117 -225h-298l116 225h-194v345h364l75 139h-439z" />
    <glyph glyph-name="lessequal" unicode="&#x2264;" horiz-adv-x="1135" 
d="M87 763v305l934 409v-365l-497 -196v-1l497 -194v-366zM87 0v327h934v-327h-934z" />
    <glyph glyph-name="greaterequal" unicode="&#x2265;" horiz-adv-x="1135" 
d="M1048 1068v-305l-933 -408v366l496 194v1l-496 196v365zM1048 327v-327h-933v327h933z" />
    <glyph glyph-name="lozenge" unicode="&#x25ca;" horiz-adv-x="1393" 
d="M696 352h1l225 401l-225 401h-1l-225 -401zM492 0l-418 753l418 752h409l419 -752l-419 -753h-409z" />
    <glyph glyph-name="uniF8FF" unicode="&#xf8ff;" horiz-adv-x="675" 
 />
    <glyph glyph-name="acute.case" horiz-adv-x="805" 
d="M47 1618l235 264h476l-290 -264h-421z" />
    <glyph glyph-name="dieresis.case" horiz-adv-x="983" 
d="M47 1623v259h341v-259h-341zM596 1623v259h341v-259h-341z" />
    <glyph glyph-name="caron.case" horiz-adv-x="1051" 
d="M47 1882h371l108 -116l108 116h370l-256 -264h-445z" />
    <glyph glyph-name="ring.case" horiz-adv-x="571" 
d="M286 1523q-100 0 -169.5 66t-69.5 168t69.5 168.5t169.5 66.5t169.5 -66.5t69.5 -168.5t-69.5 -168t-169.5 -66zM286 1678q35 0 56.5 22t21.5 57t-22 57.5t-56 22.5q-35 0 -57 -22.5t-22 -57.5t22 -57t57 -22z" />
    <glyph glyph-name="circumflex.case" horiz-adv-x="1051" 
d="M47 1618l256 264h445l256 -264h-370l-108 116l-108 -116h-371z" />
    <glyph glyph-name="tilde.case" horiz-adv-x="910" 
d="M47 1618q2 129 68.5 210.5t171.5 81.5q55 0 109 -21t97.5 -41.5t70.5 -20.5q59 0 62 73h238q-2 -129 -68 -210.5t-172 -81.5q-53 0 -109 20.5t-99.5 41t-67.5 20.5q-31 0 -45.5 -17t-16.5 -55h-239z" />
    <glyph glyph-name="grave.case" horiz-adv-x="805" 
d="M338 1618l-291 264h477l234 -264h-420z" />
    <glyph glyph-name="macron.case" horiz-adv-x="820" 
d="M47 1619v223h726v-223h-726z" />
    <glyph glyph-name="a_uni0331.3" horiz-adv-x="1051" 
d="M47 1882h371l108 -116l108 116h370l-256 -264h-445z" />
    <glyph glyph-name="dotaccent.case" horiz-adv-x="434" 
d="M47 1623v259h341v-259h-341z" />
    <glyph glyph-name="breve.case" horiz-adv-x="893" 
d="M446 1597q-167 0 -276 76.5t-123 208.5h256q8 -44 46.5 -69.5t96.5 -25.5t97 25.5t48 69.5h256q-15 -132 -124 -208.5t-277 -76.5z" />
    <glyph glyph-name="commaaccent.salt" horiz-adv-x="711" 
d="M47 -362l201 264h416l-241 -264h-376z" />
    <glyph glyph-name="hungarumlaut.case" horiz-adv-x="1416" 
d="M47 1618l235 264h476l-290 -264h-421zM658 1618l234 264h477l-291 -264h-420z" />
    <glyph glyph-name="emdash.case" horiz-adv-x="2150" 
d="M111 552v345h1929v-345h-1929z" />
    <glyph glyph-name="endash.case" horiz-adv-x="1331" 
d="M111 552v345h1109v-345h-1109z" />
    <glyph glyph-name="periodcentered.case" horiz-adv-x="642" 
d="M111 528v392h421v-392h-421z" />
    <glyph glyph-name="hyphen.case" horiz-adv-x="918" 
d="M111 552v345h696v-345h-696z" />
    <glyph glyph-name="braceleft.case" horiz-adv-x="805" 
d="M602 -167q-116 0 -191.5 18t-127.5 65t-74.5 127t-22.5 205v143q0 79 -13 120t-40.5 62.5t-87.5 41.5v216q60 20 87.5 41.5t40.5 62.5t13 120v142q0 124 22.5 204t74.5 127t127.5 65t191.5 18h123v-306h-54q-94 0 -114.5 -25.5t-20.5 -137.5v-113q0 -143 -42 -204
t-164 -101v-2q121 -39 163.5 -100.5t42.5 -204.5v-115q0 -61 2.5 -88.5t18 -47t39.5 -23t75 -3.5h54v-307h-123z" />
    <glyph glyph-name="braceright.case" horiz-adv-x="805" 
d="M70 -167v307h54q51 0 74.5 3.5t39 23t18 47t2.5 88.5v115q0 143 42.5 204t164.5 101v2q-122 40 -164.5 101t-42.5 204v113q0 41 -1 64t-6.5 44t-12.5 29.5t-24 15.5t-36.5 8.5t-53.5 1.5h-54v306l122 1q116 0 191.5 -18t127.5 -65.5t74.5 -127.5t22.5 -204v-142
q0 -79 13 -120t40.5 -62.5t87.5 -41.5v-216q-60 -20 -87.5 -41.5t-40.5 -62.5t-13 -120v-143q0 -125 -22.5 -205t-74.5 -127.5t-127.5 -65.5t-191.5 -18z" />
    <glyph glyph-name="bracketleft.case" horiz-adv-x="852" 
d="M127 -167v1778h680v-306h-315v-1165h315v-307h-680z" />
    <glyph glyph-name="bracketright.case" horiz-adv-x="852" 
d="M46 -167v307h316v1165h-316v306h680v-1778h-680z" />
    <glyph glyph-name="parenleft.case" horiz-adv-x="718" 
d="M347 -167q-124 162 -201.5 409t-77.5 481t77.5 480.5t201.5 407.5h345q-130 -187 -200.5 -420.5t-70.5 -467.5q0 -235 70.5 -468.5t200.5 -421.5h-345z" />
    <glyph glyph-name="parenright.case" horiz-adv-x="718" 
d="M26 -167q130 188 200.5 421.5t70.5 468.5q0 234 -70.5 467.5t-200.5 420.5h345q124 -161 201.5 -407.5t77.5 -480.5t-77.5 -481t-201.5 -409h-345z" />
    <glyph glyph-name="colon.case" horiz-adv-x="627" 
d="M103 190v392h420v-392h-420zM103 865v392h420v-392h-420z" />
    <glyph glyph-name="exclamdown.case" horiz-adv-x="665" 
d="M552 1505v-392h-420v392h420zM508 980l51 -544v-375h-432v375l51 544h330z" />
    <glyph glyph-name="questiondown.case" horiz-adv-x="1280" 
d="M916 1505v-392h-420v392h420zM695 323q80 0 124.5 43.5t44.5 133.5h403q-9 -225 -166 -350t-429 -125q-276 0 -429.5 99.5t-153.5 270.5v1q0 107 54.5 188t168.5 145l54 33q82 49 114 93.5t32 124.5h380q0 -140 -35.5 -221t-132.5 -138l-42 -28q-79 -46 -110 -77t-31 -78
v-1q0 -55 40 -84.5t114 -29.5z" />
    <glyph glyph-name="guillemotleft.case" horiz-adv-x="1395" 
d="M313 329l-242 382l242 380h426l-235 -380l235 -382h-426zM886 329l-242 382l242 380h426l-235 -380l235 -382h-426z" />
    <glyph glyph-name="guillemotright.case" horiz-adv-x="1395" 
d="M1324 711l-242 -382h-426l235 382l-235 380h426zM751 711l-242 -382h-425l234 382l-234 380h425z" />
    <glyph glyph-name="guilsinglleft.case" horiz-adv-x="823" 
d="M312 342l-242 382l242 381h425l-234 -381l234 -382h-425z" />
    <glyph glyph-name="guilsinglright.case" horiz-adv-x="823" 
d="M752 724l-241 -382h-426l234 382l-234 381h426z" />
    <glyph glyph-name="bullet.case" horiz-adv-x="996" 
d="M130 731q0 150 106 256.5t254 106.5q160 0 268.5 -105.5t108.5 -257.5q0 -160 -108 -267.5t-269 -107.5q-148 0 -254 108.5t-106 266.5z" />
    <glyph glyph-name="at.case" horiz-adv-x="1691" 
d="M784 477q121 0 191 95.5t70 233.5v2q0 90 -49 142t-136 52q-112 0 -182.5 -93t-70.5 -221v-2q0 -103 46 -156t131 -53zM727 304q-64 0 -120.5 23t-102 67.5t-72.5 119.5t-27 171v2q0 125 51.5 236.5t153 184.5t231.5 73q83 0 145.5 -39.5t92.5 -102.5l14 104h170
l-61 -463q-27 -213 79 -213q80 0 133.5 96.5t53.5 260.5v2q0 250 -155 387.5t-414 137.5q-187 0 -335 -85.5t-229.5 -236.5t-81.5 -339v-2q0 -262 155.5 -416.5t426.5 -154.5q188 0 380 90l68 -158q-197 -102 -448 -102q-232 0 -407.5 92t-270.5 262.5t-95 396.5v2
q0 172 65 322.5t177 257t267.5 168t329.5 61.5q154 0 287.5 -41t237.5 -121t164 -210.5t60 -298.5v-2q0 -126 -33.5 -230.5t-88.5 -170.5t-124 -102t-142 -36q-82 0 -139.5 47t-69.5 137q-47 -85 -133.5 -131t-192.5 -46z" />
    <glyph glyph-name="uni03BC.1" 
d="M102 -333v1400h412v-594q0 -103 36 -152.5t110 -49.5t109.5 49.5t35.5 152.5v594h413v-1067h-413v129q-85 -127 -242 -153q-26 0 -49 10v-319h-412z" />
    <glyph glyph-name="uni000D.1" horiz-adv-x="497" 
 />
    </font>
</defs>
</svg>
