<?xml version="1.0" standalone="no"?>
<!DOCTYPE svg PUBLIC "-//W3C//DTD SVG 1.1//EN" "http://www.w3.org/Graphics/SVG/1.1/DTD/svg11.dtd" >
<svg xmlns="http://www.w3.org/2000/svg" xmlns:xlink="http://www.w3.org/1999/xlink" version="1.1">
<metadata>
Created by FontForge 20201107 at Tue Sep 26 10:11:09 2023
 By 
(c)newglyph 2023
</metadata>
<defs>
<font id="BarlowCondensedUltraExp-Regular" horiz-adv-x="614" >
  <font-face 
    font-family="BarlowCondensed UltraExp Regular"
    font-weight="400"
    font-stretch="normal"
    units-per-em="2048"
    panose-1="0 0 0 0 0 0 0 0 0 0"
    ascent="1638"
    descent="-410"
    x-height="1067"
    cap-height="1444"
    bbox="-542 -722 3874 1992"
    underline-thickness="102"
    underline-position="-256"
    unicode-range="U+000D-FB04"
  />
<missing-glyph horiz-adv-x="1034" 
d="M100 0v1444h834v-1444h-834zM519 768l338 629h-677zM149 80l343 637l-343 637v-1274zM886 84v1266l-340 -633zM185 47h667l-333 619z" />
    <glyph glyph-name="f_f" unicode="ff" horiz-adv-x="2574" 
d="M414 0v877h-389v190h389v16q0 199 111.5 280t391.5 81h333v-191h-328q-51 0 -77 -0.5t-60 -3.5t-49.5 -10t-33.5 -18.5t-25 -30.5t-12 -44.5t-5 -61.5v-17h590v-190h-590v-877h-246zM1722 0v877h-389v190h389v16q0 199 111.5 280t391.5 81h333v-191h-328q-51 0 -77 -0.5
t-60 -3.5t-49.5 -10t-33.5 -18.5t-25 -30.5t-12 -44.5t-5 -61.5v-17h590v-190h-590v-877h-246z" />
    <glyph glyph-name="fi" unicode="fi" horiz-adv-x="1922" 
d="M414 0v877h-389v190h389v16q0 199 111.5 280t391.5 81h333v-191h-328q-51 0 -77 -0.5t-60 -3.5t-49.5 -10t-33.5 -18.5t-25 -30.5t-12 -44.5t-5 -61.5v-17h590v-190h-590v-877h-246zM1493 0v1067h246v-1067h-246zM1493 1206v238h246v-238h-246z" />
    <glyph glyph-name="fl" unicode="fl" horiz-adv-x="1922" 
d="M414 0v877h-389v190h389v16q0 199 111.5 280t391.5 81h333v-191h-328q-51 0 -77 -0.5t-60 -3.5t-49.5 -10t-33.5 -18.5t-25 -30.5t-12 -44.5t-5 -61.5v-17h590v-190h-590v-877h-246zM1493 0v1444h246v-1444h-246z" />
    <glyph glyph-name="f_f_i" unicode="ffi" horiz-adv-x="3230" 
d="M414 0v877h-389v190h389v16q0 199 111.5 280t391.5 81h333v-191h-328q-51 0 -77 -0.5t-60 -3.5t-49.5 -10t-33.5 -18.5t-25 -30.5t-12 -44.5t-5 -61.5v-17h590v-190h-590v-877h-246zM1722 0v877h-389v190h389v16q0 199 111.5 280t391.5 81h333v-191h-328q-51 0 -77 -0.5
t-60 -3.5t-49.5 -10t-33.5 -18.5t-25 -30.5t-12 -44.5t-5 -61.5v-17h590v-190h-590v-877h-246zM2800 0v1067h246v-1067h-246zM2800 1206v238h246v-238h-246z" />
    <glyph glyph-name="f_f_l" unicode="ffl" horiz-adv-x="3230" 
d="M414 0v877h-389v190h389v16q0 199 111.5 280t391.5 81h333v-191h-328q-51 0 -77 -0.5t-60 -3.5t-49.5 -10t-33.5 -18.5t-25 -30.5t-12 -44.5t-5 -61.5v-17h590v-190h-590v-877h-246zM1722 0v877h-389v190h389v16q0 199 111.5 280t391.5 81h333v-191h-328q-51 0 -77 -0.5
t-60 -3.5t-49.5 -10t-33.5 -18.5t-25 -30.5t-12 -44.5t-5 -61.5v-17h590v-190h-590v-877h-246zM2800 0v1444h246v-1444h-246z" />
    <glyph glyph-name=".notdef" horiz-adv-x="1034" 
d="M100 0v1444h834v-1444h-834zM519 768l338 629h-677zM149 80l343 637l-343 637v-1274zM886 84v1266l-340 -633zM185 47h667l-333 619z" />
    <glyph glyph-name="uni0000" horiz-adv-x="0" 
 />
    <glyph glyph-name="uni0000" horiz-adv-x="0" 
 />
    <glyph glyph-name="uni000D" unicode="&#xd;" horiz-adv-x="764" 
 />
    <glyph glyph-name="space" unicode=" " horiz-adv-x="764" 
 />
    <glyph glyph-name="exclam" unicode="!" horiz-adv-x="655" 
d="M197 0v260h263v-260h-263zM238 442l-33 424v578h246v-578l-34 -424h-179z" />
    <glyph glyph-name="quotedbl" unicode="&#x22;" horiz-adv-x="1165" 
d="M749 1444h256v-83l-24 -414h-207l-25 414v83zM161 1444h256v-83l-24 -414h-207l-25 414v83z" />
    <glyph glyph-name="numbersign" unicode="#" horiz-adv-x="1447" 
d="M293 0l54 417h-252l22 174h253l44 335h-253l23 174h252l53 405h179l-53 -405h305l52 405h179l-53 -405h256l-24 -174h-254l-44 -335h255l-23 -174h-255l-54 -417h-178l54 417h-305l-54 -417h-179zM549 591h305l43 335h-304z" />
    <glyph glyph-name="dollar" unicode="$" horiz-adv-x="2246" 
d="M1013 -252v226q-183 9 -336.5 42.5t-278 91.5t-206.5 148t-110 205h293q81 -286 791 -286q101 0 185 3.5t170.5 12.5t152 26t118 41t80 61t27.5 84v3q0 43 -16.5 74.5t-55.5 55t-90 39t-133.5 26.5t-171 17t-217.5 11l-294 11q-210 8 -361.5 40t-243.5 86.5t-135 126.5
t-43 166v1q0 98 69.5 175.5t191.5 127t277 77t337 32.5v224h223v-226q236 -12 421 -65.5t306.5 -150t155.5 -226.5h-294q-20 53 -70 94.5t-119 68.5t-160 45t-186.5 25.5t-203.5 7.5q-681 0 -681 -206v-2q0 -49 28.5 -83.5t97 -61t188 -42t297.5 -21.5l291 -10
q144 -5 256 -16.5t212 -32t170.5 -52t122 -76t76.5 -105.5t25 -138v-3q0 -117 -66 -202.5t-191.5 -137.5t-292 -78t-383.5 -30v-224h-223z" />
    <glyph glyph-name="percent" unicode="%" horiz-adv-x="2747" 
d="M583 621q-216 0 -364 119.5t-148 305.5v2q0 124 68.5 221.5t185 150.5t258.5 53t258.5 -53t185.5 -150.5t69 -221.5v-2q0 -123 -69 -221t-186 -151t-258 -53zM583 770q130 0 213 71t83 205v2q0 134 -83 205t-213 71t-212 -70.5t-82 -205.5v-2q0 -134 82.5 -205t211.5 -71
zM788 0l926 1444h246l-925 -1444h-247zM2164 -29q-141 0 -258 53t-186 151t-69 221v2q0 124 69 221.5t185.5 150.5t258.5 53t258.5 -53t185 -150.5t68.5 -221.5v-2q0 -186 -148 -305.5t-364 -119.5zM2164 121q130 0 213 70.5t83 204.5v2q0 135 -83 206t-213 71t-212.5 -71
t-82.5 -206v-2q0 -134 82.5 -204.5t212.5 -70.5z" />
    <glyph glyph-name="ampersand" unicode="&#x26;" horiz-adv-x="2453" 
d="M856 -29q-357 0 -563.5 111.5t-206.5 300.5v1q0 157 149.5 266.5t460.5 174.5q-134 88 -197 164.5t-63 163.5v2q0 142 161 230t440 88q290 0 447 -88.5t157 -235.5v-1q0 -246 -472 -374l565 -340q229 181 332 301h287q-71 -86 -190.5 -197.5t-249.5 -211.5l543 -326h-394
l-330 199q-200 -121 -414 -174.5t-462 -53.5zM871 157q402 0 679 151l-652 394q-156 -28 -264 -62.5t-167 -75t-83.5 -83t-24.5 -94.5v-2q0 -108 129.5 -168t382.5 -60zM981 887q205 43 300 103t95 145q0 78 -88.5 117.5t-247.5 39.5q-332 0 -332 -133v-3q0 -67 61.5 -123
t211.5 -146z" />
    <glyph glyph-name="quotesingle" unicode="'" horiz-adv-x="577" 
d="M161 1444h256v-83l-24 -414h-207l-25 414v83z" />
    <glyph glyph-name="parenleft" unicode="(" horiz-adv-x="724" 
d="M440 -333q-135 171 -229.5 418t-94.5 471q0 223 94.5 470t229.5 418h218q-140 -187 -219 -421t-79 -467q0 -234 79 -467.5t219 -421.5h-218z" />
    <glyph glyph-name="parenright" unicode=")" horiz-adv-x="723" 
d="M67 -333q140 188 219 421.5t79 467.5q0 233 -79 467t-219 421h218q135 -171 229.5 -418t94.5 -470q0 -224 -94.5 -471t-229.5 -418h-218z" />
    <glyph glyph-name="asterisk" unicode="*" horiz-adv-x="1177" 
d="M398 586l-182 122l234 255l-353 77l68 197l338 -126l-26 333h224l-27 -333l338 126l69 -197l-353 -77l235 -255l-183 -122l-191 284z" />
    <glyph glyph-name="plus" unicode="+" horiz-adv-x="1781" 
d="M779 84v540h-604v217h604v539h223v-539h604v-217h-604v-540h-223z" />
    <glyph glyph-name="comma" unicode="," horiz-adv-x="632" 
d="M66 -232l140 492h275l-200 -492h-215z" />
    <glyph glyph-name="hyphen" unicode="-" horiz-adv-x="1116" 
d="M165 444v218h787v-218h-787z" />
    <glyph glyph-name="period" unicode="." horiz-adv-x="593" 
d="M165 0v260h264v-260h-264z" />
    <glyph glyph-name="slash" unicode="/" horiz-adv-x="1392" 
d="M37 -211l1060 1655h250l-1060 -1655h-250z" />
    <glyph glyph-name="zero" unicode="0" horiz-adv-x="2513" 
d="M1257 -29q-247 0 -453 48t-357.5 140.5t-236 236t-84.5 325.5v2q0 182 84.5 325.5t236 236t357.5 140.5t453 48t452.5 -48t357 -140.5t236 -236t84.5 -325.5v-2q0 -182 -84.5 -325.5t-236 -236t-357 -140.5t-452.5 -48zM1257 174q140 0 266 20t235 63.5t188 106.5
t124 154.5t45 202.5v2q0 111 -45 202.5t-124 154.5t-188 106.5t-235 63.5t-266 20t-266 -20t-235 -63.5t-188 -106.5t-124 -154.5t-45 -202.5v-2q0 -111 45 -202.5t124 -154.5t188 -106.5t235 -63.5t266 -20z" />
    <glyph glyph-name="one" unicode="1" horiz-adv-x="1077" 
d="M603 0v1060h-535v194h213q80 0 129.5 4t90 14.5t65.5 33t43.5 54.5t36.5 84h213v-1444h-256z" />
    <glyph glyph-name="two" unicode="2" horiz-adv-x="2288" 
d="M91 0v15q0 164 90 289t292.5 223t528.5 167l309 66q84 18 131 28.5t109 26t95 26.5t73 27.5t60 32.5t39 37t26 45t7 54v2q0 66 -48.5 112.5t-143 72.5t-215 37.5t-281.5 11.5q-678 0 -723 -326h-279q40 245 300 385.5t701 140.5q464 0 707 -113.5t243 -320.5v-2
q0 -67 -17.5 -120t-58.5 -96.5t-95.5 -76.5t-142.5 -64t-184.5 -56t-235.5 -55l-311 -66q-310 -67 -449 -126t-201 -160h1755v-217h-2081z" />
    <glyph glyph-name="three" unicode="3" horiz-adv-x="2335" 
d="M1166 -29q-292 0 -524.5 57.5t-378 169.5t-171.5 265h277q16 -64 68.5 -114.5t128 -83.5t175 -55t205 -31.5t222.5 -9.5q184 0 321 12t239.5 38.5t155 71.5t52.5 108v2q0 244 -711 244h-198v211h203q314 0 474.5 49t160.5 159v2q0 209 -688 209q-142 0 -265 -16
t-226 -48.5t-170 -88t-85 -129.5h-278q52 223 324 351.5t697 128.5q287 0 499.5 -44t335 -135t122.5 -222v-2q0 -121 -97.5 -203t-269.5 -108v-2q96 -13 174 -39.5t138.5 -68t94 -102.5t33.5 -136v-1q0 -114 -75.5 -199.5t-215 -137t-326 -77t-421.5 -25.5z" />
    <glyph glyph-name="four" unicode="4" horiz-adv-x="2432" 
d="M1685 0v340h-1629v207l1629 897h256v-897h426v-207h-426v-340h-256zM423 547h1262v691h-2z" />
    <glyph glyph-name="five" unicode="5" horiz-adv-x="2290" 
d="M1145 -29q-291 0 -524 53.5t-376.5 154t-169.5 234.5h282q20 -67 93.5 -116.5t184.5 -76.5t235.5 -39.5t267.5 -12.5q381 0 587 71.5t206 220.5v2q0 149 -208 224.5t-587 75.5q-555 0 -750 -149h-234l234 831h1629v-217h-1452l-116 -405q128 59 326 97.5t456 38.5
q304 0 520.5 -55.5t333 -166.5t116.5 -271v-2q0 -231 -279 -361.5t-775 -130.5z" />
    <glyph glyph-name="six" unicode="6" horiz-adv-x="2347" 
d="M1201 -29q-522 0 -796 170t-274 504v2q0 183 74 334.5t214 261t354 170t483 60.5q372 0 624 -105t305 -265h-293q-149 172 -643 172q-252 0 -436.5 -60t-294.5 -187t-122 -312q115 126 334.5 190.5t524.5 64.5q294 0 515.5 -59.5t343.5 -173.5t122 -268v-2
q0 -148 -123.5 -260t-359 -174.5t-552.5 -62.5zM1200 169q236 0 407 33t266.5 100.5t95.5 164.5v2q0 97 -95 166t-267.5 104t-406.5 35q-233 0 -405 -35t-267.5 -104t-95.5 -166v-2q0 -144 205 -221t563 -77z" />
    <glyph glyph-name="seven" unicode="7" horiz-adv-x="2119" 
d="M571 0q8 256 75.5 450.5t203.5 342.5t334 252.5t480 183.5h-1632v215h2049v-215q-143 -44 -258.5 -85t-227 -89t-198.5 -97.5t-167 -108.5t-139.5 -124.5t-108.5 -143.5t-81 -166.5t-51 -192t-23 -222.5h-256z" />
    <glyph glyph-name="eight" unicode="8" horiz-adv-x="2363" 
d="M1182 -29q-519 0 -787.5 113t-268.5 320v3q0 135 122.5 222t324.5 117v3q-173 37 -270.5 120.5t-97.5 206.5v2q0 123 119 212t339.5 136t518.5 47t518.5 -47t339.5 -136t119 -212v-2q0 -123 -97 -206.5t-270 -120.5v-3q203 -30 324.5 -117t121.5 -222v-3
q0 -207 -268 -320t-788 -113zM1182 845q713 0 713 219v2q0 110 -176 159.5t-537 49.5t-537 -49.5t-176 -159.5v-2q0 -219 713 -219zM1182 169q789 0 789 235v3q0 242 -789 242q-787 0 -787 -242v-3q0 -235 787 -235z" />
    <glyph glyph-name="nine" unicode="9" horiz-adv-x="2347" 
d="M1187 1468q522 0 796 -170t274 -504v-2q0 -183 -74 -334.5t-214 -261t-354 -170t-483 -60.5q-372 0 -624 105t-305 265h293q149 -172 643 -172q252 0 436.5 60t294.5 187t122 312q-115 -126 -334.5 -190.5t-524.5 -64.5q-294 0 -515.5 59.5t-343.5 173.5t-122 268v2
q0 148 123.5 260t359 174.5t552.5 62.5zM1188 1270q-236 0 -407 -33t-266.5 -100.5t-95.5 -164.5v-2q0 -97 95 -166t267.5 -104t406.5 -35q233 0 405 35t267.5 104t95.5 166v2q0 144 -205 221t-563 77z" />
    <glyph glyph-name="colon" unicode=":" horiz-adv-x="593" 
d="M165 0v260h264v-260h-264zM165 807v260h264v-260h-264z" />
    <glyph glyph-name="semicolon" unicode=";" horiz-adv-x="645" 
d="M66 -232l140 492h275l-200 -492h-215zM207 807v260h264v-260h-264z" />
    <glyph glyph-name="less" unicode="&#x3c;" horiz-adv-x="1851" 
d="M137 611v238l1547 535v-240l-1243 -413v-1l1243 -414v-240z" />
    <glyph glyph-name="equal" unicode="=" horiz-adv-x="1883" 
d="M176 872v218h1533v-218h-1533zM176 375v217h1533v-217h-1533z" />
    <glyph glyph-name="greater" unicode="&#x3e;" horiz-adv-x="1851" 
d="M1716 849v-238l-1548 -535v240l1244 414v1l-1244 413v240z" />
    <glyph glyph-name="question" unicode="?" horiz-adv-x="2067" 
d="M839 0v260h263v-260h-263zM1028 1287q-352 0 -515.5 -73t-167.5 -252h-278q4 128 75 226.5t199 160.5t300.5 93t385.5 31q468 0 716.5 -99.5t248.5 -277.5v-2q0 -56 -20.5 -102t-54.5 -79.5t-88.5 -63t-110.5 -50.5t-133 -43l-171 -49q-69 -20 -109 -33t-80.5 -30.5
t-60.5 -34t-37.5 -41.5t-24 -54.5t-8.5 -71.5h-246q0 168 103 259.5t338 158.5l164 47q164 47 221.5 85t57.5 97v1q0 90 -178.5 143.5t-525.5 53.5z" />
    <glyph glyph-name="at" unicode="@" horiz-adv-x="2559" 
d="M1165 457q85 0 163.5 18.5t144 53.5t106 94.5t41.5 134.5v5q0 111 -98.5 178.5t-274.5 67.5q-196 0 -308.5 -87.5t-112.5 -219.5v-4q2 -113 91.5 -177t247.5 -64zM1118 306q-100 0 -190.5 24.5t-163 71t-115.5 121.5t-44 170v5q0 96 44 181t122.5 148t193.5 100t251 37
q142 0 259.5 -50t166.5 -128l19 141h198l-62 -432q-7 -49 -9.5 -83.5t2.5 -70.5t20.5 -57.5t46 -35.5t75.5 -14q61 0 119.5 25t107 71t78 121t29.5 166v4q0 175 -119 297t-325 180t-484 58q-182 0 -342.5 -33.5t-282.5 -95t-210.5 -144.5t-134 -185t-45.5 -214v-5
q0 -269 211 -423t588 -154q294 0 556 94l55 -165q-126 -47 -288 -73t-322 -26q-299 0 -531 90.5t-362 260.5t-130 394v5q0 174 96.5 330t262 267.5t396 177t488.5 65.5q152 0 292 -18.5t265.5 -55.5t227.5 -95t176.5 -133.5t115.5 -175t41 -215.5v-5q0 -103 -33.5 -191.5
t-89 -149.5t-127 -104t-147 -63.5t-149.5 -20.5q-133 0 -207.5 53t-89.5 136q-79 -88 -214 -133t-286 -45z" />
    <glyph glyph-name="A" unicode="A" horiz-adv-x="2130" 
d="M3 0l913 1444h299l913 -1444h-294l-267 423h-1024l-266 -423h-274zM678 639h752l-376 594h-2z" />
    <glyph glyph-name="B" unicode="B" horiz-adv-x="2246" 
d="M211 0v1444h1229q316 0 457 -91.5t141 -272.5v-3q0 -107 -51.5 -184.5t-141.5 -122.5v-2q120 -35 197.5 -119.5t77.5 -219.5v-1q0 -428 -621 -428h-1288zM467 850h997q73 0 124.5 8t94 29t63.5 61t21 99v1q0 48 -15 81.5t-39 52t-65.5 29t-82 13.5t-101.5 3h-997v-377z
M467 217h1029q184 0 268 47t84 159v2q0 113 -84 160.5t-268 47.5h-1029v-416z" />
    <glyph glyph-name="C" unicode="C" horiz-adv-x="2402" 
d="M1256 -29q-335 0 -591.5 87.5t-403 259t-146.5 403.5v2q0 232 146.5 403.5t403 259t591.5 87.5q396 0 685.5 -132t376.5 -349h-298q-76 136 -286.5 207t-475.5 71q-134 0 -257 -18.5t-236 -61t-196 -104.5t-132.5 -155.5t-49.5 -207.5v-2q0 -114 49.5 -207.5
t132.5 -155.5t196 -104.5t236 -61t257 -18.5q265 0 475.5 71t286.5 207h298q-87 -217 -376.5 -349t-685.5 -132z" />
    <glyph glyph-name="D" unicode="D" horiz-adv-x="2220" 
d="M211 0v1444h800q110 0 212 -8.5t213.5 -30.5t205 -56.5t179.5 -91t146 -130t95.5 -177t35.5 -227.5v-2q0 -124 -35.5 -227.5t-95.5 -177t-146 -130t-179.5 -91t-205 -56.5t-213.5 -30.5t-212 -8.5h-800zM467 217h541q58 0 101.5 1t112.5 6t121.5 14.5t118.5 27.5
t114.5 43t98 63.5t81 87t51 115.5t19.5 146v2q0 79 -19.5 146t-51 115t-81 87t-98 64t-114.5 43t-118.5 27t-121.5 14.5t-112.5 6.5t-101.5 1h-541v-1010z" />
    <glyph glyph-name="E" unicode="E" horiz-adv-x="2099" 
d="M211 0v1444h1736v-217h-1480v-386h1428v-217h-1428v-407h1483v-217h-1739z" />
    <glyph glyph-name="F" unicode="F" horiz-adv-x="2101" 
d="M211 0v1444h1799v-217h-1543v-386h1489v-217h-1489v-624h-256z" />
    <glyph glyph-name="G" unicode="G" horiz-adv-x="2509" 
d="M1251 -29q-199 0 -373.5 32t-314 95.5t-240 153.5t-154.5 209.5t-54 259.5v2q0 175 84.5 317t235.5 236.5t361 145.5t461 51q249 0 468 -55t375.5 -160t211.5 -242h-293q-51 87 -178 146t-273.5 83t-306.5 24q-135 0 -258.5 -18.5t-237 -60.5t-196.5 -104t-132.5 -155.5
t-49.5 -207.5v-2q0 -115 49.5 -208t132.5 -155t196.5 -104t237.5 -60.5t260 -18.5q153 0 294 22.5t260.5 66.5t190.5 120t71 173v15h-669v218h926v-791h-215l-8 240q-97 -112 -333 -190t-529 -78z" />
    <glyph glyph-name="H" unicode="H" horiz-adv-x="2355" 
d="M211 0v1444h256v-603h1422v603h256v-1444h-256v624h-1422v-624h-256z" />
    <glyph glyph-name="I" unicode="I" horiz-adv-x="678" 
d="M211 0v1444h256v-1444h-256z" />
    <glyph glyph-name="J" unicode="J" horiz-adv-x="1802" 
d="M823 -29q-165 0 -302.5 36.5t-241.5 108t-167 185t-74 259.5h287q16 -203 145 -294t357 -91q528 0 528 414v855h256v-851q0 -130 -39 -234t-108.5 -176t-168.5 -120t-216.5 -70t-255.5 -22z" />
    <glyph glyph-name="K" unicode="K" horiz-adv-x="2175" 
d="M211 0v1444h256v-630l1279 630h420l-1432 -710l1451 -734h-494l-1224 617v-617h-256z" />
    <glyph glyph-name="L" unicode="L" horiz-adv-x="1903" 
d="M211 0v1444h256v-1227h1408v-217h-1664z" />
    <glyph glyph-name="M" unicode="M" horiz-adv-x="2854" 
d="M211 0v1444h394l821 -1196h2l822 1196h393v-1444h-256v1218h-2l-839 -1218h-237l-840 1218h-2v-1218h-256z" />
    <glyph glyph-name="N" unicode="N" horiz-adv-x="2361" 
d="M211 0v1444h293l1389 -1158h2v1158h256v-1444h-295l-1387 1157h-2v-1157h-256z" />
    <glyph glyph-name="O" unicode="O" horiz-adv-x="2531" 
d="M1257 -29q-247 0 -453 48t-357.5 140.5t-236 236t-84.5 325.5v2q0 182 84.5 325.5t236 236t357.5 140.5t453 48t452.5 -48t357 -140.5t236 -236t84.5 -325.5v-2q0 -182 -84.5 -325.5t-236 -236t-357 -140.5t-452.5 -48zM1257 174q140 0 266 20t235 63.5t188 106.5
t124 154.5t45 202.5v2q0 111 -45 202.5t-124 154.5t-188 106.5t-235 63.5t-266 20q-177 0 -329 -33t-272 -97.5t-189 -171.5t-69 -245v-2q0 -138 69 -245t189 -171.5t272 -97.5t329 -33z" />
    <glyph glyph-name="P" unicode="P" horiz-adv-x="2148" 
d="M211 0v1444h1197q124 0 220 -11t183.5 -40.5t144.5 -77.5t90.5 -126t33.5 -182v-2q0 -105 -33.5 -183t-90.5 -126.5t-144.5 -78t-183.5 -40.5t-220 -11h-941v-566h-256zM467 783h928q77 0 128 2.5t102 10.5t81.5 23t55.5 39.5t35.5 60.5t10.5 86v2q0 49 -10.5 85
t-35.5 60t-55.5 39t-81.5 23t-102 10.5t-128 2.5h-928v-444z" />
    <glyph glyph-name="Q" unicode="Q" horiz-adv-x="2531" 
d="M1257 -29q-247 0 -453 48t-357.5 140.5t-236 236t-84.5 325.5v2q0 182 84.5 325.5t236 236t357.5 140.5t453 48t452.5 -48t357 -140.5t236 -236t84.5 -325.5v-2q0 -216 -116 -374.5t-328 -251.5l411 -352h-343l-320 271q-196 -43 -434 -43zM1257 174q140 0 266 20
t235 63.5t188 106.5t124 154.5t45 202.5v2q0 111 -45 202.5t-124 154.5t-188 106.5t-235 63.5t-266 20q-177 0 -329 -33t-272 -97.5t-189 -171.5t-69 -245v-2q0 -138 69 -245t189 -171.5t272 -97.5t329 -33z" />
    <glyph glyph-name="R" unicode="R" horiz-adv-x="2286" 
d="M211 0v1444h1314q264 0 410 -92.5t146 -285.5v-2q0 -141 -69.5 -226t-207.5 -124q57 -12 95 -30t68.5 -53.5t48 -92t25.5 -140.5l13 -122q4 -37 7 -68.5t6.5 -55.5t6 -42.5t6 -34t5 -24.5t4.5 -18.5t4.5 -13t4.5 -11t3 -8.5h-269q-20 50 -28 137l-23 209q-16 154 -79 204
t-229 50h-1006v-600h-256zM467 817h1010q177 0 255 45t78 159v2q0 114 -78 159t-255 45h-1010v-410z" />
    <glyph glyph-name="S" unicode="S" horiz-adv-x="2282" 
d="M1169 -29q-207 0 -383.5 28.5t-321 86.5t-239.5 153.5t-125 221.5h293q81 -286 791 -286q101 0 185 3.5t170.5 12.5t152 26t118 41t80 61t27.5 84v3q0 43 -16.5 74.5t-55.5 55t-90 39t-133.5 26.5t-171 17t-217.5 11l-294 11q-210 8 -361.5 40t-243.5 86.5t-135 126.5
t-43 166v1q0 104 78 185t213.5 130t305.5 73.5t367 24.5q270 0 484 -50t354.5 -151t178.5 -244h-294q-20 53 -70 94.5t-119 68.5t-160 45t-186.5 25.5t-203.5 7.5q-681 0 -681 -206v-2q0 -49 28.5 -83.5t97 -61t188 -42t297.5 -21.5l291 -10q144 -5 256 -16.5t212 -32
t170.5 -52t122 -76t76.5 -105.5t25 -138v-3q0 -122 -72.5 -210.5t-210.5 -140t-318.5 -75t-416.5 -23.5z" />
    <glyph glyph-name="T" unicode="T" horiz-adv-x="2095" 
d="M920 0v1227h-892v217h2040v-217h-892v-1227h-256z" />
    <glyph glyph-name="U" unicode="U" horiz-adv-x="2301" 
d="M1151 -29q-465 0 -715 180t-250 527v766h256v-757q0 -243 182 -377.5t527 -134.5t527 134.5t182 377.5v757h256v-766q0 -347 -250 -527t-715 -180z" />
    <glyph glyph-name="V" unicode="V" horiz-adv-x="2166" 
d="M936 0l-936 1444h298l796 -1232h1l797 1232h274l-936 -1444h-294z" />
    <glyph glyph-name="W" unicode="W" horiz-adv-x="3370" 
d="M736 0l-715 1444h275l612 -1227h1l622 1227h315l630 -1225h1l612 1225h261l-716 -1444h-332l-620 1215h-1l-615 -1215h-330z" />
    <glyph glyph-name="X" unicode="X" horiz-adv-x="2263" 
d="M3 0l957 728l-929 716h357l751 -579l761 579h334l-929 -707l956 -737h-356l-779 600l-789 -600h-334z" />
    <glyph glyph-name="Y" unicode="Y" horiz-adv-x="2223" 
d="M986 0v536l-971 908h335l644 -603l116 -114h3l117 114l640 603h334l-962 -906v-538h-256z" />
    <glyph glyph-name="Z" unicode="Z" horiz-adv-x="1979" 
d="M92 0v217l1398 1010h-1342v217h1699v-217l-1395 -1010h1425v-217h-1785z" />
    <glyph glyph-name="bracketleft" unicode="[" horiz-adv-x="840" 
d="M208 -333v1777h557v-195h-333v-1387h333v-195h-557z" />
    <glyph glyph-name="backslash" unicode="\" horiz-adv-x="1392" 
d="M287 1444l1060 -1655h-250l-1060 1655h250z" />
    <glyph glyph-name="bracketright" unicode="]" horiz-adv-x="840" 
d="M75 -333v195h334v1387h-334v195h557v-1777h-557z" />
    <glyph glyph-name="asciicircum" unicode="^" horiz-adv-x="1700" 
d="M70 585l653 859h254l654 -859h-283l-497 652h-2l-496 -652h-283z" />
    <glyph glyph-name="underscore" unicode="_" horiz-adv-x="1475" 
d="M140 -313v217h1196v-217h-1196z" />
    <glyph glyph-name="grave" unicode="`" horiz-adv-x="719" 
d="M408 1210l-377 234h373l285 -234h-281z" />
    <glyph glyph-name="a" unicode="a" horiz-adv-x="1847" 
d="M740 -29q-304 0 -475 81.5t-171 244.5v2q0 50 15.5 92.5t41.5 75t69 59.5t89 46t111.5 34.5t126.5 25t143 17t152 12t163 8.5q287 12 354.5 27.5t67.5 71.5v2q0 70 -127.5 108t-372.5 38q-471 0 -497 -182h-273q9 160 208.5 262.5t558.5 102.5q149 0 262 -10.5t210.5 -36
t159 -68t95 -108t31.5 -154.5l-7 -354q-3 -137 2 -204t25 -164h-246q-22 80 -25 152q-159 -181 -691 -181zM771 150q153 0 268 16t208 53.5t141.5 106t48.5 166.5v64q-111 -30 -450 -57q-99 -8 -163.5 -14t-133.5 -14t-110.5 -15.5t-83.5 -17.5t-64.5 -22t-41 -27.5
t-25.5 -34.5t-7 -43v-1q0 -160 413 -160z" />
    <glyph glyph-name="b" unicode="b" horiz-adv-x="2006" 
d="M1093 -28q-247 0 -410.5 54t-251.5 137v-163h-246v1444h246v-538q88 83 251.5 137t410.5 54q233 0 416 -64.5t291 -193.5t108 -303v-2q0 -175 -108 -304t-291 -193.5t-416 -64.5zM1031 157q88 0 170 10.5t164.5 38t143 68.5t98.5 108t38 152v2q0 85 -38 151.5t-98.5 108
t-143 68.5t-164.5 37.5t-170 10.5q-73 0 -142.5 -7.5t-141 -24.5t-130.5 -46.5t-106 -69.5t-73 -98.5t-26 -129.5v-2q0 -71 26 -129.5t73 -99t106 -70t130.5 -46.5t141 -24.5t142.5 -7.5z" />
    <glyph glyph-name="c" unicode="c" horiz-adv-x="1866" 
d="M958 -29q-175 0 -328.5 36t-273 104t-189 177.5t-69.5 246.5v2q0 136 69.5 245t189 177t273.5 104t329 36q202 0 370.5 -40t291.5 -127t165 -212h-277q-41 69 -133 114t-195.5 62t-221.5 17q-115 0 -219 -22.5t-190 -66t-137.5 -118t-51.5 -169.5v-2q0 -96 51.5 -170.5
t138 -118.5t190.5 -66.5t219 -22.5q186 0 337.5 46t211.5 147h277q-42 -125 -165 -212t-291.5 -127t-371.5 -40z" />
    <glyph glyph-name="d" unicode="d" horiz-adv-x="2006" 
d="M914 -28q-233 0 -416 64.5t-291 193.5t-108 304v2q0 174 108 303t291 193.5t416 64.5q247 0 410.5 -54t251.5 -137v538h246v-1444h-246v163q-88 -83 -251.5 -137t-410.5 -54zM976 157q73 0 142.5 7.5t141 24.5t130.5 46.5t106 70t73 99t26 129.5v2q0 71 -26 129.5
t-73 98.5t-106 69.5t-130.5 46.5t-141 24.5t-142.5 7.5q-88 0 -170 -10.5t-164.5 -37.5t-143 -68.5t-98.5 -108t-38 -151.5v-2q0 -85 38 -152t98.5 -108t143 -68.5t164.5 -38t170 -10.5z" />
    <glyph glyph-name="e" unicode="e" horiz-adv-x="1945" 
d="M972 -29q-187 0 -344 35.5t-276 104t-186 177t-67 246.5v2q0 137 68.5 245.5t188 177t276.5 104.5t340 36q139 0 260 -21t231.5 -69.5t191.5 -122t134.5 -184.5t66.5 -251v-1h-1492v-1q19 -77 76 -134.5t141 -91.5t183 -50t213 -16q197 0 352.5 39.5t229.5 125.5h280
q-82 -171 -311 -261t-556 -90zM966 915q-501 0 -598 -280v-1h1196v1q-99 280 -598 280z" />
    <glyph glyph-name="f" unicode="f" horiz-adv-x="1267" 
d="M414 0v877h-389v190h389v16q0 199 111.5 280t391.5 81h333v-191h-328q-51 0 -77 -0.5t-60 -3.5t-49.5 -10t-33.5 -18.5t-25 -30.5t-12 -44.5t-5 -61.5v-17h590v-190h-590v-877h-246z" />
    <glyph glyph-name="g" unicode="g" horiz-adv-x="2005" 
d="M903 43q-227 0 -406 59.5t-286.5 180t-107.5 285.5v2q0 165 107.5 286t286.5 181t406 60q261 0 432.5 -54.5t244.5 -135.5v160h246v-863q0 -128 -46.5 -226.5t-124.5 -161.5t-190 -103.5t-233 -56.5t-264 -16q-166 0 -302 21t-244 64t-178.5 112.5t-97.5 162.5h277
q20 -52 72 -88t129.5 -54t158 -25t181.5 -7q99 0 179 6.5t165 28t142 56.5t93.5 96t36.5 144v74q-73 -80 -244.5 -134t-432.5 -54zM975 226q89 0 172 10t165 34.5t142 62t97.5 98t37.5 137.5v2q0 65 -25.5 118t-71.5 89.5t-104.5 63.5t-129 42t-140 22t-143.5 7
q-90 0 -170.5 -8.5t-163 -32t-141.5 -60.5t-96.5 -99t-37.5 -142v-2q0 -80 37.5 -141.5t96.5 -98.5t141.5 -61t163 -32.5t170.5 -8.5z" />
    <glyph glyph-name="h" unicode="h" horiz-adv-x="1909" 
d="M185 0v1444h246v-564q70 92 226 154.5t382 62.5q162 0 289.5 -31.5t222.5 -97t145.5 -172t50.5 -249.5v-547h-246v494q0 209 -139.5 311t-395.5 102t-395.5 -102t-139.5 -311v-494h-246z" />
    <glyph glyph-name="i" unicode="i" 
d="M185 0v1067h246v-1067h-246zM185 1206v238h246v-238h-246z" />
    <glyph glyph-name="j" unicode="j" horiz-adv-x="613" 
d="M-199 -333v191h135q39 0 62 1t51 4.5t44 10.5t33.5 19.5t26.5 31t17 45t11 62t3 81.5v954h246v-967q0 -129 -26.5 -212.5t-88.5 -132.5t-151.5 -68.5t-227.5 -19.5h-135zM184 1206v238h246v-238h-246z" />
    <glyph glyph-name="k" unicode="k" horiz-adv-x="1764" 
d="M185 0v1444h245v-839l897 462h399l-1006 -515l1086 -552h-460l-915 464v-464h-246z" />
    <glyph glyph-name="l" unicode="l" 
d="M185 0v1444h246v-1444h-246z" />
    <glyph glyph-name="m" unicode="m" horiz-adv-x="3226" 
d="M185 0v1067h246v-177q68 90 224 148.5t384 58.5q487 0 643 -274q95 134 266 204t408 70q162 0 289.5 -31.5t222.5 -97t145.5 -172t50.5 -249.5v-547h-246v494q0 209 -139 311t-396 102q-256 0 -396 -102t-140 -311v-494h-246v494q0 209 -139.5 311t-395.5 102
t-395.5 -102t-139.5 -311v-494h-246z" />
    <glyph glyph-name="n" unicode="n" horiz-adv-x="1909" 
d="M185 0v1067h246v-177q68 90 224 148.5t384 58.5q162 0 289.5 -31.5t222.5 -97t145.5 -172t50.5 -249.5v-547h-246v494q0 209 -139.5 311t-395.5 102t-395.5 -102t-139.5 -311v-494h-246z" />
    <glyph glyph-name="o" unicode="o" horiz-adv-x="2002" 
d="M1002 -29q-420 0 -662 150t-242 414v2q0 174 109.5 301t313 194t481.5 67q419 0 661 -150t242 -412v-2q0 -264 -242 -414t-661 -150zM1002 157q180 0 322 40.5t230 127.5t88 210v2q0 123 -88 209.5t-230 126.5t-322 40q-181 0 -323 -40t-230 -126.5t-88 -209.5v-2
q0 -123 88 -210t230 -127.5t323 -40.5z" />
    <glyph glyph-name="p" unicode="p" horiz-adv-x="2006" 
d="M1093 -28q-247 0 -410.5 54t-251.5 137v-496h-246v1400h246v-161q88 83 251.5 137t410.5 54q233 0 416 -64.5t291 -193.5t108 -303v-2q0 -175 -108 -304t-291 -193.5t-416 -64.5zM1031 157q88 0 170 10.5t164.5 38t143 68.5t98.5 108t38 152v2q0 85 -38 151.5t-98.5 108
t-143 68.5t-164.5 37.5t-170 10.5q-73 0 -142.5 -7.5t-141 -24.5t-130.5 -46.5t-106 -69.5t-73 -98.5t-26 -129.5v-2q0 -71 26 -129.5t73 -99t106 -70t130.5 -46.5t141 -24.5t142.5 -7.5z" />
    <glyph glyph-name="q" unicode="q" horiz-adv-x="2003" 
d="M914 -28q-233 0 -416 64.5t-291 193.5t-108 304v2q0 174 108 303t291 193.5t416 64.5q247 0 410.5 -54t251.5 -137v161h246v-1400h-246v496q-88 -83 -251.5 -137t-410.5 -54zM976 157q73 0 142.5 7.5t141 24.5t130.5 46.5t106 70t73 99t26 129.5v2q0 71 -26 129.5
t-73 98.5t-106 69.5t-130.5 46.5t-141 24.5t-142.5 7.5q-88 0 -170 -10.5t-164.5 -37.5t-143 -68.5t-98.5 -108t-38 -151.5v-2q0 -85 38 -152t98.5 -108t143 -68.5t164.5 -38t170 -10.5z" />
    <glyph glyph-name="r" unicode="r" horiz-adv-x="1111" 
d="M185 0v1067h242v-232q55 105 211.5 177.5t345.5 72.5h95v-216h-124q-241 0 -382.5 -87t-141.5 -253v-529h-246z" />
    <glyph glyph-name="s" unicode="s" horiz-adv-x="1882" 
d="M964 -29q-178 0 -326 21.5t-265.5 65t-193 114t-98.5 163.5h278q17 -47 60.5 -80.5t99.5 -53.5t136.5 -31.5t156.5 -15t175 -3.5q282 0 414.5 35t132.5 118v2q0 71 -92.5 97.5t-334.5 31.5l-349 8q-337 7 -491.5 86t-154.5 232v2q0 104 103 181t281.5 116t410.5 39
q345 0 572.5 -85.5t274.5 -248.5h-278q-25 47 -82 79.5t-139.5 48t-164 21.5t-184.5 6q-529 0 -529 -148v-2q0 -64 85.5 -93t296.5 -33l365 -8q137 -3 238 -13t187 -32t139.5 -56.5t83 -86.5t29.5 -123v-2q0 -172 -212.5 -262t-624.5 -90z" />
    <glyph glyph-name="t" unicode="t" horiz-adv-x="1285" 
d="M884 0q-95 0 -161 6.5t-122.5 23.5t-91 46t-58.5 75t-34 108t-10 149v469h-384v190h384v377h246v-377h531v-190h-531v-446q0 -55 4 -90.5t16 -64t30.5 -44t52.5 -26t75.5 -13.5t105.5 -3h234v-190h-287z" />
    <glyph glyph-name="u" unicode="u" horiz-adv-x="1910" 
d="M872 -28q-162 0 -289.5 31.5t-222.5 97t-146 172t-51 249.5v545h246v-492q0 -413 536 -413q257 0 396 100.5t139 312.5v492h246v-1067h-246v189q-70 -92 -226 -154.5t-382 -62.5z" />
    <glyph glyph-name="v" unicode="v" horiz-adv-x="1793" 
d="M757 0l-746 1067h298l603 -868h1l608 868h265l-753 -1067h-276z" />
    <glyph glyph-name="w" unicode="w" horiz-adv-x="2873" 
d="M635 0l-613 1067h282l493 -859h1l520 859h276l523 -849h1l487 849h248l-614 -1067h-274l-526 865h-1l-527 -865h-276z" />
    <glyph glyph-name="x" unicode="x" horiz-adv-x="1907" 
d="M-2 0l781 538l-759 529h360l580 -405l589 405h340l-760 -523l779 -544h-359l-601 419l-609 -419h-341z" />
    <glyph glyph-name="y" unicode="y" horiz-adv-x="1849" 
d="M236 -333v191h217q106 0 152.5 8t81 33t81.5 89l16 20l-778 1059h301l625 -864l647 864h271l-843 -1121q-71 -95 -126 -148.5t-121 -83.5t-131.5 -38.5t-175.5 -8.5h-217z" />
    <glyph glyph-name="z" unicode="z" horiz-adv-x="1763" 
d="M99 0v188l1133 689h-1110v190h1513v-188l-1147 -689h1183v-190h-1572z" />
    <glyph glyph-name="braceleft" unicode="{" horiz-adv-x="827" 
d="M557 -333q-163 0 -242 70t-79 236v306q0 71 -18 109t-40.5 50.5t-85.5 32.5q-11 4 -17 6v158q85 28 106 42q45 29 53 105q2 23 2 52v304q0 166 79 236t242 70h177v-195h-138q-91 0 -114 -25t-23 -125v-237q0 -129 -43 -198t-146 -107v-2q103 -38 146 -107t43 -198v-238
q0 -55 3.5 -81.5t20 -44t40 -21t73.5 -3.5h138v-195h-177z" />
    <glyph glyph-name="bar" unicode="|" horiz-adv-x="645" 
d="M211 -333v1777h224v-1777h-224z" />
    <glyph glyph-name="braceright" unicode="}" horiz-adv-x="827" 
d="M95 -333v195h137q93 0 115 24t22 126v238q0 129 43 198t147 107v2q-104 38 -147 107t-43 198v237q0 100 -23 125t-114 25h-137v195h177q163 0 241.5 -70t78.5 -236v-304q0 -71 18 -109.5t40.5 -51t85.5 -32.5q11 -4 17 -6v-158q-85 -28 -106 -42q-45 -29 -53 -106
q-2 -22 -2 -50v-306q0 -166 -78.5 -236t-241.5 -70h-177z" />
    <glyph glyph-name="asciitilde" unicode="~" horiz-adv-x="1839" 
d="M350 564l-194 68q58 147 168.5 233.5t268.5 86.5q91 0 173 -22.5t143 -55t117.5 -65t121 -55t129.5 -22.5q52 0 91.5 14t66.5 43.5t43 57t35 72.5l193 -68q-57 -147 -168 -234t-269 -87q-91 0 -172.5 23t-142.5 55t-117.5 64.5t-121 55.5t-130.5 23q-52 0 -91 -14
t-66 -43.5t-43 -57t-35 -72.5z" />
    <glyph glyph-name="uni00A0" unicode="&#xa0;" horiz-adv-x="764" 
 />
    <glyph glyph-name="exclamdown" unicode="&#xa1;" horiz-adv-x="616" 
d="M506 1111v-260h-263v260h263zM465 669l33 -424v-578h-246v578l34 424h179z" />
    <glyph glyph-name="cent" unicode="&#xa2;" horiz-adv-x="1930" 
d="M876 217v190q-154 12 -285.5 53.5t-232 109.5t-158 169.5t-57.5 226.5v2q0 124 57.5 225.5t158 169.5t232 109t285.5 53v193h223v-190q182 -10 330 -53t256 -126t146 -198h-277q-41 69 -133 114t-195.5 62t-221.5 17q-115 0 -219 -22.5t-190 -66t-137.5 -118
t-51.5 -169.5v-2q0 -96 51.5 -170.5t138 -118.5t190.5 -66.5t219 -22.5q186 0 337.5 46t211.5 147h277q-38 -115 -146 -198t-256 -126t-330 -53v-187h-223z" />
    <glyph glyph-name="sterling" unicode="&#xa3;" horiz-adv-x="2143" 
d="M151 0v178q181 18 272 91.5t91 179.5v3q0 78 -51 175h-353v195h242q-45 97 -45 179v4q0 137 109.5 244t303 165.5t438.5 58.5q344 0 569 -116t300 -338l-267 -1q-56 149 -207 211t-393 62q-272 0 -430 -75t-158 -208v-2q0 -82 50 -184h1054v-195h-946q49 -98 49 -178v-5
q0 -70 -44.5 -132t-127.5 -104h1421v-208h-1877z" />
    <glyph glyph-name="currency" unicode="&#xa4;" horiz-adv-x="1468" 
d="M735 233q-158 0 -280 79l-183 -183l-131 130l181 182q-81 122 -81 283q0 163 82 284l-181 183l131 130l182 -184q123 78 280 78t279 -78l183 184l131 -130l-182 -184q81 -122 81 -283q0 -162 -81 -283l182 -182l-131 -130l-182 183q-122 -79 -280 -79zM735 408
q135 0 221 85.5t86 230.5t-86 231t-221 86t-221.5 -86t-86.5 -231t86.5 -230.5t221.5 -85.5z" />
    <glyph glyph-name="yen" unicode="&#xa5;" horiz-adv-x="2300" 
d="M1027 0v175h-659v190h659v135h-659v189h495l-807 755h335l644 -603l116 -114h3l117 114l640 603h334l-802 -755h491v-189h-651v-135h651v-190h-651v-175h-256z" />
    <glyph glyph-name="brokenbar" unicode="&#xa6;" horiz-adv-x="645" 
d="M211 700v744h224v-744h-224zM211 -333v744h224v-744h-224z" />
    <glyph glyph-name="section" unicode="&#xa7;" horiz-adv-x="1994" 
d="M1013 -218q-169 0 -313.5 23.5t-262 71t-197 124t-109.5 176.5h275q100 -217 612 -217q284 0 430 50.5t146 139.5v2q0 85 -110.5 122t-389.5 48l-341 13q-317 12 -467 93t-150 230v1q0 85 66.5 156.5t162.5 102.5q-204 83 -204 268v1q0 104 101 183.5t279.5 121.5
t408.5 42q215 0 387 -39.5t291 -122.5t159 -201h-274q-31 51 -90.5 88.5t-137 57.5t-160.5 29.5t-176 9.5q-240 0 -386.5 -45.5t-146.5 -130.5v-2q0 -74 98 -112.5t328 -48.5l346 -15q141 -6 246 -18.5t192 -37t141.5 -61.5t84 -91.5t29.5 -126.5v-2q0 -81 -51.5 -150.5
t-138.5 -112.5q159 -77 159 -241v-2q0 -181 -218 -279t-619 -98zM794 844q-88 5 -161 12q-116 -19 -179 -66t-63 -106v-2q0 -82 94 -123t316 -50l347 -14q182 -8 303 -26q86 24 130 72.5t44 103.5v3q0 89 -110 128.5t-381 51.5z" />
    <glyph glyph-name="dieresis" unicode="&#xa8;" horiz-adv-x="1140" 
d="M31 1210v234h246v-234h-246zM864 1210v234h245v-234h-245z" />
    <glyph glyph-name="copyright" unicode="&#xa9;" horiz-adv-x="2630" 
d="M1298 285q-135 0 -255 28.5t-213 82.5t-147 138t-54 188v2q0 103 54 187t147 138t213 82.5t255 28.5q238 0 414.5 -77t228.5 -217h-215q-48 79 -167.5 118.5t-260.5 39.5q-119 0 -222 -31t-173.5 -101t-70.5 -168v-2q0 -74 40.5 -133t107.5 -94.5t149 -54t170 -18.5
q142 0 260.5 38.5t166.5 118.5h215q-52 -140 -228.5 -217t-414.5 -77zM1315 -59q-253 0 -470.5 58.5t-371 161t-241 247.5t-87.5 314v2q0 169 87.5 314t241 247.5t371 161t470.5 58.5q337 0 604.5 -99.5t417 -278t149.5 -403.5v-2q0 -225 -149.5 -403.5t-417 -278
t-604.5 -99.5zM1315 70q298 0 528.5 83t356 231.5t125.5 337.5v2q0 189 -125.5 337.5t-356 231.5t-528.5 83q-224 0 -412.5 -48.5t-319.5 -134t-204 -206.5t-73 -263v-2q0 -142 73 -263t204 -206.5t319.5 -134t412.5 -48.5z" />
    <glyph glyph-name="guillemotleft" unicode="&#xab;" horiz-adv-x="1392" 
d="M450 193l-341 381l341 381h267l-334 -381l334 -381h-267zM981 193l-341 381l341 381h268l-334 -381l334 -381h-268z" />
    <glyph glyph-name="logicalnot" unicode="&#xac;" horiz-adv-x="1781" 
d="M175 883v217h1431v-756h-223v539h-1208z" />
    <glyph glyph-name="uni00AD" unicode="&#xad;" horiz-adv-x="1116" 
d="M165 444v218h787v-218h-787z" />
    <glyph glyph-name="registered" unicode="&#xae;" horiz-adv-x="2091" 
d="M1046 278q-257 0 -461 76t-318.5 212t-114.5 307v3q0 171 114.5 307.5t318.5 213t461 76.5t461 -76.5t318.5 -213t114.5 -307.5v-3q0 -171 -114.5 -307t-318.5 -212t-461 -76zM1046 376q344 0 557 139t213 358v3q0 219 -213 358.5t-557 139.5t-557 -139.5t-213 -358.5v-3
q0 -219 213 -358t557 -139zM645 552v649h586q138 0 205 -53t67 -142v-1q0 -89 -66 -141.5t-202 -53.5l298 -258h-195l-297 258h-255v-258h-141zM786 919h428q74 0 112 23t38 63v1q0 40 -37.5 63.5t-112.5 23.5h-428v-174z" />
    <glyph glyph-name="macron" unicode="&#xaf;" horiz-adv-x="963" 
d="M31 1239v164h901v-164h-901z" />
    <glyph glyph-name="degree" unicode="&#xb0;" horiz-adv-x="1217" 
d="M610 736q-223 0 -365 105t-142 264t142 263.5t365 104.5t364.5 -104.5t141.5 -263.5t-141.5 -264t-364.5 -105zM610 905q134 0 215 55t81 145t-81 144.5t-215 54.5q-135 0 -216 -54.5t-81 -143.5q0 -90 81 -145.5t216 -55.5z" />
    <glyph glyph-name="plusminus" unicode="&#xb1;" horiz-adv-x="1781" 
d="M779 344v436h-604v217h604v439h223v-439h604v-217h-604v-436h-223zM176 0v217h1430v-217h-1430z" />
    <glyph glyph-name="twosuperior" unicode="&#xb2;" horiz-adv-x="1399" 
d="M58 963v10q0 162 129 264.5t428 168.5l182 41q171 37 235 68.5t64 93.5v1q0 143 -381 143q-181 0 -288.5 -50.5t-119.5 -151.5h-207q23 156 184.5 244.5t430.5 88.5q280 0 429.5 -72t149.5 -203v-1q0 -121 -98 -181t-347 -113l-181 -39q-172 -37 -253 -72.5t-118 -90.5
h1030v-149h-1269z" />
    <glyph glyph-name="threesuperior" unicode="&#xb3;" horiz-adv-x="1434" 
d="M725 944q-181 0 -324.5 36.5t-233.5 109t-106 171.5h209q24 -94 150.5 -140t303.5 -46q428 0 428 140v2q0 139 -399 139h-110v147h112q179 0 268.5 28.5t89.5 91.5v1q0 63 -106 96t-282 33q-165 0 -281.5 -45.5t-137.5 -130.5h-209q33 143 200 225t426 82
q268 0 427.5 -65.5t159.5 -189.5v-2q0 -72 -54.5 -122t-151.5 -68v-1q114 -19 182.5 -71t68.5 -140v-1q0 -93 -81.5 -156.5t-221 -93.5t-327.5 -30z" />
    <glyph glyph-name="acute" unicode="&#xb4;" horiz-adv-x="718" 
d="M31 1210l285 234h372l-377 -234h-280z" />
    <glyph glyph-name="paragraph" unicode="&#xb6;" horiz-adv-x="1711" 
d="M522 -197v869q-213 11 -327 110t-114 275q0 187 128 287t365 100h1064v-195h-328v-1446h-205v1446h-379v-1446h-204z" />
    <glyph glyph-name="periodcentered" unicode="&#xb7;" horiz-adv-x="593" 
d="M165 425v260h264v-260h-264z" />
    <glyph glyph-name="cedilla" unicode="&#xb8;" horiz-adv-x="767" 
d="M345 -418q-149 0 -314 49l41 99q116 -45 258 -45q161 0 161 57q0 52 -136 52q-79 0 -137 -23l-92 64l230 206h172l-181 -161q53 15 122 15t125.5 -11t99.5 -44t43 -85q0 -79 -110.5 -126t-281.5 -47z" />
    <glyph glyph-name="onesuperior" unicode="&#xb9;" horiz-adv-x="709" 
d="M370 963v651h-322v138h116q122 0 165 20.5t69 93.5h167v-903h-195z" />
    <glyph glyph-name="guillemotright" unicode="&#xbb;" horiz-adv-x="1392" 
d="M1284 574l-341 -381h-268l334 381l-334 381h268zM752 574l-341 -381h-267l334 381l-334 381h267z" />
    <glyph glyph-name="onequarter" unicode="&#xbc;" horiz-adv-x="2704" 
d="M2216 0v199h-956v143l956 561h193v-561h249v-143h-249v-199h-193zM195 0l1433 1505h256l-1433 -1505h-256zM360 602v651h-323v139h117q122 0 165 20t69 93h166v-903h-194zM1516 342h700v407h-1z" />
    <glyph glyph-name="onehalf" unicode="&#xbd;" horiz-adv-x="2729" 
d="M1388 0v10q0 161 129.5 264t427.5 169l182 41q171 37 235 68.5t64 93.5v1q0 144 -381 144q-180 0 -288 -51t-120 -151h-207q23 156 184.5 244.5t430.5 88.5q280 0 429.5 -72.5t149.5 -203.5v-1q0 -121 -97.5 -180.5t-346.5 -113.5l-182 -39q-172 -37 -253 -72.5
t-117 -89.5h1029v-150h-1269zM195 0l1433 1505h256l-1433 -1505h-256zM360 602v651h-323v139h117q122 0 165 20t69 93h166v-903h-194z" />
    <glyph glyph-name="threequarters" unicode="&#xbe;" horiz-adv-x="3416" 
d="M2927 0v199h-956v143l956 561h193v-561h249v-143h-249v-199h-193zM723 584q-181 0 -324.5 36.5t-233.5 108.5t-106 171h209q24 -93 150.5 -139t303.5 -46q428 0 428 140v1q0 139 -399 139h-111v148h113q179 0 268 28.5t89 91.5v1q0 63 -105.5 96t-281.5 33
q-164 0 -281 -46t-138 -130h-209q33 143 200 225t426 82q267 0 427 -65.5t160 -189.5v-2q0 -73 -54 -122.5t-152 -68.5v-1q114 -18 182.5 -70.5t68.5 -140.5v-1q0 -92 -81.5 -155.5t-221 -93.5t-327.5 -30zM907 0l1433 1505h256l-1433 -1505h-256zM2227 342h700v407h-1z" />
    <glyph glyph-name="questiondown" unicode="&#xbf;" horiz-adv-x="2049" 
d="M1283 1111v-260h-263v260h263zM1094 -176q352 0 515.5 73t167.5 252h278q-4 -128 -75 -226.5t-199 -160.5t-300.5 -93t-385.5 -31q-468 0 -716.5 99.5t-248.5 277.5v2q0 56 20.5 102t54.5 79.5t88.5 63t110.5 50.5t133 43l171 49q69 20 109 33t80.5 30.5t60.5 34
t37.5 41.5t24 54.5t8.5 71.5h246q0 -168 -103 -259.5t-338 -158.5l-164 -47q-164 -47 -221.5 -85t-57.5 -97v-1q0 -90 178.5 -143.5t525.5 -53.5z" />
    <glyph glyph-name="Agrave" unicode="&#xc0;" horiz-adv-x="2130" 
d="M3 0l913 1444h299l913 -1444h-294l-267 423h-1024l-266 -423h-274zM678 639h752l-376 594h-2zM1010 1618l-473 264h373l387 -264h-287z" />
    <glyph glyph-name="Aacute" unicode="&#xc1;" horiz-adv-x="2130" 
d="M3 0l913 1444h299l913 -1444h-294l-267 423h-1024l-266 -423h-274zM678 639h752l-376 594h-2zM853 1618l387 264h373l-473 -264h-287z" />
    <glyph glyph-name="Acircumflex" unicode="&#xc2;" horiz-adv-x="2130" 
d="M3 0l913 1444h299l913 -1444h-294l-267 423h-1024l-266 -423h-274zM678 639h752l-376 594h-2zM486 1618l404 264h349l404 -264h-325l-253 162l-254 -162h-325z" />
    <glyph glyph-name="Atilde" unicode="&#xc3;" horiz-adv-x="2130" 
d="M3 0l913 1444h299l913 -1444h-294l-267 423h-1024l-266 -423h-274zM678 639h752l-376 594h-2zM516 1618q9 123 81.5 193.5t207.5 70.5q73 0 147 -15.5t123 -34.5t103.5 -34.5t93.5 -15.5q67 0 94.5 23t32.5 77h214q-10 -123 -82.5 -193.5t-207.5 -70.5q-73 0 -147 16
t-122.5 34.5t-103 34.5t-93.5 16q-67 0 -95 -23t-34 -78h-212z" />
    <glyph glyph-name="Adieresis" unicode="&#xc4;" horiz-adv-x="2130" 
d="M3 0l913 1444h299l913 -1444h-294l-267 423h-1024l-266 -423h-274zM678 639h752l-376 594h-2zM513 1634v248h256v-248h-256zM1366 1634v248h256v-248h-256z" />
    <glyph glyph-name="Aring" unicode="&#xc5;" horiz-adv-x="2130" 
d="M3 0l913 1444h299l913 -1444h-294l-267 423h-1024l-266 -423h-274zM678 639h752l-376 594h-2zM1066 1521q-101 0 -172.5 67t-71.5 168t71.5 168.5t172.5 67.5t172.5 -67.5t71.5 -168.5t-71.5 -168t-172.5 -67zM1066 1637q52 0 84 33t32 86t-32 86t-84 33t-84 -33t-32 -86
t32 -86t84 -33z" />
    <glyph glyph-name="AE" unicode="&#xc6;" horiz-adv-x="3304" 
d="M-81 0l1456 1444h1777v-217h-1480v-386h1428v-217h-1428v-407h1483v-217h-1739v423h-777l-422 -423h-298zM834 618h582v583z" />
    <glyph glyph-name="Ccedilla" unicode="&#xc7;" horiz-adv-x="2402" 
d="M1256 -29q-335 0 -591.5 87.5t-403 259t-146.5 403.5v2q0 232 146.5 403.5t403 259t591.5 87.5q396 0 685.5 -132t376.5 -349h-298q-76 136 -286.5 207t-475.5 71q-134 0 -257 -18.5t-236 -61t-196 -104.5t-132.5 -155.5t-49.5 -207.5v-2q0 -114 49.5 -207.5
t132.5 -155.5t196 -104.5t236 -61t257 -18.5q265 0 475.5 71t286.5 207h298q-87 -217 -376.5 -349t-685.5 -132zM1205 -418q-149 0 -314 49l41 99q116 -45 258 -45q161 0 161 57q0 52 -136 52q-79 0 -137 -23l-92 64l230 206h172l-181 -161q53 15 122 15t125.5 -11t99.5 -44
t43 -85q0 -79 -110.5 -126t-281.5 -47z" />
    <glyph glyph-name="Egrave" unicode="&#xc8;" horiz-adv-x="2099" 
d="M211 0v1444h1736v-217h-1480v-386h1428v-217h-1428v-407h1483v-217h-1739zM1026 1618l-473 264h373l387 -264h-287z" />
    <glyph glyph-name="Eacute" unicode="&#xc9;" horiz-adv-x="2099" 
d="M211 0v1444h1736v-217h-1480v-386h1428v-217h-1428v-407h1483v-217h-1739zM869 1618l387 264h373l-473 -264h-287z" />
    <glyph glyph-name="Ecircumflex" unicode="&#xca;" horiz-adv-x="2099" 
d="M211 0v1444h1736v-217h-1480v-386h1428v-217h-1428v-407h1483v-217h-1739zM502 1618l404 264h349l404 -264h-325l-253 162l-254 -162h-325z" />
    <glyph glyph-name="Edieresis" unicode="&#xcb;" horiz-adv-x="2099" 
d="M211 0v1444h1736v-217h-1480v-386h1428v-217h-1428v-407h1483v-217h-1739zM529 1634v248h256v-248h-256zM1382 1634v248h256v-248h-256z" />
    <glyph glyph-name="Igrave" unicode="&#xcc;" horiz-adv-x="678" 
d="M211 0v1444h256v-1444h-256zM284 1618l-473 264h373l387 -264h-287z" />
    <glyph glyph-name="Iacute" unicode="&#xcd;" horiz-adv-x="678" 
d="M211 0v1444h256v-1444h-256zM127 1618l387 264h373l-473 -264h-287z" />
    <glyph glyph-name="Icircumflex" unicode="&#xce;" horiz-adv-x="678" 
d="M211 0v1444h256v-1444h-256zM-240 1618l404 264h349l404 -264h-325l-253 162l-254 -162h-325z" />
    <glyph glyph-name="Idieresis" unicode="&#xcf;" horiz-adv-x="678" 
d="M211 0v1444h256v-1444h-256zM-213 1634v248h256v-248h-256zM640 1634v248h256v-248h-256z" />
    <glyph glyph-name="Eth" unicode="&#xd0;" horiz-adv-x="2275" 
d="M51 625v204h216v615h800q110 0 212 -8.5t213.5 -30.5t205 -56.5t179.5 -91t146 -130t95.5 -177t35.5 -227.5v-2q0 -124 -35.5 -227.5t-95.5 -177t-146 -130t-179.5 -91t-205 -56.5t-213.5 -30.5t-212 -8.5h-800v625h-216zM523 217h541q58 0 101.5 1t112.5 6t121.5 14.5
t118.5 27.5t114.5 43t98 63.5t81 87t51 115.5t19.5 146v2q0 79 -19.5 146t-51 115t-81 87t-98 64t-114.5 43t-118.5 27t-121.5 14.5t-112.5 6.5t-101.5 1h-541v-398h625v-204h-625v-408z" />
    <glyph glyph-name="Ntilde" unicode="&#xd1;" horiz-adv-x="2361" 
d="M211 0v1444h293l1389 -1158h2v1158h256v-1444h-295l-1387 1157h-2v-1157h-256zM694 1618q9 123 81.5 193.5t207.5 70.5q73 0 147 -15.5t123 -34.5t103.5 -34.5t93.5 -15.5q67 0 94.5 23t32.5 77h214q-10 -123 -82.5 -193.5t-207.5 -70.5q-73 0 -147 16t-122.5 34.5
t-103 34.5t-93.5 16q-67 0 -95 -23t-34 -78h-212z" />
    <glyph glyph-name="Ograve" unicode="&#xd2;" horiz-adv-x="2531" 
d="M1257 -29q-247 0 -453 48t-357.5 140.5t-236 236t-84.5 325.5v2q0 182 84.5 325.5t236 236t357.5 140.5t453 48t452.5 -48t357 -140.5t236 -236t84.5 -325.5v-2q0 -182 -84.5 -325.5t-236 -236t-357 -140.5t-452.5 -48zM1257 174q140 0 266 20t235 63.5t188 106.5
t124 154.5t45 202.5v2q0 111 -45 202.5t-124 154.5t-188 106.5t-235 63.5t-266 20q-177 0 -329 -33t-272 -97.5t-189 -171.5t-69 -245v-2q0 -138 69 -245t189 -171.5t272 -97.5t329 -33zM1211 1618l-473 264h373l387 -264h-287z" />
    <glyph glyph-name="Oacute" unicode="&#xd3;" horiz-adv-x="2531" 
d="M1257 -29q-247 0 -453 48t-357.5 140.5t-236 236t-84.5 325.5v2q0 182 84.5 325.5t236 236t357.5 140.5t453 48t452.5 -48t357 -140.5t236 -236t84.5 -325.5v-2q0 -182 -84.5 -325.5t-236 -236t-357 -140.5t-452.5 -48zM1257 174q140 0 266 20t235 63.5t188 106.5
t124 154.5t45 202.5v2q0 111 -45 202.5t-124 154.5t-188 106.5t-235 63.5t-266 20q-177 0 -329 -33t-272 -97.5t-189 -171.5t-69 -245v-2q0 -138 69 -245t189 -171.5t272 -97.5t329 -33zM1054 1618l387 264h373l-473 -264h-287z" />
    <glyph glyph-name="Ocircumflex" unicode="&#xd4;" horiz-adv-x="2531" 
d="M1257 -29q-247 0 -453 48t-357.5 140.5t-236 236t-84.5 325.5v2q0 182 84.5 325.5t236 236t357.5 140.5t453 48t452.5 -48t357 -140.5t236 -236t84.5 -325.5v-2q0 -182 -84.5 -325.5t-236 -236t-357 -140.5t-452.5 -48zM1257 174q140 0 266 20t235 63.5t188 106.5
t124 154.5t45 202.5v2q0 111 -45 202.5t-124 154.5t-188 106.5t-235 63.5t-266 20q-177 0 -329 -33t-272 -97.5t-189 -171.5t-69 -245v-2q0 -138 69 -245t189 -171.5t272 -97.5t329 -33zM687 1618l404 264h349l404 -264h-325l-253 162l-254 -162h-325z" />
    <glyph glyph-name="Otilde" unicode="&#xd5;" horiz-adv-x="2531" 
d="M1257 -29q-247 0 -453 48t-357.5 140.5t-236 236t-84.5 325.5v2q0 182 84.5 325.5t236 236t357.5 140.5t453 48t452.5 -48t357 -140.5t236 -236t84.5 -325.5v-2q0 -182 -84.5 -325.5t-236 -236t-357 -140.5t-452.5 -48zM1257 174q140 0 266 20t235 63.5t188 106.5
t124 154.5t45 202.5v2q0 111 -45 202.5t-124 154.5t-188 106.5t-235 63.5t-266 20q-177 0 -329 -33t-272 -97.5t-189 -171.5t-69 -245v-2q0 -138 69 -245t189 -171.5t272 -97.5t329 -33zM717 1618q9 123 81.5 193.5t207.5 70.5q73 0 147 -15.5t123 -34.5t103.5 -34.5
t93.5 -15.5q67 0 94.5 23t32.5 77h214q-10 -123 -82.5 -193.5t-207.5 -70.5q-73 0 -147 16t-122.5 34.5t-103 34.5t-93.5 16q-67 0 -95 -23t-34 -78h-212z" />
    <glyph glyph-name="Odieresis" unicode="&#xd6;" horiz-adv-x="2531" 
d="M1257 -29q-247 0 -453 48t-357.5 140.5t-236 236t-84.5 325.5v2q0 182 84.5 325.5t236 236t357.5 140.5t453 48t452.5 -48t357 -140.5t236 -236t84.5 -325.5v-2q0 -182 -84.5 -325.5t-236 -236t-357 -140.5t-452.5 -48zM1257 174q140 0 266 20t235 63.5t188 106.5
t124 154.5t45 202.5v2q0 111 -45 202.5t-124 154.5t-188 106.5t-235 63.5t-266 20q-177 0 -329 -33t-272 -97.5t-189 -171.5t-69 -245v-2q0 -138 69 -245t189 -171.5t272 -97.5t329 -33zM714 1634v248h256v-248h-256zM1567 1634v248h256v-248h-256z" />
    <glyph glyph-name="multiply" unicode="&#xd7;" horiz-adv-x="1575" 
d="M271 62l-152 152l517 517l-517 517l152 152l517 -517l517 517l152 -152l-518 -517l518 -517l-152 -152l-517 518z" />
    <glyph glyph-name="Oslash" unicode="&#xd8;" horiz-adv-x="2531" 
d="M391 -113l178 209q-211 93 -327 251.5t-116 373.5v2q0 182 84.5 325.5t236 236t357.5 140.5t453 48q242 0 448 -47l272 319l166 -128l-221 -259q221 -93 343 -253.5t122 -381.5v-2q0 -182 -84.5 -325.5t-236 -236t-357 -140.5t-452.5 -48q-259 0 -474 53l-226 -265z
M398 721q0 -156 85 -268.5t237 -180.5l830 973q-135 25 -293 25q-177 0 -329 -33t-272 -97.5t-189 -171.5t-69 -245v-2zM1257 174q140 0 266 20t235 63.5t188 106.5t124 154.5t45 202.5v2q0 161 -91 276t-253 182l-834 -977q150 -30 320 -30z" />
    <glyph glyph-name="Ugrave" unicode="&#xd9;" horiz-adv-x="2301" 
d="M1151 -29q-465 0 -715 180t-250 527v766h256v-757q0 -243 182 -377.5t527 -134.5t527 134.5t182 377.5v757h256v-766q0 -347 -250 -527t-715 -180zM1096 1618l-473 264h373l387 -264h-287z" />
    <glyph glyph-name="Uacute" unicode="&#xda;" horiz-adv-x="2301" 
d="M1151 -29q-465 0 -715 180t-250 527v766h256v-757q0 -243 182 -377.5t527 -134.5t527 134.5t182 377.5v757h256v-766q0 -347 -250 -527t-715 -180zM939 1618l387 264h373l-473 -264h-287z" />
    <glyph glyph-name="Ucircumflex" unicode="&#xdb;" horiz-adv-x="2301" 
d="M1151 -29q-465 0 -715 180t-250 527v766h256v-757q0 -243 182 -377.5t527 -134.5t527 134.5t182 377.5v757h256v-766q0 -347 -250 -527t-715 -180zM572 1618l404 264h349l404 -264h-325l-253 162l-254 -162h-325z" />
    <glyph glyph-name="Udieresis" unicode="&#xdc;" horiz-adv-x="2301" 
d="M1151 -29q-465 0 -715 180t-250 527v766h256v-757q0 -243 182 -377.5t527 -134.5t527 134.5t182 377.5v757h256v-766q0 -347 -250 -527t-715 -180zM599 1634v248h256v-248h-256zM1452 1634v248h256v-248h-256z" />
    <glyph glyph-name="Yacute" unicode="&#xdd;" horiz-adv-x="2223" 
d="M986 0v536l-971 908h335l644 -603l116 -114h3l117 114l640 603h334l-962 -906v-538h-256zM898 1618l387 264h373l-473 -264h-287z" />
    <glyph glyph-name="Thorn" unicode="&#xde;" horiz-adv-x="2183" 
d="M211 0v1444h256v-235h904q103 0 188 -8t167.5 -27t145 -53.5t110.5 -83.5t73 -120.5t25 -162.5v-2q0 -109 -37.5 -190.5t-99.5 -131.5t-155.5 -81t-193 -42.5t-223.5 -11.5h-904v-295h-256zM467 488h911q109 0 185 12t133 41.5t84.5 81.5t27.5 129v2q0 148 -104.5 205
t-325.5 57h-911v-528z" />
    <glyph glyph-name="germandbls" unicode="&#xdf;" horiz-adv-x="2184" 
d="M184 0v860q0 315 233.5 464t689.5 149q244 0 427 -40.5t288.5 -124.5t105.5 -204v-4q0 -114 -77 -192t-221 -118v-3q108 -12 189.5 -38t132 -59.5t82.5 -78t44 -90t12 -99.5v-2q0 -213 -235 -316.5t-680 -103.5h-298v187h283q346 0 507.5 56.5t161.5 175.5v3
q0 80 -57 131t-206 81t-398 30h-240v187h216q246 0 384.5 55t138.5 166v3q0 77 -67.5 124.5t-188.5 67.5t-306 20q-365 0 -520 -100.5t-155 -335.5v-851h-246z" />
    <glyph glyph-name="agrave" unicode="&#xe0;" horiz-adv-x="1847" 
d="M740 -29q-304 0 -475 81.5t-171 244.5v2q0 50 15.5 92.5t41.5 75t69 59.5t89 46t111.5 34.5t126.5 25t143 17t152 12t163 8.5q287 12 354.5 27.5t67.5 71.5v2q0 70 -127.5 108t-372.5 38q-471 0 -497 -182h-273q9 160 208.5 262.5t558.5 102.5q149 0 262 -10.5t210.5 -36
t159 -68t95 -108t31.5 -154.5l-7 -354q-3 -137 2 -204t25 -164h-246q-22 80 -25 152q-159 -181 -691 -181zM771 150q153 0 268 16t208 53.5t141.5 106t48.5 166.5v64q-111 -30 -450 -57q-99 -8 -163.5 -14t-133.5 -14t-110.5 -15.5t-83.5 -17.5t-64.5 -22t-41 -27.5
t-25.5 -34.5t-7 -43v-1q0 -160 413 -160zM835 1210l-377 234h373l285 -234h-281z" />
    <glyph glyph-name="aacute" unicode="&#xe1;" horiz-adv-x="1847" 
d="M740 -29q-304 0 -475 81.5t-171 244.5v2q0 50 15.5 92.5t41.5 75t69 59.5t89 46t111.5 34.5t126.5 25t143 17t152 12t163 8.5q287 12 354.5 27.5t67.5 71.5v2q0 70 -127.5 108t-372.5 38q-471 0 -497 -182h-273q9 160 208.5 262.5t558.5 102.5q149 0 262 -10.5t210.5 -36
t159 -68t95 -108t31.5 -154.5l-7 -354q-3 -137 2 -204t25 -164h-246q-22 80 -25 152q-159 -181 -691 -181zM771 150q153 0 268 16t208 53.5t141.5 106t48.5 166.5v64q-111 -30 -450 -57q-99 -8 -163.5 -14t-133.5 -14t-110.5 -15.5t-83.5 -17.5t-64.5 -22t-41 -27.5
t-25.5 -34.5t-7 -43v-1q0 -160 413 -160zM763 1210l285 234h372l-377 -234h-280z" />
    <glyph glyph-name="acircumflex" unicode="&#xe2;" horiz-adv-x="1847" 
d="M740 -29q-304 0 -475 81.5t-171 244.5v2q0 50 15.5 92.5t41.5 75t69 59.5t89 46t111.5 34.5t126.5 25t143 17t152 12t163 8.5q287 12 354.5 27.5t67.5 71.5v2q0 70 -127.5 108t-372.5 38q-471 0 -497 -182h-273q9 160 208.5 262.5t558.5 102.5q149 0 262 -10.5t210.5 -36
t159 -68t95 -108t31.5 -154.5l-7 -354q-3 -137 2 -204t25 -164h-246q-22 80 -25 152q-159 -181 -691 -181zM771 150q153 0 268 16t208 53.5t141.5 106t48.5 166.5v64q-111 -30 -450 -57q-99 -8 -163.5 -14t-133.5 -14t-110.5 -15.5t-83.5 -17.5t-64.5 -22t-41 -27.5
t-25.5 -34.5t-7 -43v-1q0 -160 413 -160zM363 1210l404 234h343l404 -234h-322l-253 131l-254 -131h-322z" />
    <glyph glyph-name="atilde" unicode="&#xe3;" horiz-adv-x="1847" 
d="M740 -29q-304 0 -475 81.5t-171 244.5v2q0 50 15.5 92.5t41.5 75t69 59.5t89 46t111.5 34.5t126.5 25t143 17t152 12t163 8.5q287 12 354.5 27.5t67.5 71.5v2q0 70 -127.5 108t-372.5 38q-471 0 -497 -182h-273q9 160 208.5 262.5t558.5 102.5q149 0 262 -10.5t210.5 -36
t159 -68t95 -108t31.5 -154.5l-7 -354q-3 -137 2 -204t25 -164h-246q-22 80 -25 152q-159 -181 -691 -181zM771 150q153 0 268 16t208 53.5t141.5 106t48.5 166.5v64q-111 -30 -450 -57q-99 -8 -163.5 -14t-133.5 -14t-110.5 -15.5t-83.5 -17.5t-64.5 -22t-41 -27.5
t-25.5 -34.5t-7 -43v-1q0 -160 413 -160zM390 1210q9 123 81.5 194t207.5 71q93 0 184 -25.5t163.5 -50.5t119.5 -25q67 0 94.5 23.5t32.5 77.5h214q-10 -123 -82.5 -194t-207.5 -71q-73 0 -147 16t-122.5 35t-103 35t-93.5 16q-67 0 -95 -23.5t-34 -78.5h-212z" />
    <glyph glyph-name="adieresis" unicode="&#xe4;" horiz-adv-x="1847" 
d="M740 -29q-304 0 -475 81.5t-171 244.5v2q0 50 15.5 92.5t41.5 75t69 59.5t89 46t111.5 34.5t126.5 25t143 17t152 12t163 8.5q287 12 354.5 27.5t67.5 71.5v2q0 70 -127.5 108t-372.5 38q-471 0 -497 -182h-273q9 160 208.5 262.5t558.5 102.5q149 0 262 -10.5t210.5 -36
t159 -68t95 -108t31.5 -154.5l-7 -354q-3 -137 2 -204t25 -164h-246q-22 80 -25 152q-159 -181 -691 -181zM771 150q153 0 268 16t208 53.5t141.5 106t48.5 166.5v64q-111 -30 -450 -57q-99 -8 -163.5 -14t-133.5 -14t-110.5 -15.5t-83.5 -17.5t-64.5 -22t-41 -27.5
t-25.5 -34.5t-7 -43v-1q0 -160 413 -160zM400 1210v234h246v-234h-246zM1233 1210v234h245v-234h-245z" />
    <glyph glyph-name="aring" unicode="&#xe5;" horiz-adv-x="1847" 
d="M740 -29q-304 0 -475 81.5t-171 244.5v2q0 50 15.5 92.5t41.5 75t69 59.5t89 46t111.5 34.5t126.5 25t143 17t152 12t163 8.5q287 12 354.5 27.5t67.5 71.5v2q0 70 -127.5 108t-372.5 38q-471 0 -497 -182h-273q9 160 208.5 262.5t558.5 102.5q149 0 262 -10.5t210.5 -36
t159 -68t95 -108t31.5 -154.5l-7 -354q-3 -137 2 -204t25 -164h-246q-22 80 -25 152q-159 -181 -691 -181zM771 150q153 0 268 16t208 53.5t141.5 106t48.5 166.5v64q-111 -30 -450 -57q-99 -8 -163.5 -14t-133.5 -14t-110.5 -15.5t-83.5 -17.5t-64.5 -22t-41 -27.5
t-25.5 -34.5t-7 -43v-1q0 -160 413 -160zM940 1191q-101 0 -172.5 67t-71.5 168q0 102 71.5 169t172.5 67t172.5 -67t71.5 -169q0 -101 -71.5 -168t-172.5 -67zM940 1308q52 0 84 32.5t32 85.5t-32 86t-84 33t-84 -33t-32 -86t32 -85.5t84 -32.5z" />
    <glyph glyph-name="ae" unicode="&#xe6;" horiz-adv-x="3283" 
d="M2311 -29q-262 0 -465 68.5t-309 201.5q-209 -270 -797 -270q-298 0 -472 86t-174 240v2q0 49 15.5 91t42.5 74.5t70 59t89 45.5t110 34t124 25t138 17t145 11t153 8q107 4 174.5 8t122 9.5t82 12t46 18t23.5 24t5 32.5v2q0 70 -131.5 111.5t-375.5 41.5q-229 0 -355 -49
t-142 -140h-273q31 162 226.5 263.5t540.5 101.5q276 0 451 -43t251 -145h1q119 92 296.5 140t387.5 48q139 0 260 -21t231.5 -69.5t191.5 -122t134.5 -184.5t66.5 -251v-1h-1492v-1q19 -77 76 -134.5t141 -91.5t183 -50t213 -16q197 0 352.5 39.5t229.5 125.5h280
q-82 -171 -311 -261t-556 -90zM771 142q110 0 202.5 10t180.5 35.5t148.5 65.5t97.5 104.5t37 147.5v47q-102 -26 -450 -51q-129 -10 -211.5 -17.5t-160 -19t-121 -24.5t-77 -32t-46.5 -43.5t-13 -57.5v-1q0 -164 413 -164zM2305 915q-501 0 -598 -280v-1h1196v1
q-99 280 -598 280z" />
    <glyph glyph-name="ccedilla" unicode="&#xe7;" horiz-adv-x="1866" 
d="M958 -29q-175 0 -328.5 36t-273 104t-189 177.5t-69.5 246.5v2q0 136 69.5 245t189 177t273.5 104t329 36q202 0 370.5 -40t291.5 -127t165 -212h-277q-41 69 -133 114t-195.5 62t-221.5 17q-115 0 -219 -22.5t-190 -66t-137.5 -118t-51.5 -169.5v-2q0 -96 51.5 -170.5
t138 -118.5t190.5 -66.5t219 -22.5q186 0 337.5 46t211.5 147h277q-42 -125 -165 -212t-291.5 -127t-371.5 -40zM908 -418q-149 0 -314 49l41 99q116 -45 258 -45q161 0 161 57q0 52 -136 52q-79 0 -137 -23l-92 64l230 206h172l-181 -161q53 15 122 15t125.5 -11t99.5 -44
t43 -85q0 -79 -110.5 -126t-281.5 -47z" />
    <glyph glyph-name="egrave" unicode="&#xe8;" horiz-adv-x="1945" 
d="M972 -29q-187 0 -344 35.5t-276 104t-186 177t-67 246.5v2q0 137 68.5 245.5t188 177t276.5 104.5t340 36q139 0 260 -21t231.5 -69.5t191.5 -122t134.5 -184.5t66.5 -251v-1h-1492v-1q19 -77 76 -134.5t141 -91.5t183 -50t213 -16q197 0 352.5 39.5t229.5 125.5h280
q-82 -171 -311 -261t-556 -90zM966 915q-501 0 -598 -280v-1h1196v1q-99 280 -598 280zM864 1210l-377 234h373l285 -234h-281z" />
    <glyph glyph-name="eacute" unicode="&#xe9;" horiz-adv-x="1945" 
d="M972 -29q-187 0 -344 35.5t-276 104t-186 177t-67 246.5v2q0 137 68.5 245.5t188 177t276.5 104.5t340 36q139 0 260 -21t231.5 -69.5t191.5 -122t134.5 -184.5t66.5 -251v-1h-1492v-1q19 -77 76 -134.5t141 -91.5t183 -50t213 -16q197 0 352.5 39.5t229.5 125.5h280
q-82 -171 -311 -261t-556 -90zM966 915q-501 0 -598 -280v-1h1196v1q-99 280 -598 280zM792 1210l285 234h372l-377 -234h-280z" />
    <glyph glyph-name="ecircumflex" unicode="&#xea;" horiz-adv-x="1945" 
d="M972 -29q-187 0 -344 35.5t-276 104t-186 177t-67 246.5v2q0 137 68.5 245.5t188 177t276.5 104.5t340 36q139 0 260 -21t231.5 -69.5t191.5 -122t134.5 -184.5t66.5 -251v-1h-1492v-1q19 -77 76 -134.5t141 -91.5t183 -50t213 -16q197 0 352.5 39.5t229.5 125.5h280
q-82 -171 -311 -261t-556 -90zM966 915q-501 0 -598 -280v-1h1196v1q-99 280 -598 280zM392 1210l404 234h343l404 -234h-322l-253 131l-254 -131h-322z" />
    <glyph glyph-name="edieresis" unicode="&#xeb;" horiz-adv-x="1945" 
d="M972 -29q-187 0 -344 35.5t-276 104t-186 177t-67 246.5v2q0 137 68.5 245.5t188 177t276.5 104.5t340 36q139 0 260 -21t231.5 -69.5t191.5 -122t134.5 -184.5t66.5 -251v-1h-1492v-1q19 -77 76 -134.5t141 -91.5t183 -50t213 -16q197 0 352.5 39.5t229.5 125.5h280
q-82 -171 -311 -261t-556 -90zM966 915q-501 0 -598 -280v-1h1196v1q-99 280 -598 280zM429 1210v234h246v-234h-246zM1262 1210v234h245v-234h-245z" />
    <glyph glyph-name="igrave" unicode="&#xec;" 
d="M185 0v1067h246v-1067h-246zM204 1210l-377 234h373l285 -234h-281z" />
    <glyph glyph-name="iacute" unicode="&#xed;" 
d="M185 0v1067h246v-1067h-246zM132 1210l285 234h372l-377 -234h-280z" />
    <glyph glyph-name="icircumflex" unicode="&#xee;" 
d="M185 0v1067h246v-1067h-246zM-268 1210l404 234h343l404 -234h-322l-253 131l-254 -131h-322z" />
    <glyph glyph-name="idieresis" unicode="&#xef;" 
d="M185 0v1067h246v-1067h-246zM-231 1210v234h246v-234h-246zM602 1210v234h245v-234h-245z" />
    <glyph glyph-name="eth" unicode="&#xf0;" horiz-adv-x="1979" 
d="M485 1095l-84 141l284 134q-155 59 -305 97l76 194q259 -76 480 -172l362 172l84 -141l-255 -121q167 -85 302 -179.5t238 -201.5t159.5 -226.5t56.5 -241.5v-1q0 -266 -241 -422t-650 -156q-406 0 -650 154.5t-244 405.5v4q0 165 110 293.5t308 198.5t452 70
q173 0 323 -46l1 1q-143 118 -403 234zM992 153q175 0 316 42.5t227.5 130.5t86.5 208v1q0 120 -86.5 208t-227.5 130t-316 42q-176 0 -317.5 -42t-228.5 -130t-87 -208v-4q0 -119 87 -206.5t228.5 -129.5t317.5 -42z" />
    <glyph glyph-name="ntilde" unicode="&#xf1;" horiz-adv-x="1909" 
d="M185 0v1067h246v-177q68 90 224 148.5t384 58.5q162 0 289.5 -31.5t222.5 -97t145.5 -172t50.5 -249.5v-547h-246v494q0 209 -139.5 311t-395.5 102t-395.5 -102t-139.5 -311v-494h-246zM417 1210q9 123 81.5 194t207.5 71q93 0 184 -25.5t163.5 -50.5t119.5 -25
q67 0 94.5 23.5t32.5 77.5h214q-10 -123 -82.5 -194t-207.5 -71q-73 0 -147 16t-122.5 35t-103 35t-93.5 16q-67 0 -95 -23.5t-34 -78.5h-212z" />
    <glyph glyph-name="ograve" unicode="&#xf2;" horiz-adv-x="2002" 
d="M1002 -29q-420 0 -662 150t-242 414v2q0 174 109.5 301t313 194t481.5 67q419 0 661 -150t242 -412v-2q0 -264 -242 -414t-661 -150zM1002 157q180 0 322 40.5t230 127.5t88 210v2q0 123 -88 209.5t-230 126.5t-322 40q-181 0 -323 -40t-230 -126.5t-88 -209.5v-2
q0 -123 88 -210t230 -127.5t323 -40.5zM898 1210l-377 234h373l285 -234h-281z" />
    <glyph glyph-name="oacute" unicode="&#xf3;" horiz-adv-x="2002" 
d="M1002 -29q-420 0 -662 150t-242 414v2q0 174 109.5 301t313 194t481.5 67q419 0 661 -150t242 -412v-2q0 -264 -242 -414t-661 -150zM1002 157q180 0 322 40.5t230 127.5t88 210v2q0 123 -88 209.5t-230 126.5t-322 40q-181 0 -323 -40t-230 -126.5t-88 -209.5v-2
q0 -123 88 -210t230 -127.5t323 -40.5zM826 1210l285 234h372l-377 -234h-280z" />
    <glyph glyph-name="ocircumflex" unicode="&#xf4;" horiz-adv-x="2002" 
d="M1002 -29q-420 0 -662 150t-242 414v2q0 174 109.5 301t313 194t481.5 67q419 0 661 -150t242 -412v-2q0 -264 -242 -414t-661 -150zM1002 157q180 0 322 40.5t230 127.5t88 210v2q0 123 -88 209.5t-230 126.5t-322 40q-181 0 -323 -40t-230 -126.5t-88 -209.5v-2
q0 -123 88 -210t230 -127.5t323 -40.5zM426 1210l404 234h343l404 -234h-322l-253 131l-254 -131h-322z" />
    <glyph glyph-name="otilde" unicode="&#xf5;" horiz-adv-x="2002" 
d="M1002 -29q-420 0 -662 150t-242 414v2q0 174 109.5 301t313 194t481.5 67q419 0 661 -150t242 -412v-2q0 -264 -242 -414t-661 -150zM1002 157q180 0 322 40.5t230 127.5t88 210v2q0 123 -88 209.5t-230 126.5t-322 40q-181 0 -323 -40t-230 -126.5t-88 -209.5v-2
q0 -123 88 -210t230 -127.5t323 -40.5zM453 1210q9 123 81.5 194t207.5 71q93 0 184 -25.5t163.5 -50.5t119.5 -25q67 0 94.5 23.5t32.5 77.5h214q-10 -123 -82.5 -194t-207.5 -71q-73 0 -147 16t-122.5 35t-103 35t-93.5 16q-67 0 -95 -23.5t-34 -78.5h-212z" />
    <glyph glyph-name="odieresis" unicode="&#xf6;" horiz-adv-x="2002" 
d="M1002 -29q-420 0 -662 150t-242 414v2q0 174 109.5 301t313 194t481.5 67q419 0 661 -150t242 -412v-2q0 -264 -242 -414t-661 -150zM1002 157q180 0 322 40.5t230 127.5t88 210v2q0 123 -88 209.5t-230 126.5t-322 40q-181 0 -323 -40t-230 -126.5t-88 -209.5v-2
q0 -123 88 -210t230 -127.5t323 -40.5zM463 1210v234h246v-234h-246zM1296 1210v234h245v-234h-245z" />
    <glyph glyph-name="divide" unicode="&#xf7;" horiz-adv-x="1781" 
d="M176 624v217h1430v-217h-1430zM890 991q-74 0 -122.5 43.5t-48.5 112.5q0 68 48.5 111.5t122.5 43.5q75 0 123.5 -43t48.5 -112t-48.5 -112.5t-123.5 -43.5zM890 163q-74 0 -122.5 43t-48.5 111q0 70 48.5 113t122.5 43q76 0 124 -43t48 -113q0 -69 -48.5 -111.5
t-123.5 -42.5z" />
    <glyph glyph-name="oslash" unicode="&#xf8;" horiz-adv-x="2002" 
d="M317 -125l152 182q-179 70 -275 192.5t-96 285.5v2q0 174 109.5 301t313 194t481.5 67q170 0 317 -26l212 253l155 -121l-158 -189q182 -70 279.5 -192.5t97.5 -286.5v-2q0 -264 -242 -414t-661 -150q-173 0 -325 28l-205 -245zM361 535q0 -107 65 -185.5t182 -126.5
l568 679q-86 11 -174 11q-181 0 -323 -40t-230 -126.5t-88 -209.5v-2zM1002 157q180 0 322 40.5t230 127.5t88 210v2q0 108 -67 187t-186 126l-570 -681q87 -12 183 -12z" />
    <glyph glyph-name="ugrave" unicode="&#xf9;" horiz-adv-x="1910" 
d="M872 -28q-162 0 -289.5 31.5t-222.5 97t-146 172t-51 249.5v545h246v-492q0 -413 536 -413q257 0 396 100.5t139 312.5v492h246v-1067h-246v189q-70 -92 -226 -154.5t-382 -62.5zM842 1210l-377 234h373l285 -234h-281z" />
    <glyph glyph-name="uacute" unicode="&#xfa;" horiz-adv-x="1910" 
d="M872 -28q-162 0 -289.5 31.5t-222.5 97t-146 172t-51 249.5v545h246v-492q0 -413 536 -413q257 0 396 100.5t139 312.5v492h246v-1067h-246v189q-70 -92 -226 -154.5t-382 -62.5zM770 1210l285 234h372l-377 -234h-280z" />
    <glyph glyph-name="ucircumflex" unicode="&#xfb;" horiz-adv-x="1910" 
d="M872 -28q-162 0 -289.5 31.5t-222.5 97t-146 172t-51 249.5v545h246v-492q0 -413 536 -413q257 0 396 100.5t139 312.5v492h246v-1067h-246v189q-70 -92 -226 -154.5t-382 -62.5zM370 1210l404 234h343l404 -234h-322l-253 131l-254 -131h-322z" />
    <glyph glyph-name="udieresis" unicode="&#xfc;" horiz-adv-x="1910" 
d="M872 -28q-162 0 -289.5 31.5t-222.5 97t-146 172t-51 249.5v545h246v-492q0 -413 536 -413q257 0 396 100.5t139 312.5v492h246v-1067h-246v189q-70 -92 -226 -154.5t-382 -62.5zM407 1210v234h246v-234h-246zM1240 1210v234h245v-234h-245z" />
    <glyph glyph-name="yacute" unicode="&#xfd;" horiz-adv-x="1849" 
d="M236 -333v191h217q106 0 152.5 8t81 33t81.5 89l16 20l-778 1059h301l625 -864l647 864h271l-843 -1121q-71 -95 -126 -148.5t-121 -83.5t-131.5 -38.5t-175.5 -8.5h-217zM751 1210l285 234h372l-377 -234h-280z" />
    <glyph glyph-name="thorn" unicode="&#xfe;" horiz-adv-x="2006" 
d="M1110 -29q-260 0 -432.5 64.5t-246.5 157.5v-526h-246v1777h246v-567q74 92 246.5 156t432.5 64q225 0 404 -64.5t286.5 -193.5t107.5 -303v-2q0 -175 -107.5 -304.5t-286.5 -194t-404 -64.5zM1031 146q86 0 167.5 11t164 39t144 70.5t100 111.5t38.5 156v2
q0 86 -38.5 154.5t-100 111t-144 70.5t-164 39t-167.5 11t-168.5 -11t-165.5 -39t-145 -70t-101 -111t-39 -155v-2q0 -87 39 -156t100.5 -111.5t145 -70.5t166 -39t168.5 -11z" />
    <glyph glyph-name="ydieresis" unicode="&#xff;" horiz-adv-x="1849" 
d="M236 -333v191h217q106 0 152.5 8t81 33t81.5 89l16 20l-778 1059h301l625 -864l647 864h271l-843 -1121q-71 -95 -126 -148.5t-121 -83.5t-131.5 -38.5t-175.5 -8.5h-217zM388 1210v234h246v-234h-246zM1221 1210v234h245v-234h-245z" />
    <glyph glyph-name="Amacron" unicode="&#x100;" horiz-adv-x="2130" 
d="M3 0l913 1444h299l913 -1444h-294l-267 423h-1024l-266 -423h-274zM678 639h752l-376 594h-2zM553 1674v167h1024v-167h-1024z" />
    <glyph glyph-name="amacron" unicode="&#x101;" horiz-adv-x="1847" 
d="M740 -29q-304 0 -475 81.5t-171 244.5v2q0 50 15.5 92.5t41.5 75t69 59.5t89 46t111.5 34.5t126.5 25t143 17t152 12t163 8.5q287 12 354.5 27.5t67.5 71.5v2q0 70 -127.5 108t-372.5 38q-471 0 -497 -182h-273q9 160 208.5 262.5t558.5 102.5q149 0 262 -10.5t210.5 -36
t159 -68t95 -108t31.5 -154.5l-7 -354q-3 -137 2 -204t25 -164h-246q-22 80 -25 152q-159 -181 -691 -181zM771 150q153 0 268 16t208 53.5t141.5 106t48.5 166.5v64q-111 -30 -450 -57q-99 -8 -163.5 -14t-133.5 -14t-110.5 -15.5t-83.5 -17.5t-64.5 -22t-41 -27.5
t-25.5 -34.5t-7 -43v-1q0 -160 413 -160zM488 1239v164h901v-164h-901z" />
    <glyph glyph-name="Abreve" unicode="&#x102;" horiz-adv-x="2130" 
d="M3 0l913 1444h299l913 -1444h-294l-267 423h-1024l-266 -423h-274zM678 639h752l-376 594h-2zM1065 1605q-197 0 -322.5 71.5t-154.5 205.5h241q9 -62 74.5 -93.5t161.5 -31.5q97 0 162 31.5t74 93.5h241q-29 -134 -155 -205.5t-322 -71.5z" />
    <glyph glyph-name="abreve" unicode="&#x103;" horiz-adv-x="1847" 
d="M740 -29q-304 0 -475 81.5t-171 244.5v2q0 50 15.5 92.5t41.5 75t69 59.5t89 46t111.5 34.5t126.5 25t143 17t152 12t163 8.5q287 12 354.5 27.5t67.5 71.5v2q0 70 -127.5 108t-372.5 38q-471 0 -497 -182h-273q9 160 208.5 262.5t558.5 102.5q149 0 262 -10.5t210.5 -36
t159 -68t95 -108t31.5 -154.5l-7 -354q-3 -137 2 -204t25 -164h-246q-22 80 -25 152q-159 -181 -691 -181zM771 150q153 0 268 16t208 53.5t141.5 106t48.5 166.5v64q-111 -30 -450 -57q-99 -8 -163.5 -14t-133.5 -14t-110.5 -15.5t-83.5 -17.5t-64.5 -22t-41 -27.5
t-25.5 -34.5t-7 -43v-1q0 -160 413 -160zM939 1187q-421 0 -477 257h241q5 -31 25 -52.5t53.5 -32.5t71 -15.5t86.5 -4.5q50 0 87.5 4.5t71 15.5t53.5 32.5t24 52.5h241q-56 -257 -477 -257z" />
    <glyph glyph-name="Aogonek" unicode="&#x104;" horiz-adv-x="2130" 
d="M3 0l913 1444h299l913 -1444h-294l-267 423h-1024l-266 -423h-274zM678 639h752l-376 594h-2zM1884 1h244q-52 -26 -84 -65t-32 -78q0 -78 112 -78q59 0 113 23l58 -151q-96 -49 -232 -49q-124 0 -201 56.5t-77 150.5q0 102 99 191z" />
    <glyph glyph-name="aogonek" unicode="&#x105;" horiz-adv-x="1847" 
d="M740 -29q-304 0 -475 81.5t-171 244.5v2q0 50 15.5 92.5t41.5 75t69 59.5t89 46t111.5 34.5t126.5 25t143 17t152 12t163 8.5q287 12 354.5 27.5t67.5 71.5v2q0 70 -127.5 108t-372.5 38q-471 0 -497 -182h-273q9 160 208.5 262.5t558.5 102.5q149 0 262 -10.5t210.5 -36
t159 -68t95 -108t31.5 -154.5l-7 -354q-3 -137 2 -204t25 -164h-246q-22 80 -25 152q-159 -181 -691 -181zM771 150q153 0 268 16t208 53.5t141.5 106t48.5 166.5v64q-111 -30 -450 -57q-99 -8 -163.5 -14t-133.5 -14t-110.5 -15.5t-83.5 -17.5t-64.5 -22t-41 -27.5
t-25.5 -34.5t-7 -43v-1q0 -160 413 -160zM1456 1h244q-52 -26 -84 -65t-32 -78q0 -78 112 -78q59 0 113 23l58 -151q-96 -49 -232 -49q-124 0 -201 56.5t-77 150.5q0 102 99 191z" />
    <glyph glyph-name="Cacute" unicode="&#x106;" horiz-adv-x="2402" 
d="M1256 -29q-335 0 -591.5 87.5t-403 259t-146.5 403.5v2q0 232 146.5 403.5t403 259t591.5 87.5q396 0 685.5 -132t376.5 -349h-298q-76 136 -286.5 207t-475.5 71q-134 0 -257 -18.5t-236 -61t-196 -104.5t-132.5 -155.5t-49.5 -207.5v-2q0 -114 49.5 -207.5
t132.5 -155.5t196 -104.5t236 -61t257 -18.5q265 0 475.5 71t286.5 207h298q-87 -217 -376.5 -349t-685.5 -132zM1044 1618l387 264h373l-473 -264h-287z" />
    <glyph glyph-name="cacute" unicode="&#x107;" horiz-adv-x="1866" 
d="M958 -29q-175 0 -328.5 36t-273 104t-189 177.5t-69.5 246.5v2q0 136 69.5 245t189 177t273.5 104t329 36q202 0 370.5 -40t291.5 -127t165 -212h-277q-41 69 -133 114t-195.5 62t-221.5 17q-115 0 -219 -22.5t-190 -66t-137.5 -118t-51.5 -169.5v-2q0 -96 51.5 -170.5
t138 -118.5t190.5 -66.5t219 -22.5q186 0 337.5 46t211.5 147h277q-42 -125 -165 -212t-291.5 -127t-371.5 -40zM783 1210l285 234h372l-377 -234h-280z" />
    <glyph glyph-name="Ccircumflex" unicode="&#x108;" horiz-adv-x="2402" 
d="M1256 -29q-335 0 -591.5 87.5t-403 259t-146.5 403.5v2q0 232 146.5 403.5t403 259t591.5 87.5q396 0 685.5 -132t376.5 -349h-298q-76 136 -286.5 207t-475.5 71q-134 0 -257 -18.5t-236 -61t-196 -104.5t-132.5 -155.5t-49.5 -207.5v-2q0 -114 49.5 -207.5
t132.5 -155.5t196 -104.5t236 -61t257 -18.5q265 0 475.5 71t286.5 207h298q-87 -217 -376.5 -349t-685.5 -132zM677 1618l404 264h349l404 -264h-325l-253 162l-254 -162h-325z" />
    <glyph glyph-name="ccircumflex" unicode="&#x109;" horiz-adv-x="1866" 
d="M958 -29q-175 0 -328.5 36t-273 104t-189 177.5t-69.5 246.5v2q0 136 69.5 245t189 177t273.5 104t329 36q202 0 370.5 -40t291.5 -127t165 -212h-277q-41 69 -133 114t-195.5 62t-221.5 17q-115 0 -219 -22.5t-190 -66t-137.5 -118t-51.5 -169.5v-2q0 -96 51.5 -170.5
t138 -118.5t190.5 -66.5t219 -22.5q186 0 337.5 46t211.5 147h277q-42 -125 -165 -212t-291.5 -127t-371.5 -40zM383 1210l404 234h343l404 -234h-322l-253 131l-254 -131h-322z" />
    <glyph glyph-name="Cdotaccent" unicode="&#x10a;" horiz-adv-x="2402" 
d="M1256 -29q-335 0 -591.5 87.5t-403 259t-146.5 403.5v2q0 232 146.5 403.5t403 259t591.5 87.5q396 0 685.5 -132t376.5 -349h-298q-76 136 -286.5 207t-475.5 71q-134 0 -257 -18.5t-236 -61t-196 -104.5t-132.5 -155.5t-49.5 -207.5v-2q0 -114 49.5 -207.5
t132.5 -155.5t196 -104.5t236 -61t257 -18.5q265 0 475.5 71t286.5 207h298q-87 -217 -376.5 -349t-685.5 -132zM1129 1634v248h256v-248h-256z" />
    <glyph glyph-name="cdotaccent" unicode="&#x10b;" horiz-adv-x="1866" 
d="M958 -29q-175 0 -328.5 36t-273 104t-189 177.5t-69.5 246.5v2q0 136 69.5 245t189 177t273.5 104t329 36q202 0 370.5 -40t291.5 -127t165 -212h-277q-41 69 -133 114t-195.5 62t-221.5 17q-115 0 -219 -22.5t-190 -66t-137.5 -118t-51.5 -169.5v-2q0 -96 51.5 -170.5
t138 -118.5t190.5 -66.5t219 -22.5q186 0 337.5 46t211.5 147h277q-42 -125 -165 -212t-291.5 -127t-371.5 -40zM836 1210v234h246v-234h-246z" />
    <glyph glyph-name="Ccaron" unicode="&#x10c;" horiz-adv-x="2402" 
d="M1256 -29q-335 0 -591.5 87.5t-403 259t-146.5 403.5v2q0 232 146.5 403.5t403 259t591.5 87.5q396 0 685.5 -132t376.5 -349h-298q-76 136 -286.5 207t-475.5 71q-134 0 -257 -18.5t-236 -61t-196 -104.5t-132.5 -155.5t-49.5 -207.5v-2q0 -114 49.5 -207.5
t132.5 -155.5t196 -104.5t236 -61t257 -18.5q265 0 475.5 71t286.5 207h298q-87 -217 -376.5 -349t-685.5 -132zM677 1882h325l254 -162l253 162h325l-404 -264h-349z" />
    <glyph glyph-name="ccaron" unicode="&#x10d;" horiz-adv-x="1866" 
d="M958 -29q-175 0 -328.5 36t-273 104t-189 177.5t-69.5 246.5v2q0 136 69.5 245t189 177t273.5 104t329 36q202 0 370.5 -40t291.5 -127t165 -212h-277q-41 69 -133 114t-195.5 62t-221.5 17q-115 0 -219 -22.5t-190 -66t-137.5 -118t-51.5 -169.5v-2q0 -96 51.5 -170.5
t138 -118.5t190.5 -66.5t219 -22.5q186 0 337.5 46t211.5 147h277q-42 -125 -165 -212t-291.5 -127t-371.5 -40zM383 1444h322l254 -131l253 131h322l-404 -234h-343z" />
    <glyph glyph-name="Dcaron" unicode="&#x10e;" horiz-adv-x="2220" 
d="M211 0v1444h800q110 0 212 -8.5t213.5 -30.5t205 -56.5t179.5 -91t146 -130t95.5 -177t35.5 -227.5v-2q0 -124 -35.5 -227.5t-95.5 -177t-146 -130t-179.5 -91t-205 -56.5t-213.5 -30.5t-212 -8.5h-800zM467 217h541q58 0 101.5 1t112.5 6t121.5 14.5t118.5 27.5
t114.5 43t98 63.5t81 87t51 115.5t19.5 146v2q0 79 -19.5 146t-51 115t-81 87t-98 64t-114.5 43t-118.5 27t-121.5 14.5t-112.5 6.5t-101.5 1h-541v-1010zM394 1944h325l254 -162l253 162h325l-404 -264h-349z" />
    <glyph glyph-name="dcaron" unicode="&#x10f;" horiz-adv-x="2006" 
d="M1976 1444h240l-71 -336h-169v336zM914 -28q-233 0 -416 64.5t-291 193.5t-108 304v2q0 174 108 303t291 193.5t416 64.5q247 0 410.5 -54t251.5 -137v538h246v-1444h-246v163q-88 -83 -251.5 -137t-410.5 -54zM976 157q73 0 142.5 7.5t141 24.5t130.5 46.5t106 70t73 99
t26 129.5v2q0 71 -26 129.5t-73 98.5t-106 69.5t-130.5 46.5t-141 24.5t-142.5 7.5q-88 0 -170 -10.5t-164.5 -37.5t-143 -68.5t-98.5 -108t-38 -151.5v-2q0 -85 38 -152t98.5 -108t143 -68.5t164.5 -38t170 -10.5z" />
    <glyph glyph-name="Dcroat" unicode="&#x110;" horiz-adv-x="2275" 
d="M51 625v204h216v615h800q110 0 212 -8.5t213.5 -30.5t205 -56.5t179.5 -91t146 -130t95.5 -177t35.5 -227.5v-2q0 -124 -35.5 -227.5t-95.5 -177t-146 -130t-179.5 -91t-205 -56.5t-213.5 -30.5t-212 -8.5h-800v625h-216zM523 217h541q58 0 101.5 1t112.5 6t121.5 14.5
t118.5 27.5t114.5 43t98 63.5t81 87t51 115.5t19.5 146v2q0 79 -19.5 146t-51 115t-81 87t-98 64t-114.5 43t-118.5 27t-121.5 14.5t-112.5 6.5t-101.5 1h-541v-398h625v-204h-625v-408z" />
    <glyph glyph-name="dcroat" unicode="&#x111;" horiz-adv-x="2006" 
d="M1036 1130v159h540v155h246v-155h196v-159h-196v-1130h-246v163q-88 -83 -251.5 -137t-410.5 -54q-233 0 -416 64.5t-291 193.5t-108 304v2q0 174 108 303t291 193.5t416 64.5q247 0 410.5 -54t251.5 -137v224h-540zM976 157q73 0 142.5 7.5t141 24.5t130.5 46.5t106 70
t73 99t26 129.5v2q0 71 -26 129.5t-73 98.5t-106 69.5t-130.5 46.5t-141 24.5t-142.5 7.5q-88 0 -170 -10.5t-164.5 -37.5t-143 -68.5t-98.5 -108t-38 -151.5v-2q0 -85 38 -152t98.5 -108t143 -68.5t164.5 -38t170 -10.5z" />
    <glyph glyph-name="Emacron" unicode="&#x112;" horiz-adv-x="2099" 
d="M211 0v1444h1736v-217h-1480v-386h1428v-217h-1428v-407h1483v-217h-1739zM569 1674v167h1024v-167h-1024z" />
    <glyph glyph-name="emacron" unicode="&#x113;" horiz-adv-x="1945" 
d="M972 -29q-187 0 -344 35.5t-276 104t-186 177t-67 246.5v2q0 137 68.5 245.5t188 177t276.5 104.5t340 36q139 0 260 -21t231.5 -69.5t191.5 -122t134.5 -184.5t66.5 -251v-1h-1492v-1q19 -77 76 -134.5t141 -91.5t183 -50t213 -16q197 0 352.5 39.5t229.5 125.5h280
q-82 -171 -311 -261t-556 -90zM966 915q-501 0 -598 -280v-1h1196v1q-99 280 -598 280zM517 1239v164h901v-164h-901z" />
    <glyph glyph-name="Ebreve" unicode="&#x114;" horiz-adv-x="2099" 
d="M211 0v1444h1736v-217h-1480v-386h1428v-217h-1428v-407h1483v-217h-1739zM1081 1605q-197 0 -322.5 71.5t-154.5 205.5h241q9 -62 74.5 -93.5t161.5 -31.5q97 0 162 31.5t74 93.5h241q-29 -134 -155 -205.5t-322 -71.5z" />
    <glyph glyph-name="ebreve" unicode="&#x115;" horiz-adv-x="1945" 
d="M972 -29q-187 0 -344 35.5t-276 104t-186 177t-67 246.5v2q0 137 68.5 245.5t188 177t276.5 104.5t340 36q139 0 260 -21t231.5 -69.5t191.5 -122t134.5 -184.5t66.5 -251v-1h-1492v-1q19 -77 76 -134.5t141 -91.5t183 -50t213 -16q197 0 352.5 39.5t229.5 125.5h280
q-82 -171 -311 -261t-556 -90zM966 915q-501 0 -598 -280v-1h1196v1q-99 280 -598 280zM968 1187q-421 0 -477 257h241q5 -31 25 -52.5t53.5 -32.5t71 -15.5t86.5 -4.5q50 0 87.5 4.5t71 15.5t53.5 32.5t24 52.5h241q-56 -257 -477 -257z" />
    <glyph glyph-name="Edotaccent" unicode="&#x116;" horiz-adv-x="2099" 
d="M211 0v1444h1736v-217h-1480v-386h1428v-217h-1428v-407h1483v-217h-1739zM954 1634v248h256v-248h-256z" />
    <glyph glyph-name="edotaccent" unicode="&#x117;" horiz-adv-x="1945" 
d="M972 -29q-187 0 -344 35.5t-276 104t-186 177t-67 246.5v2q0 137 68.5 245.5t188 177t276.5 104.5t340 36q139 0 260 -21t231.5 -69.5t191.5 -122t134.5 -184.5t66.5 -251v-1h-1492v-1q19 -77 76 -134.5t141 -91.5t183 -50t213 -16q197 0 352.5 39.5t229.5 125.5h280
q-82 -171 -311 -261t-556 -90zM966 915q-501 0 -598 -280v-1h1196v1q-99 280 -598 280zM845 1210v234h246v-234h-246z" />
    <glyph glyph-name="Eogonek" unicode="&#x118;" horiz-adv-x="2099" 
d="M211 0v1444h1736v-217h-1480v-386h1428v-217h-1428v-407h1483v-217h-1739zM1705 1h244q-52 -26 -84 -65t-32 -78q0 -78 112 -78q59 0 113 23l58 -151q-96 -49 -232 -49q-124 0 -201 56.5t-77 150.5q0 102 99 191z" />
    <glyph glyph-name="eogonek" unicode="&#x119;" horiz-adv-x="1945" 
d="M972 -29q-187 0 -344 35.5t-276 104t-186 177t-67 246.5v2q0 137 68.5 245.5t188 177t276.5 104.5t340 36q139 0 260 -21t231.5 -69.5t191.5 -122t134.5 -184.5t66.5 -251v-1h-1492v-1q19 -77 76 -134.5t141 -91.5t183 -50t213 -16q197 0 352.5 39.5t229.5 125.5h280
q-82 -171 -311 -261t-556 -90zM966 915q-501 0 -598 -280v-1h1196v1q-99 280 -598 280zM1073 1h244q-52 -26 -84 -65t-32 -78q0 -78 112 -78q59 0 113 23l58 -151q-96 -49 -232 -49q-124 0 -201 56.5t-77 150.5q0 102 99 191z" />
    <glyph glyph-name="Ecaron" unicode="&#x11a;" horiz-adv-x="2099" 
d="M211 0v1444h1736v-217h-1480v-386h1428v-217h-1428v-407h1483v-217h-1739zM502 1882h325l254 -162l253 162h325l-404 -264h-349z" />
    <glyph glyph-name="ecaron" unicode="&#x11b;" horiz-adv-x="1945" 
d="M972 -29q-187 0 -344 35.5t-276 104t-186 177t-67 246.5v2q0 137 68.5 245.5t188 177t276.5 104.5t340 36q139 0 260 -21t231.5 -69.5t191.5 -122t134.5 -184.5t66.5 -251v-1h-1492v-1q19 -77 76 -134.5t141 -91.5t183 -50t213 -16q197 0 352.5 39.5t229.5 125.5h280
q-82 -171 -311 -261t-556 -90zM966 915q-501 0 -598 -280v-1h1196v1q-99 280 -598 280zM392 1444h322l254 -131l253 131h322l-404 -234h-343z" />
    <glyph glyph-name="Gcircumflex" unicode="&#x11c;" horiz-adv-x="2509" 
d="M1251 -29q-199 0 -373.5 32t-314 95.5t-240 153.5t-154.5 209.5t-54 259.5v2q0 175 84.5 317t235.5 236.5t361 145.5t461 51q249 0 468 -55t375.5 -160t211.5 -242h-293q-51 87 -178 146t-273.5 83t-306.5 24q-135 0 -258.5 -18.5t-237 -60.5t-196.5 -104t-132.5 -155.5
t-49.5 -207.5v-2q0 -115 49.5 -208t132.5 -155t196.5 -104t237.5 -60.5t260 -18.5q153 0 294 22.5t260.5 66.5t190.5 120t71 173v15h-669v218h926v-791h-215l-8 240q-97 -112 -333 -190t-529 -78zM667 1618l404 264h349l404 -264h-325l-253 162l-254 -162h-325z" />
    <glyph glyph-name="gcircumflex" unicode="&#x11d;" horiz-adv-x="2005" 
d="M903 43q-227 0 -406 59.5t-286.5 180t-107.5 285.5v2q0 165 107.5 286t286.5 181t406 60q261 0 432.5 -54.5t244.5 -135.5v160h246v-863q0 -128 -46.5 -226.5t-124.5 -161.5t-190 -103.5t-233 -56.5t-264 -16q-166 0 -302 21t-244 64t-178.5 112.5t-97.5 162.5h277
q20 -52 72 -88t129.5 -54t158 -25t181.5 -7q99 0 179 6.5t165 28t142 56.5t93.5 96t36.5 144v74q-73 -80 -244.5 -134t-432.5 -54zM975 226q89 0 172 10t165 34.5t142 62t97.5 98t37.5 137.5v2q0 65 -25.5 118t-71.5 89.5t-104.5 63.5t-129 42t-140 22t-143.5 7
q-90 0 -170.5 -8.5t-163 -32t-141.5 -60.5t-96.5 -99t-37.5 -142v-2q0 -80 37.5 -141.5t96.5 -98.5t141.5 -61t163 -32.5t170.5 -8.5zM389 1210l404 234h343l404 -234h-322l-253 131l-254 -131h-322z" />
    <glyph glyph-name="Gbreve" unicode="&#x11e;" horiz-adv-x="2509" 
d="M1251 -29q-199 0 -373.5 32t-314 95.5t-240 153.5t-154.5 209.5t-54 259.5v2q0 175 84.5 317t235.5 236.5t361 145.5t461 51q249 0 468 -55t375.5 -160t211.5 -242h-293q-51 87 -178 146t-273.5 83t-306.5 24q-135 0 -258.5 -18.5t-237 -60.5t-196.5 -104t-132.5 -155.5
t-49.5 -207.5v-2q0 -115 49.5 -208t132.5 -155t196.5 -104t237.5 -60.5t260 -18.5q153 0 294 22.5t260.5 66.5t190.5 120t71 173v15h-669v218h926v-791h-215l-8 240q-97 -112 -333 -190t-529 -78zM1246 1605q-197 0 -322.5 71.5t-154.5 205.5h241q9 -62 74.5 -93.5
t161.5 -31.5q97 0 162 31.5t74 93.5h241q-29 -134 -155 -205.5t-322 -71.5z" />
    <glyph glyph-name="gbreve" unicode="&#x11f;" horiz-adv-x="2005" 
d="M903 43q-227 0 -406 59.5t-286.5 180t-107.5 285.5v2q0 165 107.5 286t286.5 181t406 60q261 0 432.5 -54.5t244.5 -135.5v160h246v-863q0 -128 -46.5 -226.5t-124.5 -161.5t-190 -103.5t-233 -56.5t-264 -16q-166 0 -302 21t-244 64t-178.5 112.5t-97.5 162.5h277
q20 -52 72 -88t129.5 -54t158 -25t181.5 -7q99 0 179 6.5t165 28t142 56.5t93.5 96t36.5 144v74q-73 -80 -244.5 -134t-432.5 -54zM975 226q89 0 172 10t165 34.5t142 62t97.5 98t37.5 137.5v2q0 65 -25.5 118t-71.5 89.5t-104.5 63.5t-129 42t-140 22t-143.5 7
q-90 0 -170.5 -8.5t-163 -32t-141.5 -60.5t-96.5 -99t-37.5 -142v-2q0 -80 37.5 -141.5t96.5 -98.5t141.5 -61t163 -32.5t170.5 -8.5zM965 1187q-421 0 -477 257h241q5 -31 25 -52.5t53.5 -32.5t71 -15.5t86.5 -4.5q50 0 87.5 4.5t71 15.5t53.5 32.5t24 52.5h241
q-56 -257 -477 -257z" />
    <glyph glyph-name="Gdotaccent" unicode="&#x120;" horiz-adv-x="2509" 
d="M1251 -29q-199 0 -373.5 32t-314 95.5t-240 153.5t-154.5 209.5t-54 259.5v2q0 175 84.5 317t235.5 236.5t361 145.5t461 51q249 0 468 -55t375.5 -160t211.5 -242h-293q-51 87 -178 146t-273.5 83t-306.5 24q-135 0 -258.5 -18.5t-237 -60.5t-196.5 -104t-132.5 -155.5
t-49.5 -207.5v-2q0 -115 49.5 -208t132.5 -155t196.5 -104t237.5 -60.5t260 -18.5q153 0 294 22.5t260.5 66.5t190.5 120t71 173v15h-669v218h926v-791h-215l-8 240q-97 -112 -333 -190t-529 -78zM1119 1634v248h256v-248h-256z" />
    <glyph glyph-name="gdotaccent" unicode="&#x121;" horiz-adv-x="2005" 
d="M903 43q-227 0 -406 59.5t-286.5 180t-107.5 285.5v2q0 165 107.5 286t286.5 181t406 60q261 0 432.5 -54.5t244.5 -135.5v160h246v-863q0 -128 -46.5 -226.5t-124.5 -161.5t-190 -103.5t-233 -56.5t-264 -16q-166 0 -302 21t-244 64t-178.5 112.5t-97.5 162.5h277
q20 -52 72 -88t129.5 -54t158 -25t181.5 -7q99 0 179 6.5t165 28t142 56.5t93.5 96t36.5 144v74q-73 -80 -244.5 -134t-432.5 -54zM975 226q89 0 172 10t165 34.5t142 62t97.5 98t37.5 137.5v2q0 65 -25.5 118t-71.5 89.5t-104.5 63.5t-129 42t-140 22t-143.5 7
q-90 0 -170.5 -8.5t-163 -32t-141.5 -60.5t-96.5 -99t-37.5 -142v-2q0 -80 37.5 -141.5t96.5 -98.5t141.5 -61t163 -32.5t170.5 -8.5zM842 1210v234h246v-234h-246z" />
    <glyph glyph-name="uni0122" unicode="&#x122;" horiz-adv-x="2509" 
d="M1251 -29q-199 0 -373.5 32t-314 95.5t-240 153.5t-154.5 209.5t-54 259.5v2q0 175 84.5 317t235.5 236.5t361 145.5t461 51q249 0 468 -55t375.5 -160t211.5 -242h-293q-51 87 -178 146t-273.5 83t-306.5 24q-135 0 -258.5 -18.5t-237 -60.5t-196.5 -104t-132.5 -155.5
t-49.5 -207.5v-2q0 -115 49.5 -208t132.5 -155t196.5 -104t237.5 -60.5t260 -18.5q153 0 294 22.5t260.5 66.5t190.5 120t71 173v15h-669v218h926v-791h-215l-8 240q-97 -112 -333 -190t-529 -78zM882 -362l237 264h277l-267 -264h-247z" />
    <glyph glyph-name="uni0123" unicode="&#x123;" horiz-adv-x="2005" 
d="M903 43q-227 0 -406 59.5t-286.5 180t-107.5 285.5v2q0 165 107.5 286t286.5 181t406 60q261 0 432.5 -54.5t244.5 -135.5v160h246v-863q0 -128 -46.5 -226.5t-124.5 -161.5t-190 -103.5t-233 -56.5t-264 -16q-166 0 -302 21t-244 64t-178.5 112.5t-97.5 162.5h277
q20 -52 72 -88t129.5 -54t158 -25t181.5 -7q99 0 179 6.5t165 28t142 56.5t93.5 96t36.5 144v74q-73 -80 -244.5 -134t-432.5 -54zM975 226q89 0 172 10t165 34.5t142 62t97.5 98t37.5 137.5v2q0 65 -25.5 118t-71.5 89.5t-104.5 63.5t-129 42t-140 22t-143.5 7
q-90 0 -170.5 -8.5t-163 -32t-141.5 -60.5t-96.5 -99t-37.5 -142v-2q0 -80 37.5 -141.5t96.5 -98.5t141.5 -61t163 -32.5t170.5 -8.5zM799 1241l377 264h280l-326 -264h-331z" />
    <glyph glyph-name="Hcircumflex" unicode="&#x124;" horiz-adv-x="2355" 
d="M211 0v1444h256v-603h1422v603h256v-1444h-256v624h-1422v-624h-256zM599 1618l404 264h349l404 -264h-325l-253 162l-254 -162h-325z" />
    <glyph glyph-name="hcircumflex" unicode="&#x125;" horiz-adv-x="1909" 
d="M185 0v1444h246v-564q70 92 226 154.5t382 62.5q162 0 289.5 -31.5t222.5 -97t145.5 -172t50.5 -249.5v-547h-246v494q0 209 -139.5 311t-395.5 102t-395.5 -102t-139.5 -311v-494h-246zM-268 1587l404 234h343l404 -234h-322l-253 131l-254 -131h-322z" />
    <glyph glyph-name="Hbar" unicode="&#x126;" horiz-adv-x="2355" 
d="M211 0v1444h256v-603h1422v603h256v-1444h-256v624h-1422v-624h-256zM666 1674v167h1024v-167h-1024z" />
    <glyph glyph-name="hbar" unicode="&#x127;" horiz-adv-x="1909" 
d="M185 0v1130h-196v159h196v155h246v-155h540v-159h-540v-250q70 92 226 154.5t382 62.5q162 0 289.5 -31.5t222.5 -97t145.5 -172t50.5 -249.5v-547h-246v494q0 209 -139.5 311t-395.5 102t-395.5 -102t-139.5 -311v-494h-246z" />
    <glyph glyph-name="Itilde" unicode="&#x128;" horiz-adv-x="678" 
d="M211 0v1444h256v-1444h-256zM-210 1618q9 123 81.5 193.5t207.5 70.5q73 0 147 -15.5t123 -34.5t103.5 -34.5t93.5 -15.5q67 0 94.5 23t32.5 77h214q-10 -123 -82.5 -193.5t-207.5 -70.5q-73 0 -147 16t-122.5 34.5t-103 34.5t-93.5 16q-67 0 -95 -23t-34 -78h-212z" />
    <glyph glyph-name="itilde" unicode="&#x129;" 
d="M185 0v1067h246v-1067h-246zM-241 1210q9 123 81.5 194t207.5 71q93 0 184 -25.5t163.5 -50.5t119.5 -25q67 0 94.5 23.5t32.5 77.5h214q-10 -123 -82.5 -194t-207.5 -71q-73 0 -147 16t-122.5 35t-103 35t-93.5 16q-67 0 -95 -23.5t-34 -78.5h-212z" />
    <glyph glyph-name="Imacron" unicode="&#x12a;" horiz-adv-x="678" 
d="M211 0v1444h256v-1444h-256zM-173 1674v167h1024v-167h-1024z" />
    <glyph glyph-name="imacron" unicode="&#x12b;" 
d="M185 0v1067h246v-1067h-246zM-143 1239v164h901v-164h-901z" />
    <glyph glyph-name="Iogonek" unicode="&#x12e;" horiz-adv-x="678" 
d="M211 0v1444h256v-1444h-256zM217 1h244q-52 -26 -84 -65t-32 -78q0 -78 112 -78q59 0 113 23l58 -151q-96 -49 -232 -49q-124 0 -201 56.5t-77 150.5q0 102 99 191z" />
    <glyph glyph-name="iogonek" unicode="&#x12f;" 
d="M185 0v1067h246v-1067h-246zM185 1206v238h246v-238h-246zM186 1h244q-52 -26 -84 -65t-32 -78q0 -78 112 -78q59 0 113 23l58 -151q-96 -49 -232 -49q-124 0 -201 56.5t-77 150.5q0 102 99 191z" />
    <glyph glyph-name="Idotaccent" unicode="&#x130;" horiz-adv-x="678" 
d="M211 0v1444h256v-1444h-256zM212 1634v248h256v-248h-256z" />
    <glyph glyph-name="dotlessi" unicode="&#x131;" 
d="M185 0v1067h246v-1067h-246z" />
    <glyph glyph-name="IJ" unicode="&#x132;" horiz-adv-x="2543" 
d="M211 0v1444h256v-1444h-256zM1563 -29q-165 0 -302.5 36.5t-241.5 108t-167 185t-74 259.5h287q16 -203 145 -294t357 -91q528 0 528 414v855h256v-851q0 -130 -39 -234t-108.5 -176t-168.5 -120t-216.5 -70t-255.5 -22z" />
    <glyph glyph-name="ij" unicode="&#x133;" horiz-adv-x="1325" 
d="M185 0v1067h246v-1067h-246zM185 1206v238h246v-238h-246zM513 -333v191h135q39 0 62 1t51 4.5t44 10.5t33.5 19.5t26.5 31t17 45t11 62t3 81.5v954h246v-967q0 -129 -26.5 -212.5t-88.5 -132.5t-151.5 -68.5t-227.5 -19.5h-135zM896 1206v238h246v-238h-246z" />
    <glyph glyph-name="Jcircumflex" unicode="&#x134;" horiz-adv-x="1802" 
d="M823 -29q-165 0 -302.5 36.5t-241.5 108t-167 185t-74 259.5h287q16 -203 145 -294t357 -91q528 0 528 414v855h256v-851q0 -130 -39 -234t-108.5 -176t-168.5 -120t-216.5 -70t-255.5 -22zM903 1618l404 264h349l404 -264h-325l-253 162l-254 -162h-325z" />
    <glyph glyph-name="jcircumflex" unicode="&#x135;" horiz-adv-x="613" 
d="M-199 -333v191h135q39 0 62.5 1t51.5 4.5t43.5 10.5t33.5 19.5t26.5 31t17 45t11.5 62t3 81.5v954h245v-967q0 -129 -26.5 -212.5t-88.5 -132.5t-151.5 -68.5t-227.5 -19.5h-135zM-268 1210l404 234h343l404 -234h-322l-253 131l-254 -131h-322z" />
    <glyph glyph-name="uni0136" unicode="&#x136;" horiz-adv-x="2175" 
d="M211 0v1444h256v-630l1279 630h420l-1432 -710l1451 -734h-494l-1224 617v-617h-256zM748 -362l237 264h277l-267 -264h-247z" />
    <glyph glyph-name="uni0137" unicode="&#x137;" horiz-adv-x="1764" 
d="M185 0v1444h245v-839l897 462h399l-1006 -515l1086 -552h-460l-915 464v-464h-246zM545 -362l237 264h277l-267 -264h-247z" />
    <glyph glyph-name="kgreenlandic" unicode="&#x138;" horiz-adv-x="1764" 
d="M185 0v1067h246v-473l923 473h372l-1005 -525l1085 -542h-464l-910 460v-460h-247z" />
    <glyph glyph-name="Lacute" unicode="&#x139;" horiz-adv-x="1903" 
d="M211 0v1444h256v-1227h1408v-217h-1664zM127 1618l387 264h373l-473 -264h-287z" />
    <glyph glyph-name="lacute" unicode="&#x13a;" 
d="M185 0v1444h246v-1444h-246zM137 1587l285 234h372l-377 -234h-280z" />
    <glyph glyph-name="uni013B" unicode="&#x13b;" horiz-adv-x="1903" 
d="M211 0v1444h256v-1227h1408v-217h-1664zM675 -362l237 264h277l-267 -264h-247z" />
    <glyph glyph-name="uni013C" unicode="&#x13c;" 
d="M185 0v1444h246v-1444h-246zM-56 -362l237 264h277l-267 -264h-247z" />
    <glyph glyph-name="Lcaron" unicode="&#x13d;" horiz-adv-x="1903" 
d="M211 0v1444h256v-1227h1408v-217h-1664zM1051 1649h240l-71 -336h-169v336z" />
    <glyph glyph-name="lcaron" unicode="&#x13e;" 
d="M579 1444h241l-72 -336h-169v336zM185 0v1444h246v-1444h-246z" />
    <glyph glyph-name="Ldot" unicode="&#x13f;" horiz-adv-x="1905" 
d="M211 0v1444h256v-1227h1408v-217h-1664zM1480 651h-263v260h263v-260z" />
    <glyph glyph-name="ldot" unicode="&#x140;" horiz-adv-x="790" 
d="M185 0v1444h246v-1444h-246zM848 614h-263v260h263v-260z" />
    <glyph glyph-name="Lslash" unicode="&#x141;" horiz-adv-x="1991" 
d="M299 0v584l-197 -89v214l197 89v646h256v-531l622 281v-214l-622 -281v-482h1408v-217h-1664z" />
    <glyph glyph-name="lslash" unicode="&#x142;" horiz-adv-x="977" 
d="M378 0v629l-310 -145v196l310 144v620h246v-505l308 143v-195l-308 -144v-743h-246z" />
    <glyph glyph-name="Nacute" unicode="&#x143;" horiz-adv-x="2361" 
d="M211 0v1444h293l1389 -1158h2v1158h256v-1444h-295l-1387 1157h-2v-1157h-256zM1031 1618l387 264h373l-473 -264h-287z" />
    <glyph glyph-name="nacute" unicode="&#x144;" horiz-adv-x="1909" 
d="M185 0v1067h246v-177q68 90 224 148.5t384 58.5q162 0 289.5 -31.5t222.5 -97t145.5 -172t50.5 -249.5v-547h-246v494q0 209 -139.5 311t-395.5 102t-395.5 -102t-139.5 -311v-494h-246zM790 1210l285 234h372l-377 -234h-280z" />
    <glyph glyph-name="uni0145" unicode="&#x145;" horiz-adv-x="2361" 
d="M211 0v1444h293l1389 -1158h2v1158h256v-1444h-295l-1387 1157h-2v-1157h-256zM833 -362l237 264h277l-267 -264h-247z" />
    <glyph glyph-name="uni0146" unicode="&#x146;" horiz-adv-x="1909" 
d="M185 0v1067h246v-177q68 90 224 148.5t384 58.5q162 0 289.5 -31.5t222.5 -97t145.5 -172t50.5 -249.5v-547h-246v494q0 209 -139.5 311t-395.5 102t-395.5 -102t-139.5 -311v-494h-246zM597 -362l237 264h277l-267 -264h-247z" />
    <glyph glyph-name="Ncaron" unicode="&#x147;" horiz-adv-x="2361" 
d="M211 0v1444h293l1389 -1158h2v1158h256v-1444h-295l-1387 1157h-2v-1157h-256zM664 1882h325l254 -162l253 162h325l-404 -264h-349z" />
    <glyph glyph-name="ncaron" unicode="&#x148;" horiz-adv-x="1909" 
d="M185 0v1067h246v-177q68 90 224 148.5t384 58.5q162 0 289.5 -31.5t222.5 -97t145.5 -172t50.5 -249.5v-547h-246v494q0 209 -139.5 311t-395.5 102t-395.5 -102t-139.5 -311v-494h-246zM390 1444h322l254 -131l253 131h322l-404 -234h-343z" />
    <glyph glyph-name="napostrophe" unicode="&#x149;" horiz-adv-x="1909" 
d="M185 0v1067h246v-177q68 90 224 148.5t384 58.5q162 0 289.5 -31.5t222.5 -97t145.5 -172t50.5 -249.5v-547h-246v494q0 209 -139.5 311t-395.5 102t-395.5 -102t-139.5 -311v-494h-246zM420 1444l-104 -306h-238l127 306h215z" />
    <glyph glyph-name="Omacron" unicode="&#x14c;" horiz-adv-x="2531" 
d="M1257 -29q-247 0 -453 48t-357.5 140.5t-236 236t-84.5 325.5v2q0 182 84.5 325.5t236 236t357.5 140.5t453 48t452.5 -48t357 -140.5t236 -236t84.5 -325.5v-2q0 -182 -84.5 -325.5t-236 -236t-357 -140.5t-452.5 -48zM1257 174q140 0 266 20t235 63.5t188 106.5
t124 154.5t45 202.5v2q0 111 -45 202.5t-124 154.5t-188 106.5t-235 63.5t-266 20q-177 0 -329 -33t-272 -97.5t-189 -171.5t-69 -245v-2q0 -138 69 -245t189 -171.5t272 -97.5t329 -33zM754 1674v167h1024v-167h-1024z" />
    <glyph glyph-name="omacron" unicode="&#x14d;" horiz-adv-x="2002" 
d="M1002 -29q-420 0 -662 150t-242 414v2q0 174 109.5 301t313 194t481.5 67q419 0 661 -150t242 -412v-2q0 -264 -242 -414t-661 -150zM1002 157q180 0 322 40.5t230 127.5t88 210v2q0 123 -88 209.5t-230 126.5t-322 40q-181 0 -323 -40t-230 -126.5t-88 -209.5v-2
q0 -123 88 -210t230 -127.5t323 -40.5zM551 1239v164h901v-164h-901z" />
    <glyph glyph-name="Obreve" unicode="&#x14e;" horiz-adv-x="2531" 
d="M1257 -29q-247 0 -453 48t-357.5 140.5t-236 236t-84.5 325.5v2q0 182 84.5 325.5t236 236t357.5 140.5t453 48t452.5 -48t357 -140.5t236 -236t84.5 -325.5v-2q0 -182 -84.5 -325.5t-236 -236t-357 -140.5t-452.5 -48zM1257 174q140 0 266 20t235 63.5t188 106.5
t124 154.5t45 202.5v2q0 111 -45 202.5t-124 154.5t-188 106.5t-235 63.5t-266 20q-177 0 -329 -33t-272 -97.5t-189 -171.5t-69 -245v-2q0 -138 69 -245t189 -171.5t272 -97.5t329 -33zM1266 1605q-197 0 -322.5 71.5t-154.5 205.5h241q9 -62 74.5 -93.5t161.5 -31.5
q97 0 162 31.5t74 93.5h241q-29 -134 -155 -205.5t-322 -71.5z" />
    <glyph glyph-name="obreve" unicode="&#x14f;" horiz-adv-x="2002" 
d="M1002 -29q-420 0 -662 150t-242 414v2q0 174 109.5 301t313 194t481.5 67q419 0 661 -150t242 -412v-2q0 -264 -242 -414t-661 -150zM1002 157q180 0 322 40.5t230 127.5t88 210v2q0 123 -88 209.5t-230 126.5t-322 40q-181 0 -323 -40t-230 -126.5t-88 -209.5v-2
q0 -123 88 -210t230 -127.5t323 -40.5zM1002 1187q-421 0 -477 257h241q5 -31 25 -52.5t53.5 -32.5t71 -15.5t86.5 -4.5q50 0 87.5 4.5t71 15.5t53.5 32.5t24 52.5h241q-56 -257 -477 -257z" />
    <glyph glyph-name="Ohungarumlaut" unicode="&#x150;" horiz-adv-x="2531" 
d="M1257 -29q-247 0 -453 48t-357.5 140.5t-236 236t-84.5 325.5v2q0 182 84.5 325.5t236 236t357.5 140.5t453 48t452.5 -48t357 -140.5t236 -236t84.5 -325.5v-2q0 -182 -84.5 -325.5t-236 -236t-357 -140.5t-452.5 -48zM1257 174q140 0 266 20t235 63.5t188 106.5
t124 154.5t45 202.5v2q0 111 -45 202.5t-124 154.5t-188 106.5t-235 63.5t-266 20q-177 0 -329 -33t-272 -97.5t-189 -171.5t-69 -245v-2q0 -138 69 -245t189 -171.5t272 -97.5t329 -33zM801 1618l387 264h373l-473 -264h-287zM1416 1618l387 264h372l-473 -264h-286z" />
    <glyph glyph-name="ohungarumlaut" unicode="&#x151;" horiz-adv-x="2002" 
d="M1002 -29q-420 0 -662 150t-242 414v2q0 174 109.5 301t313 194t481.5 67q419 0 661 -150t242 -412v-2q0 -264 -242 -414t-661 -150zM1002 157q180 0 322 40.5t230 127.5t88 210v2q0 123 -88 209.5t-230 126.5t-322 40q-181 0 -323 -40t-230 -126.5t-88 -209.5v-2
q0 -123 88 -210t230 -127.5t323 -40.5zM540 1210l285 234h372l-377 -234h-280zM1144 1210l285 234h372l-377 -234h-280z" />
    <glyph glyph-name="OE" unicode="&#x152;" horiz-adv-x="4023" 
d="M1257 -29q-247 0 -453 48t-357.5 140.5t-236 236t-84.5 325.5v2q0 182 84.5 325.5t236 236t357.5 140.5t453 48q276 0 502 -60t376 -177v208h1736v-217h-1480v-386h1428v-217h-1428v-407h1483v-217h-1739v208q-150 -117 -376 -177t-502 -60zM1257 174q140 0 266 20
t235 63.5t188 106.5t124 154.5t45 202.5v2q0 111 -45 202.5t-124 154.5t-188 106.5t-235 63.5t-266 20t-266 -20t-235 -63.5t-188 -106.5t-124 -154.5t-45 -202.5v-2q0 -111 45 -202.5t124 -154.5t188 -106.5t235 -63.5t266 -20z" />
    <glyph glyph-name="oe" unicode="&#x153;" horiz-adv-x="3495" 
d="M1002 -29q-420 0 -662 150t-242 414v2q0 174 109.5 301t313 194t481.5 67q265 0 463 -62t310 -177q113 117 308 178t435 61q139 0 260 -21t231.5 -69.5t191.5 -122t134.5 -184.5t66.5 -251v-1h-1492v-1q19 -77 76 -134.5t141 -91.5t183 -50t213 -16q197 0 352.5 39.5
t229.5 125.5h280q-82 -171 -311 -261t-556 -90q-245 0 -439 60t-306 177q-112 -115 -309.5 -176t-461.5 -61zM1002 157q180 0 322 40.5t230 127.5t88 210v2q0 123 -88 209.5t-230 126.5t-322 40q-181 0 -323 -40t-230 -126.5t-88 -209.5v-2q0 -123 88 -210t230 -127.5
t323 -40.5zM2512 915q-501 0 -598 -280v-1h1196v1q-99 280 -598 280z" />
    <glyph glyph-name="Racute" unicode="&#x154;" horiz-adv-x="2286" 
d="M211 0v1444h1314q264 0 410 -92.5t146 -285.5v-2q0 -141 -69.5 -226t-207.5 -124q57 -12 95 -30t68.5 -53.5t48 -92t25.5 -140.5l13 -122q4 -37 7 -68.5t6.5 -55.5t6 -42.5t6 -34t5 -24.5t4.5 -18.5t4.5 -13t4.5 -11t3 -8.5h-269q-20 50 -28 137l-23 209q-16 154 -79 204
t-229 50h-1006v-600h-256zM467 817h1010q177 0 255 45t78 159v2q0 114 -78 159t-255 45h-1010v-410zM815 1618l387 264h373l-473 -264h-287z" />
    <glyph glyph-name="racute" unicode="&#x155;" horiz-adv-x="1111" 
d="M185 0v1067h242v-232q55 105 211.5 177.5t345.5 72.5h95v-216h-124q-241 0 -382.5 -87t-141.5 -253v-529h-246zM456 1210l285 234h372l-377 -234h-280z" />
    <glyph glyph-name="uni0156" unicode="&#x156;" horiz-adv-x="2286" 
d="M211 0v1444h1314q264 0 410 -92.5t146 -285.5v-2q0 -141 -69.5 -226t-207.5 -124q57 -12 95 -30t68.5 -53.5t48 -92t25.5 -140.5l13 -122q4 -37 7 -68.5t6.5 -55.5t6 -42.5t6 -34t5 -24.5t4.5 -18.5t4.5 -13t4.5 -11t3 -8.5h-269q-20 50 -28 137l-23 209q-16 154 -79 204
t-229 50h-1006v-600h-256zM467 817h1010q177 0 255 45t78 159v2q0 114 -78 159t-255 45h-1010v-410zM739 -362l237 264h277l-267 -264h-247z" />
    <glyph glyph-name="uni0157" unicode="&#x157;" horiz-adv-x="1111" 
d="M185 0v1067h242v-232q55 105 211.5 177.5t345.5 72.5h95v-216h-124q-241 0 -382.5 -87t-141.5 -253v-529h-246zM-61 -362l237 264h277l-267 -264h-247z" />
    <glyph glyph-name="Rcaron" unicode="&#x158;" horiz-adv-x="2286" 
d="M211 0v1444h1314q264 0 410 -92.5t146 -285.5v-2q0 -141 -69.5 -226t-207.5 -124q57 -12 95 -30t68.5 -53.5t48 -92t25.5 -140.5l13 -122q4 -37 7 -68.5t6.5 -55.5t6 -42.5t6 -34t5 -24.5t4.5 -18.5t4.5 -13t4.5 -11t3 -8.5h-269q-20 50 -28 137l-23 209q-16 154 -79 204
t-229 50h-1006v-600h-256zM467 817h1010q177 0 255 45t78 159v2q0 114 -78 159t-255 45h-1010v-410zM448 1882h325l254 -162l253 162h325l-404 -264h-349z" />
    <glyph glyph-name="rcaron" unicode="&#x159;" horiz-adv-x="1111" 
d="M185 0v1067h242v-232q55 105 211.5 177.5t345.5 72.5h95v-216h-124q-241 0 -382.5 -87t-141.5 -253v-529h-246zM56 1444h322l254 -131l253 131h322l-404 -234h-343z" />
    <glyph glyph-name="Sacute" unicode="&#x15a;" horiz-adv-x="2282" 
d="M1169 -29q-207 0 -383.5 28.5t-321 86.5t-239.5 153.5t-125 221.5h293q81 -286 791 -286q101 0 185 3.5t170.5 12.5t152 26t118 41t80 61t27.5 84v3q0 43 -16.5 74.5t-55.5 55t-90 39t-133.5 26.5t-171 17t-217.5 11l-294 11q-210 8 -361.5 40t-243.5 86.5t-135 126.5
t-43 166v1q0 104 78 185t213.5 130t305.5 73.5t367 24.5q270 0 484 -50t354.5 -151t178.5 -244h-294q-20 53 -70 94.5t-119 68.5t-160 45t-186.5 25.5t-203.5 7.5q-681 0 -681 -206v-2q0 -49 28.5 -83.5t97 -61t188 -42t297.5 -21.5l291 -10q144 -5 256 -16.5t212 -32
t170.5 -52t122 -76t76.5 -105.5t25 -138v-3q0 -122 -72.5 -210.5t-210.5 -140t-318.5 -75t-416.5 -23.5zM888 1618l387 264h373l-473 -264h-287z" />
    <glyph glyph-name="sacute" unicode="&#x15b;" horiz-adv-x="1882" 
d="M964 -29q-178 0 -326 21.5t-265.5 65t-193 114t-98.5 163.5h278q17 -47 60.5 -80.5t99.5 -53.5t136.5 -31.5t156.5 -15t175 -3.5q282 0 414.5 35t132.5 118v2q0 71 -92.5 97.5t-334.5 31.5l-349 8q-337 7 -491.5 86t-154.5 232v2q0 104 103 181t281.5 116t410.5 39
q345 0 572.5 -85.5t274.5 -248.5h-278q-25 47 -82 79.5t-139.5 48t-164 21.5t-184.5 6q-529 0 -529 -148v-2q0 -64 85.5 -93t296.5 -33l365 -8q137 -3 238 -13t187 -32t139.5 -56.5t83 -86.5t29.5 -123v-2q0 -172 -212.5 -262t-624.5 -90zM736 1210l285 234h372l-377 -234
h-280z" />
    <glyph glyph-name="Scircumflex" unicode="&#x15c;" horiz-adv-x="2282" 
d="M1169 -29q-207 0 -383.5 28.5t-321 86.5t-239.5 153.5t-125 221.5h293q81 -286 791 -286q101 0 185 3.5t170.5 12.5t152 26t118 41t80 61t27.5 84v3q0 43 -16.5 74.5t-55.5 55t-90 39t-133.5 26.5t-171 17t-217.5 11l-294 11q-210 8 -361.5 40t-243.5 86.5t-135 126.5
t-43 166v1q0 104 78 185t213.5 130t305.5 73.5t367 24.5q270 0 484 -50t354.5 -151t178.5 -244h-294q-20 53 -70 94.5t-119 68.5t-160 45t-186.5 25.5t-203.5 7.5q-681 0 -681 -206v-2q0 -49 28.5 -83.5t97 -61t188 -42t297.5 -21.5l291 -10q144 -5 256 -16.5t212 -32
t170.5 -52t122 -76t76.5 -105.5t25 -138v-3q0 -122 -72.5 -210.5t-210.5 -140t-318.5 -75t-416.5 -23.5zM521 1618l404 264h349l404 -264h-325l-253 162l-254 -162h-325z" />
    <glyph glyph-name="scircumflex" unicode="&#x15d;" horiz-adv-x="1882" 
d="M964 -29q-178 0 -326 21.5t-265.5 65t-193 114t-98.5 163.5h278q17 -47 60.5 -80.5t99.5 -53.5t136.5 -31.5t156.5 -15t175 -3.5q282 0 414.5 35t132.5 118v2q0 71 -92.5 97.5t-334.5 31.5l-349 8q-337 7 -491.5 86t-154.5 232v2q0 104 103 181t281.5 116t410.5 39
q345 0 572.5 -85.5t274.5 -248.5h-278q-25 47 -82 79.5t-139.5 48t-164 21.5t-184.5 6q-529 0 -529 -148v-2q0 -64 85.5 -93t296.5 -33l365 -8q137 -3 238 -13t187 -32t139.5 -56.5t83 -86.5t29.5 -123v-2q0 -172 -212.5 -262t-624.5 -90zM336 1210l404 234h343l404 -234
h-322l-253 131l-254 -131h-322z" />
    <glyph glyph-name="Scedilla" unicode="&#x15e;" horiz-adv-x="2282" 
d="M1169 -29q-207 0 -383.5 28.5t-321 86.5t-239.5 153.5t-125 221.5h293q81 -286 791 -286q101 0 185 3.5t170.5 12.5t152 26t118 41t80 61t27.5 84v3q0 43 -16.5 74.5t-55.5 55t-90 39t-133.5 26.5t-171 17t-217.5 11l-294 11q-210 8 -361.5 40t-243.5 86.5t-135 126.5
t-43 166v1q0 104 78 185t213.5 130t305.5 73.5t367 24.5q270 0 484 -50t354.5 -151t178.5 -244h-294q-20 53 -70 94.5t-119 68.5t-160 45t-186.5 25.5t-203.5 7.5q-681 0 -681 -206v-2q0 -49 28.5 -83.5t97 -61t188 -42t297.5 -21.5l291 -10q144 -5 256 -16.5t212 -32
t170.5 -52t122 -76t76.5 -105.5t25 -138v-3q0 -122 -72.5 -210.5t-210.5 -140t-318.5 -75t-416.5 -23.5zM1120 -418q-149 0 -314 49l41 99q116 -45 258 -45q161 0 161 57q0 52 -136 52q-79 0 -137 -23l-92 64l230 206h172l-181 -161q53 15 122 15t125.5 -11t99.5 -44t43 -85
q0 -79 -110.5 -126t-281.5 -47z" />
    <glyph glyph-name="scedilla" unicode="&#x15f;" horiz-adv-x="1882" 
d="M964 -29q-178 0 -326 21.5t-265.5 65t-193 114t-98.5 163.5h278q17 -47 60.5 -80.5t99.5 -53.5t136.5 -31.5t156.5 -15t175 -3.5q282 0 414.5 35t132.5 118v2q0 71 -92.5 97.5t-334.5 31.5l-349 8q-337 7 -491.5 86t-154.5 232v2q0 104 103 181t281.5 116t410.5 39
q345 0 572.5 -85.5t274.5 -248.5h-278q-25 47 -82 79.5t-139.5 48t-164 21.5t-184.5 6q-529 0 -529 -148v-2q0 -64 85.5 -93t296.5 -33l365 -8q137 -3 238 -13t187 -32t139.5 -56.5t83 -86.5t29.5 -123v-2q0 -172 -212.5 -262t-624.5 -90zM902 -418q-149 0 -314 49l41 99
q116 -45 258 -45q161 0 161 57q0 52 -136 52q-79 0 -137 -23l-92 64l230 206h172l-181 -161q53 15 122 15t125.5 -11t99.5 -44t43 -85q0 -79 -110.5 -126t-281.5 -47z" />
    <glyph glyph-name="Scaron" unicode="&#x160;" horiz-adv-x="2282" 
d="M1169 -29q-207 0 -383.5 28.5t-321 86.5t-239.5 153.5t-125 221.5h293q81 -286 791 -286q101 0 185 3.5t170.5 12.5t152 26t118 41t80 61t27.5 84v3q0 43 -16.5 74.5t-55.5 55t-90 39t-133.5 26.5t-171 17t-217.5 11l-294 11q-210 8 -361.5 40t-243.5 86.5t-135 126.5
t-43 166v1q0 104 78 185t213.5 130t305.5 73.5t367 24.5q270 0 484 -50t354.5 -151t178.5 -244h-294q-20 53 -70 94.5t-119 68.5t-160 45t-186.5 25.5t-203.5 7.5q-681 0 -681 -206v-2q0 -49 28.5 -83.5t97 -61t188 -42t297.5 -21.5l291 -10q144 -5 256 -16.5t212 -32
t170.5 -52t122 -76t76.5 -105.5t25 -138v-3q0 -122 -72.5 -210.5t-210.5 -140t-318.5 -75t-416.5 -23.5zM521 1882h325l254 -162l253 162h325l-404 -264h-349z" />
    <glyph glyph-name="scaron" unicode="&#x161;" horiz-adv-x="1882" 
d="M964 -29q-178 0 -326 21.5t-265.5 65t-193 114t-98.5 163.5h278q17 -47 60.5 -80.5t99.5 -53.5t136.5 -31.5t156.5 -15t175 -3.5q282 0 414.5 35t132.5 118v2q0 71 -92.5 97.5t-334.5 31.5l-349 8q-337 7 -491.5 86t-154.5 232v2q0 104 103 181t281.5 116t410.5 39
q345 0 572.5 -85.5t274.5 -248.5h-278q-25 47 -82 79.5t-139.5 48t-164 21.5t-184.5 6q-529 0 -529 -148v-2q0 -64 85.5 -93t296.5 -33l365 -8q137 -3 238 -13t187 -32t139.5 -56.5t83 -86.5t29.5 -123v-2q0 -172 -212.5 -262t-624.5 -90zM336 1444h322l254 -131l253 131
h322l-404 -234h-343z" />
    <glyph glyph-name="uni0162" unicode="&#x162;" horiz-adv-x="2095" 
d="M920 0v1227h-892v217h2040v-217h-892v-1227h-256zM998 -418q-149 0 -314 49l41 99q116 -45 258 -45q161 0 161 57q0 52 -136 52q-79 0 -137 -23l-92 64l230 206h172l-181 -161q53 15 122 15t125.5 -11t99.5 -44t43 -85q0 -79 -110.5 -126t-281.5 -47z" />
    <glyph glyph-name="uni0163" unicode="&#x163;" horiz-adv-x="1285" 
d="M884 0q-95 0 -161 6.5t-122.5 23.5t-91 46t-58.5 75t-34 108t-10 149v469h-384v190h384v377h246v-377h531v-190h-531v-446q0 -55 4 -90.5t16 -64t30.5 -44t52.5 -26t75.5 -13.5t105.5 -3h234v-190h-287zM717 -418q-149 0 -314 49l41 99q116 -45 258 -45q161 0 161 57
q0 52 -136 52q-79 0 -137 -23l-92 64l230 206h172l-181 -161q53 15 122 15t125.5 -11t99.5 -44t43 -85q0 -79 -110.5 -126t-281.5 -47z" />
    <glyph glyph-name="Tcaron" unicode="&#x164;" horiz-adv-x="2095" 
d="M920 0v1227h-892v217h2040v-217h-892v-1227h-256zM469 1882h325l254 -162l253 162h325l-404 -264h-349z" />
    <glyph glyph-name="tcaron" unicode="&#x165;" horiz-adv-x="1285" 
d="M884 0q-95 0 -161 6.5t-122.5 23.5t-91 46t-58.5 75t-34 108t-10 149v469h-384v190h384v377h246v-377h531v-190h-531v-446q0 -55 4 -90.5t16 -64t30.5 -44t52.5 -26t75.5 -13.5t105.5 -3h234v-190h-287zM785 1634h240l-71 -336h-169v336z" />
    <glyph glyph-name="Tbar" unicode="&#x166;" horiz-adv-x="2095" 
d="M920 0v675h-701v196h701v356h-892v217h2040v-217h-892v-356h701v-196h-701v-675h-256z" />
    <glyph glyph-name="tbar" unicode="&#x167;" horiz-adv-x="1285" 
d="M884 0q-95 0 -161 6.5t-122.5 23.5t-91 46t-58.5 75t-34 108t-10 149v87h-384v190h384v192h-384v190h384v377h246v-377h531v-190h-531v-192h531v-190h-531v-64q0 -55 4 -90.5t16 -64t30.5 -44t52.5 -26t75.5 -13.5t105.5 -3h234v-190h-287z" />
    <glyph glyph-name="Utilde" unicode="&#x168;" horiz-adv-x="2301" 
d="M1151 -29q-465 0 -715 180t-250 527v766h256v-757q0 -243 182 -377.5t527 -134.5t527 134.5t182 377.5v757h256v-766q0 -347 -250 -527t-715 -180zM602 1618q9 123 81.5 193.5t207.5 70.5q73 0 147 -15.5t123 -34.5t103.5 -34.5t93.5 -15.5q67 0 94.5 23t32.5 77h214
q-10 -123 -82.5 -193.5t-207.5 -70.5q-73 0 -147 16t-122.5 34.5t-103 34.5t-93.5 16q-67 0 -95 -23t-34 -78h-212z" />
    <glyph glyph-name="utilde" unicode="&#x169;" horiz-adv-x="1910" 
d="M872 -28q-162 0 -289.5 31.5t-222.5 97t-146 172t-51 249.5v545h246v-492q0 -413 536 -413q257 0 396 100.5t139 312.5v492h246v-1067h-246v189q-70 -92 -226 -154.5t-382 -62.5zM397 1210q9 123 81.5 194t207.5 71q93 0 184 -25.5t163.5 -50.5t119.5 -25q67 0 94.5 23.5
t32.5 77.5h214q-10 -123 -82.5 -194t-207.5 -71q-73 0 -147 16t-122.5 35t-103 35t-93.5 16q-67 0 -95 -23.5t-34 -78.5h-212z" />
    <glyph glyph-name="Umacron" unicode="&#x16a;" horiz-adv-x="2301" 
d="M1151 -29q-465 0 -715 180t-250 527v766h256v-757q0 -243 182 -377.5t527 -134.5t527 134.5t182 377.5v757h256v-766q0 -347 -250 -527t-715 -180zM639 1674v167h1024v-167h-1024z" />
    <glyph glyph-name="umacron" unicode="&#x16b;" horiz-adv-x="1910" 
d="M872 -28q-162 0 -289.5 31.5t-222.5 97t-146 172t-51 249.5v545h246v-492q0 -413 536 -413q257 0 396 100.5t139 312.5v492h246v-1067h-246v189q-70 -92 -226 -154.5t-382 -62.5zM495 1239v164h901v-164h-901z" />
    <glyph glyph-name="Ubreve" unicode="&#x16c;" horiz-adv-x="2301" 
d="M1151 -29q-465 0 -715 180t-250 527v766h256v-757q0 -243 182 -377.5t527 -134.5t527 134.5t182 377.5v757h256v-766q0 -347 -250 -527t-715 -180zM1151 1605q-197 0 -322.5 71.5t-154.5 205.5h241q9 -62 74.5 -93.5t161.5 -31.5q97 0 162 31.5t74 93.5h241
q-29 -134 -155 -205.5t-322 -71.5z" />
    <glyph glyph-name="ubreve" unicode="&#x16d;" horiz-adv-x="1910" 
d="M872 -28q-162 0 -289.5 31.5t-222.5 97t-146 172t-51 249.5v545h246v-492q0 -413 536 -413q257 0 396 100.5t139 312.5v492h246v-1067h-246v189q-70 -92 -226 -154.5t-382 -62.5zM946 1187q-421 0 -477 257h241q5 -31 25 -52.5t53.5 -32.5t71 -15.5t86.5 -4.5
q50 0 87.5 4.5t71 15.5t53.5 32.5t24 52.5h241q-56 -257 -477 -257z" />
    <glyph glyph-name="Uring" unicode="&#x16e;" horiz-adv-x="2301" 
d="M1151 -29q-465 0 -715 180t-250 527v766h256v-757q0 -243 182 -377.5t527 -134.5t527 134.5t182 377.5v757h256v-766q0 -347 -250 -527t-715 -180zM1152 1521q-101 0 -172.5 67t-71.5 168t71.5 168.5t172.5 67.5t172.5 -67.5t71.5 -168.5t-71.5 -168t-172.5 -67z
M1152 1637q52 0 84 33t32 86t-32 86t-84 33t-84 -33t-32 -86t32 -86t84 -33z" />
    <glyph glyph-name="uring" unicode="&#x16f;" horiz-adv-x="1910" 
d="M872 -28q-162 0 -289.5 31.5t-222.5 97t-146 172t-51 249.5v545h246v-492q0 -413 536 -413q257 0 396 100.5t139 312.5v492h246v-1067h-246v189q-70 -92 -226 -154.5t-382 -62.5zM947 1191q-101 0 -172.5 67t-71.5 168q0 102 71.5 169t172.5 67t172.5 -67t71.5 -169
q0 -101 -71.5 -168t-172.5 -67zM947 1308q52 0 84 32.5t32 85.5t-32 86t-84 33t-84 -33t-32 -86t32 -85.5t84 -32.5z" />
    <glyph glyph-name="Uhungarumlaut" unicode="&#x170;" horiz-adv-x="2301" 
d="M1151 -29q-465 0 -715 180t-250 527v766h256v-757q0 -243 182 -377.5t527 -134.5t527 134.5t182 377.5v757h256v-766q0 -347 -250 -527t-715 -180zM686 1618l387 264h373l-473 -264h-287zM1301 1618l387 264h372l-473 -264h-286z" />
    <glyph glyph-name="uhungarumlaut" unicode="&#x171;" horiz-adv-x="1910" 
d="M872 -28q-162 0 -289.5 31.5t-222.5 97t-146 172t-51 249.5v545h246v-492q0 -413 536 -413q257 0 396 100.5t139 312.5v492h246v-1067h-246v189q-70 -92 -226 -154.5t-382 -62.5zM484 1210l285 234h372l-377 -234h-280zM1088 1210l285 234h372l-377 -234h-280z" />
    <glyph glyph-name="Uogonek" unicode="&#x172;" horiz-adv-x="2301" 
d="M1151 -29q-465 0 -715 180t-250 527v766h256v-757q0 -243 182 -377.5t527 -134.5t527 134.5t182 377.5v757h256v-766q0 -347 -250 -527t-715 -180zM1029 1h244q-52 -26 -84 -65t-32 -78q0 -78 112 -78q59 0 113 23l58 -151q-96 -49 -232 -49q-124 0 -201 56.5t-77 150.5
q0 102 99 191z" />
    <glyph glyph-name="uogonek" unicode="&#x173;" horiz-adv-x="1910" 
d="M872 -28q-162 0 -289.5 31.5t-222.5 97t-146 172t-51 249.5v545h246v-492q0 -413 536 -413q257 0 396 100.5t139 312.5v492h246v-1067h-246v189q-70 -92 -226 -154.5t-382 -62.5zM1481 1h244q-52 -26 -84 -65t-32 -78q0 -78 112 -78q59 0 113 23l58 -151
q-96 -49 -232 -49q-124 0 -201 56.5t-77 150.5q0 102 99 191z" />
    <glyph glyph-name="Wcircumflex" unicode="&#x174;" horiz-adv-x="3370" 
d="M736 0l-715 1444h275l612 -1227h1l622 1227h315l630 -1225h1l612 1225h261l-716 -1444h-332l-620 1215h-1l-615 -1215h-330zM1107 1618l404 264h349l404 -264h-325l-253 162l-254 -162h-325z" />
    <glyph glyph-name="wcircumflex" unicode="&#x175;" horiz-adv-x="2873" 
d="M635 0l-613 1067h282l493 -859h1l520 859h276l523 -849h1l487 849h248l-614 -1067h-274l-526 865h-1l-527 -865h-276zM862 1210l404 234h343l404 -234h-322l-253 131l-254 -131h-322z" />
    <glyph glyph-name="Ycircumflex" unicode="&#x176;" horiz-adv-x="2223" 
d="M986 0v536l-971 908h335l644 -603l116 -114h3l117 114l640 603h334l-962 -906v-538h-256zM531 1618l404 264h349l404 -264h-325l-253 162l-254 -162h-325z" />
    <glyph glyph-name="ycircumflex" unicode="&#x177;" horiz-adv-x="1849" 
d="M236 -333v191h217q106 0 152.5 8t81 33t81.5 89l16 20l-778 1059h301l625 -864l647 864h271l-843 -1121q-71 -95 -126 -148.5t-121 -83.5t-131.5 -38.5t-175.5 -8.5h-217zM351 1210l404 234h343l404 -234h-322l-253 131l-254 -131h-322z" />
    <glyph glyph-name="Ydieresis" unicode="&#x178;" horiz-adv-x="2223" 
d="M986 0v536l-971 908h335l644 -603l116 -114h3l117 114l640 603h334l-962 -906v-538h-256zM558 1634v248h256v-248h-256zM1411 1634v248h256v-248h-256z" />
    <glyph glyph-name="Zacute" unicode="&#x179;" horiz-adv-x="1979" 
d="M92 0v217l1398 1010h-1342v217h1699v-217l-1395 -1010h1425v-217h-1785zM814 1618l387 264h373l-473 -264h-287z" />
    <glyph glyph-name="zacute" unicode="&#x17a;" horiz-adv-x="1763" 
d="M99 0v188l1133 689h-1110v190h1513v-188l-1147 -689h1183v-190h-1572zM742 1210l285 234h372l-377 -234h-280z" />
    <glyph glyph-name="Zdotaccent" unicode="&#x17b;" horiz-adv-x="1979" 
d="M92 0v217l1398 1010h-1342v217h1699v-217l-1395 -1010h1425v-217h-1785zM899 1634v248h256v-248h-256z" />
    <glyph glyph-name="zdotaccent" unicode="&#x17c;" horiz-adv-x="1763" 
d="M99 0v188l1133 689h-1110v190h1513v-188l-1147 -689h1183v-190h-1572zM795 1210v234h246v-234h-246z" />
    <glyph glyph-name="Zcaron" unicode="&#x17d;" horiz-adv-x="1979" 
d="M92 0v217l1398 1010h-1342v217h1699v-217l-1395 -1010h1425v-217h-1785zM447 1882h325l254 -162l253 162h325l-404 -264h-349z" />
    <glyph glyph-name="zcaron" unicode="&#x17e;" horiz-adv-x="1763" 
d="M99 0v188l1133 689h-1110v190h1513v-188l-1147 -689h1183v-190h-1572zM342 1444h322l254 -131l253 131h322l-404 -234h-343z" />
    <glyph glyph-name="uni01C5" unicode="&#x1c5;" horiz-adv-x="3941" 
d="M211 0v1444h800q110 0 212 -8.5t213.5 -30.5t205 -56.5t179.5 -91t146 -130t95.5 -177t35.5 -227.5v-2q0 -124 -35.5 -227.5t-95.5 -177t-146 -130t-179.5 -91t-205 -56.5t-213.5 -30.5t-212 -8.5h-800zM467 217h541q58 0 101.5 1t112.5 6t121.5 14.5t118.5 27.5
t114.5 43t98 63.5t81 87t51 115.5t19.5 146v2q0 79 -19.5 146t-51 115t-81 87t-98 64t-114.5 43t-118.5 27t-121.5 14.5t-112.5 6.5t-101.5 1h-541v-1010zM2277 0v188l1133 689h-1110v190h1513v-188l-1147 -689h1183v-190h-1572zM2520 1444h322l254 -131l253 131h322
l-404 -234h-343z" />
    <glyph glyph-name="uni01C6" unicode="&#x1c6;" horiz-adv-x="3769" 
d="M914 -28q-233 0 -416 64.5t-291 193.5t-108 304v2q0 174 108 303t291 193.5t416 64.5q247 0 410.5 -54t251.5 -137v538h246v-1444h-246v163q-88 -83 -251.5 -137t-410.5 -54zM976 157q73 0 142.5 7.5t141 24.5t130.5 46.5t106 70t73 99t26 129.5v2q0 71 -26 129.5
t-73 98.5t-106 69.5t-130.5 46.5t-141 24.5t-142.5 7.5q-88 0 -170 -10.5t-164.5 -37.5t-143 -68.5t-98.5 -108t-38 -151.5v-2q0 -85 38 -152t98.5 -108t143 -68.5t164.5 -38t170 -10.5zM2105 0v188l1133 689h-1110v190h1513v-188l-1147 -689h1183v-190h-1572zM2348 1444
h322l254 -131l253 131h322l-404 -234h-343z" />
    <glyph glyph-name="uni01F2" unicode="&#x1f2;" horiz-adv-x="3941" 
d="M211 0v1444h800q110 0 212 -8.5t213.5 -30.5t205 -56.5t179.5 -91t146 -130t95.5 -177t35.5 -227.5v-2q0 -124 -35.5 -227.5t-95.5 -177t-146 -130t-179.5 -91t-205 -56.5t-213.5 -30.5t-212 -8.5h-800zM467 217h541q58 0 101.5 1t112.5 6t121.5 14.5t118.5 27.5
t114.5 43t98 63.5t81 87t51 115.5t19.5 146v2q0 79 -19.5 146t-51 115t-81 87t-98 64t-114.5 43t-118.5 27t-121.5 14.5t-112.5 6.5t-101.5 1h-541v-1010zM2277 0v188l1133 689h-1110v190h1513v-188l-1147 -689h1183v-190h-1572z" />
    <glyph glyph-name="uni01F3" unicode="&#x1f3;" horiz-adv-x="3769" 
d="M914 -28q-233 0 -416 64.5t-291 193.5t-108 304v2q0 174 108 303t291 193.5t416 64.5q247 0 410.5 -54t251.5 -137v538h246v-1444h-246v163q-88 -83 -251.5 -137t-410.5 -54zM976 157q73 0 142.5 7.5t141 24.5t130.5 46.5t106 70t73 99t26 129.5v2q0 71 -26 129.5
t-73 98.5t-106 69.5t-130.5 46.5t-141 24.5t-142.5 7.5q-88 0 -170 -10.5t-164.5 -37.5t-143 -68.5t-98.5 -108t-38 -151.5v-2q0 -85 38 -152t98.5 -108t143 -68.5t164.5 -38t170 -10.5zM2105 0v188l1133 689h-1110v190h1513v-188l-1147 -689h1183v-190h-1572z" />
    <glyph glyph-name="uni0218" unicode="&#x218;" horiz-adv-x="2282" 
d="M1169 -29q-207 0 -383.5 28.5t-321 86.5t-239.5 153.5t-125 221.5h293q81 -286 791 -286q101 0 185 3.5t170.5 12.5t152 26t118 41t80 61t27.5 84v3q0 43 -16.5 74.5t-55.5 55t-90 39t-133.5 26.5t-171 17t-217.5 11l-294 11q-210 8 -361.5 40t-243.5 86.5t-135 126.5
t-43 166v1q0 104 78 185t213.5 130t305.5 73.5t367 24.5q270 0 484 -50t354.5 -151t178.5 -244h-294q-20 53 -70 94.5t-119 68.5t-160 45t-186.5 25.5t-203.5 7.5q-681 0 -681 -206v-2q0 -49 28.5 -83.5t97 -61t188 -42t297.5 -21.5l291 -10q144 -5 256 -16.5t212 -32
t170.5 -52t122 -76t76.5 -105.5t25 -138v-3q0 -122 -72.5 -210.5t-210.5 -140t-318.5 -75t-416.5 -23.5zM801 -362l237 264h277l-267 -264h-247z" />
    <glyph glyph-name="uni0219" unicode="&#x219;" horiz-adv-x="1882" 
d="M964 -29q-178 0 -326 21.5t-265.5 65t-193 114t-98.5 163.5h278q17 -47 60.5 -80.5t99.5 -53.5t136.5 -31.5t156.5 -15t175 -3.5q282 0 414.5 35t132.5 118v2q0 71 -92.5 97.5t-334.5 31.5l-349 8q-337 7 -491.5 86t-154.5 232v2q0 104 103 181t281.5 116t410.5 39
q345 0 572.5 -85.5t274.5 -248.5h-278q-25 47 -82 79.5t-139.5 48t-164 21.5t-184.5 6q-529 0 -529 -148v-2q0 -64 85.5 -93t296.5 -33l365 -8q137 -3 238 -13t187 -32t139.5 -56.5t83 -86.5t29.5 -123v-2q0 -172 -212.5 -262t-624.5 -90zM583 -362l237 264h277l-267 -264
h-247z" />
    <glyph glyph-name="uni021A" unicode="&#x21a;" horiz-adv-x="2136" 
d="M940 0v1227h-892v217h2040v-217h-892v-1227h-256zM699 -362l237 264h277l-267 -264h-247z" />
    <glyph glyph-name="uni021B" unicode="&#x21b;" horiz-adv-x="1285" 
d="M884 0q-95 0 -161 6.5t-122.5 23.5t-91 46t-58.5 75t-34 108t-10 149v469h-384v190h384v377h246v-377h531v-190h-531v-446q0 -55 4 -90.5t16 -64t30.5 -44t52.5 -26t75.5 -13.5t105.5 -3h234v-190h-287zM398 -362l237 264h277l-267 -264h-247z" />
    <glyph glyph-name="uni0237" unicode="&#x237;" horiz-adv-x="613" 
d="M-199 -333v191h135q39 0 62.5 1t51.5 4.5t43.5 10.5t33.5 19.5t26.5 31t17 45t11.5 62t3 81.5v954h245v-967q0 -129 -26.5 -212.5t-88.5 -132.5t-151.5 -68.5t-227.5 -19.5h-135z" />
    <glyph glyph-name="uni02BC" unicode="&#x2bc;" horiz-adv-x="445" 
d="M395 1505l-104 -306h-238l127 306h215z" />
    <glyph glyph-name="circumflex" unicode="&#x2c6;" horiz-adv-x="1212" 
d="M31 1210l404 234h343l404 -234h-322l-253 131l-254 -131h-322z" />
    <glyph glyph-name="caron" unicode="&#x2c7;" horiz-adv-x="1212" 
d="M31 1444h322l254 -131l253 131h322l-404 -234h-343z" />
    <glyph glyph-name="uni02C9" unicode="&#x2c9;" horiz-adv-x="963" 
d="M31 1239v164h901v-164h-901z" />
    <glyph glyph-name="breve" unicode="&#x2d8;" horiz-adv-x="1015" 
d="M508 1187q-421 0 -477 257h241q5 -31 25 -52.5t53.5 -32.5t71 -15.5t86.5 -4.5q50 0 87.5 4.5t71 15.5t53.5 32.5t24 52.5h241q-56 -257 -477 -257z" />
    <glyph glyph-name="dotaccent" unicode="&#x2d9;" horiz-adv-x="307" 
d="M31 1210v234h246v-234h-246z" />
    <glyph glyph-name="ring" unicode="&#x2da;" horiz-adv-x="549" 
d="M275 1191q-101 0 -172.5 67t-71.5 168q0 102 71.5 169t172.5 67t172.5 -67t71.5 -169q0 -101 -71.5 -168t-172.5 -67zM275 1308q52 0 84 32.5t32 85.5t-32 86t-84 33t-84 -33t-32 -86t32 -85.5t84 -32.5z" />
    <glyph glyph-name="ogonek" unicode="&#x2db;" horiz-adv-x="571" 
d="M130 1h244q-52 -26 -84 -65t-32 -78q0 -78 112 -78q59 0 113 23l58 -151q-96 -49 -232 -49q-124 0 -201 56.5t-77 150.5q0 102 99 191z" />
    <glyph glyph-name="tilde" unicode="&#x2dc;" horiz-adv-x="1158" 
d="M31 1210q9 123 81.5 194t207.5 71q93 0 184 -25.5t163.5 -50.5t119.5 -25q67 0 94.5 23.5t32.5 77.5h214q-10 -123 -82.5 -194t-207.5 -71q-73 0 -147 16t-122.5 35t-103 35t-93.5 16q-67 0 -95 -23.5t-34 -78.5h-212z" />
    <glyph glyph-name="hungarumlaut" unicode="&#x2dd;" horiz-adv-x="1322" 
d="M31 1210l285 234h372l-377 -234h-280zM635 1210l285 234h372l-377 -234h-280z" />
    <glyph glyph-name="uni030C" unicode="&#x30c;" horiz-adv-x="323" 
d="M52 1505h240l-71 -336h-169v336z" />
    <glyph glyph-name="uni0326" unicode="&#x326;" horiz-adv-x="575" 
d="M31 -362l237 264h277l-267 -264h-247z" />
    <glyph glyph-name="uni0327" unicode="&#x327;" horiz-adv-x="718" 
d="M31 1241l377 264h280l-326 -264h-331z" />
    <glyph glyph-name="uni0394" unicode="&#x394;" horiz-adv-x="2080" 
d="M5 0l886 1505h299l886 -1505h-2071zM364 187h1353l-676 1139z" />
    <glyph glyph-name="uni03A9" unicode="&#x3a9;" horiz-adv-x="2427" 
d="M136 0v208h487q-221 101 -346.5 255t-125.5 352v2q0 125 50 236t143.5 198.5t223 151t295 97.5t351.5 34t351.5 -34t295 -97.5t223 -151t143.5 -198.5t50 -236v-2q0 -198 -125.5 -352t-346.5 -255h487v-208h-889v203q108 40 193 81.5t165.5 97t133.5 116.5t84.5 140
t31.5 169v2q0 164 -102.5 285.5t-282.5 184.5t-412 63t-412 -63t-282.5 -184.5t-102.5 -285.5v-2q0 -90 31.5 -169t84.5 -140t133 -116.5t165.5 -97t192.5 -81.5v-203h-888z" />
    <glyph glyph-name="uni03BC" unicode="&#x3bc;" horiz-adv-x="1910" 
d="M163 -333v1400h246v-492q0 -413 536 -413q257 0 396 100.5t139 312.5v492h246v-1067h-246v189q-70 -92 -226 -154.5t-382 -62.5q-287 0 -463 98v-403h-246z" />
    <glyph glyph-name="pi" unicode="&#x3c0;" horiz-adv-x="2020" 
d="M328 0v880h-274v187h1854v-187h-274v-429q0 -148 58.5 -206t201.5 -58h14v-187h-67q-227 0 -339.5 92.5t-112.5 313.5v474h-816v-880h-245z" />
    <glyph glyph-name="Wgrave" unicode="&#x1e80;" horiz-adv-x="3370" 
d="M736 0l-715 1444h275l612 -1227h1l622 1227h315l630 -1225h1l612 1225h261l-716 -1444h-332l-620 1215h-1l-615 -1215h-330zM1631 1618l-473 264h373l387 -264h-287z" />
    <glyph glyph-name="wgrave" unicode="&#x1e81;" horiz-adv-x="2873" 
d="M635 0l-613 1067h282l493 -859h1l520 859h276l523 -849h1l487 849h248l-614 -1067h-274l-526 865h-1l-527 -865h-276zM1334 1210l-377 234h373l285 -234h-281z" />
    <glyph glyph-name="Wacute" unicode="&#x1e82;" horiz-adv-x="3370" 
d="M736 0l-715 1444h275l612 -1227h1l622 1227h315l630 -1225h1l612 1225h261l-716 -1444h-332l-620 1215h-1l-615 -1215h-330zM1474 1618l387 264h373l-473 -264h-287z" />
    <glyph glyph-name="wacute" unicode="&#x1e83;" horiz-adv-x="2873" 
d="M635 0l-613 1067h282l493 -859h1l520 859h276l523 -849h1l487 849h248l-614 -1067h-274l-526 865h-1l-527 -865h-276zM1262 1210l285 234h372l-377 -234h-280z" />
    <glyph glyph-name="Wdieresis" unicode="&#x1e84;" horiz-adv-x="3370" 
d="M736 0l-715 1444h275l612 -1227h1l622 1227h315l630 -1225h1l612 1225h261l-716 -1444h-332l-620 1215h-1l-615 -1215h-330zM1134 1634v248h256v-248h-256zM1987 1634v248h256v-248h-256z" />
    <glyph glyph-name="wdieresis" unicode="&#x1e85;" horiz-adv-x="2873" 
d="M635 0l-613 1067h282l493 -859h1l520 859h276l523 -849h1l487 849h248l-614 -1067h-274l-526 865h-1l-527 -865h-276zM899 1210v234h246v-234h-246zM1732 1210v234h245v-234h-245z" />
    <glyph glyph-name="endash" unicode="&#x2013;" horiz-adv-x="1526" 
d="M165 444v218h1196v-218h-1196z" />
    <glyph glyph-name="emdash" unicode="&#x2014;" horiz-adv-x="2652" 
d="M165 444v218h2323v-218h-2323z" />
    <glyph glyph-name="quoteleft" unicode="&#x2018;" horiz-adv-x="635" 
d="M536 1444l-140 -493h-275l200 493h215z" />
    <glyph glyph-name="quoteright" unicode="&#x2019;" horiz-adv-x="623" 
d="M133 951l140 493h274l-199 -493h-215z" />
    <glyph glyph-name="quotesinglbase" unicode="&#x201a;" horiz-adv-x="632" 
d="M66 -232l140 492h275l-200 -492h-215z" />
    <glyph glyph-name="quotedblleft" unicode="&#x201c;" horiz-adv-x="1101" 
d="M536 1444l-140 -493h-275l200 493h215zM1002 1444l-140 -493h-275l200 493h215z" />
    <glyph glyph-name="quotedblright" unicode="&#x201d;" horiz-adv-x="1088" 
d="M598 951l141 493h274l-199 -493h-216zM133 951l140 493h274l-199 -493h-215z" />
    <glyph glyph-name="quotedblbase" unicode="&#x201e;" horiz-adv-x="1098" 
d="M66 -232l140 492h275l-200 -492h-215zM532 -232l140 492h275l-200 -492h-215z" />
    <glyph glyph-name="dagger" unicode="&#x2020;" horiz-adv-x="1438" 
d="M608 -197v1068h-543v196h543v438h223v-438h543v-196h-543v-1068h-223z" />
    <glyph glyph-name="daggerdbl" unicode="&#x2021;" horiz-adv-x="1546" 
d="M662 -197v446h-543v195h543v427h-543v196h543v438h223v-438h543v-196h-543v-427h543v-195h-543v-446h-223z" />
    <glyph glyph-name="bullet" unicode="&#x2022;" horiz-adv-x="1140" 
d="M201 540q0 150 106.5 256t254.5 106q160 0 268 -105.5t108 -256.5q0 -160 -107.5 -267.5t-268.5 -107.5q-149 0 -255 108.5t-106 266.5z" />
    <glyph glyph-name="ellipsis" unicode="&#x2026;" horiz-adv-x="1795" 
d="M1367 0v260h264v-260h-264zM766 0v260h264v-260h-264zM165 0v260h264v-260h-264z" />
    <glyph glyph-name="guilsinglleft" unicode="&#x2039;" horiz-adv-x="860" 
d="M450 193l-341 381l341 381h267l-334 -381l334 -381h-267z" />
    <glyph glyph-name="guilsinglright" unicode="&#x203a;" horiz-adv-x="860" 
d="M752 574l-341 -381h-267l334 381l-334 381h267z" />
    <glyph glyph-name="fraction" unicode="&#x2044;" 
d="M-542 0l1433 1505h256l-1433 -1505h-256z" />
    <glyph glyph-name="Euro" unicode="&#x20ac;" horiz-adv-x="2847" 
d="M1685 -29q-404 0 -686.5 138t-382.5 373v1h-495l116 177h334q-9 90 7 174h-457l116 177h403v1q116 213 390.5 337t654.5 124q252 0 465.5 -57t362.5 -166.5t206 -257.5h-267q-71 147 -271 222.5t-494 75.5q-275 0 -468.5 -73.5t-292.5 -204.5v-1h1078l-115 -177h-1044
q-19 -81 -9 -174h1168l-115 -177h-995v-1q87 -152 289 -237t504 -85q296 0 495.5 73t269.5 219h267q-57 -148 -206 -257.5t-362.5 -166.5t-465.5 -57z" />
    <glyph glyph-name="uni20BF" unicode="&#x20bf;" horiz-adv-x="2246" 
d="M211 0v1444h440v313h223v-313h379v313h223v-313q296 -5 429 -96.5t133 -267.5v-3q0 -107 -51.5 -184.5t-141.5 -122.5v-2q120 -35 197.5 -119.5t77.5 -219.5v-1q0 -216 -160.5 -321t-483.5 -107v-252h-223v252h-379v-252h-223v252h-440zM467 850h998q73 0 124.5 8t94 29
t63.5 61t21 99v1q0 48 -15 81.5t-39 52t-65.5 29t-82 13.5t-101.5 3h-998v-377zM467 217h995q209 0 298 46.5t89 159.5v2q0 113 -84 160.5t-268 47.5h-1030v-416z" />
    <glyph glyph-name="uni2113" unicode="&#x2113;" horiz-adv-x="1324" 
d="M985 -15q-556 0 -636 401q-89 -34 -246 -89l-61 184q166 56 293 106v387q0 281 134.5 420.5t368.5 139.5q212 0 331 -99t119 -260q0 -107 -45.5 -202t-137.5 -180t-218.5 -160t-299.5 -151q12 -84 50 -141t97.5 -86.5t124.5 -41t149 -11.5q91 0 222 15v-217
q-148 -15 -245 -15zM581 691q172 80 273.5 158t139 148.5t37.5 155.5q0 84 -55.5 139.5t-148.5 55.5q-111 0 -178.5 -84t-67.5 -258v-315z" />
    <glyph glyph-name="trademark" unicode="&#x2122;" horiz-adv-x="3088" 
d="M597 575v717h-528v152h1244v-152h-529v-717h-187zM1445 575v869h268l446 -730h2l450 730h264v-869h-187l3 689h-1l-430 -689h-200l-427 689h-1v-689h-187z" />
    <glyph glyph-name="uni2126" unicode="&#x2126;" horiz-adv-x="2425" 
d="M135 0v187h487q-218 99 -345 263.5t-127 364.5v2q0 125 50 236t143.5 198.5t223 151t295 97.5t351.5 34t351.5 -34t295 -97.5t223 -151t143.5 -198.5t50 -236v-2q0 -200 -127.5 -364.5t-344.5 -263.5h487v-187h-889v182q608 228 608 625v2q0 164 -102.5 285.5
t-282.5 184.5t-412 63t-412 -63t-282.5 -184.5t-102.5 -285.5v-2q0 -397 607 -625v-182h-888z" />
    <glyph glyph-name="estimated" unicode="&#x212e;" horiz-adv-x="1984" 
d="M1889 731h-1424v-366q0 -86 81 -166.5t217.5 -131t285.5 -50.5q194 0 374.5 83.5t288.5 205.5h72q-130 -154 -316 -244.5t-422 -90.5q-188 0 -355.5 62t-286 167t-187.5 249t-69 304q0 213 116 392.5t315.5 284t435.5 104.5q237 0 438 -104.5t318.5 -284.5t117.5 -392
v-22zM465 1160v-386h1106v386q0 59 -40.5 117t-111.5 105t-177 76.5t-227 29.5t-226 -29.5t-175 -76.5t-109.5 -105t-39.5 -117z" />
    <glyph glyph-name="arrowleft" unicode="&#x2190;" horiz-adv-x="2585" 
d="M768 -152l-686 687l686 686h301l-582 -578h2016v-217h-2016l582 -578h-301z" />
    <glyph glyph-name="arrowup" unicode="&#x2191;" horiz-adv-x="1536" 
d="M660 -555v1695l-578 -581v300l686 686l687 -686v-300l-578 581v-1695h-217z" />
    <glyph glyph-name="arrowright" unicode="&#x2192;" horiz-adv-x="2585" 
d="M2544 535l-686 -687h-301l582 578h-2016v217h2016l-582 578h301z" />
    <glyph glyph-name="arrowdown" unicode="&#x2193;" horiz-adv-x="1536" 
d="M917 1505v-1695l578 581v-300l-686 -686l-687 686v300l578 -581v1695h217z" />
    <glyph glyph-name="uni2196" unicode="&#x2196;" horiz-adv-x="1953" 
d="M82 -116v1183h1180l3 -212l-819 2l1425 -1425l-153 -154l-1426 1426l2 -820h-212z" />
    <glyph glyph-name="uni2197" unicode="&#x2197;" horiz-adv-x="1953" 
d="M1912 1067v-1183h-212l2 820l-1426 -1426l-153 154l1425 1425l-819 -2l3 212h1180z" />
    <glyph glyph-name="uni2198" unicode="&#x2198;" horiz-adv-x="1953" 
d="M1912 461v-1183h-1180l-3 212l819 -2l-1425 1425l153 154l1426 -1426l-2 820h212z" />
    <glyph glyph-name="uni2199" unicode="&#x2199;" horiz-adv-x="1953" 
d="M82 -722v1183h212l-2 -820l1426 1426l153 -154l-1425 -1425l819 2l-3 -212h-1180z" />
    <glyph glyph-name="uni21B0" unicode="&#x21b0;" horiz-adv-x="2585" 
d="M82 535l686 686h301l-582 -578h2016v-1037h-223v820h-1793l582 -578h-301z" />
    <glyph glyph-name="uni21B1" unicode="&#x21b1;" horiz-adv-x="2585" 
d="M1858 1221l686 -686l-686 -687h-301l582 578h-1793v-820h-223v1037h2016l-582 578h301z" />
    <glyph glyph-name="uni21B2" unicode="&#x21b2;" horiz-adv-x="2585" 
d="M768 -152l-686 687l686 686h301l-582 -578h1793v861h223v-1078h-2016l582 -578h-301z" />
    <glyph glyph-name="uni21B3" unicode="&#x21b3;" horiz-adv-x="2585" 
d="M2544 535l-686 -687h-301l582 578h-2016v1078h223v-861h1793l-582 578h301z" />
    <glyph glyph-name="partialdiff" unicode="&#x2202;" horiz-adv-x="1979" 
d="M992 -29q-406 0 -650 154.5t-244 405.5v4q0 165 110 293.5t308 198.5t452 70q173 0 323 -46l1 1q-142 118 -407.5 236.5t-504.5 178.5l76 194q224 -65 428.5 -149t388 -192t318 -227t213.5 -259.5t79 -283.5v-1q0 -266 -241 -422t-650 -156zM992 153q175 0 316 42.5
t227.5 130.5t86.5 208v1q0 120 -86.5 208t-227.5 130t-316 42q-176 0 -317.5 -42t-228.5 -130t-87 -208v-4q0 -119 87 -206.5t228.5 -129.5t317.5 -42z" />
    <glyph glyph-name="uni2206" unicode="&#x2206;" horiz-adv-x="2164" 
d="M47 0l886 1505h299l886 -1505h-2071zM406 187h1353l-676 1139z" />
    <glyph glyph-name="product" unicode="&#x220f;" horiz-adv-x="2411" 
d="M211 -197v1702h1990v-1702h-246v1497h-1498v-1497h-246z" />
    <glyph glyph-name="summation" unicode="&#x2211;" horiz-adv-x="1786" 
d="M86 -197v188l845 663l-845 664v187h1608v-195l-1256 1l827 -657l-827 -656l1256 1v-196h-1608z" />
    <glyph glyph-name="minus" unicode="&#x2212;" horiz-adv-x="1781" 
d="M176 624v216h1430v-216h-1430z" />
    <glyph glyph-name="uni2215" unicode="&#x2215;" 
d="M-542 0l1433 1505h256l-1433 -1505h-256z" />
    <glyph glyph-name="uni2219" unicode="&#x2219;" horiz-adv-x="859" 
d="M298 425v260h264v-260h-264z" />
    <glyph glyph-name="radical" unicode="&#x221a;" horiz-adv-x="2267" 
d="M1161 0l-558 871h-562v196h721l524 -828h2l749 1266h276l-896 -1505h-256z" />
    <glyph glyph-name="infinity" unicode="&#x221e;" horiz-adv-x="2485" 
d="M634 375q-215 0 -353 99.5t-138 256.5t138 256.5t353 99.5q152 0 294 -61.5t315 -173.5q173 112 315 173.5t294 61.5q216 0 353.5 -99.5t137.5 -256.5t-137.5 -256.5t-353.5 -99.5q-152 0 -294 61.5t-315 173.5q-173 -112 -315 -173.5t-294 -61.5zM634 571q97 0 198 41.5
t224 118.5q-123 77 -224 118.5t-198 41.5q-101 0 -163.5 -43.5t-62.5 -116.5t62.5 -116.5t163.5 -43.5zM1430 731q123 -77 224 -118.5t198 -41.5q101 0 163.5 43.5t62.5 116.5t-62.5 116.5t-163.5 43.5q-97 0 -198 -41.5t-224 -118.5z" />
    <glyph glyph-name="integral" unicode="&#x222b;" horiz-adv-x="963" 
d="M-25 -417l33 188h34q106 0 166 74t86 253l132 912q38 261 143.5 378t335.5 117h81l-33 -187h-35q-105 0 -165.5 -74.5t-86.5 -253.5l-132 -911q-19 -130 -51 -219t-87.5 -153.5t-138.5 -94t-201 -29.5h-81z" />
    <glyph glyph-name="approxequal" unicode="&#x2248;" horiz-adv-x="1906" 
d="M373 265l-194 68q58 147 168.5 233.5t268.5 86.5q91 0 173 -22.5t143 -55t117.5 -65t121 -55t129.5 -22.5q52 0 91.5 14t66.5 43.5t43 57t35 72.5l193 -68q-57 -147 -168 -234t-269 -87q-91 0 -172.5 23t-142.5 55.5t-117.5 64.5t-121 55t-130.5 23q-52 0 -91 -14
t-66 -43.5t-43 -57t-35 -72.5zM373 803l-194 68q58 147 168.5 233.5t268.5 86.5q91 0 173 -22.5t143 -55t117.5 -65t121 -55t129.5 -22.5q52 0 91.5 14t66.5 43.5t43 57t35 72.5l193 -68q-57 -147 -168 -234t-269 -87q-91 0 -172.5 23t-142.5 55.5t-117.5 64.5t-121 55
t-130.5 23q-52 0 -91 -14t-66 -43.5t-43 -57t-35 -72.5z" />
    <glyph glyph-name="notequal" unicode="&#x2260;" horiz-adv-x="1883" 
d="M176 872v218h824l162 341h226l-162 -341h483v-218h-587l-133 -280h720v-217h-824l-162 -341h-226l162 341h-483v217h587l133 280h-720z" />
    <glyph glyph-name="lessequal" unicode="&#x2264;" horiz-adv-x="1724" 
d="M127 819v238l1445 535v-244l-1161 -409v-1l1161 -410v-244zM127 0v217h1445v-217h-1445z" />
    <glyph glyph-name="greaterequal" unicode="&#x2265;" horiz-adv-x="1724" 
d="M1598 1057v-238l-1445 -535v244l1161 410v1l-1161 409v244zM1598 217v-217h-1445v217h1445z" />
    <glyph glyph-name="lozenge" unicode="&#x25ca;" horiz-adv-x="1796" 
d="M898 199h2l481 554l-481 554h-2l-482 -554zM772 0l-654 753l654 752h254l653 -752l-653 -753h-254z" />
    <glyph glyph-name="uniF8FF" unicode="&#xf8ff;" horiz-adv-x="642" 
 />
    <glyph glyph-name="acute.case" horiz-adv-x="821" 
d="M31 1618l387 264h373l-473 -264h-287z" />
    <glyph glyph-name="dieresis.case" horiz-adv-x="1170" 
d="M31 1634v248h256v-248h-256zM884 1634v248h256v-248h-256z" />
    <glyph glyph-name="caron.case" horiz-adv-x="1219" 
d="M31 1882h325l254 -162l253 162h325l-404 -264h-349z" />
    <glyph glyph-name="ring.case" horiz-adv-x="549" 
d="M275 1521q-101 0 -172.5 67t-71.5 168t71.5 168.5t172.5 67.5t172.5 -67.5t71.5 -168.5t-71.5 -168t-172.5 -67zM275 1637q52 0 84 33t32 86t-32 86t-84 33t-84 -33t-32 -86t32 -86t84 -33z" />
    <glyph glyph-name="circumflex.case" horiz-adv-x="1219" 
d="M31 1618l404 264h349l404 -264h-325l-253 162l-254 -162h-325z" />
    <glyph glyph-name="tilde.case" horiz-adv-x="1158" 
d="M31 1618q9 123 81.5 193.5t207.5 70.5q73 0 147 -15.5t123 -34.5t103.5 -34.5t93.5 -15.5q67 0 94.5 23t32.5 77h214q-10 -123 -82.5 -193.5t-207.5 -70.5q-73 0 -147 16t-122.5 34.5t-103 34.5t-93.5 16q-67 0 -95 -23t-34 -78h-212z" />
    <glyph glyph-name="grave.case" horiz-adv-x="821" 
d="M504 1618l-473 264h373l387 -264h-287z" />
    <glyph glyph-name="macron.case" horiz-adv-x="1085" 
d="M31 1674v167h1024v-167h-1024z" />
    <glyph glyph-name="a_uni0331.3" horiz-adv-x="1219" 
d="M31 1882h325l254 -162l253 162h325l-404 -264h-349z" />
    <glyph glyph-name="dotaccent.case" horiz-adv-x="317" 
d="M31 1634v248h256v-248h-256z" />
    <glyph glyph-name="breve.case" horiz-adv-x="1015" 
d="M508 1605q-197 0 -322.5 71.5t-154.5 205.5h241q9 -62 74.5 -93.5t161.5 -31.5q97 0 162 31.5t74 93.5h241q-29 -134 -155 -205.5t-322 -71.5z" />
    <glyph glyph-name="commaaccent.salt" horiz-adv-x="575" 
d="M31 -362l237 264h277l-267 -264h-247z" />
    <glyph glyph-name="hungarumlaut.case" horiz-adv-x="1415" 
d="M31 1618l387 264h373l-473 -264h-287zM646 1618l387 264h372l-473 -264h-286z" />
    <glyph glyph-name="emdash.case" horiz-adv-x="2263" 
d="M176 624v217h1912v-217h-1912z" />
    <glyph glyph-name="endash.case" horiz-adv-x="1546" 
d="M176 624v217h1196v-217h-1196z" />
    <glyph glyph-name="periodcentered.case" horiz-adv-x="611" 
d="M174 602v260h264v-260h-264z" />
    <glyph glyph-name="hyphen.case" horiz-adv-x="1137" 
d="M176 624v217h786v-217h-786z" />
    <glyph glyph-name="braceleft.case" horiz-adv-x="851" 
d="M557 -167q-163 0 -242 70t-79 237v305q0 71 -18 109.5t-40.5 51t-85.5 32.5q-11 4 -17 6v158q85 28 106 42q45 29 53 106q2 22 2 50v305q0 166 79 236t242 70h177v-195h-138q-91 0 -114 -25t-23 -125v-237q0 -129 -43 -198t-146 -107v-2q103 -38 146 -107t43 -198v-238
q0 -55 3.5 -81.5t20 -44t40 -21t73.5 -3.5h138v-196h-177z" />
    <glyph glyph-name="braceright.case" horiz-adv-x="851" 
d="M95 -167v196h137q93 0 115 24t22 126v238q0 129 43 198t147 107v2q-104 38 -147 107t-43 198v237q0 100 -23 125t-114 25h-137v195h177q163 0 241.5 -70t78.5 -236v-305q0 -71 18 -109t40.5 -50.5t85.5 -32.5q11 -4 17 -6v-158q-85 -28 -106 -42q-45 -29 -53 -105
q-2 -23 -2 -52v-305q0 -167 -78.5 -237t-241.5 -70h-177z" />
    <glyph glyph-name="bracketleft.case" horiz-adv-x="840" 
d="M208 -167v1778h557v-195h-333v-1387h333v-196h-557z" />
    <glyph glyph-name="bracketright.case" horiz-adv-x="840" 
d="M75 -167v196h334v1387h-334v195h557v-1778h-557z" />
    <glyph glyph-name="parenleft.case" horiz-adv-x="724" 
d="M440 -167q-135 171 -229.5 418.5t-94.5 471.5q0 223 94.5 470t229.5 418h218q-140 -187 -219 -421t-79 -467q0 -234 79 -468t219 -422h-218z" />
    <glyph glyph-name="parenright.case" horiz-adv-x="723" 
d="M67 -167q140 188 219 422t79 468q0 233 -79 467t-219 421h218q135 -171 229.5 -418t94.5 -470q0 -224 -94.5 -471.5t-229.5 -418.5h-218z" />
    <glyph glyph-name="colon.case" horiz-adv-x="593" 
d="M165 199v260h264v-260h-264zM165 1006v260h264v-260h-264z" />
    <glyph glyph-name="exclamdown.case" horiz-adv-x="669" 
d="M532 1505v-260h-263v260h263zM491 1063l33 -424v-578h-246v578l34 424h179z" />
    <glyph glyph-name="questiondown.case" horiz-adv-x="2067" 
d="M1291 1505v-260h-263v260h263zM1102 218q352 0 515.5 73t167.5 252h278q-4 -128 -75 -226.5t-199 -160.5t-300.5 -93t-385.5 -31q-468 0 -716.5 99.5t-248.5 277.5v2q0 56 20.5 102t54.5 79.5t88.5 63t110.5 50.5t133 43l171 49q69 20 109 33t80.5 30.5t60.5 34
t37.5 41.5t24 54.5t8.5 71.5h246q0 -168 -103 -259.5t-338 -158.5l-164 -47q-164 -47 -221.5 -85t-57.5 -97v-1q0 -90 178.5 -143.5t525.5 -53.5z" />
    <glyph glyph-name="guillemotleft.case" horiz-adv-x="1418" 
d="M464 346l-341 382l341 381h268l-334 -381l334 -382h-268zM996 346l-341 382l341 381h267l-334 -381l334 -382h-267z" />
    <glyph glyph-name="guillemotright.case" horiz-adv-x="1418" 
d="M1296 728l-341 -382h-267l333 382l-333 381h267zM764 728l-341 -382h-267l334 382l-334 381h267z" />
    <glyph glyph-name="guilsinglleft.case" horiz-adv-x="884" 
d="M460 350l-341 382l341 381h268l-334 -381l334 -382h-268z" />
    <glyph glyph-name="guilsinglright.case" horiz-adv-x="884" 
d="M765 732l-341 -382h-267l334 382l-334 381h267z" />
    <glyph glyph-name="bullet.case" horiz-adv-x="1161" 
d="M211 731q0 150 106.5 256.5t254.5 106.5q160 0 268.5 -105.5t108.5 -257.5q0 -160 -108 -267.5t-269 -107.5q-149 0 -255 108.5t-106 266.5z" />
    <glyph glyph-name="at.case" horiz-adv-x="2559" 
d="M1165 457q85 0 163.5 18.5t144 53.5t106 94.5t41.5 134.5v5q0 111 -98.5 178.5t-274.5 67.5q-196 0 -308.5 -87.5t-112.5 -219.5v-4q2 -113 91.5 -177t247.5 -64zM1118 306q-100 0 -190.5 24.5t-163 71t-115.5 121.5t-44 170v5q0 96 44 181t122.5 148t193.5 100t251 37
q142 0 259.5 -50t166.5 -128l19 141h198l-62 -432q-7 -49 -9.5 -83.5t2.5 -70.5t20.5 -57.5t46 -35.5t75.5 -14q61 0 119.5 25t107 71t78 121t29.5 166v4q0 175 -119 297t-325 180t-484 58q-182 0 -342.5 -33.5t-282.5 -95t-210.5 -144.5t-134 -185t-45.5 -214v-5
q0 -269 211 -423t588 -154q294 0 556 94l55 -165q-126 -47 -288 -73t-322 -26q-299 0 -531 90.5t-362 260.5t-130 394v5q0 174 96.5 330t262 267.5t396 177t488.5 65.5q152 0 292 -18.5t265.5 -55.5t227.5 -95t176.5 -133.5t115.5 -175t41 -215.5v-5q0 -103 -33.5 -191.5
t-89 -149.5t-127 -104t-147 -63.5t-149.5 -20.5q-133 0 -207.5 53t-89.5 136q-79 -88 -214 -133t-286 -45z" />
    <glyph glyph-name="uni03BC.1" horiz-adv-x="1910" 
d="M163 -333v1400h246v-492q0 -413 536 -413q257 0 396 100.5t139 312.5v492h246v-1067h-246v189q-70 -92 -226 -154.5t-382 -62.5q-287 0 -463 98v-403h-246z" />
    <glyph glyph-name="uni000D.1" horiz-adv-x="0" 
 />
    </font>
</defs>
</svg>
