<?xml version="1.0" standalone="no"?>
<!DOCTYPE svg PUBLIC "-//W3C//DTD SVG 1.1//EN" "http://www.w3.org/Graphics/SVG/1.1/DTD/svg11.dtd" >
<svg xmlns="http://www.w3.org/2000/svg" xmlns:xlink="http://www.w3.org/1999/xlink" version="1.1">
<metadata>
Created by FontForge 20201107 at Tue Sep 26 10:39:24 2023
 By 
(c)newglyph 2023
</metadata>
<defs>
<font id="BarlowCondensedExp-Regular" horiz-adv-x="1559" >
  <font-face 
    font-family="BarlowCondensed Exp Regular"
    font-weight="400"
    font-stretch="normal"
    units-per-em="2048"
    panose-1="0 0 0 0 0 0 0 0 0 0"
    ascent="1638"
    descent="-410"
    x-height="1067"
    cap-height="1444"
    bbox="-440 -418 3146 1993"
    underline-thickness="102"
    underline-position="-256"
    unicode-range="U+000D-FB04"
  />
<missing-glyph horiz-adv-x="1034" 
d="M100 0v1444h834v-1444h-834zM519 768l338 629h-677zM149 80l343 637l-343 637v-1274zM886 84v1266l-340 -633zM185 47h667l-333 619z" />
    <glyph glyph-name="f_f" unicode="ff" horiz-adv-x="1993" 
d="M314 0v883h-275v184h275v36q0 188 93.5 265t324.5 77h229v-185h-223q-119 0 -157.5 -28t-38.5 -126v-39h419v-184h-419v-883h-228zM1329 0v883h-275v184h275v36q0 188 93.5 265t324.5 77h229v-185h-223q-119 0 -157.5 -28t-38.5 -126v-39h419v-184h-419v-883h-228z" />
    <glyph glyph-name="fi" unicode="fi" horiz-adv-x="1577" 
d="M314 0v883h-275v184h275v36q0 188 93.5 265t324.5 77h229v-185h-223q-119 0 -157.5 -28t-38.5 -126v-39h419v-184h-419v-883h-228zM1183 0v1067h228v-1067h-228zM1183 1206v238h228v-238h-228z" />
    <glyph glyph-name="fl" unicode="fl" horiz-adv-x="1577" 
d="M314 0v883h-275v184h275v36q0 188 93.5 265t324.5 77h229v-185h-223q-119 0 -157.5 -28t-38.5 -126v-39h419v-184h-419v-883h-228zM1183 0v1444h228v-1444h-228z" />
    <glyph glyph-name="f_f_i" unicode="ffi" horiz-adv-x="2591" 
d="M314 0v883h-275v184h275v36q0 188 93.5 265t324.5 77h229v-185h-223q-119 0 -157.5 -28t-38.5 -126v-39h419v-184h-419v-883h-228zM1329 0v883h-275v184h275v36q0 188 93.5 265t324.5 77h229v-185h-223q-119 0 -157.5 -28t-38.5 -126v-39h419v-184h-419v-883h-228z
M2197 0v1067h228v-1067h-228zM2197 1206v238h228v-238h-228z" />
    <glyph glyph-name="f_f_l" unicode="ffl" horiz-adv-x="2591" 
d="M314 0v883h-275v184h275v36q0 188 93.5 265t324.5 77h229v-185h-223q-119 0 -157.5 -28t-38.5 -126v-39h419v-184h-419v-883h-228zM1329 0v883h-275v184h275v36q0 188 93.5 265t324.5 77h229v-185h-223q-119 0 -157.5 -28t-38.5 -126v-39h419v-184h-419v-883h-228z
M2197 0v1444h228v-1444h-228z" />
    <glyph glyph-name=".notdef" horiz-adv-x="1034" 
d="M100 0v1444h834v-1444h-834zM519 768l338 629h-677zM149 80l343 637l-343 637v-1274zM886 84v1266l-340 -633zM185 47h667l-333 619z" />
    <glyph glyph-name="uni0000" horiz-adv-x="0" 
 />
    <glyph glyph-name="uni0000" horiz-adv-x="0" 
 />
    <glyph glyph-name="uni000D" unicode="&#xd;" horiz-adv-x="594" 
 />
    <glyph glyph-name="space" unicode=" " horiz-adv-x="594" 
 />
    <glyph glyph-name="exclam" unicode="!" horiz-adv-x="598" 
d="M179 0v258h244v-258h-244zM215 443l-32 488l1 514h232v-514l-32 -488h-169z" />
    <glyph glyph-name="quotedbl" unicode="&#x22;" horiz-adv-x="1004" 
d="M632 1444h237v-83l-25 -414h-187l-25 414v83zM136 1444h237v-83l-25 -414h-187l-25 414v83z" />
    <glyph glyph-name="numbersign" unicode="#" horiz-adv-x="1407" 
d="M273 0l54 417h-252l22 174h253l44 335h-253l23 174h252l53 405h179l-53 -405h305l52 405h179l-53 -405h256l-24 -174h-254l-44 -335h255l-23 -174h-255l-54 -417h-178l54 417h-305l-54 -417h-179zM529 591h305l43 335h-304z" />
    <glyph glyph-name="dollar" unicode="$" horiz-adv-x="1770" 
d="M782 -252v228q-295 24 -483.5 146t-229.5 326h260q25 -100 112.5 -165.5t207 -92.5t273.5 -27q536 0 536 223v3q0 50 -21.5 86t-58 60t-102 41t-137 27t-178.5 20l-248 29q-306 30 -452 132.5t-146 285.5v2q0 117 90 205.5t238.5 136t338.5 57.5v226h208v-228
q273 -22 448 -132t213 -293h-260q-74 238 -538 238q-103 0 -189.5 -11t-156 -34.5t-108.5 -64.5t-39 -95v-3q0 -95 96.5 -146t329.5 -70l247 -29q112 -12 197.5 -27t164.5 -37.5t133.5 -53.5t95.5 -73.5t61 -99.5t20 -128v-3q0 -140 -91.5 -236t-248.5 -143t-375 -55v-225
h-208z" />
    <glyph glyph-name="percent" unicode="%" horiz-adv-x="2299" 
d="M497 621q-191 0 -312.5 116t-121.5 309v2q0 194 121.5 309.5t312.5 115.5q192 0 313.5 -115.5t121.5 -309.5v-2q0 -193 -121.5 -309t-313.5 -116zM497 770q109 0 172.5 70t63.5 206v2q0 136 -63.5 206t-172.5 70t-171.5 -70t-62.5 -206v-2q0 -136 63 -206t171 -70zM645 0
l786 1444h225l-786 -1444h-225zM1803 -29q-191 0 -313 116t-122 309v2q0 194 122 309.5t313 115.5q192 0 313.5 -115.5t121.5 -309.5v-2q0 -193 -121.5 -309t-313.5 -116zM1803 121q109 0 172.5 69.5t63.5 205.5v2q0 137 -63.5 207t-172.5 70t-172 -70t-63 -207v-2
q0 -136 63 -205.5t172 -69.5z" />
    <glyph glyph-name="ampersand" unicode="&#x26;" horiz-adv-x="1996" 
d="M714 -29q-294 0 -464.5 112t-170.5 299v2q0 149 121.5 257t371.5 182q-106 81 -161.5 159.5t-55.5 167.5v3q0 141 134.5 231t365.5 90q238 0 369 -86.5t131 -233.5v-3q0 -120 -97.5 -211t-291.5 -160l444 -331q177 177 253 286h252q-57 -85 -152.5 -194t-199.5 -209
l441 -332h-338l-259 193q-158 -115 -325.5 -168.5t-367.5 -53.5zM811 895q159 46 233 105t74 140v2q0 77 -70 116.5t-192 39.5q-125 0 -192 -36.5t-67 -107.5v-3q0 -63 53 -122t161 -134zM731 149q291 0 523 161l-521 391q-225 -57 -317 -134.5t-92 -180.5v-1
q0 -107 107 -171.5t300 -64.5z" />
    <glyph glyph-name="quotesingle" unicode="'" horiz-adv-x="508" 
d="M136 1444h237v-83l-25 -414h-187l-25 414v83z" />
    <glyph glyph-name="parenleft" unicode="(" horiz-adv-x="650" 
d="M394 -333q-124 161 -208 410.5t-84 478.5q0 228 84 477.5t208 410.5h201q-128 -181 -199.5 -416.5t-71.5 -471.5q0 -237 71.5 -472.5t199.5 -416.5h-201z" />
    <glyph glyph-name="parenright" unicode=")" horiz-adv-x="649" 
d="M56 -333q128 181 199.5 416.5t71.5 472.5q0 236 -71.5 471.5t-199.5 416.5h202q123 -161 207 -410.5t84 -477.5q0 -229 -84 -478.5t-207 -410.5h-202z" />
    <glyph glyph-name="asterisk" unicode="*" horiz-adv-x="1028" 
d="M346 658l-161 111l207 234l-312 71l61 181l298 -116l-23 305h198l-24 -305l298 116l61 -181l-312 -71l207 -234l-161 -111l-168 260z" />
    <glyph glyph-name="plus" unicode="+" horiz-adv-x="1533" 
d="M663 141v490h-522v203h522v491h208v-491h522v-203h-522v-490h-208z" />
    <glyph glyph-name="comma" unicode="," horiz-adv-x="560" 
d="M40 -232l143 490h249l-191 -490h-201z" />
    <glyph glyph-name="hyphen" unicode="-" horiz-adv-x="988" 
d="M145 448v204h700v-204h-700z" />
    <glyph glyph-name="period" unicode="." horiz-adv-x="532" 
d="M144 0v258h244v-258h-244z" />
    <glyph glyph-name="slash" unicode="/" horiz-adv-x="1150" 
d="M36 -211l848 1655h224l-848 -1655h-224z" />
    <glyph glyph-name="zero" unicode="0" horiz-adv-x="1965" 
d="M984 -29q-262 0 -457.5 88.5t-303 259t-107.5 403.5v2q0 233 107.5 403.5t303 258.5t457.5 88q397 0 631.5 -199.5t234.5 -550.5v-2q0 -351 -234.5 -551t-631.5 -200zM984 167q132 0 242 33.5t194 99.5t131.5 174t47.5 248v2q0 140 -47.5 248t-131.5 174t-194 99t-242 33
t-242 -33t-194.5 -99t-132 -174t-47.5 -248v-2q0 -140 47.5 -248t132 -174t194.5 -99.5t242 -33.5z" />
    <glyph glyph-name="one" unicode="1" horiz-adv-x="921" 
d="M486 0v1062h-431v192h135q72 0 117.5 4t84 15t62.5 33t43 54.5t36 83.5h190v-1444h-237z" />
    <glyph glyph-name="two" unicode="2" horiz-adv-x="1768" 
d="M87 0v15q0 236 160 387.5t524 274.5l212 69q88 30 143.5 52t108 49.5t80.5 55.5t44.5 64.5t16.5 82.5v1q0 230 -478 230q-115 0 -202.5 -16.5t-155.5 -53.5t-106.5 -100t-45.5 -152h-250q22 245 222 379.5t539 134.5q344 0 533.5 -108t189.5 -310v-1q0 -90 -30 -157.5
t-101.5 -123.5t-167.5 -101t-251 -100l-210 -68q-244 -87 -344.5 -145.5t-144.5 -155.5h1290v-203h-1576z" />
    <glyph glyph-name="three" unicode="3" horiz-adv-x="1818" 
d="M909 -29q-229 0 -409.5 55t-291 162.5t-128.5 253.5h252q14 -76 66.5 -132t133.5 -87.5t174.5 -46t202.5 -14.5q545 0 545 241v2q0 125 -143.5 187t-400.5 62h-137v195h140q236 0 359.5 56t123.5 165v1q0 108 -129.5 159.5t-355.5 51.5q-141 0 -248.5 -25.5t-182 -87
t-88.5 -155.5h-253q34 213 239.5 336t536.5 123q216 0 377.5 -43.5t254 -132t92.5 -212.5v-2q0 -120 -79.5 -205t-217.5 -116v-2q165 -34 262.5 -121.5t97.5 -231.5v-2q0 -143 -103.5 -242t-279 -145.5t-410.5 -46.5z" />
    <glyph glyph-name="four" unicode="4" horiz-adv-x="1895" 
d="M1259 0v345h-1211v199l1211 900h237v-900h345v-199h-345v-345h-237zM342 544h917v669h-2z" />
    <glyph glyph-name="five" unicode="5" horiz-adv-x="1773" 
d="M885 -29q-340 0 -559 118.5t-250 323.5h254q16 -68 66.5 -118.5t127 -78.5t164.5 -41t192 -13q261 0 410.5 75t149.5 224v3q0 100 -70.5 168.5t-194.5 100.5t-294 32q-177 0 -311 -35t-207 -102h-230l187 817h1230v-204h-1061l-94 -415q209 127 562 127q335 0 533 -127.5
t198 -357.5v-3q0 -151 -100 -263t-281.5 -171.5t-421.5 -59.5z" />
    <glyph glyph-name="six" unicode="6" horiz-adv-x="1831" 
d="M938 -29q-398 0 -608.5 173t-210.5 504v2q0 180 55.5 330t161 260t271 171.5t374.5 61.5q290 0 476.5 -105t225.5 -268h-254q-88 183 -452 183q-277 0 -438 -140.5t-176 -404.5q86 107 247 166t379 59q215 0 382 -60.5t262 -174.5t95 -263v-1q0 -219 -216 -356t-574 -137
zM936 161q249 0 397.5 79.5t148.5 221.5v2q0 144 -149 227t-397 83q-247 0 -396.5 -83t-149.5 -227v-2q0 -142 148 -221.5t398 -79.5z" />
    <glyph glyph-name="seven" unicode="7" horiz-adv-x="1615" 
d="M414 1q7 239 61 427t161 337.5t258.5 264t365.5 212.5h-1228v203h1552v-203q-191 -89 -329.5 -174.5t-254.5 -193t-187.5 -232t-112.5 -284t-47 -357.5h-239z" />
    <glyph glyph-name="eight" unicode="8" horiz-adv-x="1836" 
d="M919 -29q-385 0 -595 115t-210 318v3q0 133 97.5 222t252.5 126v2q-132 40 -209.5 124.5t-77.5 202.5v2q0 177 202 282t540 105t540 -105t202 -282v-2q0 -118 -77.5 -202.5t-209.5 -124.5v-2q155 -37 252.5 -126t97.5 -222v-3q0 -203 -210 -318t-595 -115zM919 845
q239 0 367.5 57t128.5 164v2q0 106 -127.5 160t-368.5 54t-369 -54t-128 -160v-2q0 -107 129 -164t368 -57zM919 162q273 0 415 63t142 181v2q0 119 -142.5 184t-414.5 65t-414 -64.5t-142 -184.5v-2q0 -118 142 -181t414 -63z" />
    <glyph glyph-name="nine" unicode="9" horiz-adv-x="1831" 
d="M929 1471q398 0 609 -173t211 -504v-2q0 -181 -55.5 -331t-161.5 -260t-271 -171.5t-375 -61.5q-290 0 -476.5 105t-225.5 268h254q89 -183 452 -183q278 0 439.5 141t175.5 405q-87 -106 -247.5 -165.5t-378.5 -59.5q-215 0 -382.5 60.5t-262.5 174.5t-95 263v1
q0 219 216 356t574 137zM931 1281q-249 0 -397.5 -79.5t-148.5 -221.5v-2q0 -144 149.5 -227t396.5 -83q248 0 397.5 83t149.5 227v2q0 142 -148.5 221.5t-398.5 79.5z" />
    <glyph glyph-name="colon" unicode=":" horiz-adv-x="532" 
d="M144 0v258h244v-258h-244zM144 810v258h244v-258h-244z" />
    <glyph glyph-name="semicolon" unicode=";" horiz-adv-x="576" 
d="M40 -232l143 490h249l-191 -490h-201zM182 810v258h244v-258h-244z" />
    <glyph glyph-name="less" unicode="&#x3c;" horiz-adv-x="1520" 
d="M121 628v207l1247 492v-225l-983 -370v-1l983 -369v-225z" />
    <glyph glyph-name="equal" unicode="=" horiz-adv-x="1584" 
d="M154 860v204h1277v-204h-1277zM154 402v203h1277v-203h-1277z" />
    <glyph glyph-name="greater" unicode="&#x3e;" horiz-adv-x="1520" 
d="M1401 835v-207l-1248 -491v225l984 369v1l-984 370v225z" />
    <glyph glyph-name="question" unicode="?" horiz-adv-x="1573" 
d="M620 0v258h244v-258h-244zM779 1292q-236 0 -352.5 -69t-117.5 -227h-250q3 154 95 263t251.5 162t373.5 53q348 0 536 -99.5t188 -274.5v-1q0 -114 -75.5 -192t-214.5 -139l-125 -55q-60 -27 -94.5 -45t-65 -40.5t-44.5 -47.5t-22 -57.5t-9 -79.5h-223q0 106 32.5 176.5
t94 117t176.5 97.5l124 56q112 48 156 92t44 110v1q0 95 -121 147t-357 52z" />
    <glyph glyph-name="at" unicode="@" horiz-adv-x="2131" 
d="M972 452q150 0 257 92.5t108 236.5v4q0 107 -74 169.5t-206 62.5q-157 0 -252.5 -95.5t-95.5 -231.5v-3q1 -113 70.5 -174t192.5 -61zM927 306q-81 0 -153.5 23.5t-130.5 68.5t-92 119.5t-35 168.5v4q0 93 37.5 179.5t104.5 152t166 105t214 39.5q116 0 207 -48.5
t127 -124.5l19 136h167l-62 -448q-17 -124 6 -185t111 -61q109 0 191 103.5t82 280.5v3q0 174 -98.5 297t-268.5 182t-397 59q-187 0 -346 -53t-267 -144t-169 -215t-61 -264v-4q0 -270 187 -428t514 -158q252 0 476 92l55 -149q-111 -47 -252.5 -73t-278.5 -26
q-262 0 -464 91.5t-314 261t-112 391.5v3q0 171 80.5 323.5t218 262.5t330 174.5t407.5 64.5q156 0 294 -26t255 -80.5t201.5 -133.5t132 -191.5t47.5 -248.5v-4q0 -126 -41.5 -229.5t-108.5 -167.5t-147 -98.5t-163 -34.5q-111 0 -177.5 54t-78.5 144
q-63 -91 -172.5 -139.5t-240.5 -48.5z" />
    <glyph glyph-name="A" unicode="A" horiz-adv-x="1798" 
d="M8 1l756 1444h272l756 -1444h-266l-214 409h-847l-212 -409h-245zM571 613h634l-317 613h-2z" />
    <glyph glyph-name="B" unicode="B" horiz-adv-x="1800" 
d="M190 0v1444h892q271 0 401 -97.5t130 -268.5v-2q0 -107 -52.5 -186t-139.5 -121v-1q277 -89 277 -348v-2q0 -208 -151.5 -313t-432.5 -105h-924zM427 843h657q282 0 282 206v1q0 105 -72.5 150t-209.5 45h-657v-402zM427 199h682q175 0 256 53.5t81 167.5v1
q0 114 -81.5 168.5t-255.5 54.5h-682v-445z" />
    <glyph glyph-name="C" unicode="C" horiz-adv-x="1993" 
d="M1049 -29q-212 0 -389 54t-300 151t-191 237.5t-68 308.5v2q0 224 117 394.5t332.5 263t498.5 92.5q331 0 566 -132.5t307 -358.5h-262q-41 97 -135.5 164.5t-215 98.5t-260.5 31q-198 0 -353.5 -62t-249 -189t-93.5 -302v-2q0 -132 53.5 -238t148 -174.5t221 -105
t273.5 -36.5q215 0 382.5 75.5t228.5 218.5h262q-72 -226 -307 -358.5t-566 -132.5z" />
    <glyph glyph-name="D" unicode="D" horiz-adv-x="1873" 
d="M190 0v1445h641q150 0 281.5 -22t254 -75t210 -134t140 -206.5t52.5 -285.5v-2q0 -159 -52.5 -284t-140 -205.5t-210 -133.5t-254 -75t-281.5 -22h-641zM427 202h401q689 0 689 518v2q0 125 -42 220t-107.5 150.5t-159.5 90.5t-184.5 47t-195.5 12h-401v-1040z" />
    <glyph glyph-name="E" unicode="E" horiz-adv-x="1669" 
d="M190 0v1444h1355v-203h-1118v-407h1053v-203h-1053v-428h1120v-203h-1357z" />
    <glyph glyph-name="F" unicode="F" horiz-adv-x="1653" 
d="M190 1v1443h1396v-203h-1159v-407h1093v-203h-1093v-630h-237z" />
    <glyph glyph-name="G" unicode="G" horiz-adv-x="2092" 
d="M1044 -29q-279 0 -492.5 91t-331.5 261.5t-118 397.5v2q0 229 118.5 399.5t332.5 260.5t496 90q323 0 561 -126t309 -340h-260q-41 90 -138.5 152t-216.5 89.5t-252 27.5q-147 0 -272.5 -35t-221 -102t-150 -174t-54.5 -242v-2q0 -177 94.5 -304.5t250.5 -188.5t354 -61
q126 0 241.5 26t208 75.5t147.5 129.5t55 179v13h-596v200h828v-791h-197l-5 235q-83 -111 -269 -187t-422 -76z" />
    <glyph glyph-name="H" unicode="H" horiz-adv-x="1937" 
d="M190 1v1444h237v-611h1084v611h237v-1444h-237v630h-1084v-630h-237z" />
    <glyph glyph-name="I" unicode="I" horiz-adv-x="617" 
d="M190 0v1444h237v-1444h-237z" />
    <glyph glyph-name="J" unicode="J" horiz-adv-x="1449" 
d="M652 -29q-176 0 -311.5 56.5t-219.5 175t-91 286.5h256q8 -168 105 -246t263 -78q177 0 280.5 81.5t103.5 257.5v940h237v-938q0 -134 -47.5 -238t-132.5 -168t-197 -96.5t-246 -32.5z" />
    <glyph glyph-name="K" unicode="K" horiz-adv-x="1759" 
d="M190 0v1444h237v-638l976 638h343l-1083 -708l1116 -736h-403l-949 626v-626h-237z" />
    <glyph glyph-name="L" unicode="L" horiz-adv-x="1504" 
d="M190 0v1444h237v-1241h1057v-203h-1294z" />
    <glyph glyph-name="M" unicode="M" horiz-adv-x="2347" 
d="M190 0v1444h369l614 -1208h2l614 1208h369v-1444h-233v760l1 466h-2l-629 -1226h-241l-630 1226h-2l1 -466v-760h-233z" />
    <glyph glyph-name="N" unicode="N" horiz-adv-x="1950" 
d="M190 0v1444h271l1066 -1147h2l-1 277v870h233v-1444h-273l-1064 1146h-2l1 -277v-869h-233z" />
    <glyph glyph-name="O" unicode="O" horiz-adv-x="2112" 
d="M1052 -29q-277 0 -490.5 90t-334 261t-120.5 400v2q0 229 120.5 400t334 260.5t490.5 89.5t490.5 -89.5t334 -260.5t120.5 -400v-2q0 -229 -120.5 -400t-334 -261t-490.5 -90zM1052 168q148 0 274.5 37t219.5 106t146 174.5t53 236.5v2q0 131 -53 236.5t-146 174.5
t-219.5 105.5t-274.5 36.5t-274.5 -36.5t-219.5 -105.5t-146 -174.5t-53 -236.5v-2q0 -131 53 -236.5t146 -174.5t219.5 -106t274.5 -37z" />
    <glyph glyph-name="P" unicode="P" horiz-adv-x="1721" 
d="M190 1v1444h862q614 0 614 -444v-2q0 -443 -614 -443h-625v-555h-237zM427 758h614q197 0 285 53t88 188v2q0 135 -88 188t-285 53h-614v-484z" />
    <glyph glyph-name="Q" unicode="Q" horiz-adv-x="2112" 
d="M1052 -29q-277 0 -490.5 90t-334 261t-120.5 400v2q0 229 120.5 400t334 260.5t490.5 89.5t490.5 -89.5t334 -260.5t120.5 -400v-2q0 -204 -96 -362t-272 -256l399 -346h-312l-300 260q-167 -47 -364 -47zM1052 168q148 0 274.5 37t219.5 106t146 174.5t53 236.5v2
q0 131 -53 236.5t-146 174.5t-219.5 105.5t-274.5 36.5t-274.5 -36.5t-219.5 -105.5t-146 -174.5t-53 -236.5v-2q0 -131 53 -236.5t146 -174.5t219.5 -106t274.5 -37z" />
    <glyph glyph-name="R" unicode="R" horiz-adv-x="1847" 
d="M190 1v1444h930q556 0 556 -376v-2q0 -142 -66.5 -226.5t-195.5 -124.5q53 -12 86.5 -28.5t63.5 -49.5t47 -89t25 -141l13 -125q21 -215 47 -282h-247q-19 50 -28 140l-24 221q-8 80 -25.5 127t-54.5 72.5t-84 33.5t-129 8h-677v-602h-237zM427 806h666q176 0 254 48
t78 169v2q0 121 -78 169t-254 48h-666v-436z" />
    <glyph glyph-name="S" unicode="S" horiz-adv-x="1805" 
d="M927 -29q-346 0 -571 125.5t-270 351.5h260q25 -100 112.5 -165.5t207 -92.5t273.5 -27q537 0 537 223v3q0 50 -21.5 86t-58.5 60.5t-102.5 41.5t-137 27.5t-178.5 19.5l-248 29q-306 29 -452 132t-146 285v2q0 126 103 219t271 138t378 45q323 0 532.5 -112.5
t252.5 -316.5h-260q-40 125 -183 181t-356 56q-103 0 -189.5 -11t-156 -34.5t-108.5 -64.5t-39 -95v-2q0 -95 96 -146t330 -71l247 -29q135 -14 233 -33t185.5 -50.5t140.5 -75.5t83.5 -109t30.5 -151v-3q0 -112 -58 -196.5t-165 -136.5t-250.5 -77.5t-322.5 -25.5z" />
    <glyph glyph-name="T" unicode="T" horiz-adv-x="1675" 
d="M720 1v1240h-698v204h1633v-204h-698v-1240h-237z" />
    <glyph glyph-name="U" unicode="U" horiz-adv-x="1895" 
d="M948 -29q-246 0 -417 68t-265.5 215.5t-94.5 369.5v820h237v-815q0 -232 139 -346.5t401 -114.5q263 0 402 114.5t139 346.5v815h237v-820q0 -331 -202.5 -492t-575.5 -161z" />
    <glyph glyph-name="V" unicode="V" horiz-adv-x="1829" 
d="M780 0l-774 1444h270l650 -1215h1l651 1215h246l-774 -1444h-270z" />
    <glyph glyph-name="W" unicode="W" horiz-adv-x="2700" 
d="M584 0l-557 1444h254l466 -1203h1l449 1203h310l456 -1209h1l467 1209h242l-555 -1444h-312l-457 1223h-1l-453 -1223h-311z" />
    <glyph glyph-name="X" unicode="X" horiz-adv-x="1817" 
d="M1 0l758 733l-728 711h311l574 -555l582 555h289l-728 -699l760 -745h-311l-605 589l-613 -589h-289z" />
    <glyph glyph-name="Y" unicode="Y" horiz-adv-x="1812" 
d="M789 0v534l-772 910h291l502 -597l96 -118h3l96 118l499 597h290l-768 -909v-535h-237z" />
    <glyph glyph-name="Z" unicode="Z" horiz-adv-x="1609" 
d="M77 0v200l1115 1041h-1069v203h1378v-199l-1116 -1042h1139v-203h-1447z" />
    <glyph glyph-name="bracketleft" unicode="[" horiz-adv-x="773" 
d="M189 -333v1778h529v-180h-322v-1418h322v-180h-529z" />
    <glyph glyph-name="backslash" unicode="\" horiz-adv-x="1150" 
d="M260 1444l848 -1655h-224l-848 1655h224z" />
    <glyph glyph-name="bracketright" unicode="]" horiz-adv-x="773" 
d="M56 -333v180h323v1418h-323v180h529v-1778h-529z" />
    <glyph glyph-name="asciicircum" unicode="^" horiz-adv-x="1456" 
d="M59 585l551 859h236l552 -859h-246l-423 661h-1l-423 -661h-246z" />
    <glyph glyph-name="underscore" unicode="_" horiz-adv-x="1315" 
d="M114 -304v204h1088v-204h-1088z" />
    <glyph glyph-name="grave" unicode="`" horiz-adv-x="671" 
d="M380 1210l-321 234h330l249 -234h-258z" />
    <glyph glyph-name="a" unicode="a" horiz-adv-x="1493" 
d="M603 -29q-237 0 -378.5 84.5t-141.5 240.5v2q0 65 23 116.5t70.5 88.5t106.5 63.5t145.5 44.5t172.5 29.5t201 20.5q88 6 139.5 12t88.5 13t53 19.5t22 27t6 39.5v2q0 74 -92 113t-267 39q-356 0 -372 -188h-241q4 168 168.5 264.5t443.5 96.5q115 0 204 -11t164 -36.5
t123.5 -67t75 -104.5t25.5 -146l-5 -372q-2 -130 4 -204t26 -158h-229q-17 76 -19 128q-139 -157 -517 -157zM641 143q475 0 475 292v123q-107 -34 -328 -59q-277 -37 -369.5 -72.5t-92.5 -118.5v-1q1 -82 81.5 -123t233.5 -41z" />
    <glyph glyph-name="b" unicode="b" horiz-adv-x="1639" 
d="M896 -29q-180 0 -306.5 50.5t-193.5 130.5v-152h-228v1445h228v-528q67 80 193.5 130t306.5 50q138 0 257.5 -38t208.5 -108.5t139.5 -177.5t50.5 -237v-3q0 -130 -50.5 -237.5t-139.5 -177.5t-208.5 -108.5t-257.5 -38.5zM848 151q89 0 168.5 21.5t147 65.5t107 120
t39.5 175v3q0 99 -39.5 175t-107 119.5t-147 65t-168.5 21.5t-169.5 -21.5t-148 -65t-107.5 -119.5t-40 -175v-3q0 -80 26.5 -145.5t71 -108.5t105.5 -72.5t126 -42.5t136 -13z" />
    <glyph glyph-name="c" unicode="c" horiz-adv-x="1518" 
d="M782 -29q-197 0 -353.5 66.5t-249 196t-92.5 301.5v2q0 171 93.5 300t250.5 195t354 66q257 0 437 -100t226 -278h-245q-44 99 -158.5 148.5t-260.5 49.5q-91 0 -172 -24t-144.5 -70t-101 -120t-37.5 -167v-2q0 -93 37.5 -168t101 -121t144.5 -70.5t172 -24.5
q146 0 260.5 50t158.5 149h245q-46 -178 -227 -278.5t-439 -100.5z" />
    <glyph glyph-name="d" unicode="d" horiz-adv-x="1639" 
d="M745 -29q-138 0 -258 38.5t-208.5 108.5t-139.5 177.5t-51 237.5v3q0 173 88 302t235.5 194t333.5 65q180 0 306 -50t194 -130v528h228v-1445h-228v152q-68 -80 -194 -130.5t-306 -50.5zM793 151q71 0 136 13t126 42.5t105.5 72.5t71 108.5t26.5 145.5v3q0 99 -40 175
t-107.5 119.5t-148 65t-169.5 21.5q-71 0 -136 -13t-125.5 -42t-104.5 -72.5t-70.5 -108.5t-26.5 -145v-3q0 -99 39.5 -175t107 -120t147.5 -65.5t169 -21.5z" />
    <glyph glyph-name="e" unicode="e" horiz-adv-x="1578" 
d="M795 -29q-208 0 -368 67.5t-250 196.5t-90 302v2q0 172 94.5 300.5t253 193.5t357.5 65q306 0 499.5 -164.5t205.5 -470.5v-1h-1166v-1q26 -149 154.5 -230t314.5 -81q154 0 267.5 41t166.5 123h247q-64 -161 -244 -252t-442 -91zM788 923q-118 0 -208.5 -28t-156 -92.5
t-89.5 -162.5v-1h906v1q-30 137 -150.5 210t-301.5 73z" />
    <glyph glyph-name="f" unicode="f" horiz-adv-x="979" 
d="M314 0v883h-275v184h275v36q0 188 93.5 265t324.5 77h229v-185h-223q-119 0 -157.5 -28t-38.5 -126v-39h419v-184h-419v-883h-228z" />
    <glyph glyph-name="g" unicode="g" horiz-adv-x="1640" 
d="M730 46q-176 0 -319.5 59t-231.5 178.5t-88 281.5v2q0 161 88 283.5t232 184.5t319 62q192 0 325.5 -50.5t193.5 -130.5v151h228v-889q0 -536 -694 -536q-271 0 -439.5 88t-206.5 261h245q51 -169 403 -169q79 0 140.5 7t124.5 27.5t105 55t68 94t26 139.5v80
q-60 -79 -193.5 -129t-325.5 -50zM794 224q89 0 169 19.5t147 58.5t107 107t40 156v2q0 88 -40 157.5t-107 110t-147.5 61.5t-168.5 21q-70 0 -135 -12t-125 -39t-104 -67t-70.5 -99.5t-26.5 -132.5v-2q0 -73 26.5 -131.5t70.5 -97t104.5 -64.5t125 -37t134.5 -11z" />
    <glyph glyph-name="h" unicode="h" 
d="M168 0v1445h228v-535q63 84 179.5 135.5t286.5 51.5q260 0 404.5 -128.5t144.5 -376.5v-592h-228v544q0 184 -101.5 276.5t-292.5 92.5t-292 -92.5t-101 -276.5v-544h-228z" />
    <glyph glyph-name="i" unicode="i" horiz-adv-x="562" 
d="M168 0v1067h228v-1067h-228zM168 1206v238h228v-238h-228z" />
    <glyph glyph-name="j" unicode="j" horiz-adv-x="562" 
d="M-120 -333v185h98q59 0 91.5 6t57 27t33 59t8.5 104v1019h228v-1022q0 -109 -22.5 -181t-73.5 -116t-127 -62.5t-191 -18.5h-102zM168 1206v238h228v-238h-228z" />
    <glyph glyph-name="k" unicode="k" horiz-adv-x="1451" 
d="M168 0v1444h227v-832l704 455h328l-793 -506l851 -561h-379l-710 468v-468h-228z" />
    <glyph glyph-name="l" unicode="l" horiz-adv-x="562" 
d="M168 0v1444h228v-1444h-228z" />
    <glyph glyph-name="m" unicode="m" horiz-adv-x="2574" 
d="M168 0v1067h228v-152q62 83 178.5 132.5t287.5 49.5q178 0 303 -59.5t187 -176.5q166 236 525 236q261 0 405 -128t144 -377v-592h-228v544q0 184 -101.5 276.5t-292.5 92.5t-292 -92.5t-101 -276.5v-544h-228v544q0 184 -101.5 276.5t-292.5 92.5t-292 -92.5
t-101 -276.5v-544h-228z" />
    <glyph glyph-name="n" unicode="n" 
d="M168 0v1067h228v-152q62 83 178.5 132.5t287.5 49.5q260 0 404.5 -128.5t144.5 -376.5v-592h-228v544q0 184 -101.5 276.5t-292.5 92.5t-292 -92.5t-101 -276.5v-544h-228z" />
    <glyph glyph-name="o" unicode="o" horiz-adv-x="1616" 
d="M809 -29q-332 0 -527 154t-195 410v2q0 254 195 407.5t527 153.5t526.5 -153t194.5 -408v-2q0 -256 -194.5 -410t-526.5 -154zM809 151q215 0 347 102.5t132 281.5v2q0 178 -132 279.5t-347 101.5t-347.5 -101.5t-132.5 -279.5v-2q0 -178 132.5 -281t347.5 -103z" />
    <glyph glyph-name="p" unicode="p" horiz-adv-x="1639" 
d="M896 -29q-180 0 -306.5 50.5t-193.5 130.5v-486h-228v1401h228v-150q67 80 193.5 130t306.5 50q138 0 257.5 -38t208.5 -108.5t139.5 -177.5t50.5 -237v-3q0 -130 -50.5 -237.5t-139.5 -177.5t-208.5 -108.5t-257.5 -38.5zM848 151q89 0 168.5 21.5t147 65.5t107 120
t39.5 175v3q0 99 -39.5 175t-107 119.5t-147 65t-168.5 21.5t-169.5 -21.5t-148 -65t-107.5 -119.5t-40 -175v-3q0 -80 26.5 -145.5t71 -108.5t105.5 -72.5t126 -42.5t136 -13z" />
    <glyph glyph-name="q" unicode="q" horiz-adv-x="1636" 
d="M745 -29q-138 0 -258 38.5t-208.5 108.5t-139.5 177.5t-51 237.5v3q0 173 88 302t235.5 194t333.5 65q180 0 306 -50t194 -130v150h228v-1401h-228v486q-68 -80 -194 -130.5t-306 -50.5zM793 151q71 0 136 13t126 42.5t105.5 72.5t71 108.5t26.5 145.5v3q0 99 -40 175
t-107.5 119.5t-148 65t-169.5 21.5q-71 0 -136 -13t-125.5 -42t-104.5 -72.5t-70.5 -108.5t-26.5 -145v-3q0 -99 39.5 -175t107 -120t147.5 -65.5t169 -21.5z" />
    <glyph glyph-name="r" unicode="r" horiz-adv-x="929" 
d="M168 1v1067h226v-211q51 100 172.5 162.5t277.5 62.5h57v-210h-90q-196 0 -305.5 -81t-109.5 -247v-543h-228z" />
    <glyph glyph-name="s" unicode="s" horiz-adv-x="1466" 
d="M754 -29q-189 0 -333 39t-236 120.5t-114 200.5h244q15 -55 55 -93.5t103 -59t134 -29t162 -8.5q192 0 289.5 35t97.5 113v2q0 38 -18.5 63.5t-62 42t-99 25.5t-144.5 16l-252 21q-479 36 -479 315v2q0 97 80 171t218 112.5t313 38.5q267 0 437.5 -81t204.5 -243h-243
q-17 46 -55.5 77.5t-95.5 48t-117.5 23t-135.5 6.5q-182 0 -275.5 -37t-93.5 -106v-2q0 -62 64 -93t210 -42l260 -21q102 -9 178 -22t143.5 -36.5t110 -57t66.5 -83.5t24 -115v-2q0 -163 -168.5 -252t-471.5 -89z" />
    <glyph glyph-name="t" unicode="t" horiz-adv-x="996" 
d="M692 0q-93 0 -156.5 10t-110 33.5t-72.5 66t-38 102.5t-12 148v523h-274v184h274v358h228v-358h380v-184h-380v-510q0 -82 15 -119.5t57.5 -53.5t132.5 -16h164v-184h-208z" />
    <glyph glyph-name="u" unicode="u" 
d="M699 -29q-260 0 -404.5 128.5t-144.5 376.5v591h228v-542q0 -185 101.5 -277.5t292.5 -92.5t292 92.5t101 277.5v542h228v-1067h-228v159q-63 -84 -180 -136t-286 -52z" />
    <glyph glyph-name="v" unicode="v" horiz-adv-x="1456" 
d="M600 0l-586 1067h262l463 -862h1l469 862h235l-589 -1067h-255z" />
    <glyph glyph-name="w" unicode="w" horiz-adv-x="2292" 
d="M496 0l-471 1067h249l370 -851h1l387 851h249l394 -846h1l369 846h224l-471 -1067h-254l-399 855h-1l-392 -855h-256z" />
    <glyph glyph-name="x" unicode="x" horiz-adv-x="1490" 
d="M1 0l598 541l-576 526h301l427 -385l434 385h284l-578 -518l598 -549h-300l-449 407l-457 -407h-282z" />
    <glyph glyph-name="y" unicode="y" horiz-adv-x="1495" 
d="M211 -333v184h132q129 0 173 21.5t94 113.5l11 21l-611 1060h263l479 -842l498 842h242l-661 -1110q-39 -66 -69.5 -110t-64.5 -78t-65.5 -52.5t-76 -30.5t-91 -15.5t-115.5 -3.5h-138z" />
    <glyph glyph-name="z" unicode="z" horiz-adv-x="1392" 
d="M81 0v179l880 704h-851v184h1176v-178l-889 -705h914v-184h-1230z" />
    <glyph glyph-name="braceleft" unicode="{" horiz-adv-x="735" 
d="M528 -333q-160 0 -231.5 69t-71.5 237v307q0 38 -3 65.5t-14.5 48t-19.5 31.5t-33 23.5t-38 17t-52 17.5v148q85 28 109 46q45 34 50 123q1 16 1 35v304q0 168 71.5 237t231.5 69h126v-180h-86q-91 0 -113.5 -25t-22.5 -125v-252q0 -131 -40 -199t-142 -106v-2
q102 -38 142 -106t40 -199v-254q0 -102 22 -126t114 -24h86v-180h-126z" />
    <glyph glyph-name="bar" unicode="|" horiz-adv-x="586" 
d="M190 -333v1777h207v-1777h-207z" />
    <glyph glyph-name="braceright" unicode="}" horiz-adv-x="735" 
d="M83 -333v180h86q93 0 114.5 24t21.5 126v254q0 131 40 199t142 106v2q-102 38 -142 106t-40 199v252q0 100 -22.5 125t-113.5 25h-86v180h127q159 0 230 -69t71 -237v-304q0 -32 3.5 -57t7.5 -42.5t16 -32t20 -23t29.5 -18t33.5 -14t42 -14.5l9 -3v-148q-85 -28 -109 -46
q-46 -34 -51 -124q-1 -15 -1 -33v-307q0 -168 -71 -237t-230 -69h-127z" />
    <glyph glyph-name="asciitilde" unicode="~" horiz-adv-x="1550" 
d="M302 568l-175 71q57 137 154.5 215.5t229.5 78.5q73 0 138.5 -20.5t114.5 -49.5t94.5 -58t97 -49.5t102.5 -20.5q79 0 124 43.5t83 127.5l175 -72q-56 -136 -154 -215t-230 -79q-73 0 -138.5 20.5t-114 49.5t-94 58t-97 49.5t-103.5 20.5q-78 0 -123.5 -43.5
t-83.5 -126.5z" />
    <glyph glyph-name="uni00A0" unicode="&#xa0;" horiz-adv-x="594" 
 />
    <glyph glyph-name="exclamdown" unicode="&#xa1;" horiz-adv-x="579" 
d="M461 1111v-258h-244v258h244zM425 668l32 -488l-1 -514h-232v514l32 488h169z" />
    <glyph glyph-name="cent" unicode="&#xa2;" horiz-adv-x="1570" 
d="M700 221v192q-167 20 -295.5 90.5t-204 191t-75.5 274.5v2q0 153 75.5 273t204 190t295.5 91v194h208v-189q226 -17 381 -115.5t197 -260.5h-245q-44 99 -158.5 149t-261.5 50q-90 0 -171 -24.5t-144.5 -70.5t-101 -120t-37.5 -167v-2q0 -93 37.5 -168t101 -121
t144.5 -70.5t172 -24.5q146 0 260.5 50t158.5 149h245q-42 -161 -197.5 -259.5t-380.5 -116.5v-187h-208z" />
    <glyph glyph-name="sterling" unicode="&#xa3;" horiz-adv-x="1700" 
d="M136 0v175q152 21 228.5 97.5t76.5 189.5v3q0 76 -41 170h-305v186h211q-53 118 -53 214v6q0 129 85.5 228t236.5 152t344 53q181 0 320.5 -44.5t235.5 -141t130 -239.5l-244 -1q-26 90 -90.5 145t-150 76.5t-202.5 21.5q-194 0 -306 -66t-112 -186v-4q0 -95 55 -214h777
v-186h-683q39 -92 39 -172v-4q0 -80 -40.5 -150t-115.5 -114h1068v-195h-1464z" />
    <glyph glyph-name="currency" unicode="&#xa4;" horiz-adv-x="1421" 
d="M712 218q-158 0 -280 79l-183 -183l-131 130l181 182q-81 122 -81 283q0 163 82 284l-181 183l131 130l182 -184q123 78 280 78t279 -78l183 184l131 -130l-182 -184q81 -122 81 -283t-81 -283l182 -182l-131 -130l-182 183q-122 -79 -280 -79zM712 393q135 0 221 85.5
t86 230.5t-86 231t-221 86t-221.5 -86t-86.5 -231t86.5 -230.5t221.5 -85.5z" />
    <glyph glyph-name="yen" unicode="&#xa5;" horiz-adv-x="1874" 
d="M822 1v197h-528v184h528v133h-528v184h391l-635 745h291l502 -597l96 -118h3l96 118l498 597h291l-632 -745h387v-184h-523v-133h523v-184h-523v-197h-237z" />
    <glyph glyph-name="brokenbar" unicode="&#xa6;" horiz-adv-x="586" 
d="M190 700v744h207v-744h-207zM190 -333v744h207v-744h-207z" />
    <glyph glyph-name="section" unicode="&#xa7;" horiz-adv-x="1557" 
d="M792 -218q-179 0 -321 45t-234.5 133.5t-118.5 212.5h242q25 -78 90.5 -129t152.5 -73t195 -22q193 0 294 46t101 132v2q0 83 -82 124t-269 60l-259 32q-231 26 -347 103.5t-116 218.5v2q0 84 58 153.5t146 104.5q-182 87 -182 268v1q0 101 78 179t215 119.5t312 41.5
q256 0 425.5 -90t210.5 -263h-241q-76 187 -399 187q-166 0 -267.5 -44.5t-101.5 -123.5v-2q0 -70 71 -112t224 -58l259 -33q104 -12 180.5 -27.5t145.5 -41t111.5 -60.5t67.5 -86t25 -117v-3q0 -87 -51.5 -157.5t-135.5 -109.5q155 -81 155 -245v-2q0 -175 -168.5 -270.5
t-465.5 -95.5zM613 855q-9 1 -29 3.5t-30 4.5q-93 -14 -147.5 -61.5t-54.5 -109.5v-2q0 -75 67.5 -114t219.5 -56l261 -33q78 -8 156 -23q80 18 124.5 64t44.5 107v3q0 84 -82 123.5t-273 60.5z" />
    <glyph glyph-name="dieresis" unicode="&#xa8;" horiz-adv-x="954" 
d="M35 1210v234h228v-234h-228zM693 1210v234h227v-234h-227z" />
    <glyph glyph-name="copyright" unicode="&#xa9;" horiz-adv-x="2203" 
d="M1087 285q-152 0 -274.5 52t-195 152.5t-72.5 232.5v2q0 132 72.5 232.5t195 152.5t274.5 52q197 0 337.5 -79t180.5 -216h-191q-34 78 -123.5 119.5t-202.5 41.5q-147 0 -251 -80.5t-104 -222.5v-2q0 -142 104 -222t251 -80q113 0 202.5 41t123.5 119h191
q-40 -137 -180.5 -216t-337.5 -79zM1102 -59q-166 0 -317 38.5t-270 109t-207 166.5t-135 216t-47 252v2q0 220 126 398.5t349.5 280.5t500.5 102q207 0 388.5 -60t310.5 -163.5t203 -248t74 -309.5v-2q0 -165 -74 -310t-203 -248.5t-310.5 -163.5t-388.5 -60zM1102 62
q181 0 336.5 50.5t263.5 138.5t169.5 210t61.5 262v2q0 140 -61.5 262t-170 209.5t-263.5 138t-336 50.5q-241 0 -431.5 -86t-295 -236.5t-104.5 -337.5v-2q0 -140 61.5 -262t169.5 -210t263.5 -138.5t336.5 -50.5z" />
    <glyph glyph-name="guillemotleft" unicode="&#xab;" horiz-adv-x="1237" 
d="M386 192l-291 382l291 381h244l-284 -381l284 -382h-244zM871 192l-291 382l291 381h244l-284 -381l284 -382h-244z" />
    <glyph glyph-name="logicalnot" unicode="&#xac;" horiz-adv-x="1525" 
d="M118 865v203h1252v-692h-208v489h-1044z" />
    <glyph glyph-name="uni00AD" unicode="&#xad;" horiz-adv-x="988" 
d="M145 448v204h700v-204h-700z" />
    <glyph glyph-name="registered" unicode="&#xae;" horiz-adv-x="1754" 
d="M878 278q-211 0 -382 77.5t-267.5 214t-96.5 304.5v3q0 168 96.5 305t267.5 214.5t382 77.5t381.5 -77.5t267 -214.5t96.5 -305v-3q0 -168 -96.5 -304.5t-267 -214t-381.5 -77.5zM878 374q278 0 454.5 142t176.5 358v3q0 216 -176.5 358t-454.5 142t-455 -142t-177 -358
v-3q0 -216 177 -358t455 -142zM558 554v646h412q129 0 192 -51.5t63 -138.5v-1q0 -79 -50.5 -129t-153.5 -60l239 -266h-169l-233 260h-170v-260h-130zM688 917h266q69 0 104.5 24t35.5 68v1q0 39 -35.5 63t-104.5 24h-266v-180z" />
    <glyph glyph-name="macron" unicode="&#xaf;" horiz-adv-x="825" 
d="M34 1244v154h758v-154h-758z" />
    <glyph glyph-name="degree" unicode="&#xb0;" horiz-adv-x="1045" 
d="M523 748q-190 0 -312.5 104t-122.5 259t122.5 259t312.5 104t313 -104t123 -259t-123 -259t-313 -104zM523 915q106 0 173.5 54t67.5 142t-67.5 142t-173.5 54t-173 -53.5t-67 -141.5q0 -89 67 -143t173 -54z" />
    <glyph glyph-name="plusminus" unicode="&#xb1;" horiz-adv-x="1533" 
d="M663 326v439h-522v203h522v440h208v-440h522v-203h-522v-439h-208zM142 0v203h1251v-203h-1251z" />
    <glyph glyph-name="twosuperior" unicode="&#xb2;" horiz-adv-x="1089" 
d="M52 963v11q0 152 98 247.5t326 175.5l123 41q122 42 171 79t49 98v1q0 68 -70.5 102.5t-194.5 34.5q-273 0 -287 -198h-185q13 159 138.5 244t335.5 85q211 0 329 -69t118 -196v-1q0 -109 -76.5 -174t-255.5 -126l-121 -39q-139 -51 -198 -85t-84 -87h757v-144h-973z" />
    <glyph glyph-name="threesuperior" unicode="&#xb3;" horiz-adv-x="1122" 
d="M566 944q-218 0 -358.5 80.5t-157.5 224.5h188q11 -61 60.5 -101.5t116 -56.5t150.5 -16q141 0 221.5 36t80.5 107v2q0 70 -79 105.5t-225 35.5h-79v138h81q269 0 269 127v1q0 62 -73.5 94t-197.5 32q-120 0 -199.5 -41t-91.5 -122h-188q21 137 149.5 215.5t333.5 78.5
q203 0 325.5 -64t122.5 -182v-1q0 -73 -45 -124.5t-123 -72.5v-1q95 -23 151 -76.5t56 -140.5v-1q0 -133 -134 -205t-354 -72z" />
    <glyph glyph-name="acute" unicode="&#xb4;" horiz-adv-x="670" 
d="M34 1210l249 234h329l-331 -234h-247z" />
    <glyph glyph-name="paragraph" unicode="&#xb6;" horiz-adv-x="1527" 
d="M497 -197v883q-210 11 -321.5 108.5t-111.5 270.5q0 183 125.5 281.5t359.5 98.5h911v-180h-277v-1462h-190v1462h-307v-1462h-189z" />
    <glyph glyph-name="periodcentered" unicode="&#xb7;" horiz-adv-x="533" 
d="M145 422v258h245v-258h-245z" />
    <glyph glyph-name="cedilla" unicode="&#xb8;" horiz-adv-x="629" 
d="M288 -418q-130 0 -254 47l44 97q93 -41 197 -41q128 0 128 58q0 55 -106 55q-60 0 -108 -23l-76 55l184 211h138l-142 -161q39 11 91 11q87 0 150 -34t63 -104q0 -79 -87 -125t-222 -46z" />
    <glyph glyph-name="onesuperior" unicode="&#xb9;" horiz-adv-x="599" 
d="M296 964v650h-259v139h74q109 0 150.5 21t66.5 93h148v-903h-180z" />
    <glyph glyph-name="guillemotright" unicode="&#xbb;" horiz-adv-x="1237" 
d="M1144 574l-292 -382h-244l285 382l-285 381h244zM659 574l-292 -382h-243l284 382l-284 381h243z" />
    <glyph glyph-name="onequarter" unicode="&#xbc;" horiz-adv-x="2220" 
d="M1802 0v201h-713v141l713 561h179v-562h202v-140h-202v-201h-179zM185 0l1185 1505h223l-1185 -1505h-223zM290 602v651h-260v139h75q109 0 150.5 20.5t66.5 92.5h147v-903h-179zM1297 341h505v394h-1l-136 -100z" />
    <glyph glyph-name="onehalf" unicode="&#xbd;" horiz-adv-x="2231" 
d="M1195 0v11q0 152 98 247.5t326 175.5l123 41q121 42 170.5 79.5t49.5 97.5v1q0 69 -71 103.5t-195 34.5q-274 0 -286 -198h-185q13 158 138.5 243.5t335.5 85.5q211 0 329 -69t118 -197q0 -110 -76.5 -174.5t-255.5 -126.5l-121 -39q-138 -49 -197.5 -84t-84.5 -87h757
v-145h-973zM185 0l1185 1505h223l-1185 -1505h-223zM290 602v651h-260v139h75q109 0 150.5 20.5t66.5 92.5h147v-903h-179z" />
    <glyph glyph-name="threequarters" unicode="&#xbe;" horiz-adv-x="2731" 
d="M2311 0v201h-713v141l713 561h179v-562h202v-140h-202v-201h-179zM566 584q-218 0 -358.5 80t-157.5 224h188q16 -89 106.5 -131t220.5 -42q141 0 221.5 35.5t80.5 106.5v2q0 70 -79 106t-225 36h-79v138h81q269 0 269 127v1q0 62 -73.5 94t-197.5 32q-120 0 -199.5 -41
t-91.5 -122h-188q20 137 149 215.5t334 78.5q203 0 325.5 -64t122.5 -182v-2q0 -72 -45 -124t-123 -73v-1q95 -22 151 -76t56 -141v-1q0 -133 -134.5 -204.5t-353.5 -71.5zM695 0l1185 1505h223l-1185 -1505h-223zM1806 341h505v394h-1l-136 -100z" />
    <glyph glyph-name="questiondown" unicode="&#xbf;" horiz-adv-x="1554" 
d="M989 1111v-258h-244v258h244zM830 -181q236 0 352.5 69t117.5 227h250q-3 -154 -95 -263t-251.5 -162t-373.5 -53q-348 0 -536 99.5t-188 274.5v1q0 114 75.5 192t214.5 139l125 55q60 27 94.5 45t65 40.5t44.5 47.5t22 57.5t9 79.5h223q0 -106 -32.5 -176.5t-94 -117
t-176.5 -97.5l-124 -56q-112 -48 -156 -92t-44 -110v-1q0 -95 121 -147t357 -52z" />
    <glyph glyph-name="Agrave" unicode="&#xc0;" horiz-adv-x="1798" 
d="M8 1l756 1444h272l756 -1444h-266l-214 409h-847l-212 -409h-245zM571 613h634l-317 613h-2zM824 1618l-381 264h330l310 -264h-259z" />
    <glyph glyph-name="Aacute" unicode="&#xc1;" horiz-adv-x="1798" 
d="M8 1l756 1444h272l756 -1444h-266l-214 409h-847l-212 -409h-245zM571 613h634l-317 613h-2zM717 1618l310 264h330l-381 -264h-259z" />
    <glyph glyph-name="Acircumflex" unicode="&#xc2;" horiz-adv-x="1798" 
d="M8 1l756 1444h272l756 -1444h-266l-214 409h-847l-212 -409h-245zM571 613h634l-317 613h-2zM409 1618l337 264h307l338 -264h-282l-209 160l-209 -160h-282z" />
    <glyph glyph-name="Atilde" unicode="&#xc3;" horiz-adv-x="1798" 
d="M8 1l756 1444h272l756 -1444h-266l-214 409h-847l-212 -409h-245zM571 613h634l-317 613h-2zM444 1618q8 122 69.5 193t173.5 71q76 0 151 -25t134.5 -50t98.5 -25q55 0 77.5 23t26.5 77h181q-9 -122 -70.5 -193t-172.5 -71q-61 0 -121.5 16t-100.5 34.5t-84.5 34.5
t-76.5 16q-55 0 -78 -23t-28 -78h-180z" />
    <glyph glyph-name="Adieresis" unicode="&#xc4;" horiz-adv-x="1798" 
d="M8 1l756 1444h272l756 -1444h-266l-214 409h-847l-212 -409h-245zM571 613h634l-317 613h-2zM433 1635v247h237v-247h-237zM1132 1635v247h237v-247h-237z" />
    <glyph glyph-name="Aring" unicode="&#xc5;" horiz-adv-x="1798" 
d="M8 1l756 1444h272l756 -1444h-266l-214 409h-847l-212 -409h-245zM571 613h634l-317 613h-2zM901 1536q-98 0 -167.5 65t-69.5 163t69.5 163.5t167.5 65.5q97 0 166.5 -65.5t69.5 -163.5t-69.5 -163t-166.5 -65zM901 1645q51 0 83 33t32 86t-32 86t-83 33q-52 0 -84 -33
t-32 -86t32 -86t84 -33z" />
    <glyph glyph-name="AE" unicode="&#xc6;" horiz-adv-x="2671" 
d="M-70 0l1231 1445h1386v-204h-1118v-407h1053v-203h-1053v-428h1120v-203h-1357v425h-638l-357 -425h-267zM716 617h476v562z" />
    <glyph glyph-name="Ccedilla" unicode="&#xc7;" horiz-adv-x="1993" 
d="M1049 -29q-212 0 -389 54t-300 151t-191 237.5t-68 308.5v2q0 224 117 394.5t332.5 263t498.5 92.5q331 0 566 -132.5t307 -358.5h-262q-41 97 -135.5 164.5t-215 98.5t-260.5 31q-198 0 -353.5 -62t-249 -189t-93.5 -302v-2q0 -132 53.5 -238t148 -174.5t221 -105
t273.5 -36.5q215 0 382.5 75.5t228.5 218.5h262q-72 -226 -307 -358.5t-566 -132.5zM1006 -418q-130 0 -254 47l44 97q93 -41 197 -41q128 0 128 58q0 55 -106 55q-60 0 -108 -23l-76 55l184 211h138l-142 -161q39 11 91 11q87 0 150 -34t63 -104q0 -79 -87 -125t-222 -46z
" />
    <glyph glyph-name="Egrave" unicode="&#xc8;" horiz-adv-x="1669" 
d="M190 0v1444h1355v-203h-1118v-407h1053v-203h-1053v-428h1120v-203h-1357zM793 1618l-381 264h330l310 -264h-259z" />
    <glyph glyph-name="Eacute" unicode="&#xc9;" horiz-adv-x="1669" 
d="M190 0v1444h1355v-203h-1118v-407h1053v-203h-1053v-428h1120v-203h-1357zM687 1618l310 264h330l-381 -264h-259z" />
    <glyph glyph-name="Ecircumflex" unicode="&#xca;" horiz-adv-x="1669" 
d="M190 0v1444h1355v-203h-1118v-407h1053v-203h-1053v-428h1120v-203h-1357zM378 1618l337 264h307l338 -264h-282l-209 160l-209 -160h-282z" />
    <glyph glyph-name="Edieresis" unicode="&#xcb;" horiz-adv-x="1669" 
d="M190 0v1444h1355v-203h-1118v-407h1053v-203h-1053v-428h1120v-203h-1357zM403 1635v247h237v-247h-237zM1102 1635v247h237v-247h-237z" />
    <glyph glyph-name="Igrave" unicode="&#xcc;" horiz-adv-x="617" 
d="M190 0v1444h237v-1444h-237zM233 1618l-381 264h330l310 -264h-259z" />
    <glyph glyph-name="Iacute" unicode="&#xcd;" horiz-adv-x="617" 
d="M190 0v1444h237v-1444h-237zM127 1618l310 264h330l-381 -264h-259z" />
    <glyph glyph-name="Icircumflex" unicode="&#xce;" horiz-adv-x="617" 
d="M190 0v1444h237v-1444h-237zM-182 1618l337 264h307l338 -264h-282l-209 160l-209 -160h-282z" />
    <glyph glyph-name="Idieresis" unicode="&#xcf;" horiz-adv-x="617" 
d="M190 0v1444h237v-1444h-237zM-158 1635v247h237v-247h-237zM541 1635v247h237v-247h-237z" />
    <glyph glyph-name="Eth" unicode="&#xd0;" horiz-adv-x="1908" 
d="M52 627v200h173v618h641q150 0 281.5 -22t254 -75t210 -134t140 -206.5t52.5 -285.5v-2q0 -159 -52.5 -284t-140 -205.5t-210 -133.5t-254 -75t-281.5 -22h-641v627h-173zM462 202h401q689 0 689 518v2q0 125 -42 220t-107.5 150.5t-159.5 90.5t-184.5 47t-195.5 12h-401
v-415h534v-200h-534v-425z" />
    <glyph glyph-name="Ntilde" unicode="&#xd1;" horiz-adv-x="1950" 
d="M190 0v1444h271l1066 -1147h2l-1 277v870h233v-1444h-273l-1064 1146h-2l1 -277v-869h-233zM571 1618q8 122 69.5 193t173.5 71q76 0 151 -25t134.5 -50t98.5 -25q55 0 77.5 23t26.5 77h181q-9 -122 -70.5 -193t-172.5 -71q-61 0 -121.5 16t-100.5 34.5t-84.5 34.5
t-76.5 16q-55 0 -78 -23t-28 -78h-180z" />
    <glyph glyph-name="Ograve" unicode="&#xd2;" horiz-adv-x="2112" 
d="M1052 -29q-277 0 -490.5 90t-334 261t-120.5 400v2q0 229 120.5 400t334 260.5t490.5 89.5t490.5 -89.5t334 -260.5t120.5 -400v-2q0 -229 -120.5 -400t-334 -261t-490.5 -90zM1052 168q148 0 274.5 37t219.5 106t146 174.5t53 236.5v2q0 131 -53 236.5t-146 174.5
t-219.5 105.5t-274.5 36.5t-274.5 -36.5t-219.5 -105.5t-146 -174.5t-53 -236.5v-2q0 -131 53 -236.5t146 -174.5t219.5 -106t274.5 -37zM980 1618l-381 264h330l310 -264h-259z" />
    <glyph glyph-name="Oacute" unicode="&#xd3;" horiz-adv-x="2112" 
d="M1052 -29q-277 0 -490.5 90t-334 261t-120.5 400v2q0 229 120.5 400t334 260.5t490.5 89.5t490.5 -89.5t334 -260.5t120.5 -400v-2q0 -229 -120.5 -400t-334 -261t-490.5 -90zM1052 168q148 0 274.5 37t219.5 106t146 174.5t53 236.5v2q0 131 -53 236.5t-146 174.5
t-219.5 105.5t-274.5 36.5t-274.5 -36.5t-219.5 -105.5t-146 -174.5t-53 -236.5v-2q0 -131 53 -236.5t146 -174.5t219.5 -106t274.5 -37zM874 1618l310 264h330l-381 -264h-259z" />
    <glyph glyph-name="Ocircumflex" unicode="&#xd4;" horiz-adv-x="2112" 
d="M1052 -29q-277 0 -490.5 90t-334 261t-120.5 400v2q0 229 120.5 400t334 260.5t490.5 89.5t490.5 -89.5t334 -260.5t120.5 -400v-2q0 -229 -120.5 -400t-334 -261t-490.5 -90zM1052 168q148 0 274.5 37t219.5 106t146 174.5t53 236.5v2q0 131 -53 236.5t-146 174.5
t-219.5 105.5t-274.5 36.5t-274.5 -36.5t-219.5 -105.5t-146 -174.5t-53 -236.5v-2q0 -131 53 -236.5t146 -174.5t219.5 -106t274.5 -37zM565 1618l337 264h307l338 -264h-282l-209 160l-209 -160h-282z" />
    <glyph glyph-name="Otilde" unicode="&#xd5;" horiz-adv-x="2112" 
d="M1052 -29q-277 0 -490.5 90t-334 261t-120.5 400v2q0 229 120.5 400t334 260.5t490.5 89.5t490.5 -89.5t334 -260.5t120.5 -400v-2q0 -229 -120.5 -400t-334 -261t-490.5 -90zM1052 168q148 0 274.5 37t219.5 106t146 174.5t53 236.5v2q0 131 -53 236.5t-146 174.5
t-219.5 105.5t-274.5 36.5t-274.5 -36.5t-219.5 -105.5t-146 -174.5t-53 -236.5v-2q0 -131 53 -236.5t146 -174.5t219.5 -106t274.5 -37zM601 1618q8 122 69.5 193t173.5 71q76 0 151 -25t134.5 -50t98.5 -25q55 0 77.5 23t26.5 77h181q-9 -122 -70.5 -193t-172.5 -71
q-61 0 -121.5 16t-100.5 34.5t-84.5 34.5t-76.5 16q-55 0 -78 -23t-28 -78h-180z" />
    <glyph glyph-name="Odieresis" unicode="&#xd6;" horiz-adv-x="2112" 
d="M1052 -29q-277 0 -490.5 90t-334 261t-120.5 400v2q0 229 120.5 400t334 260.5t490.5 89.5t490.5 -89.5t334 -260.5t120.5 -400v-2q0 -229 -120.5 -400t-334 -261t-490.5 -90zM1052 168q148 0 274.5 37t219.5 106t146 174.5t53 236.5v2q0 131 -53 236.5t-146 174.5
t-219.5 105.5t-274.5 36.5t-274.5 -36.5t-219.5 -105.5t-146 -174.5t-53 -236.5v-2q0 -131 53 -236.5t146 -174.5t219.5 -106t274.5 -37zM590 1635v247h237v-247h-237zM1289 1635v247h237v-247h-237z" />
    <glyph glyph-name="multiply" unicode="&#xd7;" horiz-adv-x="1374" 
d="M252 154l-142 142l436 435l-436 436l142 142l436 -436l435 436l142 -142l-436 -436l436 -435l-142 -142l-435 436z" />
    <glyph glyph-name="Oslash" unicode="&#xd8;" horiz-adv-x="2112" 
d="M310 -98l154 208q-170 98 -263.5 254.5t-93.5 357.5v2q0 229 120.5 400t334 260.5t490.5 89.5q204 0 377 -50l216 294l160 -108l-191 -260q182 -96 282.5 -256.5t100.5 -369.5v-2q0 -229 -120.5 -400t-334 -261t-490.5 -90q-222 0 -408 60l-174 -237zM359 722
q0 -143 61 -253t173 -182l707 961q-118 29 -248 29q-148 0 -274.5 -36.5t-219.5 -105.5t-146 -174.5t-53 -236.5v-2zM1052 168q148 0 274.5 37t219.5 106t146 174.5t53 236.5v2q0 151 -68 265t-192 186l-712 -969q128 -38 279 -38z" />
    <glyph glyph-name="Ugrave" unicode="&#xd9;" horiz-adv-x="1895" 
d="M948 -29q-246 0 -417 68t-265.5 215.5t-94.5 369.5v820h237v-815q0 -232 139 -346.5t401 -114.5q263 0 402 114.5t139 346.5v815h237v-820q0 -331 -202.5 -492t-575.5 -161zM872 1618l-381 264h330l310 -264h-259z" />
    <glyph glyph-name="Uacute" unicode="&#xda;" horiz-adv-x="1895" 
d="M948 -29q-246 0 -417 68t-265.5 215.5t-94.5 369.5v820h237v-815q0 -232 139 -346.5t401 -114.5q263 0 402 114.5t139 346.5v815h237v-820q0 -331 -202.5 -492t-575.5 -161zM766 1618l310 264h330l-381 -264h-259z" />
    <glyph glyph-name="Ucircumflex" unicode="&#xdb;" horiz-adv-x="1895" 
d="M948 -29q-246 0 -417 68t-265.5 215.5t-94.5 369.5v820h237v-815q0 -232 139 -346.5t401 -114.5q263 0 402 114.5t139 346.5v815h237v-820q0 -331 -202.5 -492t-575.5 -161zM457 1618l337 264h307l338 -264h-282l-209 160l-209 -160h-282z" />
    <glyph glyph-name="Udieresis" unicode="&#xdc;" horiz-adv-x="1895" 
d="M948 -29q-246 0 -417 68t-265.5 215.5t-94.5 369.5v820h237v-815q0 -232 139 -346.5t401 -114.5q263 0 402 114.5t139 346.5v815h237v-820q0 -331 -202.5 -492t-575.5 -161zM482 1635v247h237v-247h-237zM1181 1635v247h237v-247h-237z" />
    <glyph glyph-name="Yacute" unicode="&#xdd;" horiz-adv-x="1812" 
d="M789 0v534l-772 910h291l502 -597l96 -118h3l96 118l499 597h290l-768 -909v-535h-237zM723 1618l310 264h330l-381 -264h-259z" />
    <glyph glyph-name="Thorn" unicode="&#xde;" horiz-adv-x="1754" 
d="M190 1l1 1444h236v-236h606q301 0 467 -109.5t166 -342.5v-2q0 -234 -166 -343.5t-467 -109.5h-606v-301h-237zM427 493h606q195 0 288 61t93 201v2q0 140 -93 201t-288 61h-606v-526z" />
    <glyph glyph-name="germandbls" unicode="&#xdf;" horiz-adv-x="1711" 
d="M168 0v936q0 272 182.5 404.5t521.5 132.5q291 0 462 -96t171 -270v-4q0 -117 -66 -197t-182 -121v-3q195 -33 283 -128.5t88 -233.5v-3q0 -203 -183.5 -310t-517.5 -107h-220v183h193q488 0 488 235v3q0 120 -115.5 180.5t-376.5 60.5h-153v179h134q180 0 284 61
t104 177v2q0 211 -395 211q-249 0 -361.5 -86t-112.5 -280v-926h-228z" />
    <glyph glyph-name="agrave" unicode="&#xe0;" horiz-adv-x="1493" 
d="M603 -29q-237 0 -378.5 84.5t-141.5 240.5v2q0 65 23 116.5t70.5 88.5t106.5 63.5t145.5 44.5t172.5 29.5t201 20.5q88 6 139.5 12t88.5 13t53 19.5t22 27t6 39.5v2q0 74 -92 113t-267 39q-356 0 -372 -188h-241q4 168 168.5 264.5t443.5 96.5q115 0 204 -11t164 -36.5
t123.5 -67t75 -104.5t25.5 -146l-5 -372q-2 -130 4 -204t26 -158h-229q-17 76 -19 128q-139 -157 -517 -157zM641 143q475 0 475 292v123q-107 -34 -328 -59q-277 -37 -369.5 -72.5t-92.5 -118.5v-1q1 -82 81.5 -123t233.5 -41zM671 1210l-321 234h330l249 -234h-258z" />
    <glyph glyph-name="aacute" unicode="&#xe1;" horiz-adv-x="1493" 
d="M603 -29q-237 0 -378.5 84.5t-141.5 240.5v2q0 65 23 116.5t70.5 88.5t106.5 63.5t145.5 44.5t172.5 29.5t201 20.5q88 6 139.5 12t88.5 13t53 19.5t22 27t6 39.5v2q0 74 -92 113t-267 39q-356 0 -372 -188h-241q4 168 168.5 264.5t443.5 96.5q115 0 204 -11t164 -36.5
t123.5 -67t75 -104.5t25.5 -146l-5 -372q-2 -130 4 -204t26 -158h-229q-17 76 -19 128q-139 -157 -517 -157zM641 143q475 0 475 292v123q-107 -34 -328 -59q-277 -37 -369.5 -72.5t-92.5 -118.5v-1q1 -82 81.5 -123t233.5 -41zM604 1210l249 234h329l-331 -234h-247z" />
    <glyph glyph-name="acircumflex" unicode="&#xe2;" horiz-adv-x="1493" 
d="M603 -29q-237 0 -378.5 84.5t-141.5 240.5v2q0 65 23 116.5t70.5 88.5t106.5 63.5t145.5 44.5t172.5 29.5t201 20.5q88 6 139.5 12t88.5 13t53 19.5t22 27t6 39.5v2q0 74 -92 113t-267 39q-356 0 -372 -188h-241q4 168 168.5 264.5t443.5 96.5q115 0 204 -11t164 -36.5
t123.5 -67t75 -104.5t25.5 -146l-5 -372q-2 -130 4 -204t26 -158h-229q-17 76 -19 128q-139 -157 -517 -157zM641 143q475 0 475 292v123q-107 -34 -328 -59q-277 -37 -369.5 -72.5t-92.5 -118.5v-1q1 -82 81.5 -123t233.5 -41zM280 1210l338 234h286l338 -234h-272
l-208 129l-210 -129h-272z" />
    <glyph glyph-name="atilde" unicode="&#xe3;" horiz-adv-x="1493" 
d="M603 -29q-237 0 -378.5 84.5t-141.5 240.5v2q0 65 23 116.5t70.5 88.5t106.5 63.5t145.5 44.5t172.5 29.5t201 20.5q88 6 139.5 12t88.5 13t53 19.5t22 27t6 39.5v2q0 74 -92 113t-267 39q-356 0 -372 -188h-241q4 168 168.5 264.5t443.5 96.5q115 0 204 -11t164 -36.5
t123.5 -67t75 -104.5t25.5 -146l-5 -372q-2 -130 4 -204t26 -158h-229q-17 76 -19 128q-139 -157 -517 -157zM641 143q475 0 475 292v123q-107 -34 -328 -59q-277 -37 -369.5 -72.5t-92.5 -118.5v-1q1 -82 81.5 -123t233.5 -41zM316 1210q8 123 69.5 194t173.5 71
q76 0 151 -25.5t134.5 -50.5t98.5 -25q55 0 77.5 23.5t26.5 77.5h181q-9 -123 -70.5 -194t-172.5 -71q-77 0 -151.5 25.5t-133.5 51t-98 25.5q-55 0 -78 -23.5t-28 -78.5h-180z" />
    <glyph glyph-name="adieresis" unicode="&#xe4;" horiz-adv-x="1493" 
d="M603 -29q-237 0 -378.5 84.5t-141.5 240.5v2q0 65 23 116.5t70.5 88.5t106.5 63.5t145.5 44.5t172.5 29.5t201 20.5q88 6 139.5 12t88.5 13t53 19.5t22 27t6 39.5v2q0 74 -92 113t-267 39q-356 0 -372 -188h-241q4 168 168.5 264.5t443.5 96.5q115 0 204 -11t164 -36.5
t123.5 -67t75 -104.5t25.5 -146l-5 -372q-2 -130 4 -204t26 -158h-229q-17 76 -19 128q-139 -157 -517 -157zM641 143q475 0 475 292v123q-107 -34 -328 -59q-277 -37 -369.5 -72.5t-92.5 -118.5v-1q1 -82 81.5 -123t233.5 -41zM319 1210v234h228v-234h-228zM977 1210v234
h227v-234h-227z" />
    <glyph glyph-name="aring" unicode="&#xe5;" horiz-adv-x="1493" 
d="M603 -29q-237 0 -378.5 84.5t-141.5 240.5v2q0 65 23 116.5t70.5 88.5t106.5 63.5t145.5 44.5t172.5 29.5t201 20.5q88 6 139.5 12t88.5 13t53 19.5t22 27t6 39.5v2q0 74 -92 113t-267 39q-356 0 -372 -188h-241q4 168 168.5 264.5t443.5 96.5q115 0 204 -11t164 -36.5
t123.5 -67t75 -104.5t25.5 -146l-5 -372q-2 -130 4 -204t26 -158h-229q-17 76 -19 128q-139 -157 -517 -157zM641 143q475 0 475 292v123q-107 -34 -328 -59q-277 -37 -369.5 -72.5t-92.5 -118.5v-1q1 -82 81.5 -123t233.5 -41zM763 1183q-98 0 -167.5 65t-69.5 164
q0 98 69.5 163t167.5 65q97 0 166.5 -65t69.5 -163q0 -99 -69.5 -164t-166.5 -65zM763 1293q51 0 83 33t32 86q0 52 -32 85t-83 33q-52 0 -84 -32.5t-32 -85.5t32 -86t84 -33z" />
    <glyph glyph-name="ae" unicode="&#xe6;" horiz-adv-x="2615" 
d="M1834 -29q-204 0 -362.5 63.5t-246.5 182.5q-89 -128 -253 -187t-371 -59q-235 0 -376.5 88t-141.5 237v2q0 65 24.5 117t73.5 88.5t109 63t144 44t165.5 28t186.5 18.5q153 11 223 24.5t92 34t22 62.5v2q0 70 -95.5 110t-269.5 40q-178 0 -270 -45.5t-100 -146.5h-241
q17 168 177.5 265t432.5 97q208 0 343.5 -40t197.5 -131h1q96 82 234 126t298 44q149 0 275 -40.5t220 -119t149.5 -200t61.5 -276.5v-1h-1167v-1q26 -149 155 -229.5t315 -80.5q154 0 267.5 40.5t166.5 122.5h247q-64 -161 -244.5 -252t-442.5 -91zM640 137q102 0 187 17
t153.5 53t107 97.5t38.5 143.5v104q-105 -29 -336 -52q-276 -34 -370 -71t-94 -126v-2q0 -80 81.5 -122t232.5 -42zM1828 924q-180 0 -299.5 -69.5t-154.5 -214.5v-1h906v1q-31 137 -151.5 210.5t-300.5 73.5z" />
    <glyph glyph-name="ccedilla" unicode="&#xe7;" horiz-adv-x="1518" 
d="M782 -29q-197 0 -353.5 66.5t-249 196t-92.5 301.5v2q0 171 93.5 300t250.5 195t354 66q257 0 437 -100t226 -278h-245q-44 99 -158.5 148.5t-260.5 49.5q-91 0 -172 -24t-144.5 -70t-101 -120t-37.5 -167v-2q0 -93 37.5 -168t101 -121t144.5 -70.5t172 -24.5
q146 0 260.5 50t158.5 149h245q-46 -178 -227 -278.5t-439 -100.5zM741 -418q-130 0 -254 47l44 97q93 -41 197 -41q128 0 128 58q0 55 -106 55q-60 0 -108 -23l-76 55l184 211h138l-142 -161q39 11 91 11q87 0 150 -34t63 -104q0 -79 -87 -125t-222 -46z" />
    <glyph glyph-name="egrave" unicode="&#xe8;" horiz-adv-x="1578" 
d="M795 -29q-208 0 -368 67.5t-250 196.5t-90 302v2q0 172 94.5 300.5t253 193.5t357.5 65q306 0 499.5 -164.5t205.5 -470.5v-1h-1166v-1q26 -149 154.5 -230t314.5 -81q154 0 267.5 41t166.5 123h247q-64 -161 -244 -252t-442 -91zM788 923q-118 0 -208.5 -28t-156 -92.5
t-89.5 -162.5v-1h906v1q-30 137 -150.5 210t-301.5 73zM699 1210l-321 234h330l249 -234h-258z" />
    <glyph glyph-name="eacute" unicode="&#xe9;" horiz-adv-x="1578" 
d="M795 -29q-208 0 -368 67.5t-250 196.5t-90 302v2q0 172 94.5 300.5t253 193.5t357.5 65q306 0 499.5 -164.5t205.5 -470.5v-1h-1166v-1q26 -149 154.5 -230t314.5 -81q154 0 267.5 41t166.5 123h247q-64 -161 -244 -252t-442 -91zM788 923q-118 0 -208.5 -28t-156 -92.5
t-89.5 -162.5v-1h906v1q-30 137 -150.5 210t-301.5 73zM632 1210l249 234h329l-331 -234h-247z" />
    <glyph glyph-name="ecircumflex" unicode="&#xea;" horiz-adv-x="1578" 
d="M795 -29q-208 0 -368 67.5t-250 196.5t-90 302v2q0 172 94.5 300.5t253 193.5t357.5 65q306 0 499.5 -164.5t205.5 -470.5v-1h-1166v-1q26 -149 154.5 -230t314.5 -81q154 0 267.5 41t166.5 123h247q-64 -161 -244 -252t-442 -91zM788 923q-118 0 -208.5 -28t-156 -92.5
t-89.5 -162.5v-1h906v1q-30 137 -150.5 210t-301.5 73zM308 1210l338 234h286l338 -234h-272l-208 129l-210 -129h-272z" />
    <glyph glyph-name="edieresis" unicode="&#xeb;" horiz-adv-x="1578" 
d="M795 -29q-208 0 -368 67.5t-250 196.5t-90 302v2q0 172 94.5 300.5t253 193.5t357.5 65q306 0 499.5 -164.5t205.5 -470.5v-1h-1166v-1q26 -149 154.5 -230t314.5 -81q154 0 267.5 41t166.5 123h247q-64 -161 -244 -252t-442 -91zM788 923q-118 0 -208.5 -28t-156 -92.5
t-89.5 -162.5v-1h906v1q-30 137 -150.5 210t-301.5 73zM347 1210v234h228v-234h-228zM1005 1210v234h227v-234h-227z" />
    <glyph glyph-name="igrave" unicode="&#xec;" horiz-adv-x="562" 
d="M168 0v1067h228v-1067h-228zM191 1210l-321 234h330l249 -234h-258z" />
    <glyph glyph-name="iacute" unicode="&#xed;" horiz-adv-x="562" 
d="M168 0v1067h228v-1067h-228zM125 1210l249 234h329l-331 -234h-247z" />
    <glyph glyph-name="icircumflex" unicode="&#xee;" horiz-adv-x="562" 
d="M168 0v1067h228v-1067h-228zM-200 1210l338 234h286l338 -234h-272l-208 129l-210 -129h-272z" />
    <glyph glyph-name="idieresis" unicode="&#xef;" horiz-adv-x="562" 
d="M168 0v1067h228v-1067h-228zM-161 1210v234h228v-234h-228zM497 1210v234h227v-234h-227z" />
    <glyph glyph-name="eth" unicode="&#xf0;" horiz-adv-x="1607" 
d="M448 1101l-77 122l230 124q-129 57 -260 100l85 185q207 -70 394 -166l284 153l77 -123l-212 -115q261 -163 407.5 -368t146.5 -441v-3q0 -281 -193 -439.5t-524 -158.5q-327 0 -523 156t-196 405v3q0 248 195 403.5t512 155.5q165 0 277 -52l1 2q-109 116 -311 226z
M806 147q212 0 343.5 103.5t131.5 281.5v3q0 177 -131.5 280t-343.5 103q-213 0 -345.5 -103t-132.5 -280v-3q0 -178 132.5 -281.5t345.5 -103.5z" />
    <glyph glyph-name="ntilde" unicode="&#xf1;" 
d="M168 0v1067h228v-152q62 83 178.5 132.5t287.5 49.5q260 0 404.5 -128.5t144.5 -376.5v-592h-228v544q0 184 -101.5 276.5t-292.5 92.5t-292 -92.5t-101 -276.5v-544h-228zM344 1210q8 123 69.5 194t173.5 71q76 0 151 -25.5t134.5 -50.5t98.5 -25q55 0 77.5 23.5
t26.5 77.5h181q-9 -123 -70.5 -194t-172.5 -71q-77 0 -151.5 25.5t-133.5 51t-98 25.5q-55 0 -78 -23.5t-28 -78.5h-180z" />
    <glyph glyph-name="ograve" unicode="&#xf2;" horiz-adv-x="1616" 
d="M809 -29q-332 0 -527 154t-195 410v2q0 254 195 407.5t527 153.5t526.5 -153t194.5 -408v-2q0 -256 -194.5 -410t-526.5 -154zM809 151q215 0 347 102.5t132 281.5v2q0 178 -132 279.5t-347 101.5t-347.5 -101.5t-132.5 -279.5v-2q0 -178 132.5 -281t347.5 -103z
M719 1210l-321 234h330l249 -234h-258z" />
    <glyph glyph-name="oacute" unicode="&#xf3;" horiz-adv-x="1616" 
d="M809 -29q-332 0 -527 154t-195 410v2q0 254 195 407.5t527 153.5t526.5 -153t194.5 -408v-2q0 -256 -194.5 -410t-526.5 -154zM809 151q215 0 347 102.5t132 281.5v2q0 178 -132 279.5t-347 101.5t-347.5 -101.5t-132.5 -279.5v-2q0 -178 132.5 -281t347.5 -103z
M652 1210l249 234h329l-331 -234h-247z" />
    <glyph glyph-name="ocircumflex" unicode="&#xf4;" horiz-adv-x="1616" 
d="M809 -29q-332 0 -527 154t-195 410v2q0 254 195 407.5t527 153.5t526.5 -153t194.5 -408v-2q0 -256 -194.5 -410t-526.5 -154zM809 151q215 0 347 102.5t132 281.5v2q0 178 -132 279.5t-347 101.5t-347.5 -101.5t-132.5 -279.5v-2q0 -178 132.5 -281t347.5 -103z
M327 1210l338 234h286l338 -234h-272l-208 129l-210 -129h-272z" />
    <glyph glyph-name="otilde" unicode="&#xf5;" horiz-adv-x="1616" 
d="M809 -29q-332 0 -527 154t-195 410v2q0 254 195 407.5t527 153.5t526.5 -153t194.5 -408v-2q0 -256 -194.5 -410t-526.5 -154zM809 151q215 0 347 102.5t132 281.5v2q0 178 -132 279.5t-347 101.5t-347.5 -101.5t-132.5 -279.5v-2q0 -178 132.5 -281t347.5 -103z
M363 1210q8 123 69.5 194t173.5 71q76 0 151 -25.5t134.5 -50.5t98.5 -25q55 0 77.5 23.5t26.5 77.5h181q-9 -123 -70.5 -194t-172.5 -71q-77 0 -151.5 25.5t-133.5 51t-98 25.5q-55 0 -78 -23.5t-28 -78.5h-180z" />
    <glyph glyph-name="odieresis" unicode="&#xf6;" horiz-adv-x="1616" 
d="M809 -29q-332 0 -527 154t-195 410v2q0 254 195 407.5t527 153.5t526.5 -153t194.5 -408v-2q0 -256 -194.5 -410t-526.5 -154zM809 151q215 0 347 102.5t132 281.5v2q0 178 -132 279.5t-347 101.5t-347.5 -101.5t-132.5 -279.5v-2q0 -178 132.5 -281t347.5 -103z
M367 1210v234h228v-234h-228zM1025 1210v234h227v-234h-227z" />
    <glyph glyph-name="divide" unicode="&#xf7;" horiz-adv-x="1533" 
d="M142 631v203h1251v-203h-1251zM767 977q-69 0 -113.5 41.5t-44.5 107.5t44.5 107t113.5 41t113.5 -41t44.5 -107t-44.5 -107.5t-113.5 -41.5zM767 189q-69 0 -113.5 41t-44.5 107q0 67 44.5 108t113.5 41t113.5 -41t44.5 -108q0 -66 -44.5 -107t-113.5 -41z" />
    <glyph glyph-name="oslash" unicode="&#xf8;" horiz-adv-x="1616" 
d="M244 -94l118 166q-133 73 -204 192t-71 271v2q0 254 195 407.5t527 153.5q144 0 268 -31l149 206l148 -99l-125 -173q136 -73 208.5 -192.5t72.5 -271.5v-2q0 -256 -194.5 -410t-526.5 -154q-146 0 -275 33l-142 -197zM329 535q0 -192 153 -296l478 664q-70 15 -151 15
q-215 0 -347.5 -101.5t-132.5 -279.5v-2zM809 151q215 0 347 102.5t132 281.5v2q0 193 -158 298l-479 -667q76 -17 158 -17z" />
    <glyph glyph-name="ugrave" unicode="&#xf9;" 
d="M699 -29q-260 0 -404.5 128.5t-144.5 376.5v591h228v-542q0 -185 101.5 -277.5t292.5 -92.5t292 92.5t101 277.5v542h228v-1067h-228v159q-63 -84 -180 -136t-286 -52zM682 1210l-321 234h330l249 -234h-258z" />
    <glyph glyph-name="uacute" unicode="&#xfa;" 
d="M699 -29q-260 0 -404.5 128.5t-144.5 376.5v591h228v-542q0 -185 101.5 -277.5t292.5 -92.5t292 92.5t101 277.5v542h228v-1067h-228v159q-63 -84 -180 -136t-286 -52zM615 1210l249 234h329l-331 -234h-247z" />
    <glyph glyph-name="ucircumflex" unicode="&#xfb;" 
d="M699 -29q-260 0 -404.5 128.5t-144.5 376.5v591h228v-542q0 -185 101.5 -277.5t292.5 -92.5t292 92.5t101 277.5v542h228v-1067h-228v159q-63 -84 -180 -136t-286 -52zM290 1210l338 234h286l338 -234h-272l-208 129l-210 -129h-272z" />
    <glyph glyph-name="udieresis" unicode="&#xfc;" 
d="M699 -29q-260 0 -404.5 128.5t-144.5 376.5v591h228v-542q0 -185 101.5 -277.5t292.5 -92.5t292 92.5t101 277.5v542h228v-1067h-228v159q-63 -84 -180 -136t-286 -52zM330 1210v234h228v-234h-228zM988 1210v234h227v-234h-227z" />
    <glyph glyph-name="yacute" unicode="&#xfd;" horiz-adv-x="1495" 
d="M211 -333v184h132q129 0 173 21.5t94 113.5l11 21l-611 1060h263l479 -842l498 842h242l-661 -1110q-39 -66 -69.5 -110t-64.5 -78t-65.5 -52.5t-76 -30.5t-91 -15.5t-115.5 -3.5h-138zM604 1210l249 234h329l-331 -234h-247z" />
    <glyph glyph-name="thorn" unicode="&#xfe;" horiz-adv-x="1639" 
d="M916 -29q-193 0 -326.5 57t-193.5 145v-506h-228v1778h228v-549q60 88 193.5 144.5t326.5 56.5q130 0 245 -38t202 -108t138 -177.5t51 -237.5v-3q0 -130 -51 -237.5t-138 -178t-202 -108.5t-245 -38zM848 144q86 0 166 23t147.5 68t108 122t40.5 176v3q0 99 -40.5 175.5
t-108 121.5t-147.5 68t-166 23q-69 0 -134 -13.5t-125.5 -44.5t-106 -75t-72.5 -110t-27 -145v-3q0 -99 41 -176t109 -122t148 -68t167 -23z" />
    <glyph glyph-name="ydieresis" unicode="&#xff;" horiz-adv-x="1495" 
d="M211 -333v184h132q129 0 173 21.5t94 113.5l11 21l-611 1060h263l479 -842l498 842h242l-661 -1110q-39 -66 -69.5 -110t-64.5 -78t-65.5 -52.5t-76 -30.5t-91 -15.5t-115.5 -3.5h-138zM319 1210v234h228v-234h-228zM977 1210v234h227v-234h-227z" />
    <glyph glyph-name="Amacron" unicode="&#x100;" horiz-adv-x="1798" 
d="M8 1l756 1444h272l756 -1444h-266l-214 409h-847l-212 -409h-245zM571 613h634l-317 613h-2zM491 1649v157h819v-157h-819z" />
    <glyph glyph-name="amacron" unicode="&#x101;" horiz-adv-x="1493" 
d="M603 -29q-237 0 -378.5 84.5t-141.5 240.5v2q0 65 23 116.5t70.5 88.5t106.5 63.5t145.5 44.5t172.5 29.5t201 20.5q88 6 139.5 12t88.5 13t53 19.5t22 27t6 39.5v2q0 74 -92 113t-267 39q-356 0 -372 -188h-241q4 168 168.5 264.5t443.5 96.5q115 0 204 -11t164 -36.5
t123.5 -67t75 -104.5t25.5 -146l-5 -372q-2 -130 4 -204t26 -158h-229q-17 76 -19 128q-139 -157 -517 -157zM641 143q475 0 475 292v123q-107 -34 -328 -59q-277 -37 -369.5 -72.5t-92.5 -118.5v-1q1 -82 81.5 -123t233.5 -41zM383 1244v154h758v-154h-758z" />
    <glyph glyph-name="Abreve" unicode="&#x102;" horiz-adv-x="1798" 
d="M8 1l756 1444h272l756 -1444h-266l-214 409h-847l-212 -409h-245zM571 613h634l-317 613h-2zM900 1610q-164 0 -266 70t-126 203h200q7 -63 59.5 -96.5t132.5 -33.5t132.5 33.5t59.5 96.5h200q-24 -133 -126.5 -203t-265.5 -70z" />
    <glyph glyph-name="abreve" unicode="&#x103;" horiz-adv-x="1493" 
d="M603 -29q-237 0 -378.5 84.5t-141.5 240.5v2q0 65 23 116.5t70.5 88.5t106.5 63.5t145.5 44.5t172.5 29.5t201 20.5q88 6 139.5 12t88.5 13t53 19.5t22 27t6 39.5v2q0 74 -92 113t-267 39q-356 0 -372 -188h-241q4 168 168.5 264.5t443.5 96.5q115 0 204 -11t164 -36.5
t123.5 -67t75 -104.5t25.5 -146l-5 -372q-2 -130 4 -204t26 -158h-229q-17 76 -19 128q-139 -157 -517 -157zM641 143q475 0 475 292v123q-107 -34 -328 -59q-277 -37 -369.5 -72.5t-92.5 -118.5v-1q1 -82 81.5 -123t233.5 -41zM762 1192q-347 0 -392 253h200
q7 -61 57 -85.5t135 -24.5t135 24.5t57 85.5h200q-45 -253 -392 -253z" />
    <glyph glyph-name="Aogonek" unicode="&#x104;" horiz-adv-x="1798" 
d="M8 1l756 1444h272l756 -1444h-266l-214 409h-847l-212 -409h-245zM571 613h634l-317 613h-2zM1569 1h196q-110 -65 -110 -150q0 -41 30.5 -61.5t76.5 -20.5q51 0 97 22l56 -138q-87 -49 -209 -49q-115 0 -186 54.5t-71 145.5q0 115 120 197z" />
    <glyph glyph-name="aogonek" unicode="&#x105;" horiz-adv-x="1493" 
d="M603 -29q-237 0 -378.5 84.5t-141.5 240.5v2q0 65 23 116.5t70.5 88.5t106.5 63.5t145.5 44.5t172.5 29.5t201 20.5q88 6 139.5 12t88.5 13t53 19.5t22 27t6 39.5v2q0 74 -92 113t-267 39q-356 0 -372 -188h-241q4 168 168.5 264.5t443.5 96.5q115 0 204 -11t164 -36.5
t123.5 -67t75 -104.5t25.5 -146l-5 -372q-2 -130 4 -204t26 -158h-229q-17 76 -19 128q-139 -157 -517 -157zM641 143q475 0 475 292v123q-107 -34 -328 -59q-277 -37 -369.5 -72.5t-92.5 -118.5v-1q1 -82 81.5 -123t233.5 -41zM1158 1h196q-110 -65 -110 -150
q0 -41 30.5 -61.5t76.5 -20.5q51 0 97 22l56 -138q-87 -49 -209 -49q-115 0 -186 54.5t-71 145.5q0 115 120 197z" />
    <glyph glyph-name="Cacute" unicode="&#x106;" horiz-adv-x="1993" 
d="M1049 -29q-212 0 -389 54t-300 151t-191 237.5t-68 308.5v2q0 224 117 394.5t332.5 263t498.5 92.5q331 0 566 -132.5t307 -358.5h-262q-41 97 -135.5 164.5t-215 98.5t-260.5 31q-198 0 -353.5 -62t-249 -189t-93.5 -302v-2q0 -132 53.5 -238t148 -174.5t221 -105
t273.5 -36.5q215 0 382.5 75.5t228.5 218.5h262q-72 -226 -307 -358.5t-566 -132.5zM866 1618l310 264h330l-381 -264h-259z" />
    <glyph glyph-name="cacute" unicode="&#x107;" horiz-adv-x="1518" 
d="M782 -29q-197 0 -353.5 66.5t-249 196t-92.5 301.5v2q0 171 93.5 300t250.5 195t354 66q257 0 437 -100t226 -278h-245q-44 99 -158.5 148.5t-260.5 49.5q-91 0 -172 -24t-144.5 -70t-101 -120t-37.5 -167v-2q0 -93 37.5 -168t101 -121t144.5 -70.5t172 -24.5
q146 0 260.5 50t158.5 149h245q-46 -178 -227 -278.5t-439 -100.5zM626 1210l249 234h329l-331 -234h-247z" />
    <glyph glyph-name="Ccircumflex" unicode="&#x108;" horiz-adv-x="1993" 
d="M1049 -29q-212 0 -389 54t-300 151t-191 237.5t-68 308.5v2q0 224 117 394.5t332.5 263t498.5 92.5q331 0 566 -132.5t307 -358.5h-262q-41 97 -135.5 164.5t-215 98.5t-260.5 31q-198 0 -353.5 -62t-249 -189t-93.5 -302v-2q0 -132 53.5 -238t148 -174.5t221 -105
t273.5 -36.5q215 0 382.5 75.5t228.5 218.5h262q-72 -226 -307 -358.5t-566 -132.5zM557 1618l337 264h307l338 -264h-282l-209 160l-209 -160h-282z" />
    <glyph glyph-name="ccircumflex" unicode="&#x109;" horiz-adv-x="1518" 
d="M782 -29q-197 0 -353.5 66.5t-249 196t-92.5 301.5v2q0 171 93.5 300t250.5 195t354 66q257 0 437 -100t226 -278h-245q-44 99 -158.5 148.5t-260.5 49.5q-91 0 -172 -24t-144.5 -70t-101 -120t-37.5 -167v-2q0 -93 37.5 -168t101 -121t144.5 -70.5t172 -24.5
q146 0 260.5 50t158.5 149h245q-46 -178 -227 -278.5t-439 -100.5zM301 1210l338 234h286l338 -234h-272l-208 129l-210 -129h-272z" />
    <glyph glyph-name="Cdotaccent" unicode="&#x10a;" horiz-adv-x="1993" 
d="M1049 -29q-212 0 -389 54t-300 151t-191 237.5t-68 308.5v2q0 224 117 394.5t332.5 263t498.5 92.5q331 0 566 -132.5t307 -358.5h-262q-41 97 -135.5 164.5t-215 98.5t-260.5 31q-198 0 -353.5 -62t-249 -189t-93.5 -302v-2q0 -132 53.5 -238t148 -174.5t221 -105
t273.5 -36.5q215 0 382.5 75.5t228.5 218.5h262q-72 -226 -307 -358.5t-566 -132.5zM931 1635v247h237v-247h-237z" />
    <glyph glyph-name="cdotaccent" unicode="&#x10b;" horiz-adv-x="1518" 
d="M782 -29q-197 0 -353.5 66.5t-249 196t-92.5 301.5v2q0 171 93.5 300t250.5 195t354 66q257 0 437 -100t226 -278h-245q-44 99 -158.5 148.5t-260.5 49.5q-91 0 -172 -24t-144.5 -70t-101 -120t-37.5 -167v-2q0 -93 37.5 -168t101 -121t144.5 -70.5t172 -24.5
q146 0 260.5 50t158.5 149h245q-46 -178 -227 -278.5t-439 -100.5zM669 1209v235h228v-235h-228z" />
    <glyph glyph-name="Ccaron" unicode="&#x10c;" horiz-adv-x="1993" 
d="M1049 -29q-212 0 -389 54t-300 151t-191 237.5t-68 308.5v2q0 224 117 394.5t332.5 263t498.5 92.5q331 0 566 -132.5t307 -358.5h-262q-41 97 -135.5 164.5t-215 98.5t-260.5 31q-198 0 -353.5 -62t-249 -189t-93.5 -302v-2q0 -132 53.5 -238t148 -174.5t221 -105
t273.5 -36.5q215 0 382.5 75.5t228.5 218.5h262q-72 -226 -307 -358.5t-566 -132.5zM557 1882h282l209 -159l209 159h282l-338 -264h-307z" />
    <glyph glyph-name="ccaron" unicode="&#x10d;" horiz-adv-x="1518" 
d="M782 -29q-197 0 -353.5 66.5t-249 196t-92.5 301.5v2q0 171 93.5 300t250.5 195t354 66q257 0 437 -100t226 -278h-245q-44 99 -158.5 148.5t-260.5 49.5q-91 0 -172 -24t-144.5 -70t-101 -120t-37.5 -167v-2q0 -93 37.5 -168t101 -121t144.5 -70.5t172 -24.5
q146 0 260.5 50t158.5 149h245q-46 -178 -227 -278.5t-439 -100.5zM301 1444h272l210 -128l208 128h272l-338 -234h-286z" />
    <glyph glyph-name="Dcaron" unicode="&#x10e;" horiz-adv-x="1873" 
d="M190 0v1445h641q150 0 281.5 -22t254 -75t210 -134t140 -206.5t52.5 -285.5v-2q0 -159 -52.5 -284t-140 -205.5t-210 -133.5t-254 -75t-281.5 -22h-641zM427 202h401q689 0 689 518v2q0 125 -42 220t-107.5 150.5t-159.5 90.5t-184.5 47t-195.5 12h-401v-1040zM309 1944
h282l209 -159l209 159h282l-338 -264h-307z" />
    <glyph glyph-name="dcaron" unicode="&#x10f;" horiz-adv-x="1639" 
d="M1627 1445h227l-76 -336h-151v336zM745 -29q-138 0 -258 38.5t-208.5 108.5t-139.5 177.5t-51 237.5v3q0 173 88 302t235.5 194t333.5 65q180 0 306 -50t194 -130v528h228v-1445h-228v152q-68 -80 -194 -130.5t-306 -50.5zM793 151q71 0 136 13t126 42.5t105.5 72.5
t71 108.5t26.5 145.5v3q0 99 -40 175t-107.5 119.5t-148 65t-169.5 21.5q-71 0 -136 -13t-125.5 -42t-104.5 -72.5t-70.5 -108.5t-26.5 -145v-3q0 -99 39.5 -175t107 -120t147.5 -65.5t169 -21.5z" />
    <glyph glyph-name="Dcroat" unicode="&#x110;" horiz-adv-x="1908" 
d="M52 627v200h173v618h641q150 0 281.5 -22t254 -75t210 -134t140 -206.5t52.5 -285.5v-2q0 -159 -52.5 -284t-140 -205.5t-210 -133.5t-254 -75t-281.5 -22h-641v627h-173zM462 202h401q689 0 689 518v2q0 125 -42 220t-107.5 150.5t-159.5 90.5t-184.5 47t-195.5 12h-401
v-415h534v-200h-534v-425z" />
    <glyph glyph-name="dcroat" unicode="&#x111;" horiz-adv-x="1639" 
d="M811 1149v151h434v145h228v-145h175v-151h-175v-1149h-228v152q-68 -80 -194 -130.5t-306 -50.5q-138 0 -258 38.5t-208.5 108.5t-139.5 177.5t-51 237.5v3q0 173 88 302t235.5 194t333.5 65q180 0 306 -50t194 -130v232h-434zM793 151q71 0 136 13t126 42.5t105.5 72.5
t71 108.5t26.5 145.5v3q0 99 -40 175t-107.5 119.5t-148 65t-169.5 21.5q-71 0 -136 -13t-125.5 -42t-104.5 -72.5t-70.5 -108.5t-26.5 -145v-3q0 -99 39.5 -175t107 -120t147.5 -65.5t169 -21.5z" />
    <glyph glyph-name="Emacron" unicode="&#x112;" horiz-adv-x="1669" 
d="M190 0v1444h1355v-203h-1118v-407h1053v-203h-1053v-428h1120v-203h-1357zM460 1649v157h819v-157h-819z" />
    <glyph glyph-name="emacron" unicode="&#x113;" horiz-adv-x="1578" 
d="M795 -29q-208 0 -368 67.5t-250 196.5t-90 302v2q0 172 94.5 300.5t253 193.5t357.5 65q306 0 499.5 -164.5t205.5 -470.5v-1h-1166v-1q26 -149 154.5 -230t314.5 -81q154 0 267.5 41t166.5 123h247q-64 -161 -244 -252t-442 -91zM788 923q-118 0 -208.5 -28t-156 -92.5
t-89.5 -162.5v-1h906v1q-30 137 -150.5 210t-301.5 73zM411 1244v154h758v-154h-758z" />
    <glyph glyph-name="Ebreve" unicode="&#x114;" horiz-adv-x="1669" 
d="M190 0v1444h1355v-203h-1118v-407h1053v-203h-1053v-428h1120v-203h-1357zM870 1610q-164 0 -266 70t-126 203h200q7 -63 59.5 -96.5t132.5 -33.5t132.5 33.5t59.5 96.5h200q-24 -133 -126.5 -203t-265.5 -70z" />
    <glyph glyph-name="ebreve" unicode="&#x115;" horiz-adv-x="1578" 
d="M795 -29q-208 0 -368 67.5t-250 196.5t-90 302v2q0 172 94.5 300.5t253 193.5t357.5 65q306 0 499.5 -164.5t205.5 -470.5v-1h-1166v-1q26 -149 154.5 -230t314.5 -81q154 0 267.5 41t166.5 123h247q-64 -161 -244 -252t-442 -91zM788 923q-118 0 -208.5 -28t-156 -92.5
t-89.5 -162.5v-1h906v1q-30 137 -150.5 210t-301.5 73zM790 1192q-347 0 -392 253h200q7 -61 57 -85.5t135 -24.5t135 24.5t57 85.5h200q-45 -253 -392 -253z" />
    <glyph glyph-name="Edotaccent" unicode="&#x116;" horiz-adv-x="1669" 
d="M190 0v1444h1355v-203h-1118v-407h1053v-203h-1053v-428h1120v-203h-1357zM752 1635v247h237v-247h-237z" />
    <glyph glyph-name="edotaccent" unicode="&#x117;" horiz-adv-x="1578" 
d="M795 -29q-208 0 -368 67.5t-250 196.5t-90 302v2q0 172 94.5 300.5t253 193.5t357.5 65q306 0 499.5 -164.5t205.5 -470.5v-1h-1166v-1q26 -149 154.5 -230t314.5 -81q154 0 267.5 41t166.5 123h247q-64 -161 -244 -252t-442 -91zM788 923q-118 0 -208.5 -28t-156 -92.5
t-89.5 -162.5v-1h906v1q-30 137 -150.5 210t-301.5 73zM676 1209v235h228v-235h-228z" />
    <glyph glyph-name="Eogonek" unicode="&#x118;" horiz-adv-x="1669" 
d="M190 0v1444h1355v-203h-1118v-407h1053v-203h-1053v-428h1120v-203h-1357zM1351 1h196q-110 -65 -110 -150q0 -41 30.5 -61.5t76.5 -20.5q51 0 97 22l56 -138q-87 -49 -209 -49q-115 0 -186 54.5t-71 145.5q0 115 120 197z" />
    <glyph glyph-name="eogonek" unicode="&#x119;" horiz-adv-x="1578" 
d="M795 -29q-208 0 -368 67.5t-250 196.5t-90 302v2q0 172 94.5 300.5t253 193.5t357.5 65q306 0 499.5 -164.5t205.5 -470.5v-1h-1166v-1q26 -149 154.5 -230t314.5 -81q154 0 267.5 41t166.5 123h247q-64 -161 -244 -252t-442 -91zM788 923q-118 0 -208.5 -28t-156 -92.5
t-89.5 -162.5v-1h906v1q-30 137 -150.5 210t-301.5 73zM863 1h196q-110 -65 -110 -150q0 -41 30.5 -61.5t76.5 -20.5q51 0 97 22l56 -138q-87 -49 -209 -49q-115 0 -186 54.5t-71 145.5q0 115 120 197z" />
    <glyph glyph-name="Ecaron" unicode="&#x11a;" horiz-adv-x="1669" 
d="M190 0v1444h1355v-203h-1118v-407h1053v-203h-1053v-428h1120v-203h-1357zM378 1882h282l209 -159l209 159h282l-338 -264h-307z" />
    <glyph glyph-name="ecaron" unicode="&#x11b;" horiz-adv-x="1578" 
d="M795 -29q-208 0 -368 67.5t-250 196.5t-90 302v2q0 172 94.5 300.5t253 193.5t357.5 65q306 0 499.5 -164.5t205.5 -470.5v-1h-1166v-1q26 -149 154.5 -230t314.5 -81q154 0 267.5 41t166.5 123h247q-64 -161 -244 -252t-442 -91zM788 923q-118 0 -208.5 -28t-156 -92.5
t-89.5 -162.5v-1h906v1q-30 137 -150.5 210t-301.5 73zM308 1444h272l210 -128l208 128h272l-338 -234h-286z" />
    <glyph glyph-name="Gcircumflex" unicode="&#x11c;" horiz-adv-x="2092" 
d="M1044 -29q-279 0 -492.5 91t-331.5 261.5t-118 397.5v2q0 229 118.5 399.5t332.5 260.5t496 90q323 0 561 -126t309 -340h-260q-41 90 -138.5 152t-216.5 89.5t-252 27.5q-147 0 -272.5 -35t-221 -102t-150 -174t-54.5 -242v-2q0 -177 94.5 -304.5t250.5 -188.5t354 -61
q126 0 241.5 26t208 75.5t147.5 129.5t55 179v13h-596v200h828v-791h-197l-5 235q-83 -111 -269 -187t-422 -76zM548 1618l337 264h307l338 -264h-282l-209 160l-209 -160h-282z" />
    <glyph glyph-name="gcircumflex" unicode="&#x11d;" horiz-adv-x="1640" 
d="M730 46q-176 0 -319.5 59t-231.5 178.5t-88 281.5v2q0 161 88 283.5t232 184.5t319 62q192 0 325.5 -50.5t193.5 -130.5v151h228v-889q0 -536 -694 -536q-271 0 -439.5 88t-206.5 261h245q51 -169 403 -169q79 0 140.5 7t124.5 27.5t105 55t68 94t26 139.5v80
q-60 -79 -193.5 -129t-325.5 -50zM794 224q89 0 169 19.5t147 58.5t107 107t40 156v2q0 88 -40 157.5t-107 110t-147.5 61.5t-168.5 21q-70 0 -135 -12t-125 -39t-104 -67t-70.5 -99.5t-26.5 -132.5v-2q0 -73 26.5 -131.5t70.5 -97t104.5 -64.5t125 -37t134.5 -11zM303 1210
l338 234h286l338 -234h-272l-208 129l-210 -129h-272z" />
    <glyph glyph-name="Gbreve" unicode="&#x11e;" horiz-adv-x="2092" 
d="M1044 -29q-279 0 -492.5 91t-331.5 261.5t-118 397.5v2q0 229 118.5 399.5t332.5 260.5t496 90q323 0 561 -126t309 -340h-260q-41 90 -138.5 152t-216.5 89.5t-252 27.5q-147 0 -272.5 -35t-221 -102t-150 -174t-54.5 -242v-2q0 -177 94.5 -304.5t250.5 -188.5t354 -61
q126 0 241.5 26t208 75.5t147.5 129.5t55 179v13h-596v200h828v-791h-197l-5 235q-83 -111 -269 -187t-422 -76zM1039 1610q-164 0 -266 70t-126 203h200q7 -63 59.5 -96.5t132.5 -33.5t132.5 33.5t59.5 96.5h200q-24 -133 -126.5 -203t-265.5 -70z" />
    <glyph glyph-name="gbreve" unicode="&#x11f;" horiz-adv-x="1640" 
d="M730 46q-176 0 -319.5 59t-231.5 178.5t-88 281.5v2q0 161 88 283.5t232 184.5t319 62q192 0 325.5 -50.5t193.5 -130.5v151h228v-889q0 -536 -694 -536q-271 0 -439.5 88t-206.5 261h245q51 -169 403 -169q79 0 140.5 7t124.5 27.5t105 55t68 94t26 139.5v80
q-60 -79 -193.5 -129t-325.5 -50zM794 224q89 0 169 19.5t147 58.5t107 107t40 156v2q0 88 -40 157.5t-107 110t-147.5 61.5t-168.5 21q-70 0 -135 -12t-125 -39t-104 -67t-70.5 -99.5t-26.5 -132.5v-2q0 -73 26.5 -131.5t70.5 -97t104.5 -64.5t125 -37t134.5 -11zM785 1192
q-347 0 -392 253h200q7 -61 57 -85.5t135 -24.5t135 24.5t57 85.5h200q-45 -253 -392 -253z" />
    <glyph glyph-name="Gdotaccent" unicode="&#x120;" horiz-adv-x="2092" 
d="M1044 -29q-279 0 -492.5 91t-331.5 261.5t-118 397.5v2q0 229 118.5 399.5t332.5 260.5t496 90q323 0 561 -126t309 -340h-260q-41 90 -138.5 152t-216.5 89.5t-252 27.5q-147 0 -272.5 -35t-221 -102t-150 -174t-54.5 -242v-2q0 -177 94.5 -304.5t250.5 -188.5t354 -61
q126 0 241.5 26t208 75.5t147.5 129.5t55 179v13h-596v200h828v-791h-197l-5 235q-83 -111 -269 -187t-422 -76zM922 1635v247h237v-247h-237z" />
    <glyph glyph-name="gdotaccent" unicode="&#x121;" horiz-adv-x="1640" 
d="M730 46q-176 0 -319.5 59t-231.5 178.5t-88 281.5v2q0 161 88 283.5t232 184.5t319 62q192 0 325.5 -50.5t193.5 -130.5v151h228v-889q0 -536 -694 -536q-271 0 -439.5 88t-206.5 261h245q51 -169 403 -169q79 0 140.5 7t124.5 27.5t105 55t68 94t26 139.5v80
q-60 -79 -193.5 -129t-325.5 -50zM794 224q89 0 169 19.5t147 58.5t107 107t40 156v2q0 88 -40 157.5t-107 110t-147.5 61.5t-168.5 21q-70 0 -135 -12t-125 -39t-104 -67t-70.5 -99.5t-26.5 -132.5v-2q0 -73 26.5 -131.5t70.5 -97t104.5 -64.5t125 -37t134.5 -11zM671 1209
v235h228v-235h-228z" />
    <glyph glyph-name="uni0122" unicode="&#x122;" horiz-adv-x="2092" 
d="M1044 -29q-279 0 -492.5 91t-331.5 261.5t-118 397.5v2q0 229 118.5 399.5t332.5 260.5t496 90q323 0 561 -126t309 -340h-260q-41 90 -138.5 152t-216.5 89.5t-252 27.5q-147 0 -272.5 -35t-221 -102t-150 -174t-54.5 -242v-2q0 -177 94.5 -304.5t250.5 -188.5t354 -61
q126 0 241.5 26t208 75.5t147.5 129.5t55 179v13h-596v200h828v-791h-197l-5 235q-83 -111 -269 -187t-422 -76zM706 -362l212 264h255l-242 -264h-225z" />
    <glyph glyph-name="uni0123" unicode="&#x123;" horiz-adv-x="1640" 
d="M730 46q-176 0 -319.5 59t-231.5 178.5t-88 281.5v2q0 161 88 283.5t232 184.5t319 62q192 0 325.5 -50.5t193.5 -130.5v151h228v-889q0 -536 -694 -536q-271 0 -439.5 88t-206.5 261h245q51 -169 403 -169q79 0 140.5 7t124.5 27.5t105 55t68 94t26 139.5v80
q-60 -79 -193.5 -129t-325.5 -50zM794 224q89 0 169 19.5t147 58.5t107 107t40 156v2q0 88 -40 157.5t-107 110t-147.5 61.5t-168.5 21q-70 0 -135 -12t-125 -39t-104 -67t-70.5 -99.5t-26.5 -132.5v-2q0 -73 26.5 -131.5t70.5 -97t104.5 -64.5t125 -37t134.5 -11zM617 1241
l346 264h258l-295 -264h-309z" />
    <glyph glyph-name="Hcircumflex" unicode="&#x124;" horiz-adv-x="1937" 
d="M190 1v1444h237v-611h1084v611h237v-1444h-237v630h-1084v-630h-237zM478 1618l337 264h307l338 -264h-282l-209 160l-209 -160h-282z" />
    <glyph glyph-name="hcircumflex" unicode="&#x125;" 
d="M168 0v1445h228v-535q63 84 179.5 135.5t286.5 51.5q260 0 404.5 -128.5t144.5 -376.5v-592h-228v544q0 184 -101.5 276.5t-292.5 92.5t-292 -92.5t-101 -276.5v-544h-228zM-200 1587l338 234h286l338 -234h-272l-208 129l-210 -129h-272z" />
    <glyph glyph-name="Hbar" unicode="&#x126;" horiz-adv-x="1937" 
d="M190 1v1444h237v-611h1084v611h237v-1444h-237v630h-1084v-630h-237zM560 1649v157h819v-157h-819z" />
    <glyph glyph-name="hbar" unicode="&#x127;" 
d="M168 0v1149h-175v151h175v145h228v-145h434v-151h-434v-239q63 84 179.5 135.5t286.5 51.5q260 0 404.5 -128.5t144.5 -376.5v-592h-228v544q0 184 -101.5 276.5t-292.5 92.5t-292 -92.5t-101 -276.5v-544h-228z" />
    <glyph glyph-name="Itilde" unicode="&#x128;" horiz-adv-x="617" 
d="M190 0v1444h237v-1444h-237zM-147 1618q8 122 69.5 193t173.5 71q76 0 151 -25t134.5 -50t98.5 -25q55 0 77.5 23t26.5 77h181q-9 -122 -70.5 -193t-172.5 -71q-61 0 -121.5 16t-100.5 34.5t-84.5 34.5t-76.5 16q-55 0 -78 -23t-28 -78h-180z" />
    <glyph glyph-name="itilde" unicode="&#x129;" horiz-adv-x="562" 
d="M168 0v1067h228v-1067h-228zM-164 1210q8 123 69.5 194t173.5 71q76 0 151 -25.5t134.5 -50.5t98.5 -25q55 0 77.5 23.5t26.5 77.5h181q-9 -123 -70.5 -194t-172.5 -71q-77 0 -151.5 25.5t-133.5 51t-98 25.5q-55 0 -78 -23.5t-28 -78.5h-180z" />
    <glyph glyph-name="Imacron" unicode="&#x12a;" horiz-adv-x="617" 
d="M190 0v1444h237v-1444h-237zM-100 1649v157h819v-157h-819z" />
    <glyph glyph-name="imacron" unicode="&#x12b;" horiz-adv-x="562" 
d="M168 0v1067h228v-1067h-228zM-97 1244v154h758v-154h-758z" />
    <glyph glyph-name="Iogonek" unicode="&#x12e;" horiz-adv-x="617" 
d="M190 0v1444h237v-1444h-237zM215 1h196q-110 -65 -110 -150q0 -41 30.5 -61.5t76.5 -20.5q51 0 97 22l56 -138q-87 -49 -209 -49q-115 0 -186 54.5t-71 145.5q0 115 120 197z" />
    <glyph glyph-name="iogonek" unicode="&#x12f;" horiz-adv-x="562" 
d="M168 0v1067h228v-1067h-228zM168 1206v238h228v-238h-228zM188 1h196q-110 -65 -110 -150q0 -41 30.5 -61.5t76.5 -20.5q51 0 97 22l56 -138q-87 -49 -209 -49q-115 0 -186 54.5t-71 145.5q0 115 120 197z" />
    <glyph glyph-name="Idotaccent" unicode="&#x130;" horiz-adv-x="617" 
d="M190 0v1444h237v-1444h-237zM192 1635v247h237v-247h-237z" />
    <glyph glyph-name="dotlessi" unicode="&#x131;" horiz-adv-x="562" 
d="M168 0v1067h228v-1067h-228z" />
    <glyph glyph-name="IJ" unicode="&#x132;" horiz-adv-x="2109" 
d="M190 0v1444h237v-1444h-237zM1312 -29q-176 0 -311.5 56.5t-219.5 175t-91 286.5h256q8 -168 105 -246t263 -78q177 0 280.5 81.5t103.5 257.5v940h237v-938q0 -134 -47.5 -238t-132.5 -168t-197 -96.5t-246 -32.5z" />
    <glyph glyph-name="ij" unicode="&#x133;" horiz-adv-x="1184" 
d="M168 0v1067h228v-1067h-228zM168 1206v238h228v-238h-228zM502 -333v185h98q59 0 91.5 6t57 27t33 59t8.5 104v1019h228v-1022q0 -109 -22.5 -181t-73.5 -116t-127 -62.5t-191 -18.5h-102zM790 1206v238h228v-238h-228z" />
    <glyph glyph-name="Jcircumflex" unicode="&#x134;" horiz-adv-x="1449" 
d="M652 -29q-176 0 -311.5 56.5t-219.5 175t-91 286.5h256q8 -168 105 -246t263 -78q177 0 280.5 81.5t103.5 257.5v940h237v-938q0 -134 -47.5 -238t-132.5 -168t-197 -96.5t-246 -32.5zM665 1618l337 264h307l338 -264h-282l-209 160l-209 -160h-282z" />
    <glyph glyph-name="jcircumflex" unicode="&#x135;" horiz-adv-x="562" 
d="M-120 -333v185h98q59 0 91.5 6t57 27t33 59.5t8.5 104.5v1019h227v-1023q0 -214 -93 -296t-320 -82h-102zM-200 1210l338 234h286l338 -234h-272l-208 129l-210 -129h-272z" />
    <glyph glyph-name="uni0136" unicode="&#x136;" horiz-adv-x="1759" 
d="M190 0v1444h237v-638l976 638h343l-1083 -708l1116 -736h-403l-949 626v-626h-237zM579 -362l212 264h255l-242 -264h-225z" />
    <glyph glyph-name="uni0137" unicode="&#x137;" horiz-adv-x="1451" 
d="M168 0v1444h227v-832l704 455h328l-793 -506l851 -561h-379l-710 468v-468h-228zM424 -362l212 264h255l-242 -264h-225z" />
    <glyph glyph-name="kgreenlandic" unicode="&#x138;" horiz-adv-x="1451" 
d="M168 0v1067h228v-459l714 459h317l-787 -517l845 -550h-377l-712 462v-462h-228z" />
    <glyph glyph-name="Lacute" unicode="&#x139;" horiz-adv-x="1504" 
d="M190 0v1444h237v-1241h1057v-203h-1294zM127 1618l310 264h330l-381 -264h-259z" />
    <glyph glyph-name="lacute" unicode="&#x13a;" horiz-adv-x="562" 
d="M168 0v1444h228v-1444h-228zM127 1587l249 234h329l-331 -234h-247z" />
    <glyph glyph-name="uni013B" unicode="&#x13b;" horiz-adv-x="1504" 
d="M190 0v1444h237v-1241h1057v-203h-1294zM501 -362l212 264h255l-242 -264h-225z" />
    <glyph glyph-name="uni013C" unicode="&#x13c;" horiz-adv-x="562" 
d="M168 0v1444h228v-1444h-228zM-53 -362l212 264h255l-242 -264h-225z" />
    <glyph glyph-name="Lcaron" unicode="&#x13d;" horiz-adv-x="1504" 
d="M190 0v1444h237v-1241h1057v-203h-1294zM854 1649h227l-76 -336h-151v336z" />
    <glyph glyph-name="lcaron" unicode="&#x13e;" horiz-adv-x="562" 
d="M547 1444h227l-75 -336h-152v336zM168 0v1444h228v-1444h-228z" />
    <glyph glyph-name="Ldot" unicode="&#x13f;" horiz-adv-x="1508" 
d="M190 0v1444h237v-1241h1057v-203h-1294zM1203 655h-243v258h243v-258z" />
    <glyph glyph-name="ldot" unicode="&#x140;" horiz-adv-x="729" 
d="M168 0v1444h228v-1444h-228zM785 618h-244v258h244v-258z" />
    <glyph glyph-name="Lslash" unicode="&#x141;" horiz-adv-x="1590" 
d="M275 0v567l-189 -96v205l189 96v672h237v-552l502 254v-205l-502 -254v-484h1057v-203h-1294z" />
    <glyph glyph-name="lslash" unicode="&#x142;" horiz-adv-x="836" 
d="M316 0v612l-258 -133v196l258 133v636h227v-519l257 132v-195l-257 -133v-729h-227z" />
    <glyph glyph-name="Nacute" unicode="&#x143;" horiz-adv-x="1950" 
d="M190 0v1444h271l1066 -1147h2l-1 277v870h233v-1444h-273l-1064 1146h-2l1 -277v-869h-233zM844 1618l310 264h330l-381 -264h-259z" />
    <glyph glyph-name="nacute" unicode="&#x144;" 
d="M168 0v1067h228v-152q62 83 178.5 132.5t287.5 49.5q260 0 404.5 -128.5t144.5 -376.5v-592h-228v544q0 184 -101.5 276.5t-292.5 92.5t-292 -92.5t-101 -276.5v-544h-228zM632 1210l249 234h329l-331 -234h-247z" />
    <glyph glyph-name="uni0145" unicode="&#x145;" horiz-adv-x="1950" 
d="M190 0v1444h271l1066 -1147h2l-1 277v870h233v-1444h-273l-1064 1146h-2l1 -277v-869h-233zM645 -362l212 264h255l-242 -264h-225z" />
    <glyph glyph-name="uni0146" unicode="&#x146;" 
d="M168 0v1067h228v-152q62 83 178.5 132.5t287.5 49.5q260 0 404.5 -128.5t144.5 -376.5v-592h-228v544q0 184 -101.5 276.5t-292.5 92.5t-292 -92.5t-101 -276.5v-544h-228zM453 -362l212 264h255l-242 -264h-225z" />
    <glyph glyph-name="Ncaron" unicode="&#x147;" horiz-adv-x="1950" 
d="M190 0v1444h271l1066 -1147h2l-1 277v870h233v-1444h-273l-1064 1146h-2l1 -277v-869h-233zM536 1882h282l209 -159l209 159h282l-338 -264h-307z" />
    <glyph glyph-name="ncaron" unicode="&#x148;" 
d="M168 0v1067h228v-152q62 83 178.5 132.5t287.5 49.5q260 0 404.5 -128.5t144.5 -376.5v-592h-228v544q0 184 -101.5 276.5t-292.5 92.5t-292 -92.5t-101 -276.5v-544h-228zM308 1444h272l210 -128l208 128h272l-338 -234h-286z" />
    <glyph glyph-name="napostrophe" unicode="&#x149;" 
d="M168 0v1067h228v-152q62 83 178.5 132.5t287.5 49.5q260 0 404.5 -128.5t144.5 -376.5v-592h-228v544q0 184 -101.5 276.5t-292.5 92.5t-292 -92.5t-101 -276.5v-544h-228zM403 1444l-105 -321h-229l140 321h194z" />
    <glyph glyph-name="Omacron" unicode="&#x14c;" horiz-adv-x="2112" 
d="M1052 -29q-277 0 -490.5 90t-334 261t-120.5 400v2q0 229 120.5 400t334 260.5t490.5 89.5t490.5 -89.5t334 -260.5t120.5 -400v-2q0 -229 -120.5 -400t-334 -261t-490.5 -90zM1052 168q148 0 274.5 37t219.5 106t146 174.5t53 236.5v2q0 131 -53 236.5t-146 174.5
t-219.5 105.5t-274.5 36.5t-274.5 -36.5t-219.5 -105.5t-146 -174.5t-53 -236.5v-2q0 -131 53 -236.5t146 -174.5t219.5 -106t274.5 -37zM647 1649v157h819v-157h-819z" />
    <glyph glyph-name="omacron" unicode="&#x14d;" horiz-adv-x="1616" 
d="M809 -29q-332 0 -527 154t-195 410v2q0 254 195 407.5t527 153.5t526.5 -153t194.5 -408v-2q0 -256 -194.5 -410t-526.5 -154zM809 151q215 0 347 102.5t132 281.5v2q0 178 -132 279.5t-347 101.5t-347.5 -101.5t-132.5 -279.5v-2q0 -178 132.5 -281t347.5 -103z
M430 1244v154h758v-154h-758z" />
    <glyph glyph-name="Obreve" unicode="&#x14e;" horiz-adv-x="2112" 
d="M1052 -29q-277 0 -490.5 90t-334 261t-120.5 400v2q0 229 120.5 400t334 260.5t490.5 89.5t490.5 -89.5t334 -260.5t120.5 -400v-2q0 -229 -120.5 -400t-334 -261t-490.5 -90zM1052 168q148 0 274.5 37t219.5 106t146 174.5t53 236.5v2q0 131 -53 236.5t-146 174.5
t-219.5 105.5t-274.5 36.5t-274.5 -36.5t-219.5 -105.5t-146 -174.5t-53 -236.5v-2q0 -131 53 -236.5t146 -174.5t219.5 -106t274.5 -37zM1057 1610q-164 0 -266 70t-126 203h200q7 -63 59.5 -96.5t132.5 -33.5t132.5 33.5t59.5 96.5h200q-24 -133 -126.5 -203t-265.5 -70z
" />
    <glyph glyph-name="obreve" unicode="&#x14f;" horiz-adv-x="1616" 
d="M809 -29q-332 0 -527 154t-195 410v2q0 254 195 407.5t527 153.5t526.5 -153t194.5 -408v-2q0 -256 -194.5 -410t-526.5 -154zM809 151q215 0 347 102.5t132 281.5v2q0 178 -132 279.5t-347 101.5t-347.5 -101.5t-132.5 -279.5v-2q0 -178 132.5 -281t347.5 -103z
M809 1192q-347 0 -392 253h200q7 -61 57 -85.5t135 -24.5t135 24.5t57 85.5h200q-45 -253 -392 -253z" />
    <glyph glyph-name="Ohungarumlaut" unicode="&#x150;" horiz-adv-x="2112" 
d="M1052 -29q-277 0 -490.5 90t-334 261t-120.5 400v2q0 229 120.5 400t334 260.5t490.5 89.5t490.5 -89.5t334 -260.5t120.5 -400v-2q0 -229 -120.5 -400t-334 -261t-490.5 -90zM1052 168q148 0 274.5 37t219.5 106t146 174.5t53 236.5v2q0 131 -53 236.5t-146 174.5
t-219.5 105.5t-274.5 36.5t-274.5 -36.5t-219.5 -105.5t-146 -174.5t-53 -236.5v-2q0 -131 53 -236.5t146 -174.5t219.5 -106t274.5 -37zM637 1618l310 264h330l-381 -264h-259zM1189 1618l310 264h330l-382 -264h-258z" />
    <glyph glyph-name="ohungarumlaut" unicode="&#x151;" horiz-adv-x="1616" 
d="M809 -29q-332 0 -527 154t-195 410v2q0 254 195 407.5t527 153.5t526.5 -153t194.5 -408v-2q0 -256 -194.5 -410t-526.5 -154zM809 151q215 0 347 102.5t132 281.5v2q0 178 -132 279.5t-347 101.5t-347.5 -101.5t-132.5 -279.5v-2q0 -178 132.5 -281t347.5 -103z
M391 1210l274 234h330l-357 -234h-247zM937 1210l274 234h330l-357 -234h-247z" />
    <glyph glyph-name="OE" unicode="&#x152;" horiz-adv-x="3244" 
d="M1052 -29q-207 0 -381.5 52.5t-299 148t-194.5 237t-70 313.5v2q0 229 120.5 400t334 260.5t490.5 89.5q221 0 404.5 -57.5t309.5 -165.5v194h1354v-204h-1118v-407h1053v-203h-1053v-428h1120v-203h-1356v195q-126 -109 -309 -166.5t-405 -57.5zM1052 168
q149 0 275.5 37t219.5 106t146 174.5t53 236.5v2q0 131 -53 236.5t-146 174.5t-219.5 105.5t-275.5 36.5q-148 0 -274.5 -36.5t-219.5 -105.5t-146 -174.5t-53 -236.5v-2q0 -174 91.5 -301t247 -190t354.5 -63z" />
    <glyph glyph-name="oe" unicode="&#x153;" horiz-adv-x="2784" 
d="M809 -29q-332 0 -527 154.5t-195 409.5v2q0 254 195 407.5t527 153.5q202 0 356 -57t246 -163q93 106 245.5 163t338.5 57q306 0 499.5 -164.5t205.5 -470.5v-1h-1166v-1q26 -149 154.5 -230t314.5 -81q154 0 267.5 41t166.5 123h247q-64 -161 -244 -252t-442 -91
q-192 0 -345 57t-244 163q-92 -106 -245.5 -163t-354.5 -57zM809 151q215 0 347 102.5t132 281.5v2q0 178 -132 280t-347 102t-347.5 -102t-132.5 -280v-2q0 -179 132.5 -281.5t347.5 -102.5zM1991 923q-118 0 -208.5 -28t-156 -92.5t-89.5 -162.5v-1h906v1
q-30 137 -150.5 210t-301.5 73z" />
    <glyph glyph-name="Racute" unicode="&#x154;" horiz-adv-x="1847" 
d="M190 1v1444h930q556 0 556 -376v-2q0 -142 -66.5 -226.5t-195.5 -124.5q53 -12 86.5 -28.5t63.5 -49.5t47 -89t25 -141l13 -125q21 -215 47 -282h-247q-19 50 -28 140l-24 221q-8 80 -25.5 127t-54.5 72.5t-84 33.5t-129 8h-677v-602h-237zM427 806h666q176 0 254 48
t78 169v2q0 121 -78 169t-254 48h-666v-436zM653 1618l310 264h330l-381 -264h-259z" />
    <glyph glyph-name="racute" unicode="&#x155;" horiz-adv-x="929" 
d="M168 1v1067h226v-211q51 100 172.5 162.5t277.5 62.5h57v-210h-90q-196 0 -305.5 -81t-109.5 -247v-543h-228zM378 1210l249 234h329l-331 -234h-247z" />
    <glyph glyph-name="uni0156" unicode="&#x156;" horiz-adv-x="1847" 
d="M190 1v1444h930q556 0 556 -376v-2q0 -142 -66.5 -226.5t-195.5 -124.5q53 -12 86.5 -28.5t63.5 -49.5t47 -89t25 -141l13 -125q21 -215 47 -282h-247q-19 50 -28 140l-24 221q-8 80 -25.5 127t-54.5 72.5t-84 33.5t-129 8h-677v-602h-237zM427 806h666q176 0 254 48
t78 169v2q0 121 -78 169t-254 48h-666v-436zM575 -362l212 264h255l-242 -264h-225z" />
    <glyph glyph-name="uni0157" unicode="&#x157;" horiz-adv-x="929" 
d="M168 1v1067h226v-211q51 100 172.5 162.5t277.5 62.5h57v-210h-90q-196 0 -305.5 -81t-109.5 -247v-543h-228zM-55 -362l212 264h255l-242 -264h-225z" />
    <glyph glyph-name="Rcaron" unicode="&#x158;" horiz-adv-x="1847" 
d="M190 1v1444h930q556 0 556 -376v-2q0 -142 -66.5 -226.5t-195.5 -124.5q53 -12 86.5 -28.5t63.5 -49.5t47 -89t25 -141l13 -125q21 -215 47 -282h-247q-19 50 -28 140l-24 221q-8 80 -25.5 127t-54.5 72.5t-84 33.5t-129 8h-677v-602h-237zM427 806h666q176 0 254 48
t78 169v2q0 121 -78 169t-254 48h-666v-436zM344 1882h282l209 -159l209 159h282l-338 -264h-307z" />
    <glyph glyph-name="rcaron" unicode="&#x159;" horiz-adv-x="929" 
d="M168 1v1067h226v-211q51 100 172.5 162.5t277.5 62.5h57v-210h-90q-196 0 -305.5 -81t-109.5 -247v-543h-228zM54 1444h272l210 -128l208 128h272l-338 -234h-286z" />
    <glyph glyph-name="Sacute" unicode="&#x15a;" horiz-adv-x="1805" 
d="M927 -29q-346 0 -571 125.5t-270 351.5h260q25 -100 112.5 -165.5t207 -92.5t273.5 -27q537 0 537 223v3q0 50 -21.5 86t-58.5 60.5t-102.5 41.5t-137 27.5t-178.5 19.5l-248 29q-306 29 -452 132t-146 285v2q0 126 103 219t271 138t378 45q323 0 532.5 -112.5
t252.5 -316.5h-260q-40 125 -183 181t-356 56q-103 0 -189.5 -11t-156 -34.5t-108.5 -64.5t-39 -95v-2q0 -95 96 -146t330 -71l247 -29q135 -14 233 -33t185.5 -50.5t140.5 -75.5t83.5 -109t30.5 -151v-3q0 -112 -58 -196.5t-165 -136.5t-250.5 -77.5t-322.5 -25.5z
M692 1618l310 264h330l-381 -264h-259z" />
    <glyph glyph-name="sacute" unicode="&#x15b;" horiz-adv-x="1466" 
d="M754 -29q-189 0 -333 39t-236 120.5t-114 200.5h244q15 -55 55 -93.5t103 -59t134 -29t162 -8.5q192 0 289.5 35t97.5 113v2q0 38 -18.5 63.5t-62 42t-99 25.5t-144.5 16l-252 21q-479 36 -479 315v2q0 97 80 171t218 112.5t313 38.5q267 0 437.5 -81t204.5 -243h-243
q-17 46 -55.5 77.5t-95.5 48t-117.5 23t-135.5 6.5q-182 0 -275.5 -37t-93.5 -106v-2q0 -62 64 -93t210 -42l260 -21q102 -9 178 -22t143.5 -36.5t110 -57t66.5 -83.5t24 -115v-2q0 -163 -168.5 -252t-471.5 -89zM558 1210l249 234h329l-331 -234h-247z" />
    <glyph glyph-name="Scircumflex" unicode="&#x15c;" horiz-adv-x="1805" 
d="M927 -29q-346 0 -571 125.5t-270 351.5h260q25 -100 112.5 -165.5t207 -92.5t273.5 -27q537 0 537 223v3q0 50 -21.5 86t-58.5 60.5t-102.5 41.5t-137 27.5t-178.5 19.5l-248 29q-306 29 -452 132t-146 285v2q0 126 103 219t271 138t378 45q323 0 532.5 -112.5
t252.5 -316.5h-260q-40 125 -183 181t-356 56q-103 0 -189.5 -11t-156 -34.5t-108.5 -64.5t-39 -95v-2q0 -95 96 -146t330 -71l247 -29q135 -14 233 -33t185.5 -50.5t140.5 -75.5t83.5 -109t30.5 -151v-3q0 -112 -58 -196.5t-165 -136.5t-250.5 -77.5t-322.5 -25.5z
M383 1618l337 264h307l338 -264h-282l-209 160l-209 -160h-282z" />
    <glyph glyph-name="scircumflex" unicode="&#x15d;" horiz-adv-x="1466" 
d="M754 -29q-189 0 -333 39t-236 120.5t-114 200.5h244q15 -55 55 -93.5t103 -59t134 -29t162 -8.5q192 0 289.5 35t97.5 113v2q0 38 -18.5 63.5t-62 42t-99 25.5t-144.5 16l-252 21q-479 36 -479 315v2q0 97 80 171t218 112.5t313 38.5q267 0 437.5 -81t204.5 -243h-243
q-17 46 -55.5 77.5t-95.5 48t-117.5 23t-135.5 6.5q-182 0 -275.5 -37t-93.5 -106v-2q0 -62 64 -93t210 -42l260 -21q102 -9 178 -22t143.5 -36.5t110 -57t66.5 -83.5t24 -115v-2q0 -163 -168.5 -252t-471.5 -89zM233 1210l338 234h286l338 -234h-272l-208 129l-210 -129
h-272z" />
    <glyph glyph-name="Scedilla" unicode="&#x15e;" horiz-adv-x="1805" 
d="M927 -29q-346 0 -571 125.5t-270 351.5h260q25 -100 112.5 -165.5t207 -92.5t273.5 -27q537 0 537 223v3q0 50 -21.5 86t-58.5 60.5t-102.5 41.5t-137 27.5t-178.5 19.5l-248 29q-306 29 -452 132t-146 285v2q0 126 103 219t271 138t378 45q323 0 532.5 -112.5
t252.5 -316.5h-260q-40 125 -183 181t-356 56q-103 0 -189.5 -11t-156 -34.5t-108.5 -64.5t-39 -95v-2q0 -95 96 -146t330 -71l247 -29q135 -14 233 -33t185.5 -50.5t140.5 -75.5t83.5 -109t30.5 -151v-3q0 -112 -58 -196.5t-165 -136.5t-250.5 -77.5t-322.5 -25.5z
M881 -418q-130 0 -254 47l44 97q93 -41 197 -41q128 0 128 58q0 55 -106 55q-60 0 -108 -23l-76 55l184 211h138l-142 -161q39 11 91 11q87 0 150 -34t63 -104q0 -79 -87 -125t-222 -46z" />
    <glyph glyph-name="scedilla" unicode="&#x15f;" horiz-adv-x="1466" 
d="M754 -29q-189 0 -333 39t-236 120.5t-114 200.5h244q15 -55 55 -93.5t103 -59t134 -29t162 -8.5q192 0 289.5 35t97.5 113v2q0 38 -18.5 63.5t-62 42t-99 25.5t-144.5 16l-252 21q-479 36 -479 315v2q0 97 80 171t218 112.5t313 38.5q267 0 437.5 -81t204.5 -243h-243
q-17 46 -55.5 77.5t-95.5 48t-117.5 23t-135.5 6.5q-182 0 -275.5 -37t-93.5 -106v-2q0 -62 64 -93t210 -42l260 -21q102 -9 178 -22t143.5 -36.5t110 -57t66.5 -83.5t24 -115v-2q0 -163 -168.5 -252t-471.5 -89zM699 -418q-130 0 -254 47l44 97q93 -41 197 -41
q128 0 128 58q0 55 -106 55q-60 0 -108 -23l-76 55l184 211h138l-142 -161q39 11 91 11q87 0 150 -34t63 -104q0 -79 -87 -125t-222 -46z" />
    <glyph glyph-name="Scaron" unicode="&#x160;" horiz-adv-x="1805" 
d="M927 -29q-346 0 -571 125.5t-270 351.5h260q25 -100 112.5 -165.5t207 -92.5t273.5 -27q537 0 537 223v3q0 50 -21.5 86t-58.5 60.5t-102.5 41.5t-137 27.5t-178.5 19.5l-248 29q-306 29 -452 132t-146 285v2q0 126 103 219t271 138t378 45q323 0 532.5 -112.5
t252.5 -316.5h-260q-40 125 -183 181t-356 56q-103 0 -189.5 -11t-156 -34.5t-108.5 -64.5t-39 -95v-2q0 -95 96 -146t330 -71l247 -29q135 -14 233 -33t185.5 -50.5t140.5 -75.5t83.5 -109t30.5 -151v-3q0 -112 -58 -196.5t-165 -136.5t-250.5 -77.5t-322.5 -25.5z
M383 1882h282l209 -159l209 159h282l-338 -264h-307z" />
    <glyph glyph-name="scaron" unicode="&#x161;" horiz-adv-x="1466" 
d="M754 -29q-189 0 -333 39t-236 120.5t-114 200.5h244q15 -55 55 -93.5t103 -59t134 -29t162 -8.5q192 0 289.5 35t97.5 113v2q0 38 -18.5 63.5t-62 42t-99 25.5t-144.5 16l-252 21q-479 36 -479 315v2q0 97 80 171t218 112.5t313 38.5q267 0 437.5 -81t204.5 -243h-243
q-17 46 -55.5 77.5t-95.5 48t-117.5 23t-135.5 6.5q-182 0 -275.5 -37t-93.5 -106v-2q0 -62 64 -93t210 -42l260 -21q102 -9 178 -22t143.5 -36.5t110 -57t66.5 -83.5t24 -115v-2q0 -163 -168.5 -252t-471.5 -89zM233 1444h272l210 -128l208 128h272l-338 -234h-286z" />
    <glyph glyph-name="uni0162" unicode="&#x162;" horiz-adv-x="1675" 
d="M720 1v1240h-698v204h1633v-204h-698v-1240h-237zM797 -418q-130 0 -254 47l44 97q93 -41 197 -41q128 0 128 58q0 55 -106 55q-60 0 -108 -23l-76 55l184 211h138l-142 -161q39 11 91 11q87 0 150 -34t63 -104q0 -79 -87 -125t-222 -46z" />
    <glyph glyph-name="uni0163" unicode="&#x163;" horiz-adv-x="996" 
d="M692 0q-93 0 -156.5 10t-110 33.5t-72.5 66t-38 102.5t-12 148v523h-274v184h274v358h228v-358h380v-184h-380v-510q0 -82 15 -119.5t57.5 -53.5t132.5 -16h164v-184h-208zM556 -418q-130 0 -254 47l44 97q93 -41 197 -41q128 0 128 58q0 55 -106 55q-60 0 -108 -23
l-76 55l184 211h138l-142 -161q39 11 91 11q87 0 150 -34t63 -104q0 -79 -87 -125t-222 -46z" />
    <glyph glyph-name="Tcaron" unicode="&#x164;" horiz-adv-x="1675" 
d="M720 1v1240h-698v204h1633v-204h-698v-1240h-237zM348 1882h282l209 -159l209 159h282l-338 -264h-307z" />
    <glyph glyph-name="tcaron" unicode="&#x165;" horiz-adv-x="996" 
d="M692 0q-93 0 -156.5 10t-110 33.5t-72.5 66t-38 102.5t-12 148v523h-274v184h274v358h228v-358h380v-184h-380v-510q0 -82 15 -119.5t57.5 -53.5t132.5 -16h164v-184h-208zM659 1642h227l-76 -336h-151v336z" />
    <glyph glyph-name="Tbar" unicode="&#x166;" horiz-adv-x="1675" 
d="M720 1v676h-519v187h519v377h-698v204h1633v-204h-698v-377h519v-187h-519v-676h-237z" />
    <glyph glyph-name="tbar" unicode="&#x167;" horiz-adv-x="1006" 
d="M692 0q-93 0 -156.5 10t-110 33.5t-72.5 66t-38 102.5t-12 148v155h-274v173h274v195h-274v184h274v358h228v-358h380v-184h-380v-195h390v-173h-390v-142q0 -82 15 -119.5t57.5 -53.5t132.5 -16h164v-184h-208z" />
    <glyph glyph-name="Utilde" unicode="&#x168;" horiz-adv-x="1895" 
d="M948 -29q-246 0 -417 68t-265.5 215.5t-94.5 369.5v820h237v-815q0 -232 139 -346.5t401 -114.5q263 0 402 114.5t139 346.5v815h237v-820q0 -331 -202.5 -492t-575.5 -161zM493 1618q8 122 69.5 193t173.5 71q76 0 151 -25t134.5 -50t98.5 -25q55 0 77.5 23t26.5 77h181
q-9 -122 -70.5 -193t-172.5 -71q-61 0 -121.5 16t-100.5 34.5t-84.5 34.5t-76.5 16q-55 0 -78 -23t-28 -78h-180z" />
    <glyph glyph-name="utilde" unicode="&#x169;" 
d="M699 -29q-260 0 -404.5 128.5t-144.5 376.5v591h228v-542q0 -185 101.5 -277.5t292.5 -92.5t292 92.5t101 277.5v542h228v-1067h-228v159q-63 -84 -180 -136t-286 -52zM326 1210q8 123 69.5 194t173.5 71q76 0 151 -25.5t134.5 -50.5t98.5 -25q55 0 77.5 23.5t26.5 77.5
h181q-9 -123 -70.5 -194t-172.5 -71q-77 0 -151.5 25.5t-133.5 51t-98 25.5q-55 0 -78 -23.5t-28 -78.5h-180z" />
    <glyph glyph-name="Umacron" unicode="&#x16a;" horiz-adv-x="1895" 
d="M948 -29q-246 0 -417 68t-265.5 215.5t-94.5 369.5v820h237v-815q0 -232 139 -346.5t401 -114.5q263 0 402 114.5t139 346.5v815h237v-820q0 -331 -202.5 -492t-575.5 -161zM539 1649v157h819v-157h-819z" />
    <glyph glyph-name="umacron" unicode="&#x16b;" 
d="M699 -29q-260 0 -404.5 128.5t-144.5 376.5v591h228v-542q0 -185 101.5 -277.5t292.5 -92.5t292 92.5t101 277.5v542h228v-1067h-228v159q-63 -84 -180 -136t-286 -52zM393 1244v154h758v-154h-758z" />
    <glyph glyph-name="Ubreve" unicode="&#x16c;" horiz-adv-x="1895" 
d="M948 -29q-246 0 -417 68t-265.5 215.5t-94.5 369.5v820h237v-815q0 -232 139 -346.5t401 -114.5q263 0 402 114.5t139 346.5v815h237v-820q0 -331 -202.5 -492t-575.5 -161zM949 1610q-164 0 -266 70t-126 203h200q7 -63 59.5 -96.5t132.5 -33.5t132.5 33.5t59.5 96.5
h200q-24 -133 -126.5 -203t-265.5 -70z" />
    <glyph glyph-name="ubreve" unicode="&#x16d;" 
d="M699 -29q-260 0 -404.5 128.5t-144.5 376.5v591h228v-542q0 -185 101.5 -277.5t292.5 -92.5t292 92.5t101 277.5v542h228v-1067h-228v159q-63 -84 -180 -136t-286 -52zM772 1192q-347 0 -392 253h200q7 -61 57 -85.5t135 -24.5t135 24.5t57 85.5h200q-45 -253 -392 -253z
" />
    <glyph glyph-name="Uring" unicode="&#x16e;" horiz-adv-x="1895" 
d="M948 -29q-246 0 -417 68t-265.5 215.5t-94.5 369.5v820h237v-815q0 -232 139 -346.5t401 -114.5q263 0 402 114.5t139 346.5v815h237v-820q0 -331 -202.5 -492t-575.5 -161zM950 1536q-98 0 -167.5 65t-69.5 163t69.5 163.5t167.5 65.5q97 0 166.5 -65.5t69.5 -163.5
t-69.5 -163t-166.5 -65zM950 1645q51 0 83 33t32 86t-32 86t-83 33q-52 0 -84 -33t-32 -86t32 -86t84 -33z" />
    <glyph glyph-name="uring" unicode="&#x16f;" 
d="M699 -29q-260 0 -404.5 128.5t-144.5 376.5v591h228v-542q0 -185 101.5 -277.5t292.5 -92.5t292 92.5t101 277.5v542h228v-1067h-228v159q-63 -84 -180 -136t-286 -52zM773 1183q-98 0 -167.5 65t-69.5 164q0 98 69.5 163t167.5 65q97 0 166.5 -65t69.5 -163
q0 -99 -69.5 -164t-166.5 -65zM773 1293q51 0 83 33t32 86q0 52 -32 85t-83 33q-52 0 -84 -32.5t-32 -85.5t32 -86t84 -33z" />
    <glyph glyph-name="Uhungarumlaut" unicode="&#x170;" horiz-adv-x="1895" 
d="M948 -29q-246 0 -417 68t-265.5 215.5t-94.5 369.5v820h237v-815q0 -232 139 -346.5t401 -114.5q263 0 402 114.5t139 346.5v815h237v-820q0 -331 -202.5 -492t-575.5 -161zM529 1618l310 264h330l-381 -264h-259zM1081 1618l310 264h330l-382 -264h-258z" />
    <glyph glyph-name="uhungarumlaut" unicode="&#x171;" 
d="M699 -29q-260 0 -404.5 128.5t-144.5 376.5v591h228v-542q0 -185 101.5 -277.5t292.5 -92.5t292 92.5t101 277.5v542h228v-1067h-228v159q-63 -84 -180 -136t-286 -52zM354 1210l274 234h330l-357 -234h-247zM900 1210l274 234h330l-357 -234h-247z" />
    <glyph glyph-name="Uogonek" unicode="&#x172;" horiz-adv-x="1895" 
d="M948 -29q-246 0 -417 68t-265.5 215.5t-94.5 369.5v820h237v-815q0 -232 139 -346.5t401 -114.5q263 0 402 114.5t139 346.5v815h237v-820q0 -331 -202.5 -492t-575.5 -161zM854 1h196q-110 -65 -110 -150q0 -41 30.5 -61.5t76.5 -20.5q51 0 97 22l56 -138
q-87 -49 -209 -49q-115 0 -186 54.5t-71 145.5q0 115 120 197z" />
    <glyph glyph-name="uogonek" unicode="&#x173;" 
d="M699 -29q-260 0 -404.5 128.5t-144.5 376.5v591h228v-542q0 -185 101.5 -277.5t292.5 -92.5t292 92.5t101 277.5v542h228v-1067h-228v159q-63 -84 -180 -136t-286 -52zM1185 1h196q-110 -65 -110 -150q0 -41 30.5 -61.5t76.5 -20.5q51 0 97 22l56 -138q-87 -49 -209 -49
q-115 0 -186 54.5t-71 145.5q0 115 120 197z" />
    <glyph glyph-name="Wcircumflex" unicode="&#x174;" horiz-adv-x="2700" 
d="M584 0l-557 1444h254l466 -1203h1l449 1203h310l456 -1209h1l467 1209h242l-555 -1444h-312l-457 1223h-1l-453 -1223h-311zM860 1618l337 264h307l338 -264h-282l-209 160l-209 -160h-282z" />
    <glyph glyph-name="wcircumflex" unicode="&#x175;" horiz-adv-x="2292" 
d="M496 0l-471 1067h249l370 -851h1l387 851h249l394 -846h1l369 846h224l-471 -1067h-254l-399 855h-1l-392 -855h-256zM666 1210l338 234h286l338 -234h-272l-208 129l-210 -129h-272z" />
    <glyph glyph-name="Ycircumflex" unicode="&#x176;" horiz-adv-x="1812" 
d="M789 0v534l-772 910h291l502 -597l96 -118h3l96 118l499 597h290l-768 -909v-535h-237zM415 1618l337 264h307l338 -264h-282l-209 160l-209 -160h-282z" />
    <glyph glyph-name="ycircumflex" unicode="&#x177;" horiz-adv-x="1495" 
d="M211 -333v184h132q129 0 173 21.5t94 113.5l11 21l-611 1060h263l479 -842l498 842h242l-661 -1110q-39 -66 -69.5 -110t-64.5 -78t-65.5 -52.5t-76 -30.5t-91 -15.5t-115.5 -3.5h-138zM279 1210l338 234h286l338 -234h-272l-208 129l-210 -129h-272z" />
    <glyph glyph-name="Ydieresis" unicode="&#x178;" horiz-adv-x="1812" 
d="M789 0v534l-772 910h291l502 -597l96 -118h3l96 118l499 597h290l-768 -909v-535h-237zM439 1635v247h237v-247h-237zM1138 1635v247h237v-247h-237z" />
    <glyph glyph-name="Zacute" unicode="&#x179;" horiz-adv-x="1609" 
d="M77 0v200l1115 1041h-1069v203h1378v-199l-1116 -1042h1139v-203h-1447zM647 1618l310 264h330l-381 -264h-259z" />
    <glyph glyph-name="zacute" unicode="&#x17a;" horiz-adv-x="1392" 
d="M81 0v179l880 704h-851v184h1176v-178l-889 -705h914v-184h-1230zM566 1210l249 234h329l-331 -234h-247z" />
    <glyph glyph-name="Zdotaccent" unicode="&#x17b;" horiz-adv-x="1609" 
d="M77 0v200l1115 1041h-1069v203h1378v-199l-1116 -1042h1139v-203h-1447zM712 1635v247h237v-247h-237z" />
    <glyph glyph-name="zdotaccent" unicode="&#x17c;" horiz-adv-x="1392" 
d="M81 0v179l880 704h-851v184h1176v-178l-889 -705h914v-184h-1230zM610 1209v235h228v-235h-228z" />
    <glyph glyph-name="Zcaron" unicode="&#x17d;" horiz-adv-x="1609" 
d="M77 0v200l1115 1041h-1069v203h1378v-199l-1116 -1042h1139v-203h-1447zM338 1882h282l209 -159l209 159h282l-338 -264h-307z" />
    <glyph glyph-name="zcaron" unicode="&#x17e;" horiz-adv-x="1392" 
d="M81 0v179l880 704h-851v184h1176v-178l-889 -705h914v-184h-1230zM242 1444h272l210 -128l208 128h272l-338 -234h-286z" />
    <glyph glyph-name="uni01C5" unicode="&#x1c5;" horiz-adv-x="3227" 
d="M190 0v1445h641q150 0 281.5 -22t254 -75t210 -134t140 -206.5t52.5 -285.5v-2q0 -159 -52.5 -284t-140 -205.5t-210 -133.5t-254 -75t-281.5 -22h-641zM427 202h401q689 0 689 518v2q0 125 -42 220t-107.5 150.5t-159.5 90.5t-184.5 47t-195.5 12h-401v-1040zM1916 0
v179l880 704h-851v184h1176v-178l-889 -705h914v-184h-1230zM2077 1444h272l210 -128l208 128h272l-338 -234h-286z" />
    <glyph glyph-name="uni01C6" unicode="&#x1c6;" horiz-adv-x="3031" 
d="M745 -29q-138 0 -258 38.5t-208.5 108.5t-139.5 177.5t-51 237.5v3q0 173 88 302t235.5 194t333.5 65q180 0 306 -50t194 -130v528h228v-1445h-228v152q-68 -80 -194 -130.5t-306 -50.5zM793 151q71 0 136 13t126 42.5t105.5 72.5t71 108.5t26.5 145.5v3q0 99 -40 175
t-107.5 119.5t-148 65t-169.5 21.5q-71 0 -136 -13t-125.5 -42t-104.5 -72.5t-70.5 -108.5t-26.5 -145v-3q0 -99 39.5 -175t107 -120t147.5 -65.5t169 -21.5zM1720 0v179l880 704h-851v184h1176v-178l-889 -705h914v-184h-1230zM1881 1444h272l210 -128l208 128h272
l-338 -234h-286z" />
    <glyph glyph-name="uni01F2" unicode="&#x1f2;" horiz-adv-x="3227" 
d="M190 0v1445h641q150 0 281.5 -22t254 -75t210 -134t140 -206.5t52.5 -285.5v-2q0 -159 -52.5 -284t-140 -205.5t-210 -133.5t-254 -75t-281.5 -22h-641zM427 202h401q689 0 689 518v2q0 125 -42 220t-107.5 150.5t-159.5 90.5t-184.5 47t-195.5 12h-401v-1040zM1916 0
v179l880 704h-851v184h1176v-178l-889 -705h914v-184h-1230z" />
    <glyph glyph-name="uni01F3" unicode="&#x1f3;" horiz-adv-x="3031" 
d="M745 -29q-138 0 -258 38.5t-208.5 108.5t-139.5 177.5t-51 237.5v3q0 173 88 302t235.5 194t333.5 65q180 0 306 -50t194 -130v528h228v-1445h-228v152q-68 -80 -194 -130.5t-306 -50.5zM793 151q71 0 136 13t126 42.5t105.5 72.5t71 108.5t26.5 145.5v3q0 99 -40 175
t-107.5 119.5t-148 65t-169.5 21.5q-71 0 -136 -13t-125.5 -42t-104.5 -72.5t-70.5 -108.5t-26.5 -145v-3q0 -99 39.5 -175t107 -120t147.5 -65.5t169 -21.5zM1720 0v179l880 704h-851v184h1176v-178l-889 -705h914v-184h-1230z" />
    <glyph glyph-name="uni0218" unicode="&#x218;" horiz-adv-x="1805" 
d="M927 -29q-346 0 -571 125.5t-270 351.5h260q25 -100 112.5 -165.5t207 -92.5t273.5 -27q537 0 537 223v3q0 50 -21.5 86t-58.5 60.5t-102.5 41.5t-137 27.5t-178.5 19.5l-248 29q-306 29 -452 132t-146 285v2q0 126 103 219t271 138t378 45q323 0 532.5 -112.5
t252.5 -316.5h-260q-40 125 -183 181t-356 56q-103 0 -189.5 -11t-156 -34.5t-108.5 -64.5t-39 -95v-2q0 -95 96 -146t330 -71l247 -29q135 -14 233 -33t185.5 -50.5t140.5 -75.5t83.5 -109t30.5 -151v-3q0 -112 -58 -196.5t-165 -136.5t-250.5 -77.5t-322.5 -25.5z
M586 -362l212 264h255l-242 -264h-225z" />
    <glyph glyph-name="uni0219" unicode="&#x219;" horiz-adv-x="1466" 
d="M754 -29q-189 0 -333 39t-236 120.5t-114 200.5h244q15 -55 55 -93.5t103 -59t134 -29t162 -8.5q192 0 289.5 35t97.5 113v2q0 38 -18.5 63.5t-62 42t-99 25.5t-144.5 16l-252 21q-479 36 -479 315v2q0 97 80 171t218 112.5t313 38.5q267 0 437.5 -81t204.5 -243h-243
q-17 46 -55.5 77.5t-95.5 48t-117.5 23t-135.5 6.5q-182 0 -275.5 -37t-93.5 -106v-2q0 -62 64 -93t210 -42l260 -21q102 -9 178 -22t143.5 -36.5t110 -57t66.5 -83.5t24 -115v-2q0 -163 -168.5 -252t-471.5 -89zM404 -362l212 264h255l-242 -264h-225z" />
    <glyph glyph-name="uni021A" unicode="&#x21a;" horiz-adv-x="1696" 
d="M730 1v1240h-698v204h1633v-204h-698v-1240h-237zM512 -362l212 264h255l-242 -264h-225z" />
    <glyph glyph-name="uni021B" unicode="&#x21b;" horiz-adv-x="996" 
d="M692 0q-93 0 -156.5 10t-110 33.5t-72.5 66t-38 102.5t-12 148v523h-274v184h274v358h228v-358h380v-184h-380v-510q0 -82 15 -119.5t57.5 -53.5t132.5 -16h164v-184h-208zM261 -362l212 264h255l-242 -264h-225z" />
    <glyph glyph-name="uni0237" unicode="&#x237;" horiz-adv-x="562" 
d="M-120 -333v185h98q59 0 91.5 6t57 27t33 59.5t8.5 104.5v1019h227v-1023q0 -214 -93 -296t-320 -82h-102z" />
    <glyph glyph-name="uni02BC" unicode="&#x2bc;" horiz-adv-x="443" 
d="M389 1505l-105 -321h-229l140 321h194z" />
    <glyph glyph-name="circumflex" unicode="&#x2c6;" horiz-adv-x="997" 
d="M18 1210l338 234h286l338 -234h-272l-208 129l-210 -129h-272z" />
    <glyph glyph-name="caron" unicode="&#x2c7;" horiz-adv-x="997" 
d="M18 1444h272l210 -128l208 128h272l-338 -234h-286z" />
    <glyph glyph-name="uni02C9" unicode="&#x2c9;" horiz-adv-x="825" 
d="M34 1244v154h758v-154h-758z" />
    <glyph glyph-name="breve" unicode="&#x2d8;" horiz-adv-x="851" 
d="M426 1192q-347 0 -392 253h200q7 -61 57 -85.5t135 -24.5t135 24.5t57 85.5h200q-45 -253 -392 -253z" />
    <glyph glyph-name="dotaccent" unicode="&#x2d9;" horiz-adv-x="294" 
d="M34 1209v235h228v-235h-228z" />
    <glyph glyph-name="ring" unicode="&#x2da;" horiz-adv-x="539" 
d="M271 1183q-98 0 -167.5 65t-69.5 164q0 98 69.5 163t167.5 65q97 0 166.5 -65t69.5 -163q0 -99 -69.5 -164t-166.5 -65zM271 1293q51 0 83 33t32 86q0 52 -32 85t-83 33q-52 0 -84 -32.5t-32 -85.5t32 -86t84 -33z" />
    <glyph glyph-name="ogonek" unicode="&#x2db;" horiz-adv-x="533" 
d="M154 1h196q-110 -65 -110 -150q0 -41 30.5 -61.5t76.5 -20.5q51 0 97 22l56 -138q-87 -49 -209 -49q-115 0 -186 54.5t-71 145.5q0 115 120 197z" />
    <glyph glyph-name="tilde" unicode="&#x2dc;" horiz-adv-x="977" 
d="M34 1210q8 123 69.5 194t173.5 71q76 0 151 -25.5t134.5 -50.5t98.5 -25q55 0 77.5 23.5t26.5 77.5h181q-9 -123 -70.5 -194t-172.5 -71q-77 0 -151.5 25.5t-133.5 51t-98 25.5q-55 0 -78 -23.5t-28 -78.5h-180z" />
    <glyph glyph-name="hungarumlaut" unicode="&#x2dd;" horiz-adv-x="1216" 
d="M34 1210l274 234h330l-357 -234h-247zM580 1210l274 234h330l-357 -234h-247z" />
    <glyph glyph-name="uni030C" unicode="&#x30c;" horiz-adv-x="305" 
d="M55 1505h227l-76 -336h-151v336z" />
    <glyph glyph-name="uni0326" unicode="&#x326;" horiz-adv-x="533" 
d="M34 -362l212 264h255l-242 -264h-225z" />
    <glyph glyph-name="uni0327" unicode="&#x327;" horiz-adv-x="670" 
d="M34 1241l346 264h258l-295 -264h-309z" />
    <glyph glyph-name="uni0394" unicode="&#x394;" horiz-adv-x="1767" 
d="M12 0l716 1506h312l716 -1506h-1744zM336 181h1096l-548 1167z" />
    <glyph glyph-name="uni03A9" unicode="&#x3a9;" horiz-adv-x="2076" 
d="M116 0v191h437q-191 97 -306 259t-115 369v4q0 206 115 368t322 252.5t470 90.5t469.5 -90.5t321.5 -252.5t115 -368v-4q0 -207 -115 -369t-306 -259h438v-191h-767v185q107 44 195.5 104t160 137.5t111 177t39.5 211.5v3q0 242 -182.5 384.5t-479.5 142.5
q-298 0 -480.5 -142.5t-182.5 -384.5v-3q0 -112 39.5 -211.5t110.5 -177t159.5 -137.5t195.5 -104v-185h-765z" />
    <glyph glyph-name="uni03BC" unicode="&#x3bc;" 
d="M150 -334v1401h227v-542q0 -185 102 -277.5t293 -92.5t292 92.5t101 277.5v542h228v-1067h-228v159q-63 -84 -180 -136t-286 -52q-194 0 -322 67v-372h-227z" />
    <glyph glyph-name="pi" unicode="&#x3c0;" horiz-adv-x="1701" 
d="M282 0v885h-242v183h1567v-183h-242v-482q0 -126 51.5 -173t171.5 -47h19v-183h-67q-206 0 -304 84t-98 286v515h-629v-885h-227z" />
    <glyph glyph-name="Wgrave" unicode="&#x1e80;" horiz-adv-x="2700" 
d="M584 0l-557 1444h254l466 -1203h1l449 1203h310l456 -1209h1l467 1209h242l-555 -1444h-312l-457 1223h-1l-453 -1223h-311zM1275 1618l-381 264h330l310 -264h-259z" />
    <glyph glyph-name="wgrave" unicode="&#x1e81;" horiz-adv-x="2292" 
d="M496 0l-471 1067h249l370 -851h1l387 851h249l394 -846h1l369 846h224l-471 -1067h-254l-399 855h-1l-392 -855h-256zM1057 1210l-321 234h330l249 -234h-258z" />
    <glyph glyph-name="Wacute" unicode="&#x1e82;" horiz-adv-x="2700" 
d="M584 0l-557 1444h254l466 -1203h1l449 1203h310l456 -1209h1l467 1209h242l-555 -1444h-312l-457 1223h-1l-453 -1223h-311zM1168 1618l310 264h330l-381 -264h-259z" />
    <glyph glyph-name="wacute" unicode="&#x1e83;" horiz-adv-x="2292" 
d="M496 0l-471 1067h249l370 -851h1l387 851h249l394 -846h1l369 846h224l-471 -1067h-254l-399 855h-1l-392 -855h-256zM990 1210l249 234h329l-331 -234h-247z" />
    <glyph glyph-name="Wdieresis" unicode="&#x1e84;" horiz-adv-x="2700" 
d="M584 0l-557 1444h254l466 -1203h1l449 1203h310l456 -1209h1l467 1209h242l-555 -1444h-312l-457 1223h-1l-453 -1223h-311zM884 1635v247h237v-247h-237zM1583 1635v247h237v-247h-237z" />
    <glyph glyph-name="wdieresis" unicode="&#x1e85;" horiz-adv-x="2292" 
d="M496 0l-471 1067h249l370 -851h1l387 851h249l394 -846h1l369 846h224l-471 -1067h-254l-399 855h-1l-392 -855h-256zM705 1210v234h228v-234h-228zM1363 1210v234h227v-234h-227z" />
    <glyph glyph-name="endash" unicode="&#x2013;" horiz-adv-x="1378" 
d="M145 448v204h1088v-204h-1088z" />
    <glyph glyph-name="emdash" unicode="&#x2014;" horiz-adv-x="2350" 
d="M145 448v204h2061v-204h-2061z" />
    <glyph glyph-name="quoteleft" unicode="&#x2018;" horiz-adv-x="563" 
d="M488 1444l-143 -490h-249l191 490h201z" />
    <glyph glyph-name="quoteright" unicode="&#x2019;" horiz-adv-x="554" 
d="M105 954l143 490h249l-191 -490h-201z" />
    <glyph glyph-name="quotesinglbase" unicode="&#x201a;" horiz-adv-x="560" 
d="M40 -232l143 490h249l-191 -490h-201z" />
    <glyph glyph-name="quotedblleft" unicode="&#x201c;" horiz-adv-x="995" 
d="M488 1444l-143 -490h-249l191 490h201zM920 1444l-143 -490h-249l192 490h200z" />
    <glyph glyph-name="quotedblright" unicode="&#x201d;" horiz-adv-x="986" 
d="M537 954l144 490h248l-191 -490h-201zM105 954l143 490h249l-191 -490h-201z" />
    <glyph glyph-name="quotedblbase" unicode="&#x201e;" horiz-adv-x="993" 
d="M40 -232l143 489h249l-191 -489h-201zM473 -232l143 489h249l-192 -489h-200z" />
    <glyph glyph-name="dagger" unicode="&#x2020;" horiz-adv-x="1251" 
d="M522 -197v1072h-466v193h466v438h208v-438h466v-193h-466v-1072h-208z" />
    <glyph glyph-name="daggerdbl" unicode="&#x2021;" horiz-adv-x="1342" 
d="M568 -197v445h-466v192h466v435h-466v193h466v438h208v-438h466v-193h-466v-435h466v-192h-466v-445h-208z" />
    <glyph glyph-name="bullet" unicode="&#x2022;" horiz-adv-x="1083" 
d="M173 540q0 150 106.5 256t254.5 106q160 0 268 -105.5t108 -256.5q0 -160 -107.5 -267.5t-268.5 -107.5q-149 0 -255 108.5t-106 266.5z" />
    <glyph glyph-name="ellipsis" unicode="&#x2026;" horiz-adv-x="1705" 
d="M1318 0v258h244v-258h-244zM731 0v258h244v-258h-244zM144 0v258h244v-258h-244z" />
    <glyph glyph-name="guilsinglleft" unicode="&#x2039;" horiz-adv-x="752" 
d="M386 192l-291 382l291 381h244l-284 -381l284 -382h-244z" />
    <glyph glyph-name="guilsinglright" unicode="&#x203a;" horiz-adv-x="752" 
d="M659 574l-292 -382h-243l284 382l-284 381h243z" />
    <glyph glyph-name="fraction" unicode="&#x2044;" horiz-adv-x="538" 
d="M-440 0l1186 1505h223l-1185 -1505h-224z" />
    <glyph glyph-name="Euro" unicode="&#x20ac;" horiz-adv-x="2208" 
d="M1303 -29q-316 0 -531 131t-289 370v1h-381l96 174h253q-8 86 3 170h-352l96 174h296v1q81 232 291.5 357t517.5 125q306 0 520.5 -125t270.5 -356h-243q-31 106 -113 174t-190 96t-245 28q-202 0 -341.5 -76t-206.5 -223v-1h733l-96 -174h-688q-11 -79 -5 -170h789
l-96 -174h-652v-1q61 -154 204.5 -234.5t358.5 -80.5q102 0 188 15.5t159.5 49.5t125.5 92t75 138h243q-56 -231 -270.5 -356t-520.5 -125z" />
    <glyph glyph-name="uni20BF" unicode="&#x20bf;" horiz-adv-x="1800" 
d="M190 0v1444h309v308h208v-308h266v308h208v-316q222 -20 327 -113t105 -245v-2q0 -108 -52.5 -186.5t-139.5 -120.5v-1q277 -89 277 -348v-2q0 -380 -517 -412v-258h-208v252h-266v-252h-208v252h-309zM427 843h659q282 0 282 206v1q0 105 -72.5 150t-209.5 45h-659v-402
zM427 199h666q187 0 271 53.5t84 167.5v1q0 114 -81.5 168.5t-256.5 54.5h-683v-445z" />
    <glyph glyph-name="uni2113" unicode="&#x2113;" horiz-adv-x="1136" 
d="M827 -15q-484 0 -532 404q-106 -51 -196 -91l-74 164q136 58 265 122v450q0 255 114.5 378t316.5 123q184 0 292 -90.5t108 -249.5q0 -193 -150.5 -359t-452.5 -333q1 -78 20.5 -136.5t50.5 -92.5t77 -54.5t90.5 -27t100.5 -6.5q70 0 178 12v-199q-121 -14 -208 -14z
M518 709q195 120 281 231t86 231q0 86 -46.5 135.5t-124.5 49.5q-196 0 -196 -291v-356z" />
    <glyph glyph-name="trademark" unicode="&#x2122;" horiz-adv-x="2526" 
d="M473 575v729h-413v140h993v-140h-414v-729h-166zM1186 575v869h232l345 -729l348 729h230v-869h-166l2 664h-1l-321 -664h-183l-319 664h-2l1 -187v-477h-166z" />
    <glyph glyph-name="uni2126" unicode="&#x2126;" horiz-adv-x="2077" 
d="M117 0v181h436q-189 96 -304.5 263t-115.5 375v4q0 206 115 368t321.5 252.5t469.5 90.5t469.5 -90.5t321.5 -252.5t115 -368v-4q0 -208 -115.5 -375t-304.5 -263h437v-181h-766v174q106 45 195.5 106.5t160 141t110 180.5t39.5 213v3q0 242 -182 384.5t-480 142.5
t-480 -142.5t-182 -384.5v-3q0 -112 40 -213t110.5 -180.5t159.5 -141t195 -106.5v-174h-765z" />
    <glyph glyph-name="estimated" unicode="&#x212e;" horiz-adv-x="1945" 
d="M1868 731h-1424v-366q0 -86 81 -166.5t217.5 -131t285.5 -50.5q194 0 374.5 83.5t288.5 205.5h72q-130 -154 -316 -244.5t-422 -90.5q-188 0 -355.5 62t-286 167t-187.5 249t-69 304q0 213 116 392.5t315.5 284t435.5 104.5q237 0 438 -104.5t318.5 -284.5t117.5 -392
v-22zM444 1160v-386h1106v386q0 59 -40.5 117t-111.5 105t-177 76.5t-227 29.5t-226 -29.5t-175 -76.5t-109.5 -105t-39.5 -117z" />
    <glyph glyph-name="arrowleft" unicode="&#x2190;" horiz-adv-x="2165" 
d="M720 -101l-635 636l635 635h273l-535 -534h1623v-203h-1623l535 -534h-273z" />
    <glyph glyph-name="arrowup" unicode="&#x2191;" horiz-adv-x="1439" 
d="M617 -278v1448l-532 -533v273l635 635l636 -635v-273l-532 533v-1448h-207z" />
    <glyph glyph-name="arrowright" unicode="&#x2192;" horiz-adv-x="2165" 
d="M2116 535l-635 -636h-273l535 534h-1623v203h1623l-535 534h273z" />
    <glyph glyph-name="arrowdown" unicode="&#x2193;" horiz-adv-x="1439" 
d="M858 1506v-1448l532 533v-273l-635 -635l-636 635v273l532 -533v1448h207z" />
    <glyph glyph-name="uni2196" unicode="&#x2196;" horiz-adv-x="1652" 
d="M85 21v1046h1045l2 -193l-710 1l1146 -1148l-143 -144l-1148 1148l1 -710h-193z" />
    <glyph glyph-name="uni2197" unicode="&#x2197;" horiz-adv-x="1652" 
d="M1603 1067v-1046h-193l1 710l-1148 -1148l-143 144l1146 1148l-710 -1l2 193h1045z" />
    <glyph glyph-name="uni2198" unicode="&#x2198;" horiz-adv-x="1652" 
d="M1603 629v-1046h-1045l-2 193l710 -1l-1146 1148l143 144l1148 -1148l-1 710h193z" />
    <glyph glyph-name="uni2199" unicode="&#x2199;" horiz-adv-x="1652" 
d="M85 -417v1046h193l-1 -710l1148 1148l143 -144l-1146 -1148l710 1l-2 -193h-1045z" />
    <glyph glyph-name="uni21B0" unicode="&#x21b0;" horiz-adv-x="2165" 
d="M85 535l635 635h273l-535 -534h1623v-1031h-210v828h-1413l535 -534h-273z" />
    <glyph glyph-name="uni21B1" unicode="&#x21b1;" horiz-adv-x="2165" 
d="M1481 1170l635 -635l-635 -636h-273l535 534h-1413v-828h-210v1031h1623l-535 534h273z" />
    <glyph glyph-name="uni21B2" unicode="&#x21b2;" horiz-adv-x="2165" 
d="M720 -101l-635 636l635 635h273l-535 -534h1413v869h210v-1072h-1623l535 -534h-273z" />
    <glyph glyph-name="uni21B3" unicode="&#x21b3;" horiz-adv-x="2165" 
d="M2116 535l-635 -636h-273l535 534h-1623v1072h210v-869h1413l-535 534h273z" />
    <glyph glyph-name="partialdiff" unicode="&#x2202;" horiz-adv-x="1607" 
d="M806 -29q-327 0 -523 156t-196 405v3q0 248 195 403.5t512 155.5q165 0 277 -52l1 2q-109 118 -304 222.5t-427 180.5l85 185q236 -80 432 -187t346.5 -239.5t234.5 -295t84 -338.5v-3q0 -281 -193 -439.5t-524 -158.5zM806 147q212 0 343.5 103.5t131.5 281.5v3
q0 177 -131.5 280t-343.5 103q-213 0 -345.5 -103t-132.5 -280v-3q0 -178 132.5 -281.5t345.5 -103.5z" />
    <glyph glyph-name="uni2206" unicode="&#x2206;" horiz-adv-x="1827" 
d="M42 0l716 1506h313l715 -1506h-1744zM366 181h1096l-547 1167z" />
    <glyph glyph-name="product" unicode="&#x220f;" horiz-adv-x="1943" 
d="M190 -197v1702h1564v-1702h-228v1505h-1108v-1505h-228z" />
    <glyph glyph-name="summation" unicode="&#x2211;" horiz-adv-x="1513" 
d="M74 -192v184l704 664l-704 666v183h1362v-191l-1045 1l692 -659l-692 -657l1045 1v-192h-1362z" />
    <glyph glyph-name="minus" unicode="&#x2212;" horiz-adv-x="1533" 
d="M154 631v203h1226v-203h-1226z" />
    <glyph glyph-name="uni2215" unicode="&#x2215;" horiz-adv-x="538" 
d="M-440 0l1186 1505h223l-1185 -1505h-224z" />
    <glyph glyph-name="uni2219" unicode="&#x2219;" horiz-adv-x="755" 
d="M256 422v258h244v-258h-244z" />
    <glyph glyph-name="radical" unicode="&#x221a;" horiz-adv-x="1803" 
d="M879 0l-462 887h-389v180h550l419 -831h2l587 1269h247l-708 -1505h-246z" />
    <glyph glyph-name="infinity" unicode="&#x221e;" horiz-adv-x="2140" 
d="M550 375q-184 0 -305.5 100t-121.5 256t121.5 256t305.5 100q130 0 253 -62t268 -173q145 111 268 173t253 62q184 0 305.5 -100t121.5 -256t-121.5 -256t-305.5 -100q-130 0 -252 61.5t-269 173.5q-147 -112 -269 -173.5t-252 -61.5zM555 566q81 0 166 42.5t192 122.5
q-105 79 -191 122t-167 43q-85 0 -140.5 -46t-55.5 -119t55.5 -119t140.5 -46zM1229 731q107 -80 192 -122.5t166 -42.5q85 0 140.5 46t55.5 119t-55.5 119t-140.5 46q-81 0 -167 -43t-191 -122z" />
    <glyph glyph-name="integral" unicode="&#x222b;" horiz-adv-x="920" 
d="M-36 -418l31 183h36q112 0 167.5 75.5t80.5 252.5l133 918q38 260 141 377.5t318 117.5h80l-31 -183h-36q-111 0 -166.5 -75t-81.5 -253l-133 -917q-38 -260 -140.5 -378t-317.5 -118h-81z" />
    <glyph glyph-name="approxequal" unicode="&#x2248;" horiz-adv-x="1595" 
d="M320 294l-175 71q57 137 154.5 215.5t229.5 78.5q73 0 138.5 -20.5t114.5 -49.5t94.5 -58t97 -49.5t102.5 -20.5q79 0 124 43.5t83 127.5l175 -72q-56 -136 -154 -215t-230 -79q-73 0 -138.5 20.5t-114 49.5t-94 58t-97 49.5t-103.5 20.5q-78 0 -123.5 -43.5
t-83.5 -126.5zM320 781l-175 71q57 137 154.5 215.5t229.5 78.5q73 0 138.5 -20.5t114.5 -49.5t94.5 -58t97 -49.5t102.5 -20.5q79 0 124 43.5t83 127.5l175 -72q-56 -136 -154 -215t-230 -79q-73 0 -138.5 20.5t-114 49.5t-94 58t-97 49.5t-103.5 20.5q-78 0 -123.5 -43.5
t-83.5 -126.5z" />
    <glyph glyph-name="notequal" unicode="&#x2260;" horiz-adv-x="1584" 
d="M154 860v204h715l162 299h210l-163 -299h353v-204h-464l-139 -255h603v-203h-714l-163 -300h-209l162 300h-353v203h465l139 255h-604z" />
    <glyph glyph-name="lessequal" unicode="&#x2264;" horiz-adv-x="1449" 
d="M112 776v208l1197 491v-226l-943 -368v-1l943 -368v-226zM112 0v203h1197v-203h-1197z" />
    <glyph glyph-name="greaterequal" unicode="&#x2265;" horiz-adv-x="1449" 
d="M1339 984v-208l-1197 -490v226l942 368v1l-942 368v226zM1339 203v-203h-1197v203h1197z" />
    <glyph glyph-name="lozenge" unicode="&#x25ca;" horiz-adv-x="1542" 
d="M771 188h1l412 565l-412 565h-1l-412 -565zM654 0l-552 753l552 752h236l551 -752l-551 -753h-236z" />
    <glyph glyph-name="uniF8FF" unicode="&#xf8ff;" horiz-adv-x="647" 
 />
    <glyph glyph-name="acute.case" horiz-adv-x="707" 
d="M34 1618l310 264h330l-381 -264h-259z" />
    <glyph glyph-name="dieresis.case" horiz-adv-x="1002" 
d="M34 1635v247h237v-247h-237zM733 1635v247h237v-247h-237z" />
    <glyph glyph-name="caron.case" horiz-adv-x="1049" 
d="M34 1882h282l209 -159l209 159h282l-338 -264h-307z" />
    <glyph glyph-name="ring.case" horiz-adv-x="540" 
d="M271 1536q-98 0 -167.5 65t-69.5 163t69.5 163.5t167.5 65.5q97 0 166.5 -65.5t69.5 -163.5t-69.5 -163t-166.5 -65zM271 1645q51 0 83 33t32 86t-32 86t-83 33q-52 0 -84 -33t-32 -86t32 -86t84 -33z" />
    <glyph glyph-name="circumflex.case" horiz-adv-x="1049" 
d="M34 1618l337 264h307l338 -264h-282l-209 160l-209 -160h-282z" />
    <glyph glyph-name="tilde.case" horiz-adv-x="977" 
d="M34 1618q8 122 69.5 193t173.5 71q76 0 151 -25t134.5 -50t98.5 -25q55 0 77.5 23t26.5 77h181q-9 -122 -70.5 -193t-172.5 -71q-61 0 -121.5 16t-100.5 34.5t-84.5 34.5t-76.5 16q-55 0 -78 -23t-28 -78h-180z" />
    <glyph glyph-name="grave.case" horiz-adv-x="707" 
d="M415 1618l-381 264h330l310 -264h-259z" />
    <glyph glyph-name="macron.case" horiz-adv-x="886" 
d="M34 1649v157h819v-157h-819z" />
    <glyph glyph-name="a_uni0331.3" horiz-adv-x="1049" 
d="M34 1882h282l209 -159l209 159h282l-338 -264h-307z" />
    <glyph glyph-name="dotaccent.case" horiz-adv-x="303" 
d="M34 1635v247h237v-247h-237z" />
    <glyph glyph-name="breve.case" horiz-adv-x="851" 
d="M426 1610q-164 0 -266 70t-126 203h200q7 -63 59.5 -96.5t132.5 -33.5t132.5 33.5t59.5 96.5h200q-24 -133 -126.5 -203t-265.5 -70z" />
    <glyph glyph-name="commaaccent.salt" horiz-adv-x="533" 
d="M34 -362l212 264h255l-242 -264h-225z" />
    <glyph glyph-name="hungarumlaut.case" horiz-adv-x="1248" 
d="M34 1618l310 264h330l-381 -264h-259zM586 1618l310 264h330l-382 -264h-258z" />
    <glyph glyph-name="emdash.case" horiz-adv-x="2163" 
d="M154 631v203h1856v-203h-1856z" />
    <glyph glyph-name="endash.case" horiz-adv-x="1395" 
d="M154 631v203h1088v-203h-1088z" />
    <glyph glyph-name="periodcentered.case" horiz-adv-x="549" 
d="M153 603v258h245v-258h-245z" />
    <glyph glyph-name="hyphen.case" horiz-adv-x="1006" 
d="M154 631v203h699v-203h-699z" />
    <glyph glyph-name="braceleft.case" horiz-adv-x="754" 
d="M528 -167q-160 0 -231.5 69t-71.5 238v305q0 56 -6.5 89.5t-31.5 55.5t-43.5 30.5t-70.5 25.5q-5 2 -8 3v148q39 13 52 17.5t38 17t33 23.5t19.5 31.5t14.5 48t3 65.5v305q0 169 71.5 238t231.5 69h126v-180h-86q-91 0 -113.5 -25t-22.5 -126v-252q0 -131 -40 -199
t-142 -106v-2q102 -38 142 -106t40 -199v-253q0 -102 22 -126.5t114 -24.5h86v-180h-126z" />
    <glyph glyph-name="braceright.case" horiz-adv-x="754" 
d="M83 -167v180h86q93 0 114.5 24.5t21.5 126.5v253q0 131 40 199t142 106v2q-102 38 -142 106t-40 199v252q0 101 -22.5 126t-113.5 25h-86v180h127q159 0 230 -69t71 -238v-305q0 -37 3 -64t13.5 -47t19 -32t31 -23.5t37 -17t48.5 -16.5l9 -3v-148q-85 -28 -109 -46
q-46 -34 -51 -123q-1 -16 -1 -35v-305q0 -169 -71 -238t-230 -69h-127z" />
    <glyph glyph-name="bracketleft.case" horiz-adv-x="773" 
d="M189 -167v1779h529v-180h-322v-1419h322v-180h-529z" />
    <glyph glyph-name="bracketright.case" horiz-adv-x="773" 
d="M56 -167v180h323v1419h-323v180h529v-1779h-529z" />
    <glyph glyph-name="parenleft.case" horiz-adv-x="650" 
d="M394 -167q-124 163 -208 412.5t-84 477.5t84 477.5t208 410.5h201q-128 -181 -199.5 -416.5t-71.5 -471.5q0 -237 71.5 -472t199.5 -418h-201z" />
    <glyph glyph-name="parenright.case" horiz-adv-x="649" 
d="M56 -167q128 183 199.5 418t71.5 472q0 236 -71.5 471.5t-199.5 416.5h202q123 -161 207 -410.5t84 -477.5q0 -229 -83.5 -478t-207.5 -412h-202z" />
    <glyph glyph-name="colon.case" horiz-adv-x="532" 
d="M144 199v258h244v-258h-244zM144 1009v258h244v-258h-244z" />
    <glyph glyph-name="exclamdown.case" horiz-adv-x="605" 
d="M474 1505v-258h-244v258h244zM438 1062l32 -488l-1 -514h-232v514l32 488h169z" />
    <glyph glyph-name="questiondown.case" horiz-adv-x="1573" 
d="M998 1505v-258h-244v258h244zM839 213q236 0 352.5 69t117.5 227h250q-3 -154 -95 -263t-251.5 -162t-373.5 -53q-348 0 -536 99.5t-188 274.5v1q0 114 75.5 192t214.5 139l125 55q60 27 94.5 45t65 40.5t44.5 47.5t22 57.5t9 79.5h223q0 -106 -32.5 -176.5t-94 -117
t-176.5 -97.5l-124 -56q-112 -48 -156 -92t-44 -110v-1q0 -95 121 -147t357 -52z" />
    <glyph glyph-name="guillemotleft.case" horiz-adv-x="1261" 
d="M399 345l-291 382l291 381h244l-284 -381l284 -382h-244zM884 345l-291 382l291 381h244l-284 -381l284 -382h-244z" />
    <glyph glyph-name="guillemotright.case" horiz-adv-x="1262" 
d="M1154 727l-291 -382h-244l284 382l-284 381h244zM669 727l-291 -382h-244l284 382l-284 381h244z" />
    <glyph glyph-name="guilsinglleft.case" horiz-adv-x="774" 
d="M396 350l-291 382l291 381h244l-284 -381l284 -382h-244z" />
    <glyph glyph-name="guilsinglright.case" horiz-adv-x="774" 
d="M670 732l-291 -382h-244l284 382l-284 381h244z" />
    <glyph glyph-name="bullet.case" horiz-adv-x="1092" 
d="M177 731q0 150 106.5 256.5t254.5 106.5q160 0 268.5 -105.5t108.5 -257.5q0 -160 -108 -267.5t-269 -107.5q-149 0 -255 108.5t-106 266.5z" />
    <glyph glyph-name="at.case" horiz-adv-x="2131" 
d="M972 452q150 0 257 92.5t108 236.5v4q0 107 -74 169.5t-206 62.5q-157 0 -252.5 -95.5t-95.5 -231.5v-3q1 -113 70.5 -174t192.5 -61zM927 306q-81 0 -153.5 23.5t-130.5 68.5t-92 119.5t-35 168.5v4q0 93 37.5 179.5t104.5 152t166 105t214 39.5q116 0 207 -48.5
t127 -124.5l19 136h167l-62 -448q-17 -124 6 -185t111 -61q109 0 191 103.5t82 280.5v3q0 174 -98.5 297t-268.5 182t-397 59q-187 0 -346 -53t-267 -144t-169 -215t-61 -264v-4q0 -270 187 -428t514 -158q252 0 476 92l55 -149q-111 -47 -252.5 -73t-278.5 -26
q-262 0 -464 91.5t-314 261t-112 391.5v3q0 171 80.5 323.5t218 262.5t330 174.5t407.5 64.5q156 0 294 -26t255 -80.5t201.5 -133.5t132 -191.5t47.5 -248.5v-4q0 -126 -41.5 -229.5t-108.5 -167.5t-147 -98.5t-163 -34.5q-111 0 -177.5 54t-78.5 144
q-63 -91 -172.5 -139.5t-240.5 -48.5z" />
    <glyph glyph-name="uni03BC.1" 
d="M150 -334v1401h227v-542q0 -185 102 -277.5t293 -92.5t292 92.5t101 277.5v542h228v-1067h-228v159q-63 -84 -180 -136t-286 -52q-194 0 -322 67v-372h-227z" />
    <glyph glyph-name="uni000D.1" horiz-adv-x="0" 
 />
    </font>
</defs>
</svg>
