<?xml version="1.0" standalone="no"?>
<!DOCTYPE svg PUBLIC "-//W3C//DTD SVG 1.1//EN" "http://www.w3.org/Graphics/SVG/1.1/DTD/svg11.dtd" >
<svg xmlns="http://www.w3.org/2000/svg" xmlns:xlink="http://www.w3.org/1999/xlink" version="1.1">
<metadata>
Created by FontForge 20201107 at Tue Sep 26 10:43:56 2023
 By 
(c)newglyph 2023
</metadata>
<defs>
<font id="BarlowCondensedCond-Regular" horiz-adv-x="1041" >
  <font-face 
    font-family="BarlowCondensed Cond Regular"
    font-weight="400"
    font-stretch="normal"
    units-per-em="2048"
    panose-1="0 0 0 0 0 0 0 0 0 0"
    ascent="1638"
    descent="-410"
    x-height="1067"
    cap-height="1444"
    bbox="-183 -472 2041 1992"
    underline-thickness="102"
    underline-position="-256"
    unicode-range="U+000D-FB04"
  />
<missing-glyph horiz-adv-x="1034" 
d="M100 0v1444h834v-1444h-834zM519 768l338 629h-677zM149 80l343 637l-343 637v-1274zM886 84v1266l-340 -633zM185 47h667l-333 619z" />
    <glyph glyph-name="f_f" unicode="ff" horiz-adv-x="1235" 
d="M185 0v898h-142v169h142v96q0 160 69.5 220.5t231.5 60.5h99v-169h-70q-79 0 -103 -22.5t-24 -97.5v-88h197v-169h-197v-898h-203zM807 0v898h-142v169h142v96q0 160 69.5 220.5t231.5 60.5h99v-169h-70q-79 0 -103 -22.5t-24 -97.5v-88h197v-169h-197v-898h-203z" />
    <glyph glyph-name="fi" unicode="fi" horiz-adv-x="1084" 
d="M185 0v898h-142v169h142v96q0 160 69.5 220.5t231.5 60.5h99v-169h-70q-79 0 -103 -22.5t-24 -97.5v-88h197v-169h-197v-898h-203zM752 0v1067h203v-1067h-203zM752 1206v238h203v-238h-203z" />
    <glyph glyph-name="fl" unicode="fl" horiz-adv-x="1084" 
d="M185 0v898h-142v169h142v96q0 160 69.5 220.5t231.5 60.5h99v-169h-70q-79 0 -103 -22.5t-24 -97.5v-88h197v-169h-197v-898h-203zM752 0v1444h203v-1444h-203z" />
    <glyph glyph-name="f_f_i" unicode="ffi" horiz-adv-x="1706" 
d="M185 0v898h-142v169h142v96q0 160 69.5 220.5t231.5 60.5h99v-169h-70q-79 0 -103 -22.5t-24 -97.5v-88h197v-169h-197v-898h-203zM807 0v898h-142v169h142v96q0 160 69.5 220.5t231.5 60.5h99v-169h-70q-79 0 -103 -22.5t-24 -97.5v-88h197v-169h-197v-898h-203zM1374 0
v1067h203v-1067h-203zM1374 1206v238h203v-238h-203z" />
    <glyph glyph-name="f_f_l" unicode="ffl" horiz-adv-x="1706" 
d="M185 0v898h-142v169h142v96q0 160 69.5 220.5t231.5 60.5h99v-169h-70q-79 0 -103 -22.5t-24 -97.5v-88h197v-169h-197v-898h-203zM807 0v898h-142v169h142v96q0 160 69.5 220.5t231.5 60.5h99v-169h-70q-79 0 -103 -22.5t-24 -97.5v-88h197v-169h-197v-898h-203zM1374 0
v1444h203v-1444h-203z" />
    <glyph glyph-name=".notdef" horiz-adv-x="1034" 
d="M100 0v1444h834v-1444h-834zM519 768l338 629h-677zM149 80l343 637l-343 637v-1274zM886 84v1266l-340 -633zM185 47h667l-333 619z" />
    <glyph glyph-name="uni0000" horiz-adv-x="0" 
 />
    <glyph glyph-name="uni0000" horiz-adv-x="0" 
 />
    <glyph glyph-name="uni000D" unicode="&#xd;" horiz-adv-x="362" 
 />
    <glyph glyph-name="space" unicode=" " horiz-adv-x="362" 
 />
    <glyph glyph-name="exclam" unicode="!" horiz-adv-x="486" 
d="M140 0v255h209v-255h-209zM165 442l-28 553l1 449h211v-449l-28 -553h-156z" />
    <glyph glyph-name="quotedbl" unicode="&#x22;" horiz-adv-x="768" 
d="M459 1444h210v-83l-24 -414h-161l-25 414v83zM99 1444h210v-83l-24 -414h-161l-25 414v83z" />
    <glyph glyph-name="numbersign" unicode="#" horiz-adv-x="1363" 
d="M251 0l54 417h-253l23 174h253l43 335h-252l22 174h253l52 405h180l-53 -405h304l53 405h179l-53 -405h256l-25 -174h-254l-44 -335h255l-22 -174h-255l-55 -417h-178l54 417h-304l-55 -417h-178zM506 591h305l44 335h-305z" />
    <glyph glyph-name="dollar" unicode="$" horiz-adv-x="1094" 
d="M456 -252v229q-188 25 -287.5 140.5t-107.5 310.5h212q15 -282 287 -282q46 0 83 5t73.5 19.5t60.5 38t39 62.5t15 91v5q0 101 -58 155.5t-174 91.5l-185 61q-162 52 -248 148.5t-86 261.5v10q0 155 102.5 254.5t273.5 119.5v227h187v-229q165 -24 257 -126.5t99 -289.5
h-212q-5 73 -26.5 123t-58 76.5t-78.5 37t-97 10.5q-106 0 -171.5 -46t-65.5 -150v-6q0 -87 49 -141.5t147 -85.5l186 -61q88 -28 151.5 -61.5t115 -82.5t77.5 -118.5t26 -159.5v-6q0 -176 -106.5 -281t-292.5 -124v-227h-187z" />
    <glyph glyph-name="percent" unicode="%" horiz-adv-x="1619" 
d="M358 622q-151 0 -228 95t-77 302v57q0 207 77.5 302.5t227.5 95.5t227 -95.5t77 -302.5v-57q0 -207 -77 -302t-227 -95zM358 764q74 0 106.5 58.5t32.5 196.5v57q0 138 -32.5 196.5t-106.5 58.5q-75 0 -107 -58t-32 -197v-57q0 -139 32 -197t107 -58zM449 0l536 1444h184
l-536 -1444h-184zM1261 -29q-151 0 -228 95.5t-77 302.5v57q0 207 77 302t228 95t228.5 -95t77.5 -302v-57q0 -206 -78 -302t-228 -96zM1261 115q75 0 107.5 58t32.5 196v57q0 139 -32.5 197t-107.5 58q-74 0 -106.5 -58t-32.5 -197v-57q0 -138 32.5 -196t106.5 -58z" />
    <glyph glyph-name="ampersand" unicode="&#x26;" horiz-adv-x="1288" 
d="M486 -29q-196 0 -312.5 104.5t-116.5 285.5v16q0 143 80.5 248t239.5 192q-84 110 -121.5 188t-37.5 164v8q0 131 95.5 213.5t251.5 82.5q162 0 254 -75t92 -211v-15q0 -118 -67.5 -207.5t-201.5 -178.5l257 -315q81 144 127 264h198q-67 -180 -210 -406l268 -329h-244
l-139 170q-88 -100 -186.5 -149.5t-226.5 -49.5zM544 907q91 59 133.5 117t42.5 134v13q0 68 -42.5 104.5t-112.5 36.5q-69 0 -111 -35t-42 -100v-8q0 -58 31.5 -115t100.5 -147zM502 140q164 0 291 161l-316 391q-115 -66 -165 -138t-50 -172v-16q0 -107 65.5 -166.5
t174.5 -59.5z" />
    <glyph glyph-name="quotesingle" unicode="'" horiz-adv-x="408" 
d="M99 1444h210v-83l-24 -414h-161l-25 414v83z" />
    <glyph glyph-name="parenleft" unicode="(" horiz-adv-x="528" 
d="M328 -333q-112 150 -178.5 398.5t-66.5 490.5q0 241 66.5 489.5t178.5 398.5h176q-112 -174 -170.5 -409.5t-58.5 -478.5t58.5 -479t170.5 -410h-176z" />
    <glyph glyph-name="parenright" unicode=")" horiz-adv-x="528" 
d="M24 -333q112 174 170.5 410t58.5 479t-58.5 478.5t-170.5 409.5h176q112 -150 178.5 -398.5t66.5 -489.5q0 -242 -66.5 -490.5t-178.5 -398.5h-176z" />
    <glyph glyph-name="asterisk" unicode="*" horiz-adv-x="812" 
d="M271 783l-128 94l165 196l-250 61l49 151l239 -98l-19 257h159l-19 -257l238 98l50 -151l-250 -61l165 -196l-128 -94l-136 219z" />
    <glyph glyph-name="plus" unicode="+" horiz-adv-x="1132" 
d="M472 275v365h-361v183h361v362h187v-362h361v-183h-361v-365h-187z" />
    <glyph glyph-name="comma" unicode="," horiz-adv-x="450" 
d="M5 -230l141 485h213l-178 -485h-176z" />
    <glyph glyph-name="hyphen" unicode="-" horiz-adv-x="818" 
d="M115 456v183h588v-183h-588z" />
    <glyph glyph-name="period" unicode="." horiz-adv-x="431" 
d="M110 0v255h210v-255h-210z" />
    <glyph glyph-name="slash" unicode="/" horiz-adv-x="753" 
d="M39 -211l486 1655h186l-486 -1655h-186z" />
    <glyph glyph-name="zero" unicode="0" horiz-adv-x="1171" 
d="M586 -29q-257 0 -367 164t-110 544v109q0 254 48.5 403t151.5 215.5t277 66.5q171 0 273.5 -66.5t152.5 -216t50 -402.5v-109q0 -378 -111.5 -543t-364.5 -165zM586 144q143 0 198 126t55 430v65q0 302 -54 418.5t-199 116.5q-146 0 -200.5 -116.5t-54.5 -418.5v-65
q0 -304 55.5 -430t199.5 -126z" />
    <glyph glyph-name="one" unicode="1" horiz-adv-x="658" 
d="M287 0v1073h-240v184h42q130 0 177.5 35t69.5 153h162v-1445h-211z" />
    <glyph glyph-name="two" unicode="2" horiz-adv-x="1059" 
d="M94 0v66q0 100 15.5 172.5t56.5 141.5t101 129.5t161 143.5l126 107q98 79 141.5 153t43.5 179v3q0 107 -52 157t-158 50q-75 0 -120 -24t-72 -94t-27 -195h-210q1 253 112.5 368.5t322.5 115.5q196 0 306.5 -96t110.5 -272v-4q0 -105 -32.5 -191t-91 -154t-158.5 -149
l-124 -105q-58 -48 -78 -65t-56 -50t-46.5 -48.5t-26.5 -43.5t-21 -54t-8 -61h660v-180h-876z" />
    <glyph glyph-name="three" unicode="3" horiz-adv-x="1109" 
d="M545 -29q-225 0 -344 116.5t-124 339.5h211q4 -156 69 -221t187 -65q115 0 181.5 61.5t66.5 185.5v3q0 147 -74.5 211t-232.5 64h-51v173h49q278 0 278 243v6q0 110 -54 162.5t-163 52.5q-113 0 -167.5 -60t-56.5 -208h-211q5 211 117 324.5t323 113.5q205 0 313 -96
t108 -277v-4q0 -125 -58 -211.5t-154 -118.5v-2q122 -35 186.5 -123.5t64.5 -251.5v-3q0 -192 -124.5 -303.5t-339.5 -111.5z" />
    <glyph glyph-name="four" unicode="4" horiz-adv-x="1157" 
d="M670 0v341h-626v185l624 918h213v-919h226v-184h-226v-341h-211zM238 525h432v627h-3l-115 -173z" />
    <glyph glyph-name="five" unicode="5" horiz-adv-x="1084" 
d="M533 -29q-213 0 -331 114t-125 329h210q13 -273 240 -273q124 0 189.5 76.5t65.5 231.5v26q0 151 -65.5 226t-186.5 75q-83 0 -142 -36t-82 -98h-195l102 802h716v-184h-553l-54 -413q99 99 279 99q187 0 292.5 -123.5t105.5 -343.5v-26q0 -225 -123.5 -353.5
t-342.5 -128.5z" />
    <glyph glyph-name="six" unicode="6" horiz-adv-x="1126" 
d="M573 -29q-235 0 -348.5 150.5t-113.5 490.5v142q0 263 54 423t156 228t263 68q202 0 304.5 -102t109.5 -288h-208q-6 119 -59.5 169.5t-146.5 50.5q-60 0 -102 -17t-72.5 -53t-48.5 -97.5t-26.5 -144t-10.5 -199.5q44 70 122.5 112t185.5 42q183 0 289 -124t106 -364v-12
q0 -228 -117.5 -351.5t-336.5 -123.5zM571 141q242 0 242 314v7q0 317 -242 317q-241 0 -241 -317v-7q0 -314 241 -314z" />
    <glyph glyph-name="seven" unicode="7" horiz-adv-x="967" 
d="M239 0q3 471 110 747t379 513h-693v184h899v-184q-139 -120 -229 -239t-147.5 -270t-81.5 -328.5t-25 -422.5h-212z" />
    <glyph glyph-name="eight" unicode="8" horiz-adv-x="1144" 
d="M573 -29q-225 0 -349 109t-124 301v23q0 78 20.5 142t54.5 105t68 66.5t71 40.5v2q-72 35 -124 119t-52 200v25q0 166 115.5 267.5t319.5 101.5q203 0 318 -101.5t115 -267.5v-25q0 -116 -52 -200t-124 -119v-2q37 -15 71 -40.5t68 -66.5t54.5 -105t20.5 -142v-23
q0 -192 -123.5 -301t-347.5 -109zM573 837q103 0 161.5 61t58.5 163v28q0 101 -58 157.5t-162 56.5q-105 0 -163.5 -56.5t-58.5 -157.5v-28q0 -102 59 -163t163 -61zM573 141q124 0 190 62t66 188v25q0 122 -67 187t-189 65q-124 0 -191 -65t-67 -187v-25q0 -250 258 -250z
" />
    <glyph glyph-name="nine" unicode="9" horiz-adv-x="1126" 
d="M562 1473q235 0 348.5 -150.5t113.5 -491.5v-142q0 -263 -54 -422.5t-156 -227.5t-263 -68q-202 0 -304.5 102t-109.5 288h208q6 -119 59.5 -169.5t146.5 -50.5q60 0 102 17t72.5 53t48.5 97.5t26.5 143.5t10.5 199q-43 -70 -121.5 -112t-186.5 -42q-183 0 -289 124
t-106 365v12q0 228 117.5 351.5t336.5 123.5zM564 1303q-242 0 -242 -315v-7q0 -317 242 -317q116 0 178.5 78t62.5 239v7q0 315 -241 315z" />
    <glyph glyph-name="colon" unicode=":" horiz-adv-x="431" 
d="M110 0v255h210v-255h-210zM110 812v255h210v-255h-210z" />
    <glyph glyph-name="semicolon" unicode=";" horiz-adv-x="470" 
d="M5 -230l141 485h213l-178 -485h-176zM140 812v255h210v-255h-210z" />
    <glyph glyph-name="less" unicode="&#x3c;" horiz-adv-x="1048" 
d="M93 648v170l838 371v-195l-618 -259v-1l618 -257v-196z" />
    <glyph glyph-name="equal" unicode="=" horiz-adv-x="1130" 
d="M120 839v183h890v-183h-890zM120 444v183h890v-183h-890z" />
    <glyph glyph-name="greater" unicode="&#x3e;" horiz-adv-x="1048" 
d="M955 818v-170l-838 -367v196l618 257v1l-618 259v195z" />
    <glyph glyph-name="question" unicode="?" horiz-adv-x="964" 
d="M357 0v255h210v-255h-210zM474 1305q-218 0 -218 -238h-209q1 188 117 297t310 109q204 0 318 -95t114 -263v-1q0 -191 -155 -331l-57 -51q-84 -75 -108 -125.5t-24 -164.5h-193q0 105 13.5 165.5t44 104t99.5 106.5l61 55q104 95 104 230v2q0 103 -53.5 151.5
t-163.5 48.5z" />
    <glyph glyph-name="at" unicode="@" horiz-adv-x="1384" 
d="M662 440q76 0 122 71.5t46 204.5v63q0 122 -38.5 179.5t-105.5 57.5q-74 0 -117 -70.5t-43 -202.5v-64q0 -239 136 -239zM621 309q-126 0 -192 95t-66 274v68q0 179 78 290t214 111q124 0 183 -118l6 93h148l-18 -449q-3 -81 2 -131t24.5 -80.5t56.5 -30.5q123 0 123 312
v140q0 474 -459 474q-230 0 -357 -150.5t-127 -419.5v-180q0 -258 109.5 -391t322.5 -133q163 0 301 83l63 -119q-164 -101 -366 -101q-276 0 -428.5 172.5t-152.5 493.5v183q0 212 81 369.5t225 239.5t332 82q131 0 237 -32.5t188 -101.5t127 -186.5t45 -276.5v-148
q0 -226 -78.5 -330.5t-208.5 -104.5q-73 0 -124 40.5t-61 116.5q-32 -71 -90 -112.5t-138 -41.5z" />
    <glyph glyph-name="A" unicode="A" horiz-adv-x="1211" 
d="M22 0l458 1445h251l458 -1445h-215l-123 399h-498l-121 -399h-210zM408 582h387l-193 631h-2z" />
    <glyph glyph-name="B" unicode="B" horiz-adv-x="1169" 
d="M144 0v1444h454q213 0 319 -97t106 -265v-10q0 -109 -50 -188.5t-130 -117.5v-2q251 -85 251 -350v-10q0 -204 -129.5 -304t-368.5 -100h-452zM355 830h228q111 0 169 55.5t58 158.5v14q0 102 -58 155.5t-169 53.5h-228v-437zM355 177h235q151 0 216.5 56t65.5 177v12
q0 119 -66 176.5t-216 57.5h-235v-479z" />
    <glyph glyph-name="C" unicode="C" horiz-adv-x="1228" 
d="M641 -29q-290 0 -417.5 170.5t-127.5 524.5v113q0 353 127.5 523.5t417.5 170.5q236 0 367.5 -125.5t147.5 -374.5h-212q-13 168 -94.5 244.5t-208.5 76.5q-178 0 -250.5 -115.5t-72.5 -357.5v-197q0 -242 72.5 -358t250.5 -116q127 0 208.5 77t94.5 244h212
q-16 -249 -147.5 -374.5t-367.5 -125.5z" />
    <glyph glyph-name="D" unicode="D" horiz-adv-x="1239" 
d="M144 0v1444h394q315 0 462.5 -167.5t147.5 -531.5v-49q0 -362 -147.5 -529t-462.5 -167h-394zM355 178h170q145 0 231.5 47.5t128 157.5t41.5 297v82q0 187 -41.5 297t-128 158t-231.5 48h-170v-1087z" />
    <glyph glyph-name="E" unicode="E" horiz-adv-x="1053" 
d="M144 0v1444h820v-183h-609v-438h537v-183h-537v-457h611v-183h-822z" />
    <glyph glyph-name="F" unicode="F" horiz-adv-x="1021" 
d="M144 0v1444h833v-183h-622v-438h550v-183h-550v-640h-211z" />
    <glyph glyph-name="G" unicode="G" horiz-adv-x="1283" 
d="M629 -29q-279 0 -405.5 170.5t-126.5 523.5v114q0 356 128 525t418 169q234 0 366.5 -120t148.5 -356h-212q-13 155 -94.5 226t-208.5 71q-178 0 -251 -114.5t-73 -358.5v-198q0 -242 75 -358t253 -116q147 0 230 87t83 245v115h-339v181h539v-778h-161l-5 159
q-51 -83 -142 -135t-223 -52z" />
    <glyph glyph-name="H" unicode="H" horiz-adv-x="1271" 
d="M144 0v1444h211v-621h562v621h211v-1444h-211v640h-562v-640h-211z" />
    <glyph glyph-name="I" unicode="I" horiz-adv-x="499" 
d="M144 0v1444h211v-1444h-211z" />
    <glyph glyph-name="J" unicode="J" horiz-adv-x="994" 
d="M440 -29q-183 0 -298 109.5t-115 311.5h209q0 -125 55.5 -186.5t149.5 -61.5t149.5 61.5t55.5 185.5v1053h211v-1053q0 -203 -116.5 -311.5t-300.5 -108.5z" />
    <glyph glyph-name="K" unicode="K" horiz-adv-x="1126" 
d="M144 0v1444h211v-636l507 636h247l-566 -708l590 -736h-269l-509 636v-636h-211z" />
    <glyph glyph-name="L" unicode="L" horiz-adv-x="951" 
d="M144 0v1444h211v-1261h575v-183h-786z" />
    <glyph glyph-name="M" unicode="M" horiz-adv-x="1584" 
d="M144 0v1444h338l307 -1251h4l308 1251h339v-1444h-203v693l4 562h-4l-312 -1255h-266l-312 1255h-5l5 -562v-693h-203z" />
    <glyph glyph-name="N" unicode="N" horiz-adv-x="1290" 
d="M144 0v1444h300l504 -1227h5l-10 455v772h203v-1444h-301l-503 1226h-5l10 -455v-771h-203z" />
    <glyph glyph-name="O" unicode="O" horiz-adv-x="1307" 
d="M654 -29q-291 0 -425 170.5t-134 529.5v103q0 358 134 528.5t425 170.5q290 0 424 -170.5t134 -528.5v-103q0 -358 -134 -529t-424 -171zM654 150q176 0 256 123t80 368v163q0 245 -79.5 367.5t-256.5 122.5t-257 -122.5t-80 -367.5v-163q0 -245 80 -368t257 -123z" />
    <glyph glyph-name="P" unicode="P" horiz-adv-x="1104" 
d="M144 0v1444h403q510 0 510 -445v-11q0 -443 -510 -443h-192v-545h-211zM355 723h185q153 0 224.5 62.5t71.5 201.5v12q0 141 -71.5 203.5t-224.5 62.5h-185v-542z" />
    <glyph glyph-name="Q" unicode="Q" horiz-adv-x="1304" 
d="M654 -29q-289 0 -424 172.5t-135 522.5v113q0 350 134.5 522t424.5 172q289 0 423.5 -172t134.5 -522v-113q0 -421 -195 -584l296 -274h-272l-200 187q-84 -24 -187 -24zM654 150q177 0 256.5 118t79.5 356v197q0 238 -79.5 355.5t-256.5 117.5q-178 0 -257.5 -117.5
t-79.5 -355.5v-197q0 -238 80 -356t257 -118z" />
    <glyph glyph-name="R" unicode="R" horiz-adv-x="1171" 
d="M144 0v1444h409q249 0 378 -88t129 -282v-16q0 -139 -58.5 -217t-167.5 -123q57 -18 91.5 -47.5t59.5 -94t36 -172.5l12 -124q4 -42 8 -77.5t7.5 -60t7 -46t5.5 -33t5.5 -24t4.5 -16.5t4 -12.5t4 -10.5h-216q-17 45 -28 139l-23 226q-8 80 -23 127t-46.5 73.5t-73 35
t-112.5 8.5h-202v-609h-211zM355 788h197q155 0 221 53.5t66 179.5v15q0 126 -65.5 177.5t-221.5 51.5h-197v-477z" />
    <glyph glyph-name="S" unicode="S" horiz-adv-x="1130" 
d="M578 -29q-238 0 -365 118.5t-135 339.5h212q15 -283 287 -283q58 0 103 9.5t85 32t61.5 67t21.5 108.5v4q0 101 -58 155.5t-174 91.5l-185 62q-163 52 -248.5 148t-85.5 261v10q0 173 126 275.5t328 102.5q215 0 335.5 -103t129.5 -319h-212q-5 73 -26.5 123t-58 76.5
t-78.5 37t-97 10.5q-68 0 -118.5 -17t-84.5 -62t-34 -116v-7q0 -87 49 -141.5t147 -85.5l186 -60q70 -23 123.5 -48t101.5 -60.5t79 -79t48.5 -103t17.5 -131.5v-6q0 -196 -129 -303t-352 -107z" />
    <glyph glyph-name="T" unicode="T" horiz-adv-x="1066" 
d="M428 0v1260h-404v184h1020v-184h-405v-1260h-211z" />
    <glyph glyph-name="U" unicode="U" horiz-adv-x="1253" 
d="M627 -29q-247 0 -369.5 126.5t-122.5 395.5v951h211v-946q0 -175 68.5 -260t212.5 -85q145 0 213 85t68 260v946h211v-951q0 -269 -122.5 -395.5t-369.5 -126.5z" />
    <glyph glyph-name="V" unicode="V" horiz-adv-x="1197" 
d="M474 0l-448 1444h218l361 -1205h1l362 1205h205l-449 -1444h-250z" />
    <glyph glyph-name="W" unicode="W" horiz-adv-x="1669" 
d="M316 0l-268 1444h211l211 -1239h3l213 1239h296l215 -1243h4l211 1243h208l-267 -1444h-298l-218 1254h-5l-218 -1254h-298z" />
    <glyph glyph-name="X" unicode="X" horiz-adv-x="1145" 
d="M10 0l448 739l-418 705h238l300 -503l306 503h221l-417 -690l447 -754h-239l-329 552l-335 -552h-222z" />
    <glyph glyph-name="Y" unicode="Y" horiz-adv-x="1174" 
d="M482 0v525l-467 919h226l277 -562l72 -148h2l71 149l275 561h221l-466 -919v-525h-211z" />
    <glyph glyph-name="Z" unicode="Z" horiz-adv-x="1044" 
d="M57 0v180l671 1081h-641v183h877v-180l-672 -1081h691v-183h-926z" />
    <glyph glyph-name="bracketleft" unicode="[" horiz-adv-x="658" 
d="M144 -333v1777h477v-156h-294v-1465h294v-156h-477z" />
    <glyph glyph-name="backslash" unicode="\" horiz-adv-x="753" 
d="M225 1444l486 -1655h-186l-486 1655h186z" />
    <glyph glyph-name="bracketright" unicode="]" horiz-adv-x="658" 
d="M38 -333v156h294v1465h-294v156h477v-1777h-477z" />
    <glyph glyph-name="asciicircum" unicode="^" horiz-adv-x="1063" 
d="M47 585l381 859h206l381 -859h-193l-289 651h-2l-289 -651h-195z" />
    <glyph glyph-name="underscore" unicode="_" horiz-adv-x="1081" 
d="M79 -289v184h923v-184h-923z" />
    <glyph glyph-name="grave" unicode="`" horiz-adv-x="541" 
d="M282 1210l-221 234h249l184 -234h-212z" />
    <glyph glyph-name="a" unicode="a" horiz-adv-x="1000" 
d="M402 -29q-151 0 -241 78t-90 231v29q0 76 24.5 130.5t79.5 94t128 66.5t186 53q59 14 89 23t55 19.5t33.5 24.5t12.5 30t4 45v10q0 139 -177 139q-190 0 -191 -193h-200q0 180 104.5 264.5t285.5 84.5q192 0 285 -74t92 -258l-3 -457q-1 -204 17 -311h-202q-6 85 -7 109
q-89 -138 -285 -138zM451 125q109 0 169 63t60 173v214q-23 -11 -187 -73q-122 -41 -165.5 -77.5t-43.5 -110.5v-22q0 -167 167 -167z" />
    <glyph glyph-name="b" unicode="b" horiz-adv-x="1073" 
d="M609 -29q-96 0 -169 43.5t-107 110.5v-125h-203v1444h203v-502q34 67 107 110.5t169 43.5q179 0 281 -127.5t102 -390.5v-89q0 -263 -102 -390.5t-281 -127.5zM551 135q112 0 168 86t56 285v55q0 199 -56 285t-168 86q-227 0 -227 -385v-27q0 -385 227 -385z" />
    <glyph glyph-name="c" unicode="c" horiz-adv-x="980" 
d="M507 -29q-227 0 -326 129.5t-99 395.5v76q0 265 99.5 394.5t327.5 129.5q383 0 400 -401h-203q-7 124 -56 180.5t-143 56.5q-115 0 -163.5 -86t-48.5 -268v-88q0 -182 48.5 -268.5t163.5 -86.5q94 0 143 57t56 180h203q-17 -401 -402 -401z" />
    <glyph glyph-name="d" unicode="d" horiz-adv-x="1073" 
d="M464 -29q-179 0 -281 127.5t-102 390.5v89q0 263 102 390.5t281 127.5q96 0 168.5 -43t107.5 -111v502h204v-1444h-204v125q-35 -68 -107.5 -111t-168.5 -43zM523 135q226 0 226 385v27q0 385 -226 385q-112 0 -168.5 -86t-56.5 -285v-55q0 -199 56.5 -285t168.5 -86z
" />
    <glyph glyph-name="e" unicode="e" horiz-adv-x="1021" 
d="M518 -29q-236 0 -336.5 129.5t-100.5 396.5v76q0 263 106.5 393t331.5 130q122 0 205.5 -37.5t132 -117t69 -190.5t18.5 -269v-2h-652v-8q5 -172 58.5 -255t172.5 -83q93 0 144 49.5t60 139.5h204q-12 -162 -117 -257t-296 -95zM519 937q-112 0 -166 -67t-59 -227v-2h441
v3q-2 156 -57 224.5t-159 68.5z" />
    <glyph glyph-name="f" unicode="f" horiz-adv-x="614" 
d="M185 0v898h-142v169h142v96q0 160 69.5 220.5t231.5 60.5h99v-169h-70q-79 0 -103 -22.5t-24 -97.5v-88h197v-169h-197v-898h-203z" />
    <glyph glyph-name="g" unicode="g" horiz-adv-x="1073" 
d="M459 43q-172 0 -274 125t-102 381v34q0 257 102 385t274 128q98 0 173.5 -42t109.5 -109v122h204v-1002q0 -225 -110.5 -321t-321.5 -96q-187 0 -285.5 84.5t-105.5 248.5h204q4 -95 50.5 -134.5t145.5 -39.5q55 0 92.5 10.5t67.5 38.5t44.5 80.5t14.5 132.5v124
q-34 -67 -109 -108.5t-174 -41.5zM524 205q226 0 226 346v32q0 176 -58.5 263t-167.5 87q-110 0 -167 -84t-57 -274v-17q0 -189 56.5 -271t167.5 -82z" />
    <glyph glyph-name="h" unicode="h" 
d="M130 0v1444h203v-487q39 64 108.5 101.5t157.5 37.5q160 0 240.5 -97t80.5 -300v-699h-203v654q0 142 -47.5 209.5t-144.5 67.5t-144.5 -67.5t-47.5 -209.5v-654h-203z" />
    <glyph glyph-name="i" unicode="i" horiz-adv-x="461" 
d="M130 0v1067h203v-1067h-203zM130 1206v238h203v-238h-203z" />
    <glyph glyph-name="j" unicode="j" horiz-adv-x="461" 
d="M-31 -333v169h35q82 0 104 21.5t22 98.5v1111h203v-1113q0 -88 -15 -143t-53 -87.5t-93.5 -44.5t-144.5 -12h-58zM130 1206v238h203v-238h-203z" />
    <glyph glyph-name="k" unicode="k" horiz-adv-x="967" 
d="M130 0v1444h203v-820l385 443h238l-437 -499l460 -568h-259l-387 480v-480h-203z" />
    <glyph glyph-name="l" unicode="l" horiz-adv-x="461" 
d="M130 0v1444h203v-1444h-203z" />
    <glyph glyph-name="m" unicode="m" horiz-adv-x="1628" 
d="M130 0v1067h203v-110q39 64 108.5 101.5t157.5 37.5q210 0 281 -166q52 85 132 125.5t175 40.5q160 0 240.5 -97t80.5 -300v-699h-203v654q0 142 -47.5 209.5t-144.5 67.5q-98 0 -145.5 -67.5t-47.5 -209.5v-654h-203v654q0 142 -47.5 209.5t-144.5 67.5t-144.5 -67.5
t-47.5 -209.5v-654h-203z" />
    <glyph glyph-name="n" unicode="n" 
d="M130 0v1067h203v-110q39 64 108.5 101.5t157.5 37.5q160 0 240.5 -97t80.5 -300v-699h-203v654q0 142 -47.5 209.5t-144.5 67.5t-144.5 -67.5t-47.5 -209.5v-654h-203z" />
    <glyph glyph-name="o" unicode="o" horiz-adv-x="1038" 
d="M518 -29q-232 0 -334.5 131.5t-102.5 393.5v76q0 261 102.5 392.5t334.5 131.5q233 0 336 -131t103 -393v-76q0 -262 -103 -393.5t-336 -131.5zM518 135q125 0 175.5 88.5t50.5 269.5v82q0 181 -50.5 269t-175.5 88q-123 0 -173.5 -88t-50.5 -269v-82q0 -181 50.5 -269.5
t173.5 -88.5z" />
    <glyph glyph-name="p" unicode="p" horiz-adv-x="1073" 
d="M609 -29q-96 0 -169 43.5t-107 110.5v-458h-203v1400h203v-125q34 67 107 110.5t169 43.5q179 0 281 -127.5t102 -390.5v-89q0 -263 -102 -390.5t-281 -127.5zM551 135q112 0 168 86t56 285v55q0 199 -56 285t-168 86q-227 0 -227 -385v-27q0 -385 227 -385z" />
    <glyph glyph-name="q" unicode="q" horiz-adv-x="1070" 
d="M464 -29q-179 0 -281 127.5t-102 390.5v89q0 263 102 390.5t281 127.5q96 0 168.5 -43t107.5 -111v125h204v-1400h-204v458q-35 -68 -107.5 -111t-168.5 -43zM523 135q226 0 226 385v27q0 385 -226 385q-112 0 -168.5 -86t-56.5 -285v-55q0 -199 56.5 -285t168.5 -86z
" />
    <glyph glyph-name="r" unicode="r" horiz-adv-x="667" 
d="M130 0v1067h201v-183q38 87 114 140t178 53h13v-206h-32q-271 0 -271 -273v-598h-203z" />
    <glyph glyph-name="s" unicode="s" horiz-adv-x="918" 
d="M471 -29q-193 0 -295.5 92t-107.5 277h203q4 -116 56 -167t149 -51q84 0 132 37.5t48 104.5v5q0 66 -37 99t-119 61l-165 61q-123 43 -186 113.5t-63 192.5v4q0 140 102.5 218t259.5 78q363 0 374 -338h-203q-5 106 -48.5 146.5t-126.5 40.5q-72 0 -115.5 -34.5
t-43.5 -100.5v-3q0 -56 31 -90t96 -56l165 -61q53 -18 91.5 -35.5t75.5 -43.5t60 -56.5t37 -73.5t14 -97v-8q0 -153 -106 -234t-278 -81z" />
    <glyph glyph-name="t" unicode="t" horiz-adv-x="645" 
d="M460 0q-88 0 -140.5 12t-85 45.5t-43.5 85t-11 138.5v617h-143v169h143v317h203v-317h191v-169h-191v-615q0 -38 3 -56.5t16.5 -33.5t38.5 -19.5t70 -4.5h61v-169h-112z" />
    <glyph glyph-name="u" unicode="u" 
d="M442 -29q-160 0 -240.5 97t-80.5 300v699h203v-654q0 -142 47 -209.5t144 -67.5q98 0 145.5 67.5t47.5 209.5v654h203v-1067h-203v110q-39 -64 -108.5 -101.5t-157.5 -37.5z" />
    <glyph glyph-name="v" unicode="v" horiz-adv-x="981" 
d="M366 0l-339 1067h212l255 -888h2l259 888h201l-342 -1067h-248z" />
    <glyph glyph-name="w" unicode="w" horiz-adv-x="1490" 
d="M284 0l-247 1067h207l184 -885h5l190 885h244l195 -885h3l186 885h203l-247 -1067h-265l-197 874h-4l-193 -874h-264z" />
    <glyph glyph-name="x" unicode="x" horiz-adv-x="947" 
d="M10 0l354 540l-335 527h229l224 -361l231 361h205l-336 -511l354 -556h-228l-243 389l-250 -389h-205z" />
    <glyph glyph-name="y" unicode="y" horiz-adv-x="1009" 
d="M141 -333v169h60q84 0 112 20.5t57 100.5l17 45l-365 1065h211l266 -810l296 810h203l-424 -1118q-25 -65 -41.5 -102.5t-39 -73.5t-44 -53t-55 -31t-72.5 -18t-97 -4h-84z" />
    <glyph glyph-name="z" unicode="z" horiz-adv-x="890" 
d="M62 0v161l516 737h-492v169h725v-161l-518 -737h532v-169h-763z" />
    <glyph glyph-name="braceleft" unicode="{" horiz-adv-x="596" 
d="M479 -333q-157 0 -223.5 65.5t-66.5 233.5v313q0 57 -8.5 93t-30.5 58t-48 33.5t-74 23.5v138q48 12 74 23.5t48 33.5t30.5 58t8.5 94v311q0 168 66.5 233.5t223.5 65.5h61v-156h-20q-94 0 -122 -26.5t-28 -124.5v-275q0 -133 -36.5 -200.5t-137.5 -104.5v-2
q101 -37 137.5 -104.5t36.5 -200.5v-276q0 -100 27 -125.5t123 -25.5h20v-156h-61z" />
    <glyph glyph-name="bar" unicode="|" horiz-adv-x="471" 
d="M144 -333v1777h183v-1777h-183z" />
    <glyph glyph-name="braceright" unicode="}" horiz-adv-x="596" 
d="M55 -333v156h20q96 0 123 25.5t27 125.5v276q0 133 37 200.5t137 104.5v2q-100 37 -137 104.5t-37 200.5v275q0 98 -28 124.5t-122 26.5h-20v156h61q157 0 223.5 -65.5t66.5 -233.5v-311q0 -58 8.5 -94t31 -58t48 -33.5t73.5 -23.5v-138q-48 -12 -73.5 -23.5t-48 -33.5
t-31 -58t-8.5 -93v-313q0 -168 -66.5 -233.5t-223.5 -65.5h-61z" />
    <glyph glyph-name="asciitilde" unicode="~" horiz-adv-x="1120" 
d="M248 597l-153 64q93 243 288 243q48 0 92.5 -16.5t77.5 -40t63 -47.5t63 -40.5t65 -16.5q49 0 79 29.5t60 100.5l152 -64q-91 -243 -287 -243q-49 0 -93.5 16.5t-77 40t-63 47.5t-63 40.5t-64.5 16.5q-49 0 -79 -29.5t-60 -100.5z" />
    <glyph glyph-name="uni00A0" unicode="&#xa0;" horiz-adv-x="362" 
 />
    <glyph glyph-name="exclamdown" unicode="&#xa1;" horiz-adv-x="486" 
d="M357 1111v-255h-209v255h209zM332 669l28 -553l-1 -449h-211v449l28 553h156z" />
    <glyph glyph-name="cent" unicode="&#xa2;" horiz-adv-x="1005" 
d="M421 226v190q-170 28 -245.5 156t-75.5 362v75q0 233 75.5 360.5t245.5 156.5v192h186v-189q305 -39 320 -396h-204q-7 124 -55.5 180.5t-142.5 56.5q-115 0 -163.5 -86t-48.5 -268v-89q0 -182 48.5 -268.5t163.5 -86.5q93 0 142 57t56 181h204q-15 -355 -320 -396v-188
h-186z" />
    <glyph glyph-name="sterling" unicode="&#xa3;" horiz-adv-x="1088" 
d="M106 0v167q105 24 161.5 106t56.5 201v3q0 70 -26 160h-226v180h160q-59 160 -59 277v5q0 171 116 272.5t294 101.5q70 0 129.5 -11.5t114.5 -40.5t94 -73t64 -113t28 -157h-204q-6 127 -65.5 178t-157.5 51q-99 0 -151 -57t-52 -164v-5q0 -110 57 -264h423v-180h-356
q26 -90 26 -160v-3q0 -92 -34 -173t-94 -125h598v-176h-897z" />
    <glyph glyph-name="currency" unicode="&#xa4;" horiz-adv-x="1275" 
d="M638 332q-147 0 -260 73l-170 -170l-122 121l168 169q-75 113 -75 263q0 151 76 265l-169 170l123 121l169 -170q114 72 260 72t259 -73l170 171l122 -121l-169 -170q76 -114 76 -265q0 -150 -75 -263l168 -169l-122 -121l-169 170q-113 -73 -260 -73zM638 494
q126 0 206 79.5t80 214.5q0 136 -80 216t-206 80t-206 -80t-80 -216q0 -135 80 -214.5t206 -79.5z" />
    <glyph glyph-name="yen" unicode="&#xa5;" horiz-adv-x="1234" 
d="M512 0v218h-343v181h343v102h-343v182h262l-386 761h226l277 -562l72 -148h2l71 149l275 561h221l-385 -761h260v-182h-341v-102h341v-181h-341v-218h-211z" />
    <glyph glyph-name="brokenbar" unicode="&#xa6;" horiz-adv-x="471" 
d="M144 700v744h183v-744h-183zM144 -333v744h183v-744h-183z" />
    <glyph glyph-name="section" unicode="&#xa7;" horiz-adv-x="971" 
d="M493 -218q-188 0 -291 96.5t-108 273.5h203q5 -116 54 -170t144 -54q84 0 131.5 43t47.5 121v5q0 73 -37.5 114.5t-113.5 71.5l-171 71q-126 52 -187.5 126t-61.5 207v4q0 76 36.5 143t101.5 111q-65 45 -99 108t-34 159v4q0 148 102.5 233t257.5 85q171 0 269 -83.5
t105 -252.5h-202q-10 191 -171 191q-74 0 -118 -41t-44 -122v-2q0 -115 128 -167l170 -70q54 -21 90.5 -39.5t74.5 -46.5t60.5 -60.5t37 -79.5t14.5 -105v-9q0 -82 -34 -151t-100 -114q124 -86 124 -251v-8q0 -167 -103.5 -254t-275.5 -87zM409 863q-51 -24 -79 -68
t-28 -101v-3q0 -113 127 -165l154 -63q49 26 75 69t26 92v5q0 73 -38.5 113t-117.5 72z" />
    <glyph glyph-name="dieresis" unicode="&#xa8;" horiz-adv-x="699" 
d="M47 1210v234h203v-234h-203zM449 1210v234h203v-234h-203z" />
    <glyph glyph-name="copyright" unicode="&#xa9;" horiz-adv-x="1494" 
d="M740 285q-171 0 -251 106.5t-80 313.5v36q0 420 331 420q144 0 226.5 -77.5t90.5 -218.5h-162q-11 172 -155 172q-90 0 -127.5 -70.5t-37.5 -222.5v-42q0 -152 37.5 -222.5t127.5 -70.5q144 0 155 171h162q-8 -140 -90.5 -217.5t-226.5 -77.5zM746 -58q-291 0 -468 196
t-177 519v132q0 323 177 519t468 196q293 0 470.5 -196t177.5 -519v-132q0 -323 -178 -519t-470 -196zM746 57q241 0 382 164t141 443v118q0 279 -141 442.5t-382 163.5q-240 0 -380 -163.5t-140 -442.5v-118q0 -279 140 -443t380 -164z" />
    <glyph glyph-name="guillemotleft" unicode="&#xab;" horiz-adv-x="986" 
d="M293 191l-218 382l218 381h212l-213 -381l213 -382h-212zM680 191l-217 382l217 381h213l-214 -381l214 -382h-213z" />
    <glyph glyph-name="logicalnot" unicode="&#xac;" horiz-adv-x="1096" 
d="M66 818v183h906v-561h-187v378h-719z" />
    <glyph glyph-name="uni00AD" unicode="&#xad;" horiz-adv-x="818" 
d="M115 456v183h588v-183h-588z" />
    <glyph glyph-name="registered" unicode="&#xae;" horiz-adv-x="1211" 
d="M606 279q-230 0 -366.5 153.5t-136.5 409.5v67q0 257 136.5 410.5t366.5 153.5t366 -154t136 -410v-67q0 -256 -136 -409.5t-366 -153.5zM606 372q187 0 294.5 128.5t107.5 348.5v53q0 221 -107 349t-295 128t-295.5 -128t-107.5 -349v-53q0 -220 107.5 -348.5
t295.5 -128.5zM401 560v647h175q117 0 174 -51t57 -135v-1q0 -141 -135 -178l178 -282h-127l-171 271h-41v-271h-110zM511 918h57q59 0 90.5 26t31.5 76v1q0 46 -31.5 72t-90.5 26h-57v-201z" />
    <glyph glyph-name="macron" unicode="&#xaf;" horiz-adv-x="635" 
d="M47 1253v140h541v-140h-541z" />
    <glyph glyph-name="degree" unicode="&#xb0;" horiz-adv-x="816" 
d="M406 804q-147 0 -243.5 97t-96.5 237q0 141 96.5 238t243.5 97q148 0 245.5 -97t97.5 -238q0 -140 -97.5 -237t-245.5 -97zM406 958q73 0 124 50t51 130t-51 130.5t-124 50.5q-72 0 -122 -50.5t-50 -130.5t50 -130t122 -50z" />
    <glyph glyph-name="plusminus" unicode="&#xb1;" horiz-adv-x="1132" 
d="M472 329v365h-361v183h361v362h187v-362h361v-183h-361v-365h-187zM111 0v183h909v-183h-909z" />
    <glyph glyph-name="twosuperior" unicode="&#xb2;" horiz-adv-x="677" 
d="M55 963v39q0 87 23.5 150.5t67 113t128.5 117.5l75 63q55 45 79 89t24 104v1q0 121 -115 121q-61 0 -90 -39.5t-30 -147.5h-157q1 310 284 310q126 0 197 -61.5t71 -173.5v-3q0 -95 -42.5 -163.5t-131.5 -140.5l-74 -64q-81 -67 -106.5 -99t-29.5 -82h393v-134h-566z" />
    <glyph glyph-name="threesuperior" unicode="&#xb3;" horiz-adv-x="705" 
d="M350 944q-144 0 -222 75t-81 217h158q4 -169 142 -169q62 0 98 36t36 107v2q0 82 -40.5 118.5t-129.5 36.5h-33v126h33q153 0 153 139v3q0 126 -118 126q-62 0 -92 -36t-31 -121h-158q2 135 76.5 207.5t209.5 72.5q130 0 201.5 -61t71.5 -173v-3q0 -77 -35 -131t-92 -75
v-1q73 -24 110.5 -78t37.5 -151v-3q0 -123 -79.5 -193.5t-215.5 -70.5z" />
    <glyph glyph-name="acute" unicode="&#xb4;" horiz-adv-x="541" 
d="M47 1210l183 234h250l-227 -234h-206z" />
    <glyph glyph-name="paragraph" unicode="&#xb6;" horiz-adv-x="1212" 
d="M470 -197v896q-205 11 -314.5 107t-109.5 265q0 180 122.5 276.5t351.5 96.5h643v-156h-196v-1485h-167v1485h-163v-1485h-167z" />
    <glyph glyph-name="periodcentered" unicode="&#xb7;" horiz-adv-x="438" 
d="M115 420v255h209v-255h-209z" />
    <glyph glyph-name="cedilla" unicode="&#xb8;" horiz-adv-x="487" 
d="M229 -417q-102 0 -182 45l49 94q65 -37 124 -37q38 0 62.5 15t24.5 45q0 28 -21 42.5t-49 14.5q-42 0 -74 -23l-58 45l126 212h103l-93 -156q25 6 54 6q62 0 104 -33.5t42 -98.5q0 -79 -59.5 -125t-152.5 -46z" />
    <glyph glyph-name="onesuperior" unicode="&#xb9;" horiz-adv-x="433" 
d="M176 963v655h-144v135h26q80 0 109.5 21t42.5 92h125v-903h-159z" />
    <glyph glyph-name="guillemotright" unicode="&#xbb;" horiz-adv-x="986" 
d="M912 573l-217 -382h-213l214 382l-214 381h213zM524 573l-217 -382h-213l214 382l-214 381h213z" />
    <glyph glyph-name="onequarter" unicode="&#xbc;" horiz-adv-x="1501" 
d="M1177 0v194h-373v137l373 572h160v-573h130v-136h-130v-194h-160zM242 0l618 1505h168l-618 -1505h-168zM175 602v656h-143v135h26q80 0 109.5 21t43.5 91h124v-903h-160zM939 330h238v375h-1l-61 -95z" />
    <glyph glyph-name="onehalf" unicode="&#xbd;" horiz-adv-x="1495" 
d="M873 0v39q0 126 47 203.5t172 178.5l75 62q56 46 80 89.5t24 103.5v1q0 122 -115 122q-62 0 -91.5 -40t-29.5 -148h-157q1 311 284 311q126 0 197.5 -61.5t71.5 -174.5v-3q0 -95 -43 -163.5t-132 -140.5l-73 -64q-81 -66 -107 -98t-30 -83h393v-134h-566zM242 0l618 1505
h168l-618 -1505h-168zM175 602v656h-143v135h26q80 0 109.5 21t43.5 91h124v-903h-160z" />
    <glyph glyph-name="threequarters" unicode="&#xbe;" horiz-adv-x="1757" 
d="M1434 0v194h-373v137l373 572h160v-573h130v-136h-130v-194h-160zM350 584q-144 0 -222 75t-81 218h158q4 -171 142 -171q61 0 97.5 36.5t36.5 107.5v2q0 82 -40.5 118.5t-129.5 36.5h-33v126h33q152 0 152 139v3q0 126 -117 126q-61 0 -91.5 -36t-31.5 -122h-158
q2 135 76.5 208t209.5 73q130 0 201 -61t71 -174v-3q0 -76 -34.5 -130t-91.5 -75v-1q148 -48 148 -229v-3q0 -123 -79.5 -193.5t-215.5 -70.5zM499 0l618 1505h168l-618 -1505h-168zM1196 330h238v375h-1l-61 -95z" />
    <glyph glyph-name="questiondown" unicode="&#xbf;" horiz-adv-x="952" 
d="M600 1112v-255h-210v255h210zM483 -193q218 0 218 238h209q-1 -188 -117 -297t-310 -109q-204 0 -318 95t-114 263v1q0 191 155 331l57 51q84 75 108 125.5t24 164.5h193q0 -105 -13.5 -165.5t-44 -104t-99.5 -106.5l-61 -55q-104 -95 -104 -230v-2q0 -103 53.5 -151.5
t163.5 -48.5z" />
    <glyph glyph-name="Agrave" unicode="&#xc0;" horiz-adv-x="1211" 
d="M22 0l458 1445h251l458 -1445h-215l-123 399h-498l-121 -399h-210zM408 582h387l-193 631h-2zM539 1618l-290 264h275l233 -264h-218z" />
    <glyph glyph-name="Aacute" unicode="&#xc1;" horiz-adv-x="1211" 
d="M22 0l458 1445h251l458 -1445h-215l-123 399h-498l-121 -399h-210zM408 582h387l-193 631h-2zM456 1618l234 264h274l-289 -264h-219z" />
    <glyph glyph-name="Acircumflex" unicode="&#xc2;" horiz-adv-x="1211" 
d="M22 0l458 1445h251l458 -1445h-215l-123 399h-498l-121 -399h-210zM408 582h387l-193 631h-2zM275 1618l206 264h251l207 -264h-209l-123 159l-123 -159h-209z" />
    <glyph glyph-name="Atilde" unicode="&#xc3;" horiz-adv-x="1211" 
d="M22 0l458 1445h251l458 -1445h-215l-123 399h-498l-121 -399h-210zM408 582h387l-193 631h-2zM290 1625q3 250 170 250q46 0 97 -25t95 -50t73 -25q34 0 49 24t18 76h132q-2 -127 -43.5 -188.5t-126.5 -61.5q-46 0 -97.5 25.5t-95 50.5t-72.5 25q-33 0 -48.5 -24.5
t-18.5 -76.5h-132z" />
    <glyph glyph-name="Adieresis" unicode="&#xc4;" horiz-adv-x="1211" 
d="M22 0l458 1445h251l458 -1445h-215l-123 399h-498l-121 -399h-210zM408 582h387l-193 631h-2zM276 1633v249h206v-249h-206zM732 1633v249h206v-249h-206z" />
    <glyph glyph-name="Aring" unicode="&#xc5;" horiz-adv-x="1211" 
d="M22 0l458 1445h251l458 -1445h-215l-123 399h-498l-121 -399h-210zM408 582h387l-193 631h-2zM607 1549q-95 0 -162.5 63.5t-67.5 158.5t67.5 158t162.5 63q94 0 161.5 -63t67.5 -158t-67.5 -158.5t-161.5 -63.5zM607 1652q51 0 83 33t32 86q0 52 -32 85t-83 33
q-52 0 -84 -32.5t-32 -85.5t32 -86t84 -33z" />
    <glyph glyph-name="AE" unicode="&#xc6;" horiz-adv-x="1696" 
d="M-35 0l802 1444h840v-184h-609v-437h537v-183h-537v-457h611v-183h-822v430h-374l-232 -430h-216zM511 612h276v505z" />
    <glyph glyph-name="Ccedilla" unicode="&#xc7;" horiz-adv-x="1228" 
d="M641 -29q-290 0 -417.5 170.5t-127.5 524.5v113q0 353 127.5 523.5t417.5 170.5q236 0 367.5 -125.5t147.5 -374.5h-212q-13 168 -94.5 244.5t-208.5 76.5q-178 0 -250.5 -115.5t-72.5 -357.5v-197q0 -242 72.5 -358t250.5 -116q127 0 208.5 77t94.5 244h212
q-16 -249 -147.5 -374.5t-367.5 -125.5zM607 -417q-103 0 -182 45l49 94q65 -37 124 -37q38 0 62.5 15t24.5 45q0 28 -21 42.5t-49 14.5q-42 0 -74 -23l-58 45l126 212h103l-93 -156q25 6 54 6q62 0 104 -33.5t42 -98.5q0 -79 -59.5 -125t-152.5 -46z" />
    <glyph glyph-name="Egrave" unicode="&#xc8;" horiz-adv-x="1053" 
d="M144 0v1444h820v-183h-609v-438h537v-183h-537v-457h611v-183h-822zM487 1618l-290 264h275l233 -264h-218z" />
    <glyph glyph-name="Eacute" unicode="&#xc9;" horiz-adv-x="1053" 
d="M144 0v1444h820v-183h-609v-438h537v-183h-537v-457h611v-183h-822zM405 1618l234 264h274l-289 -264h-219z" />
    <glyph glyph-name="Ecircumflex" unicode="&#xca;" horiz-adv-x="1053" 
d="M144 0v1444h820v-183h-609v-438h537v-183h-537v-457h611v-183h-822zM223 1618l206 264h251l207 -264h-209l-123 159l-123 -159h-209z" />
    <glyph glyph-name="Edieresis" unicode="&#xcb;" horiz-adv-x="1053" 
d="M144 0v1444h820v-183h-609v-438h537v-183h-537v-457h611v-183h-822zM225 1633v249h206v-249h-206zM681 1633v249h206v-249h-206z" />
    <glyph glyph-name="Igrave" unicode="&#xcc;" horiz-adv-x="499" 
d="M144 0v1444h211v-1444h-211zM183 1618l-290 264h275l233 -264h-218z" />
    <glyph glyph-name="Iacute" unicode="&#xcd;" horiz-adv-x="499" 
d="M144 0v1444h211v-1444h-211zM100 1618l234 264h274l-289 -264h-219z" />
    <glyph glyph-name="Icircumflex" unicode="&#xce;" horiz-adv-x="499" 
d="M144 0v1444h211v-1444h-211zM-81 1618l206 264h251l207 -264h-209l-123 159l-123 -159h-209z" />
    <glyph glyph-name="Idieresis" unicode="&#xcf;" horiz-adv-x="499" 
d="M144 0v1444h211v-1444h-211zM-80 1633v249h206v-249h-206zM376 1633v249h206v-249h-206z" />
    <glyph glyph-name="Eth" unicode="&#xd0;" horiz-adv-x="1256" 
d="M41 633v187h121v624h394q315 0 462 -167.5t147 -531.5v-49q0 -362 -147 -529t-462 -167h-394v633h-121zM373 178h170q216 0 308 112.5t92 389.5v82q0 277 -92 390t-308 113h-170v-445h312v-187h-312v-455z" />
    <glyph glyph-name="Ntilde" unicode="&#xd1;" horiz-adv-x="1290" 
d="M144 0v1444h300l504 -1227h5l-10 455v772h203v-1444h-301l-503 1226h-5l10 -455v-771h-203zM370 1625q3 250 170 250q46 0 97 -25t95 -50t73 -25q34 0 49 24t18 76h132q-2 -127 -43.5 -188.5t-126.5 -61.5q-46 0 -97.5 25.5t-95 50.5t-72.5 25q-33 0 -48.5 -24.5
t-18.5 -76.5h-132z" />
    <glyph glyph-name="Ograve" unicode="&#xd2;" horiz-adv-x="1307" 
d="M654 -29q-291 0 -425 170.5t-134 529.5v103q0 358 134 528.5t425 170.5q290 0 424 -170.5t134 -528.5v-103q0 -358 -134 -529t-424 -171zM654 150q176 0 256 123t80 368v163q0 245 -79.5 367.5t-256.5 122.5t-257 -122.5t-80 -367.5v-163q0 -245 80 -368t257 -123z
M586 1618l-290 264h275l233 -264h-218z" />
    <glyph glyph-name="Oacute" unicode="&#xd3;" horiz-adv-x="1307" 
d="M654 -29q-291 0 -425 170.5t-134 529.5v103q0 358 134 528.5t425 170.5q290 0 424 -170.5t134 -528.5v-103q0 -358 -134 -529t-424 -171zM654 150q176 0 256 123t80 368v163q0 245 -79.5 367.5t-256.5 122.5t-257 -122.5t-80 -367.5v-163q0 -245 80 -368t257 -123z
M504 1618l234 264h274l-289 -264h-219z" />
    <glyph glyph-name="Ocircumflex" unicode="&#xd4;" horiz-adv-x="1307" 
d="M654 -29q-291 0 -425 170.5t-134 529.5v103q0 358 134 528.5t425 170.5q290 0 424 -170.5t134 -528.5v-103q0 -358 -134 -529t-424 -171zM654 150q176 0 256 123t80 368v163q0 245 -79.5 367.5t-256.5 122.5t-257 -122.5t-80 -367.5v-163q0 -245 80 -368t257 -123z
M322 1618l206 264h251l207 -264h-209l-123 159l-123 -159h-209z" />
    <glyph glyph-name="Otilde" unicode="&#xd5;" horiz-adv-x="1307" 
d="M654 -29q-291 0 -425 170.5t-134 529.5v103q0 358 134 528.5t425 170.5q290 0 424 -170.5t134 -528.5v-103q0 -358 -134 -529t-424 -171zM654 150q176 0 256 123t80 368v163q0 245 -79.5 367.5t-256.5 122.5t-257 -122.5t-80 -367.5v-163q0 -245 80 -368t257 -123z
M338 1625q3 250 170 250q46 0 97 -25t95 -50t73 -25q34 0 49 24t18 76h132q-2 -127 -43.5 -188.5t-126.5 -61.5q-46 0 -97.5 25.5t-95 50.5t-72.5 25q-33 0 -48.5 -24.5t-18.5 -76.5h-132z" />
    <glyph glyph-name="Odieresis" unicode="&#xd6;" horiz-adv-x="1307" 
d="M654 -29q-291 0 -425 170.5t-134 529.5v103q0 358 134 528.5t425 170.5q290 0 424 -170.5t134 -528.5v-103q0 -358 -134 -529t-424 -171zM654 150q176 0 256 123t80 368v163q0 245 -79.5 367.5t-256.5 122.5t-257 -122.5t-80 -367.5v-163q0 -245 80 -368t257 -123z
M324 1633v249h206v-249h-206zM780 1633v249h206v-249h-206z" />
    <glyph glyph-name="multiply" unicode="&#xd7;" horiz-adv-x="998" 
d="M214 315l-124 124l284 286l-284 284l124 125l286 -285l285 285l124 -125l-285 -284l285 -286l-124 -124l-285 284z" />
    <glyph glyph-name="Oslash" unicode="&#xd8;" horiz-adv-x="1307" 
d="M204 -115l83 197q-192 161 -192 589v103q0 358 134 528.5t425 170.5q114 0 202 -25l97 234l151 -57l-103 -248q211 -156 211 -603v-103q0 -358 -134 -529t-424 -171q-129 0 -225 33l-74 -178zM317 641q0 -220 62 -337l404 969q-55 21 -129 21q-177 0 -257 -122.5
t-80 -367.5v-163zM654 150q176 0 256 123t80 368v163q0 242 -77 363l-411 -986q62 -31 152 -31z" />
    <glyph glyph-name="Ugrave" unicode="&#xd9;" horiz-adv-x="1253" 
d="M627 -29q-247 0 -369.5 126.5t-122.5 395.5v951h211v-946q0 -175 68.5 -260t212.5 -85q145 0 213 85t68 260v946h211v-951q0 -269 -122.5 -395.5t-369.5 -126.5zM560 1618l-290 264h275l233 -264h-218z" />
    <glyph glyph-name="Uacute" unicode="&#xda;" horiz-adv-x="1253" 
d="M627 -29q-247 0 -369.5 126.5t-122.5 395.5v951h211v-946q0 -175 68.5 -260t212.5 -85q145 0 213 85t68 260v946h211v-951q0 -269 -122.5 -395.5t-369.5 -126.5zM477 1618l234 264h274l-289 -264h-219z" />
    <glyph glyph-name="Ucircumflex" unicode="&#xdb;" horiz-adv-x="1253" 
d="M627 -29q-247 0 -369.5 126.5t-122.5 395.5v951h211v-946q0 -175 68.5 -260t212.5 -85q145 0 213 85t68 260v946h211v-951q0 -269 -122.5 -395.5t-369.5 -126.5zM296 1618l206 264h251l207 -264h-209l-123 159l-123 -159h-209z" />
    <glyph glyph-name="Udieresis" unicode="&#xdc;" horiz-adv-x="1253" 
d="M627 -29q-247 0 -369.5 126.5t-122.5 395.5v951h211v-946q0 -175 68.5 -260t212.5 -85q145 0 213 85t68 260v946h211v-951q0 -269 -122.5 -395.5t-369.5 -126.5zM297 1633v249h206v-249h-206zM753 1633v249h206v-249h-206z" />
    <glyph glyph-name="Yacute" unicode="&#xdd;" horiz-adv-x="1174" 
d="M482 0v525l-467 919h226l277 -562l72 -148h2l71 149l275 561h221l-466 -919v-525h-211zM438 1618l234 264h274l-289 -264h-219z" />
    <glyph glyph-name="Thorn" unicode="&#xde;" horiz-adv-x="1130" 
d="M144 0l1 1443h210v-240h192q510 0 510 -443v-12q0 -444 -510 -444h-192v-304h-211zM355 483h185q153 0 224.5 62.5t71.5 201.5v13q0 140 -71.5 202.5t-224.5 62.5h-185v-542z" />
    <glyph glyph-name="germandbls" unicode="&#xdf;" horiz-adv-x="1087" 
d="M130 0v1050q0 208 109 315.5t315 107.5q188 0 289 -91.5t101 -260.5v-34q0 -217 -184 -310v-2q257 -57 257 -337v-35q0 -194 -116 -298.5t-316 -104.5h-122v171h81q261 0 261 231v35q0 114 -71.5 172.5t-197.5 58.5h-55v169h50q98 0 151.5 57.5t53.5 174.5v32
q0 112 -49.5 158.5t-139.5 46.5q-112 0 -162.5 -60.5t-50.5 -204.5v-1041h-204z" />
    <glyph glyph-name="agrave" unicode="&#xe0;" horiz-adv-x="1000" 
d="M402 -29q-151 0 -241 78t-90 231v29q0 76 24.5 130.5t79.5 94t128 66.5t186 53q59 14 89 23t55 19.5t33.5 24.5t12.5 30t4 45v10q0 139 -177 139q-190 0 -191 -193h-200q0 180 104.5 264.5t285.5 84.5q192 0 285 -74t92 -258l-3 -457q-1 -204 17 -311h-202q-6 85 -7 109
q-89 -138 -285 -138zM451 125q109 0 169 63t60 173v214q-23 -11 -187 -73q-122 -41 -165.5 -77.5t-43.5 -110.5v-22q0 -167 167 -167zM428 1210l-221 234h249l184 -234h-212z" />
    <glyph glyph-name="aacute" unicode="&#xe1;" horiz-adv-x="1000" 
d="M402 -29q-151 0 -241 78t-90 231v29q0 76 24.5 130.5t79.5 94t128 66.5t186 53q59 14 89 23t55 19.5t33.5 24.5t12.5 30t4 45v10q0 139 -177 139q-190 0 -191 -193h-200q0 180 104.5 264.5t285.5 84.5q192 0 285 -74t92 -258l-3 -457q-1 -204 17 -311h-202q-6 85 -7 109
q-89 -138 -285 -138zM451 125q109 0 169 63t60 173v214q-23 -11 -187 -73q-122 -41 -165.5 -77.5t-43.5 -110.5v-22q0 -167 167 -167zM388 1210l183 234h250l-227 -234h-206z" />
    <glyph glyph-name="acircumflex" unicode="&#xe2;" horiz-adv-x="1000" 
d="M402 -29q-151 0 -241 78t-90 231v29q0 76 24.5 130.5t79.5 94t128 66.5t186 53q59 14 89 23t55 19.5t33.5 24.5t12.5 30t4 45v10q0 139 -177 139q-190 0 -191 -193h-200q0 180 104.5 264.5t285.5 84.5q192 0 285 -74t92 -258l-3 -457q-1 -204 17 -311h-202q-6 85 -7 109
q-89 -138 -285 -138zM451 125q109 0 169 63t60 173v214q-23 -11 -187 -73q-122 -41 -165.5 -77.5t-43.5 -110.5v-22q0 -167 167 -167zM190 1210l207 234h217l209 -234h-196l-121 128l-120 -128h-196z" />
    <glyph glyph-name="atilde" unicode="&#xe3;" horiz-adv-x="1000" 
d="M402 -29q-151 0 -241 78t-90 231v29q0 76 24.5 130.5t79.5 94t128 66.5t186 53q59 14 89 23t55 19.5t33.5 24.5t12.5 30t4 45v10q0 139 -177 139q-190 0 -191 -193h-200q0 180 104.5 264.5t285.5 84.5q192 0 285 -74t92 -258l-3 -457q-1 -204 17 -311h-202q-6 85 -7 109
q-89 -138 -285 -138zM451 125q109 0 169 63t60 173v214q-23 -11 -187 -73q-122 -41 -165.5 -77.5t-43.5 -110.5v-22q0 -167 167 -167zM196 1210q3 250 170 250q46 0 97 -25t95 -50t73 -25q34 0 49 24t18 76h132q-2 -127 -43.5 -188.5t-126.5 -61.5q-37 0 -77.5 16
t-69.5 34.5t-62 34.5t-56 16q-33 0 -48.5 -24.5t-18.5 -76.5h-132z" />
    <glyph glyph-name="adieresis" unicode="&#xe4;" horiz-adv-x="1000" 
d="M402 -29q-151 0 -241 78t-90 231v29q0 76 24.5 130.5t79.5 94t128 66.5t186 53q59 14 89 23t55 19.5t33.5 24.5t12.5 30t4 45v10q0 139 -177 139q-190 0 -191 -193h-200q0 180 104.5 264.5t285.5 84.5q192 0 285 -74t92 -258l-3 -457q-1 -204 17 -311h-202q-6 85 -7 109
q-89 -138 -285 -138zM451 125q109 0 169 63t60 173v214q-23 -11 -187 -73q-122 -41 -165.5 -77.5t-43.5 -110.5v-22q0 -167 167 -167zM205 1210v234h203v-234h-203zM607 1210v234h203v-234h-203z" />
    <glyph glyph-name="aring" unicode="&#xe5;" horiz-adv-x="1000" 
d="M402 -29q-151 0 -241 78t-90 231v29q0 76 24.5 130.5t79.5 94t128 66.5t186 53q59 14 89 23t55 19.5t33.5 24.5t12.5 30t4 45v10q0 139 -177 139q-190 0 -191 -193h-200q0 180 104.5 264.5t285.5 84.5q192 0 285 -74t92 -258l-3 -457q-1 -204 17 -311h-202q-6 85 -7 109
q-89 -138 -285 -138zM451 125q109 0 169 63t60 173v214q-23 -11 -187 -73q-122 -41 -165.5 -77.5t-43.5 -110.5v-22q0 -167 167 -167zM509 1175q-95 0 -162.5 63t-67.5 158t67.5 158t162.5 63q94 0 161.5 -63t67.5 -158t-67.5 -158t-161.5 -63zM509 1277q51 0 83 33t32 86
q0 52 -32 85t-83 33q-52 0 -84 -32.5t-32 -85.5t32 -86t84 -33z" />
    <glyph glyph-name="ae" unicode="&#xe6;" horiz-adv-x="1628" 
d="M1125 -29q-276 0 -373 187q-52 -98 -145.5 -142.5t-205.5 -44.5q-151 0 -240.5 78.5t-89.5 230.5v29q0 76 25 131t80.5 94t128 65t183.5 51q139 31 170 52t31 93v11q0 78 -47 108t-132 30q-92 0 -141 -40t-49 -154h-200q1 174 106.5 261.5t282.5 87.5q227 0 312 -104h1
q109 101 304 101q122 0 205.5 -37.5t132 -117t69 -190.5t18.5 -269v-2h-652v-8q5 -171 58.5 -254t172.5 -83q93 0 144 49t60 139h204q-12 -162 -117 -257t-296 -95zM452 124q111 0 173.5 65t62.5 176v199q-100 -31 -193 -62q-124 -37 -168 -73.5t-44 -114.5v-24
q0 -166 169 -166zM1126 938q-215 0 -225 -295v-2h441v3q-2 156 -57 225t-159 69z" />
    <glyph glyph-name="ccedilla" unicode="&#xe7;" horiz-adv-x="980" 
d="M507 -29q-227 0 -326 129.5t-99 395.5v76q0 265 99.5 394.5t327.5 129.5q383 0 400 -401h-203q-7 124 -56 180.5t-143 56.5q-115 0 -163.5 -86t-48.5 -268v-88q0 -182 48.5 -268.5t163.5 -86.5q94 0 143 57t56 180h203q-17 -401 -402 -401zM473 -417q-103 0 -182 45
l49 94q65 -37 124 -37q38 0 62.5 15t24.5 45q0 28 -21 42.5t-49 14.5q-42 0 -74 -23l-58 45l126 212h103l-93 -156q26 6 54 6q62 0 104 -33.5t42 -98.5q0 -79 -59.5 -125t-152.5 -46z" />
    <glyph glyph-name="egrave" unicode="&#xe8;" horiz-adv-x="1021" 
d="M518 -29q-236 0 -336.5 129.5t-100.5 396.5v76q0 263 106.5 393t331.5 130q122 0 205.5 -37.5t132 -117t69 -190.5t18.5 -269v-2h-652v-8q5 -172 58.5 -255t172.5 -83q93 0 144 49.5t60 139.5h204q-12 -162 -117 -257t-296 -95zM519 937q-112 0 -166 -67t-59 -227v-2h441
v3q-2 156 -57 224.5t-159 68.5zM439 1210l-221 234h249l184 -234h-212z" />
    <glyph glyph-name="eacute" unicode="&#xe9;" horiz-adv-x="1021" 
d="M518 -29q-236 0 -336.5 129.5t-100.5 396.5v76q0 263 106.5 393t331.5 130q122 0 205.5 -37.5t132 -117t69 -190.5t18.5 -269v-2h-652v-8q5 -172 58.5 -255t172.5 -83q93 0 144 49.5t60 139.5h204q-12 -162 -117 -257t-296 -95zM519 937q-112 0 -166 -67t-59 -227v-2h441
v3q-2 156 -57 224.5t-159 68.5zM398 1210l183 234h250l-227 -234h-206z" />
    <glyph glyph-name="ecircumflex" unicode="&#xea;" horiz-adv-x="1021" 
d="M518 -29q-236 0 -336.5 129.5t-100.5 396.5v76q0 263 106.5 393t331.5 130q122 0 205.5 -37.5t132 -117t69 -190.5t18.5 -269v-2h-652v-8q5 -172 58.5 -255t172.5 -83q93 0 144 49.5t60 139.5h204q-12 -162 -117 -257t-296 -95zM519 937q-112 0 -166 -67t-59 -227v-2h441
v3q-2 156 -57 224.5t-159 68.5zM200 1210l207 234h217l209 -234h-196l-121 128l-120 -128h-196z" />
    <glyph glyph-name="edieresis" unicode="&#xeb;" horiz-adv-x="1021" 
d="M518 -29q-236 0 -336.5 129.5t-100.5 396.5v76q0 263 106.5 393t331.5 130q122 0 205.5 -37.5t132 -117t69 -190.5t18.5 -269v-2h-652v-8q5 -172 58.5 -255t172.5 -83q93 0 144 49.5t60 139.5h204q-12 -162 -117 -257t-296 -95zM519 937q-112 0 -166 -67t-59 -227v-2h441
v3q-2 156 -57 224.5t-159 68.5zM216 1210v234h203v-234h-203zM618 1210v234h203v-234h-203z" />
    <glyph glyph-name="igrave" unicode="&#xec;" horiz-adv-x="461" 
d="M130 0v1067h203v-1067h-203zM151 1210l-221 234h249l184 -234h-212z" />
    <glyph glyph-name="iacute" unicode="&#xed;" horiz-adv-x="461" 
d="M130 0v1067h203v-1067h-203zM111 1210l183 234h250l-227 -234h-206z" />
    <glyph glyph-name="icircumflex" unicode="&#xee;" horiz-adv-x="461" 
d="M130 0v1067h203v-1067h-203zM-88 1210l207 234h217l209 -234h-196l-121 128l-120 -128h-196z" />
    <glyph glyph-name="idieresis" unicode="&#xef;" horiz-adv-x="461" 
d="M130 0v1067h203v-1067h-203zM-72 1210v234h203v-234h-203zM330 1210v234h203v-234h-203z" />
    <glyph glyph-name="eth" unicode="&#xf0;" horiz-adv-x="1057" 
d="M299 1125l-56 98l187 97q-65 51 -170 114l114 150q131 -75 236 -171l189 98l56 -98l-161 -84q141 -157 211.5 -347.5t70.5 -397.5v-49q0 -268 -118 -416t-329 -148q-214 0 -331 142.5t-117 390.5v56q0 248 114.5 391t321.5 143q84 0 139 -32l1 2q-53 97 -135 176z
M529 134q234 0 234 367v63q0 177 -59.5 272t-174.5 95t-175 -95t-60 -272v-62q0 -368 235 -368z" />
    <glyph glyph-name="ntilde" unicode="&#xf1;" 
d="M130 0v1067h203v-110q39 64 108.5 101.5t157.5 37.5q160 0 240.5 -97t80.5 -300v-699h-203v654q0 142 -47.5 209.5t-144.5 67.5t-144.5 -67.5t-47.5 -209.5v-654h-203zM213 1210q3 250 170 250q46 0 97 -25t95 -50t73 -25q34 0 49 24t18 76h132q-2 -127 -43.5 -188.5
t-126.5 -61.5q-37 0 -77.5 16t-69.5 34.5t-62 34.5t-56 16q-33 0 -48.5 -24.5t-18.5 -76.5h-132z" />
    <glyph glyph-name="ograve" unicode="&#xf2;" horiz-adv-x="1038" 
d="M518 -29q-232 0 -334.5 131.5t-102.5 393.5v76q0 261 102.5 392.5t334.5 131.5q233 0 336 -131t103 -393v-76q0 -262 -103 -393.5t-336 -131.5zM518 135q125 0 175.5 88.5t50.5 269.5v82q0 181 -50.5 269t-175.5 88q-123 0 -173.5 -88t-50.5 -269v-82q0 -181 50.5 -269.5
t173.5 -88.5zM439 1210l-221 234h249l184 -234h-212z" />
    <glyph glyph-name="oacute" unicode="&#xf3;" horiz-adv-x="1038" 
d="M518 -29q-232 0 -334.5 131.5t-102.5 393.5v76q0 261 102.5 392.5t334.5 131.5q233 0 336 -131t103 -393v-76q0 -262 -103 -393.5t-336 -131.5zM518 135q125 0 175.5 88.5t50.5 269.5v82q0 181 -50.5 269t-175.5 88q-123 0 -173.5 -88t-50.5 -269v-82q0 -181 50.5 -269.5
t173.5 -88.5zM398 1210l183 234h250l-227 -234h-206z" />
    <glyph glyph-name="ocircumflex" unicode="&#xf4;" horiz-adv-x="1038" 
d="M518 -29q-232 0 -334.5 131.5t-102.5 393.5v76q0 261 102.5 392.5t334.5 131.5q233 0 336 -131t103 -393v-76q0 -262 -103 -393.5t-336 -131.5zM518 135q125 0 175.5 88.5t50.5 269.5v82q0 181 -50.5 269t-175.5 88q-123 0 -173.5 -88t-50.5 -269v-82q0 -181 50.5 -269.5
t173.5 -88.5zM200 1210l207 234h217l209 -234h-196l-121 128l-120 -128h-196z" />
    <glyph glyph-name="otilde" unicode="&#xf5;" horiz-adv-x="1038" 
d="M518 -29q-232 0 -334.5 131.5t-102.5 393.5v76q0 261 102.5 392.5t334.5 131.5q233 0 336 -131t103 -393v-76q0 -262 -103 -393.5t-336 -131.5zM518 135q125 0 175.5 88.5t50.5 269.5v82q0 181 -50.5 269t-175.5 88q-123 0 -173.5 -88t-50.5 -269v-82q0 -181 50.5 -269.5
t173.5 -88.5zM207 1210q3 250 170 250q46 0 97 -25t95 -50t73 -25q34 0 49 24t18 76h132q-2 -127 -43.5 -188.5t-126.5 -61.5q-37 0 -77.5 16t-69.5 34.5t-62 34.5t-56 16q-33 0 -48.5 -24.5t-18.5 -76.5h-132z" />
    <glyph glyph-name="odieresis" unicode="&#xf6;" horiz-adv-x="1038" 
d="M518 -29q-232 0 -334.5 131.5t-102.5 393.5v76q0 261 102.5 392.5t334.5 131.5q233 0 336 -131t103 -393v-76q0 -262 -103 -393.5t-336 -131.5zM518 135q125 0 175.5 88.5t50.5 269.5v82q0 181 -50.5 269t-175.5 88q-123 0 -173.5 -88t-50.5 -269v-82q0 -181 50.5 -269.5
t173.5 -88.5zM216 1210v234h203v-234h-203zM618 1210v234h203v-234h-203z" />
    <glyph glyph-name="divide" unicode="&#xf7;" horiz-adv-x="1132" 
d="M114 640v183h904v-183h-904zM567 962q-57 0 -94 35.5t-37 92.5t37 92.5t94 35.5q56 0 92.5 -35.5t36.5 -92.5t-36.5 -92.5t-92.5 -35.5zM567 244q-57 0 -94 35.5t-37 92.5q0 58 37 93.5t94 35.5q56 0 92.5 -35.5t36.5 -93.5q0 -57 -36.5 -92.5t-92.5 -35.5z" />
    <glyph glyph-name="oslash" unicode="&#xf8;" horiz-adv-x="1038" 
d="M184 -101l60 146q-163 119 -163 451v76q0 261 102.5 392.5t334.5 131.5q82 0 152 -17l57 139l127 -52l-59 -145q162 -118 162 -449v-76q0 -262 -103 -393.5t-336 -131.5q-81 0 -149 17l-59 -142zM294 493q0 -156 35 -240l275 665q-39 14 -86 14q-123 0 -173.5 -88
t-50.5 -269v-82zM518 135q125 0 175.5 88.5t50.5 269.5v82q0 155 -35 238l-274 -665q35 -13 83 -13z" />
    <glyph glyph-name="ugrave" unicode="&#xf9;" 
d="M442 -29q-160 0 -240.5 97t-80.5 300v699h203v-654q0 -142 47 -209.5t144 -67.5q98 0 145.5 67.5t47.5 209.5v654h203v-1067h-203v110q-39 -64 -108.5 -101.5t-157.5 -37.5zM437 1210l-221 234h249l184 -234h-212z" />
    <glyph glyph-name="uacute" unicode="&#xfa;" 
d="M442 -29q-160 0 -240.5 97t-80.5 300v699h203v-654q0 -142 47 -209.5t144 -67.5q98 0 145.5 67.5t47.5 209.5v654h203v-1067h-203v110q-39 -64 -108.5 -101.5t-157.5 -37.5zM396 1210l183 234h250l-227 -234h-206z" />
    <glyph glyph-name="ucircumflex" unicode="&#xfb;" 
d="M442 -29q-160 0 -240.5 97t-80.5 300v699h203v-654q0 -142 47 -209.5t144 -67.5q98 0 145.5 67.5t47.5 209.5v654h203v-1067h-203v110q-39 -64 -108.5 -101.5t-157.5 -37.5zM198 1210l207 234h217l209 -234h-196l-121 128l-120 -128h-196z" />
    <glyph glyph-name="udieresis" unicode="&#xfc;" 
d="M442 -29q-160 0 -240.5 97t-80.5 300v699h203v-654q0 -142 47 -209.5t144 -67.5q98 0 145.5 67.5t47.5 209.5v654h203v-1067h-203v110q-39 -64 -108.5 -101.5t-157.5 -37.5zM214 1210v234h203v-234h-203zM616 1210v234h203v-234h-203z" />
    <glyph glyph-name="yacute" unicode="&#xfd;" horiz-adv-x="1009" 
d="M141 -333v169h60q84 0 112 20.5t57 100.5l17 45l-365 1065h211l266 -810l296 810h203l-424 -1118q-25 -65 -41.5 -102.5t-39 -73.5t-44 -53t-55 -31t-72.5 -18t-97 -4h-84zM404 1210l183 234h250l-227 -234h-206z" />
    <glyph glyph-name="thorn" unicode="&#xfe;" horiz-adv-x="1073" 
d="M613 -28q-100 0 -173 43.5t-107 113.5v-462h-203v1777h203v-506q34 70 107 113.5t173 43.5q171 0 275.5 -137.5t104.5 -401.5v-45q0 -264 -104.5 -401.5t-275.5 -137.5zM551 133q225 0 225 387v27q0 387 -225 387q-226 0 -226 -387v-27q0 -387 226 -387z" />
    <glyph glyph-name="ydieresis" unicode="&#xff;" horiz-adv-x="1009" 
d="M141 -333v169h60q84 0 112 20.5t57 100.5l17 45l-365 1065h211l266 -810l296 810h203l-424 -1118q-25 -65 -41.5 -102.5t-39 -73.5t-44 -53t-55 -31t-72.5 -18t-97 -4h-84zM221 1210v234h203v-234h-203zM623 1210v234h203v-234h-203z" />
    <glyph glyph-name="Amacron" unicode="&#x100;" horiz-adv-x="1211" 
d="M22 0l458 1445h251l458 -1445h-215l-123 399h-498l-121 -399h-210zM408 582h387l-193 631h-2zM336 1663v143h541v-143h-541z" />
    <glyph glyph-name="amacron" unicode="&#x101;" horiz-adv-x="1000" 
d="M402 -29q-151 0 -241 78t-90 231v29q0 76 24.5 130.5t79.5 94t128 66.5t186 53q59 14 89 23t55 19.5t33.5 24.5t12.5 30t4 45v10q0 139 -177 139q-190 0 -191 -193h-200q0 180 104.5 264.5t285.5 84.5q192 0 285 -74t92 -258l-3 -457q-1 -204 17 -311h-202q-6 85 -7 109
q-89 -138 -285 -138zM451 125q109 0 169 63t60 173v214q-23 -11 -187 -73q-122 -41 -165.5 -77.5t-43.5 -110.5v-22q0 -167 167 -167zM238 1253v140h541v-140h-541z" />
    <glyph glyph-name="Abreve" unicode="&#x102;" horiz-adv-x="1211" 
d="M22 0l458 1445h251l458 -1445h-215l-123 399h-498l-121 -399h-210zM408 582h387l-193 631h-2zM606 1624q-121 0 -193 65t-83 193h155q10 -126 121 -126q112 0 122 126h155q-12 -128 -84 -193t-193 -65z" />
    <glyph glyph-name="abreve" unicode="&#x103;" horiz-adv-x="1000" 
d="M402 -29q-151 0 -241 78t-90 231v29q0 76 24.5 130.5t79.5 94t128 66.5t186 53q59 14 89 23t55 19.5t33.5 24.5t12.5 30t4 45v10q0 139 -177 139q-190 0 -191 -193h-200q0 180 104.5 264.5t285.5 84.5q192 0 285 -74t92 -258l-3 -457q-1 -204 17 -311h-202q-6 85 -7 109
q-89 -138 -285 -138zM451 125q109 0 169 63t60 173v214q-23 -11 -187 -73q-122 -41 -165.5 -77.5t-43.5 -110.5v-22q0 -167 167 -167zM508 1199q-255 0 -276 245h155q5 -59 35 -86t86 -27q57 0 87 27t35 86h155q-23 -245 -277 -245z" />
    <glyph glyph-name="Aogonek" unicode="&#x104;" horiz-adv-x="1211" 
d="M22 0l458 1445h251l458 -1445h-215l-123 399h-498l-121 -399h-210zM408 582h387l-193 631h-2zM997 1h159q-101 -65 -101 -142q0 -41 25 -63.5t65 -22.5q41 0 76 19l51 -113q-73 -49 -174 -49q-100 0 -159.5 48t-59.5 129q0 115 118 194z" />
    <glyph glyph-name="aogonek" unicode="&#x105;" horiz-adv-x="1000" 
d="M402 -29q-151 0 -241 78t-90 231v29q0 76 24.5 130.5t79.5 94t128 66.5t186 53q59 14 89 23t55 19.5t33.5 24.5t12.5 30t4 45v10q0 139 -177 139q-190 0 -191 -193h-200q0 180 104.5 264.5t285.5 84.5q192 0 285 -74t92 -258l-3 -457q-1 -204 17 -311h-202q-6 85 -7 109
q-89 -138 -285 -138zM451 125q109 0 169 63t60 173v214q-23 -11 -187 -73q-122 -41 -165.5 -77.5t-43.5 -110.5v-22q0 -167 167 -167zM723 1h159q-101 -65 -101 -142q0 -41 25 -63.5t65 -22.5q41 0 76 19l51 -113q-73 -49 -174 -49q-100 0 -159.5 48t-59.5 129
q0 115 118 194z" />
    <glyph glyph-name="Cacute" unicode="&#x106;" horiz-adv-x="1228" 
d="M641 -29q-290 0 -417.5 170.5t-127.5 524.5v113q0 353 127.5 523.5t417.5 170.5q236 0 367.5 -125.5t147.5 -374.5h-212q-13 168 -94.5 244.5t-208.5 76.5q-178 0 -250.5 -115.5t-72.5 -357.5v-197q0 -242 72.5 -358t250.5 -116q127 0 208.5 77t94.5 244h212
q-16 -249 -147.5 -374.5t-367.5 -125.5zM491 1618l234 264h274l-289 -264h-219z" />
    <glyph glyph-name="cacute" unicode="&#x107;" horiz-adv-x="980" 
d="M507 -29q-227 0 -326 129.5t-99 395.5v76q0 265 99.5 394.5t327.5 129.5q383 0 400 -401h-203q-7 124 -56 180.5t-143 56.5q-115 0 -163.5 -86t-48.5 -268v-88q0 -182 48.5 -268.5t163.5 -86.5q94 0 143 57t56 180h203q-17 -401 -402 -401zM387 1210l183 234h250
l-227 -234h-206z" />
    <glyph glyph-name="Ccircumflex" unicode="&#x108;" horiz-adv-x="1228" 
d="M641 -29q-290 0 -417.5 170.5t-127.5 524.5v113q0 353 127.5 523.5t417.5 170.5q236 0 367.5 -125.5t147.5 -374.5h-212q-13 168 -94.5 244.5t-208.5 76.5q-178 0 -250.5 -115.5t-72.5 -357.5v-197q0 -242 72.5 -358t250.5 -116q127 0 208.5 77t94.5 244h212
q-16 -249 -147.5 -374.5t-367.5 -125.5zM310 1618l206 264h251l207 -264h-209l-123 159l-123 -159h-209z" />
    <glyph glyph-name="ccircumflex" unicode="&#x109;" horiz-adv-x="980" 
d="M507 -29q-227 0 -326 129.5t-99 395.5v76q0 265 99.5 394.5t327.5 129.5q383 0 400 -401h-203q-7 124 -56 180.5t-143 56.5q-115 0 -163.5 -86t-48.5 -268v-88q0 -182 48.5 -268.5t163.5 -86.5q94 0 143 57t56 180h203q-17 -401 -402 -401zM189 1210l207 234h217
l209 -234h-196l-121 128l-120 -128h-196z" />
    <glyph glyph-name="Cdotaccent" unicode="&#x10a;" horiz-adv-x="1228" 
d="M641 -29q-290 0 -417.5 170.5t-127.5 524.5v113q0 353 127.5 523.5t417.5 170.5q236 0 367.5 -125.5t147.5 -374.5h-212q-13 168 -94.5 244.5t-208.5 76.5q-178 0 -250.5 -115.5t-72.5 -357.5v-197q0 -242 72.5 -358t250.5 -116q127 0 208.5 77t94.5 244h212
q-16 -249 -147.5 -374.5t-367.5 -125.5zM539 1633v249h206v-249h-206z" />
    <glyph glyph-name="cdotaccent" unicode="&#x10b;" horiz-adv-x="980" 
d="M507 -29q-227 0 -326 129.5t-99 395.5v76q0 265 99.5 394.5t327.5 129.5q383 0 400 -401h-203q-7 124 -56 180.5t-143 56.5q-115 0 -163.5 -86t-48.5 -268v-88q0 -182 48.5 -268.5t163.5 -86.5q94 0 143 57t56 180h203q-17 -401 -402 -401zM406 1209v235h203v-235h-203z
" />
    <glyph glyph-name="Ccaron" unicode="&#x10c;" horiz-adv-x="1228" 
d="M641 -29q-290 0 -417.5 170.5t-127.5 524.5v113q0 353 127.5 523.5t417.5 170.5q236 0 367.5 -125.5t147.5 -374.5h-212q-13 168 -94.5 244.5t-208.5 76.5q-178 0 -250.5 -115.5t-72.5 -357.5v-197q0 -242 72.5 -358t250.5 -116q127 0 208.5 77t94.5 244h212
q-16 -249 -147.5 -374.5t-367.5 -125.5zM310 1882h209l123 -159l123 159h209l-207 -264h-251z" />
    <glyph glyph-name="ccaron" unicode="&#x10d;" horiz-adv-x="980" 
d="M507 -29q-227 0 -326 129.5t-99 395.5v76q0 265 99.5 394.5t327.5 129.5q383 0 400 -401h-203q-7 124 -56 180.5t-143 56.5q-115 0 -163.5 -86t-48.5 -268v-88q0 -182 48.5 -268.5t163.5 -86.5q94 0 143 57t56 180h203q-17 -401 -402 -401zM189 1444h196l120 -128
l121 128h196l-209 -234h-217z" />
    <glyph glyph-name="Dcaron" unicode="&#x10e;" horiz-adv-x="1239" 
d="M144 0v1444h394q315 0 462.5 -167.5t147.5 -531.5v-49q0 -362 -147.5 -529t-462.5 -167h-394zM355 178h170q145 0 231.5 47.5t128 157.5t41.5 297v82q0 187 -41.5 297t-128 158t-231.5 48h-170v-1087zM177 1900h209l123 -159l123 159h209l-207 -264h-251z" />
    <glyph glyph-name="dcaron" unicode="&#x10f;" horiz-adv-x="1073" 
d="M1069 1444h182l-52 -336h-130v336zM464 -29q-179 0 -281 127.5t-102 390.5v89q0 263 102 390.5t281 127.5q96 0 168.5 -43t107.5 -111v502h204v-1444h-204v125q-35 -68 -107.5 -111t-168.5 -43zM523 135q226 0 226 385v27q0 385 -226 385q-112 0 -168.5 -86t-56.5 -285
v-55q0 -199 56.5 -285t168.5 -86z" />
    <glyph glyph-name="Dcroat" unicode="&#x110;" horiz-adv-x="1256" 
d="M41 633v187h121v624h394q315 0 462 -167.5t147 -531.5v-49q0 -362 -147 -529t-462 -167h-394v633h-121zM373 178h170q216 0 308 112.5t92 389.5v82q0 277 -92 390t-308 113h-170v-445h312v-187h-312v-455z" />
    <glyph glyph-name="dcroat" unicode="&#x111;" horiz-adv-x="1073" 
d="M453 1185v148h287v111h204v-111h146v-148h-146v-1185h-204v125q-35 -68 -107.5 -111t-168.5 -43q-179 0 -281 127.5t-102 390.5v89q0 263 102 390.5t281 127.5q96 0 168.5 -43t107.5 -111v243h-287zM523 135q226 0 226 385v27q0 385 -226 385q-112 0 -168.5 -86
t-56.5 -285v-55q0 -199 56.5 -285t168.5 -86z" />
    <glyph glyph-name="Emacron" unicode="&#x112;" horiz-adv-x="1053" 
d="M144 0v1444h820v-183h-609v-438h537v-183h-537v-457h611v-183h-822zM285 1663v143h541v-143h-541z" />
    <glyph glyph-name="emacron" unicode="&#x113;" horiz-adv-x="1021" 
d="M518 -29q-236 0 -336.5 129.5t-100.5 396.5v76q0 263 106.5 393t331.5 130q122 0 205.5 -37.5t132 -117t69 -190.5t18.5 -269v-2h-652v-8q5 -172 58.5 -255t172.5 -83q93 0 144 49.5t60 139.5h204q-12 -162 -117 -257t-296 -95zM519 937q-112 0 -166 -67t-59 -227v-2h441
v3q-2 156 -57 224.5t-159 68.5zM248 1253v140h541v-140h-541z" />
    <glyph glyph-name="Ebreve" unicode="&#x114;" horiz-adv-x="1053" 
d="M144 0v1444h820v-183h-609v-438h537v-183h-537v-457h611v-183h-822zM555 1624q-121 0 -193 65t-83 193h155q10 -126 121 -126q112 0 122 126h155q-12 -128 -84 -193t-193 -65z" />
    <glyph glyph-name="ebreve" unicode="&#x115;" horiz-adv-x="1021" 
d="M518 -29q-236 0 -336.5 129.5t-100.5 396.5v76q0 263 106.5 393t331.5 130q122 0 205.5 -37.5t132 -117t69 -190.5t18.5 -269v-2h-652v-8q5 -172 58.5 -255t172.5 -83q93 0 144 49.5t60 139.5h204q-12 -162 -117 -257t-296 -95zM519 937q-112 0 -166 -67t-59 -227v-2h441
v3q-2 156 -57 224.5t-159 68.5zM519 1199q-255 0 -276 245h155q5 -59 35 -86t86 -27q57 0 87 27t35 86h155q-23 -245 -277 -245z" />
    <glyph glyph-name="Edotaccent" unicode="&#x116;" horiz-adv-x="1053" 
d="M144 0v1444h820v-183h-609v-438h537v-183h-537v-457h611v-183h-822zM452 1633v249h206v-249h-206z" />
    <glyph glyph-name="edotaccent" unicode="&#x117;" horiz-adv-x="1021" 
d="M518 -29q-236 0 -336.5 129.5t-100.5 396.5v76q0 263 106.5 393t331.5 130q122 0 205.5 -37.5t132 -117t69 -190.5t18.5 -269v-2h-652v-8q5 -172 58.5 -255t172.5 -83q93 0 144 49.5t60 139.5h204q-12 -162 -117 -257t-296 -95zM519 937q-112 0 -166 -67t-59 -227v-2h441
v3q-2 156 -57 224.5t-159 68.5zM417 1209v235h203v-235h-203z" />
    <glyph glyph-name="Eogonek" unicode="&#x118;" horiz-adv-x="1053" 
d="M144 0v1444h820v-183h-609v-438h537v-183h-537v-457h611v-183h-822zM805 1h159q-101 -65 -101 -142q0 -41 25 -63.5t65 -22.5q41 0 76 19l51 -113q-73 -49 -174 -49q-100 0 -159.5 48t-59.5 129q0 115 118 194z" />
    <glyph glyph-name="eogonek" unicode="&#x119;" horiz-adv-x="1021" 
d="M518 -29q-236 0 -336.5 129.5t-100.5 396.5v76q0 263 106.5 393t331.5 130q122 0 205.5 -37.5t132 -117t69 -190.5t18.5 -269v-2h-652v-8q5 -172 58.5 -255t172.5 -83q93 0 144 49.5t60 139.5h204q-12 -162 -117 -257t-296 -95zM519 937q-112 0 -166 -67t-59 -227v-2h441
v3q-2 156 -57 224.5t-159 68.5zM530 1h159q-101 -65 -101 -142q0 -41 25 -63.5t65 -22.5q41 0 76 19l51 -113q-73 -49 -174 -49q-100 0 -159.5 48t-59.5 129q0 115 118 194z" />
    <glyph glyph-name="Ecaron" unicode="&#x11a;" horiz-adv-x="1053" 
d="M144 0v1444h820v-183h-609v-438h537v-183h-537v-457h611v-183h-822zM223 1882h209l123 -159l123 159h209l-207 -264h-251z" />
    <glyph glyph-name="ecaron" unicode="&#x11b;" horiz-adv-x="1021" 
d="M518 -29q-236 0 -336.5 129.5t-100.5 396.5v76q0 263 106.5 393t331.5 130q122 0 205.5 -37.5t132 -117t69 -190.5t18.5 -269v-2h-652v-8q5 -172 58.5 -255t172.5 -83q93 0 144 49.5t60 139.5h204q-12 -162 -117 -257t-296 -95zM519 937q-112 0 -166 -67t-59 -227v-2h441
v3q-2 156 -57 224.5t-159 68.5zM200 1444h196l120 -128l121 128h196l-209 -234h-217z" />
    <glyph glyph-name="Gcircumflex" unicode="&#x11c;" horiz-adv-x="1283" 
d="M629 -29q-279 0 -405.5 170.5t-126.5 523.5v114q0 356 128 525t418 169q234 0 366.5 -120t148.5 -356h-212q-13 155 -94.5 226t-208.5 71q-178 0 -251 -114.5t-73 -358.5v-198q0 -242 75 -358t253 -116q147 0 230 87t83 245v115h-339v181h539v-778h-161l-5 159
q-51 -83 -142 -135t-223 -52zM309 1618l206 264h251l207 -264h-209l-123 159l-123 -159h-209z" />
    <glyph glyph-name="gcircumflex" unicode="&#x11d;" horiz-adv-x="1073" 
d="M459 43q-172 0 -274 125t-102 381v34q0 257 102 385t274 128q98 0 173.5 -42t109.5 -109v122h204v-1002q0 -225 -110.5 -321t-321.5 -96q-187 0 -285.5 84.5t-105.5 248.5h204q4 -95 50.5 -134.5t145.5 -39.5q55 0 92.5 10.5t67.5 38.5t44.5 80.5t14.5 132.5v124
q-34 -67 -109 -108.5t-174 -41.5zM524 205q226 0 226 346v32q0 176 -58.5 263t-167.5 87q-110 0 -167 -84t-57 -274v-17q0 -189 56.5 -271t167.5 -82zM211 1210l207 234h217l209 -234h-196l-121 128l-120 -128h-196z" />
    <glyph glyph-name="Gbreve" unicode="&#x11e;" horiz-adv-x="1283" 
d="M629 -29q-279 0 -405.5 170.5t-126.5 523.5v114q0 356 128 525t418 169q234 0 366.5 -120t148.5 -356h-212q-13 155 -94.5 226t-208.5 71q-178 0 -251 -114.5t-73 -358.5v-198q0 -242 75 -358t253 -116q147 0 230 87t83 245v115h-339v181h539v-778h-161l-5 159
q-51 -83 -142 -135t-223 -52zM640 1624q-121 0 -193 65t-83 193h155q10 -126 121 -126q112 0 122 126h155q-12 -128 -84 -193t-193 -65z" />
    <glyph glyph-name="gbreve" unicode="&#x11f;" horiz-adv-x="1073" 
d="M459 43q-172 0 -274 125t-102 381v34q0 257 102 385t274 128q98 0 173.5 -42t109.5 -109v122h204v-1002q0 -225 -110.5 -321t-321.5 -96q-187 0 -285.5 84.5t-105.5 248.5h204q4 -95 50.5 -134.5t145.5 -39.5q55 0 92.5 10.5t67.5 38.5t44.5 80.5t14.5 132.5v124
q-34 -67 -109 -108.5t-174 -41.5zM524 205q226 0 226 346v32q0 176 -58.5 263t-167.5 87q-110 0 -167 -84t-57 -274v-17q0 -189 56.5 -271t167.5 -82zM529 1199q-255 0 -276 245h155q5 -59 35 -86t86 -27q57 0 87 27t35 86h155q-23 -245 -277 -245z" />
    <glyph glyph-name="Gdotaccent" unicode="&#x120;" horiz-adv-x="1283" 
d="M629 -29q-279 0 -405.5 170.5t-126.5 523.5v114q0 356 128 525t418 169q234 0 366.5 -120t148.5 -356h-212q-13 155 -94.5 226t-208.5 71q-178 0 -251 -114.5t-73 -358.5v-198q0 -242 75 -358t253 -116q147 0 230 87t83 245v115h-339v181h539v-778h-161l-5 159
q-51 -83 -142 -135t-223 -52zM538 1633v249h206v-249h-206z" />
    <glyph glyph-name="gdotaccent" unicode="&#x121;" horiz-adv-x="1073" 
d="M459 43q-172 0 -274 125t-102 381v34q0 257 102 385t274 128q98 0 173.5 -42t109.5 -109v122h204v-1002q0 -225 -110.5 -321t-321.5 -96q-187 0 -285.5 84.5t-105.5 248.5h204q4 -95 50.5 -134.5t145.5 -39.5q55 0 92.5 10.5t67.5 38.5t44.5 80.5t14.5 132.5v124
q-34 -67 -109 -108.5t-174 -41.5zM524 205q226 0 226 346v32q0 176 -58.5 263t-167.5 87q-110 0 -167 -84t-57 -274v-17q0 -189 56.5 -271t167.5 -82zM428 1209v235h203v-235h-203z" />
    <glyph glyph-name="uni0122" unicode="&#x122;" horiz-adv-x="1283" 
d="M629 -29q-279 0 -405.5 170.5t-126.5 523.5v114q0 356 128 525t418 169q234 0 366.5 -120t148.5 -356h-212q-13 155 -94.5 226t-208.5 71q-178 0 -251 -114.5t-73 -358.5v-198q0 -242 75 -358t253 -116q147 0 230 87t83 245v115h-339v181h539v-778h-161l-5 159
q-51 -83 -142 -135t-223 -52zM370 -362l165 264h218l-186 -264h-197z" />
    <glyph glyph-name="uni0123" unicode="&#x123;" horiz-adv-x="1073" 
d="M459 43q-172 0 -274 125t-102 381v34q0 257 102 385t274 128q98 0 173.5 -42t109.5 -109v122h204v-1002q0 -225 -110.5 -321t-321.5 -96q-187 0 -285.5 84.5t-105.5 248.5h204q4 -95 50.5 -134.5t145.5 -39.5q55 0 92.5 10.5t67.5 38.5t44.5 80.5t14.5 132.5v124
q-34 -67 -109 -108.5t-174 -41.5zM524 205q226 0 226 346v32q0 176 -58.5 263t-167.5 87q-110 0 -167 -84t-57 -274v-17q0 -189 56.5 -271t167.5 -82zM390 1241l230 264h205l-201 -264h-234z" />
    <glyph glyph-name="Hcircumflex" unicode="&#x124;" horiz-adv-x="1271" 
d="M144 0v1444h211v-621h562v621h211v-1444h-211v640h-562v-640h-211zM305 1618l206 264h251l207 -264h-209l-123 159l-123 -159h-209z" />
    <glyph glyph-name="hcircumflex" unicode="&#x125;" 
d="M130 0v1444h203v-487q39 64 108.5 101.5t157.5 37.5q160 0 240.5 -97t80.5 -300v-699h-203v654q0 142 -47.5 209.5t-144.5 67.5t-144.5 -67.5t-47.5 -209.5v-654h-203zM-88 1587l207 234h217l209 -234h-196l-121 128l-120 -128h-196z" />
    <glyph glyph-name="Hbar" unicode="&#x126;" horiz-adv-x="1271" 
d="M144 0v1444h211v-621h562v621h211v-1444h-211v640h-562v-640h-211zM366 1663v143h541v-143h-541z" />
    <glyph glyph-name="hbar" unicode="&#x127;" 
d="M130 0v1185h-145v148h145v111h203v-111h288v-148h-288v-228q39 64 108.5 101.5t157.5 37.5q160 0 240.5 -97t80.5 -300v-699h-203v654q0 142 -47.5 209.5t-144.5 67.5t-144.5 -67.5t-47.5 -209.5v-654h-203z" />
    <glyph glyph-name="Itilde" unicode="&#x128;" horiz-adv-x="499" 
d="M144 0v1444h211v-1444h-211zM-66 1625q3 250 170 250q46 0 97 -25t95 -50t73 -25q34 0 49 24t18 76h132q-2 -127 -43.5 -188.5t-126.5 -61.5q-46 0 -97.5 25.5t-95 50.5t-72.5 25q-33 0 -48.5 -24.5t-18.5 -76.5h-132z" />
    <glyph glyph-name="itilde" unicode="&#x129;" horiz-adv-x="461" 
d="M130 0v1067h203v-1067h-203zM-81 1210q3 250 170 250q46 0 97 -25t95 -50t73 -25q34 0 49 24t18 76h132q-2 -127 -43.5 -188.5t-126.5 -61.5q-37 0 -77.5 16t-69.5 34.5t-62 34.5t-56 16q-33 0 -48.5 -24.5t-18.5 -76.5h-132z" />
    <glyph glyph-name="Imacron" unicode="&#x12a;" horiz-adv-x="499" 
d="M144 0v1444h211v-1444h-211zM-20 1663v143h541v-143h-541z" />
    <glyph glyph-name="imacron" unicode="&#x12b;" horiz-adv-x="461" 
d="M130 0v1067h203v-1067h-203zM-40 1253v140h541v-140h-541z" />
    <glyph glyph-name="Iogonek" unicode="&#x12e;" horiz-adv-x="499" 
d="M144 0v1444h211v-1444h-211zM177 1h159q-101 -65 -101 -142q0 -41 25 -63.5t65 -22.5q41 0 76 19l51 -113q-73 -49 -174 -49q-100 0 -159.5 48t-59.5 129q0 115 118 194z" />
    <glyph glyph-name="iogonek" unicode="&#x12f;" horiz-adv-x="461" 
d="M130 0v1067h203v-1067h-203zM130 1206v238h203v-238h-203zM157 1h159q-101 -65 -101 -142q0 -41 25 -63.5t65 -22.5q41 0 76 19l51 -113q-73 -49 -174 -49q-100 0 -159.5 48t-59.5 129q0 115 118 194z" />
    <glyph glyph-name="Idotaccent" unicode="&#x130;" horiz-adv-x="499" 
d="M144 0v1444h211v-1444h-211zM148 1633v249h206v-249h-206z" />
    <glyph glyph-name="dotlessi" unicode="&#x131;" horiz-adv-x="461" 
d="M130 0v1067h203v-1067h-203z" />
    <glyph glyph-name="IJ" unicode="&#x132;" horiz-adv-x="1534" 
d="M144 0v1444h211v-1444h-211zM979 -29q-183 0 -298 109.5t-115 311.5h209q0 -125 55.5 -186.5t149.5 -61.5t149.5 61.5t55.5 185.5v1053h211v-1053q0 -203 -116.5 -311.5t-300.5 -108.5z" />
    <glyph glyph-name="ij" unicode="&#x133;" horiz-adv-x="959" 
d="M130 0v1067h203v-1067h-203zM130 1206v238h203v-238h-203zM466 -333v169h35q82 0 104 21.5t22 98.5v1111h203v-1113q0 -88 -15 -143t-53 -87.5t-93.5 -44.5t-144.5 -12h-58zM627 1206v238h203v-238h-203z" />
    <glyph glyph-name="Jcircumflex" unicode="&#x134;" horiz-adv-x="994" 
d="M440 -29q-183 0 -298 109.5t-115 311.5h209q0 -125 55.5 -186.5t149.5 -61.5t149.5 61.5t55.5 185.5v1053h211v-1053q0 -203 -116.5 -311.5t-300.5 -108.5zM421 1618l206 264h251l207 -264h-209l-123 159l-123 -159h-209z" />
    <glyph glyph-name="jcircumflex" unicode="&#x135;" horiz-adv-x="461" 
d="M-31 -333v169h35q82 0 104 21.5t22 98.5v1111h203v-1113q0 -88 -15 -143t-53 -87.5t-93.5 -44.5t-144.5 -12h-58zM-88 1210l207 234h217l209 -234h-196l-121 128l-120 -128h-196z" />
    <glyph glyph-name="uni0136" unicode="&#x136;" horiz-adv-x="1126" 
d="M144 0v1444h211v-636l507 636h247l-566 -708l590 -736h-269l-509 636v-636h-211zM319 -362l165 264h218l-186 -264h-197z" />
    <glyph glyph-name="uni0137" unicode="&#x137;" horiz-adv-x="967" 
d="M130 0v1444h203v-820l385 443h238l-437 -499l460 -568h-259l-387 480v-480h-203zM251 -362l165 264h218l-186 -264h-197z" />
    <glyph glyph-name="kgreenlandic" unicode="&#x138;" horiz-adv-x="967" 
d="M130 0v1067h203v-441l384 441h239l-434 -503l457 -564h-257l-389 478v-478h-203z" />
    <glyph glyph-name="Lacute" unicode="&#x139;" horiz-adv-x="951" 
d="M144 0v1444h211v-1261h575v-183h-786zM100 1618l234 264h274l-289 -264h-219z" />
    <glyph glyph-name="lacute" unicode="&#x13a;" horiz-adv-x="461" 
d="M130 0v1444h203v-1444h-203zM111 1587l183 234h250l-227 -234h-206z" />
    <glyph glyph-name="uni013B" unicode="&#x13b;" horiz-adv-x="951" 
d="M144 0v1444h211v-1261h575v-183h-786zM263 -362l165 264h218l-186 -264h-197z" />
    <glyph glyph-name="uni013C" unicode="&#x13c;" horiz-adv-x="461" 
d="M130 0v1444h203v-1444h-203zM-44 -362l165 264h218l-186 -264h-197z" />
    <glyph glyph-name="Lcaron" unicode="&#x13d;" horiz-adv-x="951" 
d="M144 0v1444h211v-1261h575v-183h-786zM567 1649h182l-53 -336h-129v336z" />
    <glyph glyph-name="lcaron" unicode="&#x13e;" horiz-adv-x="461" 
d="M457 1444h182l-52 -336h-130v336zM130 0v1444h203v-1444h-203z" />
    <glyph glyph-name="Ldot" unicode="&#x13f;" horiz-adv-x="960" 
d="M144 0v1444h211v-1261h575v-183h-786zM831 663h-210v255h210v-255z" />
    <glyph glyph-name="ldot" unicode="&#x140;" horiz-adv-x="658" 
d="M130 0v1444h203v-1444h-203zM669 626h-210v255h210v-255z" />
    <glyph glyph-name="Lslash" unicode="&#x141;" horiz-adv-x="1045" 
d="M236 0v584l-171 -108v187l171 108v673h211v-541l319 201v-187l-319 -201v-533h575v-183h-786z" />
    <glyph glyph-name="lslash" unicode="&#x142;" horiz-adv-x="654" 
d="M233 0v622l-182 -107v187l182 107v635h204v-516l181 106v-187l-181 -106v-741h-204z" />
    <glyph glyph-name="Nacute" unicode="&#x143;" horiz-adv-x="1290" 
d="M144 0v1444h300l504 -1227h5l-10 455v772h203v-1444h-301l-503 1226h-5l10 -455v-771h-203zM536 1618l234 264h274l-289 -264h-219z" />
    <glyph glyph-name="nacute" unicode="&#x144;" 
d="M130 0v1067h203v-110q39 64 108.5 101.5t157.5 37.5q160 0 240.5 -97t80.5 -300v-699h-203v654q0 142 -47.5 209.5t-144.5 67.5t-144.5 -67.5t-47.5 -209.5v-654h-203zM405 1210l183 234h250l-227 -234h-206z" />
    <glyph glyph-name="uni0145" unicode="&#x145;" horiz-adv-x="1290" 
d="M144 0v1444h300l504 -1227h5l-10 455v772h203v-1444h-301l-503 1226h-5l10 -455v-771h-203zM367 -362l165 264h218l-186 -264h-197z" />
    <glyph glyph-name="uni0146" unicode="&#x146;" 
d="M130 0v1067h203v-110q39 64 108.5 101.5t157.5 37.5q160 0 240.5 -97t80.5 -300v-699h-203v654q0 142 -47.5 209.5t-144.5 67.5t-144.5 -67.5t-47.5 -209.5v-654h-203zM250 -472l165 264h218l-186 -264h-197z" />
    <glyph glyph-name="Ncaron" unicode="&#x147;" horiz-adv-x="1290" 
d="M144 0v1444h300l504 -1227h5l-10 455v772h203v-1444h-301l-503 1226h-5l10 -455v-771h-203zM355 1882h209l123 -159l123 159h209l-207 -264h-251z" />
    <glyph glyph-name="ncaron" unicode="&#x148;" 
d="M130 0v1067h203v-110q39 64 108.5 101.5t157.5 37.5q160 0 240.5 -97t80.5 -300v-699h-203v654q0 142 -47.5 209.5t-144.5 67.5t-144.5 -67.5t-47.5 -209.5v-654h-203zM207 1444h196l120 -128l121 128h196l-209 -234h-217z" />
    <glyph glyph-name="napostrophe" unicode="&#x149;" 
d="M130 0v1067h203v-110q39 64 108.5 101.5t157.5 37.5q160 0 240.5 -97t80.5 -300v-699h-203v654q0 142 -47.5 209.5t-144.5 67.5t-144.5 -67.5t-47.5 -209.5v-654h-203zM365 1444l-105 -336h-210l138 336h177z" />
    <glyph glyph-name="Omacron" unicode="&#x14c;" horiz-adv-x="1307" 
d="M654 -29q-291 0 -425 170.5t-134 529.5v103q0 358 134 528.5t425 170.5q290 0 424 -170.5t134 -528.5v-103q0 -358 -134 -529t-424 -171zM654 150q176 0 256 123t80 368v163q0 245 -79.5 367.5t-256.5 122.5t-257 -122.5t-80 -367.5v-163q0 -245 80 -368t257 -123z
M384 1663v143h541v-143h-541z" />
    <glyph glyph-name="omacron" unicode="&#x14d;" horiz-adv-x="1038" 
d="M518 -29q-232 0 -334.5 131.5t-102.5 393.5v76q0 261 102.5 392.5t334.5 131.5q233 0 336 -131t103 -393v-76q0 -262 -103 -393.5t-336 -131.5zM518 135q125 0 175.5 88.5t50.5 269.5v82q0 181 -50.5 269t-175.5 88q-123 0 -173.5 -88t-50.5 -269v-82q0 -181 50.5 -269.5
t173.5 -88.5zM248 1253v140h541v-140h-541z" />
    <glyph glyph-name="Obreve" unicode="&#x14e;" horiz-adv-x="1307" 
d="M654 -29q-291 0 -425 170.5t-134 529.5v103q0 358 134 528.5t425 170.5q290 0 424 -170.5t134 -528.5v-103q0 -358 -134 -529t-424 -171zM654 150q176 0 256 123t80 368v163q0 245 -79.5 367.5t-256.5 122.5t-257 -122.5t-80 -367.5v-163q0 -245 80 -368t257 -123z
M654 1624q-121 0 -193 65t-83 193h155q10 -126 121 -126q112 0 122 126h155q-12 -128 -84 -193t-193 -65z" />
    <glyph glyph-name="obreve" unicode="&#x14f;" horiz-adv-x="1038" 
d="M518 -29q-232 0 -334.5 131.5t-102.5 393.5v76q0 261 102.5 392.5t334.5 131.5q233 0 336 -131t103 -393v-76q0 -262 -103 -393.5t-336 -131.5zM518 135q125 0 175.5 88.5t50.5 269.5v82q0 181 -50.5 269t-175.5 88q-123 0 -173.5 -88t-50.5 -269v-82q0 -181 50.5 -269.5
t173.5 -88.5zM519 1199q-255 0 -276 245h155q5 -59 35 -86t86 -27q57 0 87 27t35 86h155q-23 -245 -277 -245z" />
    <glyph glyph-name="Ohungarumlaut" unicode="&#x150;" horiz-adv-x="1307" 
d="M654 -29q-291 0 -425 170.5t-134 529.5v103q0 358 134 528.5t425 170.5q290 0 424 -170.5t134 -528.5v-103q0 -358 -134 -529t-424 -171zM654 150q176 0 256 123t80 368v163q0 245 -79.5 367.5t-256.5 122.5t-257 -122.5t-80 -367.5v-163q0 -245 80 -368t257 -123z
M333 1618l234 264h274l-289 -264h-219zM748 1618l233 264h275l-290 -264h-218z" />
    <glyph glyph-name="ohungarumlaut" unicode="&#x151;" horiz-adv-x="1038" 
d="M518 -29q-232 0 -334.5 131.5t-102.5 393.5v76q0 261 102.5 392.5t334.5 131.5q233 0 336 -131t103 -393v-76q0 -262 -103 -393.5t-336 -131.5zM518 135q125 0 175.5 88.5t50.5 269.5v82q0 181 -50.5 269t-175.5 88q-123 0 -173.5 -88t-50.5 -269v-82q0 -181 50.5 -269.5
t173.5 -88.5zM225 1210l198 234h249l-248 -234h-199zM635 1210l198 234h249l-248 -234h-199z" />
    <glyph glyph-name="OE" unicode="&#x152;" horiz-adv-x="1913" 
d="M654 -29q-291 0 -425 170.5t-134 529.5v103q0 358 134 528.5t425 170.5q216 0 350 -102v73h820v-184h-609v-437h537v-183h-537v-457h611v-183h-822v73q-134 -102 -350 -102zM654 150q176 0 256 123t80 368v163q0 244 -80 367t-256 123q-177 0 -257 -122.5t-80 -367.5
v-163q0 -245 80 -368t257 -123z" />
    <glyph glyph-name="oe" unicode="&#x153;" horiz-adv-x="1687" 
d="M518 -29q-232 0 -334.5 131.5t-102.5 393.5v75q0 263 102.5 394t334.5 131q226 0 335 -130q109 130 331 130q122 0 205.5 -37.5t132 -117t69 -190.5t18.5 -269v-2h-651v-8q4 -171 57.5 -254t172.5 -83q93 0 144 49t60 139h204q-12 -162 -117 -257t-296 -95
q-228 0 -334 127q-110 -127 -331 -127zM518 135q124 0 175 88.5t51 269.5v81q0 182 -51 270.5t-175 88.5q-123 0 -173.5 -88.5t-50.5 -270.5v-81q0 -181 50.5 -269.5t173.5 -88.5zM1184 937q-108 0 -163.5 -72.5t-61.5 -221.5v-2h441v3q-2 156 -57 224.5t-159 68.5z" />
    <glyph glyph-name="Racute" unicode="&#x154;" horiz-adv-x="1171" 
d="M144 0v1444h409q249 0 378 -88t129 -282v-16q0 -139 -58.5 -217t-167.5 -123q57 -18 91.5 -47.5t59.5 -94t36 -172.5l12 -124q4 -42 8 -77.5t7.5 -60t7 -46t5.5 -33t5.5 -24t4.5 -16.5t4 -12.5t4 -10.5h-216q-17 45 -28 139l-23 226q-8 80 -23 127t-46.5 73.5t-73 35
t-112.5 8.5h-202v-609h-211zM355 788h197q155 0 221 53.5t66 179.5v15q0 126 -65.5 177.5t-221.5 51.5h-197v-477zM389 1618l234 264h274l-289 -264h-219z" />
    <glyph glyph-name="racute" unicode="&#x155;" horiz-adv-x="667" 
d="M130 0v1067h201v-183q38 87 114 140t178 53h13v-206h-32q-271 0 -271 -273v-598h-203zM263 1210l183 234h250l-227 -234h-206z" />
    <glyph glyph-name="uni0156" unicode="&#x156;" horiz-adv-x="1171" 
d="M144 0v1444h409q249 0 378 -88t129 -282v-16q0 -139 -58.5 -217t-167.5 -123q57 -18 91.5 -47.5t59.5 -94t36 -172.5l12 -124q4 -42 8 -77.5t7.5 -60t7 -46t5.5 -33t5.5 -24t4.5 -16.5t4 -12.5t4 -10.5h-216q-17 45 -28 139l-23 226q-8 80 -23 127t-46.5 73.5t-73 35
t-112.5 8.5h-202v-609h-211zM355 788h197q155 0 221 53.5t66 179.5v15q0 126 -65.5 177.5t-221.5 51.5h-197v-477zM321 -362l165 264h218l-186 -264h-197z" />
    <glyph glyph-name="uni0157" unicode="&#x157;" horiz-adv-x="667" 
d="M130 0v1067h201v-183q38 87 114 140t178 53h13v-206h-32q-271 0 -271 -273v-598h-203zM-44 -362l165 264h218l-186 -264h-197z" />
    <glyph glyph-name="Rcaron" unicode="&#x158;" horiz-adv-x="1171" 
d="M144 0v1444h409q249 0 378 -88t129 -282v-16q0 -139 -58.5 -217t-167.5 -123q57 -18 91.5 -47.5t59.5 -94t36 -172.5l12 -124q4 -42 8 -77.5t7.5 -60t7 -46t5.5 -33t5.5 -24t4.5 -16.5t4 -12.5t4 -10.5h-216q-17 45 -28 139l-23 226q-8 80 -23 127t-46.5 73.5t-73 35
t-112.5 8.5h-202v-609h-211zM355 788h197q155 0 221 53.5t66 179.5v15q0 126 -65.5 177.5t-221.5 51.5h-197v-477zM207 1882h209l123 -159l123 159h209l-207 -264h-251z" />
    <glyph glyph-name="rcaron" unicode="&#x159;" horiz-adv-x="667" 
d="M130 0v1067h201v-183q38 87 114 140t178 53h13v-206h-32q-271 0 -271 -273v-598h-203zM65 1444h196l120 -128l121 128h196l-209 -234h-217z" />
    <glyph glyph-name="Sacute" unicode="&#x15a;" horiz-adv-x="1130" 
d="M578 -29q-238 0 -365 118.5t-135 339.5h212q15 -283 287 -283q58 0 103 9.5t85 32t61.5 67t21.5 108.5v4q0 101 -58 155.5t-174 91.5l-185 62q-163 52 -248.5 148t-85.5 261v10q0 173 126 275.5t328 102.5q215 0 335.5 -103t129.5 -319h-212q-5 73 -26.5 123t-58 76.5
t-78.5 37t-97 10.5q-68 0 -118.5 -17t-84.5 -62t-34 -116v-7q0 -87 49 -141.5t147 -85.5l186 -60q70 -23 123.5 -48t101.5 -60.5t79 -79t48.5 -103t17.5 -131.5v-6q0 -196 -129 -303t-352 -107zM403 1618l234 264h274l-289 -264h-219z" />
    <glyph glyph-name="sacute" unicode="&#x15b;" horiz-adv-x="918" 
d="M471 -29q-193 0 -295.5 92t-107.5 277h203q4 -116 56 -167t149 -51q84 0 132 37.5t48 104.5v5q0 66 -37 99t-119 61l-165 61q-123 43 -186 113.5t-63 192.5v4q0 140 102.5 218t259.5 78q363 0 374 -338h-203q-5 106 -48.5 146.5t-126.5 40.5q-72 0 -115.5 -34.5
t-43.5 -100.5v-3q0 -56 31 -90t96 -56l165 -61q53 -18 91.5 -35.5t75.5 -43.5t60 -56.5t37 -73.5t14 -97v-8q0 -153 -106 -234t-278 -81zM326 1210l183 234h250l-227 -234h-206z" />
    <glyph glyph-name="Scircumflex" unicode="&#x15c;" horiz-adv-x="1130" 
d="M578 -29q-238 0 -365 118.5t-135 339.5h212q15 -283 287 -283q58 0 103 9.5t85 32t61.5 67t21.5 108.5v4q0 101 -58 155.5t-174 91.5l-185 62q-163 52 -248.5 148t-85.5 261v10q0 173 126 275.5t328 102.5q215 0 335.5 -103t129.5 -319h-212q-5 73 -26.5 123t-58 76.5
t-78.5 37t-97 10.5q-68 0 -118.5 -17t-84.5 -62t-34 -116v-7q0 -87 49 -141.5t147 -85.5l186 -60q70 -23 123.5 -48t101.5 -60.5t79 -79t48.5 -103t17.5 -131.5v-6q0 -196 -129 -303t-352 -107zM221 1618l206 264h251l207 -264h-209l-123 159l-123 -159h-209z" />
    <glyph glyph-name="scircumflex" unicode="&#x15d;" horiz-adv-x="918" 
d="M471 -29q-193 0 -295.5 92t-107.5 277h203q4 -116 56 -167t149 -51q84 0 132 37.5t48 104.5v5q0 66 -37 99t-119 61l-165 61q-123 43 -186 113.5t-63 192.5v4q0 140 102.5 218t259.5 78q363 0 374 -338h-203q-5 106 -48.5 146.5t-126.5 40.5q-72 0 -115.5 -34.5
t-43.5 -100.5v-3q0 -56 31 -90t96 -56l165 -61q53 -18 91.5 -35.5t75.5 -43.5t60 -56.5t37 -73.5t14 -97v-8q0 -153 -106 -234t-278 -81zM128 1210l207 234h217l209 -234h-196l-121 128l-120 -128h-196z" />
    <glyph glyph-name="Scedilla" unicode="&#x15e;" horiz-adv-x="1130" 
d="M578 -29q-238 0 -365 118.5t-135 339.5h212q15 -283 287 -283q58 0 103 9.5t85 32t61.5 67t21.5 108.5v4q0 101 -58 155.5t-174 91.5l-185 62q-163 52 -248.5 148t-85.5 261v10q0 173 126 275.5t328 102.5q215 0 335.5 -103t129.5 -319h-212q-5 73 -26.5 123t-58 76.5
t-78.5 37t-97 10.5q-68 0 -118.5 -17t-84.5 -62t-34 -116v-7q0 -87 49 -141.5t147 -85.5l186 -60q70 -23 123.5 -48t101.5 -60.5t79 -79t48.5 -103t17.5 -131.5v-6q0 -196 -129 -303t-352 -107zM542 -417q-102 0 -182 45l49 94q65 -37 124 -37q38 0 62.5 15t24.5 45
q0 28 -21 42.5t-49 14.5q-42 0 -74 -23l-58 45l126 212h103l-93 -156q26 6 54 6q62 0 104 -33.5t42 -98.5q0 -79 -59.5 -125t-152.5 -46z" />
    <glyph glyph-name="scedilla" unicode="&#x15f;" horiz-adv-x="918" 
d="M471 -29q-193 0 -295.5 92t-107.5 277h203q4 -116 56 -167t149 -51q84 0 132 37.5t48 104.5v5q0 66 -37 99t-119 61l-165 61q-123 43 -186 113.5t-63 192.5v4q0 140 102.5 218t259.5 78q363 0 374 -338h-203q-5 106 -48.5 146.5t-126.5 40.5q-72 0 -115.5 -34.5
t-43.5 -100.5v-3q0 -56 31 -90t96 -56l165 -61q53 -18 91.5 -35.5t75.5 -43.5t60 -56.5t37 -73.5t14 -97v-8q0 -153 -106 -234t-278 -81zM432 -417q-102 0 -182 45l49 94q65 -37 124 -37q38 0 62.5 15t24.5 45q0 28 -21 42.5t-49 14.5q-42 0 -74 -23l-58 45l126 212h103
l-93 -156q26 6 54 6q62 0 104 -33.5t42 -98.5q0 -79 -59.5 -125t-152.5 -46z" />
    <glyph glyph-name="Scaron" unicode="&#x160;" horiz-adv-x="1130" 
d="M578 -29q-238 0 -365 118.5t-135 339.5h212q15 -283 287 -283q58 0 103 9.5t85 32t61.5 67t21.5 108.5v4q0 101 -58 155.5t-174 91.5l-185 62q-163 52 -248.5 148t-85.5 261v10q0 173 126 275.5t328 102.5q215 0 335.5 -103t129.5 -319h-212q-5 73 -26.5 123t-58 76.5
t-78.5 37t-97 10.5q-68 0 -118.5 -17t-84.5 -62t-34 -116v-7q0 -87 49 -141.5t147 -85.5l186 -60q70 -23 123.5 -48t101.5 -60.5t79 -79t48.5 -103t17.5 -131.5v-6q0 -196 -129 -303t-352 -107zM221 1882h209l123 -159l123 159h209l-207 -264h-251z" />
    <glyph glyph-name="scaron" unicode="&#x161;" horiz-adv-x="918" 
d="M471 -29q-193 0 -295.5 92t-107.5 277h203q4 -116 56 -167t149 -51q84 0 132 37.5t48 104.5v5q0 66 -37 99t-119 61l-165 61q-123 43 -186 113.5t-63 192.5v4q0 140 102.5 218t259.5 78q363 0 374 -338h-203q-5 106 -48.5 146.5t-126.5 40.5q-72 0 -115.5 -34.5
t-43.5 -100.5v-3q0 -56 31 -90t96 -56l165 -61q53 -18 91.5 -35.5t75.5 -43.5t60 -56.5t37 -73.5t14 -97v-8q0 -153 -106 -234t-278 -81zM128 1444h196l120 -128l121 128h196l-209 -234h-217z" />
    <glyph glyph-name="uni0162" unicode="&#x162;" horiz-adv-x="1066" 
d="M428 0v1260h-404v184h1020v-184h-405v-1260h-211zM500 -417q-102 0 -182 45l49 94q65 -37 124 -37q38 0 62.5 15t24.5 45q0 28 -21 42.5t-49 14.5q-42 0 -74 -23l-58 45l126 212h103l-93 -156q26 6 54 6q62 0 104 -33.5t42 -98.5q0 -79 -59.5 -125t-152.5 -46z" />
    <glyph glyph-name="uni0163" unicode="&#x163;" horiz-adv-x="645" 
d="M460 0q-88 0 -140.5 12t-85 45.5t-43.5 85t-11 138.5v617h-143v169h143v317h203v-317h191v-169h-191v-615q0 -38 3 -56.5t16.5 -33.5t38.5 -19.5t70 -4.5h61v-169h-112zM349 -417q-102 0 -182 45l49 94q65 -37 124 -37q38 0 62.5 15t24.5 45q0 28 -21 42.5t-49 14.5
q-42 0 -74 -23l-58 45l126 212h103l-93 -156q25 6 54 6q62 0 104 -33.5t42 -98.5q0 -79 -59.5 -125t-152.5 -46z" />
    <glyph glyph-name="Tcaron" unicode="&#x164;" horiz-adv-x="1066" 
d="M428 0v1260h-404v184h1020v-184h-405v-1260h-211zM202 1882h209l123 -159l123 159h209l-207 -264h-251z" />
    <glyph glyph-name="tcaron" unicode="&#x165;" horiz-adv-x="645" 
d="M460 0q-88 0 -140.5 12t-85 45.5t-43.5 85t-11 138.5v617h-143v169h143v317h203v-317h191v-169h-191v-615q0 -38 3 -56.5t16.5 -33.5t38.5 -19.5t70 -4.5h61v-169h-112zM507 1649h182l-53 -336h-129v336z" />
    <glyph glyph-name="Tbar" unicode="&#x166;" horiz-adv-x="1066" 
d="M428 0v686h-258v168h258v406h-404v184h1020v-184h-405v-406h258v-168h-258v-686h-211z" />
    <glyph glyph-name="tbar" unicode="&#x167;" horiz-adv-x="651" 
d="M460 0q-88 0 -140.5 12t-85 45.5t-43.5 85t-11 138.5v242h-143v163h143v212h-143v169h143v317h203v-317h191v-169h-191v-212h197v-163h-197v-240q0 -38 3 -56.5t16.5 -33.5t38.5 -19.5t70 -4.5h61v-169h-112z" />
    <glyph glyph-name="Utilde" unicode="&#x168;" horiz-adv-x="1253" 
d="M627 -29q-247 0 -369.5 126.5t-122.5 395.5v951h211v-946q0 -175 68.5 -260t212.5 -85q145 0 213 85t68 260v946h211v-951q0 -269 -122.5 -395.5t-369.5 -126.5zM311 1625q3 250 170 250q46 0 97 -25t95 -50t73 -25q34 0 49 24t18 76h132q-2 -127 -43.5 -188.5
t-126.5 -61.5q-46 0 -97.5 25.5t-95 50.5t-72.5 25q-33 0 -48.5 -24.5t-18.5 -76.5h-132z" />
    <glyph glyph-name="utilde" unicode="&#x169;" 
d="M442 -29q-160 0 -240.5 97t-80.5 300v699h203v-654q0 -142 47 -209.5t144 -67.5q98 0 145.5 67.5t47.5 209.5v654h203v-1067h-203v110q-39 -64 -108.5 -101.5t-157.5 -37.5zM204 1210q3 250 170 250q46 0 97 -25t95 -50t73 -25q34 0 49 24t18 76h132
q-2 -127 -43.5 -188.5t-126.5 -61.5q-37 0 -77.5 16t-69.5 34.5t-62 34.5t-56 16q-33 0 -48.5 -24.5t-18.5 -76.5h-132z" />
    <glyph glyph-name="Umacron" unicode="&#x16a;" horiz-adv-x="1253" 
d="M627 -29q-247 0 -369.5 126.5t-122.5 395.5v951h211v-946q0 -175 68.5 -260t212.5 -85q145 0 213 85t68 260v946h211v-951q0 -269 -122.5 -395.5t-369.5 -126.5zM357 1663v143h541v-143h-541z" />
    <glyph glyph-name="umacron" unicode="&#x16b;" 
d="M442 -29q-160 0 -240.5 97t-80.5 300v699h203v-654q0 -142 47 -209.5t144 -67.5q98 0 145.5 67.5t47.5 209.5v654h203v-1067h-203v110q-39 -64 -108.5 -101.5t-157.5 -37.5zM246 1253v140h541v-140h-541z" />
    <glyph glyph-name="Ubreve" unicode="&#x16c;" horiz-adv-x="1253" 
d="M627 -29q-247 0 -369.5 126.5t-122.5 395.5v951h211v-946q0 -175 68.5 -260t212.5 -85q145 0 213 85t68 260v946h211v-951q0 -269 -122.5 -395.5t-369.5 -126.5zM627 1624q-121 0 -193 65t-83 193h155q10 -126 121 -126q112 0 122 126h155q-12 -128 -84 -193t-193 -65z
" />
    <glyph glyph-name="ubreve" unicode="&#x16d;" 
d="M442 -29q-160 0 -240.5 97t-80.5 300v699h203v-654q0 -142 47 -209.5t144 -67.5q98 0 145.5 67.5t47.5 209.5v654h203v-1067h-203v110q-39 -64 -108.5 -101.5t-157.5 -37.5zM516 1199q-255 0 -276 245h155q5 -59 35 -86t86 -27q57 0 87 27t35 86h155q-23 -245 -277 -245z
" />
    <glyph glyph-name="Uring" unicode="&#x16e;" horiz-adv-x="1253" 
d="M627 -29q-247 0 -369.5 126.5t-122.5 395.5v951h211v-946q0 -175 68.5 -260t212.5 -85q145 0 213 85t68 260v946h211v-951q0 -269 -122.5 -395.5t-369.5 -126.5zM628 1549q-95 0 -162.5 63.5t-67.5 158.5t67.5 158t162.5 63q94 0 161.5 -63t67.5 -158t-67.5 -158.5
t-161.5 -63.5zM628 1652q51 0 83 33t32 86q0 52 -32 85t-83 33q-52 0 -84 -32.5t-32 -85.5t32 -86t84 -33z" />
    <glyph glyph-name="uring" unicode="&#x16f;" 
d="M442 -29q-160 0 -240.5 97t-80.5 300v699h203v-654q0 -142 47 -209.5t144 -67.5q98 0 145.5 67.5t47.5 209.5v654h203v-1067h-203v110q-39 -64 -108.5 -101.5t-157.5 -37.5zM518 1175q-95 0 -162.5 63t-67.5 158t67.5 158t162.5 63q94 0 161.5 -63t67.5 -158t-67.5 -158
t-161.5 -63zM518 1277q51 0 83 33t32 86q0 52 -32 85t-83 33q-52 0 -84 -32.5t-32 -85.5t32 -86t84 -33z" />
    <glyph glyph-name="Uhungarumlaut" unicode="&#x170;" horiz-adv-x="1253" 
d="M627 -29q-247 0 -369.5 126.5t-122.5 395.5v951h211v-946q0 -175 68.5 -260t212.5 -85q145 0 213 85t68 260v946h211v-951q0 -269 -122.5 -395.5t-369.5 -126.5zM306 1618l234 264h274l-289 -264h-219zM721 1618l233 264h275l-290 -264h-218z" />
    <glyph glyph-name="uhungarumlaut" unicode="&#x171;" 
d="M442 -29q-160 0 -240.5 97t-80.5 300v699h203v-654q0 -142 47 -209.5t144 -67.5q98 0 145.5 67.5t47.5 209.5v654h203v-1067h-203v110q-39 -64 -108.5 -101.5t-157.5 -37.5zM223 1210l198 234h249l-248 -234h-199zM633 1210l198 234h249l-248 -234h-199z" />
    <glyph glyph-name="Uogonek" unicode="&#x172;" horiz-adv-x="1253" 
d="M627 -29q-247 0 -369.5 126.5t-122.5 395.5v951h211v-946q0 -175 68.5 -260t212.5 -85q145 0 213 85t68 260v946h211v-951q0 -269 -122.5 -395.5t-369.5 -126.5zM554 1h159q-101 -65 -101 -142q0 -41 25 -63.5t65 -22.5q41 0 76 19l51 -113q-73 -49 -174 -49
q-100 0 -159.5 48t-59.5 129q0 115 118 194z" />
    <glyph glyph-name="uogonek" unicode="&#x173;" 
d="M442 -29q-160 0 -240.5 97t-80.5 300v699h203v-654q0 -142 47 -209.5t144 -67.5q98 0 145.5 67.5t47.5 209.5v654h203v-1067h-203v110q-39 -64 -108.5 -101.5t-157.5 -37.5zM738 1h159q-101 -65 -101 -142q0 -41 25 -63.5t65 -22.5q41 0 76 19l51 -113q-73 -49 -174 -49
q-100 0 -159.5 48t-59.5 129q0 115 118 194z" />
    <glyph glyph-name="Wcircumflex" unicode="&#x174;" horiz-adv-x="1669" 
d="M316 0l-268 1444h211l211 -1239h3l213 1239h296l215 -1243h4l211 1243h208l-267 -1444h-298l-218 1254h-5l-218 -1254h-298zM503 1618l206 264h251l207 -264h-209l-123 159l-123 -159h-209z" />
    <glyph glyph-name="wcircumflex" unicode="&#x175;" horiz-adv-x="1490" 
d="M284 0l-247 1067h207l184 -885h5l190 885h244l195 -885h3l186 885h203l-247 -1067h-265l-197 874h-4l-193 -874h-264zM427 1210l207 234h217l209 -234h-196l-121 128l-120 -128h-196z" />
    <glyph glyph-name="Ycircumflex" unicode="&#x176;" horiz-adv-x="1174" 
d="M482 0v525l-467 919h226l277 -562l72 -148h2l71 149l275 561h221l-466 -919v-525h-211zM257 1618l206 264h251l207 -264h-209l-123 159l-123 -159h-209z" />
    <glyph glyph-name="ycircumflex" unicode="&#x177;" horiz-adv-x="1009" 
d="M141 -333v169h60q84 0 112 20.5t57 100.5l17 45l-365 1065h211l266 -810l296 810h203l-424 -1118q-25 -65 -41.5 -102.5t-39 -73.5t-44 -53t-55 -31t-72.5 -18t-97 -4h-84zM206 1210l207 234h217l209 -234h-196l-121 128l-120 -128h-196z" />
    <glyph glyph-name="Ydieresis" unicode="&#x178;" horiz-adv-x="1174" 
d="M482 0v525l-467 919h226l277 -562l72 -148h2l71 149l275 561h221l-466 -919v-525h-211zM258 1633v249h206v-249h-206zM714 1633v249h206v-249h-206z" />
    <glyph glyph-name="Zacute" unicode="&#x179;" horiz-adv-x="1044" 
d="M57 0v180l671 1081h-641v183h877v-180l-672 -1081h691v-183h-926zM398 1618l234 264h274l-289 -264h-219z" />
    <glyph glyph-name="zacute" unicode="&#x17a;" horiz-adv-x="890" 
d="M62 0v161l516 737h-492v169h725v-161l-518 -737h532v-169h-763zM341 1210l183 234h250l-227 -234h-206z" />
    <glyph glyph-name="Zdotaccent" unicode="&#x17b;" horiz-adv-x="1044" 
d="M57 0v180l671 1081h-641v183h877v-180l-672 -1081h691v-183h-926zM445 1633v249h206v-249h-206z" />
    <glyph glyph-name="zdotaccent" unicode="&#x17c;" horiz-adv-x="890" 
d="M62 0v161l516 737h-492v169h725v-161l-518 -737h532v-169h-763zM359 1209v235h203v-235h-203z" />
    <glyph glyph-name="Zcaron" unicode="&#x17d;" horiz-adv-x="1044" 
d="M57 0v180l671 1081h-641v183h877v-180l-672 -1081h691v-183h-926zM216 1882h209l123 -159l123 159h209l-207 -264h-251z" />
    <glyph glyph-name="zcaron" unicode="&#x17e;" horiz-adv-x="890" 
d="M62 0v161l516 737h-492v169h725v-161l-518 -737h532v-169h-763zM143 1444h196l120 -128l121 128h196l-209 -234h-217z" />
    <glyph glyph-name="uni01C5" unicode="&#x1c5;" horiz-adv-x="2107" 
d="M144 0v1444h394q315 0 462.5 -167.5t147.5 -531.5v-49q0 -362 -147.5 -529t-462.5 -167h-394zM355 178h170q145 0 231.5 47.5t128 157.5t41.5 297v82q0 187 -41.5 297t-128 158t-231.5 48h-170v-1087zM1278 0v161l516 737h-492v169h725v-161l-518 -737h532v-169h-763z
M1359 1444h196l120 -128l121 128h196l-209 -234h-217z" />
    <glyph glyph-name="uni01C6" unicode="&#x1c6;" horiz-adv-x="1963" 
d="M464 -29q-179 0 -281 127.5t-102 390.5v89q0 263 102 390.5t281 127.5q96 0 168.5 -43t107.5 -111v502h204v-1444h-204v125q-35 -68 -107.5 -111t-168.5 -43zM523 135q226 0 226 385v27q0 385 -226 385q-112 0 -168.5 -86t-56.5 -285v-55q0 -199 56.5 -285t168.5 -86z
M1135 0v161l516 737h-492v169h725v-161l-518 -737h532v-169h-763zM1215 1444h196l120 -128l121 128h196l-209 -234h-217z" />
    <glyph glyph-name="uni01F2" unicode="&#x1f2;" horiz-adv-x="2107" 
d="M144 0v1444h394q315 0 462.5 -167.5t147.5 -531.5v-49q0 -362 -147.5 -529t-462.5 -167h-394zM355 178h170q145 0 231.5 47.5t128 157.5t41.5 297v82q0 187 -41.5 297t-128 158t-231.5 48h-170v-1087zM1278 0v161l516 737h-492v169h725v-161l-518 -737h532v-169h-763z
" />
    <glyph glyph-name="uni01F3" unicode="&#x1f3;" horiz-adv-x="1963" 
d="M464 -29q-179 0 -281 127.5t-102 390.5v89q0 263 102 390.5t281 127.5q96 0 168.5 -43t107.5 -111v502h204v-1444h-204v125q-35 -68 -107.5 -111t-168.5 -43zM523 135q226 0 226 385v27q0 385 -226 385q-112 0 -168.5 -86t-56.5 -285v-55q0 -199 56.5 -285t168.5 -86z
M1135 0v161l516 737h-492v169h725v-161l-518 -737h532v-169h-763z" />
    <glyph glyph-name="uni0218" unicode="&#x218;" horiz-adv-x="1130" 
d="M578 -29q-238 0 -365 118.5t-135 339.5h212q15 -283 287 -283q58 0 103 9.5t85 32t61.5 67t21.5 108.5v4q0 101 -58 155.5t-174 91.5l-185 62q-163 52 -248.5 148t-85.5 261v10q0 173 126 275.5t328 102.5q215 0 335.5 -103t129.5 -319h-212q-5 73 -26.5 123t-58 76.5
t-78.5 37t-97 10.5q-68 0 -118.5 -17t-84.5 -62t-34 -116v-7q0 -87 49 -141.5t147 -85.5l186 -60q70 -23 123.5 -48t101.5 -60.5t79 -79t48.5 -103t17.5 -131.5v-6q0 -196 -129 -303t-352 -107zM302 -362l165 264h218l-186 -264h-197z" />
    <glyph glyph-name="uni0219" unicode="&#x219;" horiz-adv-x="918" 
d="M471 -29q-193 0 -295.5 92t-107.5 277h203q4 -116 56 -167t149 -51q84 0 132 37.5t48 104.5v5q0 66 -37 99t-119 61l-165 61q-123 43 -186 113.5t-63 192.5v4q0 140 102.5 218t259.5 78q363 0 374 -338h-203q-5 106 -48.5 146.5t-126.5 40.5q-72 0 -115.5 -34.5
t-43.5 -100.5v-3q0 -56 31 -90t96 -56l165 -61q53 -18 91.5 -35.5t75.5 -43.5t60 -56.5t37 -73.5t14 -97v-8q0 -153 -106 -234t-278 -81zM191 -362l165 264h218l-186 -264h-197z" />
    <glyph glyph-name="uni021A" unicode="&#x21a;" horiz-adv-x="1066" 
d="M428 0v1260h-404v184h1020v-184h-405v-1260h-211zM259 -362l165 264h218l-186 -264h-197z" />
    <glyph glyph-name="uni021B" unicode="&#x21b;" horiz-adv-x="645" 
d="M460 0q-88 0 -140.5 12t-85 45.5t-43.5 85t-11 138.5v617h-143v169h143v317h203v-317h191v-169h-191v-615q0 -38 3 -56.5t16.5 -33.5t38.5 -19.5t70 -4.5h61v-169h-112zM108 -362l165 264h218l-186 -264h-197z" />
    <glyph glyph-name="uni0237" unicode="&#x237;" horiz-adv-x="461" 
d="M-31 -333v169h35q82 0 104 21.5t22 98.5v1111h203v-1113q0 -88 -15 -143t-53 -87.5t-93.5 -44.5t-144.5 -12h-58z" />
    <glyph glyph-name="uni02BC" unicode="&#x2bc;" horiz-adv-x="451" 
d="M383 1505l-105 -336h-210l138 336h177z" />
    <glyph glyph-name="circumflex" unicode="&#x2c6;" horiz-adv-x="708" 
d="M38 1210l207 234h217l209 -234h-196l-121 128l-120 -128h-196z" />
    <glyph glyph-name="caron" unicode="&#x2c7;" horiz-adv-x="708" 
d="M38 1444h196l120 -128l121 128h196l-209 -234h-217z" />
    <glyph glyph-name="uni02C9" unicode="&#x2c9;" horiz-adv-x="635" 
d="M47 1253v140h541v-140h-541z" />
    <glyph glyph-name="breve" unicode="&#x2d8;" horiz-adv-x="647" 
d="M323 1199q-255 0 -276 245h155q5 -59 35 -86t86 -27q57 0 87 27t35 86h155q-23 -245 -277 -245z" />
    <glyph glyph-name="dotaccent" unicode="&#x2d9;" horiz-adv-x="296" 
d="M47 1209v235h203v-235h-203z" />
    <glyph glyph-name="ring" unicode="&#x2da;" horiz-adv-x="550" 
d="M277 1175q-95 0 -162.5 63t-67.5 158t67.5 158t162.5 63q94 0 161.5 -63t67.5 -158t-67.5 -158t-161.5 -63zM277 1277q51 0 83 33t32 86q0 52 -32 85t-83 33q-52 0 -84 -32.5t-32 -85.5t32 -86t84 -33z" />
    <glyph glyph-name="ogonek" unicode="&#x2db;" horiz-adv-x="495" 
d="M165 1h159q-101 -65 -101 -142q0 -41 25 -63.5t65 -22.5q41 0 76 19l51 -113q-73 -49 -174 -49q-100 0 -159.5 48t-59.5 129q0 115 118 194z" />
    <glyph glyph-name="tilde" unicode="&#x2dc;" horiz-adv-x="727" 
d="M47 1210q3 250 170 250q46 0 97 -25t95 -50t73 -25q34 0 49 24t18 76h132q-2 -127 -43.5 -188.5t-126.5 -61.5q-37 0 -77.5 16t-69.5 34.5t-62 34.5t-56 16q-33 0 -48.5 -24.5t-18.5 -76.5h-132z" />
    <glyph glyph-name="hungarumlaut" unicode="&#x2dd;" horiz-adv-x="951" 
d="M47 1210l198 234h249l-248 -234h-199zM457 1210l198 234h249l-248 -234h-199z" />
    <glyph glyph-name="uni030C" unicode="&#x30c;" horiz-adv-x="305" 
d="M68 1505h182l-53 -336h-129v336z" />
    <glyph glyph-name="uni0326" unicode="&#x326;" horiz-adv-x="477" 
d="M47 -362l165 264h218l-186 -264h-197z" />
    <glyph glyph-name="uni0327" unicode="&#x327;" horiz-adv-x="529" 
d="M47 1241l230 264h205l-201 -264h-234z" />
    <glyph glyph-name="uni0394" unicode="&#x394;" horiz-adv-x="1209" 
d="M28 0l427 1505h300l426 -1505h-1153zM292 168h625l-312 1163z" />
    <glyph glyph-name="uni03A9" unicode="&#x3a9;" horiz-adv-x="1426" 
d="M91 0v168h312q-56 46 -107.5 112t-97 150t-72.5 190t-27 215v5q0 157 46.5 288.5t128.5 219.5t195 137t244 49t244 -48.5t195 -137.5t128.5 -219.5t46.5 -288.5v-5q0 -109 -27 -215t-72 -190t-96.5 -150t-107.5 -112h312v-168h-527v160q129 81 216.5 263.5t87.5 405.5v4
q0 244 -107 384t-293 140t-293 -140t-107 -384v-4q0 -222 88 -405t216 -264v-160h-526z" />
    <glyph glyph-name="uni03BC" unicode="&#x3bc;" 
d="M121 -333v1400h202v-654q0 -141 47.5 -209t144.5 -68q98 0 145.5 67.5t47.5 209.5v654h203v-1067h-203v110q-39 -64 -108.5 -101.5t-157.5 -37.5q-65 0 -119 18v-322h-202z" />
    <glyph glyph-name="pi" unicode="&#x3c0;" horiz-adv-x="1243" 
d="M237 0v898h-210v169h1155v-169h-210v-591q0 -85 33.5 -111.5t128.5 -26.5h23v-169h-54q-186 0 -260.5 63t-74.5 225v610h-328v-898h-203z" />
    <glyph glyph-name="Wgrave" unicode="&#x1e80;" horiz-adv-x="1669" 
d="M316 0l-268 1444h211l211 -1239h3l213 1239h296l215 -1243h4l211 1243h208l-267 -1444h-298l-218 1254h-5l-218 -1254h-298zM767 1618l-290 264h275l233 -264h-218z" />
    <glyph glyph-name="wgrave" unicode="&#x1e81;" horiz-adv-x="1490" 
d="M284 0l-247 1067h207l184 -885h5l190 885h244l195 -885h3l186 885h203l-247 -1067h-265l-197 874h-4l-193 -874h-264zM666 1210l-221 234h249l184 -234h-212z" />
    <glyph glyph-name="Wacute" unicode="&#x1e82;" horiz-adv-x="1669" 
d="M316 0l-268 1444h211l211 -1239h3l213 1239h296l215 -1243h4l211 1243h208l-267 -1444h-298l-218 1254h-5l-218 -1254h-298zM684 1618l234 264h274l-289 -264h-219z" />
    <glyph glyph-name="wacute" unicode="&#x1e83;" horiz-adv-x="1490" 
d="M284 0l-247 1067h207l184 -885h5l190 885h244l195 -885h3l186 885h203l-247 -1067h-265l-197 874h-4l-193 -874h-264zM625 1210l183 234h250l-227 -234h-206z" />
    <glyph glyph-name="Wdieresis" unicode="&#x1e84;" horiz-adv-x="1669" 
d="M316 0l-268 1444h211l211 -1239h3l213 1239h296l215 -1243h4l211 1243h208l-267 -1444h-298l-218 1254h-5l-218 -1254h-298zM504 1633v249h206v-249h-206zM960 1633v249h206v-249h-206z" />
    <glyph glyph-name="wdieresis" unicode="&#x1e85;" horiz-adv-x="1490" 
d="M284 0l-247 1067h207l184 -885h5l190 885h244l195 -885h3l186 885h203l-247 -1067h-265l-197 874h-4l-193 -874h-264zM443 1210v234h203v-234h-203zM845 1210v234h203v-234h-203z" />
    <glyph glyph-name="endash" unicode="&#x2013;" horiz-adv-x="1153" 
d="M115 456v183h923v-183h-923z" />
    <glyph glyph-name="emdash" unicode="&#x2014;" horiz-adv-x="1826" 
d="M115 456v183h1595v-183h-1595z" />
    <glyph glyph-name="quoteleft" unicode="&#x2018;" horiz-adv-x="461" 
d="M416 1444l-143 -486h-213l178 486h178z" />
    <glyph glyph-name="quoteright" unicode="&#x2019;" horiz-adv-x="455" 
d="M66 958l143 486h213l-178 -486h-178z" />
    <glyph glyph-name="quotesinglbase" unicode="&#x201a;" horiz-adv-x="450" 
d="M5 -230l141 485h213l-178 -485h-176z" />
    <glyph glyph-name="quotedblleft" unicode="&#x201c;" horiz-adv-x="816" 
d="M416 1444l-143 -486h-213l178 486h178zM771 1444l-142 -486h-213l178 486h177z" />
    <glyph glyph-name="quotedblright" unicode="&#x201d;" horiz-adv-x="812" 
d="M422 958l143 486h213l-179 -486h-177zM66 958l143 486h213l-178 -486h-178z" />
    <glyph glyph-name="quotedblbase" unicode="&#x201e;" horiz-adv-x="806" 
d="M5 -230l141 485h213l-178 -485h-176zM361 -230l142 485h213l-178 -485h-177z" />
    <glyph glyph-name="dagger" unicode="&#x2020;" horiz-adv-x="974" 
d="M394 -197v1081h-348v183h348v438h186v-438h348v-183h-348v-1081h-186z" />
    <glyph glyph-name="daggerdbl" unicode="&#x2021;" horiz-adv-x="1061" 
d="M437 -197v448h-348v183h348v450h-348v183h348v438h187v-438h348v-183h-348v-450h348v-183h-348v-448h-187z" />
    <glyph glyph-name="bullet" unicode="&#x2022;" horiz-adv-x="986" 
d="M125 540q0 150 106.5 256t253.5 106q160 0 268.5 -105.5t108.5 -256.5q0 -160 -108 -267.5t-269 -107.5q-148 0 -254 108.5t-106 266.5z" />
    <glyph glyph-name="ellipsis" unicode="&#x2026;" horiz-adv-x="1411" 
d="M1091 0v255h210v-255h-210zM601 0v255h210v-255h-210zM110 0v255h210v-255h-210z" />
    <glyph glyph-name="guilsinglleft" unicode="&#x2039;" horiz-adv-x="599" 
d="M293 191l-218 382l218 381h212l-213 -381l213 -382h-212z" />
    <glyph glyph-name="guilsinglright" unicode="&#x203a;" horiz-adv-x="599" 
d="M524 573l-217 -382h-213l214 382l-214 381h213z" />
    <glyph glyph-name="fraction" unicode="&#x2044;" horiz-adv-x="425" 
d="M-183 0l618 1505h168l-618 -1505h-168z" />
    <glyph glyph-name="Euro" unicode="&#x20ac;" horiz-adv-x="1373" 
d="M816 -28q-219 0 -337 124t-150 391v1h-252l76 172h164q-2 88 1 159h-241l76 172h179v1q36 248 153.5 364.5t330.5 116.5q440 0 456 -481h-205q-3 89 -23.5 152.5t-55.5 98t-77 49.5t-95 15q-115 0 -179.5 -76t-87.5 -239v-1h350l-75 -172h-289q-3 -71 -1 -159h365
l-75 -172h-278v-1q21 -183 85 -266t185 -83q53 0 95 15t77 49.5t55.5 97.5t23.5 153h205q-16 -481 -456 -481z" />
    <glyph glyph-name="uni20BF" unicode="&#x20bf;" horiz-adv-x="1169" 
d="M144 0v1444h129v296h187v-296h117v296h187v-315q130 -34 194.5 -123.5t64.5 -219.5v-10q0 -110 -50 -189t-131 -117v-2q251 -85 251 -350v-10q0 -164 -84.5 -261t-244.5 -128v-267h-187v252h-117v-252h-187v252h-129zM355 830h229q111 0 169 55.5t58 158.5v14
q0 102 -58 155.5t-169 53.5h-229v-437zM355 177h236q150 0 215.5 56t65.5 177v12q0 119 -65.5 176.5t-215.5 57.5h-236v-479z" />
    <glyph glyph-name="uni2113" unicode="&#x2113;" horiz-adv-x="849" 
d="M597 -14q-62 0 -113.5 10.5t-99 37.5t-80 70t-52 111t-19.5 158q-69 -46 -137 -86l-86 142q123 76 223 153v567q0 190 79.5 287.5t225.5 97.5q140 0 220 -81t80 -239q0 -171 -106 -349t-301 -343v-128q0 -124 52.5 -173.5t149.5 -49.5q59 0 126 9v-180q-87 -14 -162 -14z
M431 756q206 217 206 442q0 82 -26.5 124t-75.5 42q-51 0 -77.5 -44t-26.5 -153v-411z" />
    <glyph glyph-name="trademark" unicode="&#x2122;" horiz-adv-x="1758" 
d="M296 575v747h-248v122h641v-122h-248v-747h-145zM822 575v869h206l191 -666l192 666h205v-869h-144v412l2 250h-1l-189 -662h-129l-189 662h-1l2 -250v-412h-145z" />
    <glyph glyph-name="uni2126" unicode="&#x2126;" horiz-adv-x="1426" 
d="M91 0v168h312q-56 46 -107.5 112t-97 150t-72.5 190t-27 215v5q0 157 46.5 288.5t128.5 219.5t195 137t244 49t244 -48.5t195 -137.5t128.5 -219.5t46.5 -288.5v-5q0 -109 -27 -215t-72 -190t-96.5 -150t-107.5 -112h312v-168h-526v160q128 81 215.5 264t87.5 405v4
q0 244 -107 384t-293 140t-293 -140t-107 -384v-4q0 -222 88 -405t216 -264v-160h-526z" />
    <glyph glyph-name="estimated" unicode="&#x212e;" horiz-adv-x="1885" 
d="M1827 731h-1424v-366q0 -86 81 -166.5t217.5 -131t285.5 -50.5q194 0 374.5 83.5t287.5 205.5h73q-130 -154 -316 -244.5t-422 -90.5q-188 0 -355.5 62t-286 167t-187.5 249t-69 304q0 213 116 392.5t315.5 284t435.5 104.5q177 0 338.5 -62t279 -166t187 -249t69.5 -304
v-22zM403 1160v-386h1106v386q0 59 -40.5 117t-111.5 105t-177 76.5t-227 29.5t-226 -29.5t-175 -76.5t-109.5 -105t-39.5 -117z" />
    <glyph glyph-name="arrowleft" unicode="&#x2190;" horiz-adv-x="1474" 
d="M616 17l-518 518l518 517h246l-427 -425h942v-185h-940l425 -425h-246z" />
    <glyph glyph-name="arrowup" unicode="&#x2191;" horiz-adv-x="1232" 
d="M523 0v1205l-425 -424v246l518 517l518 -517v-246l-425 425v-1206h-186z" />
    <glyph glyph-name="arrowright" unicode="&#x2192;" horiz-adv-x="1474" 
d="M1385 535l-518 -518h-246l425 425h-940v185h942l-427 425h246z" />
    <glyph glyph-name="arrowdown" unicode="&#x2193;" horiz-adv-x="1232" 
d="M718 1505v-1205l425 424v-246l-518 -517l-518 517v246l425 -425v1206h186z" />
    <glyph glyph-name="uni2196" unicode="&#x2196;" horiz-adv-x="1164" 
d="M98 186v881h881v-174h-577l664 -666l-129 -130l-665 665v-576h-174z" />
    <glyph glyph-name="uni2197" unicode="&#x2197;" horiz-adv-x="1164" 
d="M1075 1067v-881h-174v576l-665 -665l-129 130l664 666h-577v174h881z" />
    <glyph glyph-name="uni2198" unicode="&#x2198;" horiz-adv-x="1164" 
d="M1075 978v-881h-881v174h577l-664 666l129 130l665 -665v576h174z" />
    <glyph glyph-name="uni2199" unicode="&#x2199;" horiz-adv-x="1164" 
d="M98 97v881h174v-576l665 665l129 -130l-664 -666h577v-174h-881z" />
    <glyph glyph-name="uni21B0" unicode="&#x21b0;" horiz-adv-x="1474" 
d="M97 535l519 518h246l-427 -426h941v-1021h-188v837h-753l427 -426h-246z" />
    <glyph glyph-name="uni21B1" unicode="&#x21b1;" horiz-adv-x="1474" 
d="M867 1053l519 -518l-519 -518h-246l427 426h-753v-837h-188v1021h941l-427 426h246z" />
    <glyph glyph-name="uni21B2" unicode="&#x21b2;" horiz-adv-x="1474" 
d="M616 17l-519 518l519 517h246l-427 -425h753v877h188v-1062h-940l426 -425h-246z" />
    <glyph glyph-name="uni21B3" unicode="&#x21b3;" horiz-adv-x="1474" 
d="M1386 535l-519 -518h-246l426 425h-940v1062h188v-877h753l-427 425h246z" />
    <glyph glyph-name="partialdiff" unicode="&#x2202;" horiz-adv-x="1057" 
d="M529 -29q-214 0 -331 142.5t-117 390.5v56q0 248 114.5 391t321.5 143q84 0 139 -32l1 2q-57 105 -153.5 193.5t-243.5 176.5l114 150q201 -115 338 -276.5t200.5 -342.5t63.5 -381v-49q0 -268 -118 -416t-329 -148zM529 134q234 0 234 367v63q0 177 -59.5 272t-174.5 95
t-175 -95t-60 -272v-62q0 -368 235 -368z" />
    <glyph glyph-name="uni2206" unicode="&#x2206;" horiz-adv-x="1232" 
d="M40 0l427 1505h301l425 -1505h-1153zM303 168h627l-313 1163z" />
    <glyph glyph-name="product" unicode="&#x220f;" horiz-adv-x="1265" 
d="M144 -197v1702h977v-1702h-204v1519h-569v-1519h-204z" />
    <glyph glyph-name="summation" unicode="&#x2211;" horiz-adv-x="1089" 
d="M61 -189v176l473 668l-473 674v176h968v-183h-714l468 -667l-468 -661h714v-183h-968z" />
    <glyph glyph-name="minus" unicode="&#x2212;" horiz-adv-x="1132" 
d="M121 640v183h890v-183h-890z" />
    <glyph glyph-name="uni2215" unicode="&#x2215;" horiz-adv-x="425" 
d="M-183 0l618 1505h168l-618 -1505h-168z" />
    <glyph glyph-name="uni2219" unicode="&#x2219;" horiz-adv-x="580" 
d="M185 420v255h210v-255h-210z" />
    <glyph glyph-name="radical" unicode="&#x221a;" horiz-adv-x="1192" 
d="M517 0l-280 910h-215v157h374l239 -813h2l352 1251h203l-433 -1505h-242z" />
    <glyph glyph-name="infinity" unicode="&#x221e;" horiz-adv-x="1507" 
d="M391 384q-129 0 -217 97.5t-88 251.5t88 251t217 97q96 0 182.5 -59.5t180.5 -164.5q93 105 179.5 164.5t182.5 59.5q129 0 217.5 -97t88.5 -251q0 -155 -88.5 -252t-217.5 -97q-96 0 -182.5 59.5t-179.5 164.5q-94 -105 -180.5 -164.5t-182.5 -59.5zM406 563
q55 0 111.5 43.5t128.5 126.5q-72 82 -128.5 125.5t-111.5 43.5q-53 0 -89 -48t-36 -121q0 -74 36 -122t89 -48zM860 733q74 -83 130 -126.5t111 -43.5q52 0 88.5 48.5t36.5 121.5t-36.5 121t-88.5 48q-55 0 -111 -43t-130 -126z" />
    <glyph glyph-name="integral" unicode="&#x222b;" horiz-adv-x="905" 
d="M-34 -417l29 169h36q118 0 172 80t80 257l134 923q38 259 136.5 376t299.5 117h81l-29 -169h-36q-118 0 -172 -80t-79 -257l-135 -922q-38 -259 -136.5 -376.5t-299.5 -117.5h-81z" />
    <glyph glyph-name="approxequal" unicode="&#x2248;" horiz-adv-x="1137" 
d="M256 360l-153 64q93 243 288 243q48 0 92.5 -16.5t77.5 -40.5t63 -47.5t63 -40t65 -16.5q49 0 79 29.5t60 100.5l152 -64q-91 -243 -287 -243q-49 0 -93.5 16.5t-77 40.5t-63 47.5t-63 40t-64.5 16.5q-49 0 -79 -29.5t-60 -100.5zM256 772l-153 64q93 243 288 243
q48 0 92.5 -16.5t77.5 -40.5t63 -47.5t63 -40t65 -16.5q49 0 79 29.5t60 100.5l152 -64q-91 -243 -287 -243q-49 0 -93.5 16.5t-77 40.5t-63 47.5t-63 40t-64.5 16.5q-49 0 -79 -29.5t-60 -100.5z" />
    <glyph glyph-name="notequal" unicode="&#x2260;" horiz-adv-x="1130" 
d="M120 839v183h502l115 220h185l-116 -220h204v-183h-298l-109 -212h407v-183h-501l-115 -220h-185l115 220h-204v183h298l110 212h-408z" />
    <glyph glyph-name="lessequal" unicode="&#x2264;" horiz-adv-x="1050" 
d="M96 686v169l838 371v-196l-618 -258v-1l618 -257v-196zM96 0v183h838v-183h-838z" />
    <glyph glyph-name="greaterequal" unicode="&#x2265;" horiz-adv-x="1050" 
d="M955 855v-169l-839 -368v196l618 257v1l-618 258v196zM955 183v-183h-839v183h839z" />
    <glyph glyph-name="lozenge" unicode="&#x25ca;" horiz-adv-x="1103" 
d="M551 191h2l284 562l-284 561h-2l-284 -561zM449 0l-382 753l382 752h205l382 -752l-382 -753h-205z" />
    <glyph glyph-name="uniF8FF" unicode="&#xf8ff;" horiz-adv-x="674" 
 />
    <glyph glyph-name="acute.case" horiz-adv-x="605" 
d="M47 1618l234 264h274l-289 -264h-219z" />
    <glyph glyph-name="dieresis.case" horiz-adv-x="755" 
d="M47 1633v249h206v-249h-206zM503 1633v249h206v-249h-206z" />
    <glyph glyph-name="caron.case" horiz-adv-x="758" 
d="M47 1882h209l123 -159l123 159h209l-207 -264h-251z" />
    <glyph glyph-name="ring.case" horiz-adv-x="552" 
d="M277 1549q-95 0 -162.5 63.5t-67.5 158.5t67.5 158t162.5 63q94 0 161.5 -63t67.5 -158t-67.5 -158.5t-161.5 -63.5zM277 1652q51 0 83 33t32 86q0 52 -32 85t-83 33q-52 0 -84 -32.5t-32 -85.5t32 -86t84 -33z" />
    <glyph glyph-name="circumflex.case" horiz-adv-x="758" 
d="M47 1618l206 264h251l207 -264h-209l-123 159l-123 -159h-209z" />
    <glyph glyph-name="tilde.case" horiz-adv-x="727" 
d="M47 1625q3 250 170 250q46 0 97 -25t95 -50t73 -25q34 0 49 24t18 76h132q-2 -127 -43.5 -188.5t-126.5 -61.5q-46 0 -97.5 25.5t-95 50.5t-72.5 25q-33 0 -48.5 -24.5t-18.5 -76.5h-132z" />
    <glyph glyph-name="grave.case" horiz-adv-x="602" 
d="M337 1618l-290 264h275l233 -264h-218z" />
    <glyph glyph-name="macron.case" horiz-adv-x="635" 
d="M47 1663v143h541v-143h-541z" />
    <glyph glyph-name="a_uni0331.3" horiz-adv-x="758" 
d="M47 1882h209l123 -159l123 159h209l-207 -264h-251z" />
    <glyph glyph-name="dotaccent.case" horiz-adv-x="299" 
d="M47 1633v249h206v-249h-206z" />
    <glyph glyph-name="breve.case" horiz-adv-x="647" 
d="M323 1624q-121 0 -193 65t-83 193h155q10 -126 121 -126q112 0 122 126h155q-12 -128 -84 -193t-193 -65z" />
    <glyph glyph-name="commaaccent.salt" horiz-adv-x="477" 
d="M47 -362l165 264h218l-186 -264h-197z" />
    <glyph glyph-name="hungarumlaut.case" horiz-adv-x="1017" 
d="M47 1618l234 264h274l-289 -264h-219zM462 1618l233 264h275l-290 -264h-218z" />
    <glyph glyph-name="emdash.case" horiz-adv-x="1983" 
d="M121 640v183h1742v-183h-1742z" />
    <glyph glyph-name="endash.case" horiz-adv-x="1164" 
d="M121 640v183h922v-183h-922z" />
    <glyph glyph-name="periodcentered.case" horiz-adv-x="450" 
d="M121 604v255h209v-255h-209z" />
    <glyph glyph-name="hyphen.case" horiz-adv-x="829" 
d="M121 640v183h587v-183h-587z" />
    <glyph glyph-name="braceleft.case" horiz-adv-x="605" 
d="M479 -167q-157 0 -223.5 65.5t-66.5 234.5v312q0 58 -8.5 94t-30.5 58t-48 33.5t-74 23.5v138q48 12 74 23.5t48 33.5t30.5 58t8.5 93v312q0 168 66.5 233.5t223.5 65.5h61v-156h-20q-94 0 -122 -26.5t-28 -124.5v-275q0 -133 -36.5 -200.5t-137.5 -104.5v-2
q101 -37 137.5 -104.5t36.5 -200.5v-276q0 -42 4 -68t12.5 -44t27.5 -26t42.5 -11t63.5 -3h20v-156h-61z" />
    <glyph glyph-name="braceright.case" horiz-adv-x="605" 
d="M55 -167v156h20q40 0 63.5 3t42.5 11t27.5 26t12.5 44t4 68v276q0 133 37 200.5t137 104.5v2q-100 37 -137 104.5t-37 200.5v275q0 98 -28 124.5t-122 26.5h-20v156h61q157 0 223.5 -65.5t66.5 -233.5v-312q0 -57 8.5 -93t31 -58t48 -33.5t73.5 -23.5v-138
q-48 -12 -73.5 -23.5t-48 -33.5t-31 -58t-8.5 -94v-312q0 -169 -66.5 -234.5t-223.5 -65.5h-61z" />
    <glyph glyph-name="bracketleft.case" horiz-adv-x="658" 
d="M144 -167v1778h477v-156h-294v-1466h294v-156h-477z" />
    <glyph glyph-name="bracketright.case" horiz-adv-x="658" 
d="M38 -167v156h294v1466h-294v156h477v-1778h-477z" />
    <glyph glyph-name="parenleft.case" horiz-adv-x="528" 
d="M328 -167q-112 151 -178.5 400t-66.5 490t66.5 489.5t178.5 398.5h176q-112 -174 -170.5 -409.5t-58.5 -478.5t58.5 -479t170.5 -411h-176z" />
    <glyph glyph-name="parenright.case" horiz-adv-x="528" 
d="M24 -167q112 175 170.5 411t58.5 479t-58.5 478.5t-170.5 409.5h176q112 -150 178.5 -398.5t66.5 -489.5t-66.5 -490t-178.5 -400h-176z" />
    <glyph glyph-name="colon.case" horiz-adv-x="431" 
d="M110 198v255h210v-255h-210zM110 1010v255h210v-255h-210z" />
    <glyph glyph-name="exclamdown.case" horiz-adv-x="486" 
d="M357 1505v-255h-209v255h209zM332 1063l28 -553l-1 -449h-211v449l28 553h156z" />
    <glyph glyph-name="questiondown.case" horiz-adv-x="966" 
d="M607 1506v-255h-210v255h210zM490 201q218 0 218 238h209q-1 -188 -117 -297t-310 -109q-204 0 -318 95t-114 263v1q0 191 155 331l57 51q84 75 108 125.5t24 164.5h193q0 -105 -13.5 -165.5t-44 -104t-99.5 -106.5l-61 -55q-104 -95 -104 -230v-2q0 -103 53.5 -151.5
t163.5 -48.5z" />
    <glyph glyph-name="guillemotleft.case" horiz-adv-x="1000" 
d="M301 344l-217 382l217 381h213l-214 -381l214 -382h-213zM688 344l-217 382l217 381h214l-215 -381l215 -382h-214z" />
    <glyph glyph-name="guillemotright.case" horiz-adv-x="1002" 
d="M918 726l-217 -382h-213l214 382l-214 381h213zM530 726l-217 -382h-213l214 382l-214 381h213z" />
    <glyph glyph-name="guilsinglleft.case" horiz-adv-x="612" 
d="M299 349l-218 382l218 381h213l-214 -381l214 -382h-213z" />
    <glyph glyph-name="guilsinglright.case" horiz-adv-x="612" 
d="M531 731l-218 -382h-213l214 382l-214 381h213z" />
    <glyph glyph-name="bullet.case" horiz-adv-x="984" 
d="M124 731q0 150 106 256.5t254 106.5q160 0 268.5 -105.5t108.5 -257.5q0 -160 -108 -267.5t-269 -107.5q-148 0 -254 108.5t-106 266.5z" />
    <glyph glyph-name="at.case" horiz-adv-x="1384" 
d="M662 440q76 0 122 71.5t46 204.5v63q0 122 -38.5 179.5t-105.5 57.5q-74 0 -117 -70.5t-43 -202.5v-64q0 -239 136 -239zM621 309q-126 0 -192 95t-66 274v68q0 179 78 290t214 111q124 0 183 -118l6 93h148l-18 -449q-3 -81 2 -131t24.5 -80.5t56.5 -30.5q123 0 123 312
v140q0 474 -459 474q-230 0 -357 -150.5t-127 -419.5v-180q0 -258 109.5 -391t322.5 -133q163 0 301 83l63 -119q-164 -101 -366 -101q-276 0 -428.5 172.5t-152.5 493.5v183q0 212 81 369.5t225 239.5t332 82q131 0 237 -32.5t188 -101.5t127 -186.5t45 -276.5v-148
q0 -226 -78.5 -330.5t-208.5 -104.5q-73 0 -124 40.5t-61 116.5q-32 -71 -90 -112.5t-138 -41.5z" />
    <glyph glyph-name="uni03BC.1" 
d="M121 -333v1400h202v-654q0 -141 47.5 -209t144.5 -68q98 0 145.5 67.5t47.5 209.5v654h203v-1067h-203v110q-39 -64 -108.5 -101.5t-157.5 -37.5q-65 0 -119 18v-322h-202z" />
    <glyph glyph-name="uni000D.1" horiz-adv-x="0" 
 />
    </font>
</defs>
</svg>
